<svg version="1.1" id="Layer_1" xmlns="http://www.w3.org/2000/svg" xmlns:xlink="http://www.w3.org/1999/xlink" x="0px" y="0px"
	 width="100%" viewBox="0 0 336 496" enable-background="new 0 0 336 496" xml:space="preserve">
<path fill="#000000" opacity="1.000000" stroke="none" 
	d="
M1.000000,19.428463 
	C4.530338,19.724266 6.884234,17.233698 9.620561,15.818774 
	C14.015894,13.545998 16.257475,14.750308 16.309607,19.668140 
	C16.399639,28.161455 16.446844,36.658089 16.300591,45.149689 
	C16.238701,48.743130 16.816204,51.452744 21.079756,51.800713 
	C22.608532,51.925484 23.533682,52.827190 23.386665,54.466034 
	C23.217131,56.355915 21.713480,56.302963 20.399837,56.303116 
	C14.238899,56.303825 8.077955,56.249367 1.458507,56.107307 
	C1.000000,54.611111 1.000000,53.222221 1.322659,51.548752 
	C6.056312,52.281685 7.800526,50.335564 7.709545,46.024227 
	C7.604596,41.050968 7.687038,36.073742 7.688759,31.098240 
	C7.691131,24.242613 7.691393,24.242613 1.000000,25.000000 
	C1.000000,23.285643 1.000000,21.571283 1.000000,19.428463 
z"/>
<path fill="#000000" opacity="1.000000" stroke="none" 
	d="
M337.000000,482.571533 
	C334.580658,483.684357 332.482727,485.007019 330.304138,486.213501 
	C326.022980,488.584320 323.727112,487.246185 323.679474,482.347992 
	C323.595612,473.726990 323.547455,465.102905 323.697144,456.483795 
	C323.757568,453.003021 322.947144,450.617065 319.043884,450.291504 
	C317.407806,450.155029 315.998901,449.498505 316.197784,447.585632 
	C316.414734,445.499176 318.235779,445.710388 319.673218,445.705627 
	C325.143158,445.687531 330.613312,445.750793 336.541687,445.891846 
	C337.000000,447.388885 337.000000,448.777802 336.694122,450.498993 
	C333.337311,450.556000 332.265228,452.077576 332.304413,454.984100 
	C332.389465,461.294678 332.414368,467.609344 332.278442,473.918335 
	C332.196106,477.741394 334.040894,478.097992 337.000000,477.000000 
	C337.000000,478.714355 337.000000,480.428711 337.000000,482.571533 
z"/>
<path fill="#000000" opacity="1.000000" stroke="none" 
	d="
M227.464661,450.304077 
	C220.700241,438.910980 226.765015,431.120117 234.236679,423.526306 
	C230.379150,426.751648 226.793793,430.090057 221.499496,430.291687 
	C216.209152,430.493073 211.626923,429.002380 208.136017,424.902496 
	C203.058426,418.939087 203.327728,409.360291 208.714798,403.889832 
	C212.943497,399.595734 218.119873,398.597137 223.884613,399.702118 
	C229.529922,400.784180 232.489029,405.653961 237.118027,409.285736 
	C237.207993,401.777100 235.466110,395.527191 231.397400,389.852753 
	C228.495270,385.805298 229.260468,384.279419 234.179901,384.092743 
	C238.167770,383.941376 242.172958,383.935944 246.158646,384.120728 
	C250.490967,384.321594 251.490784,385.998718 248.989410,389.342102 
	C244.717377,395.052155 242.956985,401.434753 242.708527,408.896973 
	C245.132828,407.989746 246.393875,406.041260 247.950562,404.546051 
	C255.002151,397.773254 264.882172,397.433228 271.180725,403.803406 
	C277.084045,409.773743 276.988586,419.922821 270.973145,425.884369 
	C264.549896,432.250122 254.964371,431.786743 247.910126,424.699707 
	C247.372681,424.159790 247.264236,423.192871 246.433151,422.938599 
	C246.776566,425.834839 248.866837,427.262604 250.482315,429.049866 
	C257.202820,436.484955 257.300415,445.943237 250.685135,452.277649 
	C244.156219,458.529236 234.719299,457.842590 227.464661,450.304077 
z"/>
<path fill="#000000" opacity="1.000000" stroke="none" 
	d="
M93.877396,424.257446 
	C92.344147,423.504669 91.972275,425.119751 91.172821,425.851685 
	C84.705864,431.772705 75.051468,431.837952 69.054436,425.922302 
	C63.076660,420.025696 62.975231,409.853821 68.833809,403.798828 
	C74.626007,397.812561 84.608154,397.611542 90.890335,403.623627 
	C92.770348,405.422791 93.977943,407.924591 96.219559,409.459564 
	C97.173424,401.922821 95.669197,395.671844 91.574585,390.164886 
	C90.586212,388.835602 89.210091,387.502411 89.988869,385.707520 
	C90.913956,383.575500 93.083893,384.118561 94.821404,384.079895 
	C98.648178,383.994751 102.486504,383.938629 106.305855,384.140442 
	C110.591492,384.366913 111.478424,386.003387 108.882263,389.462921 
	C104.597176,395.172974 103.034660,401.622711 102.507439,409.081787 
	C105.078247,408.108032 106.320129,406.131378 107.874046,404.630493 
	C114.942360,397.803436 124.789368,397.390625 131.105530,403.724823 
	C137.049591,409.685822 137.011642,419.814362 131.022842,425.816284 
	C124.607147,432.246033 114.930962,431.814484 107.964180,424.747803 
	C107.404221,424.179840 107.087692,423.371887 106.658051,422.675415 
	C106.313171,422.992645 105.968292,423.309875 105.623413,423.627106 
	C107.837845,426.171204 110.237083,428.579468 112.227821,431.287994 
	C116.237022,436.742798 116.740692,442.785431 113.531418,448.661682 
	C110.136597,454.877716 104.402626,457.180481 97.475883,456.252869 
	C91.255867,455.419922 87.110687,451.762817 85.316284,445.860870 
	C83.804672,440.889008 84.254814,435.930450 87.582985,431.645599 
	C89.519287,429.152679 91.688393,426.840546 93.877396,424.257446 
z"/>
<path fill="#000000" opacity="1.000000" stroke="none" 
	d="
M188.310303,160.243408 
	C181.311356,159.486298 177.764572,154.260117 172.502213,149.430222 
	C172.722672,156.861618 174.076721,162.852631 177.657394,168.317200 
	C178.792679,170.049759 181.155411,171.611893 179.773071,173.973602 
	C178.473450,176.194000 175.864532,175.190704 173.809006,175.276474 
	C170.650269,175.408295 167.480576,175.349823 164.317719,175.276978 
	C162.876846,175.243805 161.161545,175.648880 160.240768,174.087585 
	C159.187332,172.301392 160.395981,170.949997 161.420425,169.616669 
	C165.750427,163.980972 167.130188,157.437698 167.519089,150.591599 
	C167.094147,150.205124 166.669189,149.818665 166.244247,149.432190 
	C164.745270,151.324738 163.418381,153.390686 161.716904,155.079178 
	C155.097336,161.648178 145.536713,162.047150 139.310196,156.155548 
	C133.394104,150.557678 132.908539,140.322189 138.278000,134.397247 
	C144.072372,128.003403 153.682907,127.530533 160.796646,133.295410 
	C161.432297,133.810532 162.037094,134.363693 163.308685,134.345779 
	C161.853424,132.724594 160.400192,131.101578 158.942551,129.482529 
	C152.923019,122.796417 152.954330,113.490585 159.018265,107.422684 
	C164.986557,101.450493 174.382782,101.334091 180.658524,107.154594 
	C186.847061,112.894218 187.197891,122.364304 181.435379,129.216400 
	C179.944656,130.988998 178.337402,132.663589 176.953751,134.662216 
	C180.383957,132.081253 183.847443,129.696701 188.270615,129.365295 
	C192.592453,129.041489 196.553711,129.936539 199.968903,132.696198 
	C204.814362,136.611557 206.785446,143.930069 204.664642,149.932343 
	C202.264404,156.725464 197.014084,160.132355 188.310303,160.243408 
z"/>
<path fill="#000000" opacity="1.000000" stroke="none" 
	d="
M204.826477,362.155151 
	C199.144012,374.219025 188.436966,376.042511 176.762726,367.580597 
	C178.371979,369.318695 180.050323,370.998383 181.577927,372.805511 
	C186.800156,378.983337 186.822601,387.977844 181.690735,393.899109 
	C176.833313,399.503693 168.780563,400.753754 162.157990,396.931244 
	C153.921051,392.176880 151.936523,381.177124 157.947937,373.542145 
	C159.995621,370.941437 162.766449,368.936005 164.962021,364.616486 
	C160.340240,368.850800 156.842636,372.466553 151.388611,372.745026 
	C146.017212,373.019287 141.552750,371.450012 138.087341,367.318420 
	C133.150208,361.432098 133.311234,352.269196 138.524872,346.703644 
	C142.758316,342.184418 147.934525,340.882843 153.997406,342.223206 
	C159.762817,343.497803 162.682846,348.543640 167.429047,352.293945 
	C166.960541,344.694794 165.902512,338.103851 161.483658,332.493378 
	C160.453445,331.185364 159.243835,329.764130 160.112305,327.994354 
	C161.044617,326.094482 163.025375,326.770966 164.586105,326.734802 
	C168.579849,326.642242 172.582184,326.600739 176.572220,326.760376 
	C180.497742,326.917389 181.430756,328.602966 178.986053,331.771759 
	C174.495987,337.591797 173.111237,344.269012 172.415161,352.648285 
	C180.192245,344.287109 187.935181,337.364655 198.957413,344.513550 
	C205.159714,348.536255 206.213760,354.882263 204.826477,362.155151 
z"/>
<path fill="#000000" opacity="1.000000" stroke="none" 
	d="
M105.489380,94.738098 
	C104.637901,93.993134 104.005402,93.485977 102.643929,92.394295 
	C102.557236,99.519051 104.275459,105.300690 107.614494,110.689789 
	C108.714256,112.464775 111.125664,114.036552 109.951988,116.355888 
	C108.653145,118.922546 105.786865,117.738487 103.589790,117.846748 
	C100.266716,118.010483 96.919197,118.012047 93.598663,117.809906 
	C89.381111,117.553169 88.504219,115.818237 91.183670,112.432014 
	C95.656776,106.779015 96.851593,100.208603 97.774406,91.808464 
	C95.002899,94.342407 93.128654,95.980019 91.339226,97.705589 
	C84.618393,104.186539 75.053368,104.464020 69.021469,98.319878 
	C63.047421,92.234695 63.041523,82.213234 69.008461,76.227005 
	C75.340820,69.874168 85.068085,70.137505 91.785568,76.848869 
	C92.459190,77.521889 93.104584,78.223160 94.314537,78.411942 
	C91.929764,75.555061 89.267288,72.882553 87.221268,69.800774 
	C83.589638,64.330704 83.500633,58.404015 86.836121,52.811852 
	C90.250351,47.087669 95.717735,44.953377 102.234528,45.753628 
	C108.440216,46.515675 112.745766,50.012238 114.599976,55.926056 
	C116.392647,61.643642 115.704185,67.117126 111.337112,71.711723 
	C109.340858,73.811966 107.055611,75.703430 106.008865,78.673065 
	C111.105293,73.517738 116.698349,70.112007 124.250763,72.370117 
	C130.527130,74.246696 134.793472,79.132599 135.309677,85.116188 
	C135.927734,92.280510 133.048050,98.011139 127.306618,101.042374 
	C121.819458,103.939369 114.714500,103.238312 109.948288,99.211037 
	C108.427750,97.926239 107.115776,96.394600 105.489380,94.738098 
z"/>
<path fill="#000000" opacity="1.000000" stroke="none" 
	d="
M92.738197,274.298615 
	C97.124641,274.224976 101.121643,274.087677 105.116570,274.132965 
	C106.857857,274.152679 109.041809,273.641785 109.974091,275.729919 
	C110.773483,277.520416 109.287437,278.884247 108.338135,280.189758 
	C104.310150,285.729218 102.839745,291.983246 102.459251,298.992767 
	C105.368835,298.103149 106.549438,295.955719 108.191223,294.417206 
	C115.139381,287.906097 124.958290,287.596802 131.026352,293.790222 
	C137.021545,299.909271 136.997910,309.862152 130.973969,315.840454 
	C124.658188,322.108337 115.200615,321.782196 108.282700,314.968536 
	C107.621460,314.317261 107.436996,313.181915 107.031212,312.271271 
	C106.555962,312.722229 106.080719,313.173187 105.605469,313.624146 
	C107.833542,316.186981 110.231308,318.623169 112.256897,321.337128 
	C117.659477,328.575745 116.283012,338.142975 109.218948,343.579681 
	C102.924240,348.424255 92.812370,347.009979 87.699409,340.569916 
	C83.135681,334.821625 83.576675,326.056549 88.813538,319.841827 
	C90.580299,317.745148 92.498390,315.776031 94.178200,313.607086 
	C83.745613,321.793640 75.060570,322.457031 68.622078,315.401978 
	C63.141712,309.396790 63.198112,299.906921 68.749069,294.036865 
	C75.630699,286.759644 84.099411,288.237762 96.714066,298.917847 
	C97.908890,293.241058 96.158539,287.053375 91.334122,279.749359 
	C89.943306,277.643707 87.823730,275.340027 92.738197,274.298615 
z"/>
<path fill="#000000" opacity="1.000000" stroke="none" 
	d="
M209.100082,315.912628 
	C203.152069,308.176666 203.232819,299.899048 208.852509,293.905060 
	C213.139984,289.332001 218.518768,288.999451 224.081284,289.874237 
	C229.684525,290.755402 232.656342,295.765472 236.963547,299.314697 
	C238.203583,289.917297 233.329727,282.869263 228.729523,275.075958 
	C235.790756,273.922516 241.715454,273.821625 247.617218,274.331818 
	C250.990189,274.623413 250.681732,276.821289 249.084579,278.930725 
	C245.468063,283.707275 243.639145,289.159180 242.738800,294.992523 
	C242.544357,296.252319 241.953827,297.538971 243.281464,299.169678 
	C245.214752,297.348541 247.095566,295.566467 248.987686,293.796509 
	C253.734985,289.355652 260.778900,288.060791 266.588684,290.730194 
	C272.687042,293.532227 275.414612,298.443054 275.366547,305.104156 
	C275.321014,311.424805 272.423615,316.012024 266.882538,318.682434 
	C260.986725,321.523743 255.228577,320.804962 250.043808,316.699158 
	C248.668594,315.610138 247.474228,314.292694 245.614563,313.603973 
	C247.932404,316.309479 250.496887,318.844055 252.515213,321.757111 
	C256.363525,327.311340 256.674957,333.335083 253.214081,339.142822 
	C249.681931,345.070160 244.045380,347.171844 237.371506,346.216217 
	C231.191223,345.331299 227.029007,341.662659 225.282288,335.726105 
	C223.514664,329.718567 224.869461,324.203705 229.100601,319.497772 
	C230.832275,317.571808 232.619370,315.695648 234.209076,313.650818 
	C223.387299,321.838074 217.839539,322.440338 209.100082,315.912628 
z"/>
<path fill="#000000" opacity="1.000000" stroke="none" 
	d="
M96.082344,203.110352 
	C94.093018,205.032089 92.313980,206.787460 90.477341,208.480316 
	C84.355804,214.122681 74.880966,214.137085 69.236443,208.537140 
	C63.152901,202.501648 62.957283,192.513840 68.803513,186.432861 
	C74.552155,180.453384 84.173676,180.099594 90.490822,185.725464 
	C91.958847,187.032852 93.169044,188.629745 95.266754,189.421051 
	C92.761200,186.479141 90.103516,183.651810 87.782646,180.570786 
	C83.330589,174.660568 83.503853,166.498245 87.975876,161.122116 
	C93.430367,154.564880 103.537109,153.589050 109.940773,159.001328 
	C116.710640,164.723114 117.443466,174.621140 111.598030,181.322205 
	C109.589294,183.624954 107.046562,185.524628 105.741676,188.885773 
	C116.252823,180.299438 124.491600,179.544098 131.106186,186.318619 
	C136.769608,192.118973 136.990784,201.749969 131.552551,207.658951 
	C127.461700,212.103897 122.357185,213.294968 116.526894,212.357590 
	C110.591095,211.403275 107.588913,206.327942 102.445183,202.314896 
	C102.687042,209.677780 104.164658,215.670593 107.858597,221.102966 
	C108.947212,222.703903 111.008774,224.173416 109.939941,226.352798 
	C108.869438,228.535568 106.440208,227.802643 104.527657,227.859390 
	C101.198578,227.958160 97.863625,227.927094 94.532684,227.866104 
	C92.913383,227.836472 90.952225,228.213272 90.068199,226.409698 
	C89.207092,224.652893 90.475555,223.269211 91.519707,221.941940 
	C95.950554,216.309616 97.137840,209.659653 97.482468,202.755096 
	C97.487015,202.663986 97.205254,202.453064 97.118965,202.482056 
	C96.819954,202.582550 96.548302,202.764450 96.082344,203.110352 
z"/>
<path fill="#000000" opacity="1.000000" stroke="none" 
	d="
M275.135620,193.597687 
	C276.278595,201.827499 273.569794,207.839600 266.397736,211.334549 
	C259.878906,214.511154 253.048599,212.516800 246.708939,206.052322 
	C245.671951,204.994904 244.571869,203.999359 242.545761,202.061798 
	C242.596970,209.302048 244.010971,214.967102 247.264160,220.194931 
	C248.054840,221.465546 249.135239,222.577820 249.786652,223.907761 
	C250.653412,225.677444 250.336761,227.503204 248.082520,227.599213 
	C242.766830,227.825562 237.389313,228.140076 232.127518,227.574677 
	C228.331970,227.166824 229.630051,224.385880 231.167816,222.410721 
	C235.749283,216.526184 237.223618,209.749023 237.551620,202.604874 
	C237.084717,202.220703 236.617798,201.836533 236.150879,201.452362 
	C234.413956,203.658051 232.893387,206.085693 230.900299,208.028595 
	C224.428543,214.337402 214.943481,214.301956 209.044250,208.145844 
	C202.992081,201.830093 203.033981,192.151718 209.139572,186.124710 
	C215.195938,180.146347 224.851639,180.247025 231.185593,186.399612 
	C232.364487,187.544739 233.385132,188.852783 235.258072,189.409210 
	C232.764755,186.483017 230.107513,183.679230 227.811813,180.605453 
	C222.827103,173.931198 223.556137,165.188065 229.351074,159.723618 
	C235.337204,154.078888 244.797546,154.057495 250.644669,159.675446 
	C256.605072,165.402237 257.171814,174.681274 251.914902,180.950272 
	C249.842758,183.421341 247.202866,185.450531 245.420624,189.074341 
	C259.390167,178.192062 269.565887,179.794922 275.135620,193.597687 
z"/>
<path fill="#000000" opacity="1.000000" stroke="none" 
	d="
M275.343018,87.888031 
	C274.430328,96.534279 269.068329,101.788254 261.315247,102.662956 
	C253.004898,103.600548 248.567566,97.498344 242.317932,91.807037 
	C242.931732,99.722290 244.144531,105.838570 247.983246,111.259865 
	C249.096893,112.832626 251.131256,114.367416 249.894974,116.508591 
	C248.723190,118.538040 246.307251,117.793060 244.384567,117.842598 
	C241.058868,117.928314 237.723404,117.949829 234.402893,117.782661 
	C232.852142,117.704590 230.842331,118.206322 229.976898,116.315163 
	C229.147095,114.501823 230.488632,113.192795 231.524902,111.885971 
	C235.849503,106.432396 237.026260,100.012192 237.544342,92.707870 
	C234.597458,94.081062 232.943832,96.154305 231.084076,97.938705 
	C224.643280,104.118454 215.068008,104.348511 209.128433,98.442162 
	C203.129868,92.477165 203.019638,82.375809 208.887405,76.356537 
	C214.975281,70.111481 224.888580,70.097374 231.295563,76.337440 
	C232.117630,77.138084 232.879669,78.000343 234.270767,78.360039 
	C232.045746,75.714760 229.667740,73.181633 227.628494,70.400169 
	C223.745407,65.103760 223.556168,57.780540 226.932922,52.564037 
	C230.422318,47.173569 236.932220,44.542793 243.483673,45.875591 
	C254.451477,48.106831 259.284882,62.084915 252.073410,70.771255 
	C249.977219,73.296165 247.231537,75.295929 245.151764,79.906044 
	C252.075531,72.577850 258.913208,69.261642 267.281708,73.623520 
	C272.748596,76.473007 275.551727,81.155365 275.343018,87.888031 
z"/>
<path fill="#000000" opacity="1.000000" stroke="none" 
	d="
M279.705444,462.339539 
	C282.080414,450.193237 286.637115,445.147278 295.229401,444.714874 
	C304.647705,444.240936 309.965851,448.584045 311.888916,458.834717 
	C312.777588,463.571716 312.766510,468.434174 311.676666,473.203247 
	C309.302246,483.593384 303.391174,488.107452 293.252380,487.311432 
	C285.598602,486.710541 280.382690,480.396515 279.733704,470.778809 
	C279.554840,468.128143 279.693939,465.456024 279.705444,462.339539 
M302.542816,472.831726 
	C302.786896,466.845947 303.085175,460.840607 301.264893,455.022308 
	C300.438538,452.381012 299.067230,450.051880 295.758606,450.144806 
	C292.512726,450.235962 291.093811,452.476898 290.427032,455.211395 
	C288.951691,461.261871 288.854767,467.365997 290.002014,473.505463 
	C290.713226,477.311371 291.061493,481.977570 295.810699,482.226501 
	C301.069733,482.502136 301.344574,477.459442 302.542816,472.831726 
z"/>
<path fill="#000000" opacity="1.000000" stroke="none" 
	d="
M47.527931,14.777154 
	C54.675102,16.477539 58.272049,20.820839 59.568390,27.570415 
	C60.719185,33.562168 60.775074,39.459450 59.134613,45.296600 
	C56.862389,53.381718 50.913231,57.551018 42.420063,57.296421 
	C35.217327,57.080513 30.541065,52.796268 28.492413,44.739384 
	C27.238913,39.809650 27.234478,34.802074 28.025681,29.904644 
	C29.782299,19.031448 35.689865,14.509452 47.527931,14.777154 
M50.654095,40.169407 
	C50.873962,35.021065 50.693161,29.892921 49.388660,24.885145 
	C48.679691,22.163517 47.097176,19.921730 44.091152,19.636766 
	C41.470058,19.388292 39.555904,21.049185 38.862316,23.424088 
	C36.387718,31.897280 36.521759,40.402828 39.331299,48.791328 
	C40.094627,51.070415 42.067856,52.183754 44.370651,52.163342 
	C46.548424,52.144028 48.029678,50.704044 48.872536,48.754299 
	C49.929356,46.309624 50.448025,43.718674 50.654095,40.169407 
z"/>
<path fill="#000000" opacity="1.000000" stroke="none" 
	d="
M305.985291,430.505432 
	C301.566803,427.293671 301.145081,423.261322 302.989868,418.383118 
	C297.424072,418.866760 293.448822,417.269073 292.133484,412.040497 
	C291.279755,408.646912 292.644104,405.652863 295.529572,403.825195 
	C300.012421,400.985657 304.064758,402.535370 307.633270,406.233215 
	C308.614258,402.026733 305.690369,399.315674 304.709259,395.803436 
	C308.269226,394.131378 311.499725,394.464752 314.872406,395.434967 
	C315.495850,399.029205 311.125946,401.301697 312.847443,405.235443 
	C316.866455,402.872192 320.972809,400.660614 325.161011,404.307617 
	C327.710480,406.527588 328.840698,409.413696 327.677185,412.831482 
	C326.049835,417.611664 322.130676,418.548096 317.311127,418.460754 
	C318.253784,422.616119 318.750671,426.567749 315.272858,429.568726 
	C312.573059,431.898438 309.496826,431.690277 305.985291,430.505432 
z"/>
<path fill="#000000" opacity="1.000000" stroke="none" 
	d="
M25.329937,71.977600 
	C29.294632,70.031654 32.863373,69.892731 35.763775,72.977806 
	C38.860256,76.271439 38.881020,80.068558 35.975002,84.162209 
	C41.296429,83.094498 45.323795,83.719383 47.433697,88.642036 
	C49.057571,92.430725 47.884109,95.686142 44.781422,97.919777 
	C40.203552,101.215416 36.015785,99.597939 32.441437,95.510353 
	C31.092394,99.968597 34.884327,102.657471 35.024197,106.514381 
	C31.648235,107.715042 28.499367,107.596558 25.115728,106.578987 
	C25.026001,102.533607 28.798260,99.682198 27.914169,95.323753 
	C24.361403,99.009781 20.278744,101.349197 15.396392,98.133926 
	C12.541091,96.253571 11.295638,93.259415 12.190154,89.829155 
	C13.573085,84.525925 17.719975,83.253578 22.926184,83.484703 
	C21.489683,79.084267 21.484335,75.250458 25.329937,71.977600 
z"/>
</svg>