<svg version="1.1" id="Layer_1" xmlns="http://www.w3.org/2000/svg" xmlns:xlink="http://www.w3.org/1999/xlink" x="0px" y="0px"
	 width="100%" viewBox="0 0 340 500" enable-background="new 0 0 340 500" xml:space="preserve">
<path fill="#FEFEFE" opacity="1.000000" stroke="none" 
	d="
M1.000000,132.000000 
	C1.000000,88.012939 1.000000,44.525875 1.000000,1.019407 
	C114.286682,1.019407 227.573364,1.019407 340.930023,1.019407 
	C340.930023,167.570419 340.930023,334.140869 340.930023,500.855652 
	C227.666794,500.855652 114.333420,500.855652 1.000000,500.855652 
	C1.000000,378.093292 1.000000,255.296646 1.000000,132.000000 
M157.908859,146.549316 
	C154.277298,146.523972 153.221725,148.763123 152.867249,151.937241 
	C152.201706,157.896515 154.389160,162.650162 158.450348,166.208008 
	C149.368652,170.352753 139.900848,173.748398 131.405151,178.784088 
	C120.664360,185.150528 109.633446,181.108459 97.928726,182.637848 
	C99.196419,180.024246 99.943176,178.569397 100.617035,177.081512 
	C104.675438,168.120529 105.771820,158.863983 102.889595,149.381729 
	C102.397293,147.762115 100.859009,145.598221 99.493057,145.341797 
	C98.041794,145.069366 95.856148,146.417252 94.639549,147.681503 
	C92.369568,150.040390 90.568871,152.850876 88.501770,155.566864 
	C86.956680,151.217026 85.485764,147.075989 83.937454,142.717087 
	C85.384140,142.142075 86.748985,141.642715 88.077133,141.059738 
	C89.443398,140.460052 90.815681,139.852768 92.112282,139.119614 
	C96.361549,136.716904 97.174065,134.261200 93.644501,130.941772 
	C87.763031,125.410446 83.509392,119.160530 80.722771,111.553757 
	C79.082077,107.075104 75.977493,106.535812 72.628929,110.106544 
	C67.131065,115.969177 61.057541,120.608902 53.296413,122.881073 
	C53.137852,122.927490 52.985130,123.002548 52.839027,123.081543 
	C49.487499,124.893562 48.489174,127.809212 51.244007,130.340881 
	C57.665077,136.241806 62.126198,143.191818 65.224930,151.296921 
	C66.443336,154.483795 69.393066,154.867554 72.173553,152.507553 
	C74.517807,150.517838 76.804382,148.460144 79.583549,146.022949 
	C80.965385,150.265091 82.157318,153.924210 83.484528,157.998642 
	C78.217178,156.754471 76.157143,157.150299 75.610786,160.424835 
	C74.644806,166.214401 73.537697,172.319336 74.447845,177.977280 
	C75.194847,182.621094 73.865395,185.039581 70.590721,187.126678 
	C67.126221,189.334763 65.723114,192.141739 66.027130,196.309433 
	C66.408882,201.542831 66.373276,206.826645 66.184860,212.076752 
	C65.929436,219.193787 68.568481,222.433044 75.768166,223.017273 
	C78.028313,223.200684 80.315887,223.045883 83.217140,223.045883 
	C82.540543,224.547745 82.217125,225.438217 81.760422,226.254074 
	C71.521606,244.544998 66.522919,264.114655 67.846741,285.093933 
	C69.811974,316.238037 82.338058,342.051483 106.894615,361.784119 
	C111.149460,365.203156 115.615112,368.816528 118.610809,373.264557 
	C129.873383,389.987244 139.867569,407.257812 131.841415,428.683136 
	C130.572296,432.070953 129.297852,435.456787 128.092850,438.665192 
	C120.844421,438.990082 117.807175,441.122620 117.504128,445.785980 
	C117.249535,449.703918 120.280373,453.375031 124.157066,453.844360 
	C129.052200,454.437042 131.868225,451.494232 133.246017,444.308289 
	C133.704498,444.186340 134.213470,443.884369 134.656754,443.961243 
	C136.789215,444.330933 138.903915,444.802887 141.024933,445.238556 
	C140.136215,446.848206 139.449387,448.619568 138.316589,450.033661 
	C135.979462,452.951233 135.305817,456.054932 137.184509,459.277100 
	C139.062180,462.497498 142.188110,463.793640 145.766510,462.780945 
	C149.299210,461.781189 151.161148,459.296326 151.288925,455.385345 
	C151.335968,453.945740 152.292694,451.791382 153.393234,451.347076 
	C154.425705,450.930267 156.754349,451.965973 157.484695,453.053131 
	C158.215500,454.140900 158.287689,456.481049 157.577408,457.579773 
	C155.157700,461.322784 154.969147,464.791107 158.061966,468.004974 
	C160.673981,470.719238 164.044189,471.082214 167.198364,469.141479 
	C170.952667,466.831543 171.821640,463.429932 170.262894,459.184021 
	C169.894684,458.181000 170.696548,455.820648 171.501404,455.516357 
	C172.976578,454.958740 175.085663,455.014771 176.468277,455.720428 
	C177.167694,456.077362 177.231705,458.495331 176.933655,459.837189 
	C176.047684,463.826050 176.564148,467.209595 180.421722,469.262268 
	C183.687439,471.000000 186.954910,470.674957 189.576401,467.967865 
	C192.540344,464.907196 192.505493,461.453979 190.196396,457.967316 
	C189.673370,457.177521 189.108536,456.415405 188.431198,455.453461 
	C192.438370,451.397064 195.002563,454.746643 197.846909,456.627014 
	C197.745255,457.282288 197.679916,457.768280 197.593521,458.250519 
	C196.713623,463.160828 198.782715,466.701965 203.183548,467.811432 
	C206.792572,468.721283 210.737473,466.607483 212.034180,463.068970 
	C213.541534,458.955658 211.606888,455.056152 207.225388,452.961945 
	C206.223923,452.483276 204.900650,451.484863 204.768463,450.574280 
	C203.911560,444.671112 203.034866,438.740021 202.764511,432.790863 
	C202.478104,426.488678 203.698334,420.023499 202.726486,413.871887 
	C201.604309,406.768646 203.859100,401.170593 207.441330,395.616486 
	C211.406906,389.467957 211.318054,389.029846 204.678864,384.886078 
	C205.604218,383.562866 206.817673,382.358521 207.346191,380.905121 
	C207.774521,379.727295 207.915314,377.488037 207.262695,377.029022 
	C202.987167,374.021942 202.236023,369.648102 201.838654,364.990112 
	C201.364700,359.434570 198.585342,357.043365 192.806030,357.548950 
	C189.690002,357.821564 186.623459,358.659882 183.361801,359.275604 
	C183.148270,357.915649 182.954422,356.681122 182.940979,356.595551 
	C185.448990,354.909210 188.275955,354.067169 188.933258,352.379913 
	C191.528275,345.718414 188.814926,340.130768 184.455597,335.854187 
	C195.158600,330.634277 205.883301,325.398102 216.618515,320.183533 
	C217.206299,319.897980 217.880905,319.630585 218.516281,319.627808 
	C226.940826,319.591095 235.365570,319.603333 244.363892,319.603333 
	C243.321609,321.871674 242.564316,323.484375 241.836197,325.110199 
	C237.738983,334.258881 236.654022,343.632690 239.904694,353.269653 
	C241.421890,357.767487 244.360397,358.376526 247.502090,354.794403 
	C249.746750,352.235077 251.729553,349.446045 254.057022,346.467987 
	C255.670563,350.941071 257.140442,355.015930 258.633118,359.153961 
	C256.490479,360.001221 254.603180,360.640564 252.807312,361.476379 
	C245.591827,364.834503 244.744537,367.395905 250.448288,372.700684 
	C255.295120,377.208496 259.048004,382.011749 260.715332,388.401581 
	C260.798218,388.719238 260.955017,389.022675 261.109436,389.315826 
	C263.994751,394.793671 266.355804,395.594513 270.557373,391.204285 
	C275.668304,385.863922 281.103516,381.432983 288.326752,379.488098 
	C288.480377,379.446777 288.605347,379.307709 288.751495,379.228699 
	C293.588226,376.614105 294.422729,374.161316 290.433380,370.432678 
	C284.774872,365.144012 280.268219,359.373901 278.158813,351.864685 
	C278.027832,351.398499 277.695251,350.984589 277.434448,350.559875 
	C275.553009,347.495728 273.122314,347.063934 270.388428,349.323578 
	C267.965729,351.325958 265.702362,353.521088 263.028137,355.939026 
	C261.765961,351.935089 260.570038,348.141327 259.844421,345.839478 
	C262.862183,344.223419 266.369965,343.425110 266.636993,342.013733 
	C267.756500,336.096222 268.903473,329.856201 268.089539,324.005707 
	C267.453918,319.437134 268.418457,316.920837 271.869568,314.727386 
	C275.384857,312.493134 277.083771,309.797882 276.461945,305.212280 
	C275.772064,300.124634 275.981720,294.857880 276.316925,289.702728 
	C276.743774,283.138519 274.282928,279.626312 267.796692,278.960083 
	C265.223663,278.695770 262.600769,278.916687 260.296173,278.916687 
	C259.953674,278.189850 259.790314,278.008850 259.828613,277.896942 
	C260.041473,277.275391 260.235901,276.632202 260.558258,276.065643 
	C268.313721,262.435944 273.311798,247.851669 274.455811,232.213623 
	C277.103180,196.025574 265.748444,165.064087 237.425751,141.856613 
	C221.195709,128.557816 211.662888,112.229675 208.182358,91.949524 
	C207.509705,88.030121 206.565811,83.835518 207.312820,80.079254 
	C208.161972,75.809319 210.928009,71.951385 212.557281,67.795372 
	C213.717316,64.836266 214.826996,62.903858 218.714767,62.825008 
	C222.920898,62.739704 225.116241,59.473103 224.959122,55.260227 
	C224.801041,51.021523 222.293594,48.446686 218.110245,48.048592 
	C213.877075,47.645760 211.171387,49.884109 210.064301,53.941582 
	C209.769608,55.021629 209.840393,56.201389 209.709488,57.731792 
	C207.806656,57.894264 205.982101,58.334557 204.251526,58.095230 
	C203.144974,57.942196 201.684052,56.977840 201.307312,56.015110 
	C201.018799,55.277805 201.901245,53.577404 202.741486,52.989948 
	C206.554825,50.323891 207.142303,46.712460 205.475845,42.892311 
	C203.977707,39.458046 200.732193,38.197071 197.112076,39.029346 
	C192.694199,40.045040 190.944229,43.256538 191.207596,47.602982 
	C191.439102,51.423679 188.985275,51.411655 186.781891,50.294426 
	C183.959000,48.863071 182.737503,46.746403 185.325912,43.533314 
	C187.813644,40.445221 187.737915,36.354465 184.551956,34.179367 
	C182.231979,32.595486 178.242355,31.970957 175.550873,32.774216 
	C171.743942,33.910389 171.160583,37.815113 172.032349,41.576591 
	C172.279388,42.642475 172.775345,43.650665 173.659714,46.047264 
	C170.753250,46.262787 168.433273,46.890278 166.457733,46.321472 
	C165.811462,46.135395 165.779556,42.810963 165.960022,40.970142 
	C166.319794,37.300365 165.444412,34.277073 162.064636,32.526951 
	C158.782745,30.827526 155.533966,31.177982 152.939133,33.938389 
	C150.377121,36.663868 150.115158,39.861195 151.893066,43.142174 
	C152.491608,44.246727 153.334549,45.218834 154.899246,47.428463 
	C151.782394,47.428463 149.401489,48.089504 147.870178,47.232487 
	C146.488403,46.459160 145.369400,44.049694 145.304474,42.317924 
	C145.137527,37.864395 143.428711,34.841015 138.983627,34.068565 
	C134.844849,33.349342 131.822708,35.241222 130.364853,39.202236 
	C128.968903,42.995029 131.039001,46.830009 135.266602,48.860672 
	C136.201828,49.309895 137.649918,49.972855 137.745804,50.687214 
	C138.580215,56.903111 139.426758,63.139854 139.739044,69.396889 
	C140.036118,75.349686 139.029449,81.422768 139.807312,87.282158 
	C140.749344,94.378174 139.088425,100.363831 135.256058,106.121040 
	C131.036789,112.459488 131.136841,112.649292 137.708221,116.964767 
	C136.849472,118.299263 135.646698,119.538452 135.233841,121.000679 
	C134.875931,122.268333 134.886810,124.536926 135.644516,125.070084 
	C139.238480,127.598969 140.227371,131.479797 140.681686,135.177399 
	C141.643021,143.001511 143.261337,144.748474 151.095947,144.091293 
	C152.901352,143.939865 154.734512,143.559952 156.445114,142.967911 
	C159.045074,142.068115 159.743118,143.196823 159.095230,145.942123 
	C158.926071,146.104523 158.756897,146.266937 157.908859,146.549316 
M10.414556,288.499786 
	C10.414525,353.659149 10.412721,418.818481 10.417145,483.977844 
	C10.417599,490.656708 10.809619,491.036407 17.526833,491.036560 
	C96.851463,491.038330 176.176102,491.037628 255.500732,491.037598 
	C257.134308,491.037598 258.767883,491.037567 260.495911,491.037567 
	C260.495911,489.112915 260.495911,487.623749 260.495911,485.832611 
	C178.837982,485.832611 97.566460,485.832611 15.857100,485.832611 
	C15.857100,367.455109 15.857100,249.387161 15.857100,131.271393 
	C13.854569,131.271393 12.294362,131.271393 10.414667,131.271393 
	C10.414667,183.551071 10.414667,235.525421 10.414556,288.499786 
M213.500000,10.962272 
	C169.242035,10.962272 124.984055,10.962272 80.394028,10.962272 
	C80.522697,12.997308 80.611366,14.399661 80.727844,16.241819 
	C162.457947,16.241819 243.848419,16.241819 325.518738,16.241819 
	C325.518738,134.653000 325.518738,252.600372 325.518738,370.790833 
	C327.364655,370.790833 328.928467,370.790833 330.887573,370.790833 
	C330.887573,369.430176 330.887543,368.295166 330.887543,367.160187 
	C330.887329,250.516846 330.868713,133.873489 330.952728,17.230211 
	C330.956207,12.426104 329.184967,10.874629 324.477753,10.891198 
	C287.818878,11.020245 251.159332,10.962376 213.500000,10.962272 
M63.058544,404.614807 
	C54.362507,417.108582 43.443256,427.372406 30.500982,436.057709 
	C44.935780,445.540558 56.346554,457.022675 65.648354,471.197571 
	C74.982262,457.112274 86.411987,445.464081 100.936218,436.033356 
	C86.440727,426.543030 75.000282,414.905457 65.680969,400.890289 
	C64.780602,402.164703 64.118057,403.102448 63.058544,404.614807 
M267.936462,90.584267 
	C270.474274,93.966492 273.012115,97.348717 275.803436,101.068764 
	C284.991577,86.758331 296.766449,75.473679 310.810822,65.865189 
	C296.233643,56.483475 284.990723,44.727875 275.542450,30.781759 
	C266.287384,45.337502 254.488861,56.561844 240.845200,65.836273 
	C245.921707,69.886963 250.667526,73.290184 254.952148,77.198944 
	C259.361877,81.221840 263.321930,85.737679 267.936462,90.584267 
M296.045013,483.446259 
	C308.264709,493.612213 325.218597,488.807678 329.507690,473.855499 
	C331.475281,466.996338 331.365356,460.056641 329.070160,453.244598 
	C327.138336,447.510864 323.464813,442.991119 317.409180,442.154724 
	C311.684418,441.364014 307.643829,438.599701 303.872223,434.709076 
	C302.507050,433.300903 300.815643,431.438080 299.126556,431.271820 
	C295.365692,430.901672 291.499359,431.352844 287.709900,431.774323 
	C287.088928,431.843414 286.135162,433.550964 286.267761,434.345642 
	C286.380188,435.019318 287.777313,435.636780 288.714996,435.987976 
	C293.558319,437.802032 298.436768,439.522461 304.108978,441.565887 
	C289.370758,451.515991 286.157684,469.365875 296.045013,483.446259 
M49.735348,58.285931 
	C45.960556,56.460052 42.185760,54.634178 37.740185,52.483841 
	C50.478683,44.889198 52.146641,33.892986 50.075706,21.611399 
	C48.551567,12.572530 42.980770,6.994555 34.917183,6.039763 
	C24.665487,4.825882 16.672552,8.705931 13.084185,17.197971 
	C9.503836,25.671036 9.587523,34.389027 12.925521,42.956875 
	C14.936561,48.118740 18.886339,52.011124 24.256672,52.440353 
	C30.294298,52.922916 33.885090,56.381851 37.685234,60.102280 
	C41.533482,63.869789 46.047203,65.735725 51.309990,63.843025 
	C52.822418,63.299099 53.842953,61.387417 55.089020,60.102848 
	C53.579685,59.537224 52.070354,58.971600 49.735348,58.285931 
M301.510712,413.983917 
	C304.563019,417.394897 307.615295,420.805847 309.278076,422.664032 
	C314.927979,417.065033 320.617096,411.427185 324.882690,407.200043 
	C320.629364,402.885742 314.970886,397.146118 311.114655,393.234589 
	C306.611725,397.688629 300.830627,403.406952 295.049530,409.125275 
	C294.590973,408.598999 294.132446,408.072754 293.673889,407.546509 
	C296.104645,409.539459 298.535370,411.532410 301.510712,413.983917 
M22.818577,79.318031 
	C19.664221,81.993263 16.509865,84.668495 13.355508,87.343727 
	C13.993023,86.763725 14.630537,86.183716 15.268052,85.603714 
	C20.952358,91.312576 26.636665,97.021439 30.710798,101.113174 
	C34.738342,97.147568 40.491486,91.482903 44.773224,87.267014 
	C40.663223,82.931732 35.057842,77.019104 29.580675,71.241707 
	C27.976555,73.181694 25.647974,75.997833 22.818577,79.318031 
z"/>
<path fill="#272626" opacity="1.000000" stroke="none" 
	d="
M159.648376,145.507401 
	C159.743118,143.196823 159.045074,142.068115 156.445114,142.967911 
	C154.734512,143.559952 152.901352,143.939865 151.095947,144.091293 
	C143.261337,144.748474 141.643021,143.001511 140.681686,135.177399 
	C140.227371,131.479797 139.238480,127.598969 135.644516,125.070084 
	C134.886810,124.536926 134.875931,122.268333 135.233841,121.000679 
	C135.646698,119.538452 136.849472,118.299263 137.708221,116.964767 
	C131.136841,112.649292 131.036789,112.459488 135.256058,106.121040 
	C139.088425,100.363831 140.749344,94.378174 139.807312,87.282158 
	C139.029449,81.422768 140.036118,75.349686 139.739044,69.396889 
	C139.426758,63.139854 138.580215,56.903111 137.745804,50.687214 
	C137.649918,49.972855 136.201828,49.309895 135.266602,48.860672 
	C131.039001,46.830009 128.968903,42.995029 130.364853,39.202236 
	C131.822708,35.241222 134.844849,33.349342 138.983627,34.068565 
	C143.428711,34.841015 145.137527,37.864395 145.304474,42.317924 
	C145.369400,44.049694 146.488403,46.459160 147.870178,47.232487 
	C149.401489,48.089504 151.782394,47.428463 154.899246,47.428463 
	C153.334549,45.218834 152.491608,44.246727 151.893066,43.142174 
	C150.115158,39.861195 150.377121,36.663868 152.939133,33.938389 
	C155.533966,31.177982 158.782745,30.827526 162.064636,32.526951 
	C165.444412,34.277073 166.319794,37.300365 165.960022,40.970142 
	C165.779556,42.810963 165.811462,46.135395 166.457733,46.321472 
	C168.433273,46.890278 170.753250,46.262787 173.659714,46.047264 
	C172.775345,43.650665 172.279388,42.642475 172.032349,41.576591 
	C171.160583,37.815113 171.743942,33.910389 175.550873,32.774216 
	C178.242355,31.970957 182.231979,32.595486 184.551956,34.179367 
	C187.737915,36.354465 187.813644,40.445221 185.325912,43.533314 
	C182.737503,46.746403 183.959000,48.863071 186.781891,50.294426 
	C188.985275,51.411655 191.439102,51.423679 191.207596,47.602982 
	C190.944229,43.256538 192.694199,40.045040 197.112076,39.029346 
	C200.732193,38.197071 203.977707,39.458046 205.475845,42.892311 
	C207.142303,46.712460 206.554825,50.323891 202.741486,52.989948 
	C201.901245,53.577404 201.018799,55.277805 201.307312,56.015110 
	C201.684052,56.977840 203.144974,57.942196 204.251526,58.095230 
	C205.982101,58.334557 207.806656,57.894264 209.709488,57.731792 
	C209.840393,56.201389 209.769608,55.021629 210.064301,53.941582 
	C211.171387,49.884109 213.877075,47.645760 218.110245,48.048592 
	C222.293594,48.446686 224.801041,51.021523 224.959122,55.260227 
	C225.116241,59.473103 222.920898,62.739704 218.714767,62.825008 
	C214.826996,62.903858 213.717316,64.836266 212.557281,67.795372 
	C210.928009,71.951385 208.161972,75.809319 207.312820,80.079254 
	C206.565811,83.835518 207.509705,88.030121 208.182358,91.949524 
	C211.662888,112.229675 221.195709,128.557816 237.425751,141.856613 
	C265.748444,165.064087 277.103180,196.025574 274.455811,232.213623 
	C273.311798,247.851669 268.313721,262.435944 260.558258,276.065643 
	C260.235901,276.632202 260.041473,277.275391 259.828613,277.896942 
	C259.790314,278.008850 259.953674,278.189850 260.296173,278.916687 
	C262.600769,278.916687 265.223663,278.695770 267.796692,278.960083 
	C274.282928,279.626312 276.743774,283.138519 276.316925,289.702728 
	C275.981720,294.857880 275.772064,300.124634 276.461945,305.212280 
	C277.083771,309.797882 275.384857,312.493134 271.869568,314.727386 
	C268.418457,316.920837 267.453918,319.437134 268.089539,324.005707 
	C268.903473,329.856201 267.756500,336.096222 266.636993,342.013733 
	C266.369965,343.425110 262.862183,344.223419 259.844421,345.839478 
	C260.570038,348.141327 261.765961,351.935089 263.028137,355.939026 
	C265.702362,353.521088 267.965729,351.325958 270.388428,349.323578 
	C273.122314,347.063934 275.553009,347.495728 277.434448,350.559875 
	C277.695251,350.984589 278.027832,351.398499 278.158813,351.864685 
	C280.268219,359.373901 284.774872,365.144012 290.433380,370.432678 
	C294.422729,374.161316 293.588226,376.614105 288.751495,379.228699 
	C288.605347,379.307709 288.480377,379.446777 288.326752,379.488098 
	C281.103516,381.432983 275.668304,385.863922 270.557373,391.204285 
	C266.355804,395.594513 263.994751,394.793671 261.109436,389.315826 
	C260.955017,389.022675 260.798218,388.719238 260.715332,388.401581 
	C259.048004,382.011749 255.295120,377.208496 250.448288,372.700684 
	C244.744537,367.395905 245.591827,364.834503 252.807312,361.476379 
	C254.603180,360.640564 256.490479,360.001221 258.633118,359.153961 
	C257.140442,355.015930 255.670563,350.941071 254.057022,346.467987 
	C251.729553,349.446045 249.746750,352.235077 247.502090,354.794403 
	C244.360397,358.376526 241.421890,357.767487 239.904694,353.269653 
	C236.654022,343.632690 237.738983,334.258881 241.836197,325.110199 
	C242.564316,323.484375 243.321609,321.871674 244.363892,319.603333 
	C235.365570,319.603333 226.940826,319.591095 218.516281,319.627808 
	C217.880905,319.630585 217.206299,319.897980 216.618515,320.183533 
	C205.883301,325.398102 195.158600,330.634277 184.455597,335.854187 
	C188.814926,340.130768 191.528275,345.718414 188.933258,352.379913 
	C188.275955,354.067169 185.448990,354.909210 182.940979,356.595551 
	C182.954422,356.681122 183.148270,357.915649 183.361801,359.275604 
	C186.623459,358.659882 189.690002,357.821564 192.806030,357.548950 
	C198.585342,357.043365 201.364700,359.434570 201.838654,364.990112 
	C202.236023,369.648102 202.987167,374.021942 207.262695,377.029022 
	C207.915314,377.488037 207.774521,379.727295 207.346191,380.905121 
	C206.817673,382.358521 205.604218,383.562866 204.678864,384.886078 
	C211.318054,389.029846 211.406906,389.467957 207.441330,395.616486 
	C203.859100,401.170593 201.604309,406.768646 202.726486,413.871887 
	C203.698334,420.023499 202.478104,426.488678 202.764511,432.790863 
	C203.034866,438.740021 203.911560,444.671112 204.768463,450.574280 
	C204.900650,451.484863 206.223923,452.483276 207.225388,452.961945 
	C211.606888,455.056152 213.541534,458.955658 212.034180,463.068970 
	C210.737473,466.607483 206.792572,468.721283 203.183548,467.811432 
	C198.782715,466.701965 196.713623,463.160828 197.593521,458.250519 
	C197.679916,457.768280 197.745255,457.282288 197.846909,456.627014 
	C195.002563,454.746643 192.438370,451.397064 188.431198,455.453461 
	C189.108536,456.415405 189.673370,457.177521 190.196396,457.967316 
	C192.505493,461.453979 192.540344,464.907196 189.576401,467.967865 
	C186.954910,470.674957 183.687439,471.000000 180.421722,469.262268 
	C176.564148,467.209595 176.047684,463.826050 176.933655,459.837189 
	C177.231705,458.495331 177.167694,456.077362 176.468277,455.720428 
	C175.085663,455.014771 172.976578,454.958740 171.501404,455.516357 
	C170.696548,455.820648 169.894684,458.181000 170.262894,459.184021 
	C171.821640,463.429932 170.952667,466.831543 167.198364,469.141479 
	C164.044189,471.082214 160.673981,470.719238 158.061966,468.004974 
	C154.969147,464.791107 155.157700,461.322784 157.577408,457.579773 
	C158.287689,456.481049 158.215500,454.140900 157.484695,453.053131 
	C156.754349,451.965973 154.425705,450.930267 153.393234,451.347076 
	C152.292694,451.791382 151.335968,453.945740 151.288925,455.385345 
	C151.161148,459.296326 149.299210,461.781189 145.766510,462.780945 
	C142.188110,463.793640 139.062180,462.497498 137.184509,459.277100 
	C135.305817,456.054932 135.979462,452.951233 138.316589,450.033661 
	C139.449387,448.619568 140.136215,446.848206 141.024933,445.238525 
	C138.903915,444.802887 136.789215,444.330933 134.656754,443.961243 
	C134.213470,443.884369 133.704498,444.186340 133.246017,444.308289 
	C131.868225,451.494232 129.052200,454.437042 124.157066,453.844360 
	C120.280373,453.375031 117.249535,449.703918 117.504128,445.785980 
	C117.807175,441.122620 120.844421,438.990082 128.092850,438.665192 
	C129.297852,435.456787 130.572296,432.070953 131.841415,428.683136 
	C139.867569,407.257812 129.873383,389.987244 118.610809,373.264557 
	C115.615112,368.816528 111.149460,365.203156 106.894615,361.784119 
	C82.338058,342.051483 69.811974,316.238037 67.846741,285.093933 
	C66.522919,264.114655 71.521606,244.544998 81.760422,226.254074 
	C82.217125,225.438217 82.540543,224.547745 83.217140,223.045883 
	C80.315887,223.045883 78.028313,223.200684 75.768166,223.017273 
	C68.568481,222.433044 65.929436,219.193787 66.184860,212.076752 
	C66.373276,206.826645 66.408882,201.542831 66.027130,196.309433 
	C65.723114,192.141739 67.126221,189.334763 70.590721,187.126678 
	C73.865395,185.039581 75.194847,182.621094 74.447845,177.977280 
	C73.537697,172.319336 74.644806,166.214401 75.610786,160.424835 
	C76.157143,157.150299 78.217178,156.754471 83.484528,157.998642 
	C82.157318,153.924210 80.965385,150.265091 79.583549,146.022949 
	C76.804382,148.460144 74.517807,150.517838 72.173553,152.507553 
	C69.393066,154.867554 66.443336,154.483795 65.224930,151.296921 
	C62.126198,143.191818 57.665077,136.241806 51.244007,130.340881 
	C48.489174,127.809212 49.487499,124.893562 52.839027,123.081543 
	C52.985130,123.002548 53.137852,122.927490 53.296413,122.881073 
	C61.057541,120.608902 67.131065,115.969177 72.628929,110.106544 
	C75.977493,106.535812 79.082077,107.075104 80.722771,111.553757 
	C83.509392,119.160530 87.763031,125.410446 93.644501,130.941772 
	C97.174065,134.261200 96.361549,136.716904 92.112282,139.119614 
	C90.815681,139.852768 89.443398,140.460052 88.077133,141.059738 
	C86.748985,141.642715 85.384140,142.142075 83.937454,142.717087 
	C85.485764,147.075989 86.956680,151.217026 88.501770,155.566864 
	C90.568871,152.850876 92.369568,150.040390 94.639549,147.681503 
	C95.856148,146.417252 98.041794,145.069366 99.493057,145.341797 
	C100.859009,145.598221 102.397293,147.762115 102.889595,149.381729 
	C105.771820,158.863983 104.675438,168.120529 100.617035,177.081512 
	C99.943176,178.569397 99.196419,180.024246 97.928726,182.637848 
	C109.633446,181.108459 120.664360,185.150528 131.405151,178.784088 
	C139.900848,173.748398 149.368652,170.352753 158.450348,166.208008 
	C154.389160,162.650162 152.201706,157.896515 152.867249,151.937241 
	C153.221725,148.763123 154.277298,146.523972 158.440567,146.697357 
	C159.197647,146.399414 159.423019,145.953415 159.648376,145.507401 
M263.813965,379.626221 
	C263.680511,379.727478 263.547028,379.828735 263.413574,379.930023 
	C263.633636,379.913177 263.853699,379.896362 263.575012,380.565369 
	C264.393219,382.855164 265.211426,385.144958 266.230133,387.995819 
	C267.993622,386.004730 269.309387,384.519226 270.729401,382.915955 
	C268.498810,381.947235 266.253021,380.971924 263.813965,379.626221 
M83.971832,180.246948 
	C84.158020,176.058426 84.533691,171.864288 84.409515,167.684982 
	C84.374405,166.503220 82.878204,165.364883 81.481895,163.763794 
	C80.978233,163.846512 80.036255,163.917984 80.033798,164.013565 
	C79.914154,168.676437 79.682709,173.353989 79.985977,177.995773 
	C80.048561,178.953644 82.136742,179.779205 83.971832,180.246948 
M143.818085,51.707653 
	C143.715851,51.722515 143.613617,51.737373 143.511383,51.752243 
	C143.601959,51.858448 143.685623,52.040825 143.785049,52.049854 
	C143.888367,52.059242 144.006912,51.901028 143.631470,52.641773 
	C143.807022,55.963474 143.982574,59.285172 144.175430,62.934074 
	C145.852692,62.449696 147.224304,62.053589 149.448029,61.676186 
	C162.755219,58.538406 175.727097,60.750240 189.032532,64.755699 
	C193.673950,67.062225 198.388763,69.235634 202.923172,71.736221 
	C204.933853,72.845070 205.867493,73.014488 206.164291,69.658852 
	C206.812042,67.864746 207.459808,66.070641 208.343216,63.623871 
	C200.954453,64.373337 196.299988,61.857956 195.122986,54.530533 
	C188.831451,57.089760 183.693878,56.797661 179.708817,51.152473 
	C179.183594,50.408440 176.702469,50.388012 175.496689,50.900986 
	C171.383163,52.651028 167.537369,53.557999 163.243988,51.165104 
	C161.914261,50.423981 159.693436,51.033222 157.940643,51.353207 
	C154.659698,51.952175 151.422638,52.791489 147.661713,53.154171 
	C146.459961,52.747780 145.258224,52.341389 143.818085,51.707653 
M261.509186,338.237061 
	C264.654694,334.223602 264.958466,326.330322 261.936615,322.391083 
	C261.388580,321.676666 260.077576,321.547546 258.308289,321.428345 
	C258.212158,325.563965 257.886200,329.714233 258.147736,333.827118 
	C258.236267,335.219177 259.810730,336.516724 261.509186,338.237061 
M175.272537,133.001862 
	C171.684738,135.389328 168.096939,137.776794 164.259460,140.330414 
	C164.759140,142.852203 165.290909,145.535965 165.907623,148.648438 
	C173.213745,145.620529 175.154556,139.771698 176.716583,133.072723 
	C176.635498,132.782547 176.554398,132.492386 176.473312,132.202209 
	C176.305008,132.456406 176.136688,132.710602 175.272537,133.001862 
M98.201530,153.164734 
	C92.208496,155.196960 86.602791,173.364563 90.159462,180.817413 
	C90.251831,181.010971 91.526726,180.640198 92.847122,179.979126 
	C97.867760,171.974045 100.567009,163.472351 98.201530,153.164734 
M249.598099,322.001495 
	C244.973160,329.745850 241.857086,337.824829 244.218964,347.759186 
	C244.849701,347.759338 245.687897,348.025208 246.079697,347.719299 
	C251.035477,343.850128 255.290649,327.520569 252.770493,321.764160 
	C252.591660,321.355713 251.037827,321.549194 249.598099,322.001495 
M85.796906,198.279480 
	C84.857414,196.195358 75.622681,191.161942 73.679390,191.899536 
	C72.734528,192.258194 71.521675,193.292908 71.432991,194.128082 
	C71.347931,194.929016 72.440262,196.476105 73.224586,196.630325 
	C75.464485,197.070786 77.827469,197.194763 80.111328,197.026474 
	C83.197449,196.799042 84.496185,197.955475 83.504593,201.459702 
	C82.444633,201.819107 81.384682,202.178497 80.744408,202.395599 
	C82.015900,203.890808 83.150673,205.225235 84.285446,206.559662 
	C82.449699,207.715363 80.613960,208.871063 78.430061,210.245956 
	C80.172035,210.657059 81.964104,211.080002 84.747612,211.736923 
	C82.200058,218.427414 76.172745,214.659698 71.297203,216.876038 
	C77.498993,217.919464 83.365685,220.186081 87.401230,216.708435 
	C92.939407,211.935913 96.997871,205.446304 101.691505,199.693344 
	C91.817070,186.123688 87.839417,183.889084 78.124466,187.360382 
	C80.165817,188.298111 81.483795,189.117142 82.918655,189.525528 
	C88.953499,191.243149 91.139832,193.586990 91.765427,199.986191 
	C91.875877,201.116089 90.637329,202.377869 90.021751,203.578735 
	C88.983994,202.991592 87.767662,202.579712 86.964973,201.761856 
	C86.322914,201.107666 86.183868,199.959808 85.796906,198.279480 
M192.865723,325.087646 
	C199.638000,322.360870 206.410278,319.634064 213.689468,316.703156 
	C210.387955,312.435791 207.969894,309.310333 205.369568,305.949280 
	C204.386215,306.654480 203.488571,307.298248 201.935120,308.071045 
	C192.030945,313.349091 182.126755,318.627136 172.142761,323.947693 
	C173.673096,326.226257 175.194916,328.492096 176.982437,331.153595 
	C182.100006,329.125122 187.082306,327.150269 192.865723,325.087646 
M140.891251,193.641357 
	C150.798660,188.443298 160.706085,183.245224 170.699402,178.002075 
	C169.099365,175.846191 167.270645,173.382172 165.495651,170.990524 
	C162.158508,172.085510 159.118134,173.083130 155.330002,173.805756 
	C146.691101,177.551453 138.052200,181.297150 128.911514,185.260422 
	C132.247742,189.521378 134.673538,192.619553 137.236908,195.893433 
	C138.324539,195.151627 139.249924,194.520493 140.891251,193.641357 
M136.395569,432.032867 
	C135.728699,433.950592 135.061829,435.868317 134.240662,438.229736 
	C141.354813,437.562500 146.250183,439.659363 147.340347,447.060944 
	C154.554672,444.438110 160.292938,445.571167 163.819550,452.374298 
	C169.359039,450.132629 174.370560,446.939941 179.986572,451.268311 
	C180.667877,451.793427 182.370560,451.117249 183.561096,450.834473 
	C187.128387,449.987213 190.676437,449.058929 194.777191,448.612366 
	C196.085297,449.089447 197.393387,449.566559 198.620392,450.014069 
	C198.620392,446.202728 198.620392,442.718964 198.620392,438.916595 
	C196.770081,439.418976 195.370010,439.799072 193.141953,440.157379 
	C191.188538,440.469727 189.242828,440.845581 187.280426,441.083954 
	C175.651306,442.496613 164.262177,441.273254 152.823318,437.238586 
	C147.635757,434.555084 142.448212,431.871613 137.043213,429.075623 
	C136.984879,430.157715 136.949417,430.815430 136.395569,432.032867 
M173.240204,183.972595 
	C162.317581,188.969864 151.394958,193.967133 139.817749,199.263901 
	C149.230896,210.247849 157.302536,220.242920 171.709457,222.570938 
	C174.924805,208.908600 178.140152,195.246246 181.434494,181.248245 
	C179.028488,182.185623 176.517014,183.164078 173.240204,183.972595 
M171.178772,280.093994 
	C170.781677,280.896912 170.205750,281.659760 170.015488,282.509003 
	C168.319138,290.080261 166.852692,297.706818 164.986725,305.234863 
	C163.705902,310.402222 161.897827,315.438873 160.008789,321.560028 
	C162.231812,320.350128 163.469604,319.676453 165.571274,319.037201 
	C166.400986,319.033112 167.361557,319.305359 168.040924,318.983734 
	C179.405441,313.603149 190.734818,308.148407 202.072006,302.710144 
	C202.178925,301.981842 202.285828,301.253510 202.392731,300.525208 
	C195.520920,294.614685 188.871841,288.409515 181.655716,282.954407 
	C179.150696,281.060730 175.240906,281.025299 171.178772,280.093994 
M166.204712,412.200165 
	C165.920151,411.266998 165.775269,410.260498 165.329773,409.411835 
	C159.823471,398.922150 158.384598,387.654968 159.719894,376.119995 
	C160.506149,369.327881 162.476791,362.672852 164.215027,355.347137 
	C169.156784,349.926147 175.163651,346.992462 184.375641,348.272095 
	C182.709778,344.949066 182.199890,341.947968 180.611298,341.180908 
	C177.420319,339.640167 173.383957,338.062347 170.150894,338.723175 
	C159.312134,340.938446 152.230713,350.967102 152.825073,362.233398 
	C153.418350,373.479248 154.170074,384.720062 155.068665,395.945770 
	C156.735611,416.770355 171.376358,430.655487 191.967529,431.014954 
	C193.676880,431.044769 195.398788,430.354828 197.114868,429.999298 
	C197.124863,429.390961 197.134857,428.782623 197.144867,428.174286 
	C191.723145,426.610260 185.941605,425.766266 180.977936,423.285645 
	C175.702682,420.649353 171.202774,416.461578 166.204712,412.200165 
M177.287079,91.970963 
	C178.537567,95.321938 180.148788,98.586365 180.977081,102.038651 
	C184.876007,118.289200 184.238144,134.128815 175.472702,149.545166 
	C170.858917,153.769043 165.189011,154.598770 159.201706,153.890808 
	C159.801819,161.307800 164.103226,164.842041 170.501389,163.828232 
	C181.725143,162.049789 190.546463,151.609375 189.908493,140.138199 
	C189.217850,127.720444 188.315216,115.296387 186.929779,102.939583 
	C184.801453,83.956772 170.103989,71.039246 151.005737,70.940346 
	C148.971878,70.929810 146.933762,71.743027 144.897614,72.174095 
	C144.770203,72.923851 144.642792,73.673615 144.515366,74.423370 
	C157.568726,76.736290 170.476074,79.309586 177.287079,91.970963 
M190.937805,185.171005 
	C189.955582,184.476822 188.973358,183.782623 186.969711,182.366531 
	C183.458191,196.522064 180.160721,209.814789 176.735748,223.621384 
	C179.581619,223.621384 180.862350,223.621384 182.890976,223.728424 
	C200.138992,221.261261 210.993347,208.594421 224.136948,198.690735 
	C220.248657,194.466507 217.030563,190.643326 213.417786,187.239029 
	C212.291763,186.177963 209.609283,185.342987 208.475830,185.954651 
	C202.595596,189.127899 197.013367,187.795792 190.937805,185.171005 
M151.473114,316.515259 
	C152.473648,317.332153 153.474182,318.149017 155.526215,319.824402 
	C159.095917,305.557800 162.474014,292.056854 166.022354,277.875641 
	C163.056152,278.065399 161.592804,278.159027 159.338715,278.209045 
	C142.259842,280.646301 131.659546,293.441650 118.232086,303.081299 
	C123.071434,308.244934 127.338615,312.798065 131.569214,317.312134 
	C138.194870,313.658722 144.547775,313.244171 151.473114,316.515259 
M261.593842,242.659973 
	C242.843353,255.491043 221.268570,256.420013 199.562683,257.036896 
	C205.776947,262.648193 212.111404,267.719147 217.653397,273.544067 
	C223.933594,280.144928 229.503571,287.421539 235.606903,295.069397 
	C237.013718,298.651764 238.386337,296.472076 239.744598,295.036804 
	C251.688599,282.415344 260.462402,267.916382 265.386505,251.209610 
	C266.701416,246.748367 267.510773,242.138107 268.552246,237.596283 
	C268.115082,237.431946 267.677948,237.267624 267.240814,237.103287 
	C265.604736,238.875687 263.968689,240.648071 261.593842,242.659973 
M80.660027,259.642609 
	C92.487900,250.647263 106.364738,247.554199 120.697662,246.056915 
	C128.177307,245.275558 135.725403,245.149231 144.493057,244.656799 
	C128.289246,234.795395 118.165184,220.494888 106.919014,206.343140 
	C104.808151,203.235306 103.600365,205.984711 102.466446,207.189835 
	C92.125443,218.180328 84.043472,230.642487 79.084618,244.924866 
	C76.801422,251.500931 75.315475,258.353821 73.339256,265.550049 
	C76.044319,263.279755 78.048828,261.597412 80.660027,259.642609 
M97.315643,289.143768 
	C83.468117,304.533447 81.223412,321.778870 91.962318,337.932800 
	C96.225777,344.346100 101.551079,350.533752 107.655731,355.156555 
	C129.799561,371.925171 139.526764,394.506073 140.913040,421.491638 
	C140.982651,422.846436 141.338898,424.779083 142.264435,425.407257 
	C153.494293,433.028900 165.922729,436.564941 179.710205,435.326996 
	C177.528107,434.550018 175.346024,433.773041 172.887573,432.350677 
	C159.459320,425.570862 152.567291,414.101654 150.352020,399.738892 
	C149.269577,392.720795 149.389206,385.514679 149.009796,378.391296 
	C147.729980,354.362946 140.085114,333.249756 122.837074,315.617981 
	C115.160477,307.770599 109.499649,297.949646 102.943420,289.010162 
	C102.208496,288.008087 101.601273,286.912354 100.694305,285.480286 
	C99.557434,286.864349 98.743065,287.855804 97.315643,289.143768 
M169.125687,69.739586 
	C177.255783,72.913437 182.867401,78.784035 187.008057,86.291306 
	C193.036224,97.220749 193.070709,109.219437 193.495178,121.195496 
	C194.248566,142.451675 199.101990,162.483459 213.456818,178.898468 
	C223.714951,190.628830 234.539261,201.836960 241.529449,216.573090 
	C242.805206,215.178238 243.673111,214.229324 245.146759,212.866562 
	C261.299530,193.920929 261.388550,175.385544 245.151550,156.412415 
	C241.822021,152.521835 238.094666,148.806366 233.985733,145.776276 
	C214.484314,131.395126 204.198563,111.521141 202.644196,88.086990 
	C201.915024,77.093750 196.819855,73.094757 188.335037,70.075104 
	C185.366135,69.018509 182.393814,67.761169 179.315414,67.269760 
	C174.141068,66.443756 168.880630,66.157188 163.656403,65.643677 
	C163.580643,66.161453 163.504883,66.679222 163.429123,67.196991 
	C165.212448,67.837311 166.995773,68.477631 169.125687,69.739586 
M200.565979,291.940979 
	C205.804932,298.406921 211.015778,304.896027 216.310104,311.316284 
	C217.205505,312.402130 218.436798,313.960114 219.552826,313.994232 
	C227.246429,314.229462 234.950638,314.118011 243.629562,314.118011 
	C233.425095,301.467346 224.256134,289.430511 214.376617,278.008270 
	C199.246078,260.515106 180.278229,250.991318 156.663361,253.369980 
	C135.587875,255.492859 120.477028,268.721130 104.916901,281.952850 
	C108.448547,287.755890 111.753204,293.185944 115.015442,298.546295 
	C123.338593,292.248138 130.898758,286.247772 138.753571,280.661743 
	C146.700790,275.009949 155.601486,272.348999 165.514984,272.840546 
	C180.066330,273.562134 190.871262,280.932495 200.565979,291.940979 
M147.419617,240.149200 
	C159.604568,247.274902 172.758102,249.945877 186.722763,248.341095 
	C207.427872,245.961716 222.160904,232.854523 237.648376,220.002991 
	C234.195053,214.270798 230.918243,208.831604 227.539062,203.222458 
	C219.810944,209.158981 212.898209,214.889893 205.565628,220.020782 
	C185.746368,233.889114 163.677124,232.078903 146.844452,214.824799 
	C139.434204,207.228989 133.075897,198.609848 126.173927,190.511642 
	C125.272049,189.453445 123.996880,188.006317 122.857536,187.972046 
	C115.310211,187.745041 107.752762,187.854599 99.480530,187.854599 
	C104.045670,193.848236 107.992416,199.139709 112.054283,204.341293 
	C122.298431,217.459839 132.341095,230.785889 147.419617,240.149200 
M142.640732,111.888298 
	C151.879181,115.640953 138.641022,118.091530 142.503098,121.234764 
	C144.035400,122.086838 145.816254,123.025429 146.972977,124.465401 
	C147.277267,124.844193 145.650223,126.774437 144.829575,128.124680 
	C145.159470,130.013000 146.006485,132.454025 145.910889,134.857574 
	C145.753006,138.826843 147.940918,139.691040 150.894699,138.826355 
	C155.326904,137.528854 159.825699,136.095612 163.880859,133.939117 
	C177.833435,126.519325 179.639969,122.510948 176.924408,107.126770 
	C174.212814,91.765083 163.519562,81.673119 148.734604,80.696976 
	C147.533188,80.617661 146.267883,81.505699 145.032272,81.944229 
	C146.103607,82.947624 147.018616,84.473396 148.277496,84.850159 
	C151.280640,85.748970 154.560104,85.782227 157.497665,86.818138 
	C158.957611,87.332985 159.910370,89.286072 161.092575,90.588524 
	C159.450974,91.007843 157.761551,91.906815 156.177505,91.748863 
	C152.636459,91.395790 149.147934,90.515938 147.071884,90.122444 
	C144.461594,97.601814 142.153183,104.216156 139.830597,110.871155 
	C140.069626,110.963638 140.995270,111.321785 142.640732,111.888298 
M182.606003,414.151184 
	C182.342804,412.872406 182.079605,411.593658 181.816422,410.314880 
	C182.995895,410.114929 184.229431,409.589355 185.344986,409.774506 
	C189.090576,410.396179 192.794083,411.271240 195.471603,411.831329 
	C197.940445,404.697266 200.283768,397.925903 202.690506,390.971252 
	C192.597214,390.190857 198.288254,384.863892 200.259949,381.894165 
	C198.267929,379.545380 196.872055,377.899506 195.476181,376.253632 
	C199.598892,373.663940 196.308441,370.146118 196.569778,367.085480 
	C196.913864,363.055878 194.301971,362.007904 191.162827,363.135773 
	C185.734650,365.086151 180.328644,367.240448 175.214523,369.890472 
	C166.831940,374.234100 163.484161,380.841431 164.841949,390.756775 
	C167.217163,408.101990 177.884903,420.246887 193.205566,421.035553 
	C194.650024,421.109955 196.151062,420.084808 197.625824,419.570129 
	C196.232559,418.654938 194.952789,417.366516 193.422699,416.901245 
	C190.106857,415.892975 186.662933,415.305817 182.606003,414.151184 
M128.207382,257.690674 
	C132.319977,255.545685 136.432571,253.400711 140.979904,251.028992 
	C134.846878,251.028992 129.343277,250.640182 123.913437,251.107803 
	C111.598076,252.168381 99.523109,254.403229 88.609909,260.727570 
	C79.722443,265.877930 73.660568,273.163269 73.252960,283.733795 
	C72.839859,294.446869 75.538010,304.702301 79.744438,315.850830 
	C81.080948,301.822144 86.747490,290.964996 96.187943,282.656860 
	C106.153023,273.886963 117.058319,266.185425 128.207382,257.690674 
M207.375992,247.950928 
	C205.498138,248.775497 203.620285,249.600067 200.472977,250.982071 
	C206.801270,250.982071 211.706741,251.285248 216.562729,250.923691 
	C229.712830,249.944550 242.629776,247.795670 254.224899,240.955780 
	C261.988403,236.376129 267.796936,230.072189 268.961060,220.779724 
	C270.392548,209.353058 267.141815,198.609375 263.255127,186.781799 
	C262.645294,188.647858 262.285187,189.350067 262.195190,190.085327 
	C260.956177,200.206116 256.428528,208.885620 249.460052,216.000870 
	C237.212448,228.506424 223.657104,239.451981 207.375992,247.950928 
M259.644653,306.982391 
	C262.084534,307.954437 264.459595,309.248993 266.992523,309.757904 
	C268.199310,310.000397 269.706390,308.748383 271.077454,308.173340 
	C270.304382,307.098541 269.737946,305.450165 268.710999,305.080231 
	C267.076141,304.491333 265.118500,304.554993 263.325714,304.697876 
	C259.402649,305.010498 256.507141,304.805634 259.615997,299.818848 
	C259.876129,299.401550 259.847473,298.414795 259.537292,298.091522 
	C256.397369,294.818878 259.190521,293.590759 260.591614,292.898102 
	C259.839874,291.272430 258.630280,289.854401 258.785461,288.606049 
	C258.905487,287.640442 260.629120,286.405273 261.826385,286.143616 
	C264.072021,285.652832 266.452667,285.779877 268.777191,285.649994 
	C268.778534,285.055420 268.779907,284.460846 268.781250,283.866272 
	C265.111694,283.866272 261.435394,283.741730 257.776672,283.940765 
	C256.652832,284.001953 255.254944,284.676575 254.531937,285.533691 
	C249.951157,290.963959 245.524582,296.524323 241.034714,302.057098 
	C249.194702,314.786041 255.909698,318.519135 264.129913,314.345337 
	C262.532379,313.574615 261.201996,312.355042 259.934204,312.416901 
	C252.849274,312.762817 252.269989,307.325470 251.116669,302.606628 
	C250.811356,301.357483 251.871445,299.774597 252.304596,298.344971 
	C253.560440,299.327454 255.097275,300.104462 256.003021,301.342987 
	C257.213379,302.997986 257.934052,305.011047 259.644653,306.982391 
M184.339691,163.978378 
	C180.554092,165.789322 176.768494,167.600266 173.016418,169.395172 
	C174.104599,174.243240 176.993820,175.816742 181.478058,174.849335 
	C190.623444,172.876358 196.054398,163.542389 193.307220,154.638077 
	C190.517746,157.568878 187.698639,160.530807 184.339691,163.978378 
M160.450562,336.920380 
	C162.645905,335.906128 165.065536,335.185120 166.940079,333.751434 
	C167.849152,333.056152 168.315063,329.945648 167.993546,329.773438 
	C165.816757,328.607544 163.257736,327.002441 161.043076,327.282898 
	C155.123108,328.032501 149.064087,334.527588 148.199081,340.390778 
	C147.924118,342.254578 148.467880,344.239166 148.677032,346.625275 
	C152.886948,343.001495 156.309067,340.055847 160.450562,336.920380 
M144.537369,331.980591 
	C145.824509,330.709717 147.193024,329.510254 148.382706,328.153870 
	C151.305878,324.821136 150.081696,320.704498 145.648300,320.221344 
	C142.535233,319.882080 139.274139,320.901123 136.079132,321.313599 
	C135.941971,321.922577 135.804825,322.531555 135.667664,323.140564 
	C138.432770,326.220337 141.197891,329.300110 144.537369,331.980591 
M206.065430,179.593811 
	C203.823761,175.666885 201.582092,171.739975 199.279572,167.706467 
	C196.967377,170.431900 194.859528,172.540237 193.264282,174.983276 
	C192.631958,175.951614 192.561874,178.113922 193.223648,178.959579 
	C196.346115,182.949677 199.383575,183.136627 206.065430,179.593811 
M167.180634,363.861115 
	C166.746552,365.579742 166.312469,367.298370 165.666779,369.854797 
	C168.395676,367.986847 170.359024,366.577759 172.386185,365.267426 
	C178.689850,361.192993 178.699249,361.207520 176.497131,353.611053 
	C171.212311,354.670410 169.352646,358.910126 167.180634,363.861115 
M69.678665,127.223961 
	C66.292274,129.665970 67.185745,132.581223 69.695938,134.534363 
	C70.974060,135.528839 73.850494,135.355576 75.584747,134.661499 
	C77.955276,133.712769 78.741966,131.557709 77.110023,128.989105 
	C75.414185,126.319931 73.588196,124.573051 69.678665,127.223961 
M266.120300,367.738800 
	C263.324249,370.314453 264.796509,372.738617 266.866364,374.497894 
	C267.935059,375.406250 270.258057,375.783630 271.564728,375.266022 
	C274.104279,374.259979 276.195862,372.480408 274.338776,369.095856 
	C272.432404,365.621460 270.057770,364.652466 266.120300,367.738800 
M71.487602,118.628624 
	C73.895416,119.790733 76.303230,120.952835 79.901031,122.689270 
	C78.411705,119.162659 77.395523,116.756424 76.379349,114.350182 
	C75.834679,114.068169 75.290009,113.786156 74.745338,113.504143 
	C73.757950,115.013695 72.770561,116.523254 71.487602,118.628624 
M270.769531,359.669098 
	C272.453583,360.411896 274.137604,361.154663 277.005249,362.419464 
	C275.446167,358.926636 274.392700,356.566528 273.339203,354.206390 
	C272.759766,354.199036 272.180328,354.191711 271.600891,354.184357 
	C271.093994,355.900360 270.587128,357.616333 270.769531,359.669098 
M57.418705,126.661079 
	C58.016747,128.570724 58.614784,130.480377 59.212826,132.390015 
	C59.664360,132.284775 60.115894,132.179535 60.567432,132.074295 
	C61.629688,129.759567 62.691944,127.444839 64.143097,124.282677 
	C61.672333,125.088066 59.861217,125.678436 57.418705,126.661079 
M71.930565,145.735062 
	C72.621841,144.962128 73.313118,144.189194 74.082245,143.329224 
	C71.203758,141.933578 68.801102,140.768631 65.731598,139.280350 
	C66.783112,141.966324 67.476181,144.151352 68.545662,146.133255 
	C68.770744,146.550385 70.377647,146.221848 71.930565,145.735062 
M284.128357,375.723450 
	C288.844696,371.971069 283.115540,371.859985 282.346100,369.141693 
	C280.936279,372.237030 279.915466,374.478271 278.551727,377.472412 
	C280.677826,376.815765 282.025543,376.399536 284.128357,375.723450 
M87.087379,131.458252 
	C86.372871,130.955292 85.658371,130.452316 84.878204,129.903137 
	C83.738579,132.458496 82.775978,134.616913 81.394012,137.715668 
	C84.555817,136.536667 86.890816,135.665970 89.571541,134.666367 
	C88.744057,133.519913 88.191246,132.753998 87.087379,131.458252 
M260.336792,366.092377 
	C257.974518,366.215363 255.612259,366.338318 253.249985,366.461273 
	C253.165054,366.943909 253.080124,367.426514 252.995193,367.909119 
	C254.413849,369.386627 255.832520,370.864105 257.420776,372.518219 
	C258.489990,370.172028 259.243622,368.518280 260.336792,366.092377 
z"/>
<path fill="#313131" opacity="1.000000" stroke="none" 
	d="
M10.414612,287.999756 
	C10.414667,235.525421 10.414667,183.551071 10.414667,131.271393 
	C12.294362,131.271393 13.854569,131.271393 15.857100,131.271393 
	C15.857100,249.387161 15.857100,367.455109 15.857100,485.832611 
	C97.566460,485.832611 178.837982,485.832611 260.495911,485.832611 
	C260.495911,487.623749 260.495911,489.112915 260.495911,491.037567 
	C258.767883,491.037567 257.134308,491.037598 255.500732,491.037598 
	C176.176102,491.037628 96.851463,491.038330 17.526833,491.036560 
	C10.809619,491.036407 10.417599,490.656708 10.417145,483.977844 
	C10.412721,418.818481 10.414525,353.659149 10.414612,287.999756 
z"/>
<path fill="#313131" opacity="1.000000" stroke="none" 
	d="
M214.000000,10.962272 
	C251.159332,10.962376 287.818878,11.020245 324.477753,10.891198 
	C329.184967,10.874629 330.956207,12.426104 330.952728,17.230211 
	C330.868713,133.873489 330.887329,250.516846 330.887543,367.160187 
	C330.887543,368.295166 330.887573,369.430176 330.887573,370.790833 
	C328.928467,370.790833 327.364655,370.790833 325.518738,370.790833 
	C325.518738,252.600372 325.518738,134.653000 325.518738,16.241819 
	C243.848419,16.241819 162.457947,16.241819 80.727844,16.241819 
	C80.611366,14.399661 80.522697,12.997308 80.394028,10.962272 
	C124.984055,10.962272 169.242035,10.962272 214.000000,10.962272 
z"/>
<path fill="#C93315" opacity="1.000000" stroke="none" 
	d="
M63.257034,404.327515 
	C64.118057,403.102448 64.780602,402.164703 65.680969,400.890289 
	C75.000282,414.905457 86.440727,426.543030 100.936218,436.033356 
	C86.411987,445.464081 74.982262,457.112274 65.648354,471.197571 
	C56.346554,457.022675 44.935780,445.540558 30.500982,436.057709 
	C43.443256,427.372406 54.362507,417.108582 63.257034,404.327515 
z"/>
<path fill="#C93315" opacity="1.000000" stroke="none" 
	d="
M267.707581,90.311043 
	C263.321930,85.737679 259.361877,81.221840 254.952148,77.198944 
	C250.667526,73.290184 245.921707,69.886963 240.845200,65.836273 
	C254.488861,56.561844 266.287384,45.337502 275.542450,30.781759 
	C284.990723,44.727875 296.233643,56.483475 310.810822,65.865189 
	C296.766449,75.473679 284.991577,86.758331 275.803436,101.068764 
	C273.012115,97.348717 270.474274,93.966492 267.707581,90.311043 
z"/>
<path fill="#CB391B" opacity="1.000000" stroke="none" 
	d="
M295.822296,483.154236 
	C286.157684,469.365875 289.370758,451.515991 304.108978,441.565887 
	C298.436768,439.522461 293.558319,437.802032 288.714996,435.987976 
	C287.777313,435.636780 286.380188,435.019318 286.267761,434.345642 
	C286.135162,433.550964 287.088928,431.843414 287.709900,431.774323 
	C291.499359,431.352844 295.365692,430.901672 299.126556,431.271820 
	C300.815643,431.438080 302.507050,433.300903 303.872223,434.709076 
	C307.643829,438.599701 311.684418,441.364014 317.409180,442.154724 
	C323.464813,442.991119 327.138336,447.510864 329.070160,453.244598 
	C331.365356,460.056641 331.475281,466.996338 329.507690,473.855499 
	C325.218597,488.807678 308.264709,493.612213 295.822296,483.154236 
M299.917877,459.851532 
	C300.469482,465.910919 300.552429,472.063934 301.737823,477.996704 
	C302.525177,481.937378 305.764008,484.340027 310.187256,484.440430 
	C314.522705,484.538849 317.694183,482.550812 319.220276,478.674225 
	C322.827240,469.512115 323.025360,460.053040 319.065613,451.091797 
	C317.945618,448.557159 313.873352,445.996704 311.075775,445.906494 
	C308.257538,445.815613 304.699097,448.226288 302.661438,450.577667 
	C300.898315,452.612305 300.812531,456.100433 299.917877,459.851532 
z"/>
<path fill="#CA391A" opacity="1.000000" stroke="none" 
	d="
M50.148186,58.345955 
	C52.070354,58.971600 53.579685,59.537224 55.089020,60.102848 
	C53.842953,61.387417 52.822418,63.299099 51.309990,63.843025 
	C46.047203,65.735725 41.533482,63.869789 37.685234,60.102280 
	C33.885090,56.381851 30.294298,52.922916 24.256672,52.440353 
	C18.886339,52.011124 14.936561,48.118740 12.925521,42.956875 
	C9.587523,34.389027 9.503836,25.671036 13.084185,17.197971 
	C16.672552,8.705931 24.665487,4.825882 34.917183,6.039763 
	C42.980770,6.994555 48.551567,12.572530 50.075706,21.611399 
	C52.146641,33.892986 50.478683,44.889198 37.740185,52.483841 
	C42.185760,54.634178 45.960556,56.460052 50.148186,58.345955 
M41.311150,23.392103 
	C41.191231,22.400999 41.134014,21.397524 40.941269,20.420792 
	C39.639904,13.826210 36.310535,10.246847 31.304768,10.013486 
	C25.860804,9.759696 21.661097,12.857652 20.840519,19.849089 
	C20.022604,26.817822 20.370022,34.046188 21.204710,41.041618 
	C21.736135,45.495426 24.862436,48.795357 30.066517,49.001144 
	C35.466846,49.214691 38.850815,46.155613 39.830227,41.471691 
	C41.002415,35.865837 40.937191,30.001238 41.311150,23.392103 
z"/>
<path fill="#CA3617" opacity="1.000000" stroke="none" 
	d="
M301.238403,413.754639 
	C298.535370,411.532410 296.104645,409.539459 293.673889,407.546509 
	C294.132446,408.072754 294.590973,408.598999 295.049530,409.125275 
	C300.830627,403.406952 306.611725,397.688629 311.114655,393.234589 
	C314.970886,397.146118 320.629364,402.885742 324.882690,407.200043 
	C320.617096,411.427185 314.927979,417.065033 309.278076,422.664032 
	C307.615295,420.805847 304.563019,417.394897 301.238403,413.754639 
z"/>
<path fill="#CA3617" opacity="1.000000" stroke="none" 
	d="
M23.068985,79.065994 
	C25.647974,75.997833 27.976555,73.181694 29.580675,71.241707 
	C35.057842,77.019104 40.663223,82.931732 44.773224,87.267014 
	C40.491486,91.482903 34.738342,97.147568 30.710798,101.113174 
	C26.636665,97.021439 20.952358,91.312576 15.268052,85.603714 
	C14.630537,86.183716 13.993023,86.763725 13.355508,87.343727 
	C16.509865,84.668495 19.664221,81.993263 23.068985,79.065994 
z"/>
<path fill="#F8CA1A" opacity="1.000000" stroke="none" 
	d="
M168.779099,69.117943 
	C166.995773,68.477631 165.212448,67.837311 163.429123,67.196991 
	C163.504883,66.679222 163.580643,66.161453 163.656403,65.643677 
	C168.880630,66.157188 174.141068,66.443756 179.315414,67.269760 
	C182.393814,67.761169 185.366135,69.018509 188.335037,70.075104 
	C196.819855,73.094757 201.915024,77.093750 202.644196,88.086990 
	C204.198563,111.521141 214.484314,131.395126 233.985733,145.776276 
	C238.094666,148.806366 241.822021,152.521835 245.151550,156.412415 
	C261.388550,175.385544 261.299530,193.920929 244.662964,212.781097 
	C237.345734,203.538086 231.101685,193.854980 223.526215,185.359070 
	C214.519684,175.258240 207.219162,164.438431 203.172424,151.510010 
	C199.264252,139.024277 198.157684,126.181000 197.975327,113.160767 
	C197.781311,99.309494 194.555740,86.366272 183.897202,76.575523 
	C179.699051,72.719185 175.212219,68.760201 168.779099,69.117943 
z"/>
<path fill="#F8CA1A" opacity="1.000000" stroke="none" 
	d="
M173.163925,432.996063 
	C175.346024,433.773041 177.528107,434.550018 179.710205,435.326996 
	C165.922729,436.564941 153.494293,433.028900 142.264435,425.407257 
	C141.338898,424.779083 140.982651,422.846436 140.913040,421.491638 
	C139.526764,394.506073 129.799561,371.925171 107.655731,355.156555 
	C101.551079,350.533752 96.225777,344.346100 91.962318,337.932800 
	C81.223412,321.778870 83.468117,304.533447 97.828400,289.280945 
	C105.334854,298.682953 112.269859,307.992950 119.349167,317.191925 
	C122.485519,321.267334 126.267197,324.877808 129.147552,329.113068 
	C140.819977,346.276123 144.215210,365.719788 144.340729,386.026917 
	C144.405075,396.435059 145.771362,406.661133 151.140213,415.808655 
	C156.161728,424.364319 162.952087,430.948395 173.163925,432.996063 
z"/>
<path fill="#F9F9F9" opacity="1.000000" stroke="none" 
	d="
M200.328644,291.676208 
	C190.871262,280.932495 180.066330,273.562134 165.514984,272.840546 
	C155.601486,272.348999 146.700790,275.009949 138.753571,280.661743 
	C130.898758,286.247772 123.338593,292.248138 115.015442,298.546295 
	C111.753204,293.185944 108.448547,287.755890 104.916901,281.952850 
	C120.477028,268.721130 135.587875,255.492859 156.663361,253.369980 
	C180.278229,250.991318 199.246078,260.515106 214.376617,278.008270 
	C224.256134,289.430511 233.425095,301.467346 243.629562,314.118011 
	C234.950638,314.118011 227.246429,314.229462 219.552826,313.994232 
	C218.436798,313.960114 217.205505,312.402130 216.310104,311.316284 
	C211.015778,304.896027 205.804932,298.406921 200.328644,291.676208 
z"/>
<path fill="#F9F9F9" opacity="1.000000" stroke="none" 
	d="
M147.093323,239.982864 
	C132.341095,230.785889 122.298431,217.459839 112.054283,204.341293 
	C107.992416,199.139709 104.045670,193.848236 99.480530,187.854599 
	C107.752762,187.854599 115.310211,187.745041 122.857536,187.972046 
	C123.996880,188.006317 125.272049,189.453445 126.173927,190.511642 
	C133.075897,198.609848 139.434204,207.228989 146.844452,214.824799 
	C163.677124,232.078903 185.746368,233.889114 205.565628,220.020782 
	C212.898209,214.889893 219.810944,209.158981 227.539062,203.222458 
	C230.918243,208.831604 234.195053,214.270798 237.648376,220.002991 
	C222.160904,232.854523 207.427872,245.961716 186.722763,248.341095 
	C172.758102,249.945877 159.604568,247.274902 147.093323,239.982864 
z"/>
<path fill="#FAFAFA" opacity="1.000000" stroke="none" 
	d="
M142.280823,111.784111 
	C140.995270,111.321785 140.069626,110.963638 139.830597,110.871155 
	C142.153183,104.216156 144.461594,97.601814 147.071884,90.122444 
	C149.147934,90.515938 152.636459,91.395790 156.177505,91.748863 
	C157.761551,91.906815 159.450974,91.007843 161.092575,90.588524 
	C159.910370,89.286072 158.957611,87.332985 157.497665,86.818138 
	C154.560104,85.782227 151.280640,85.748970 148.277496,84.850159 
	C147.018616,84.473396 146.103607,82.947624 145.032272,81.944229 
	C146.267883,81.505699 147.533188,80.617661 148.734604,80.696976 
	C163.519562,81.673119 174.212814,91.765083 176.924408,107.126770 
	C179.639969,122.510948 177.833435,126.519325 163.880859,133.939117 
	C159.825699,136.095612 155.326904,137.528854 150.894699,138.826355 
	C147.940918,139.691040 145.753006,138.826843 145.910889,134.857574 
	C146.006485,132.454025 145.159470,130.013000 144.829575,128.124680 
	C145.650223,126.774437 147.277267,124.844193 146.972977,124.465401 
	C145.816254,123.025429 144.035400,122.086838 142.503098,121.234764 
	C138.641022,118.091530 151.879181,115.640953 142.280823,111.784111 
M150.808395,97.624344 
	C151.670151,99.244957 152.531891,100.865578 153.393646,102.486198 
	C154.264771,101.513512 155.924225,100.472374 155.846909,99.582039 
	C155.672791,97.576706 154.638580,95.646049 153.954391,93.685013 
	C152.906082,94.725334 151.857773,95.765656 150.808395,97.624344 
z"/>
<path fill="#FAFAFA" opacity="1.000000" stroke="none" 
	d="
M182.938690,414.348816 
	C186.662933,415.305817 190.106857,415.892975 193.422699,416.901245 
	C194.952789,417.366516 196.232559,418.654938 197.625824,419.570129 
	C196.151062,420.084808 194.650024,421.109955 193.205566,421.035553 
	C177.884903,420.246887 167.217163,408.101990 164.841949,390.756775 
	C163.484161,380.841431 166.831940,374.234100 175.214523,369.890472 
	C180.328644,367.240448 185.734650,365.086151 191.162827,363.135773 
	C194.301971,362.007904 196.913864,363.055878 196.569778,367.085480 
	C196.308441,370.146118 199.598892,373.663940 195.476181,376.253632 
	C196.872055,377.899506 198.267929,379.545380 200.259949,381.894165 
	C198.288254,384.863892 192.597214,390.190857 202.690506,390.971252 
	C200.283768,397.925903 197.940445,404.697266 195.471603,411.831329 
	C192.794083,411.271240 189.090576,410.396179 185.344986,409.774506 
	C184.229431,409.589355 182.995895,410.114929 181.816422,410.314880 
	C182.079605,411.593658 182.342804,412.872406 182.938690,414.348816 
M190.166382,408.149139 
	C190.687286,405.783203 191.317383,403.427063 191.532898,401.033661 
	C191.551208,400.830444 188.260117,399.609406 187.439941,400.186920 
	C185.081680,401.847443 186.478531,406.852081 190.166382,408.149139 
z"/>
<path fill="#244CC1" opacity="1.000000" stroke="none" 
	d="
M107.178421,207.024826 
	C118.165184,220.494888 128.289246,234.795395 144.493057,244.656799 
	C135.725403,245.149231 128.177307,245.275558 120.697662,246.056915 
	C106.364738,247.554199 92.487900,250.647263 80.352310,259.391602 
	C84.106995,239.174728 93.588631,222.030334 107.178421,207.024826 
z"/>
<path fill="#244CC1" opacity="1.000000" stroke="none" 
	d="
M235.382339,294.404327 
	C229.503571,287.421539 223.933594,280.144928 217.653397,273.544067 
	C212.111404,267.719147 205.776947,262.648193 199.562683,257.036896 
	C221.268570,256.420013 242.843353,255.491043 261.962555,243.017578 
	C258.162415,262.927277 249.220627,279.958740 235.382339,294.404327 
z"/>
<path fill="#FAFAFA" opacity="1.000000" stroke="none" 
	d="
M127.880135,257.853943 
	C117.058319,266.185425 106.153023,273.886963 96.187943,282.656860 
	C86.747490,290.964996 81.080948,301.822144 79.744438,315.850830 
	C75.538010,304.702301 72.839859,294.446869 73.252960,283.733795 
	C73.660568,273.163269 79.722443,265.877930 88.609909,260.727570 
	C99.523109,254.403229 111.598076,252.168381 123.913437,251.107803 
	C129.343277,250.640182 134.846878,251.028992 140.979904,251.028992 
	C136.432571,253.400711 132.319977,255.545685 127.880135,257.853943 
z"/>
<path fill="#FBFBFB" opacity="1.000000" stroke="none" 
	d="
M207.718292,247.800522 
	C223.657104,239.451981 237.212448,228.506424 249.460052,216.000870 
	C256.428528,208.885620 260.956177,200.206116 262.195190,190.085327 
	C262.285187,189.350067 262.645294,188.647858 263.255127,186.781799 
	C267.141815,198.609375 270.392548,209.353058 268.961060,220.779724 
	C267.796936,230.072189 261.988403,236.376129 254.224899,240.955780 
	C242.629776,247.795670 229.712830,249.944550 216.562729,250.923691 
	C211.706741,251.285248 206.801270,250.982071 200.472977,250.982071 
	C203.620285,249.600067 205.498138,248.775497 207.718292,247.800522 
z"/>
<path fill="#C73213" opacity="1.000000" stroke="none" 
	d="
M151.067398,315.975189 
	C144.547775,313.244171 138.194870,313.658722 131.569214,317.312134 
	C127.338615,312.798065 123.071434,308.244934 118.232086,303.081299 
	C131.659546,293.441650 142.259842,280.646301 159.739685,278.638367 
	C157.116241,291.370209 154.091827,303.672699 151.067398,315.975189 
z"/>
<path fill="#F7CA1B" opacity="1.000000" stroke="none" 
	d="
M191.339996,185.709442 
	C197.013367,187.795792 202.595596,189.127899 208.475830,185.954651 
	C209.609283,185.342987 212.291763,186.177963 213.417786,187.239029 
	C217.030563,190.643326 220.248657,194.466507 224.136948,198.690735 
	C210.993347,208.594421 200.138992,221.261261 182.525513,223.302216 
	C185.220032,210.487152 188.280014,198.098297 191.339996,185.709442 
z"/>
<path fill="#284EC0" opacity="1.000000" stroke="none" 
	d="
M177.917191,91.629745 
	C170.476074,79.309586 157.568726,76.736290 144.515366,74.423370 
	C144.642792,73.673615 144.770203,72.923851 144.897614,72.174095 
	C146.933762,71.743027 148.971878,70.929810 151.005737,70.940346 
	C170.103989,71.039246 184.801453,83.956772 186.929779,102.939583 
	C188.315216,115.296387 189.217850,127.720444 189.908493,140.138199 
	C190.546463,151.609375 181.725143,162.049789 170.501389,163.828232 
	C164.103226,164.842041 159.801819,161.307800 159.201706,153.890808 
	C165.189011,154.598770 170.858917,153.769043 176.052887,149.185028 
	C178.709641,145.549683 181.594482,142.528687 182.718719,138.953995 
	C186.926498,125.574608 186.717422,112.050247 182.102478,98.755653 
	C181.216583,96.203590 179.337875,93.996170 177.917191,91.629745 
z"/>
<path fill="#264DC0" opacity="1.000000" stroke="none" 
	d="
M166.364288,412.951294 
	C171.202774,416.461578 175.702682,420.649353 180.977936,423.285645 
	C185.941605,425.766266 191.723145,426.610260 197.144867,428.174286 
	C197.134857,428.782623 197.124863,429.390961 197.114868,429.999298 
	C195.398788,430.354828 193.676880,431.044769 191.967529,431.014954 
	C171.376358,430.655487 156.735611,416.770355 155.068665,395.945770 
	C154.170074,384.720062 153.418350,373.479248 152.825073,362.233398 
	C152.230713,350.967102 159.312134,340.938446 170.150894,338.723175 
	C173.383957,338.062347 177.420319,339.640167 180.611298,341.180908 
	C182.199890,341.947968 182.709778,344.949066 184.375641,348.272095 
	C175.163651,346.992462 169.156784,349.926147 163.722870,355.734711 
	C162.192566,357.977783 160.814682,359.723145 160.171722,361.706726 
	C156.192749,373.982086 155.534698,386.513428 159.166458,398.887756 
	C160.623474,403.852142 163.910309,408.279510 166.364288,412.951294 
z"/>
<path fill="#F8CA1B" opacity="1.000000" stroke="none" 
	d="
M164.707382,319.002747 
	C163.469604,319.676453 162.231812,320.350128 160.008789,321.560028 
	C161.897827,315.438873 163.705902,310.402222 164.986725,305.234863 
	C166.852692,297.706818 168.319138,290.080261 170.015488,282.509003 
	C170.205750,281.659760 170.781677,280.896912 171.758621,280.409302 
	C183.100143,284.664917 189.967667,293.066528 197.225693,301.753845 
	C194.990479,303.121613 193.356873,304.260742 191.604095,305.170258 
	C182.655441,309.813690 173.676025,314.397858 164.707382,319.002747 
z"/>
<path fill="#C83315" opacity="1.000000" stroke="none" 
	d="
M174.005554,184.142548 
	C176.517014,183.164078 179.028488,182.185623 181.434494,181.248245 
	C178.140152,195.246246 174.924805,208.908600 171.265015,222.347733 
	C160.673538,216.902863 152.328018,209.667191 145.553772,199.894104 
	C149.775970,197.451492 153.599411,195.151917 157.504883,193.001343 
	C162.973099,189.990265 168.502396,187.090149 174.005554,184.142548 
z"/>
<path fill="#F6F5EF" opacity="1.000000" stroke="none" 
	d="
M168.952393,69.428764 
	C175.212219,68.760201 179.699051,72.719185 183.897202,76.575523 
	C194.555740,86.366272 197.781311,99.309494 197.975327,113.160767 
	C198.157684,126.181000 199.264252,139.024277 203.172424,151.510010 
	C207.219162,164.438431 214.519684,175.258240 223.526215,185.359070 
	C231.101685,193.854980 237.345734,203.538086 244.360107,212.988022 
	C243.673111,214.229324 242.805206,215.178238 241.529449,216.573090 
	C234.539261,201.836960 223.714951,190.628830 213.456818,178.898468 
	C199.101990,162.483459 194.248566,142.451675 193.495178,121.195496 
	C193.070709,109.219437 193.036224,97.220749 187.008057,86.291306 
	C182.867401,78.784035 177.255783,72.913437 168.952393,69.428764 
z"/>
<path fill="#F8F6F0" opacity="1.000000" stroke="none" 
	d="
M173.025757,432.673370 
	C162.952087,430.948395 156.161728,424.364319 151.140213,415.808655 
	C145.771362,406.661133 144.405075,396.435059 144.340729,386.026917 
	C144.215210,365.719788 140.819977,346.276123 129.147552,329.113068 
	C126.267197,324.877808 122.485519,321.267334 119.349167,317.191925 
	C112.269859,307.992950 105.334854,298.682953 98.134918,289.132690 
	C98.743065,287.855804 99.557434,286.864349 100.694305,285.480286 
	C101.601273,286.912354 102.208496,288.008087 102.943420,289.010162 
	C109.499649,297.949646 115.160477,307.770599 122.837074,315.617981 
	C140.085114,333.249756 147.729980,354.362946 149.009796,378.391296 
	C149.389206,385.514679 149.269577,392.720795 150.352020,399.738892 
	C152.567291,414.101654 159.459320,425.570862 173.025757,432.673370 
z"/>
<path fill="#F4C81D" opacity="1.000000" stroke="none" 
	d="
M148.167328,53.530815 
	C151.422638,52.791489 154.659698,51.952175 157.940643,51.353207 
	C159.693436,51.033222 161.914261,50.423981 163.243988,51.165104 
	C167.537369,53.557999 171.383163,52.651028 175.496689,50.900986 
	C176.702469,50.388012 179.183594,50.408440 179.708817,51.152473 
	C183.693878,56.797661 188.831451,57.089760 195.122986,54.530533 
	C196.299988,61.857956 200.954453,64.373337 208.343216,63.623871 
	C207.459808,66.070641 206.812042,67.864746 205.673264,69.878830 
	C199.663376,68.109825 194.144516,66.120842 188.625656,64.131859 
	C175.727097,60.750240 162.755219,58.538406 149.033752,61.263206 
	C148.468750,58.410423 148.318039,55.970619 148.167328,53.530815 
z"/>
<path fill="#F4C81D" opacity="1.000000" stroke="none" 
	d="
M153.077393,437.891785 
	C164.262177,441.273254 175.651306,442.496613 187.280426,441.083954 
	C189.242828,440.845581 191.188538,440.469727 193.557220,440.605286 
	C194.058990,443.422882 194.145493,445.792603 194.231995,448.162292 
	C190.676437,449.058929 187.128387,449.987213 183.561096,450.834473 
	C182.370560,451.117249 180.667877,451.793427 179.986572,451.268311 
	C174.370560,446.939941 169.359039,450.132629 163.819550,452.374298 
	C160.292938,445.571167 154.554672,444.438110 147.340347,447.060944 
	C146.250183,439.659363 141.354813,437.562500 134.240662,438.229736 
	C135.061829,435.868317 135.728699,433.950592 136.991394,431.937195 
	C142.750610,433.858307 147.914001,435.875061 153.077393,437.891785 
z"/>
<path fill="#F2F2F2" opacity="1.000000" stroke="none" 
	d="
M259.254822,306.926392 
	C257.934052,305.011047 257.213379,302.997986 256.003021,301.342987 
	C255.097275,300.104462 253.560440,299.327454 252.304596,298.344971 
	C251.871445,299.774597 250.811356,301.357483 251.116669,302.606628 
	C252.269989,307.325470 252.849274,312.762817 259.934204,312.416901 
	C261.201996,312.355042 262.532379,313.574615 264.129913,314.345337 
	C255.909698,318.519135 249.194702,314.786041 241.034714,302.057098 
	C245.524582,296.524323 249.951157,290.963959 254.531937,285.533691 
	C255.254944,284.676575 256.652832,284.001953 257.776672,283.940765 
	C261.435394,283.741730 265.111694,283.866272 268.781250,283.866272 
	C268.779907,284.460846 268.778534,285.055420 268.777191,285.649994 
	C266.452667,285.779877 264.072021,285.652832 261.826385,286.143616 
	C260.629120,286.405273 258.905487,287.640442 258.785461,288.606049 
	C258.630280,289.854401 259.839874,291.272430 260.591614,292.898102 
	C259.190521,293.590759 256.397369,294.818878 259.537292,298.091522 
	C259.847473,298.414795 259.876129,299.401550 259.615997,299.818848 
	C256.507141,304.805634 259.402649,305.010498 263.325714,304.697876 
	C265.118500,304.554993 267.076141,304.491333 268.710999,305.080231 
	C269.737946,305.450165 270.304382,307.098541 271.077454,308.173340 
	C269.706390,308.748383 268.199310,310.000397 266.992523,309.757904 
	C264.459595,309.248993 262.084534,307.954437 259.254822,306.926392 
z"/>
<path fill="#F5C91C" opacity="1.000000" stroke="none" 
	d="
M156.077759,174.080750 
	C159.118134,173.083130 162.158508,172.085510 165.495651,170.990524 
	C167.270645,173.382172 169.099365,175.846191 170.699402,178.002075 
	C160.706085,183.245224 150.798660,188.443298 140.349274,193.416931 
	C138.043716,190.862839 136.280151,188.533157 134.127716,185.689804 
	C138.042084,183.609604 141.476151,181.777451 144.916977,179.958099 
	C148.633942,177.992737 152.357224,176.039352 156.077759,174.080750 
z"/>
<path fill="#C73416" opacity="1.000000" stroke="none" 
	d="
M192.064590,325.175385 
	C187.082306,327.150269 182.100006,329.125122 176.982437,331.153595 
	C175.194916,328.492096 173.673096,326.226257 172.142761,323.947693 
	C182.126755,318.627136 192.030945,313.349091 202.407883,308.336731 
	C204.633133,310.973694 206.385620,313.344971 208.354904,316.009613 
	C206.515656,317.105133 205.005203,318.055756 203.447968,318.922333 
	C199.665085,321.027466 195.860458,323.093567 192.064590,325.175385 
z"/>
<path fill="#F5F5F5" opacity="1.000000" stroke="none" 
	d="
M85.821556,199.031052 
	C86.183868,199.959808 86.322914,201.107666 86.964973,201.761856 
	C87.767662,202.579712 88.983994,202.991592 90.021751,203.578735 
	C90.637329,202.377869 91.875877,201.116089 91.765427,199.986191 
	C91.139832,193.586990 88.953499,191.243149 82.918655,189.525528 
	C81.483795,189.117142 80.165817,188.298111 78.124466,187.360382 
	C87.839417,183.889084 91.817070,186.123688 101.690964,199.692932 
	C96.997871,205.446304 92.939407,211.935913 87.401230,216.708435 
	C83.365685,220.186081 77.498993,217.919464 71.297203,216.876038 
	C76.172745,214.659698 82.200058,218.427414 84.747612,211.736923 
	C81.964104,211.080002 80.172035,210.657059 78.430061,210.245956 
	C80.613960,208.871063 82.449699,207.715363 84.285446,206.559662 
	C83.150673,205.225235 82.015900,203.890808 80.744408,202.395599 
	C81.384682,202.178497 82.444633,201.819107 84.016495,201.088654 
	C84.959450,200.155411 85.390503,199.593231 85.821556,199.031052 
z"/>
<path fill="#F0F1F4" opacity="1.000000" stroke="none" 
	d="
M107.048721,206.683990 
	C93.588631,222.030334 84.106995,239.174728 80.048965,259.527832 
	C78.048828,261.597412 76.044319,263.279755 73.339256,265.550049 
	C75.315475,258.353821 76.801422,251.500931 79.084618,244.924866 
	C84.043472,230.642487 92.125443,218.180328 102.466446,207.189835 
	C103.600365,205.984711 104.808151,203.235306 107.048721,206.683990 
z"/>
<path fill="#F2F3F6" opacity="1.000000" stroke="none" 
	d="
M235.494629,294.736877 
	C249.220627,279.958740 258.162415,262.927277 262.331940,242.897827 
	C263.968689,240.648071 265.604736,238.875687 267.240814,237.103287 
	C267.677948,237.267624 268.115082,237.431946 268.552246,237.596283 
	C267.510773,242.138107 266.701416,246.748367 265.386505,251.209610 
	C260.462402,267.916382 251.688599,282.415344 239.744598,295.036804 
	C238.386337,296.472076 237.013718,298.651764 235.494629,294.736877 
z"/>
<path fill="#F9F5F2" opacity="1.000000" stroke="none" 
	d="
M151.270264,316.245239 
	C154.091827,303.672699 157.116241,291.370209 160.135071,278.660156 
	C161.592804,278.159027 163.056152,278.065399 166.022354,277.875641 
	C162.474014,292.056854 159.095917,305.557800 155.526215,319.824402 
	C153.474182,318.149017 152.473648,317.332153 151.270264,316.245239 
z"/>
<path fill="#F1EFE4" opacity="1.000000" stroke="none" 
	d="
M165.139313,319.019958 
	C173.676025,314.397858 182.655441,309.813690 191.604095,305.170258 
	C193.356873,304.260742 194.990479,303.121613 197.225693,301.753845 
	C189.967667,293.066528 183.100143,284.664917 172.155594,280.432892 
	C175.240906,281.025299 179.150696,281.060730 181.655716,282.954407 
	C188.871841,288.409515 195.520920,294.614685 202.392731,300.525208 
	C202.285828,301.253510 202.178925,301.981842 202.072006,302.710144 
	C190.734818,308.148407 179.405441,313.603149 168.040924,318.983734 
	C167.361557,319.305359 166.400986,319.033112 165.139313,319.019958 
z"/>
<path fill="#EFE8E6" opacity="1.000000" stroke="none" 
	d="
M173.622879,184.057587 
	C168.502396,187.090149 162.973099,189.990265 157.504883,193.001343 
	C153.599411,195.151917 149.775970,197.451492 145.553772,199.894104 
	C152.328018,209.667191 160.673538,216.902863 170.902939,222.448929 
	C157.302536,220.242920 149.230896,210.247849 139.817749,199.263901 
	C151.394958,193.967133 162.317581,188.969864 173.622879,184.057587 
z"/>
<path fill="#FAF7F2" opacity="1.000000" stroke="none" 
	d="
M191.138901,185.440216 
	C188.280014,198.098297 185.220032,210.487152 182.151550,223.248688 
	C180.862350,223.621384 179.581619,223.621384 176.735748,223.621384 
	C180.160721,209.814789 183.458191,196.522064 186.969711,182.366531 
	C188.973358,183.782623 189.955582,184.476822 191.138901,185.440216 
z"/>
<path fill="#2A50C2" opacity="1.000000" stroke="none" 
	d="
M184.609619,163.735565 
	C187.698639,160.530807 190.517746,157.568878 193.307220,154.638077 
	C196.054398,163.542389 190.623444,172.876358 181.478058,174.849335 
	C176.993820,175.816742 174.104599,174.243240 173.016418,169.395172 
	C176.768494,167.600266 180.554092,165.789322 184.609619,163.735565 
z"/>
<path fill="#254CC0" opacity="1.000000" stroke="none" 
	d="
M160.090866,337.015259 
	C156.309067,340.055847 152.886948,343.001495 148.677032,346.625275 
	C148.467880,344.239166 147.924118,342.254578 148.199081,340.390778 
	C149.064087,334.527588 155.123108,328.032501 161.043076,327.282898 
	C163.257736,327.002441 165.816757,328.607544 167.993546,329.773438 
	C168.315063,329.945648 167.849152,333.056152 166.940079,333.751434 
	C165.065536,335.185120 162.645905,335.906128 160.090866,337.015259 
z"/>
<path fill="#E0E3EB" opacity="1.000000" stroke="none" 
	d="
M177.602142,91.800354 
	C179.337875,93.996170 181.216583,96.203590 182.102478,98.755653 
	C186.717422,112.050247 186.926498,125.574608 182.718719,138.953995 
	C181.594482,142.528687 178.709641,145.549683 176.315735,148.976654 
	C184.238144,134.128815 184.876007,118.289200 180.977081,102.038651 
	C180.148788,98.586365 178.537567,95.321938 177.602142,91.800354 
z"/>
<path fill="#E2E5EC" opacity="1.000000" stroke="none" 
	d="
M166.284500,412.575745 
	C163.910309,408.279510 160.623474,403.852142 159.166458,398.887756 
	C155.534698,386.513428 156.192749,373.982086 160.171722,361.706726 
	C160.814682,359.723145 162.192566,357.977783 163.572723,356.039246 
	C162.476791,362.672852 160.506149,369.327881 159.719894,376.119995 
	C158.384598,387.654968 159.823471,398.922150 165.329773,409.411835 
	C165.775269,410.260498 165.920151,411.266998 166.284500,412.575745 
z"/>
<path fill="#2A50C2" opacity="1.000000" stroke="none" 
	d="
M144.250183,332.180237 
	C141.197891,329.300110 138.432770,326.220337 135.667664,323.140564 
	C135.804825,322.531555 135.941971,321.922577 136.079132,321.313599 
	C139.274139,320.901123 142.535233,319.882080 145.648300,320.221344 
	C150.081696,320.704498 151.305878,324.821136 148.382706,328.153870 
	C147.193024,329.510254 145.824509,330.709717 144.250183,332.180237 
z"/>
<path fill="#284EC0" opacity="1.000000" stroke="none" 
	d="
M205.854904,179.921600 
	C199.383575,183.136627 196.346115,182.949677 193.223648,178.959579 
	C192.561874,178.113922 192.631958,175.951614 193.264282,174.983276 
	C194.859528,172.540237 196.967377,170.431900 199.279572,167.706467 
	C201.582092,171.739975 203.823761,175.666885 205.854904,179.921600 
z"/>
<path fill="#EFC41D" opacity="1.000000" stroke="none" 
	d="
M244.036957,347.078247 
	C241.857086,337.824829 244.973160,329.745850 250.095428,322.125916 
	C251.949448,331.461548 250.427216,339.912598 244.036957,347.078247 
z"/>
<path fill="#F4C81D" opacity="1.000000" stroke="none" 
	d="
M98.419136,153.933685 
	C100.567009,163.472351 97.867760,171.974045 92.466476,179.816635 
	C90.673424,170.213043 92.936340,161.676941 98.419136,153.933685 
z"/>
<path fill="#F2F2F2" opacity="1.000000" stroke="none" 
	d="
M176.391937,133.441589 
	C175.154556,139.771698 173.213745,145.620529 165.907623,148.648438 
	C165.290909,145.535965 164.759140,142.852203 164.259460,140.330414 
	C168.096939,137.776794 171.684738,135.389328 175.725998,133.102844 
	C176.179459,133.203812 176.391937,133.441589 176.391937,133.441589 
z"/>
<path fill="#EFEDE4" opacity="1.000000" stroke="none" 
	d="
M155.703888,173.943253 
	C152.357224,176.039352 148.633942,177.992737 144.916977,179.958099 
	C141.476151,181.777451 138.042084,183.609604 134.127716,185.689804 
	C136.280151,188.533157 138.043716,190.862839 139.991302,193.540924 
	C139.249924,194.520493 138.324539,195.151627 137.236908,195.893433 
	C134.673538,192.619553 132.247742,189.521378 128.911514,185.260422 
	C138.052200,181.297150 146.691101,177.551453 155.703888,173.943253 
z"/>
<path fill="#F1F1F1" opacity="1.000000" stroke="none" 
	d="
M167.337708,363.506348 
	C169.352646,358.910126 171.212311,354.670410 176.497131,353.611053 
	C178.699249,361.207520 178.689850,361.192993 172.386185,365.267426 
	C170.359024,366.577759 168.395676,367.986847 165.666779,369.854797 
	C166.312469,367.298370 166.746552,365.579742 167.337708,363.506348 
z"/>
<path fill="#EEE6E4" opacity="1.000000" stroke="none" 
	d="
M192.465149,325.131531 
	C195.860458,323.093567 199.665085,321.027466 203.447968,318.922333 
	C205.005203,318.055756 206.515656,317.105133 208.354904,316.009613 
	C206.385620,313.344971 204.633133,310.973694 202.735779,308.272217 
	C203.488571,307.298248 204.386215,306.654480 205.369568,305.949280 
	C207.969894,309.310333 210.387955,312.435791 213.689468,316.703156 
	C206.410278,319.634064 199.638000,322.360870 192.465149,325.131531 
z"/>
<path fill="#F5F5F5" opacity="1.000000" stroke="none" 
	d="
M70.030540,127.019058 
	C73.588196,124.573051 75.414185,126.319931 77.110023,128.989105 
	C78.741966,131.557709 77.955276,133.712769 75.584747,134.661499 
	C73.850494,135.355576 70.974060,135.528839 69.695938,134.534363 
	C67.185745,132.581223 66.292274,129.665970 70.030540,127.019058 
z"/>
<path fill="#F5F5F5" opacity="1.000000" stroke="none" 
	d="
M266.423523,367.468018 
	C270.057770,364.652466 272.432404,365.621460 274.338776,369.095856 
	C276.195862,372.480408 274.104279,374.259979 271.564728,375.266022 
	C270.258057,375.783630 267.935059,375.406250 266.866364,374.497894 
	C264.796509,372.738617 263.324249,370.314453 266.423523,367.468018 
z"/>
<path fill="#EAE6D4" opacity="1.000000" stroke="none" 
	d="
M98.310333,153.549210 
	C92.936340,161.676941 90.673424,170.213043 92.167984,180.093384 
	C91.526726,180.640198 90.251831,181.010971 90.159462,180.817413 
	C86.602791,173.364563 92.208496,155.196960 98.310333,153.549210 
z"/>
<path fill="#F1EFE4" opacity="1.000000" stroke="none" 
	d="
M244.127960,347.418701 
	C250.427216,339.912598 251.949448,331.461548 250.358063,321.856567 
	C251.037827,321.549194 252.591660,321.355713 252.770493,321.764160 
	C255.290649,327.520569 251.035477,343.850128 246.079697,347.719299 
	C245.687897,348.025208 244.849701,347.759338 244.127960,347.418701 
z"/>
<path fill="#EEEEEE" opacity="1.000000" stroke="none" 
	d="
M85.809235,198.655273 
	C85.390503,199.593231 84.959450,200.155411 84.304825,200.867584 
	C84.496185,197.955475 83.197449,196.799042 80.111328,197.026474 
	C77.827469,197.194763 75.464485,197.070786 73.224586,196.630325 
	C72.440262,196.476105 71.347931,194.929016 71.432991,194.128082 
	C71.521675,193.292908 72.734528,192.258194 73.679390,191.899536 
	C75.622681,191.161942 84.857414,196.195358 85.809235,198.655273 
z"/>
<path fill="#EEEEEE" opacity="1.000000" stroke="none" 
	d="
M194.504593,448.387329 
	C194.145493,445.792603 194.058990,443.422882 193.971222,440.616180 
	C195.370010,439.799072 196.770081,439.418976 198.620392,438.916595 
	C198.620392,442.718964 198.620392,446.202728 198.620392,450.014069 
	C197.393387,449.566559 196.085297,449.089447 194.504593,448.387329 
z"/>
<path fill="#DFB821" opacity="1.000000" stroke="none" 
	d="
M260.706146,337.857483 
	C259.810730,336.516724 258.236267,335.219177 258.147736,333.827118 
	C257.886200,329.714233 258.212158,325.563965 258.831024,321.626312 
	C262.495636,326.941681 261.486328,332.409241 260.706146,337.857483 
z"/>
<path fill="#F6F5EF" opacity="1.000000" stroke="none" 
	d="
M147.914520,53.342491 
	C148.318039,55.970619 148.468750,58.410423 148.607697,61.253853 
	C147.224304,62.053589 145.852692,62.449696 144.175430,62.934074 
	C143.982574,59.285172 143.807022,55.963474 143.859894,52.258842 
	C144.088318,51.875916 144.056473,51.934998 144.056473,51.934998 
	C145.258224,52.341389 146.459961,52.747780 147.914520,53.342491 
z"/>
<path fill="#F4C81D" opacity="1.000000" stroke="none" 
	d="
M82.052109,164.206619 
	C82.878204,165.364883 84.374405,166.503220 84.409515,167.684982 
	C84.533691,171.864288 84.158020,176.058426 83.478157,180.111511 
	C80.387741,174.854752 80.453423,169.576004 82.052109,164.206619 
z"/>
<path fill="#F0ECDD" opacity="1.000000" stroke="none" 
	d="
M261.107666,338.047272 
	C261.486328,332.409241 262.495636,326.941681 259.236267,321.486267 
	C260.077576,321.547546 261.388580,321.676666 261.936615,322.391083 
	C264.958466,326.330322 264.654694,334.223602 261.107666,338.047272 
z"/>
<path fill="#F1EFE4" opacity="1.000000" stroke="none" 
	d="
M81.766998,163.985199 
	C80.453423,169.576004 80.387741,174.854752 83.137894,180.320908 
	C82.136742,179.779205 80.048561,178.953644 79.985977,177.995773 
	C79.682709,173.353989 79.914154,168.676437 80.033798,164.013565 
	C80.036255,163.917984 80.978233,163.846512 81.766998,163.985199 
z"/>
<path fill="#F0ECDD" opacity="1.000000" stroke="none" 
	d="
M188.829102,64.443779 
	C194.144516,66.120842 199.663376,68.109825 205.518661,70.242203 
	C205.867493,73.014488 204.933853,72.845070 202.923172,71.736221 
	C198.388763,69.235634 193.673950,67.062225 188.829102,64.443779 
z"/>
<path fill="#E3E3E3" opacity="1.000000" stroke="none" 
	d="
M71.635391,118.330719 
	C72.770561,116.523254 73.757950,115.013695 74.745338,113.504143 
	C75.290009,113.786156 75.834679,114.068169 76.379349,114.350182 
	C77.395523,116.756424 78.411705,119.162659 79.901031,122.689270 
	C76.303230,120.952835 73.895416,119.790733 71.635391,118.330719 
z"/>
<path fill="#EFEDE4" opacity="1.000000" stroke="none" 
	d="
M152.950348,437.565186 
	C147.914001,435.875061 142.750610,433.858307 137.250580,431.657349 
	C136.949417,430.815430 136.984879,430.157715 137.043213,429.075623 
	C142.448212,431.871613 147.635757,434.555084 152.950348,437.565186 
z"/>
<path fill="#E3E3E3" opacity="1.000000" stroke="none" 
	d="
M270.424896,359.500702 
	C270.587128,357.616333 271.093994,355.900360 271.600891,354.184357 
	C272.180328,354.191711 272.759766,354.199036 273.339203,354.206390 
	C274.392700,356.566528 275.446167,358.926636 277.005249,362.419464 
	C274.137604,361.154663 272.453583,360.411896 270.424896,359.500702 
z"/>
<path fill="#E3E3E3" opacity="1.000000" stroke="none" 
	d="
M57.734402,126.464943 
	C59.861217,125.678436 61.672333,125.088066 64.143097,124.282677 
	C62.691944,127.444839 61.629688,129.759567 60.567432,132.074295 
	C60.115894,132.179535 59.664360,132.284775 59.212826,132.390015 
	C58.614784,130.480377 58.016747,128.570724 57.734402,126.464943 
z"/>
<path fill="#EEEEEE" opacity="1.000000" stroke="none" 
	d="
M71.639198,145.985992 
	C70.377647,146.221848 68.770744,146.550385 68.545662,146.133255 
	C67.476181,144.151352 66.783112,141.966324 65.731598,139.280350 
	C68.801102,140.768631 71.203758,141.933578 74.082245,143.329224 
	C73.313118,144.189194 72.621841,144.962128 71.639198,145.985992 
z"/>
<path fill="#EEEEEE" opacity="1.000000" stroke="none" 
	d="
M283.750793,375.853363 
	C282.025543,376.399536 280.677826,376.815765 278.551727,377.472412 
	C279.915466,374.478271 280.936279,372.237030 282.346100,369.141693 
	C283.115540,371.859985 288.844696,371.971069 283.750793,375.853363 
z"/>
<path fill="#EEEEEE" opacity="1.000000" stroke="none" 
	d="
M87.362915,131.723175 
	C88.191246,132.753998 88.744057,133.519913 89.571541,134.666367 
	C86.890816,135.665970 84.555817,136.536667 81.394012,137.715668 
	C82.775978,134.616913 83.738579,132.458496 84.878204,129.903137 
	C85.658371,130.452316 86.372871,130.955292 87.362915,131.723175 
z"/>
<path fill="#EEEEEE" opacity="1.000000" stroke="none" 
	d="
M264.007263,379.996613 
	C266.253021,380.971924 268.498810,381.947235 270.729401,382.915955 
	C269.309387,384.519226 267.993622,386.004730 266.230133,387.995819 
	C265.211426,385.144958 264.393219,382.855164 263.808716,380.252258 
	C264.042450,379.939178 264.007263,379.996613 264.007263,379.996613 
z"/>
<path fill="#F1F1F1" opacity="1.000000" stroke="none" 
	d="
M260.167053,366.478455 
	C259.243622,368.518280 258.489990,370.172028 257.420776,372.518219 
	C255.832520,370.864105 254.413849,369.386627 252.995193,367.909119 
	C253.080124,367.426514 253.165054,366.943909 253.249985,366.461273 
	C255.612259,366.338318 257.974518,366.215363 260.167053,366.478455 
z"/>
<path fill="#FEFEFE" opacity="1.000000" stroke="none" 
	d="
M159.371811,145.724762 
	C159.423019,145.953415 159.197647,146.399414 158.779999,146.637375 
	C158.756897,146.266937 158.926071,146.104523 159.371811,145.724762 
z"/>
<path fill="#EEEEEE" opacity="1.000000" stroke="none" 
	d="
M264.058105,379.909363 
	C263.853699,379.896362 263.633636,379.913177 263.413574,379.929993 
	C263.547028,379.828735 263.680511,379.727478 263.910614,379.811401 
	C264.007263,379.996613 264.042450,379.939178 264.058105,379.909363 
z"/>
<path fill="#F2F2F2" opacity="1.000000" stroke="none" 
	d="
M176.073914,133.084305 
	C176.136688,132.710602 176.305008,132.456406 176.473312,132.202209 
	C176.554398,132.492386 176.635498,132.782547 176.554260,133.257156 
	C176.391937,133.441589 176.179459,133.203812 176.073914,133.084305 
z"/>
<path fill="#F6F5EF" opacity="1.000000" stroke="none" 
	d="
M144.103546,51.846016 
	C144.006912,51.901028 143.888367,52.059242 143.785049,52.049854 
	C143.685623,52.040825 143.601959,51.858448 143.511383,51.752239 
	C143.613617,51.737373 143.715851,51.722515 143.937286,51.821327 
	C144.056473,51.934998 144.088318,51.875916 144.103546,51.846016 
z"/>
<path fill="#FEFCFB" opacity="1.000000" stroke="none" 
	d="
M299.951599,459.398804 
	C300.812531,456.100433 300.898315,452.612305 302.661438,450.577667 
	C304.699097,448.226288 308.257538,445.815613 311.075775,445.906494 
	C313.873352,445.996704 317.945618,448.557159 319.065613,451.091797 
	C323.025360,460.053040 322.827240,469.512115 319.220276,478.674225 
	C317.694183,482.550812 314.522705,484.538849 310.187256,484.440430 
	C305.764008,484.340027 302.525177,481.937378 301.737823,477.996704 
	C300.552429,472.063934 300.469482,465.910919 299.951599,459.398804 
z"/>
<path fill="#FEFCFB" opacity="1.000000" stroke="none" 
	d="
M41.359520,23.820404 
	C40.937191,30.001238 41.002415,35.865837 39.830227,41.471691 
	C38.850815,46.155613 35.466846,49.214691 30.066517,49.001144 
	C24.862436,48.795357 21.736135,45.495426 21.204710,41.041618 
	C20.370022,34.046188 20.022604,26.817822 20.840519,19.849089 
	C21.661097,12.857652 25.860804,9.759696 31.304768,10.013486 
	C36.310535,10.246847 39.639904,13.826210 40.941269,20.420792 
	C41.134014,21.397524 41.191231,22.400999 41.359520,23.820404 
z"/>
<path fill="#2C2C2C" opacity="1.000000" stroke="none" 
	d="
M150.808929,97.215164 
	C151.857773,95.765656 152.906082,94.725334 153.954376,93.685013 
	C154.638580,95.646049 155.672791,97.576706 155.846909,99.582039 
	C155.924225,100.472374 154.264771,101.513512 153.393646,102.486198 
	C152.531891,100.865578 151.670151,99.244957 150.808929,97.215164 
z"/>
<path fill="#373737" opacity="1.000000" stroke="none" 
	d="
M189.809052,408.238800 
	C186.478531,406.852081 185.081680,401.847443 187.439941,400.186920 
	C188.260117,399.609406 191.551208,400.830444 191.532898,401.033661 
	C191.317383,403.427063 190.687286,405.783203 189.809052,408.238800 
z"/>
</svg>