<svg version="1.1" id="Layer_1" xmlns="http://www.w3.org/2000/svg" xmlns:xlink="http://www.w3.org/1999/xlink" x="0px" y="0px"
	 width="100%" viewBox="0 0 340 500" enable-background="new 0 0 340 500" xml:space="preserve">
<path fill="#FEFEFE" opacity="1.000000" stroke="none" 
	d="
M341.000000,132.000000 
	C341.000000,255.333328 341.000000,378.166656 341.000000,501.000000 
	C227.666702,501.000000 114.333389,501.000000 1.000063,501.000000 
	C1.000042,334.333374 1.000042,167.666763 1.000021,1.000108 
	C114.333275,1.000072 227.666550,1.000072 340.999908,1.000036 
	C341.000000,44.500000 341.000000,88.000000 341.000000,132.000000 
M72.266319,166.526718 
	C73.712540,165.971176 75.158760,165.415634 76.784698,164.791046 
	C76.784698,177.599960 76.784698,189.714905 76.784698,201.818314 
	C72.075401,203.141525 66.530884,204.239273 66.285858,209.778030 
	C65.864014,219.314087 66.449272,228.924423 67.195190,238.457947 
	C67.348938,240.422989 69.836639,242.456039 71.659279,243.960052 
	C73.100998,245.149719 75.172127,245.576630 76.986031,246.351807 
	C76.986031,273.747101 76.940735,300.903381 77.003891,328.059479 
	C77.038940,343.131317 74.999649,341.860901 90.348457,341.947113 
	C91.832336,341.955414 94.154480,342.847839 94.660194,343.971985 
	C100.594666,357.163574 111.270737,365.325043 123.574722,371.811279 
	C125.717003,372.940643 127.030762,373.901917 127.116417,376.880005 
	C127.522896,391.012482 130.412476,404.553955 138.687408,416.980621 
	C133.096939,421.518616 127.607285,426.049835 122.030045,430.470520 
	C119.220428,432.697540 119.092384,435.063141 121.242775,437.717468 
	C122.394363,439.139008 123.623306,440.499054 124.842567,441.864319 
	C147.677948,467.435364 175.282471,476.451019 208.510529,465.974518 
	C214.180511,464.186859 214.771729,463.130310 213.094620,457.302277 
	C211.486328,451.713379 209.823730,446.139832 208.258759,440.538940 
	C207.868195,439.141205 207.113602,437.347992 207.635727,436.277863 
	C209.974930,431.483429 208.771240,427.651489 206.082657,425.356750 
	C206.451645,420.213379 208.070389,415.665802 206.757980,412.241699 
	C203.910233,404.811829 206.739746,399.401062 210.689972,393.838501 
	C215.230103,387.445312 215.007858,386.599304 207.528473,383.198578 
	C208.652954,381.353119 209.941055,379.654663 210.751495,377.752686 
	C211.234802,376.618378 211.539780,374.436981 210.947098,373.971558 
	C206.839401,370.745911 205.920303,366.404572 206.030731,361.629425 
	C206.145172,356.679779 203.673294,353.856079 199.015991,352.750580 
	C197.212234,352.322418 195.377762,352.023560 193.022110,351.560638 
	C203.085236,343.903290 212.528015,336.553650 222.172882,329.479523 
	C225.047623,327.370972 226.152481,325.076019 226.085678,321.547119 
	C225.886017,311.000397 226.013947,300.447449 226.013947,289.486267 
	C229.395966,293.742310 231.641754,298.659790 235.462021,300.944122 
	C243.614700,305.818970 244.239059,312.792297 243.477768,320.783844 
	C243.367661,321.939728 243.311615,323.138336 243.486694,324.277802 
	C244.726212,332.344391 242.508972,338.737885 235.292969,343.298737 
	C231.711273,345.562561 231.494415,348.793579 235.350616,351.218597 
	C242.343338,355.616119 244.892593,361.789856 243.477875,369.793823 
	C243.363647,370.440033 243.501404,371.126648 243.457840,371.790283 
	C243.212814,375.522858 244.747208,377.415161 248.685928,377.214172 
	C251.677414,377.061462 254.694717,377.015411 257.679474,377.223602 
	C262.132233,377.534149 264.200134,375.813293 263.899811,371.194427 
	C263.678650,367.792511 263.856415,364.364655 263.856415,360.846313 
	C276.201599,363.448090 284.132141,372.241364 285.901215,384.751984 
	C286.571259,389.490295 289.632080,391.051453 292.756073,387.614563 
	C296.703613,383.271667 300.518494,378.425781 302.908783,373.128235 
	C308.118317,361.582520 307.940552,349.082031 306.728882,336.775879 
	C305.654938,325.868439 302.584045,315.481628 293.996490,307.788086 
	C292.586365,306.524750 290.014832,305.211578 288.590210,305.700256 
	C287.244049,306.162048 286.190002,308.883453 285.888367,310.753113 
	C283.994354,322.493347 275.233398,331.799255 264.058289,333.566895 
	C264.058289,321.437866 264.058289,309.314728 264.058289,297.180969 
	C269.249451,295.881073 274.108856,294.240784 274.711639,288.095673 
	C275.203156,283.084930 275.583771,278.012177 275.354279,272.997040 
	C275.147736,268.483124 274.933319,263.586884 273.057983,259.652649 
	C271.546600,256.481964 267.551300,254.495285 263.788971,251.228790 
	C264.009033,252.307190 263.884979,251.982605 263.884766,251.657959 
	C263.869080,224.497818 263.855347,197.337662 263.859467,170.177521 
	C263.861603,156.062622 265.148773,157.071075 251.137085,157.141464 
	C250.304001,157.145645 249.393524,157.351746 248.656998,157.084198 
	C247.702316,156.737381 246.420349,156.208969 246.079880,155.415283 
	C240.294052,141.927612 229.316315,133.873398 217.050293,126.989738 
	C215.452332,126.092957 213.902603,123.646797 213.778366,121.819839 
	C212.821609,107.749855 210.144821,94.241478 201.998444,82.058426 
	C207.650375,77.480515 213.049866,73.067352 218.496231,68.712807 
	C221.130966,66.606270 221.892975,64.396423 219.552429,61.526226 
	C195.967682,32.604523 166.864838,21.838629 131.392090,33.284756 
	C127.046127,34.687084 126.001961,37.082031 127.253716,41.153435 
	C128.912857,46.549873 130.503693,51.969059 132.005615,57.411118 
	C132.522812,59.285088 133.492661,61.590851 132.859482,63.121956 
	C130.903244,67.852448 132.007080,71.479340 134.630630,73.672234 
	C134.236816,78.676155 132.602631,83.192467 133.874069,86.635941 
	C136.600708,94.020584 134.001144,99.516037 130.059753,105.137077 
	C125.548393,111.571007 125.700394,112.155212 133.020523,116.117554 
	C131.656494,118.333755 129.425278,120.439674 129.256836,122.699379 
	C129.114639,124.606888 131.755997,126.564842 132.465012,128.729828 
	C133.516327,131.940018 134.115585,135.328674 134.602264,138.685593 
	C135.204483,142.839569 137.435638,145.301041 141.452377,146.230759 
	C143.276581,146.653000 145.115555,147.011459 147.585938,147.533768 
	C137.652298,155.098175 128.377487,162.370773 118.849312,169.294693 
	C115.804405,171.507370 114.640594,173.831696 114.728882,177.572083 
	C114.977524,188.107071 114.815704,198.651749 114.815704,209.525742 
	C111.045792,204.986252 108.402969,199.773087 104.159195,197.152313 
	C97.148079,192.822525 96.157021,187.105972 97.003563,180.062515 
	C97.082527,179.405502 97.082329,178.722610 97.003822,178.065475 
	C95.887451,168.721283 96.911537,160.380981 106.186989,155.013657 
	C108.947350,153.416351 108.837952,150.664368 106.085556,148.450287 
	C104.142593,146.887329 102.455116,144.987534 100.434303,143.545395 
	C97.738083,141.621246 96.921417,139.262085 96.932053,135.954300 
	C96.984261,119.721107 99.141647,121.986450 82.553566,121.815445 
	C82.386955,121.813728 82.219826,121.824112 82.053757,121.814598 
	C78.491531,121.610695 76.848785,123.238434 76.960411,126.853287 
	C77.076553,130.614044 76.986298,134.381180 76.986298,138.223038 
	C64.975792,135.914703 56.199883,126.439148 54.867718,115.118118 
	C54.663544,113.382988 53.690971,110.956917 52.383701,110.358887 
	C51.146030,109.792702 48.338749,110.669685 47.374531,111.852043 
	C43.952950,116.047691 40.216602,120.288589 38.065639,125.159752 
	C32.460442,137.853546 32.449284,151.400055 34.272514,164.872208 
	C35.702942,175.441833 39.151493,185.300659 47.885437,192.350403 
	C51.331680,195.132111 54.507534,193.974564 54.825970,189.745712 
	C55.666550,178.582703 61.798061,171.430771 72.266319,166.526718 
M325.111969,205.499985 
	C325.111969,260.604095 325.111969,315.708191 325.111969,370.870911 
	C327.171814,370.870911 328.645844,370.870911 330.586243,370.870911 
	C330.586243,369.239441 330.586243,367.770538 330.586243,366.301605 
	C330.586273,250.147690 330.587616,133.993790 330.582886,17.839876 
	C330.582611,11.394466 330.149109,10.965445 323.791687,10.964352 
	C293.295044,10.959106 262.798370,10.961962 232.301727,10.961976 
	C182.973816,10.962000 133.645905,10.960246 84.317986,10.972028 
	C83.025917,10.972337 81.733879,11.120312 80.380707,11.203165 
	C80.380707,12.880795 80.380707,14.273054 80.380707,16.128717 
	C162.043335,16.128717 243.444778,16.128717 325.111969,16.128717 
	C325.111969,79.230858 325.111969,141.865417 325.111969,205.499985 
M15.586426,426.500183 
	C15.586426,328.080933 15.586426,229.661682 15.586426,130.875381 
	C13.406017,131.035065 11.853538,131.148758 10.111979,131.276291 
	C10.111979,132.689438 10.111979,133.673874 10.111979,134.658295 
	C10.111858,251.302277 10.109954,367.946259 10.116845,484.590240 
	C10.117191,490.437195 10.757038,491.035095 16.840754,491.035431 
	C96.658569,491.039581 176.476379,491.037903 256.294189,491.037781 
	C257.580017,491.037781 258.865845,491.037842 260.319275,491.037842 
	C260.319275,489.152985 260.319275,487.752319 260.319275,485.895782 
	C178.655701,485.895782 97.249870,485.895782 15.586317,485.895782 
	C15.586317,466.126251 15.586317,446.813232 15.586426,426.500183 
M257.147461,79.342094 
	C263.359894,86.375046 269.572296,93.407997 275.836853,100.499939 
	C284.729706,86.704376 296.445648,75.380280 310.505127,65.929092 
	C296.044128,56.460678 284.660034,44.953960 275.326172,30.760813 
	C266.052765,44.943699 254.529572,56.491863 240.509369,65.684296 
	C246.150269,70.314453 251.375504,74.603416 257.147461,79.342094 
M57.731030,411.211273 
	C48.987938,419.712708 40.244846,428.214142 31.326912,436.885590 
	C44.705086,445.432495 55.962475,457.216095 65.413887,471.171112 
	C74.724098,456.790222 86.396957,445.413177 100.516678,435.949341 
	C86.078468,426.505157 74.695442,414.999969 65.468918,400.982635 
	C62.939949,404.321106 60.547424,407.479462 57.731030,411.211273 
M304.329010,417.198944 
	C306.309082,419.611572 308.289185,422.024200 310.269257,424.436798 
	C309.777557,423.820587 309.285858,423.204376 308.794159,422.588135 
	C314.480865,416.943726 320.167542,411.299286 323.990936,407.504333 
	C319.958710,403.402588 314.311768,397.658295 310.037262,393.310120 
	C305.997223,397.244141 300.153259,402.934784 294.559753,408.381561 
	C296.935211,410.511871 300.381409,413.602448 304.329010,417.198944 
M20.400631,9.922701 
	C26.118877,10.601347 26.399611,14.382840 26.217098,19.096087 
	C25.882998,27.723993 26.062391,36.374645 26.143320,45.014729 
	C26.194929,50.524765 24.521130,55.200977 19.867540,58.376869 
	C17.175505,60.214077 17.290537,61.784939 19.521551,63.670719 
	C31.394152,59.372551 34.538204,54.947495 34.587654,42.522942 
	C34.622044,33.882236 34.616482,25.241203 34.583450,16.600491 
	C34.572880,13.835524 34.435551,11.249414 38.284092,10.736628 
	C39.070442,10.631853 39.599117,8.593151 40.610661,6.800801 
	C33.902008,6.800801 28.430500,6.690146 22.971760,6.904581 
	C22.008881,6.942406 21.099363,8.338660 20.400631,9.922701 
M17.033474,90.452049 
	C22.030573,94.537682 27.027672,98.623322 30.431423,101.406235 
	C34.639568,97.100960 40.240654,91.370598 44.154594,87.366325 
	C40.058510,83.296692 34.345173,77.620247 30.028481,73.331429 
	C25.997850,77.252441 20.152624,82.938705 14.414094,88.521172 
	C14.334928,88.463844 15.406139,89.239548 17.033474,90.452049 
M314.178711,458.554382 
	C314.178711,458.388275 314.176331,458.222107 314.179077,458.056030 
	C314.319855,449.484222 313.103943,440.480347 322.150909,434.874207 
	C322.695892,434.536499 322.049988,432.277008 321.946747,430.741364 
	C309.958374,434.615662 306.257782,439.309174 306.029846,450.811310 
	C305.852173,459.778015 305.913788,468.751953 306.029175,477.720612 
	C306.068207,480.757202 306.044312,483.339844 302.153748,483.913879 
	C301.498688,484.010498 300.779724,485.453339 300.632965,486.361786 
	C300.572235,486.737823 301.931152,487.764679 302.659424,487.779846 
	C308.397797,487.899750 314.139832,487.846405 319.880737,487.846405 
	C320.124817,487.399567 320.368866,486.952759 320.612915,486.505920 
	C319.731110,485.552887 318.955383,483.926300 317.948456,483.767731 
	C314.305145,483.193878 314.086426,480.896362 314.143921,477.977203 
	C314.264893,471.833374 314.179443,465.685455 314.178711,458.554382 
z"/>
<path fill="#272625" opacity="1.000000" stroke="none" 
	d="
M71.927010,166.713242 
	C61.798061,171.430771 55.666550,178.582703 54.825970,189.745712 
	C54.507534,193.974564 51.331680,195.132111 47.885437,192.350403 
	C39.151493,185.300659 35.702942,175.441833 34.272514,164.872208 
	C32.449284,151.400055 32.460442,137.853546 38.065639,125.159752 
	C40.216602,120.288589 43.952950,116.047691 47.374531,111.852043 
	C48.338749,110.669685 51.146030,109.792702 52.383701,110.358887 
	C53.690971,110.956917 54.663544,113.382988 54.867718,115.118118 
	C56.199883,126.439148 64.975792,135.914703 76.986298,138.223038 
	C76.986298,134.381180 77.076553,130.614044 76.960411,126.853287 
	C76.848785,123.238434 78.491531,121.610695 82.053757,121.814598 
	C82.219826,121.824112 82.386955,121.813728 82.553566,121.815445 
	C99.141647,121.986450 96.984261,119.721107 96.932053,135.954300 
	C96.921417,139.262085 97.738083,141.621246 100.434303,143.545395 
	C102.455116,144.987534 104.142593,146.887329 106.085556,148.450287 
	C108.837952,150.664368 108.947350,153.416351 106.186989,155.013657 
	C96.911537,160.380981 95.887451,168.721283 97.003822,178.065475 
	C97.082329,178.722610 97.082527,179.405502 97.003563,180.062515 
	C96.157021,187.105972 97.148079,192.822525 104.159195,197.152313 
	C108.402969,199.773087 111.045792,204.986252 114.815704,209.525742 
	C114.815704,198.651749 114.977524,188.107071 114.728882,177.572083 
	C114.640594,173.831696 115.804405,171.507370 118.849312,169.294693 
	C128.377487,162.370773 137.652298,155.098175 147.585938,147.533768 
	C145.115555,147.011459 143.276581,146.653000 141.452377,146.230759 
	C137.435638,145.301041 135.204483,142.839569 134.602264,138.685593 
	C134.115585,135.328674 133.516327,131.940018 132.465012,128.729828 
	C131.755997,126.564842 129.114639,124.606888 129.256836,122.699379 
	C129.425278,120.439674 131.656494,118.333755 133.020523,116.117554 
	C125.700394,112.155212 125.548393,111.571007 130.059753,105.137077 
	C134.001144,99.516037 136.600708,94.020584 133.874069,86.635941 
	C132.602631,83.192467 134.236816,78.676155 134.630630,73.672234 
	C132.007080,71.479340 130.903244,67.852448 132.859482,63.121956 
	C133.492661,61.590851 132.522812,59.285088 132.005615,57.411118 
	C130.503693,51.969059 128.912857,46.549873 127.253716,41.153435 
	C126.001961,37.082031 127.046127,34.687084 131.392090,33.284756 
	C166.864838,21.838629 195.967682,32.604523 219.552429,61.526226 
	C221.892975,64.396423 221.130966,66.606270 218.496231,68.712807 
	C213.049866,73.067352 207.650375,77.480515 201.998444,82.058426 
	C210.144821,94.241478 212.821609,107.749855 213.778366,121.819839 
	C213.902603,123.646797 215.452332,126.092957 217.050293,126.989738 
	C229.316315,133.873398 240.294052,141.927612 246.079880,155.415283 
	C246.420349,156.208969 247.702316,156.737381 248.656998,157.084198 
	C249.393524,157.351746 250.304001,157.145645 251.137085,157.141464 
	C265.148773,157.071075 263.861603,156.062622 263.859467,170.177521 
	C263.855347,197.337662 263.869080,224.497818 263.884766,251.657959 
	C263.884979,251.982605 264.009033,252.307190 263.788971,251.228790 
	C267.551300,254.495285 271.546600,256.481964 273.057983,259.652649 
	C274.933319,263.586884 275.147736,268.483124 275.354279,272.997040 
	C275.583771,278.012177 275.203156,283.084930 274.711639,288.095673 
	C274.108856,294.240784 269.249451,295.881073 264.058289,297.180969 
	C264.058289,309.314728 264.058289,321.437866 264.058289,333.566895 
	C275.233398,331.799255 283.994354,322.493347 285.888367,310.753113 
	C286.190002,308.883453 287.244049,306.162048 288.590210,305.700256 
	C290.014832,305.211578 292.586365,306.524750 293.996490,307.788086 
	C302.584045,315.481628 305.654938,325.868439 306.728882,336.775879 
	C307.940552,349.082031 308.118317,361.582520 302.908783,373.128235 
	C300.518494,378.425781 296.703613,383.271667 292.756073,387.614563 
	C289.632080,391.051453 286.571259,389.490295 285.901215,384.751984 
	C284.132141,372.241364 276.201599,363.448090 263.856415,360.846313 
	C263.856415,364.364655 263.678650,367.792511 263.899811,371.194427 
	C264.200134,375.813293 262.132233,377.534149 257.679474,377.223602 
	C254.694717,377.015411 251.677414,377.061462 248.685928,377.214172 
	C244.747208,377.415161 243.212814,375.522858 243.457840,371.790283 
	C243.501404,371.126648 243.363647,370.440033 243.477875,369.793823 
	C244.892593,361.789856 242.343338,355.616119 235.350616,351.218597 
	C231.494415,348.793579 231.711273,345.562561 235.292969,343.298737 
	C242.508972,338.737885 244.726212,332.344391 243.486694,324.277802 
	C243.311615,323.138336 243.367661,321.939728 243.477768,320.783844 
	C244.239059,312.792297 243.614700,305.818970 235.462021,300.944122 
	C231.641754,298.659790 229.395966,293.742310 226.013947,289.486267 
	C226.013947,300.447449 225.886017,311.000397 226.085678,321.547119 
	C226.152481,325.076019 225.047623,327.370972 222.172882,329.479523 
	C212.528015,336.553650 203.085236,343.903290 193.022110,351.560638 
	C195.377762,352.023560 197.212234,352.322418 199.015991,352.750580 
	C203.673294,353.856079 206.145172,356.679779 206.030731,361.629425 
	C205.920303,366.404572 206.839401,370.745911 210.947098,373.971558 
	C211.539780,374.436981 211.234802,376.618378 210.751495,377.752686 
	C209.941055,379.654663 208.652954,381.353119 207.528473,383.198578 
	C215.007858,386.599304 215.230103,387.445312 210.689972,393.838501 
	C206.739746,399.401062 203.910233,404.811829 206.757980,412.241699 
	C208.070389,415.665802 206.451645,420.213379 206.082657,425.356750 
	C208.771240,427.651489 209.974930,431.483429 207.635727,436.277863 
	C207.113602,437.347992 207.868195,439.141205 208.258759,440.538940 
	C209.823730,446.139832 211.486328,451.713379 213.094620,457.302277 
	C214.771729,463.130310 214.180511,464.186859 208.510529,465.974518 
	C175.282471,476.451019 147.677948,467.435364 124.842567,441.864319 
	C123.623306,440.499054 122.394363,439.139008 121.242775,437.717468 
	C119.092384,435.063141 119.220428,432.697540 122.030045,430.470520 
	C127.607285,426.049835 133.096939,421.518616 138.687408,416.980621 
	C130.412476,404.553955 127.522896,391.012482 127.116417,376.880005 
	C127.030762,373.901917 125.717003,372.940643 123.574722,371.811279 
	C111.270737,365.325043 100.594666,357.163574 94.660194,343.971985 
	C94.154480,342.847839 91.832336,341.955414 90.348457,341.947113 
	C74.999649,341.860901 77.038940,343.131317 77.003891,328.059479 
	C76.940735,300.903381 76.986031,273.747101 76.986031,246.351807 
	C75.172127,245.576630 73.100998,245.149719 71.659279,243.960052 
	C69.836639,242.456039 67.348938,240.422989 67.195190,238.457947 
	C66.449272,228.924423 65.864014,219.314087 66.285858,209.778030 
	C66.530884,204.239273 72.075401,203.141525 76.784698,201.818314 
	C76.784698,189.714905 76.784698,177.599960 76.784698,164.791046 
	C75.158760,165.415634 73.712540,165.971176 71.927010,166.713242 
M184.014236,78.977211 
	C184.014236,78.977211 184.087128,78.985313 184.132751,78.328468 
	C183.680038,77.866966 183.227325,77.405464 182.365982,76.501930 
	C181.314682,75.596184 180.263367,74.690437 178.944199,73.239204 
	C178.663696,73.249451 178.383209,73.259697 178.102707,73.269936 
	C178.260773,73.650658 178.418839,74.031372 178.845505,75.047180 
	C190.910141,96.227875 194.758163,118.689636 189.474060,142.611816 
	C189.408630,142.908035 190.492493,143.458115 191.594452,143.877182 
	C191.748322,143.592926 191.902191,143.308670 191.999191,143.012711 
	C191.999191,143.012711 192.023758,143.065491 192.742493,143.172714 
	C197.587158,140.672882 198.852463,136.209686 198.504990,131.377014 
	C197.862030,122.435295 197.349548,113.418831 195.715408,104.632011 
	C194.061264,95.737762 191.748322,86.803696 184.992859,80.019981 
	C184.992859,80.019981 185.031494,80.018822 185.023422,79.423935 
	C184.698318,79.253342 184.373199,79.082748 184.014236,78.977211 
M163.959335,146.737595 
	C164.340652,146.808151 164.721970,146.878708 165.732315,147.308609 
	C168.069809,150.577866 171.434067,150.957428 174.525085,149.314743 
	C177.644791,147.656830 180.673416,145.393661 182.978012,142.733765 
	C186.795517,138.327713 186.844452,132.734024 186.605850,127.139008 
	C185.965652,112.127922 184.720276,97.233414 177.754196,83.553978 
	C170.581299,69.468422 158.742996,63.283264 143.151566,63.749287 
	C140.077866,63.841152 138.064697,64.934639 138.016388,68.694519 
	C139.409866,69.074478 140.794922,69.750809 142.196838,69.787804 
	C155.003922,70.125763 165.660339,74.546745 172.297211,85.984116 
	C179.062195,103.459152 179.757538,121.556625 177.933624,139.933105 
	C177.933624,139.933105 177.914200,139.829483 177.312958,139.381393 
	C176.907104,139.932739 176.501251,140.484085 175.625565,141.644791 
	C174.397293,142.072296 173.060089,143.036179 171.963837,142.813553 
	C169.805923,142.375381 166.341965,141.675339 165.983917,140.376419 
	C165.068283,137.054703 168.407059,138.249008 170.193481,137.559692 
	C171.475662,137.064941 172.725708,135.181671 172.933731,133.762939 
	C173.036636,133.061127 170.802826,131.381622 169.538376,131.284103 
	C168.134537,131.175842 166.630508,132.366608 164.406433,132.880295 
	C159.593491,137.699173 159.449356,141.700104 163.999390,146.000610 
	C163.999390,146.000610 163.930511,146.067932 163.959335,146.737595 
M176.997299,365.010742 
	C176.997299,365.010742 177.055573,365.059814 177.771378,364.881592 
	C181.005447,359.613586 180.825439,356.992004 176.678802,353.101349 
	C171.626617,348.243530 167.944489,347.667908 162.605835,351.312317 
	C157.353699,354.897614 154.196564,360.001678 154.075806,366.379547 
	C153.819626,379.909515 155.050323,393.315155 159.069717,406.322876 
	C165.060760,425.711243 178.608597,436.138062 197.050522,435.314362 
	C198.824005,435.235107 200.509430,433.184235 202.235718,432.048615 
	C200.598236,431.087311 199.020844,429.991486 197.297668,429.222046 
	C196.448059,428.842682 195.329681,429.048187 194.332031,429.020020 
	C185.012894,428.756714 177.256668,425.216583 171.014267,417.318085 
	C164.372284,406.627869 162.500580,394.648071 162.307312,382.436462 
	C162.182800,374.570618 163.253372,366.685822 164.247635,358.228149 
	C167.138977,357.594238 170.011612,356.777069 172.937180,356.478363 
	C173.534805,356.417328 174.920914,358.342224 174.857697,359.278351 
	C174.802673,360.093201 173.313049,361.006714 172.279053,361.511139 
	C170.941147,362.163818 169.022171,362.074860 168.126724,363.030151 
	C167.509537,363.688568 167.689148,366.221344 168.407867,366.795166 
	C170.646317,368.582245 173.197327,368.956757 175.766312,366.032379 
	C176.192719,365.712036 176.619141,365.391663 176.997299,365.010742 
M205.146881,140.709641 
	C201.416901,143.433090 197.686920,146.156525 193.202118,148.980469 
	C191.467865,149.329727 189.733612,149.679001 187.197083,149.877762 
	C184.706940,150.903427 181.902435,151.493820 179.779083,153.027344 
	C168.382278,161.258179 157.155045,169.723831 145.869263,178.108398 
	C146.009247,178.391617 146.149246,178.674820 146.289246,178.958038 
	C147.543900,178.892212 148.798553,178.826385 150.883896,178.853821 
	C167.414948,177.512161 183.391815,173.880310 198.365036,166.630630 
	C210.424454,160.791718 221.336258,153.389893 229.145599,141.699783 
	C227.777817,140.588684 226.713242,139.547363 225.485031,138.761948 
	C222.694824,136.977646 219.824158,135.319168 216.483261,133.128464 
	C215.400040,132.546082 214.316818,131.963699 213.856216,131.716064 
	C210.921585,134.911896 208.379837,137.679871 205.146881,140.709641 
M258.552826,297.995850 
	C258.576691,294.839081 258.426178,291.665314 258.730682,288.535858 
	C258.821991,287.597504 260.154327,286.123749 260.969391,286.088745 
	C261.860504,286.050385 263.053528,287.238831 263.662231,288.184174 
	C264.189972,289.003723 264.084808,290.230804 264.467102,292.523560 
	C266.525757,290.618286 267.855499,289.387604 269.185211,288.156952 
	C267.604187,286.979706 266.175629,285.230927 264.406433,284.758972 
	C261.743164,284.048370 258.841644,284.230865 255.434586,283.780914 
	C254.407791,282.907867 253.380997,282.034851 252.184769,281.017731 
	C253.816574,279.872009 254.977005,279.057220 256.995300,278.498291 
	C261.273987,279.030853 265.552673,279.563446 270.735901,280.208588 
	C266.575531,274.259796 261.123322,275.183716 255.416077,274.810059 
	C254.391037,273.932953 253.365997,273.055847 252.160446,272.024323 
	C253.814880,270.880829 254.982513,270.073792 256.980347,269.591522 
	C260.939575,269.995117 264.898804,270.398743 270.293213,270.948639 
	C265.519348,266.288574 260.726410,266.527924 255.403702,265.991760 
	C254.223831,265.395233 253.043961,264.798737 251.096909,263.814331 
	C253.287598,262.464142 254.737732,261.570404 257.003998,260.912628 
	C260.654266,261.372284 264.304565,261.831970 267.954834,262.291626 
	C264.974640,257.751923 260.558960,257.755890 255.436600,257.736359 
	C254.323029,256.725006 253.209473,255.713669 252.053864,254.664139 
	C253.819382,253.535507 254.906479,252.840561 256.937561,252.350830 
	C257.460510,251.308533 258.437103,250.267609 258.440247,249.223740 
	C258.523987,221.418304 258.533325,193.612473 258.402130,165.807419 
	C258.397461,164.818085 256.833008,163.836105 255.091599,162.630463 
	C253.157837,162.630463 251.224091,162.630463 249.088486,162.630463 
	C248.993378,164.310242 248.872818,165.449295 248.872513,166.588364 
	C248.862366,204.531876 249.044830,242.477036 248.696686,280.417358 
	C248.633881,287.261505 250.308334,292.310150 256.220337,296.665192 
	C257.009827,297.407745 257.799316,298.150299 258.333618,299.114502 
	C258.333618,299.114502 258.464233,299.330383 258.464233,299.330383 
	C258.464233,299.330383 258.479889,298.909821 258.552826,297.995850 
M140.705658,409.750122 
	C141.137726,410.351105 141.569794,410.952057 142.276840,412.119232 
	C143.627213,414.047577 144.977585,415.975891 146.327957,417.904205 
	C138.591690,400.792908 137.245255,382.703674 136.827377,363.423431 
	C135.657761,364.949402 135.194580,365.553741 134.168472,366.539490 
	C130.551270,372.497620 132.229904,378.869446 133.054153,385.028503 
	C134.184540,393.475220 135.314621,402.040741 140.994049,409.022308 
	C140.994049,409.022308 140.917389,409.019287 140.705658,409.750122 
M199.701706,90.080299 
	C198.106583,87.329308 196.511459,84.578308 194.916321,81.827316 
	C194.479553,82.025284 194.042786,82.223259 193.606018,82.421227 
	C202.244186,98.746582 203.208221,116.565018 203.945389,135.217346 
	C205.016556,133.909866 205.593353,133.205811 206.677307,132.119141 
	C207.315582,129.759155 208.734360,127.301849 208.454330,125.056396 
	C207.358124,116.266113 205.952713,107.495872 204.163727,98.820992 
	C203.569916,95.941566 201.478104,93.371063 199.701706,90.080299 
M188.999405,320.992767 
	C188.999405,320.992767 188.991882,320.939758 188.160461,320.512146 
	C158.205521,323.420166 131.219391,332.426392 110.883965,357.532379 
	C115.791740,360.633301 119.841042,363.191772 124.351616,366.095551 
	C125.444733,366.642548 126.537842,367.189575 127.605515,367.723846 
	C131.197205,358.674683 140.775589,356.595093 147.014206,350.094513 
	C148.938324,349.717377 150.862442,349.340240 153.611740,349.146149 
	C155.250656,348.652771 157.176086,348.553955 158.483704,347.604370 
	C170.237427,339.068878 181.886261,330.388824 193.545258,321.723480 
	C193.964218,321.412079 194.169647,320.813354 194.758926,319.915161 
	C193.061783,320.108948 191.931412,320.238007 190.231796,320.206818 
	C189.805267,320.460388 189.378738,320.713959 188.999405,320.992767 
M155.700027,419.662598 
	C156.126617,420.159821 156.553223,420.657043 157.296478,421.792999 
	C158.082047,422.207520 158.867599,422.622070 160.390686,423.425812 
	C159.946991,421.887329 159.838165,421.107941 159.511124,420.434448 
	C149.708588,400.247528 146.502396,379.184113 150.904633,357.056427 
	C150.982849,356.663239 149.664444,355.992188 148.252441,355.682922 
	C148.143341,356.106506 148.034225,356.530060 147.904068,356.877991 
	C147.904068,356.877991 147.829712,356.852722 147.158905,356.442200 
	C145.494003,359.328735 142.461456,362.183167 142.392776,365.107208 
	C142.028458,380.615875 143.422821,395.998962 149.984207,410.365417 
	C151.429260,413.529419 153.916397,416.217499 155.974731,419.064880 
	C155.974731,419.064880 155.907837,419.023499 155.700027,419.662598 
M141.103027,449.858551 
	C141.965652,450.450226 142.828278,451.041931 143.922043,451.792145 
	C148.145279,444.425598 152.132111,437.471375 156.076202,430.591736 
	C151.710876,427.848145 147.866562,425.246979 143.815170,423.022980 
	C142.867462,422.502747 141.217972,423.260925 139.235794,423.720306 
	C134.748901,427.280853 130.262024,430.841431 125.060280,434.969269 
	C130.721191,440.121796 135.715622,444.667694 141.103027,449.858551 
M201.310974,75.255394 
	C205.835602,71.751923 210.360214,68.248451 215.682358,64.127441 
	C210.052856,59.005665 205.042542,54.447227 199.674072,49.266136 
	C198.268127,48.062183 197.047562,46.544273 195.509827,49.347874 
	C192.009094,55.730431 188.296585,61.996838 184.626434,68.386536 
	C189.013123,71.210762 193.121780,73.996559 197.412460,76.466064 
	C198.052444,76.834404 199.547989,75.716217 201.310974,75.255394 
M203.789230,461.067352 
	C205.172958,460.939026 206.556671,460.810699 208.527679,460.627930 
	C206.487808,453.525726 204.638016,447.085327 202.679337,440.265808 
	C201.013504,440.558197 199.607483,440.804962 197.250565,440.942017 
	C193.349014,440.942017 189.447464,440.942017 185.405792,440.942017 
	C184.751587,449.344025 184.156403,456.987793 183.435410,466.247467 
	C190.576706,464.283386 196.760941,462.582520 203.789230,461.067352 
M136.299194,37.960102 
	C133.820862,37.798115 131.938339,38.091030 132.956055,41.427853 
	C134.677994,47.073696 136.269913,52.759193 137.996918,58.704918 
	C139.640289,58.486893 141.051620,58.299652 143.194809,58.359573 
	C147.057846,58.611835 150.920883,58.864098 155.076096,59.135441 
	C155.803726,50.626282 156.457291,42.983269 157.239227,33.838997 
	C149.708145,35.452179 143.445709,36.793613 136.299194,37.960102 
M83.862892,127.038231 
	C83.236275,128.383850 82.077980,129.724396 82.065048,131.075882 
	C81.931450,145.040771 81.982750,159.007431 81.982643,172.973587 
	C81.982597,179.581787 81.982635,186.189987 81.982635,194.145706 
	C83.505081,192.256241 84.218765,191.370499 85.797218,190.177628 
	C87.729126,189.987045 89.661041,189.796463 91.987770,189.566925 
	C91.987770,183.536835 92.430626,177.561859 91.877968,171.680420 
	C91.153923,163.974991 92.728554,157.694626 99.800705,153.565094 
	C100.432388,153.196228 100.792946,152.363037 101.809425,151.072723 
	C90.487167,146.446289 91.301979,136.645859 91.842598,127.180328 
	C88.980782,127.180328 86.836617,127.180328 83.862892,127.038231 
M256.880188,372.022522 
	C257.476868,371.269714 258.591461,370.519165 258.594788,369.763733 
	C258.688751,348.625916 258.670227,327.487579 258.670227,306.349335 
	C258.295166,306.075165 257.920135,305.801025 257.545074,305.526886 
	C256.982330,306.490204 256.419586,307.453552 255.033539,308.791229 
	C253.001999,309.060974 250.970459,309.330719 248.861099,309.610809 
	C248.861099,314.404480 248.463623,318.919586 248.942749,323.339691 
	C249.982758,332.934021 248.679047,341.374359 239.578873,346.831329 
	C239.466690,346.898590 239.452362,347.129089 239.102585,348.028687 
	C250.210724,352.375824 249.539001,362.256470 248.829224,371.875946 
	C251.766083,371.875946 253.913879,371.875946 256.880188,372.022522 
M173.836639,437.932556 
	C170.472931,436.725952 167.152878,435.364227 163.721329,434.398804 
	C162.555176,434.070709 160.363617,434.283722 159.906021,435.027740 
	C155.948441,441.462463 152.279785,448.074860 148.341980,454.954132 
	C156.449829,459.889038 164.386307,463.280945 173.991196,464.275909 
	C175.219727,464.467224 176.448273,464.658569 177.893829,464.883698 
	C178.688309,456.001617 179.445541,447.535858 180.235611,438.703003 
	C178.056076,438.415009 176.302551,438.183319 173.836639,437.932556 
M166.510788,34.724495 
	C165.429474,34.559990 164.348160,34.395485 162.728882,34.149136 
	C162.060318,42.337521 161.387573,50.163731 160.797562,57.996178 
	C160.542877,61.377239 162.941025,61.041912 165.782974,61.280636 
	C169.332367,62.464794 172.820160,63.957233 176.460815,64.684631 
	C177.962265,64.984619 180.578110,64.146034 181.340012,62.959980 
	C185.168259,57.000374 188.551086,50.754642 192.283722,44.273682 
	C184.455658,39.044926 176.294785,35.849258 166.510788,34.724495 
M85.284340,241.353195 
	C88.989655,243.509720 88.906143,245.340347 83.938873,246.601608 
	C83.287254,247.788452 82.120346,248.955170 82.073021,250.165634 
	C81.865852,255.464844 81.982658,260.776733 81.982719,266.084045 
	C81.982956,288.142517 81.955063,310.201111 82.040794,332.259247 
	C82.047272,333.924500 80.602943,337.235962 85.530235,336.479919 
	C87.616043,336.479919 89.701859,336.479919 91.996902,336.479919 
	C91.996902,334.499878 91.996895,333.176941 91.996902,331.854004 
	C91.996902,294.220642 91.800812,256.585327 92.174965,218.955704 
	C92.243530,212.059128 90.419609,207.093826 84.640076,202.793121 
	C83.920723,201.736679 83.201363,200.680222 81.966179,198.866226 
	C81.966179,203.431320 82.120010,206.918411 81.869385,210.376190 
	C81.797249,211.371338 80.559273,212.281967 79.855812,213.231339 
	C78.916428,212.359818 77.781769,211.614792 77.106415,210.572250 
	C76.657349,209.879028 76.864388,208.760773 76.663200,206.605667 
	C74.419075,208.399902 72.882790,209.628189 71.346504,210.856476 
	C72.934669,212.047302 74.367851,213.815735 76.147415,214.293213 
	C78.798767,215.004578 81.694580,214.804810 85.125610,215.259354 
	C89.351349,217.535187 89.339592,217.688919 83.865379,220.531769 
	C79.562057,220.037827 75.258743,219.543900 70.955421,219.049973 
	C74.355865,224.470886 79.596268,224.071411 85.436768,224.279816 
	C90.636589,226.885361 87.077553,228.240189 83.834976,229.501251 
	C79.637886,229.009491 75.440788,228.517715 70.257408,227.910385 
	C74.621452,232.758957 79.684433,232.621445 85.367561,233.089539 
	C86.228722,233.908676 87.089882,234.727798 87.951042,235.546921 
	C86.813889,236.481949 85.676735,237.416977 83.760628,238.178543 
	C79.964890,237.663040 76.169144,237.147552 71.352257,236.493362 
	C75.459534,241.407410 80.028976,241.289093 85.284340,241.353195 
M194.649399,199.009430 
	C192.709869,199.422333 190.770355,199.835236 188.268173,200.367905 
	C198.317062,211.816895 204.096893,224.386856 205.326614,238.609543 
	C205.825760,244.382523 207.837341,248.080780 212.346375,251.530823 
	C215.509506,253.951065 217.649033,257.830780 219.898010,261.285065 
	C221.647232,263.971771 222.860031,267.007782 224.475174,270.214020 
	C225.614502,268.901917 226.469330,267.917480 227.879181,266.634216 
	C232.241302,262.280457 236.691559,258.009399 240.907211,253.518143 
	C242.047119,252.303726 243.129501,250.424515 243.134521,248.846939 
	C243.213394,224.028809 243.111618,199.210083 243.200653,173.797455 
	C243.200653,172.483215 243.200653,171.168976 243.200653,169.021149 
	C233.849365,179.540802 223.432709,186.894531 211.469360,192.090088 
	C211.194016,192.209656 211.148743,192.858963 210.438751,193.681229 
	C205.406830,195.518890 200.374893,197.356552 194.649399,199.009430 
M146.098877,300.407257 
	C148.050842,299.854584 150.002808,299.301941 152.335007,298.641632 
	C143.748032,288.785217 137.814255,278.039246 136.202530,265.640594 
	C135.136078,257.436676 133.790848,250.179428 126.159805,245.297714 
	C123.836296,243.811325 122.440086,240.706268 120.933563,238.156784 
	C119.234726,235.281876 117.890587,232.197388 116.181351,228.782913 
	C114.921967,230.319580 113.992546,231.453629 112.450401,232.944382 
	C108.078117,237.285370 103.620255,241.545486 99.390068,246.020798 
	C98.245987,247.231186 97.122398,249.092194 97.120102,250.656204 
	C97.083641,275.464783 97.231506,300.273621 97.191956,325.811218 
	C97.191956,327.005585 97.191956,328.199982 97.191956,330.556122 
	C106.567856,319.483917 117.378242,312.314880 129.353928,306.762970 
	C130.019836,306.454224 130.470169,305.680450 131.718536,304.875458 
	C136.327972,303.495453 140.937393,302.115448 146.098877,300.407257 
M145.739883,250.208832 
	C152.806259,252.284836 159.553101,250.368134 166.082031,248.088882 
	C176.984268,244.282913 187.827515,240.799728 199.866455,244.207962 
	C200.007889,242.690353 200.413177,241.515701 200.163971,240.501923 
	C198.507004,233.761200 197.668167,226.608444 194.784210,220.418564 
	C184.943329,199.297089 168.466614,186.744400 144.013489,184.227951 
	C142.769485,184.227951 141.525482,184.227951 140.003983,184.227951 
	C140.003983,205.310837 140.035217,225.874832 139.976273,246.438568 
	C139.965179,250.311157 142.331741,250.157455 145.739883,250.208832 
M196.871460,314.827179 
	C198.116653,314.719635 199.361847,314.612091 200.848663,314.483673 
	C200.848663,294.157776 200.740433,274.211914 200.929489,254.268875 
	C200.973373,249.638351 199.100845,248.351196 194.259155,249.034195 
	C188.938736,249.291382 183.307236,248.516922 178.359131,250.008881 
	C166.001984,253.734787 153.893311,258.118988 140.580124,255.427719 
	C140.369019,256.684906 140.108826,257.331970 140.180267,257.940094 
	C142.287704,275.880341 149.790695,291.025665 164.142334,302.229950 
	C173.439285,309.488037 183.940216,314.259644 196.871460,314.827179 
M161.249863,81.170967 
	C155.705276,79.166512 150.211777,76.990181 144.569916,75.312904 
	C143.530136,75.003784 141.161041,76.398376 140.659531,77.551842 
	C138.980652,81.413124 141.811020,81.644844 144.708847,82.236641 
	C149.484497,83.211952 154.205109,84.583138 158.793640,86.222145 
	C159.545547,86.490715 159.501953,88.986320 159.826019,90.452644 
	C158.619263,90.589951 157.310028,91.100204 156.223038,90.801567 
	C150.810959,89.314659 145.457352,87.614967 138.710907,85.575302 
	C143.128632,96.163071 137.856796,102.683838 133.849869,109.326431 
	C138.326645,111.396973 142.736023,113.254753 146.966354,115.456520 
	C149.802780,116.932793 152.047729,117.663177 154.197586,114.365494 
	C154.723495,113.558792 156.672531,113.679848 157.967255,113.374359 
	C158.136963,114.731773 158.816299,116.284340 158.384705,117.411499 
	C156.840576,121.444099 151.450699,123.202515 146.926544,121.231941 
	C143.979309,119.948212 141.171860,118.343575 138.052032,116.755562 
	C137.467270,118.751350 137.055542,120.156654 136.802017,121.021942 
	C138.919327,122.295311 140.754730,123.399132 142.590134,124.502953 
	C141.438828,125.813332 140.287506,127.123703 138.890320,128.713913 
	C139.122818,130.073257 139.697952,132.160095 139.799774,134.269775 
	C140.109390,140.684586 141.436417,142.072006 147.871231,141.785202 
	C150.310028,141.676529 152.730240,141.150726 154.997971,140.837296 
	C157.725586,128.738007 160.207840,126.703148 173.643127,125.601875 
	C173.187714,119.193512 172.895111,112.748238 172.234985,106.340843 
	C171.281082,97.081863 168.987137,88.306122 161.249863,81.170967 
M182.164978,385.140076 
	C181.750000,378.878265 187.220047,375.220184 193.531769,377.753387 
	C196.567032,378.971588 199.388535,380.722290 202.526260,382.345367 
	C203.117065,380.464478 203.596542,378.938080 203.925110,377.892059 
	C201.824341,376.726105 199.953018,375.687469 198.081680,374.648834 
	C199.173904,373.279663 200.266144,371.910492 201.920563,369.836578 
	C201.130371,366.693726 201.365509,360.775940 198.685394,358.787537 
	C195.662643,356.544922 190.016388,357.838470 187.362747,357.694489 
	C184.317139,362.913940 182.959702,367.458038 179.912872,369.852448 
	C176.717896,372.363312 171.902420,372.812195 166.304413,374.652252 
	C167.796570,384.244141 168.576996,395.041992 171.313004,405.319214 
	C174.417572,416.980927 183.734680,423.267883 195.758728,423.830536 
	C197.117722,423.894104 199.300446,423.184448 199.771957,422.197998 
	C201.136459,419.343262 200.568451,417.475708 196.625458,416.847137 
	C191.536667,416.035950 186.570267,414.307892 181.671738,412.623962 
	C180.990555,412.389801 180.997696,410.153320 180.686188,408.843781 
	C182.130417,408.764221 183.657486,408.341125 185.004211,408.665863 
	C190.260254,409.933411 195.459213,411.437683 201.867355,413.176270 
	C197.536148,402.681610 202.974258,396.243256 206.867279,389.664307 
	C202.674835,387.799408 198.517746,386.163422 194.567902,384.125702 
	C191.423050,382.503265 188.681839,380.807343 186.193054,385.079529 
	C185.802505,385.749878 183.906082,385.542969 182.164978,385.140076 
M220.840851,304.499298 
	C220.841003,296.345886 221.292465,288.161133 220.729477,280.046783 
	C219.990250,269.392120 214.812485,260.789917 205.994751,252.772812 
	C205.994751,255.576187 205.994751,257.165344 205.994751,258.754517 
	C205.994873,277.058105 205.869965,295.363251 206.093704,313.664124 
	C206.142273,317.635742 204.820816,320.029846 201.692673,322.315979 
	C192.238831,329.224976 183.014526,336.448090 173.811569,343.464264 
	C177.366470,346.298401 180.553268,348.839050 184.024750,351.606659 
	C191.119431,346.233704 198.677353,340.554749 206.184097,334.808929 
	C211.060394,331.076538 217.658463,328.160400 220.182144,323.198547 
	C222.611343,318.422485 220.792969,311.486023 220.840851,304.499298 
M134.528732,188.587250 
	C133.513550,182.445709 136.123840,178.451309 141.207855,174.945831 
	C150.064026,168.839355 158.436005,162.030655 166.902039,155.599045 
	C163.404236,152.823181 160.123871,150.219849 156.622589,147.441223 
	C145.082916,156.205704 133.382675,164.997253 121.848206,174.001190 
	C120.709717,174.889908 120.088974,177.073059 120.070488,178.665176 
	C119.927368,190.992065 120.303398,203.331757 119.893837,215.646683 
	C119.561272,225.646210 123.771980,233.645828 129.471054,241.184311 
	C130.762375,242.892426 132.650238,244.149551 134.528610,245.854950 
	C134.528610,226.531464 134.528610,208.048355 134.528732,188.587250 
M229.481216,175.009354 
	C233.164185,171.187119 236.962662,167.465851 240.451950,163.474289 
	C241.366531,162.428040 242.094391,160.172760 241.583786,159.107346 
	C239.364273,154.475891 236.655579,150.078857 233.734772,144.906174 
	C224.825912,156.999023 214.404434,165.312775 202.075455,170.591171 
	C189.985306,175.767303 177.298721,179.550293 165.743301,183.637207 
	C170.186111,186.531006 175.584854,190.255112 181.214249,193.589828 
	C182.943680,194.614288 185.489380,195.344788 187.346420,194.898819 
	C202.503464,191.258743 216.580414,185.170761 229.481216,175.009354 
M152.152420,322.611938 
	C160.059341,320.395325 167.966263,318.178680 176.050537,315.912323 
	C171.710159,313.308899 166.852386,311.453918 163.455368,308.113495 
	C158.143265,302.889862 152.845123,303.341370 146.877945,305.854950 
	C146.423996,306.046173 145.901367,306.067383 145.430176,306.225677 
	C128.338394,311.968781 112.600380,319.888947 101.107704,334.386047 
	C99.914490,335.891205 98.600899,338.618073 99.189598,339.979858 
	C101.221115,344.679199 104.070740,349.024902 106.917633,354.050415 
	C118.976822,338.126129 134.259094,329.141205 152.152420,322.611938 
M290.826019,313.644653 
	C288.515167,318.656189 288.836914,323.543762 290.184631,328.924866 
	C293.423737,341.857758 293.349365,355.072540 289.649658,367.861176 
	C288.103790,373.204620 289.822723,377.133942 291.443329,382.984161 
	C293.907440,378.810272 296.036163,375.999023 297.346466,372.847473 
	C303.024658,359.190491 303.239136,345.053040 300.265869,330.781769 
	C298.874756,324.104706 296.859619,317.630096 290.826019,313.644653 
M48.441223,117.984322 
	C46.883347,120.331116 44.863323,122.493553 43.841782,125.054306 
	C36.618759,143.160614 36.529301,161.326691 44.219425,179.328690 
	C45.322605,181.911163 47.379402,184.086288 49.003971,186.463242 
	C52.545345,180.558762 51.645344,175.329224 50.284752,169.626404 
	C47.193855,156.671173 47.362095,143.494370 51.133942,130.663956 
	C52.612312,125.635094 51.315403,121.664711 48.441223,117.984322 
M249.359283,297.181702 
	C244.795364,293.669189 242.902573,289.179138 243.442017,283.326263 
	C243.881821,278.554474 243.530945,273.709808 243.530777,268.897461 
	C243.530670,265.910339 243.530762,262.923248 243.530762,259.936127 
	C237.543884,264.469818 232.742996,269.256378 228.069504,274.164246 
	C227.398087,274.869354 226.785797,276.373718 227.083801,277.146667 
	C231.066345,287.476532 235.809387,297.325653 246.458328,302.532349 
	C248.312515,303.438934 250.531021,303.600403 252.581268,304.106018 
	C252.859726,303.634491 253.138199,303.162933 253.416656,302.691376 
	C252.235489,301.028717 251.054337,299.366028 249.359283,297.181702 
M97.008980,235.975098 
	C97.088615,237.198013 97.168251,238.420929 97.317200,240.708328 
	C102.890900,234.978943 107.813843,230.057129 112.521561,224.937408 
	C113.271637,224.121674 113.692032,222.040939 113.185089,221.183197 
	C109.088264,214.251373 105.136864,207.167053 100.298477,200.766205 
	C97.599838,197.196091 93.223557,195.013382 86.383316,195.320694 
	C88.899246,198.486481 90.391106,200.868195 92.368126,202.736542 
	C95.563538,205.756332 97.360466,208.970825 97.109680,213.627792 
	C96.725510,220.761612 97.008896,227.931366 97.008980,235.975098 
M73.157600,160.404251 
	C76.709618,159.912292 77.984146,158.129089 76.528801,154.714111 
	C68.978165,154.714111 61.576035,154.714111 53.442249,154.714111 
	C54.186077,160.395584 54.883755,165.724564 55.516224,170.555496 
	C61.427231,167.128098 66.936172,163.933838 73.157600,160.404251 
M268.506592,338.222137 
	C265.279419,339.105530 262.242554,340.113068 264.410370,344.593140 
	C271.825195,344.593140 279.245117,344.593140 287.379181,344.593140 
	C286.536743,338.856293 285.746979,333.477875 285.010284,328.461212 
	C279.375519,331.863861 274.310364,334.922516 268.506592,338.222137 
M282.696106,365.241974 
	C283.516754,364.997559 284.987549,364.874298 285.059113,364.490265 
	C285.925201,359.841980 286.584961,355.155273 287.324860,350.305115 
	C279.048065,350.305115 271.518616,350.305115 264.150177,350.305115 
	C263.068695,353.647064 264.592072,354.707092 267.255005,356.000977 
	C272.405884,358.503632 277.179779,361.782227 282.696106,365.241974 
M55.915615,133.130753 
	C55.061947,138.270920 54.208282,143.411087 53.299282,148.884415 
	C61.766827,148.884415 69.292511,148.884415 77.991348,148.884415 
	C76.782181,146.780807 76.302597,144.779160 75.051010,143.966553 
	C68.888374,139.965378 62.520966,136.279572 55.915615,133.130753 
z"/>
<path fill="#313131" opacity="1.000000" stroke="none" 
	d="
M325.111969,204.999969 
	C325.111969,141.865417 325.111969,79.230858 325.111969,16.128717 
	C243.444778,16.128717 162.043335,16.128717 80.380707,16.128717 
	C80.380707,14.273054 80.380707,12.880795 80.380707,11.203165 
	C81.733879,11.120312 83.025917,10.972337 84.317986,10.972028 
	C133.645905,10.960246 182.973816,10.962000 232.301727,10.961976 
	C262.798370,10.961962 293.295044,10.959106 323.791687,10.964352 
	C330.149109,10.965445 330.582611,11.394466 330.582886,17.839876 
	C330.587616,133.993790 330.586273,250.147690 330.586243,366.301605 
	C330.586243,367.770538 330.586243,369.239441 330.586243,370.870911 
	C328.645844,370.870911 327.171814,370.870911 325.111969,370.870911 
	C325.111969,315.708191 325.111969,260.604095 325.111969,204.999969 
z"/>
<path fill="#313131" opacity="1.000000" stroke="none" 
	d="
M15.586371,427.000183 
	C15.586317,446.813232 15.586317,466.126251 15.586317,485.895782 
	C97.249870,485.895782 178.655701,485.895782 260.319275,485.895782 
	C260.319275,487.752319 260.319275,489.152985 260.319275,491.037842 
	C258.865845,491.037842 257.580017,491.037781 256.294189,491.037781 
	C176.476379,491.037903 96.658569,491.039581 16.840754,491.035431 
	C10.757038,491.035095 10.117191,490.437195 10.116845,484.590240 
	C10.109954,367.946259 10.111858,251.302277 10.111979,134.658295 
	C10.111979,133.673874 10.111979,132.689438 10.111979,131.276291 
	C11.853538,131.148758 13.406017,131.035065 15.586426,130.875381 
	C15.586426,229.661682 15.586426,328.080933 15.586371,427.000183 
z"/>
<path fill="#C93315" opacity="1.000000" stroke="none" 
	d="
M256.874084,79.117233 
	C251.375504,74.603416 246.150269,70.314453 240.509369,65.684296 
	C254.529572,56.491863 266.052765,44.943699 275.326172,30.760813 
	C284.660034,44.953960 296.044128,56.460678 310.505127,65.929092 
	C296.445648,75.380280 284.729706,86.704376 275.836853,100.499939 
	C269.572296,93.407997 263.359894,86.375046 256.874084,79.117233 
z"/>
<path fill="#C93415" opacity="1.000000" stroke="none" 
	d="
M57.942963,410.924530 
	C60.547424,407.479462 62.939949,404.321106 65.468918,400.982635 
	C74.695442,414.999969 86.078468,426.505157 100.516678,435.949341 
	C86.396957,445.413177 74.724098,456.790222 65.413887,471.171112 
	C55.962475,457.216095 44.705086,445.432495 31.326912,436.885590 
	C40.244846,428.214142 48.987938,419.712708 57.942963,410.924530 
z"/>
<path fill="#CA3617" opacity="1.000000" stroke="none" 
	d="
M304.078308,416.945984 
	C300.381409,413.602448 296.935211,410.511871 294.559753,408.381561 
	C300.153259,402.934784 305.997223,397.244141 310.037262,393.310120 
	C314.311768,397.658295 319.958710,403.402588 323.990936,407.504333 
	C320.167542,411.299286 314.480865,416.943726 308.794159,422.588135 
	C309.285858,423.204376 309.777557,423.820587 310.269257,424.436798 
	C308.289185,422.024200 306.309082,419.611572 304.078308,416.945984 
z"/>
<path fill="#CC3E21" opacity="1.000000" stroke="none" 
	d="
M20.282917,9.515145 
	C21.099363,8.338660 22.008881,6.942406 22.971760,6.904581 
	C28.430500,6.690146 33.902008,6.800801 40.610661,6.800801 
	C39.599117,8.593151 39.070442,10.631853 38.284092,10.736628 
	C34.435551,11.249414 34.572880,13.835524 34.583450,16.600491 
	C34.616482,25.241203 34.622044,33.882236 34.587654,42.522942 
	C34.538204,54.947495 31.394152,59.372551 19.521551,63.670719 
	C17.290537,61.784939 17.175505,60.214077 19.867540,58.376869 
	C24.521130,55.200977 26.194929,50.524765 26.143320,45.014729 
	C26.062391,36.374645 25.882998,27.723993 26.217098,19.096087 
	C26.399611,14.382840 26.118877,10.601347 20.282917,9.515145 
z"/>
<path fill="#CA3617" opacity="1.000000" stroke="none" 
	d="
M16.755413,90.233650 
	C15.406139,89.239548 14.334928,88.463844 14.414094,88.521172 
	C20.152624,82.938705 25.997850,77.252441 30.028481,73.331429 
	C34.345173,77.620247 40.058510,83.296692 44.154594,87.366325 
	C40.240654,91.370598 34.639568,97.100960 30.431423,101.406235 
	C27.027672,98.623322 22.030573,94.537682 16.755413,90.233650 
z"/>
<path fill="#CA3719" opacity="1.000000" stroke="none" 
	d="
M314.178741,459.046814 
	C314.179443,465.685455 314.264893,471.833374 314.143921,477.977203 
	C314.086426,480.896362 314.305145,483.193878 317.948456,483.767731 
	C318.955383,483.926300 319.731110,485.552887 320.612915,486.505920 
	C320.368866,486.952759 320.124817,487.399567 319.880737,487.846405 
	C314.139832,487.846405 308.397797,487.899750 302.659424,487.779846 
	C301.931152,487.764679 300.572235,486.737823 300.632965,486.361786 
	C300.779724,485.453339 301.498688,484.010498 302.153748,483.913879 
	C306.044312,483.339844 306.068207,480.757202 306.029175,477.720612 
	C305.913788,468.751953 305.852173,459.778015 306.029846,450.811310 
	C306.257782,439.309174 309.958374,434.615662 321.946747,430.741364 
	C322.049988,432.277008 322.695892,434.536499 322.150909,434.874207 
	C313.103943,440.480347 314.319855,449.484222 314.179077,458.056030 
	C314.176331,458.222107 314.178711,458.388275 314.178741,459.046814 
z"/>
<path fill="#C83112" opacity="1.000000" stroke="none" 
	d="
M196.026321,314.658020 
	C183.940216,314.259644 173.439285,309.488037 164.142334,302.229950 
	C149.790695,291.025665 142.287704,275.880341 140.180267,257.940094 
	C140.108826,257.331970 140.369019,256.684906 140.580124,255.427719 
	C153.893311,258.118988 166.001984,253.734787 178.359131,250.008881 
	C183.307236,248.516922 188.938736,249.291382 194.783112,249.449921 
	C195.528320,251.611374 195.936630,253.356506 195.942215,255.102921 
	C196.005783,274.954498 196.007828,294.806274 196.026321,314.658020 
z"/>
<path fill="#F8CA19" opacity="1.000000" stroke="none" 
	d="
M144.854462,184.400879 
	C168.466614,186.744400 184.943329,199.297089 194.784210,220.418564 
	C197.668167,226.608444 198.507004,233.761200 200.163971,240.501923 
	C200.413177,241.515701 200.007889,242.690353 199.866455,244.207962 
	C187.827515,240.799728 176.984268,244.282913 166.082031,248.088882 
	C159.553101,250.368134 152.806259,252.284836 145.338654,249.560745 
	C144.909775,227.408737 144.882111,205.904800 144.854462,184.400879 
z"/>
<path fill="#244DC2" opacity="1.000000" stroke="none" 
	d="
M97.337204,325.082428 
	C97.231506,300.273621 97.083641,275.464783 97.120102,250.656204 
	C97.122398,249.092194 98.245987,247.231186 99.390068,246.020798 
	C103.620255,241.545486 108.078117,237.285370 113.036148,233.015564 
	C116.979942,240.271622 121.381058,246.572418 128.078491,251.140167 
	C129.143387,251.866440 129.814011,253.801620 129.905792,255.226913 
	C130.884216,270.421875 135.659637,284.172363 145.508163,295.885101 
	C147.236237,297.940277 146.629471,299.113525 145.546814,300.735474 
	C140.937393,302.115448 136.327972,303.495453 130.983551,304.912415 
	C117.515007,308.778259 106.996391,316.227905 97.337204,325.082428 
z"/>
<path fill="#C93214" opacity="1.000000" stroke="none" 
	d="
M243.051331,174.391510 
	C243.111618,199.210083 243.213394,224.028809 243.134521,248.846939 
	C243.129501,250.424515 242.047119,252.303726 240.907211,253.518143 
	C236.691559,258.009399 232.241302,262.280457 227.490967,266.439331 
	C223.859787,258.999390 219.508179,252.662109 212.838852,248.060242 
	C211.829712,247.363922 211.026123,245.713058 210.933334,244.444778 
	C209.722641,227.895706 204.330109,213.059998 193.015167,200.563187 
	C193.980957,199.995224 194.661957,199.594727 195.342972,199.194229 
	C200.374893,197.356552 205.406830,195.518890 211.115356,193.397995 
	C213.530701,192.667007 215.533630,192.628540 216.964981,191.704575 
	C225.732376,186.044998 234.370285,180.184845 243.051331,174.391510 
z"/>
<path fill="#F9F9F9" opacity="1.000000" stroke="none" 
	d="
M161.521454,81.409012 
	C168.987137,88.306122 171.281082,97.081863 172.234985,106.340843 
	C172.895111,112.748238 173.187714,119.193512 173.643127,125.601875 
	C160.207840,126.703148 157.725586,128.738007 154.997971,140.837296 
	C152.730240,141.150726 150.310028,141.676529 147.871231,141.785202 
	C141.436417,142.072006 140.109390,140.684586 139.799774,134.269775 
	C139.697952,132.160095 139.122818,130.073257 138.890320,128.713913 
	C140.287506,127.123703 141.438828,125.813332 142.590134,124.502953 
	C140.754730,123.399132 138.919327,122.295311 136.802017,121.021942 
	C137.055542,120.156654 137.467270,118.751350 138.052032,116.755562 
	C141.171860,118.343575 143.979309,119.948212 146.926544,121.231941 
	C151.450699,123.202515 156.840576,121.444099 158.384705,117.411499 
	C158.816299,116.284340 158.136963,114.731773 157.967255,113.374359 
	C156.672531,113.679848 154.723495,113.558792 154.197586,114.365494 
	C152.047729,117.663177 149.802780,116.932793 146.966354,115.456520 
	C142.736023,113.254753 138.326645,111.396973 133.849869,109.326431 
	C137.856796,102.683838 143.128632,96.163071 138.710907,85.575302 
	C145.457352,87.614967 150.810959,89.314659 156.223038,90.801567 
	C157.310028,91.100204 158.619263,90.589951 159.826019,90.452644 
	C159.501953,88.986320 159.545547,86.490715 158.793640,86.222145 
	C154.205109,84.583138 149.484497,83.211952 144.708847,82.236641 
	C141.811020,81.644844 138.980652,81.413124 140.659531,77.551842 
	C141.161041,76.398376 143.530136,75.003784 144.569916,75.312904 
	C150.211777,76.990181 155.705276,79.166512 161.521454,81.409012 
M150.690292,92.170296 
	C147.219559,90.710503 145.870773,92.594894 146.232788,95.578697 
	C146.442978,97.311180 147.964569,98.884567 148.896042,100.529541 
	C149.796249,98.741951 150.815613,97.000244 151.531128,95.141548 
	C151.776871,94.503235 151.263214,93.572571 150.690292,92.170296 
z"/>
<path fill="#F9F9F9" opacity="1.000000" stroke="none" 
	d="
M182.435455,385.440887 
	C183.906082,385.542969 185.802505,385.749878 186.193054,385.079529 
	C188.681839,380.807343 191.423050,382.503265 194.567902,384.125702 
	C198.517746,386.163422 202.674835,387.799408 206.867279,389.664307 
	C202.974258,396.243256 197.536148,402.681610 201.867355,413.176270 
	C195.459213,411.437683 190.260254,409.933411 185.004211,408.665863 
	C183.657486,408.341125 182.130417,408.764221 180.686188,408.843781 
	C180.997696,410.153320 180.990555,412.389801 181.671738,412.623962 
	C186.570267,414.307892 191.536667,416.035950 196.625458,416.847137 
	C200.568451,417.475708 201.136459,419.343262 199.771957,422.197998 
	C199.300446,423.184448 197.117722,423.894104 195.758728,423.830536 
	C183.734680,423.267883 174.417572,416.980927 171.313004,405.319214 
	C168.576996,395.041992 167.796570,384.244141 166.304413,374.652252 
	C171.902420,372.812195 176.717896,372.363312 179.912872,369.852448 
	C182.959702,367.458038 184.317139,362.913940 187.362747,357.694489 
	C190.016388,357.838470 195.662643,356.544922 198.685394,358.787537 
	C201.365509,360.775940 201.130371,366.693726 201.920563,369.836578 
	C200.266144,371.910492 199.173904,373.279663 198.081680,374.648834 
	C199.953018,375.687469 201.824341,376.726105 203.925110,377.892059 
	C203.596542,378.938080 203.117065,380.464478 202.526260,382.345367 
	C199.388535,380.722290 196.567032,378.971588 193.531769,377.753387 
	C187.220047,375.220184 181.750000,378.878265 182.435455,385.440887 
M189.439255,406.004242 
	C190.832718,406.185944 192.226181,406.367645 193.619644,406.549377 
	C193.718674,404.309845 193.979401,402.055786 193.780258,399.843079 
	C193.740463,399.400726 191.215683,398.632416 191.080078,398.837341 
	C190.195267,400.174194 189.579224,401.711639 189.037109,403.240845 
	C188.835251,403.810242 189.068176,404.533722 189.439255,406.004242 
z"/>
<path fill="#F6F6F6" opacity="1.000000" stroke="none" 
	d="
M220.840851,304.999023 
	C220.792969,311.486023 222.611343,318.422485 220.182144,323.198547 
	C217.658463,328.160400 211.060394,331.076538 206.184097,334.808929 
	C198.677353,340.554749 191.119431,346.233704 184.024750,351.606659 
	C180.553268,348.839050 177.366470,346.298401 173.811569,343.464264 
	C183.014526,336.448090 192.238831,329.224976 201.692673,322.315979 
	C204.820816,320.029846 206.142273,317.635742 206.093704,313.664124 
	C205.869965,295.363251 205.994873,277.058105 205.994751,258.754517 
	C205.994751,257.165344 205.994751,255.576187 205.994751,252.772812 
	C214.812485,260.789917 219.990250,269.392120 220.729477,280.046783 
	C221.292465,288.161133 220.841003,296.345886 220.840851,304.999023 
z"/>
<path fill="#F4F4F4" opacity="1.000000" stroke="none" 
	d="
M134.528671,189.076248 
	C134.528610,208.048355 134.528610,226.531464 134.528610,245.854950 
	C132.650238,244.149551 130.762375,242.892426 129.471054,241.184311 
	C123.771980,233.645828 119.561272,225.646210 119.893837,215.646683 
	C120.303398,203.331757 119.927368,190.992065 120.070488,178.665176 
	C120.088974,177.073059 120.709717,174.889908 121.848206,174.001190 
	C133.382675,164.997253 145.082916,156.205704 156.622589,147.441223 
	C160.123871,150.219849 163.404236,152.823181 166.902039,155.599045 
	C158.436005,162.030655 150.064026,168.839355 141.207855,174.945831 
	C136.123840,178.451309 133.513550,182.445709 134.528671,189.076248 
M143.809494,162.193542 
	C143.352112,163.741867 142.894730,165.290192 142.437332,166.838531 
	C143.637177,166.795181 144.837021,166.751831 146.036880,166.708466 
	C145.529434,165.193741 145.022003,163.679016 143.809494,162.193542 
z"/>
<path fill="#F8F8F8" opacity="1.000000" stroke="none" 
	d="
M229.208176,175.238831 
	C216.580414,185.170761 202.503464,191.258743 187.346420,194.898819 
	C185.489380,195.344788 182.943680,194.614288 181.214249,193.589828 
	C175.584854,190.255112 170.186111,186.531006 165.743301,183.637207 
	C177.298721,179.550293 189.985306,175.767303 202.075455,170.591171 
	C214.404434,165.312775 224.825912,156.999023 233.734772,144.906174 
	C236.655579,150.078857 239.364273,154.475891 241.583786,159.107346 
	C242.094391,160.172760 241.366531,162.428040 240.451950,163.474289 
	C236.962662,167.465851 233.164185,171.187119 229.208176,175.238831 
z"/>
<path fill="#F6F6F6" opacity="1.000000" stroke="none" 
	d="
M151.785034,322.753082 
	C134.259094,329.141205 118.976822,338.126129 106.917633,354.050415 
	C104.070740,349.024902 101.221115,344.679199 99.189598,339.979858 
	C98.600899,338.618073 99.914490,335.891205 101.107704,334.386047 
	C112.600380,319.888947 128.338394,311.968781 145.430176,306.225677 
	C145.901367,306.067383 146.423996,306.046173 146.877945,305.854950 
	C152.845123,303.341370 158.143265,302.889862 163.455368,308.113495 
	C166.852386,311.453918 171.710159,313.308899 176.050537,315.912323 
	C167.966263,318.178680 160.059341,320.395325 151.785034,322.753082 
z"/>
<path fill="#244CC0" opacity="1.000000" stroke="none" 
	d="
M187.999359,150.028275 
	C189.733612,149.679001 191.467865,149.329727 193.983231,149.005646 
	C200.167801,149.335663 203.374313,146.127747 206.336670,141.875061 
	C210.107162,139.036438 213.546692,136.322983 216.986206,133.609543 
	C219.824158,135.319168 222.694824,136.977646 225.485031,138.761948 
	C226.713242,139.547363 227.777817,140.588684 229.145599,141.699783 
	C221.336258,153.389893 210.424454,160.791718 198.365036,166.630630 
	C183.391815,173.880310 167.414948,177.512161 150.635376,178.538910 
	C162.924362,168.825424 175.461868,159.426849 187.999359,150.028275 
z"/>
<path fill="#F7C91B" opacity="1.000000" stroke="none" 
	d="
M152.786530,348.963135 
	C150.862442,349.340240 148.938324,349.717377 146.243286,350.066101 
	C142.458923,351.492218 139.368561,352.811066 136.463730,354.457245 
	C134.957672,355.310760 133.766190,356.728455 132.456863,357.917999 
	C129.593140,360.519714 126.744896,363.138458 123.890343,365.750275 
	C119.841042,363.191772 115.791740,360.633301 110.883965,357.532379 
	C131.219391,332.426392 158.205521,323.420166 188.531067,321.069092 
	C187.741989,322.569031 186.611542,323.550934 185.418015,324.449005 
	C174.547089,332.628662 163.665222,340.793762 152.786530,348.963135 
z"/>
<path fill="#F1C720" opacity="1.000000" stroke="none" 
	d="
M84.539581,238.352005 
	C85.676735,237.416977 86.813889,236.481949 87.951042,235.546921 
	C87.089882,234.727798 86.228722,233.908676 85.034966,232.666855 
	C84.686455,231.415192 84.670540,230.586212 84.654617,229.757233 
	C87.077553,228.240189 90.636589,226.885361 85.070755,223.807373 
	C84.704842,222.476212 84.704941,221.617477 84.705040,220.758759 
	C89.339592,217.688919 89.351349,217.535187 84.779762,214.708466 
	C84.590942,210.540253 84.747963,206.922943 84.904984,203.305618 
	C90.419609,207.093826 92.243530,212.059128 92.174965,218.955704 
	C91.800812,256.585327 91.996902,294.220642 91.996902,331.854004 
	C91.996895,333.176941 91.996902,334.499878 91.996902,336.479919 
	C89.701859,336.479919 87.616043,336.479919 85.145264,335.832275 
	C84.778046,305.731812 84.795807,276.278961 84.813576,246.826126 
	C88.906143,245.340347 88.989655,243.509720 84.979996,240.841370 
	C84.630295,239.670349 84.584938,239.011185 84.539581,238.352005 
z"/>
<path fill="#F7CA1C" opacity="1.000000" stroke="none" 
	d="
M256.137451,278.242432 
	C254.977005,279.057220 253.816574,279.872009 252.184769,281.017731 
	C253.380997,282.034851 254.407791,282.907867 255.758942,284.365997 
	C256.037598,288.642365 255.991867,292.333679 255.946136,296.024963 
	C250.308334,292.310150 248.633881,287.261505 248.696686,280.417358 
	C249.044830,242.477036 248.862366,204.531876 248.872513,166.588364 
	C248.872818,165.449295 248.993378,164.310242 249.088486,162.630463 
	C251.224091,162.630463 253.157837,162.630463 255.575439,163.219757 
	C256.037384,193.254578 256.015472,222.700104 255.993591,252.145615 
	C254.906479,252.840561 253.819382,253.535507 252.053864,254.664139 
	C253.209473,255.713669 254.323029,256.725006 255.763519,258.209076 
	C256.122925,259.346741 256.155396,260.011688 256.187866,260.676636 
	C254.737732,261.570404 253.287598,262.464142 251.096909,263.814331 
	C253.043961,264.798737 254.223831,265.395233 255.752563,266.394897 
	C256.117676,267.620911 256.133911,268.443848 256.150146,269.266754 
	C254.982513,270.073792 253.814880,270.880829 252.160446,272.024323 
	C253.365997,273.055847 254.391037,273.932953 255.749680,275.242493 
	C256.101349,276.530731 256.119385,277.386597 256.137451,278.242432 
z"/>
<path fill="#F2C71E" opacity="1.000000" stroke="none" 
	d="
M172.921570,85.610832 
	C165.660339,74.546745 155.003922,70.125763 142.196838,69.787804 
	C140.794922,69.750809 139.409866,69.074478 138.016388,68.694519 
	C138.064697,64.934639 140.077866,63.841152 143.151566,63.749287 
	C158.742996,63.283264 170.581299,69.468422 177.754196,83.553978 
	C184.720276,97.233414 185.965652,112.127922 186.605850,127.139008 
	C186.844452,132.734024 186.795517,138.327713 182.978012,142.733765 
	C180.673416,145.393661 177.644791,147.656830 174.525085,149.314743 
	C171.434067,150.957428 168.069809,150.577866 165.328217,146.804016 
	C164.592926,146.222275 164.261719,146.145096 163.930511,146.067932 
	C163.930511,146.067932 163.999390,146.000610 164.161469,145.657715 
	C162.162598,141.039307 163.197708,136.983337 165.170090,132.991760 
	C166.630508,132.366608 168.134537,131.175842 169.538376,131.284103 
	C170.802826,131.381622 173.036636,133.061127 172.933731,133.762939 
	C172.725708,135.181671 171.475662,137.064941 170.193481,137.559692 
	C168.407059,138.249008 165.068283,137.054703 165.983917,140.376419 
	C166.341965,141.675339 169.805923,142.375381 171.963837,142.813553 
	C173.060089,143.036179 174.397293,142.072296 176.192291,141.333435 
	C177.144089,140.624527 177.529144,140.227005 177.914200,139.829483 
	C177.914200,139.829483 177.933624,139.933105 178.268524,139.896545 
	C179.418839,137.600189 180.943024,135.334824 180.925339,133.081573 
	C180.853958,123.989456 180.791977,114.846672 179.780502,105.828705 
	C178.985535,98.740959 178.281281,91.295135 172.921570,85.610832 
z"/>
<path fill="#F2C720" opacity="1.000000" stroke="none" 
	d="
M175.129639,366.033112 
	C173.197327,368.956757 170.646317,368.582245 168.407867,366.795166 
	C167.689148,366.221344 167.509537,363.688568 168.126724,363.030151 
	C169.022171,362.074860 170.941147,362.163818 172.279053,361.511139 
	C173.313049,361.006714 174.802673,360.093201 174.857697,359.278351 
	C174.920914,358.342224 173.534805,356.417328 172.937180,356.478363 
	C170.011612,356.777069 167.138977,357.594238 163.634109,358.543884 
	C161.954163,360.908966 160.166794,362.890991 159.967987,365.021301 
	C159.523376,369.785858 159.852692,374.624451 159.898193,379.432617 
	C159.995926,389.761749 160.880432,400.012787 165.122162,409.558685 
	C166.505402,412.671631 169.163406,415.218140 171.238403,418.023712 
	C177.256668,425.216583 185.012894,428.756714 194.332031,429.020020 
	C195.329681,429.048187 196.448059,428.842682 197.297668,429.222046 
	C199.020844,429.991486 200.598236,431.087311 202.235718,432.048645 
	C200.509430,433.184235 198.824005,435.235107 197.050522,435.314362 
	C178.608597,436.138062 165.060760,425.711243 159.069717,406.322876 
	C155.050323,393.315155 153.819626,379.909515 154.075806,366.379547 
	C154.196564,360.001678 157.353699,354.897614 162.605835,351.312317 
	C167.944489,347.667908 171.626617,348.243530 176.537445,353.635010 
	C176.615936,357.799042 176.835754,361.429413 177.055573,365.059814 
	C177.055573,365.059814 176.997299,365.010742 176.764130,364.762512 
	C176.063843,365.020569 175.596741,365.526825 175.129639,366.033112 
z"/>
<path fill="#F7F7F7" opacity="1.000000" stroke="none" 
	d="
M291.050934,313.333282 
	C296.859619,317.630096 298.874756,324.104706 300.265869,330.781769 
	C303.239136,345.053040 303.024658,359.190491 297.346466,372.847473 
	C296.036163,375.999023 293.907440,378.810272 291.443329,382.984161 
	C289.822723,377.133942 288.103790,373.204620 289.649658,367.861176 
	C293.349365,355.072540 293.423737,341.857758 290.184631,328.924866 
	C288.836914,323.543762 288.515167,318.656189 291.050934,313.333282 
z"/>
<path fill="#F8F8F8" opacity="1.000000" stroke="none" 
	d="
M48.730812,117.770164 
	C51.315403,121.664711 52.612312,125.635094 51.133942,130.663956 
	C47.362095,143.494370 47.193855,156.671173 50.284752,169.626404 
	C51.645344,175.329224 52.545345,180.558762 49.003971,186.463242 
	C47.379402,184.086288 45.322605,181.911163 44.219425,179.328690 
	C36.529301,161.326691 36.618759,143.160614 43.841782,125.054306 
	C44.863323,122.493553 46.883347,120.331116 48.730812,117.770164 
z"/>
<path fill="#C73314" opacity="1.000000" stroke="none" 
	d="
M167.225159,35.025024 
	C176.294785,35.849258 184.455658,39.044926 192.283722,44.273682 
	C188.551086,50.754642 185.168259,57.000374 181.340012,62.959980 
	C180.578110,64.146034 177.962265,64.984619 176.460815,64.684631 
	C172.820160,63.957233 169.332367,62.464794 165.466263,60.672096 
	C165.841415,51.717377 166.533295,43.371201 167.225159,35.025024 
z"/>
<path fill="#C73314" opacity="1.000000" stroke="none" 
	d="
M173.323395,463.994263 
	C164.386307,463.280945 156.449829,459.889038 148.341980,454.954132 
	C152.279785,448.074860 155.948441,441.462463 159.906021,435.027740 
	C160.363617,434.283722 162.555176,434.070709 163.721329,434.398804 
	C167.152878,435.364227 170.472931,436.725952 174.436401,438.355713 
	C174.465240,447.183990 173.894318,455.589111 173.323395,463.994263 
z"/>
<path fill="#F7C919" opacity="1.000000" stroke="none" 
	d="
M256.061646,371.875946 
	C253.913879,371.875946 251.766083,371.875946 248.829224,371.875946 
	C249.539001,362.256470 250.210724,352.375824 239.102585,348.028687 
	C239.452362,347.129089 239.466690,346.898590 239.578873,346.831329 
	C248.679047,341.374359 249.982758,332.934021 248.942749,323.339691 
	C248.463623,318.919586 248.861099,314.404480 248.861099,309.610809 
	C250.970459,309.330719 253.001999,309.060974 255.500214,309.114960 
	C255.998489,330.251099 256.030060,351.063538 256.061646,371.875946 
z"/>
<path fill="#F6C919" opacity="1.000000" stroke="none" 
	d="
M84.692459,127.180328 
	C86.836617,127.180328 88.980782,127.180328 91.842598,127.180328 
	C91.301979,136.645859 90.487167,146.446289 101.809425,151.072723 
	C100.792946,152.363037 100.432388,153.196228 99.800705,153.565094 
	C92.728554,157.694626 91.153923,163.974991 91.877968,171.680420 
	C92.430626,177.561859 91.987770,183.536835 91.987770,189.566925 
	C89.661041,189.796463 87.729126,189.987045 85.306892,189.821655 
	C84.775200,168.703903 84.733826,147.942123 84.692459,127.180328 
z"/>
<path fill="#F4F4F4" opacity="1.000000" stroke="none" 
	d="
M249.616226,297.442535 
	C251.054337,299.366028 252.235489,301.028717 253.416656,302.691376 
	C253.138199,303.162933 252.859726,303.634491 252.581268,304.106018 
	C250.531021,303.600403 248.312515,303.438934 246.458328,302.532349 
	C235.809387,297.325653 231.066345,287.476532 227.083801,277.146667 
	C226.785797,276.373718 227.398087,274.869354 228.069504,274.164246 
	C232.742996,269.256378 237.543884,264.469818 243.530762,259.936127 
	C243.530762,262.923248 243.530670,265.910339 243.530777,268.897461 
	C243.530945,273.709808 243.881821,278.554474 243.442017,283.326263 
	C242.902573,289.179138 244.795364,293.669189 249.616226,297.442535 
z"/>
<path fill="#FCFCFC" opacity="1.000000" stroke="none" 
	d="
M97.008965,235.530487 
	C97.008896,227.931366 96.725510,220.761612 97.109680,213.627792 
	C97.360466,208.970825 95.563538,205.756332 92.368126,202.736542 
	C90.391106,200.868195 88.899246,198.486481 86.383316,195.320694 
	C93.223557,195.013382 97.599838,197.196091 100.298477,200.766205 
	C105.136864,207.167053 109.088264,214.251373 113.185089,221.183197 
	C113.692032,222.040939 113.271637,224.121674 112.521561,224.937408 
	C107.813843,230.057129 102.890900,234.978943 97.317200,240.708328 
	C97.168251,238.420929 97.088615,237.198013 97.008965,235.530487 
z"/>
<path fill="#C73416" opacity="1.000000" stroke="none" 
	d="
M137.183289,38.135048 
	C143.445709,36.793613 149.708145,35.452179 157.239227,33.838997 
	C156.457291,42.983269 155.803726,50.626282 155.076096,59.135441 
	C150.920883,58.864098 147.057846,58.611835 142.712036,57.835133 
	C140.547272,50.918812 138.865280,44.526932 137.183289,38.135048 
z"/>
<path fill="#C73314" opacity="1.000000" stroke="none" 
	d="
M202.945190,460.881653 
	C196.760941,462.582520 190.576706,464.283386 183.435410,466.247467 
	C184.156403,456.987793 184.751587,449.344025 185.405792,440.942017 
	C189.447464,440.942017 193.349014,440.942017 197.799057,441.359924 
	C199.880096,448.145752 201.412643,454.513702 202.945190,460.881653 
z"/>
<path fill="#C73314" opacity="1.000000" stroke="none" 
	d="
M200.032227,49.888794 
	C205.042542,54.447227 210.052856,59.005665 215.682358,64.127441 
	C210.360214,68.248451 205.835602,71.751923 200.597366,75.143448 
	C196.329514,72.920380 192.775269,70.809258 189.100174,68.626358 
	C192.833420,62.227577 196.432816,56.058186 200.032227,49.888794 
z"/>
<path fill="#C73314" opacity="1.000000" stroke="none" 
	d="
M140.710068,449.213593 
	C135.715622,444.667694 130.721191,440.121796 125.060280,434.969269 
	C130.262024,430.841431 134.748901,427.280853 139.886642,423.782013 
	C144.135071,426.023712 147.732651,428.203705 151.474106,430.470856 
	C147.739746,436.973236 144.224899,443.093414 140.710068,449.213593 
z"/>
<path fill="#EFF1F4" opacity="1.000000" stroke="none" 
	d="
M145.822845,300.571350 
	C146.629471,299.113525 147.236237,297.940277 145.508163,295.885101 
	C135.659637,284.172363 130.884216,270.421875 129.905792,255.226913 
	C129.814011,253.801620 129.143387,251.866440 128.078491,251.140167 
	C121.381058,246.572418 116.979942,240.271622 113.342506,232.837204 
	C113.992546,231.453629 114.921967,230.319580 116.181351,228.782913 
	C117.890587,232.197388 119.234726,235.281876 120.933563,238.156784 
	C122.440086,240.706268 123.836296,243.811325 126.159805,245.297714 
	C133.790848,250.179428 135.136078,257.436676 136.202530,265.640594 
	C137.814255,278.039246 143.748032,288.785217 152.335007,298.641632 
	C150.002808,299.301941 148.050842,299.854584 145.822845,300.571350 
z"/>
<path fill="#F3F3F3" opacity="1.000000" stroke="none" 
	d="
M196.448883,314.742615 
	C196.007828,294.806274 196.005783,274.954498 195.942215,255.102921 
	C195.936630,253.356506 195.528320,251.611374 195.137787,249.483063 
	C199.100845,248.351196 200.973373,249.638351 200.929489,254.268875 
	C200.740433,274.211914 200.848663,294.157776 200.848663,314.483673 
	C199.361847,314.612091 198.116653,314.719635 196.448883,314.742615 
z"/>
<path fill="#FDFBF2" opacity="1.000000" stroke="none" 
	d="
M144.433975,184.314423 
	C144.882111,205.904800 144.909775,227.408737 144.961426,249.369293 
	C142.331741,250.157455 139.965179,250.311157 139.976273,246.438568 
	C140.035217,225.874832 140.003983,205.310837 140.003983,184.227951 
	C141.525482,184.227951 142.769485,184.227951 144.433975,184.314423 
z"/>
<path fill="#F7F1F0" opacity="1.000000" stroke="none" 
	d="
M194.996185,199.101837 
	C194.661957,199.594727 193.980957,199.995224 193.015167,200.563187 
	C204.330109,213.059998 209.722641,227.895706 210.933334,244.444778 
	C211.026123,245.713058 211.829712,247.363922 212.838852,248.060242 
	C219.508179,252.662109 223.859787,258.999390 227.213455,266.588745 
	C226.469330,267.917480 225.614502,268.901917 224.475174,270.214020 
	C222.860031,267.007782 221.647232,263.971771 219.898010,261.285065 
	C217.649033,257.830780 215.509506,253.951065 212.346375,251.530823 
	C207.837341,248.080780 205.825760,244.382523 205.326614,238.609543 
	C204.096893,224.386856 198.317062,211.816895 188.268173,200.367905 
	C190.770355,199.835236 192.709869,199.422333 194.996185,199.101837 
z"/>
<path fill="#FEF6D9" opacity="1.000000" stroke="none" 
	d="
M84.376221,246.713867 
	C84.795807,276.278961 84.778046,305.731812 84.789444,335.664337 
	C80.602943,337.235962 82.047272,333.924500 82.040794,332.259247 
	C81.955063,310.201111 81.982956,288.142517 81.982719,266.084045 
	C81.982658,260.776733 81.865852,255.464844 82.073021,250.165634 
	C82.120346,248.955170 83.287254,247.788452 84.376221,246.713867 
z"/>
<path fill="#F0F0F0" opacity="1.000000" stroke="none" 
	d="
M72.801353,160.571915 
	C66.936172,163.933838 61.427231,167.128098 55.516224,170.555496 
	C54.883755,165.724564 54.186077,160.395584 53.442249,154.714111 
	C61.576035,154.714111 68.978165,154.714111 76.528801,154.714111 
	C77.984146,158.129089 76.709618,159.912292 72.801353,160.571915 
z"/>
<path fill="#F3F3F3" opacity="1.000000" stroke="none" 
	d="
M268.875916,338.101685 
	C274.310364,334.922516 279.375519,331.863861 285.010284,328.461212 
	C285.746979,333.477875 286.536743,338.856293 287.379181,344.593140 
	C279.245117,344.593140 271.825195,344.593140 264.410370,344.593140 
	C262.242554,340.113068 265.279419,339.105530 268.875916,338.101685 
z"/>
<path fill="#F0C51F" opacity="1.000000" stroke="none" 
	d="
M184.985962,79.982765 
	C191.748322,86.803696 194.061264,95.737762 195.715408,104.632011 
	C197.349548,113.418831 197.862030,122.435295 198.504990,131.377014 
	C198.852463,136.209686 197.587158,140.672882 192.368347,142.720688 
	C196.246429,130.475006 194.210373,118.469574 192.327072,106.734665 
	C190.870438,97.658417 187.503586,88.888741 184.985962,79.982765 
z"/>
<path fill="#EEC420" opacity="1.000000" stroke="none" 
	d="
M155.923676,419.124725 
	C153.916397,416.217499 151.429260,413.529419 149.984207,410.365417 
	C143.422821,395.998962 142.028458,380.615875 142.392776,365.107208 
	C142.461456,362.183167 145.494003,359.328735 147.636505,357.047485 
	C147.542587,362.546967 146.429214,367.448914 146.498779,372.333984 
	C146.728699,388.480042 149.327591,404.224701 155.923676,419.124725 
z"/>
<path fill="#F9F9F9" opacity="1.000000" stroke="none" 
	d="
M282.403015,364.990601 
	C277.179779,361.782227 272.405884,358.503632 267.255005,356.000977 
	C264.592072,354.707092 263.068695,353.647064 264.150177,350.305115 
	C271.518616,350.305115 279.048065,350.305115 287.324860,350.305115 
	C286.584961,355.155273 285.925201,359.841980 285.059113,364.490265 
	C284.987549,364.874298 283.516754,364.997559 282.403015,364.990601 
z"/>
<path fill="#FAFAFA" opacity="1.000000" stroke="none" 
	d="
M56.070724,132.806595 
	C62.520966,136.279572 68.888374,139.965378 75.051010,143.966553 
	C76.302597,144.779160 76.782181,146.780807 77.991348,148.884415 
	C69.292511,148.884415 61.766827,148.884415 53.299282,148.884415 
	C54.208282,143.411087 55.061947,138.270920 56.070724,132.806595 
z"/>
<path fill="#DCD7C8" opacity="1.000000" stroke="none" 
	d="
M256.470917,371.949219 
	C256.030060,351.063538 255.998489,330.251099 255.911865,308.927795 
	C256.419586,307.453552 256.982330,306.490204 257.545074,305.526886 
	C257.920135,305.801025 258.295166,306.075165 258.670227,306.349335 
	C258.670227,327.487579 258.688751,348.625916 258.594788,369.763733 
	C258.591461,370.519165 257.476868,371.269714 256.470917,371.949219 
z"/>
<path fill="#FEF6D9" opacity="1.000000" stroke="none" 
	d="
M84.277672,127.109283 
	C84.733826,147.942123 84.775200,168.703903 84.874512,189.975220 
	C84.218765,191.370499 83.505081,192.256241 81.982635,194.145706 
	C81.982635,186.189987 81.982597,179.581787 81.982643,172.973587 
	C81.982750,159.007431 81.931450,145.040771 82.065048,131.075882 
	C82.077980,129.724396 83.236275,128.383850 84.277672,127.109283 
z"/>
<path fill="#FEF7E1" opacity="1.000000" stroke="none" 
	d="
M256.465576,252.248230 
	C256.015472,222.700104 256.037384,193.254578 256.027405,163.329895 
	C256.833008,163.836105 258.397461,164.818085 258.402130,165.807419 
	C258.533325,193.612473 258.523987,221.418304 258.440247,249.223740 
	C258.437103,250.267609 257.460510,251.308533 256.465576,252.248230 
z"/>
<path fill="#EEECE2" opacity="1.000000" stroke="none" 
	d="
M184.989410,80.001373 
	C187.503586,88.888741 190.870438,97.658417 192.327072,106.734665 
	C194.210373,118.469574 196.246429,130.475006 192.008972,142.667084 
	C192.023758,143.065491 191.999191,143.012711 191.768768,143.017120 
	C191.372208,143.310913 191.206039,143.600311 191.039886,143.889694 
	C190.492493,143.458115 189.408630,142.908035 189.474060,142.611816 
	C194.758163,118.689636 190.910141,96.227875 178.871063,74.573868 
	C178.896622,74.100555 179.212067,73.784691 179.212067,73.784691 
	C180.263367,74.690437 181.314682,75.596184 182.644226,77.039047 
	C183.310684,78.045883 183.698898,78.515594 184.087128,78.985313 
	C184.087128,78.985313 184.014236,78.977211 184.054794,79.244019 
	C184.407394,79.680161 184.719452,79.849495 185.031494,80.018822 
	C185.031494,80.018822 184.992859,80.019981 184.989410,80.001373 
z"/>
<path fill="#F0EDDF" opacity="1.000000" stroke="none" 
	d="
M155.949203,419.094788 
	C149.327591,404.224701 146.728699,388.480042 146.498779,372.333984 
	C146.429214,367.448914 147.542587,362.546967 147.971909,357.252747 
	C147.829712,356.852722 147.904068,356.877991 148.268219,356.845825 
	C148.754135,356.359344 148.875916,355.905090 148.997711,355.450806 
	C149.664444,355.992188 150.982849,356.663239 150.904633,357.056427 
	C146.502396,379.184113 149.708588,400.247528 159.511124,420.434448 
	C159.838165,421.107941 159.946991,421.887329 160.390686,423.425812 
	C158.867599,422.622070 158.082047,422.207520 157.174576,421.144867 
	C156.671051,420.005646 156.289444,419.514587 155.907837,419.023499 
	C155.907837,419.023499 155.974731,419.064880 155.949203,419.094788 
z"/>
<path fill="#EAECF2" opacity="1.000000" stroke="none" 
	d="
M187.598221,149.953018 
	C175.461868,159.426849 162.924362,168.825424 150.220032,178.492279 
	C148.798553,178.826385 147.543900,178.892212 146.289246,178.958038 
	C146.149246,178.674820 146.009247,178.391617 145.869263,178.108398 
	C157.155045,169.723831 168.382278,161.258179 179.779083,153.027344 
	C181.902435,151.493820 184.706940,150.903427 187.598221,149.953018 
z"/>
<path fill="#F2EBEA" opacity="1.000000" stroke="none" 
	d="
M140.906555,449.536072 
	C144.224899,443.093414 147.739746,436.973236 151.474106,430.470856 
	C147.732651,428.203705 144.135071,426.023712 140.214417,423.637329 
	C141.217972,423.260925 142.867462,422.502747 143.815170,423.022980 
	C147.866562,425.246979 151.710876,427.848145 156.076202,430.591736 
	C152.132111,437.471375 148.145279,444.425598 143.922043,451.792145 
	C142.828278,451.041931 141.965652,450.450226 140.906555,449.536072 
z"/>
<path fill="#F3F1E8" opacity="1.000000" stroke="none" 
	d="
M153.199127,349.054626 
	C163.665222,340.793762 174.547089,332.628662 185.418015,324.449005 
	C186.611542,323.550934 187.741989,322.569031 188.946777,321.282898 
	C188.991882,320.939758 188.999405,320.992767 189.230057,321.063293 
	C189.907486,320.878204 190.354279,320.622650 190.801056,320.367065 
	C191.931412,320.238007 193.061783,320.108948 194.758926,319.915161 
	C194.169647,320.813354 193.964218,321.412079 193.545258,321.723480 
	C181.886261,330.388824 170.237427,339.068878 158.483704,347.604370 
	C157.176086,348.553955 155.250656,348.652771 153.199127,349.054626 
z"/>
<path fill="#F3EDEC" opacity="1.000000" stroke="none" 
	d="
M199.853149,49.577461 
	C196.432816,56.058186 192.833420,62.227577 189.100174,68.626358 
	C192.775269,70.809258 196.329514,72.920380 200.265747,75.158615 
	C199.547989,75.716217 198.052444,76.834404 197.412460,76.466064 
	C193.121780,73.996559 189.013123,71.210762 184.626434,68.386536 
	C188.296585,61.996838 192.009094,55.730431 195.509827,49.347874 
	C197.047562,46.544273 198.268127,48.062183 199.853149,49.577461 
z"/>
<path fill="#F3F1E8" opacity="1.000000" stroke="none" 
	d="
M171.126343,417.670898 
	C169.163406,415.218140 166.505402,412.671631 165.122162,409.558685 
	C160.880432,400.012787 159.995926,389.761749 159.898193,379.432617 
	C159.852692,374.624451 159.523376,369.785858 159.967987,365.021301 
	C160.166794,362.890991 161.954163,360.908966 163.404449,358.834595 
	C163.253372,366.685822 162.182800,374.570618 162.307312,382.436462 
	C162.500580,394.648071 164.372284,406.627869 171.126343,417.670898 
z"/>
<path fill="#EEEBDE" opacity="1.000000" stroke="none" 
	d="
M206.170166,132.501755 
	C205.593353,133.205811 205.016556,133.909866 203.945389,135.217346 
	C203.208221,116.565018 202.244186,98.746582 193.606018,82.421227 
	C194.042786,82.223259 194.479553,82.025284 194.916321,81.827316 
	C196.511459,84.578308 198.106583,87.329308 199.848358,90.783623 
	C204.372421,104.809395 206.018280,118.543114 206.170166,132.501755 
z"/>
<path fill="#F6EEEC" opacity="1.000000" stroke="none" 
	d="
M173.657288,464.135071 
	C173.894318,455.589111 174.465240,447.183990 174.792603,438.365234 
	C176.302551,438.183319 178.056076,438.415009 180.235611,438.703003 
	C179.445541,447.535858 178.688309,456.001617 177.893829,464.883698 
	C176.448273,464.658569 175.219727,464.467224 173.657288,464.135071 
z"/>
<path fill="#F1EEE4" opacity="1.000000" stroke="none" 
	d="
M172.609390,85.797470 
	C178.281281,91.295135 178.985535,98.740959 179.780502,105.828705 
	C180.791977,114.846672 180.853958,123.989456 180.925339,133.081573 
	C180.943024,135.334824 179.418839,137.600189 178.216034,139.891602 
	C179.757538,121.556625 179.062195,103.459152 172.609390,85.797470 
z"/>
<path fill="#F7F1F0" opacity="1.000000" stroke="none" 
	d="
M166.867981,34.874760 
	C166.533295,43.371201 165.841415,51.717377 165.142029,60.477505 
	C162.941025,61.041912 160.542877,61.377239 160.797562,57.996178 
	C161.387573,50.163731 162.060318,42.337521 162.728882,34.149136 
	C164.348160,34.395485 165.429474,34.559990 166.867981,34.874760 
z"/>
<path fill="#EEECE2" opacity="1.000000" stroke="none" 
	d="
M134.731384,366.158051 
	C135.194580,365.553741 135.657761,364.949402 136.827377,363.423431 
	C137.245255,382.703674 138.591690,400.792908 146.327957,417.904205 
	C144.977585,415.975891 143.627213,414.047577 142.147247,411.464630 
	C141.650894,410.213104 141.284134,409.616211 140.917389,409.019287 
	C140.917389,409.019287 140.994049,409.022308 140.995056,408.652435 
	C136.289642,394.630432 134.616241,380.527222 134.731384,366.158051 
z"/>
<path fill="#E4E6ED" opacity="1.000000" stroke="none" 
	d="
M97.264572,325.446838 
	C106.996391,316.227905 117.515007,308.778259 130.634689,305.036255 
	C130.470169,305.680450 130.019836,306.454224 129.353928,306.762970 
	C117.378242,312.314880 106.567856,319.483917 97.191956,330.556122 
	C97.191956,328.199982 97.191956,327.005585 97.264572,325.446838 
z"/>
<path fill="#E9C124" opacity="1.000000" stroke="none" 
	d="
M134.449921,366.348755 
	C134.616241,380.527222 136.289642,394.630432 140.964233,408.675262 
	C135.314621,402.040741 134.184540,393.475220 133.054153,385.028503 
	C132.229904,378.869446 130.551270,372.497620 134.449921,366.348755 
z"/>
<path fill="#F2EBEA" opacity="1.000000" stroke="none" 
	d="
M243.125992,174.094482 
	C234.370285,180.184845 225.732376,186.044998 216.964981,191.704575 
	C215.533630,192.628540 213.530701,192.667007 211.394043,193.187973 
	C211.148743,192.858963 211.194016,192.209656 211.469360,192.090088 
	C223.432709,186.894531 233.849365,179.540802 243.200653,169.021149 
	C243.200653,171.168976 243.200653,172.483215 243.125992,174.094482 
z"/>
<path fill="#F3EDEC" opacity="1.000000" stroke="none" 
	d="
M203.367218,460.974487 
	C201.412643,454.513702 199.880096,448.145752 198.274506,441.414795 
	C199.607483,440.804962 201.013504,440.558197 202.679337,440.265808 
	C204.638016,447.085327 206.487808,453.525726 208.527679,460.627930 
	C206.556671,460.810699 205.172958,460.939026 203.367218,460.974487 
z"/>
<path fill="#EBC121" opacity="1.000000" stroke="none" 
	d="
M206.423737,132.310455 
	C206.018280,118.543114 204.372421,104.809395 200.033081,91.073135 
	C201.478104,93.371063 203.569916,95.941566 204.163727,98.820992 
	C205.952713,107.495872 207.358124,116.266113 208.454330,125.056396 
	C208.734360,127.301849 207.315582,129.759155 206.423737,132.310455 
z"/>
<path fill="#F7F1F0" opacity="1.000000" stroke="none" 
	d="
M136.741241,38.047577 
	C138.865280,44.526932 140.547272,50.918812 142.346115,57.711552 
	C141.051620,58.299652 139.640289,58.486893 137.996918,58.704918 
	C136.269913,52.759193 134.677994,47.073696 132.956055,41.427853 
	C131.938339,38.091030 133.820862,37.798115 136.741241,38.047577 
z"/>
<path fill="#EDECE9" opacity="1.000000" stroke="none" 
	d="
M84.772530,203.049377 
	C84.747963,206.922943 84.590942,210.540253 84.460144,214.575165 
	C81.694580,214.804810 78.798767,215.004578 76.147415,214.293213 
	C74.367851,213.815735 72.934669,212.047302 71.346512,210.856476 
	C72.882790,209.628189 74.419075,208.399902 76.663200,206.605667 
	C76.864388,208.760773 76.657349,209.879028 77.106415,210.572250 
	C77.781769,211.614792 78.916428,212.359818 79.855820,213.231339 
	C80.559273,212.281967 81.797249,211.371338 81.869385,210.376190 
	C82.120010,206.918411 81.966179,203.431320 81.966179,198.866226 
	C83.201363,200.680222 83.920723,201.736679 84.772530,203.049377 
z"/>
<path fill="#EDECE9" opacity="1.000000" stroke="none" 
	d="
M256.083252,296.345093 
	C255.991867,292.333679 256.037598,288.642365 256.062347,284.492401 
	C258.841644,284.230865 261.743164,284.048370 264.406433,284.758972 
	C266.175629,285.230927 267.604187,286.979706 269.185211,288.156952 
	C267.855499,289.387604 266.525757,290.618286 264.467102,292.523560 
	C264.084808,290.230804 264.189972,289.003723 263.662231,288.184174 
	C263.053528,287.238831 261.860504,286.050385 260.969391,286.088745 
	C260.154327,286.123749 258.821991,287.597504 258.730682,288.535858 
	C258.426178,291.665314 258.576691,294.839081 258.544403,298.465637 
	C258.535980,298.935425 258.588837,298.892853 258.588837,298.892853 
	C257.799316,298.150299 257.009827,297.407745 256.083252,296.345093 
z"/>
<path fill="#F3F1E8" opacity="1.000000" stroke="none" 
	d="
M124.120979,365.922913 
	C126.744896,363.138458 129.593140,360.519714 132.456863,357.917999 
	C133.766190,356.728455 134.957672,355.310760 136.463730,354.457245 
	C139.368561,352.811066 142.458923,351.492218 145.879425,350.094421 
	C140.775589,356.595093 131.197205,358.674683 127.605515,367.723846 
	C126.537842,367.189575 125.444733,366.642548 124.120979,365.922913 
z"/>
<path fill="#EDECE9" opacity="1.000000" stroke="none" 
	d="
M84.285210,220.645264 
	C84.704941,221.617477 84.704842,222.476212 84.719498,223.657547 
	C79.596268,224.071411 74.355865,224.470886 70.955421,219.049973 
	C75.258743,219.543900 79.562057,220.037827 84.285210,220.645264 
z"/>
<path fill="#EDECE9" opacity="1.000000" stroke="none" 
	d="
M256.566376,278.370361 
	C256.119385,277.386597 256.101349,276.530731 256.059631,275.354248 
	C261.123322,275.183716 266.575531,274.259796 270.735901,280.208588 
	C265.552673,279.563446 261.273987,279.030853 256.566376,278.370361 
z"/>
<path fill="#E6E5DF" opacity="1.000000" stroke="none" 
	d="
M84.244797,229.629242 
	C84.670540,230.586212 84.686455,231.415192 84.658051,232.553711 
	C79.684433,232.621445 74.621452,232.758957 70.257408,227.910385 
	C75.440788,228.517715 79.637886,229.009491 84.244797,229.629242 
z"/>
<path fill="#E4E6ED" opacity="1.000000" stroke="none" 
	d="
M216.734741,133.369003 
	C213.546692,136.322983 210.107162,139.036438 206.296143,141.486832 
	C205.895782,140.965134 205.866943,140.706497 205.838104,140.447845 
	C208.379837,137.679871 210.921585,134.911896 213.856216,131.716064 
	C214.316818,131.963699 215.400040,132.546082 216.734741,133.369003 
z"/>
<path fill="#EEECE2" opacity="1.000000" stroke="none" 
	d="
M256.565247,269.429138 
	C256.133911,268.443848 256.117676,267.620911 256.114441,266.488892 
	C260.726410,266.527924 265.519348,266.288574 270.293213,270.948639 
	C264.898804,270.398743 260.939575,269.995117 256.565247,269.429138 
z"/>
<path fill="#EDECE9" opacity="1.000000" stroke="none" 
	d="
M84.150101,238.265274 
	C84.584938,239.011185 84.630295,239.670349 84.666077,240.659698 
	C80.028976,241.289093 75.459534,241.407410 71.352257,236.493362 
	C76.169144,237.147552 79.964890,237.663040 84.150101,238.265274 
z"/>
<path fill="#EDECE9" opacity="1.000000" stroke="none" 
	d="
M256.595947,260.794617 
	C256.155396,260.011688 256.122925,259.346741 256.074249,258.349182 
	C260.558960,257.755890 264.974640,257.751923 267.954834,262.291626 
	C264.304565,261.831970 260.654266,261.372284 256.595947,260.794617 
z"/>
<path fill="#EAECF2" opacity="1.000000" stroke="none" 
	d="
M205.492493,140.578735 
	C205.866943,140.706497 205.895782,140.965134 205.965149,141.612000 
	C203.374313,146.127747 200.167801,149.335663 194.360626,148.955383 
	C197.686920,146.156525 201.416901,143.433090 205.492493,140.578735 
z"/>
<path fill="#EEEBDE" opacity="1.000000" stroke="none" 
	d="
M177.413483,364.970703 
	C176.835754,361.429413 176.615936,357.799042 176.699280,353.926025 
	C180.825439,356.992004 181.005447,359.613586 177.413483,364.970703 
z"/>
<path fill="#F3F1E8" opacity="1.000000" stroke="none" 
	d="
M164.788269,132.936035 
	C163.197708,136.983337 162.162598,141.039307 164.127472,145.690826 
	C159.449356,141.700104 159.593491,137.699173 164.788269,132.936035 
z"/>
<path fill="#EEC420" opacity="1.000000" stroke="none" 
	d="
M155.803925,419.343048 
	C156.289444,419.514587 156.671051,420.005646 157.016235,420.825500 
	C156.553223,420.657043 156.126617,420.159821 155.803925,419.343048 
z"/>
<path fill="#E9C124" opacity="1.000000" stroke="none" 
	d="
M140.811523,409.384705 
	C141.284134,409.616211 141.650894,410.213104 142.009750,411.181519 
	C141.569794,410.952057 141.137726,410.351105 140.811523,409.384705 
z"/>
<path fill="#F1EEE4" opacity="1.000000" stroke="none" 
	d="
M177.613586,139.605438 
	C177.529144,140.227005 177.144089,140.624527 176.427216,141.028748 
	C176.501251,140.484085 176.907104,139.932739 177.613586,139.605438 
z"/>
<path fill="#EEEBDE" opacity="1.000000" stroke="none" 
	d="
M175.447968,366.032745 
	C175.596741,365.526825 176.063843,365.020569 176.788239,364.792786 
	C176.619141,365.391663 176.192719,365.712036 175.447968,366.032745 
z"/>
<path fill="#F7C91B" opacity="1.000000" stroke="none" 
	d="
M190.516418,320.286926 
	C190.354279,320.622650 189.907486,320.878204 189.206451,321.050659 
	C189.378738,320.713959 189.805267,320.460388 190.516418,320.286926 
z"/>
<path fill="#F0C51F" opacity="1.000000" stroke="none" 
	d="
M184.109940,78.656891 
	C183.698898,78.515594 183.310684,78.045883 182.848541,77.260071 
	C183.227325,77.405464 183.680038,77.866966 184.109940,78.656891 
z"/>
<path fill="#EEC420" opacity="1.000000" stroke="none" 
	d="
M148.625076,355.566864 
	C148.875916,355.905090 148.754135,356.359344 148.278748,356.883636 
	C148.034225,356.530060 148.143341,356.106506 148.625076,355.566864 
z"/>
<path fill="#EEECE2" opacity="1.000000" stroke="none" 
	d="
M178.736755,74.256325 
	C178.418839,74.031372 178.260773,73.650658 178.102707,73.269936 
	C178.383209,73.259697 178.663696,73.249451 179.078125,73.511948 
	C179.212067,73.784691 178.896622,74.100555 178.736755,74.256325 
z"/>
<path fill="#DCD7C8" opacity="1.000000" stroke="none" 
	d="
M258.461243,299.003662 
	C258.588837,298.892853 258.535980,298.935425 258.507935,298.922607 
	C258.479889,298.909821 258.464233,299.330383 258.464233,299.330383 
	C258.464233,299.330383 258.333618,299.114502 258.461243,299.003662 
z"/>
<path fill="#F0C51F" opacity="1.000000" stroke="none" 
	d="
M185.027466,79.721375 
	C184.719452,79.849495 184.407394,79.680161 184.071716,79.211494 
	C184.373199,79.082748 184.698318,79.253342 185.027466,79.721375 
z"/>
<path fill="#F3F1E8" opacity="1.000000" stroke="none" 
	d="
M163.944916,146.402756 
	C164.261719,146.145096 164.592926,146.222275 165.013702,146.624359 
	C164.721970,146.878708 164.340652,146.808151 163.944916,146.402756 
z"/>
<path fill="#F0C51F" opacity="1.000000" stroke="none" 
	d="
M191.317169,143.883438 
	C191.206039,143.600311 191.372208,143.310913 191.797211,143.022964 
	C191.902191,143.308670 191.748322,143.592926 191.317169,143.883438 
z"/>
<path fill="#3A3A3A" opacity="1.000000" stroke="none" 
	d="
M150.893387,92.472885 
	C151.263214,93.572571 151.776871,94.503235 151.531128,95.141548 
	C150.815613,97.000244 149.796249,98.741951 148.896042,100.529541 
	C147.964569,98.884567 146.442978,97.311180 146.232788,95.578697 
	C145.870773,92.594894 147.219559,90.710503 150.893387,92.472885 
z"/>
<path fill="#272625" opacity="1.000000" stroke="none" 
	d="
M189.271042,405.595581 
	C189.068176,404.533722 188.835251,403.810242 189.037109,403.240845 
	C189.579224,401.711639 190.195267,400.174194 191.080078,398.837341 
	C191.215683,398.632416 193.740463,399.400726 193.780258,399.843079 
	C193.979401,402.055786 193.718674,404.309845 193.619644,406.549377 
	C192.226181,406.367645 190.832718,406.185944 189.271042,405.595581 
z"/>
<path fill="#3A3A3A" opacity="1.000000" stroke="none" 
	d="
M144.162033,162.178925 
	C145.022003,163.679016 145.529434,165.193741 146.036865,166.708466 
	C144.837021,166.751831 143.637177,166.795181 142.437347,166.838531 
	C142.894730,165.290192 143.352112,163.741867 144.162033,162.178925 
z"/>
</svg>