<svg xmlns="http://www.w3.org/2000/svg" viewBox="0 0 336 496" xml:space="preserve"><path fill="currentColor" d="M1 19.428c3.53.296 5.884-2.194 8.62-3.61 4.396-2.272 6.637-1.068 6.69 3.85.09 8.493.137 16.99-.01 25.482-.061 3.593.516 6.303 4.78 6.65 1.529.125 2.454 1.027 2.307 2.666-.17 1.89-1.674 1.837-2.987 1.837-6.161 0-12.322-.054-18.941-.196C1 54.611 1 53.222 1.323 51.55c4.733.733 6.478-1.213 6.387-5.525-.105-4.973-.023-9.95-.021-14.926C7.69 24.243 7.69 24.243 1 25v-5.572zM337 482.572c-2.42 1.112-4.517 2.435-6.696 3.642-4.281 2.37-6.577 1.032-6.625-3.866-.083-8.621-.132-17.245.018-25.864.06-3.481-.75-5.867-4.653-6.192-1.636-.137-3.045-.793-2.846-2.706.217-2.087 2.038-1.876 3.475-1.88 5.47-.018 10.94.045 16.869.186.458 1.497.458 2.886.152 4.607-3.357.057-4.429 1.579-4.39 4.485.085 6.31.11 12.625-.026 18.934-.082 3.823 1.763 4.18 4.722 3.082v5.572zM227.465 450.304c-6.765-11.393-.7-19.184 6.772-26.778-3.858 3.226-7.443 6.564-12.738 6.766-5.29.201-9.872-1.29-13.363-5.39-5.078-5.963-4.808-15.542.579-21.012 4.228-4.294 9.405-5.293 15.17-4.188 5.645 1.082 8.604 5.952 13.233 9.584.09-7.509-1.652-13.759-5.72-19.433-2.903-4.048-2.138-5.574 2.782-5.76a142.35 142.35 0 0 1 11.979.028c4.332.2 5.332 1.878 2.83 5.221-4.272 5.71-6.032 12.093-6.28 19.555 2.424-.907 3.685-2.856 5.242-4.35 7.051-6.774 16.931-7.114 23.23-.744 5.903 5.97 5.808 16.12-.208 22.081-6.423 6.366-16.009 5.903-23.063-1.184-.537-.54-.646-1.507-1.477-1.761.344 2.896 2.434 4.324 4.05 6.11 6.72 7.436 6.817 16.894.202 23.229-6.529 6.251-15.966 5.565-23.22-1.974zM93.877 424.257c-1.533-.752-1.905.863-2.704 1.595-6.467 5.92-16.122 5.986-22.119.07-5.977-5.896-6.079-16.068-.22-22.123 5.792-5.986 15.774-6.187 22.056-.175 1.88 1.799 3.088 4.3 5.33 5.836.953-7.537-.55-13.788-4.645-19.295-.989-1.33-2.365-2.663-1.586-4.457.925-2.133 3.095-1.59 4.832-1.628 3.827-.085 7.666-.141 11.485.06 4.285.227 5.172 1.863 2.576 5.323-4.285 5.71-5.847 12.16-6.375 19.619 2.571-.974 3.813-2.95 5.367-4.452 7.068-6.827 16.915-7.24 23.232-.905 5.944 5.96 5.906 16.09-.083 22.091-6.416 6.43-16.092 5.998-23.059-1.068-.56-.568-.876-1.376-1.306-2.073l-1.035.952c2.215 2.544 4.614 4.952 6.605 7.661 4.009 5.455 4.513 11.497 1.303 17.374-3.394 6.216-9.128 8.518-16.055 7.59-6.22-.832-10.365-4.49-12.16-10.391-1.511-4.972-1.061-9.93 2.267-14.215 1.936-2.493 4.105-4.805 6.294-7.389zM188.31 160.243c-6.999-.757-10.545-5.983-15.808-10.813.22 7.432 1.575 13.423 5.155 18.887 1.136 1.733 3.498 3.295 2.116 5.657-1.3 2.22-3.908 1.217-5.964 1.302-3.159.132-6.328.074-9.491.001-1.441-.033-3.156.372-4.077-1.19-1.054-1.786.155-3.137 1.18-4.47 4.33-5.636 5.71-12.18 6.098-19.025l-1.275-1.16c-1.499 1.893-2.826 3.959-4.527 5.647-6.62 6.57-16.18 6.968-22.407 1.077-5.916-5.598-6.401-15.834-1.032-21.759 5.794-6.394 15.405-6.866 22.519-1.102.635.516 1.24 1.069 2.512 1.05-1.456-1.62-2.909-3.243-4.366-4.862-6.02-6.687-5.989-15.992.075-22.06 5.969-5.973 15.365-6.089 21.64-.268 6.19 5.74 6.54 15.21.777 22.061-1.49 1.773-3.098 3.448-4.481 5.446 3.43-2.58 6.893-4.965 11.317-5.297 4.321-.324 8.283.572 11.698 3.331 4.845 3.916 6.816 11.234 4.696 17.236-2.4 6.793-7.65 10.2-16.355 10.311zM204.826 362.155c-5.682 12.064-16.389 13.888-28.063 5.426 1.609 1.738 3.287 3.417 4.815 5.225 5.222 6.177 5.245 15.172.113 21.093-4.858 5.605-12.91 6.855-19.533 3.032-8.237-4.754-10.221-15.754-4.21-23.389 2.048-2.6 4.818-4.606 7.014-8.926-4.622 4.235-8.12 7.85-13.573 8.129-5.372.274-9.836-1.295-13.302-5.427-4.937-5.886-4.776-15.049.438-20.614 4.233-4.52 9.41-5.821 15.472-4.48 5.766 1.274 8.686 6.32 13.432 10.07-.468-7.6-1.526-14.19-5.945-19.8-1.03-1.309-2.24-2.73-1.372-4.5.933-1.9 2.913-1.223 4.474-1.26 3.994-.092 7.996-.133 11.986.026 3.926.157 4.859 1.843 2.414 5.012-4.49 5.82-5.875 12.497-6.57 20.876 7.776-8.36 15.52-15.283 26.541-8.134 6.203 4.022 7.257 10.368 5.87 17.641zM105.49 94.738c-.852-.745-1.485-1.252-2.846-2.344-.087 7.125 1.631 12.907 4.97 18.296 1.1 1.775 3.512 3.347 2.338 5.666-1.299 2.567-4.165 1.382-6.362 1.49-3.323.164-6.67.166-9.991-.036-4.218-.257-5.095-1.992-2.415-5.378 4.473-5.653 5.668-12.223 6.59-20.624-2.771 2.534-4.645 4.172-6.435 5.898-6.72 6.48-16.286 6.758-22.318.614-5.974-6.085-5.98-16.107-.013-22.093 6.333-6.353 16.06-6.09 22.778.622.673.673 1.319 1.374 2.529 1.563-2.385-2.857-5.048-5.53-7.094-8.611-3.631-5.47-3.72-11.397-.385-16.99 3.414-5.723 8.882-7.858 15.399-7.057 6.205.762 10.51 4.258 12.365 10.172 1.793 5.718 1.104 11.191-3.263 15.786-1.996 2.1-4.281 3.991-5.328 6.961 5.096-5.155 10.69-8.561 18.242-6.303 6.276 1.877 10.542 6.763 11.059 12.746.618 7.165-2.262 12.895-8.003 15.926-5.488 2.897-12.593 2.196-17.359-1.831-1.52-1.285-2.832-2.816-4.459-4.473zM92.738 274.299c4.387-.074 8.384-.211 12.379-.166 1.74.02 3.925-.491 4.857 1.597.8 1.79-.687 3.154-1.636 4.46-4.028 5.54-5.498 11.793-5.879 18.803 2.91-.89 4.09-3.037 5.732-4.576 6.948-6.51 16.767-6.82 22.835-.627 5.996 6.12 5.972 16.072-.052 22.05-6.316 6.268-15.773 5.942-22.691-.871-.662-.652-.846-1.787-1.252-2.698l-1.426 1.353c2.229 2.563 4.626 5 6.652 7.713 5.402 7.239 4.026 16.806-3.038 22.243-6.295 4.844-16.407 3.43-21.52-3.01-4.563-5.748-4.122-14.513 1.115-20.728 1.766-2.097 3.684-4.066 5.364-6.235-10.432 8.187-19.117 8.85-25.556 1.795-5.48-6.005-5.424-15.495.127-21.365 6.882-7.277 15.35-5.8 27.965 4.88 1.195-5.676-.555-11.864-5.38-19.168-1.39-2.105-3.51-4.409 1.404-5.45zM209.1 315.913c-5.948-7.736-5.867-16.014-.247-22.008 4.287-4.573 9.666-4.906 15.228-4.03 5.604.88 8.575 5.89 12.883 9.44 1.24-9.398-3.634-16.446-8.234-24.239 7.06-1.153 12.985-1.254 18.887-.744 3.373.291 3.065 2.49 1.468 4.599-3.617 4.776-5.446 10.228-6.346 16.062-.195 1.26-.785 2.546.542 4.177 1.934-1.821 3.815-3.604 5.707-5.373 4.747-4.441 11.79-5.736 17.6-3.067 6.099 2.802 8.827 7.713 8.779 14.374-.046 6.32-2.943 10.908-8.484 13.578-5.896 2.842-11.654 2.123-16.84-1.983-1.374-1.089-2.569-2.406-4.428-3.095 2.317 2.705 4.882 5.24 6.9 8.153 3.849 5.554 4.16 11.578.7 17.386-3.533 5.927-9.17 8.029-15.843 7.073-6.18-.885-10.343-4.553-12.09-10.49-1.767-6.007-.413-11.522 3.819-16.228 1.731-1.926 3.518-3.802 5.108-5.847-10.822 8.187-16.37 8.79-25.109 2.262zM96.082 203.11c-1.989 1.922-3.768 3.677-5.605 5.37-6.121 5.643-15.596 5.657-21.24.057-6.084-6.035-6.28-16.023-.433-22.104 5.748-5.98 15.37-6.333 21.687-.708 1.468 1.308 2.678 2.905 4.776 3.696-2.506-2.942-5.163-5.77-7.484-8.85-4.452-5.91-4.28-14.073.193-19.449 5.454-6.557 15.561-7.533 21.965-2.12 6.77 5.721 7.502 15.62 1.657 22.32-2.009 2.303-4.551 4.203-5.856 7.564 10.51-8.587 18.75-9.342 25.364-2.567 5.664 5.8 5.885 15.431.447 21.34-4.091 4.445-9.196 5.636-15.026 4.699-5.936-.955-8.938-6.03-14.082-10.043.242 7.363 1.72 13.356 5.414 18.788 1.088 1.6 3.15 3.07 2.08 5.25-1.07 2.183-3.499 1.45-5.411 1.506-3.33.1-6.664.068-9.995.007-1.62-.03-3.58.347-4.465-1.456-.86-1.757.408-3.14 1.452-4.468 4.43-5.632 5.618-12.282 5.962-19.187.005-.091-.277-.302-.363-.273-.299.1-.57.282-1.037.628zM275.136 193.598c1.143 8.23-1.566 14.242-8.738 17.737-6.52 3.176-13.35 1.182-19.69-5.283-1.036-1.057-2.136-2.053-4.162-3.99.051 7.24 1.465 12.905 4.718 18.133.79 1.27 1.871 2.383 2.523 3.713.866 1.77.55 3.595-1.704 3.691-5.316.227-10.694.541-15.955-.024-3.796-.408-2.498-3.19-.96-5.164 4.581-5.885 6.056-12.662 6.384-19.806l-1.401-1.153c-1.737 2.206-3.258 4.634-5.25 6.577-6.472 6.308-15.958 6.273-21.857.117-6.052-6.316-6.01-15.994.096-22.021 6.056-5.979 15.712-5.878 22.046.275 1.178 1.145 2.2 2.453 4.072 3.01-2.493-2.927-5.15-5.73-7.446-8.805-4.985-6.674-4.256-15.417 1.54-20.881 5.985-5.645 15.446-5.667 21.293-.049 5.96 5.727 6.527 15.006 1.27 21.275-2.072 2.471-4.712 4.5-6.494 8.124 13.97-10.882 24.145-9.28 29.715 4.524zM275.343 87.888c-.913 8.646-6.275 13.9-14.028 14.775-8.31.938-12.747-5.165-18.997-10.856.614 7.915 1.827 14.032 5.665 19.453 1.114 1.573 3.148 3.107 1.912 5.249-1.172 2.029-3.588 1.284-5.51 1.334-3.326.085-6.662.107-9.982-.06-1.55-.078-3.56.423-4.426-1.468-.83-1.813.512-3.122 1.548-4.429 4.325-5.454 5.501-11.874 6.02-19.178-2.948 1.373-4.601 3.446-6.46 5.23-6.442 6.18-16.017 6.41-21.957.504-5.998-5.965-6.108-16.066-.24-22.085 6.087-6.246 16-6.26 22.408-.02.822.801 1.584 1.663 2.975 2.023-2.225-2.645-4.603-5.178-6.643-7.96-3.883-5.296-4.072-12.62-.695-17.836 3.49-5.39 10-8.021 16.55-6.688 10.968 2.23 15.802 16.209 8.59 24.895-2.096 2.525-4.841 4.525-6.921 9.135 6.924-7.328 13.761-10.644 22.13-6.282 5.467 2.849 8.27 7.531 8.061 14.264zM279.705 462.34c2.375-12.147 6.932-17.193 15.524-17.625 9.419-.474 14.737 3.869 16.66 14.12.889 4.737.878 9.6-.212 14.368-2.375 10.39-8.286 14.904-18.425 14.108-7.653-.6-12.87-6.914-13.518-16.532-.18-2.65-.04-5.323-.029-8.44m22.838 10.493c.244-5.986.542-11.991-1.278-17.81-.826-2.641-2.198-4.97-5.506-4.877-3.246.091-4.665 2.332-5.332 5.066-1.475 6.05-1.572 12.155-.425 18.294.711 3.806 1.06 8.473 5.809 8.722 5.259.275 5.534-4.768 6.732-9.395zM47.528 14.777c7.147 1.7 10.744 6.044 12.04 12.793 1.151 5.992 1.207 11.89-.433 17.727-2.273 8.085-8.222 12.254-16.715 12-7.203-.216-11.879-4.5-13.928-12.558-1.253-4.93-1.258-9.937-.466-14.834 1.756-10.874 7.664-15.396 19.502-15.128m3.126 25.392c.22-5.148.04-10.276-1.265-15.284-.71-2.721-2.292-4.963-5.298-5.248-2.62-.249-4.535 1.412-5.229 3.787-2.474 8.473-2.34 16.979.47 25.367.763 2.28 2.736 3.393 5.039 3.372 2.177-.019 3.659-1.459 4.502-3.409 1.056-2.444 1.575-5.035 1.781-8.585zM305.985 430.505c-4.418-3.211-4.84-7.244-2.995-12.122-5.566.484-9.541-1.114-10.857-6.343-.853-3.393.511-6.387 3.397-8.215 4.482-2.84 8.535-1.29 12.103 2.408.981-4.206-1.943-6.917-2.924-10.43 3.56-1.672 6.79-1.338 10.163-.368.624 3.594-3.746 5.867-2.025 9.8 4.02-2.363 8.126-4.574 12.314-.927 2.55 2.22 3.68 5.106 2.516 8.523-1.627 4.78-5.546 5.717-10.366 5.63.943 4.155 1.44 8.107-2.038 11.108-2.7 2.33-5.776 2.121-9.288.936zM25.33 71.978c3.965-1.946 7.533-2.085 10.434 1 3.096 3.293 3.117 7.09.211 11.184 5.321-1.068 9.349-.443 11.459 4.48 1.624 3.789.45 7.044-2.653 9.278-4.577 3.295-8.765 1.678-12.34-2.41-1.349 4.459 2.443 7.147 2.583 11.004-3.376 1.201-6.525 1.083-9.908.065-.09-4.045 3.682-6.897 2.798-11.255-3.553 3.686-7.635 6.025-12.518 2.81-2.855-1.88-4.1-4.875-3.206-8.305 1.383-5.303 5.53-6.575 10.736-6.344-1.436-4.4-1.442-8.235 2.404-11.507z"/></svg>