<svg version="1.1" id="Layer_1" xmlns="http://www.w3.org/2000/svg" xmlns:xlink="http://www.w3.org/1999/xlink" x="0px" y="0px"
	 width="100%" viewBox="0 0 336 496" enable-background="new 0 0 336 496" xml:space="preserve">
<path fill="currentColor" opacity="1.000000" stroke="none" 
	d="
M161.567566,216.090576 
	C170.045517,213.108444 177.383682,215.047989 181.532898,221.085632 
	C186.373795,228.129807 185.045334,234.983307 177.126068,244.540390 
	C181.215805,242.334229 185.300491,240.139786 190.148483,240.740692 
	C195.234268,241.371078 199.296860,243.605850 201.985291,248.089325 
	C205.993484,254.773682 204.740891,262.752563 198.875122,268.014282 
	C194.636246,271.816681 189.661163,272.413574 184.382248,271.196289 
	C179.109619,269.980469 176.058975,265.425476 171.373856,261.727722 
	C171.361877,269.322235 173.265030,275.431335 177.147354,280.993195 
	C178.070999,282.316406 179.748734,283.588043 178.877853,285.378876 
	C177.910690,287.367645 175.717560,286.871094 173.955948,286.903992 
	C170.128159,286.975494 166.291061,287.034973 162.469849,286.849792 
	C157.783936,286.622772 157.027939,285.134186 159.832199,281.431641 
	C164.029312,275.890106 165.902115,269.733154 165.704208,262.354523 
	C163.030762,263.094086 161.859497,265.187134 160.306061,266.677490 
	C153.428467,273.275726 143.811264,273.533691 137.542496,267.203857 
	C131.819351,261.424988 131.661453,251.345245 137.202209,245.479568 
	C143.205688,239.123978 153.054459,239.089874 160.073990,245.398026 
	C160.639450,245.906189 161.218002,246.399765 162.129166,246.666946 
	C157.413208,241.113617 151.780975,236.013168 153.227890,227.732407 
	C154.100647,222.737610 156.584244,218.725906 161.567566,216.090576 
z"/>
<path fill="currentColor" opacity="1.000000" stroke="none" 
	d="
M95.242722,104.281418 
	C95.635399,101.800583 96.186966,99.696327 94.662376,95.626747 
	C92.633423,98.328255 91.393997,100.522827 89.654175,102.197533 
	C83.307701,108.306389 73.467110,108.283249 67.610481,102.335709 
	C61.839088,96.474724 61.647282,86.662544 67.185234,80.581749 
	C72.822395,74.392029 82.645042,74.009796 89.282852,79.731094 
	C90.125717,80.457581 90.928589,81.230469 92.295731,81.491997 
	C89.950470,78.624725 87.296951,75.953056 85.326553,72.847916 
	C81.651878,67.056984 82.617393,59.224831 87.177933,54.369453 
	C91.771233,49.479191 99.501984,48.104847 105.582077,51.097626 
	C111.616798,54.068073 115.118118,60.630592 114.198219,67.168068 
	C113.482216,72.256508 110.167450,75.802048 106.983276,79.626007 
	C111.206451,77.300377 115.367828,75.057289 120.371574,75.741829 
	C125.280296,76.413391 129.171143,78.684204 131.821182,82.902664 
	C135.991013,89.540367 134.839767,97.576981 129.014938,102.863785 
	C121.915184,109.307755 114.961029,107.898689 101.664040,97.038773 
	C100.684799,106.227272 105.341431,113.276817 110.110130,120.976044 
	C102.697441,122.464066 96.444878,122.146126 90.239006,121.277931 
	C87.390045,120.879364 87.966042,118.875946 89.272781,117.209236 
	C92.203354,113.471359 94.262642,109.354408 95.242722,104.281418 
z"/>
<path fill="currentColor" opacity="1.000000" stroke="none" 
	d="
M103.191544,160.118011 
	C116.030594,165.848755 117.444214,174.963074 107.532730,189.321426 
	C112.278580,187.160721 116.377106,184.802612 121.228424,185.864731 
	C125.831757,186.872543 129.617371,189.113846 132.056870,193.207367 
	C135.955734,199.749771 134.982101,207.983887 129.071823,212.705017 
	C118.196960,221.391922 109.714432,215.514862 101.663795,206.327347 
	C100.669113,216.224533 105.477325,223.135742 109.740273,230.776962 
	C102.774948,232.644882 96.470291,232.206848 90.313225,231.469299 
	C86.693718,231.035721 88.323761,228.450562 89.683128,226.665207 
	C93.970016,221.035004 96.006264,214.746750 95.674583,207.187012 
	C93.037025,208.231781 91.776428,210.264572 90.159584,211.800735 
	C83.485603,218.141602 73.770393,218.438721 67.707123,212.420792 
	C61.725094,206.483490 61.519676,196.966019 67.239883,190.771729 
	C73.250656,184.262787 82.481506,183.956573 89.624168,190.034378 
	C90.354317,190.655670 91.060066,191.305649 92.245422,191.750397 
	C85.339508,184.214966 78.974030,176.505295 86.007271,165.984253 
	C89.984451,160.034775 96.061058,158.794083 103.191544,160.118011 
z"/>
<path fill="currentColor" opacity="1.000000" stroke="none" 
	d="
M230.101028,78.615967 
	C221.281311,69.711288 220.594131,60.086456 228.087875,53.492165 
	C234.016373,48.275208 243.291962,48.250557 249.127914,53.436188 
	C255.116196,58.757179 256.037201,67.561554 251.216614,74.248764 
	C249.894775,76.082436 248.321594,77.734924 246.479218,79.928360 
	C258.258362,74.030281 266.256714,74.858879 271.425110,82.157852 
	C275.962250,88.565331 275.061615,97.179375 269.286407,102.612938 
	C262.282623,109.202469 255.360687,107.877083 241.348434,96.844788 
	C241.399750,104.160576 243.118118,110.272972 247.010818,115.824463 
	C248.017365,117.259956 249.912842,118.689438 248.757462,120.626381 
	C247.687698,122.419815 245.464401,121.881104 243.687393,121.866440 
	C239.697342,121.833504 235.705856,121.710159 231.719925,121.519730 
	C228.051590,121.344482 227.266815,119.743576 229.572830,116.784981 
	C233.927368,111.198166 235.966293,104.881012 235.736130,97.313393 
	C233.055649,98.088615 231.876175,100.183853 230.307983,101.669533 
	C223.520950,108.099457 214.045074,108.515068 207.860016,102.556786 
	C201.816666,96.735008 201.567902,86.629868 207.316101,80.463264 
	C213.165421,74.188194 222.814682,74.078796 229.785812,80.163109 
	C230.460480,80.751930 230.850891,81.897514 232.125458,81.661613 
	C232.134018,80.311447 230.992279,79.731102 230.101028,78.615967 
z"/>
<path fill="currentColor" opacity="1.000000" stroke="none" 
	d="
M268.328949,213.451904 
	C257.148254,220.707153 249.303192,214.912201 241.652252,206.380890 
	C240.632263,216.210663 245.423355,223.122391 249.762802,230.766617 
	C242.607986,232.594330 236.143890,232.332001 229.845123,231.331635 
	C226.673691,230.827957 228.405273,228.310226 229.617065,226.728470 
	C233.926773,221.102905 236.065094,214.831512 235.655167,207.269180 
	C233.043427,208.173431 231.808929,210.233368 230.206467,211.754135 
	C223.473923,218.143509 213.874435,218.481506 207.744064,212.465317 
	C201.864716,206.695419 201.579971,196.930771 207.110458,190.735748 
	C212.843796,184.313492 222.616165,183.984665 229.559967,189.988190 
	C230.303635,190.631119 231.009750,191.317474 232.332916,191.464462 
	C230.182480,188.901672 227.817719,186.486938 225.924805,183.746277 
	C221.553680,177.417480 222.305679,169.262711 227.487946,164.060486 
	C232.631500,158.897110 241.048599,158.038239 247.273544,162.041550 
	C254.591400,166.747726 256.484741,176.734039 251.352676,184.001389 
	C250.019852,185.888748 248.404602,187.576630 245.962891,190.501511 
	C251.147171,187.775177 254.978958,185.170120 259.803040,185.732758 
	C264.724548,186.306778 268.724213,188.402603 271.498657,192.513275 
	C276.133606,199.380569 275.074768,206.647339 268.328949,213.451904 
z"/>
<path fill="currentColor" opacity="1.000000" stroke="none" 
	d="
M83.270309,447.398926 
	C82.105499,438.865936 87.372696,433.786743 92.212692,428.344910 
	C88.257736,431.108612 84.594193,434.157745 79.511566,434.298462 
	C74.535431,434.436249 70.317314,432.792877 67.028130,429.117584 
	C61.779640,423.253052 61.654755,414.256592 66.803490,408.582214 
	C70.772324,404.208191 75.731819,402.627502 81.697548,403.504425 
	C87.464264,404.352173 90.422325,409.185760 95.397087,412.795166 
	C96.084740,405.430328 94.162315,399.719330 90.517220,394.415375 
	C89.518692,392.962433 87.482841,391.634796 88.460136,389.676086 
	C89.509537,387.572876 91.941338,388.118866 93.880028,388.083954 
	C97.710625,388.014984 101.552788,387.925354 105.373337,388.141602 
	C109.461441,388.373047 110.190147,389.833191 107.756622,393.120422 
	C103.468376,398.913086 101.479446,405.312469 101.369865,412.330902 
	C101.923347,412.785614 102.476822,413.240326 103.030296,413.695068 
	C104.507973,411.730621 105.730232,409.488953 107.508385,407.850647 
	C114.503433,401.405914 124.296783,401.700226 130.277252,408.326630 
	C135.909744,414.567535 135.576462,424.261322 129.532242,429.996857 
	C123.143944,436.058899 113.852814,435.742889 107.164101,429.195557 
	C106.346397,428.395111 105.711746,427.407684 104.678268,426.802002 
	C105.609444,430.808746 109.139191,432.798798 111.241821,435.871094 
	C115.526794,442.132172 115.289970,449.717865 110.491074,455.274658 
	C106.031548,460.438538 98.144051,462.003418 91.742027,458.937561 
	C87.035316,456.683594 84.396278,452.835754 83.270309,447.398926 
z"/>
<path fill="currentColor" opacity="1.000000" stroke="none" 
	d="
M234.276581,401.823517 
	C233.119217,398.228485 231.332626,395.447937 229.282898,392.789246 
	C227.156174,390.030609 228.185806,388.355652 231.392075,388.208618 
	C236.045029,387.995239 240.723907,387.930573 245.372772,388.170166 
	C249.437531,388.379669 250.141296,389.905640 247.712357,393.189148 
	C243.500397,398.883026 241.601547,405.232849 241.271957,413.428162 
	C244.227188,410.761993 246.344803,408.619598 248.695862,406.774750 
	C255.266953,401.618469 263.871063,402.049072 269.643311,407.683838 
	C275.124725,413.034698 275.848969,421.394501 271.383789,427.772644 
	C267.082947,433.916046 258.662842,436.030426 251.790634,432.822601 
	C248.874771,431.461548 247.157425,428.684723 244.095261,426.616699 
	C245.591949,430.515533 248.678604,432.430145 250.750046,435.130798 
	C255.821335,441.742523 255.423050,450.460785 249.752411,456.067413 
	C244.245407,461.512268 234.909943,461.948700 228.718399,457.050903 
	C221.739838,451.530518 221.161285,441.274719 227.455444,433.920685 
	C229.016571,432.096619 230.707840,430.383972 232.153320,428.464661 
	C221.791504,435.874908 213.375458,436.232605 207.189484,429.357941 
	C201.712952,423.271667 201.676880,413.830017 207.309677,408.045959 
	C211.299301,403.949188 216.197876,402.608612 221.925217,403.545898 
	C227.509094,404.459686 230.404968,409.093658 234.742569,412.316956 
	C236.876465,408.655731 234.850800,405.438293 234.276581,401.823517 
z"/>
<path fill="currentColor" opacity="1.000000" stroke="none" 
	d="
M113.379250,330.123657 
	C115.449501,338.344727 112.583611,345.341766 106.018501,348.743164 
	C99.684494,352.024811 91.248169,350.456329 86.887909,345.186401 
	C80.662331,337.661987 81.719391,332.255310 92.004135,318.354370 
	C88.218643,321.150879 84.564224,324.167419 79.523773,324.291992 
	C74.368607,324.419373 70.021988,322.700134 66.723763,318.756104 
	C61.687420,312.733582 61.898613,303.952881 67.167206,298.234924 
	C71.267853,293.784546 76.467255,292.812256 82.241043,293.674133 
	C87.980141,294.530823 90.787476,299.592621 95.677307,303.197784 
	C95.966377,295.645874 94.288918,289.507843 90.218781,283.994385 
	C89.264565,282.701813 87.544449,281.516479 88.442459,279.674225 
	C89.296036,277.923065 91.271584,278.165955 92.899666,278.140869 
	C97.059303,278.076721 101.227341,277.966461 105.379181,278.155945 
	C109.436142,278.341095 110.184135,279.816650 107.724014,283.128113 
	C103.417915,288.924347 101.561546,295.352203 101.302994,302.319275 
	C101.876328,302.780212 102.449661,303.241150 103.022995,303.702087 
	C104.496750,301.743347 105.724091,299.520905 107.487999,297.872681 
	C114.203140,291.598114 123.857735,291.730804 129.924088,297.974579 
	C135.888428,304.113373 135.706589,314.097076 129.523453,319.971893 
	C123.134750,326.042023 113.800148,325.748352 107.185318,319.210541 
	C106.368050,318.402771 105.817543,317.325134 104.677689,316.779205 
	C106.552254,321.831512 111.731133,324.544403 113.379250,330.123657 
z"/>
<path fill="currentColor" opacity="1.000000" stroke="none" 
	d="
M246.552460,320.601807 
	C251.589600,325.542175 255.494492,330.698212 253.998260,337.954193 
	C252.712296,344.190491 248.887054,348.581970 242.669556,349.989655 
	C236.680542,351.345520 230.976807,350.158997 226.862854,345.058044 
	C222.762466,339.973907 221.874100,334.410034 224.642670,328.268738 
	C226.393570,324.384766 229.930161,321.967224 232.073486,318.341461 
	C228.224472,321.213837 224.511932,324.170013 219.409149,324.296661 
	C214.209473,324.425720 209.980591,322.494659 206.675354,318.584015 
	C201.535538,312.502777 201.994476,303.321991 207.623886,297.712067 
	C214.513245,290.846588 222.429047,292.241394 235.508987,303.047211 
	C236.220261,295.904999 234.293976,290.066742 230.716797,284.595276 
	C229.754700,283.123657 227.625214,281.931427 228.448395,279.920410 
	C229.378540,277.648132 231.843506,278.234528 233.745697,278.158386 
	C237.237778,278.018585 240.739166,278.055908 244.235550,278.103027 
	C245.873398,278.125061 247.848007,277.864899 248.769836,279.525787 
	C249.770142,281.328003 248.094406,282.557068 247.150055,283.881470 
	C243.180283,289.448944 241.518555,295.686798 241.295273,302.336334 
	C241.915909,302.854156 242.536545,303.372009 243.157181,303.889832 
	C244.457840,302.003845 245.489395,299.838654 247.106033,298.280518 
	C253.875900,291.755554 263.872772,291.731384 269.925873,298.022766 
	C275.923920,304.256927 275.695007,314.078430 269.413757,319.995636 
	C262.847412,326.181396 253.395340,325.679657 246.711853,318.787628 
	C245.910248,317.960968 245.122818,317.120605 243.759613,316.651215 
	C244.615234,317.884003 245.470840,319.116791 246.552460,320.601807 
z"/>
<path fill="currentColor" opacity="1.000000" stroke="none" 
	d="
M18.563286,44.874241 
	C11.699779,39.150913 10.758553,29.689522 16.099461,23.399307 
	C21.113094,17.494541 33.138027,16.715677 38.770435,22.404694 
	C45.005520,28.702442 45.136269,36.701885 43.574009,44.823143 
	C42.088821,52.543755 38.209904,58.392120 30.230314,60.681000 
	C26.104868,61.864353 21.983242,61.705414 18.034178,59.992817 
	C16.445484,59.303848 14.334847,58.663219 15.387165,56.076286 
	C16.286707,53.864922 17.996552,54.583698 19.617189,54.926071 
	C27.613495,56.615364 32.098289,53.563995 33.849331,44.862228 
	C28.791021,46.263515 23.820831,47.480682 18.563286,44.874241 
M22.406487,28.066719 
	C20.868275,32.143883 21.209108,35.966202 24.444191,39.060577 
	C26.969936,41.476467 30.105583,41.084209 32.782616,39.496078 
	C36.106773,37.524044 34.638912,34.201454 34.160923,31.408684 
	C33.587734,28.059639 32.402832,24.792971 28.619844,23.859430 
	C25.726049,23.145321 24.057070,25.177343 22.406487,28.066719 
z"/>
<path fill="currentColor" opacity="1.000000" stroke="none" 
	d="
M323.982941,481.549622 
	C320.134308,489.525452 314.372620,492.526459 305.990112,491.220215 
	C299.448761,490.200867 295.133728,485.163910 293.545746,477.415497 
	C292.180420,470.753174 293.199249,464.478180 296.033020,458.508820 
	C300.154175,449.827454 310.940826,446.046051 319.355560,450.075378 
	C321.058594,450.890839 322.855042,451.755432 321.890289,454.137421 
	C320.992889,456.353180 319.181183,455.463043 317.604095,455.126892 
	C309.633453,453.428040 305.645538,456.029846 303.553467,464.755829 
	C310.110474,463.738525 316.903870,461.731293 321.946106,467.851532 
	C325.197968,471.798553 324.926483,476.486481 323.982941,481.549622 
M314.908447,473.796661 
	C312.961090,469.572571 309.844727,468.672577 305.526733,470.083710 
	C301.598145,471.367554 302.390839,474.002808 302.942993,476.862640 
	C304.220947,483.481659 306.870636,486.791168 310.488281,486.058868 
	C314.362030,485.274689 316.130890,480.949371 314.908447,473.796661 
z"/>
<path fill="currentColor" opacity="1.000000" stroke="none" 
	d="
M15.933693,103.183434 
	C11.752774,101.282120 10.134269,98.167793 10.842299,94.123993 
	C11.806036,88.619766 16.064613,87.364693 20.847906,87.509850 
	C20.647404,77.767242 22.798765,74.489357 28.928875,74.684196 
	C34.910797,74.874344 36.938873,78.295448 36.271046,87.374535 
	C40.678589,87.643860 45.080845,88.293266 46.256638,93.603462 
	C47.030380,97.097900 46.389400,100.396164 43.062801,102.353622 
	C38.652275,104.948883 34.778206,103.234169 30.905972,99.841370 
	C30.071600,104.103050 33.294472,106.795403 34.051720,110.356552 
	C30.364477,111.707756 27.084742,111.624008 23.569401,110.541321 
	C23.503010,106.814285 27.352297,104.370300 26.321026,100.135147 
	C23.251350,102.462120 20.174135,104.380272 15.933693,103.183434 
z"/>
<path fill="currentColor" opacity="1.000000" stroke="none" 
	d="
M300.768463,428.784546 
	C300.812653,426.585205 300.903809,424.791290 301.009827,422.705383 
	C296.211670,422.345306 291.817505,421.308960 290.814178,415.771973 
	C290.236023,412.581360 291.115387,409.634003 293.906555,407.859558 
	C298.369232,405.022461 302.440643,406.640228 306.205383,410.035950 
	C307.476685,405.792633 303.880463,403.289703 303.498383,399.582336 
	C306.875275,398.121094 310.188446,398.563263 313.696960,399.303192 
	C314.082306,403.214661 309.838715,405.682556 310.838135,409.949036 
	C314.996674,407.259338 319.189240,404.369568 323.911072,408.324127 
	C326.674561,410.638550 326.988922,413.851349 326.073364,417.034668 
	C324.719635,421.741302 320.710297,422.436920 316.226685,422.461273 
	C316.509644,427.734070 317.685791,433.441010 310.757965,435.174652 
	C305.953308,436.376984 303.247620,434.609070 300.768463,428.784546 
z"/>
</svg>
