<svg xmlns="http://www.w3.org/2000/svg" viewBox="0 0 336 496" xml:space="preserve"><path fill="currentColor" d="M106.31 404.21c7.916-6.721 17.427-6.552 23.44.162 5.57 6.22 4.946 16.344-1.36 22.055-5.987 5.423-15.485 5.23-21.292-.451-.941-.921-1.82-1.907-3.405-2.298 1.874 2.08 3.77 4.142 5.618 6.245 7.266 8.268 4.808 21.036-4.854 25.276-6.434 2.824-13.597 1.271-18.211-3.946-4.498-5.087-5.134-13.139-1.142-19.031 2.035-3.005 4.66-5.61 6.842-8.717-3.53 3.345-7.114 6.531-12.278 6.78-5.277.255-9.888-1.152-13.442-5.216-4.975-5.69-5.036-15.173-.009-20.666 4.159-4.544 9.345-5.92 15.428-4.782 5.833 1.093 8.815 6.161 13.499 9.568.006-7.564-1.806-13.896-5.98-19.618-2.668-3.658-1.741-5.307 2.878-5.483 3.989-.152 7.996-.153 11.983.032 4.63.216 5.52 1.85 2.765 5.533-4.278 5.721-5.83 12.153-4.903 20.17 1.39-1.788 2.78-3.575 4.423-5.613zM225.81 431.024c2.294-2.62 4.377-4.938 6.459-7.255-11.006 8.008-19.213 8.64-25.626 1.758-5.166-5.544-5.616-14.972-.794-20.67 3.98-4.703 9.073-6.255 15.234-5.343 6.157.911 9.178 6.212 14.038 9.533.026-7.254-1.553-13.54-5.707-19.048-1.018-1.35-2.244-2.78-1.365-4.502.898-1.757 2.865-1.416 4.487-1.438 3.832-.052 7.671-.142 11.494.043 4.595.224 5.515 1.916 2.776 5.573-4.279 5.711-5.893 12.1-4.983 19.958 1.448-1.76 2.75-3.667 4.367-5.255 6.963-6.845 16.867-6.974 23.186-.408 5.834 6.062 5.562 16.157-.595 22.083-6.417 6.177-15.942 5.702-22.683-1.161-.575-.586-.964-1.355-1.44-2.039l-.947.835c1.878 2.085 3.776 4.152 5.629 6.258 5.183 5.89 5.578 15.041.915 20.696-5.225 6.338-14.821 7.84-21.127 3.308-7.23-5.197-8.636-14.213-3.318-22.926zM92.58 94.874c-3.54 3.498-6.686 6.872-11.726 7.634-7.328 1.107-14.13-2.162-16.943-8.507-3.048-6.877-1.04-15.04 4.753-19.317 5.72-4.222 13.955-4.012 19.466.568 1.267 1.053 2.36 2.315 4.112 3.007-2.056-2.34-4.239-4.58-6.142-7.038-4.29-5.538-4.817-11.686-1.67-17.798 2.94-5.713 8.047-8.058 14.487-7.783 6.103.261 10.608 3.075 13.028 8.513 2.51 5.64 2.32 11.368-1.706 16.459-2.056 2.599-4.313 5.04-6.274 7.833 3.597-3.143 7.084-6.392 12.158-6.72 5.066-.326 9.569.958 13.168 4.7 5.242 5.448 5.697 14.665.886 20.596-4.033 4.973-9.31 6.533-15.607 5.487-6.02-1-8.944-6.464-14.006-9.727.4 7.378 1.843 13.732 6.07 19.206 1.038 1.344 2.173 2.808 1.328 4.523-.893 1.814-2.872 1.364-4.476 1.391-3.828.065-7.661.13-11.484-.018-4.578-.176-5.552-1.913-2.847-5.49 4.308-5.696 5.888-12.125 6.12-19.067-1.398-.45-1.673.892-2.695 1.548zM100.483 208.04c14.46 4.415 16.85 15.958 5.806 30.24 4.827-2.638 8.89-4.62 13.7-3.891 4.914.744 8.842 2.888 11.386 7.199 3.875 6.563 2.469 15.158-3.175 20.043-7.167 6.202-13.625 4.756-27.569-6.358.41 7.11 1.523 13.654 5.943 19.221 1.048 1.32 2.21 2.715 1.35 4.496-.931 1.933-2.9 1.25-4.459 1.285-3.995.093-8 .138-11.99-.026-3.935-.161-4.844-1.812-2.452-5.018 4.374-5.86 5.905-12.5 6.46-20.714-2.35 2.287-4.054 3.952-5.764 5.61-6.816 6.612-15.985 7.026-22.373 1.012-6.002-5.651-6.527-15.663-1.139-21.729 5.779-6.506 15.65-6.854 22.886-.807.502.42 1.003.843 1.976 1.047-5.475-5.533-9.928-11.421-8.257-19.767 1.488-7.43 8.386-12.228 17.671-11.843zM185.442 185.202c-6.606-1.1-9.947-6.312-14.936-10.542.538 7.705 1.75 14.25 6.08 19.854 1.035 1.341 2.202 2.71 1.354 4.494-.929 1.954-2.895 1.25-4.454 1.282-3.996.084-8.001.128-11.994-.036-3.953-.162-4.899-1.832-2.476-5.003 4.465-5.843 5.772-12.547 6.554-20.785-2.42 2.353-4.116 4.018-5.829 5.666-7.132 6.86-16.836 6.984-23.098.302-5.634-6.014-5.52-16.048.248-21.772 6.32-6.27 16.505-5.806 23.23 1.02.64.648.93 1.785 2.583 1.784-1.594-3.015-4.172-4.855-6.156-7.175-5.539-6.475-5.374-16.033.345-21.835 5.657-5.74 14.437-6.212 20.927-1.127 6.397 5.014 7.64 14.722 2.706 21.572-1.133 1.573-2.454 3.01-4.515 5.515 5.183-2.93 9.28-4.868 14.208-4.016 8.843 1.53 13.608 7.582 13.114 17.04-.398 7.611-6.828 13.567-14.971 13.853-.831.029-1.665-.026-2.92-.09zM234.485 263.386c.396-2.844.708-5.292 1.188-9.052-2.637 2.564-4.446 4.361-6.296 6.115-6.786 6.433-16.133 6.572-22.357.349-5.688-5.688-6.07-15.406-.837-21.36 5.61-6.384 15.47-6.908 22.497-1.23.706.571 1.118 1.698 3.02 1.342-5.816-5.251-10.447-10.816-8.96-19.04.648-3.58 2.384-6.536 5.105-8.909 6.007-5.238 14.94-4.983 20.927.57 6.683 6.197 6.05 14.941-2.38 25.935 4.736-2.288 8.73-4.382 13.498-3.71 4.95.697 8.836 2.904 11.405 7.153 3.938 6.514 2.545 15.142-3.084 20.012-7.239 6.264-13.552 4.842-27.572-6.46.33 6.994 1.391 13.322 5.499 18.827 1.072 1.438 2.723 2.864 1.857 4.858-1.05 2.42-3.468 1.404-5.314 1.478-3.655.145-7.324.13-10.98-.006-4.23-.158-5.074-1.75-2.554-5.252 2.48-3.448 4.105-7.203 5.338-11.62zM203.377 81.997c6.068-12.448 16.467-13.56 28.904-3.666-2.322-2.717-4.871-5.275-6.922-8.183-4.9-6.946-3.42-16.517 3.09-21.504 6.57-5.033 16.287-3.93 21.593 2.45 4.617 5.553 4.602 14.314-.055 19.825-2.037 2.41-4.113 4.787-5.982 7.45 3.718-3.152 7.28-6.466 12.518-6.67 5.304-.209 9.863 1.372 13.371 5.437 5.109 5.918 4.756 15.406-.7 20.976-7.112 7.26-14.595 5.937-27.927-4.94-1.005 5.62.74 12.057 5.007 18.319 1.026 1.505 2.6 2.96 1.71 4.914-.946 2.082-3.152 1.46-4.897 1.502-3.662.086-7.331.118-10.99-.023-4.627-.177-5.65-1.909-2.963-5.438 4.33-5.69 5.897-12.129 6.187-20.068-2.066 1.837-3.647 3.137-5.107 4.56-6.13 5.973-12.945 7.466-19.423 4.196-6.652-3.359-9.154-9.55-7.414-19.137zM300.14 421.082c.881-2.058.302-2.822-1.57-2.731-4.767.231-7.618-2.256-8.53-6.694-.696-3.379.692-6.38 3.708-8.08 3.957-2.233 7.683-1.383 10.917 1.76.217.212.564.289.902.452 1.456-3.912-2.71-6.498-2.539-10.333 3.332-1.2 6.489-1.032 9.688-.124 1.17 3.625-3.763 5.797-1.81 9.693 4.13-2.255 8.422-4.53 12.628-.393 2.278 2.241 3.282 5.001 2.174 8.201-1.646 4.753-5.528 5.776-10.373 5.63.806 3.81 1.487 7.402-1.37 10.438-1.595 1.694-3.454 2.426-5.763 2.443-5.664.041-8.348-3.172-8.061-10.262zM35.782 83.85c5.033-.733 8.447.934 9.978 5.65 1.2 3.698-.332 6.685-3.253 8.667-3.796 2.575-7.54 1.767-10.849-1.31-.34-.315-.816-.483-1.249-.73-1.367 3.99 2.748 6.606 2.516 10.45-3.323 1.286-6.476.719-9.761.333-.408-4.21 3.598-6.886 2.424-11.145-3.646 3.606-7.74 5.411-12.346 2.284-2.833-1.924-4.072-4.906-3.188-8.305 1.383-5.32 5.6-6.468 10.57-6.21-.284-2.134-.868-3.938-.678-5.657.343-3.117 1.785-5.86 5.027-6.797 3.129-.904 6.356-.877 8.782 1.797 2.59 2.855 3.18 6.11 1.306 9.64-.222.419-.348.887-.518 1.333.318.02.636.04 1.239 0zM314.06 446.542c1.259 7.993-2.092 14.54-5.414 20.982-2.093 4.06-4.881 7.76-7.63 12.046 4.018.757 7.606.486 11.174.015 2.695-.356 3.013-2.802 3.768-4.763.798-2.073 1.953-3.496 4.43-2.961 2.34.505 1.725 2.465 1.92 4.017.02.164.003.332.007.498.286 10.304-.117 10.725-10.218 10.692-4.819-.016-9.644.127-14.453-.09-4.786-.217-6.595-3.805-3.994-7.845 5.818-9.036 10.247-18.514 11.317-29.43.598-6.11 5.224-3.912 9.093-3.16zM40.953 24.918c-5.282 8.252-8.787 16.795-9.716 26.254-.372 3.781-1.936 5.642-6.066 5.23-3.235-.324-4.325-1.428-3.775-4.77 1.407-8.55 4.755-16.225 9.691-23.269 1.225-1.747 2.489-3.468 3.777-5.26-7.693-2.773-11.394-1.526-15.28 5.191-.895 1.548-1.983 2.096-3.642 1.883-1.702-.219-2.109-1.44-2.173-2.852-.075-1.66-.115-3.328-.055-4.988.239-6.676.88-7.28 7.662-7.3 4.825-.015 9.652-.063 14.475.034 2.557.05 5.336-.636 7.069 2.385 1.781 3.106-.45 4.961-1.967 7.462z"/></svg>