<svg xmlns="http://www.w3.org/2000/svg" viewBox="0 0 336 496" xml:space="preserve"><path fill="currentColor" d="M163.674 168.647c14.43-.81 25.968 5.749 31.312 17.553 5.326 11.764 2.782 25.162-6.77 35.04-4.499 4.652-9.292 9.053-11.928 16.119 4.16-1.613 6.128-4.734 8.558-7.178 12.56-12.63 32.577-12.487 44.651.42 11.106 11.872 10.766 30.981-.757 42.538-11.578 11.613-30.567 12.094-42.473.964-4.684-4.38-9.148-8.993-14.82-14.593.015 7.224.792 12.72 1.82 18.193 1.784 9.505 5.437 18.185 11.834 25.516 1.957 2.243 2.918 4.632 1.877 7.281-1.023 2.603-3.732 1.67-5.756 1.688-9.831.088-19.664.073-29.495-.006-1.867-.015-4.266.801-5.251-1.698-.957-2.428.009-4.523 1.684-6.388 10.767-11.981 13.539-26.722 14.459-42.09.027-.457-.187-.93-.672-3.158-4.944 5.343-8.994 10.122-13.46 14.474-16.976 16.539-44.646 8.976-50.977-13.837-3.66-13.188 1.87-27.22 13.477-34.195 11.807-7.097 27.152-5.61 36.971 3.884 3.298 3.188 6.009 6.983 9.64 9.868-1.648-8.052-7.229-13.068-12.378-18.41-9.693-10.06-11.69-24.825-4.817-36.925 5.022-8.84 12.75-13.808 23.271-15.06zM298.445 448.973c-.078 6.996.688 7.814 6.945 7.833 2.33.006 4.659-.083 6.988-.07 2.746.016 3.682-1.802 4.266-4.047.551-2.126.705-3.991-2.162-4.517-1.433-.264-1.737-1.38-1.589-2.667.178-1.543 1.35-1.758 2.55-1.77 3.659-.037 7.32-.048 10.979.006 1.15.017 2.43.106 2.67 1.65.195 1.246-.043 2.462-1.397 2.836-3.712 1.024-4.344 4.267-5.358 7.22-3.456 10.06-6.907 20.124-10.28 30.213-.98 2.936-2.286 4.805-5.92 4.785-3.513-.02-5.001-1.555-6.039-4.61-3.53-10.386-7.236-20.713-10.884-31.06-.938-2.659-1.638-5.492-4.845-6.487-1.353-.42-1.66-1.514-1.477-2.788.266-1.846 1.751-1.774 3.051-1.793 3.994-.058 7.99-.112 11.98-.01 1.521.038 3.624-.64 4.142 1.68.59 2.65-1.67 2.79-3.62 3.596m5.588 20.656c1.079 2.996 1.609 6.244 3.977 9.54 2.14-5.84 3.95-10.906 5.024-16.588-3.782-.235-7.02-.804-10.314.449-.643 2.227.565 3.994 1.313 6.599zM25.459 7.818c5.258-.998 7.494 1.168 8.96 5.79 3.213 10.142 7.098 20.069 10.585 30.126.898 2.59 1.662 5.087 4.606 6.047 1.353.441 1.673 1.502 1.495 2.78-.215 1.548-1.441 1.695-2.615 1.712-4.163.063-8.329.129-12.49.044-1.522-.032-3.603.583-4.053-1.799-.447-2.362 1.5-2.568 3.06-3.107.43-.149.76-.586 1.097-.86-1.048-7.456-1.055-7.16-12.344-7.427-5.75-.137-6.49 3.099-7.01 7.508.853.412 1.54.875 2.299 1.084 1.53.422 2.278 1.315 2.03 2.902-.242 1.547-1.521 1.634-2.675 1.65-3.662.05-7.326.04-10.99-.002-1.204-.013-2.357-.26-2.53-1.8-.145-1.307.257-2.37 1.591-2.735 3.495-.957 4.152-3.963 5.113-6.808 3.46-10.245 6.923-20.49 10.466-30.705.576-1.663.898-3.646 3.405-4.4m5.1 21.999c-1.354-3.397-2.017-7.099-4.477-11.006-1.527 4.437-2.777 8.007-3.979 11.592-.564 1.683-1.784 3.901.39 4.84 2.392 1.032 5.35.975 7.8.054 2.503-.94.776-3.077.266-5.48zM298.91 420.488c.048-1.489 1.035-2.504.244-4.051-4.457.271-8.44-.874-9.956-5.924-1.032-3.438.087-6.346 2.82-8.41 4.06-3.064 8.104-1.819 12.036 1 1.66-3.864-2.648-6.174-1.905-9.707 3.235-1.106 6.395-1.004 9.612-.078.968 3.54-3.161 5.643-2.069 9.42 3.698-1.506 7.425-3.785 11.5-1.342 1.958 1.174 3.095 2.998 3.688 5.144 1.394 5.038-1.543 8.146-9.985 10.638.407 8.076-1.558 11.618-6.725 12.125-5.516.54-8.345-2.033-9.26-8.815zM8.9 89.105c1.068-6.111 4.958-7.847 10.718-7.474-.857-4.107-1.396-8.048 1.954-11.136 1.726-1.593 3.786-1.935 6.019-1.812 5.903.324 8.1 4.26 6.918 12.832 5.138-.316 9.316 1.155 10.53 6.774.756 3.504-.767 6.373-3.696 8.069-4.343 2.513-8.296 1.24-11.8-2.53-1.39 4.151 2.155 6.822 2.687 10.436-3.415 1.674-6.586 1.129-10.002.51-.534-4.148 3.575-6.905 2.635-11.166-3.082 2.788-6.605 5.297-11.098 3.41-3.174-1.333-4.71-4.063-4.866-7.913z"/></svg>