<svg xmlns="http://www.w3.org/2000/svg" viewBox="0 0 340 500" xml:space="preserve"><path fill="#FEFEFE" d="M341 131v370H1V1h340v130m-104.93 27.44c-11.398-10.359-24.63-17.663-39.173-22.922 13.987-16.9 18.212-34.533 6.575-54.236 2.624-2.882 5.029-6.158 8.053-8.696 4.771-4.006 4.399-8.175 1.928-13.201-6.588-13.4-17.755-21.373-31.272-26.277-15.063-5.465-30.25-6.303-45.02 1.226-1.761.899-4.276 2.871-4.249 4.305.144 7.622-.207 15.593 1.963 22.73 1.762 5.795 3.4 10.563.551 16.373-1.205 2.458-1.672 6.205-.683 8.637 2.926 7.197.496 12.85-3.524 18.52-4.738 6.683-4.66 6.762 2.619 11.367-.946 1.643-2.154 3.222-2.78 5.005-.45 1.282-.607 3.851-.068 4.108 3.762 1.79 4.154 5.63 4.243 8.52.201 6.602 1.401 11.875 9.555 12.982-18.134 13.455-34.919 26.766-38.836 49.618-7.564-2.184-8.782-7.607-8-14.295.364-3.123.056-6.324.063-9.49.017-7.494.938-8.444 8.376-7.722 3.397.33 4.98-1.07 6.399-4.063 2.757-5.812 2.99-11.25.088-17.113-1.647-3.327-3.308-4.764-7.239-4.046-5.642 1.032-7.535-.892-7.612-6.755-.061-4.664-.062-9.331.003-13.996.047-3.326-1.512-4.9-4.806-4.879-3.333.022-6.668.078-9.998-.017-3.812-.11-5.403 1.66-5.324 5.436.113 5.328.018 10.66-.028 15.99-.034 3.8-2.295 5.367-5.56 4.116-3-1.149-5.9-3.016-8.243-5.21-1.018-.952-1.34-3.99-.589-5.261 3.524-5.967 3.697-5.866-2.012-9.666-1.247-.83-2.498-1.652-3.748-2.477-5.225-3.451-6.461-3.307-10.568 1.23-15.093 16.676-16.23 46.236-2.499 64.946 6.075 8.277 6.898 8.422 15.465 2.736 1.109-.736 2.243-1.434 3.34-2.185 3.244-2.222 4.006-4.744.737-7.564-2.543-2.194-2.053-4.724-.032-6.47 2.312-1.997 5.122-3.644 7.987-4.717 3.618-1.354 5.786.331 5.791 4.324.014 10.811.005 21.623.005 32.406-4.897 1.426-10.53 2.499-10.74 8.397-.333 9.38.212 18.82.965 28.189.16 1.986 2.577 4.049 4.383 5.565 1.442 1.209 3.536 1.64 5.43 2.455 0 20.604.057 41.095-.035 61.585-.027 6.092 2.754 10.005 8.18 12.436 1.397.625 2.956 1.59 3.713 2.84 13.037 21.536 32.564 34.628 55.834 43.233-13.673 16.591-18.279 34.37-6.43 54.318-2.774 2.988-5.37 6.286-8.473 9.002-4.115 3.6-4.157 7.237-1.952 11.935 7.635 16.258 21.342 24.606 37.803 29.115 13.387 3.667 26.718 3.415 39.272-3.397 1.703-.924 4.023-2.985 3.983-4.464-.204-7.471.09-15.295-2.102-22.27-1.892-6.022-3.413-11.007-.34-16.964 1.171-2.27 1.489-5.92.493-8.196-3.256-7.439-.252-13.129 3.828-18.87 4.438-6.245 4.262-6.762-3.175-10.746 1.14-1.795 2.554-3.44 3.265-5.348.44-1.179.126-2.89-.4-4.127-1.307-3.068-4.15-5.99-4.176-8.99-.058-6.506-1.672-11.119-9.32-12.344 17.947-13.375 34.831-26.595 38.718-49.782 5.905 2.27 8.952 6.054 7.89 12.789-.563 3.577-.098 7.316-.1 10.982-.004 8.02-.468 8.216-8.537 8.104-1.888-.026-4.278 1.778-5.583 3.42-1.372 1.724-1.825 4.231-2.49 6.454-1.659 5.536 1.752 9.84 3.9 14.352.376.792 2.67 1.054 4.025.935 7.769-.677 8.667.077 8.686 7.927.002 1.166-.002 2.333 0 3.499.028 16.095-1.6 13.874 14.69 14.1 3.986.055 5.84-1.509 5.736-5.589-.133-5.162-.024-10.33-.032-15.495-.005-3.243 1.543-5.644 4.783-4.553 3.32 1.118 6.423 3.258 9.163 5.508.942.774 1.238 3.629.574 4.848-3.47 6.363-3.613 6.288 2.504 10.35 1.108.736 2.318 1.347 3.327 2.198 3.877 3.266 6.953 2.475 10.198-1.227 15.31-17.472 16.433-47.506 2.102-65.728-6.964-8.856-7.673-7.285-14.368-2.467-1.08.777-2.18 1.538-3.337 2.192-4.067 2.297-4.269 4.81-1.05 8.243 3.447 3.677.115 6.02-2.377 8.1-4.055 3.386-9.134 4.122-10.777 1.74-.52-.752-.702-1.872-.706-2.825-.047-10.98-.03-21.96-.03-32.945 5.215-1.422 10.601-2.884 10.754-9.056.183-7.389.407-14.741-.394-22.273-.818-7.683-3.57-11.19-10.367-12.935v-5.71c0-18.495-.038-36.992.024-55.487.016-4.82-1.139-9.608-5.543-11.468-5.25-2.218-7.483-6.539-10.582-10.535-3.758-4.847-8.095-9.246-12.685-14.336m78.413-142.403h11.752v355.088l5.185-.402c.073-1.074.156-1.728.157-2.382.006-117.154-.008-234.308.064-351.462.003-4.64-1.881-6.042-6.311-5.987-14.663.183-29.33.07-43.995.07-65.326 0-130.652-.002-195.979.008-1.294 0-2.588.129-3.99.203v4.864h233.117M11.113 371.5c0 37.326-.002 74.652 0 111.978 0 7.452.11 7.56 7.616 7.56h242.443v-5.231H16.518V130.926l-5.406.295V371.5m68.945 83.166c-3.06-4.014-6.122-8.027-9.183-12.04 2.116.374 3.318 1.481 4.502 2.61 6.42 6.117 15.476 6.31 21.516.453 5.98-5.8 6.072-15.535.202-21.527-5.834-5.954-15.195-6.068-21.509-.076-2.094 1.988-3.779 4.409-5.651 6.631-2.177-10.238 1.937-17.856 7.55-25.649H55.7c2.283 4.27 4.804 7.946 6.26 12.004 1.43 3.985 1.779 8.359 2.602 12.561-3.531-1.825-5.713-4.072-8.1-6.074-6.487-5.442-15.658-5.064-21.176.758-5.501 5.805-5.511 14.98-.023 20.805 5.72 6.07 14.372 6.478 21.146 1.014.984-.794 2.028-1.514 3.045-2.269.306.36.613.718.92 1.077-1.62 1.792-3.236 3.586-4.858 5.376-3.57 3.94-5.162 8.494-4.026 13.772 1.832 8.518 10.08 13.685 18.52 11.696 8.732-2.057 13.026-10.541 10.047-21.122M247.893 79.86c11.249 6.417 18.624-.44 25.925-8.589 1.076 10.227-3.098 17.833-8.432 25.464h21.513c-2.344-4.28-4.884-7.817-6.274-11.76-1.405-3.983-1.67-8.368-2.674-13.891 14.998 12.362 22.107 13.828 29.109 6.865 5.316-5.286 6.143-14.36 1.099-19.942-2.302-2.548-5.779-4.664-9.1-5.53-7.182-1.874-12.466 2.417-17.606 7.05 1.753-3.305 4.08-5.904 6.298-8.592 4.09-4.955 4.882-10.516 2.238-16.303-2.567-5.62-7.105-8.581-13.409-8.646-6.487-.066-11.22 2.819-13.94 8.634-2.918 6.245-1.604 11.937 2.853 17.063 1.785 2.053 3.405 4.25 5.1 6.38-9.983-7.455-18.953-8.106-25.416-1.07-6.126 6.67-5.278 15.723 2.716 22.867M22.28 99.134l8.574-4.512-4.3 11.83h9.54l-3.926-11.068c4.594 2.565 8.545 6.132 13.166 2.457 2.02-1.606 3.608-5.492 3.232-8.022-.904-6.073-6.421-5.904-11.575-5.978 2.889-4.245 3.053-8.482-.862-10.929-2.297-1.435-6.635-1.707-9.008-.479-4.933 2.554-3.594 7.38-1.757 11.75-7.485-.538-11.07 1.581-11.534 6.585-.442 4.77 2.056 7.521 8.45 8.366m296.597 325.92-1.126-7.05c4.523.251 9.55.157 10.692-5.378.52-2.518-.765-6.562-2.69-8.2-4.642-3.95-8.847-.74-12.534 2.874l-1.024-.693 3.91-11.15h-9.607l4.048 11.218-1.056.73c-3.64-3.747-7.865-6.868-12.526-3.037-1.933 1.59-3.207 5.695-2.678 8.216 1.192 5.678 6.238 5.812 11.177 5.108-2.7 6.733-1.778 10.75 2.689 12.77 4.119 1.862 7.676.288 10.725-5.409M35.586 30.506c0-3.495.042-6.99-.015-10.484-.042-2.633.002-4.919 3.526-5.474.903-.142 1.504-2.203 2.714-4.133-6.867 0-12.186-.08-17.499.069-1.067.03-2.11.934-3.163 1.435.879.94 1.682 2.586 2.65 2.69 3.331.355 3.364 2.384 3.344 4.908-.077 9.651-.099 19.304-.005 28.955.055 5.69-1.704 10.325-6.375 13.9-1.06.811-1.112 2.937-1.937 5.37 12.467-3.622 16.43-8.607 16.732-19.764.148-5.488.027-10.982.028-17.472m279.603 440.982c0-5.332-.062-10.665.015-15.996.093-6.348 1.232-12.204 7.041-16.202.936-.645.837-2.793 1.397-4.938-12.24 3.59-16.303 8.54-16.578 19.677-.23 9.326-.102 18.661-.06 27.992.012 2.608.184 5.008-3.432 5.45-.782.095-1.372 1.76-2.05 2.703.933.456 1.859 1.285 2.803 1.307 5.467.126 10.938.061 17.503.061-.982-1.843-1.5-3.828-2.148-3.87-5.507-.367-4.444-4.32-4.485-7.693-.03-2.5-.006-4.999-.006-8.491z"/><path fill="#272625" d="M236.322 158.69c4.338 4.841 8.675 9.24 12.433 14.087 3.099 3.996 5.332 8.317 10.582 10.535 4.404 1.86 5.56 6.648 5.543 11.468-.062 18.495-.024 36.992-.024 55.488v5.709c6.798 1.746 9.55 5.252 10.367 12.935.801 7.532.577 14.884.394 22.273-.153 6.172-5.54 7.634-10.754 9.056 0 10.985-.017 21.965.03 32.945.004.953.186 2.073.706 2.826 1.643 2.381 6.722 1.645 10.777-1.74 2.492-2.08 5.824-4.424 2.376-8.101-3.218-3.433-3.016-5.946 1.051-8.243 1.157-.654 2.258-1.415 3.337-2.192 6.695-4.818 7.404-6.389 14.368 2.467 14.33 18.222 13.209 48.256-2.102 65.728-3.245 3.702-6.32 4.493-10.198 1.227-1.01-.85-2.22-1.462-3.327-2.198-6.117-4.062-5.975-3.987-2.504-10.35.664-1.219.368-4.074-.574-4.848-2.74-2.25-5.843-4.39-9.163-5.508-3.24-1.091-4.788 1.31-4.783 4.553.008 5.165-.1 10.333.032 15.495.105 4.08-1.75 5.644-5.735 5.588-16.291-.225-14.663 1.996-14.69-14.099-.003-1.166.001-2.333-.001-3.5-.019-7.849-.917-8.603-8.686-7.926-1.354.119-3.649-.143-4.026-.935-2.147-4.513-5.558-8.816-3.9-14.352.666-2.223 1.12-4.73 2.49-6.455 1.306-1.64 3.696-3.445 5.584-3.419 8.069.112 8.533-.084 8.537-8.104.002-3.666-.463-7.405.1-10.982 1.062-6.735-1.985-10.519-7.89-12.789-3.887 23.187-20.771 36.407-38.717 49.782 7.647 1.225 9.261 5.838 9.319 12.344.026 3 2.869 5.922 4.175 8.99.527 1.237.84 2.948.401 4.127-.711 1.908-2.124 3.553-3.265 5.348 7.437 3.984 7.613 4.501 3.175 10.745-4.08 5.742-7.084 11.432-3.828 18.871.996 2.276.678 5.926-.493 8.196-3.073 5.957-1.552 10.942.34 16.964 2.192 6.975 1.898 14.799 2.102 22.27.04 1.479-2.28 3.54-3.983 4.464-12.554 6.812-25.885 7.064-39.272 3.397-16.46-4.509-30.168-12.857-37.803-29.115-2.205-4.698-2.163-8.334 1.952-11.935 3.104-2.716 5.699-6.014 8.473-9.002-11.849-19.948-7.243-37.727 6.43-54.318-23.27-8.605-42.797-21.697-55.834-43.233-.757-1.25-2.316-2.215-3.713-2.84-5.426-2.431-8.207-6.344-8.18-12.436.092-20.49.035-40.981.035-61.585-1.894-.815-3.988-1.246-5.43-2.455-1.806-1.516-4.224-3.579-4.383-5.565-.753-9.369-1.298-18.809-.964-28.189.21-5.898 5.842-6.97 10.739-8.397 0-10.783.009-21.595-.005-32.406-.005-3.993-2.173-5.678-5.79-4.324-2.866 1.073-5.676 2.72-7.988 4.717-2.021 1.746-2.511 4.276.032 6.47 3.269 2.82 2.507 5.342-.737 7.564-1.097.751-2.231 1.45-3.34 2.185-8.567 5.686-9.39 5.541-15.465-2.736-13.731-18.71-12.594-48.27 2.5-64.946 4.106-4.537 5.342-4.681 10.567-1.23 1.25.825 2.501 1.647 3.748 2.477 5.709 3.8 5.536 3.7 2.012 9.666-.75 1.27-.429 4.309.589 5.261 2.343 2.194 5.243 4.061 8.243 5.21 3.265 1.25 5.526-.317 5.56-4.115.046-5.33.14-10.663.028-15.991-.08-3.776 1.512-5.545 5.324-5.436 3.33.095 6.665.039 9.998.017 3.294-.021 4.853 1.553 4.806 4.879a513.901 513.901 0 0 0-.003 13.996c.077 5.863 1.97 7.787 7.612 6.755 3.931-.718 5.592.72 7.239 4.046 2.902 5.863 2.669 11.3-.088 17.113-1.42 2.993-3.002 4.393-6.399 4.063-7.438-.722-8.359.228-8.376 7.722-.007 3.166.301 6.367-.063 9.49-.782 6.688.436 12.11 8 14.295 3.917-22.852 20.702-36.163 38.836-49.618-8.154-1.107-9.354-6.38-9.555-12.982-.089-2.89-.48-6.73-4.243-8.52-.54-.257-.382-2.826.068-4.108.626-1.783 1.834-3.362 2.78-5.005-7.279-4.605-7.357-4.684-2.619-11.367 4.02-5.67 6.45-11.323 3.524-18.52-.989-2.432-.522-6.179.683-8.637 2.85-5.81 1.211-10.578-.551-16.374-2.17-7.136-1.819-15.107-1.963-22.73-.027-1.433 2.488-3.405 4.25-4.304 14.77-7.529 29.956-6.691 45.02-1.226 13.516 4.904 24.683 12.877 31.27 26.277 2.472 5.026 2.844 9.195-1.927 13.2-3.024 2.54-5.429 5.815-8.053 8.697 11.637 19.703 7.412 37.337-6.575 54.236 14.544 5.26 27.775 12.563 39.425 23.172M86.962 314.038s-.081.016-.25.642c.474-.155.948-.31 1.74-1.228.387-3.455.341-7.027 1.234-10.346 4.99-18.548 2.893-37.41 3.307-56.764-2.939.185-5.355.338-8.703.283-.422.582-1.212 1.163-1.213 1.746-.051 19.944-.094 39.889.11 59.83.016 1.652 1.776 3.286 2.77 4.842 0 0-.091.03-.323.767.442.103.885.207 1.327.228m95.049-241.05s.074-.031.27-.689c-.41-.136-.821-.273-1.26-.338 0 0 .077 0 .09-.572-.343-.098-.686-.196-1.741-.414-.023.704-.35 1.628-.025 2.08 5.168 7.165 7.488 15.184 6.906 23.931-.43 6.466-1.652 12.887-1.919 19.353-.175 4.248.721 8.54 1.137 12.812l1.495-.052c.304-.88.608-1.76 1.248-3.37 3.665-10.603 5.865-21.48 4.738-32.712-.754-7.513-2.125-15.03-9.845-19.147 0 0-.026.074.246-.644-.434-.103-.868-.206-1.34-.239m-20.715 357.575c.42.144.84.287 1.868.38-.276-1.118-.287-2.4-.868-3.327-5.535-8.838-6.926-18.332-5.444-28.582.919-6.36 1.083-12.847 1.254-19.287.06-2.264-.87-4.554-1.349-6.832l-1.163.116c-.234.88-.468 1.761-1.196 3.22-.668 2.213-1.442 4.4-1.987 6.642-2.673 10.99-4.832 22.069-1.379 33.253 1.586 5.135 3.47 10.35 8.981 12.835 0 0-.028-.004-.014.588.353.135.706.271 1.01.436 0 0 0-.058.287.558m1.446 6.843-14.036-7.58c.537 1.511.844 2.378 1.181 4.1.429 4.17.857 8.34 1.101 13.169l-.165 3.173c4.796-3.545 9.003-6.644 13.197-9.76 2.097-1.557 1.406-2.312-1.278-3.102M191.866 54.47v-2.8L176.86 62.948l13.201 7.121c1.4.755 3.096 2.248 2.865-1.96-.419-4.305-.837-8.61-1.059-13.638m-1.54 389.506-13.646-.698c1.724 4.489 3.293 8.574 5.069 13.391l1.271 3.013 12.411-15.537c-1.321 0-2.747 0-5.105-.17M161.044 45.993l-1.259-3.865-12.478 15.755c1.332 0 2.615 0 4.706.16 4.505.605 9.01 1.21 14.579 1.956-2.039-4.937-3.768-9.125-5.548-14.006m11.748 292.852c-.096-.191-.21-.372-1.133-.8-2.88-1.058-5.762-2.116-8.82-3.827-14.575-8.508-26.897-19.366-35.21-34.27-2.6-4.661-4.737-9.58-7.292-14.804-.813 2.078-1.47 3.753-2.507 6.108-6.104 13.896-9.364 28.407-8.939 43.608.057 2.03 1.196 4.874 2.769 5.882 10.187 6.53 20.571 12.762 31.059 18.8 1.625.936 4.11.467 6.2.491 5.042.057 10.086.022 15.583.576l2.66 1.366 11.653-21.763c-1.777-.393-3.81-.843-5.883-1.198 0 0 .084.06-.14-.169m-34.762 91.393c-6.32 6.54-6.394 6.935-1.51 14.479 1.148 1.772 2.616 3.336 4.457 5.563l3.503 3.126c1.748-9.724.83-18.323-2.79-27.434-1.325 1.66-2.22 2.782-3.66 4.266m7.97-54.245s-.028-.049-.721.065c-2.297 5.278-5.442 10.365-6.68 15.88-1.616 7.2-1.786 14.749 3.392 21.105 0 0-.068-.026-.334.542.415.675.83 1.35 1.492 2.729l2.366 3.522c-4.05-16.733-.063-32.619 4.812-48.703-.954.304-1.339.307-1.502.5-.636.746-1.202 1.553-2.338 2.657-.181.568-.362 1.136-.487 1.703m20.005-7.725c-.614-.136-1.227-.272-2.191-1.038l-7.498-3.63c6.254 5.66 7.53 12.637 7.094 20.21-.266 4.634-.46 9.297-1.145 13.879-2.982 19.936 5.05 34.509 22.313 39.576 3.42 1.003 7.171 1.219 10.755 1.142 1.291-.028 2.54-1.983 3.809-3.06-1.059-.96-2.029-2.623-3.19-2.77-9.333-1.184-16.703-6.198-23.93-12.449-3.262-5.93-3.339-12.242-2.608-18.782.806-7.214 1.806-14.508 1.467-21.708-.172-3.635-3.117-7.138-4.878-10.65 0 0 .056-.066.002-.72m38.75-296.524c6.249-6.385 6.34-7.011 1.324-14.503-1.09-1.627-2.534-3.017-4.086-5.15l-3.566-3.513c-2.711 9.82-.662 18.299 2.422 27.606 1.503-1.864 2.413-2.994 3.905-4.44m-60.101-19.758c4.902-4.69 9.433-9.605 10.998-17.216-3.75.923-6.703 1.65-10.423 2.213-7.267 1.786-7.634 2.272-6.92 9.12.337 3.23.664 6.46.996 9.689l1.766 1.466c.997-1.637 1.994-3.274 3.583-5.272m52.097 413.373c2.672-1.38 7.408-2.494 7.626-4.19.634-4.92-.546-10.074-1.1-16.06-2.064 1.934-3.237 3.033-4.971 4.417-4.816 4.921-9.601 9.862-11.314 17.81a649.103 649.103 0 0 0 9.759-1.977m3.042-379.12-3.897-5.046c4.998 17.941 1.63 33.834-2.777 50.082.923-1.188 1.847-2.376 3.36-4.033 9.889-13.326 11.218-28.503 3.314-41.003m-21.612 48.445c.455.4.91.802 2.13 1.387l5.78 2.448.832-.996c-9.094-6.865-8.29-16.389-7.495-25.927.551-6.603 1.758-13.248 1.418-19.81-.835-16.115-17.165-29.996-32.69-28.21-1.808.207-3.448 1.879-5.165 2.872 1.488 1.222 2.797 3.078 4.495 3.558 8.537 2.414 16.588 5.658 23.34 11.618 0 0 .022-.056.398.546.193.137.386.275-.063 1.001.746 4.83 2.137 9.669 2.078 14.49-.078 6.27-1.673 12.513-1.941 18.796-.282 6.586-.205 13.37 6.52 17.736 0 0 .187.065.363.49m-2.733 223.27c-.149.34-.297.681-.76 1.642l-.978 2.925c7.824-4.49 15.002-8.185 21.735-12.564 12.464-8.104 23.637-17.673 31.055-30.876 1.64-2.92 2.613-6.217 3.893-9.34l-.972-.298c-2.419 2.677-4.837 5.355-7.982 8.263-13.89 7.654-27.636 15.606-38.236 27.677-3.135 3.57-4.852 8.385-7.207 12.605l-.548-.034m34.494-41.976s.035.084.821.043c6.965-.038 15.52-8.633 17.297-18.1 2.188-11.66-1.546-22.06-6.529-32.994-1.254 1.589-2.14 2.711-3.608 4.11-14.55 15.48-31.444 27.817-51.044 37.526 13.369 8.835 26.933 13.795 42.755 9.844.113-.173.24-.333.308-.43m-43.599 129.468-16.52 12.29c8.282 4.921 16.21 8.414 25.817 9.376l4.372.403-9.473-25.186c-1.564 1.251-2.58 2.063-4.196 3.117m10.274-389.24 16.154-11.807c-8.162-5.14-16.064-8.51-25.639-9.43-1.252-.137-2.503-.276-4.466-.493l9.484 25.317c1.618-1.406 2.707-2.353 4.467-3.588M178.988 224s.04-.003-.683-.098c-13.854 7.554-25.396 17.959-35.972 29.489-1.037 1.13-1.52 3.46-1.204 5.019 1.467 7.256 3.306 14.437 5.116 22.346l2.134 3.931 37.892-64.217-.97-.905c-1.762 1.079-3.525 2.157-5.847 3.467-.153.336-.305.672-.466.968m73.22 31.314h7.23c.085-1.786.226-3.402.228-5.017.018-12.986.01-25.972.01-38.958 0-5.66.234-11.335-.101-16.976-.167-2.803.26-6.832-5.326-5.664-1.459 8.835-3.661 17.627-4.196 26.518-.728 12.11-.245 24.298-.094 36.45.017 1.308 1.282 2.6 2.249 3.647m-84.389-112.508 1.106-3.046c-23.933 12.53-46.255 25.716-56.781 51.7l1.094 1.083c2.417-2.88 4.834-5.761 8.022-8.498 11.754-8.005 23.996-15.405 35.042-24.29 4.971-3.998 7.557-10.963 11.517-16.949m-81.121 65.301h5.923v-88.575c-2.514.123-4.65.227-7.659.079-.659.847-1.89 1.692-1.894 2.541-.1 27.77-.066 55.54-.117 83.309-.004 2.17.534 3.185 3.747 2.646m169.487 85.932h-5.975v88.404c2.502-.11 4.645-.205 7.731-.096.523-1.377 1.466-2.744 1.497-4.132.155-6.995.072-13.996.072-20.995 0-19.664.032-39.328-.066-58.99-.008-1.536 1.456-4.49-3.259-4.191m-60.023-72.98c-.52-1.065-1.04-2.13-1.833-3.75l-38.445 65.1.757.784c2.192-1.552 4.384-3.104 7.404-4.75 13.879-7.758 25.604-18.17 36.395-29.701.807-.862 1.548-2.459 1.325-3.501-1.68-7.856-3.608-15.66-5.603-24.182m-115.279-6.081c.665.031 1.426-.136 1.976.131 1.797.872 3.516 1.903 5.266 2.873-1.846.801-3.687 2.253-5.538 2.265-3.53.024-7.066-.774-11.049-1.289 2.117 4.763 6.099 4.533 9.765 5.253 1.604.314 2.992 1.728 4.478 2.643-1.68.816-3.33 2.226-5.049 2.315-2.76.142-5.566-.588-8.352-.95l-.425 1.316c2.793 1.143 5.674 2.118 8.337 3.51 1.16.606 1.87 2.068 2.786 3.141-1.167.643-2.33 1.807-3.5 1.814-2.057.013-4.118-.682-6.177-1.08l-.197 2.098c14.165 4.377 28.91 1.018 42.499 2.215-2.353-9.397-5.448-18.222-6.563-27.29-.938-7.639-5.802-11.11-11.134-16.387 0 4.582-.09 7.742.024 10.895.12 3.285-1.245 5.084-4.614 5.039-4.482-.06-8.963-.199-13.92-.92l-2.428-5.612-4.804 4.07c1.62 1.165 3.167 2.46 4.892 3.439.775.44 1.907.25 3.727.51m65.942-36.12c5.982 1.398 11.964 2.797 18.307 4.826 24.936 10.538 37.822 30.155 41.917 56.952.99-1.115 1.464-1.543 1.808-2.059.731-1.095 1.394-2.235 2.65-3.774 1.114-1.646 2.075-3.425 3.37-4.914 3.458-3.975 3.87-8.134 1.375-12.744-3.455-6.388-6.154-13.295-10.326-19.162-11.09-15.592-25.756-26.473-45.16-31.623-.96-.066-2.245-.567-2.825-.13-5.276 3.97-10.43 8.106-16.302 12.731 2.088-.16 3.223-.247 5.186-.104m35.166 156.802c.963.033 2.239.484 2.839.034 5.26-3.945 10.399-8.05 16.163-12.57-1.904.111-3.03.177-5.015.025-5.665-1.1-11.33-2.2-17.266-3.932-25.25-10.954-39.316-30.39-43.05-58.032-1.422 1.805-2.367 2.951-3.243 4.148-.283.387-.386.906-1.14 1.76-.947 1.364-1.782 2.825-2.862 4.075-4.032 4.666-4.622 9.59-1.522 14.99 3.87 6.744 6.96 14.06 11.603 20.214 10.894 14.44 25.06 24.5 43.493 29.288m-57.217-102.789c14.52-15.313 31.28-27.639 51.229-37.52-14.359-8.446-27.89-14.8-44.767-9.374-9.09 2.157-14.082 8.444-16.258 17.005-3.048 11.993.955 22.849 6.227 34.168 1.262-1.663 2.127-2.803 3.569-4.279m53.22-91.491-2.51-1.35-11.62 21.717c.81.283 2.018.704 3.947 1.268 2.02.684 4.042 1.369 6.372 2.696 23.31 9.823 38.446 27.505 48.112 51.535.948-2.577 1.455-3.954 2.431-5.822 5.85-14.097 9.399-28.688 9.194-44.034-.022-1.675-.393-3.94-1.498-4.914-10.437-9.197-22.032-16.548-35.341-20.925-.983-.323-2.162-.082-3.248-.054-5.145.131-10.288.28-15.84-.117m8.161 128.28-33.588 22.818 9.482 10.287c19.968-9.253 37.095-21.457 51.637-37.118 19.294-20.78 31.632-44.855 35.146-73.381 1.172-9.513-3.211-15.5-9.22-22.186-2.538 41.72-22.303 73.338-53.457 99.58m-57.806-7.778c16.348-22.248 37.405-38.855 62.36-51.35-2.483-2.935-4.737-5.37-6.722-8.009-2.2-2.922-4.473-3.24-7.573-1.306-8.165 5.091-16.917 9.364-24.603 15.08-30.45 22.648-51.486 51.436-57.51 89.906-1.595 10.18.466 18.45 8.85 25.34 1.16-25.81 9.99-48.527 25.198-69.661M201 407.73l5.859-14.65c-4.001-2.815-8.424-5.764-12.653-8.97-2.22-1.683-4.101-3.815-7.016-6.58.51-.626 1.6-3.164 2.903-3.277 1.876-.163 4.393.965 5.763 2.385 2.58 2.674 4.536 5.95 7.485 9.976l1.467-5.642-5.675-3.227 3.438-4.63c-.206-1.935-.787-4.396-.65-6.817.216-3.839-1.468-5.448-5.114-5.793-9.191-.87-16.292 3.26-21.584 7.896.365 7.826 1.01 14.38.87 20.918-.113 5.295-1.685 10.575-1.637 15.853.035 3.957.383 9.03 2.758 11.621 5.314 5.803 12.596 9.176 20.624 10.004 1.03.106 3.044-1.85 3.213-3.047.155-1.103-1.35-3.267-2.491-3.566-3.02-.792-6.316-.509-9.35-1.266-2.328-.581-4.609-1.848-6.533-3.307-.817-.62-.67-2.512-.962-3.826 1.433-.063 2.943-.452 4.283-.13 5.262 1.266 10.47 2.756 16.235 4.307-.58-3.47-.907-5.422-1.233-8.232M139.373 101.68l-3.934 6.865c4.62 3.292 8.903 6.183 12.994 9.326 2.223 1.708 4.118 3.843 7.052 6.633-.58.687-1.711 3.196-2.996 3.277-1.877.118-4.347-1.052-5.698-2.489-2.488-2.646-4.345-5.886-7.271-10.016l-1.638 5.577 5.733 3.814-3.647 3.833c.262 2.236.897 4.85.794 7.434-.143 3.61 1.46 5.157 4.83 5.552 8.597 1.008 15.523-2.636 21.79-7.904.673-.567.58-2.287.513-3.453-.368-6.403-1.193-12.802-1.163-19.199.024-5.127 1.598-10.268 1.434-15.37-.12-3.744-.776-9.08-3.235-10.819-5.823-4.118-12.815-6.63-19.47-9.472-.841-.36-3.13.869-3.662 1.914-1.757 3.45.172 4.421 3.504 5.036 4.944.913 9.805 2.41 14.556 4.074.707.248.62 2.761.9 4.227-1.333-.015-2.73.225-3.988-.09-5.274-1.32-10.507-2.806-14.7-3.944-.895 5.661-1.596 10.098-2.698 15.194m94.606 187.67c.152 6.848 5.266 10.029 9.448 13.933 3.71-4.561-3.55-13.354 5.473-14.059 5.43-.424 13.633-4.74 16.924 5.853l4.344-3.917c-1.575-1.19-2.994-2.805-4.767-3.459-1.96-.722-4.33-.279-6.36-.883-1.61-.479-2.977-1.772-4.453-2.704 1.668-.844 3.344-2.404 5.002-2.385 3.731.04 7.453.863 11.554 1.419-1.96-4.95-6.128-4.62-9.95-5.341-1.517-.286-2.783-1.902-4.163-2.912 1.575-.737 3.132-2.032 4.73-2.087 2.683-.092 5.393.606 8.092.971l.486-1.415c-2.69-1.102-5.452-2.063-8.036-3.375-1.097-.556-1.82-1.85-2.713-2.81 1.224-.745 2.409-2.018 3.68-2.112 1.823-.135 3.709.59 5.568.949l.171-1.826c-13.948-4.875-28.55-1.059-42.033-2.458 2.39 9.592 4.654 18.677 7.003 28.618M63.674 154.999l-3.743.326.921.874-3.59 6.103-4.433-7.343c-1.209 0-3.437.319-5.497-.134-1.043-.229-1.78-1.851-2.655-2.844.933-.712 1.795-1.885 2.813-2.042 2.086-.32 4.257-.096 5.297-.096l4.475-7.636 3.966 7.322h16.858l-.398-4.508c-15.063.643-22.555-7.755-18.658-20.684l-6.114-3.946c-16.745 15.951-16.577 50.378.295 63.715l6.546-4.446c-3.32-4.096-3.661-8.184-.694-12.128 4.63-6.154 10.821-9.01 18.72-7.976v-4.557h-14.11M286.91 379.865c2.626 2.739 4.329.853 5.928-1.228 8.772-11.411 10.83-24.398 8.543-38.222-1.433-8.66-4.837-16.47-11.623-22.676l-6.753 4.591c3.086 4.063 3.415 8.087.78 11.886-4.43 6.384-10.75 9.092-18.867 8.44l.197 4.074h16.516l3.671-6.974 4.646 7.357c1.165 0 3.52-.257 5.768.125.903.154 2.136 1.695 2.159 2.631.018.74-1.51 2.033-2.483 2.176-2.233.328-4.546.104-5.7.104l-3.94 7.638-4.332-7.393h-16.306v4.312c14.188-.471 24.643 9.912 18.34 20.797.934.633 1.89 1.28 3.456 2.362m-42.262-149.03c-1.437 2.194-2.943 4.346-4.297 6.59-3.52 5.834-6.972 11.709-10.554 17.74h14.79c0-8.2 0-15.975.06-24.33m-146.66 24.722v16.823l14.746-25.592H97.986v8.769m146.3 97.262-10.586-.888c1.365 8.26 7.278 3.304 10.841 6.016 0-2.12 0-3.246-.256-5.128M108.81 148.751c-1.298-6.863-7.213-1.895-10.421-4.528v5.375c3.694 0 6.977 0 10.421-.847m132.4 198.273c3.731-.623 3.731-.623 2.486-4.855-8.982 1.529-8.982 1.529-9.365 4.855h6.88M107.8 158.641l1.104-3.352h-10.96l.246 4.544c3.13-.224 6.034-.432 9.61-1.192z"/><path fill="#313131" d="M313.986 16.038H81.366v-4.864c1.402-.074 2.696-.203 3.99-.203 65.327-.01 130.653-.009 195.98-.009 14.664 0 29.33.114 43.994-.069 4.43-.055 6.314 1.348 6.31 5.987-.07 117.154-.057 234.308-.063 351.462 0 .654-.084 1.308-.157 2.382l-5.185.402V16.038h-12.249zM11.112 371V131.221l5.406-.295v354.88h244.654v5.232H18.729c-7.507 0-7.616-.108-7.616-7.56-.002-37.326 0-74.652 0-112.478z"/><path fill="currentColor" d="M80.2 455.018c2.836 10.229-1.458 18.713-10.19 20.77-8.44 1.989-16.688-3.178-18.52-11.696-1.136-5.278.457-9.831 4.026-13.772 1.622-1.79 3.238-3.584 4.857-5.376l-.92-1.077c-1.016.755-2.06 1.475-3.044 2.269-6.774 5.464-15.426 5.057-21.146-1.014-5.488-5.825-5.478-15 .023-20.805 5.518-5.822 14.689-6.2 21.176-.758 2.387 2.002 4.569 4.25 8.1 6.074-.823-4.202-1.172-8.576-2.602-12.56-1.456-4.059-3.977-7.735-6.26-12.005h21.784c-5.613 7.793-9.727 15.411-7.55 25.65 1.872-2.223 3.557-4.644 5.651-6.632 6.314-5.992 15.675-5.878 21.509.076 5.87 5.992 5.779 15.727-.202 21.527-6.04 5.858-15.095 5.664-21.516-.454-1.184-1.128-2.386-2.235-4.502-2.61 3.061 4.014 6.122 8.027 9.326 12.393zM247.586 79.638c-7.687-6.922-8.535-15.975-2.409-22.645 6.463-7.036 15.433-6.385 25.416 1.07-1.695-2.13-3.315-4.327-5.1-6.38-4.457-5.126-5.771-10.818-2.852-17.063 2.718-5.815 7.452-8.7 13.939-8.634 6.304.065 10.842 3.026 13.41 8.646 2.643 5.787 1.85 11.348-2.239 16.303-2.218 2.688-4.545 5.287-6.298 8.591 5.14-4.632 10.424-8.923 17.607-7.05 3.32.867 6.797 2.983 9.099 5.53 5.044 5.583 4.217 14.657-1.1 19.943-7 6.963-14.11 5.497-29.108-6.865 1.004 5.523 1.27 9.908 2.674 13.891 1.39 3.943 3.93 7.48 6.274 11.76h-21.513c5.334-7.63 9.508-15.237 8.432-25.464-7.301 8.148-14.676 15.006-26.232 8.367zM21.87 99.156c-5.985-.867-8.483-3.619-8.04-8.388.464-5.004 4.048-7.123 11.533-6.584-1.837-4.37-3.176-9.197 1.757-11.75 2.373-1.229 6.711-.957 9.008.478 3.915 2.447 3.751 6.684.862 10.929 5.154.074 10.671-.095 11.575 5.978.376 2.53-1.213 6.416-3.232 8.022-4.62 3.675-8.572.108-13.166-2.457l3.927 11.067h-9.54l4.299-11.829c-3.508 1.846-6.041 3.18-8.982 4.534zM318.766 425.433c-2.939 5.317-6.496 6.89-10.615 5.029-4.467-2.02-5.388-6.037-2.689-12.77-4.94.704-9.985.57-11.177-5.108-.529-2.52.745-6.627 2.678-8.216 4.661-3.831 8.886-.71 12.526 3.036l1.056-.73-4.048-11.218h9.607l-3.91 11.15 1.024.694c3.687-3.614 7.892-6.824 12.535-2.874 1.924 1.638 3.208 5.682 2.689 8.2-1.143 5.535-6.17 5.63-10.692 5.378.388 2.428.757 4.738 1.016 7.43zM35.585 31.005c0 5.99.12 11.485-.027 16.973-.301 11.157-4.265 16.142-16.732 19.763.825-2.432.878-4.558 1.937-5.369 4.671-3.575 6.43-8.21 6.375-13.9-.094-9.65-.072-19.304.005-28.955.02-2.524-.013-4.553-3.344-4.909-.968-.103-1.771-1.75-2.65-2.689 1.054-.501 2.096-1.405 3.163-1.435 5.313-.15 10.632-.069 17.5-.069-1.211 1.93-1.812 3.991-2.715 4.133-3.524.555-3.568 2.841-3.526 5.474.057 3.494.014 6.989.014 10.983zM315.189 471.984c0 2.996-.025 5.496.006 7.995.04 3.372-1.022 7.326 4.485 7.692.647.043 1.166 2.028 2.148 3.871-6.565 0-12.036.065-17.503-.061-.944-.022-1.87-.85-2.804-1.307.679-.942 1.269-2.608 2.05-2.703 3.617-.442 3.445-2.842 3.433-5.45-.042-9.33-.17-18.666.06-27.992.275-11.137 4.338-16.088 16.578-19.677-.56 2.145-.46 4.293-1.397 4.938-5.809 3.998-6.948 9.854-7.04 16.202-.078 5.33-.016 10.664-.016 16.492z"/><path fill="#244CC2" d="M173.874 165.067c-2.021-.685-4.042-1.37-6.384-2.46 3.423-7.168 7.167-13.929 10.91-20.69 5.145-.142 10.288-.29 15.433-.422 1.086-.028 2.265-.269 3.248.054 13.309 4.377 24.904 11.728 35.341 20.925 1.105.974 1.476 3.239 1.498 4.914.205 15.346-3.345 29.937-9.541 43.94-9.295-20.396-23.812-35.293-43.886-44.705-2.008-.941-4.404-1.057-6.62-1.556z"/><path fill="#C83213" d="M164.048 360.056c-5.043-.002-10.087.033-15.13-.024-2.089-.024-4.574.445-6.199-.491-10.488-6.038-20.872-12.27-31.06-18.8-1.572-1.008-2.711-3.852-2.768-5.882-.425-15.2 2.835-29.712 9.387-43.688 8.432 17.784 20.855 31.65 37.93 41.244 2.074 1.166 4.53 1.654 6.809 2.456 2.88 1.057 5.761 2.115 9.204 3.372.794.353.872.563.795.83 0 0-.084-.06.052.223.31 1.284.96 2.534.585 3.248-3.094 5.893-6.378 11.688-9.605 17.512z"/><path fill="#F7F7F7" d="M186.423 269.423c30.885-26.007 50.65-57.625 53.187-99.345 6.01 6.687 10.393 12.673 9.22 22.186-3.513 28.526-15.851 52.6-35.145 73.38-14.542 15.662-31.669 27.866-51.637 37.12l-9.482-10.288c11.458-7.784 22.523-15.301 33.857-23.053m42.976-34.497 3.275-4.246-4.93-2.582-2.204 4.574c1.256.79 2.21 1.389 3.859 2.254m-11.409 10.908 3.605 2.287 2.803-4.26-4.439-3.18c-.922 1.808-1.635 3.205-1.969 5.153m-31.768 32.206 2.563 3.03 4.077-3.448-3.7-4.138c-1.262 1.507-2.256 2.694-2.94 4.556m47.307-62.269c-2.547 4.292.423 4.67 3.683 5.306l1.744-5.09c-1.954-.319-3.463-.565-5.427-.216m-30.262 52.902-1.936-5.684-4.359 4.626c1.993 1.167 2.724 5.235 6.295 1.058m6.502-9.946 6.476-1.279-6.307-5.767c-.331 3.034-.523 4.795-.169 7.046m-33.428 30.65 3.997-2.428-3.003-4.458-4.269 3.1c.97 1.389 1.727 2.472 3.275 3.786m-10.958 2.429h-6.087l3.297 5.78c1.618-1.72 5.77-1.207 2.79-5.78m75.654-90.904c-4.639-1.264-2.46 2.63-4.043 4.524l6.496 1.214c-.73-2.493-1.185-4.047-2.453-5.738m4.241-14.748-4.095-.487-.716 5.078 5.187.54c.116-1.726.213-3.148-.376-5.131z"/><path fill="#F8F8F8" d="M128.152 262.18c-15.012 20.834-23.842 43.551-25.003 69.36-8.383-6.888-10.444-15.158-8.85-25.339 6.025-38.47 27.061-67.258 57.511-89.905 7.686-5.717 16.438-9.99 24.603-15.08 3.1-1.934 5.374-1.617 7.573 1.305 1.985 2.638 4.24 5.074 6.722 8.008-24.955 12.496-46.012 29.103-62.556 51.65m-27.925 33.833-1.141 4.406 5.055 1.382 1.247-5.196c-1.775-.385-3.163-.686-5.161-.592m51.15-73.069.868 6.324 4.872-4.237.024-1.72c-1.736-.263-3.471-.527-5.764-.367m-10.953 13.946 6.324-1.439-5.106-4.756c-.603 2.252-5.204 2.467-1.218 6.195m35.756-28.518 2.265 3.308 4.23-2.626-2.74-4.698c-1.552 1.279-2.762 2.276-3.755 4.016m-52.235 50.96c2.999-3.897-.918-3.879-2.798-5.583l-3.296 5.338c2.435.365 4.045.606 6.094.246m-15.892 22.293c-4.499-1.697-2.897 2.345-4.35 4.025l5.868 2.203c-.33-2.497-.557-4.217-1.518-6.228m56.95-68.424c-4.197 2.34-1.191 4.072.496 6.259l4.668-3.518c-1.845-1.294-3.127-2.193-5.164-2.741m-52.434 54.058-2.338 4.325 4.713 2.294 2.342-4.514c-1.425-.795-2.695-1.504-4.717-2.105m19.408-24.713-4.747 2.974 4.47 3.638 3.606-4.081c-.944-.714-1.863-1.41-3.329-2.531m-33.5 68.314-2.631 4.989h5.97c-.211-2.19 1.867-5.005-3.34-4.99z"/><path fill="#C83213" d="M209.465 316.667c-15.654 3.69-29.218-1.27-42.587-10.106 19.6-9.71 36.494-22.046 51.515-37.294 9.282 22.946 7.142 34.155-8.417 46.793 0 0-.035-.084.005.062-.08.37-.266.503-.516.545z"/><path fill="#244CC1" d="M131.985 186.142c16.128-5.593 29.66.761 44.018 9.206-19.95 9.882-36.71 22.208-51.674 37.33-2.091-8.247-4.542-16.24-5.18-24.375-.77-9.82 5.397-16.587 12.836-22.161z"/><path fill="#F9F9F9" d="M201 408.16c.326 2.381.652 4.333 1.233 7.803-5.766-1.551-10.973-3.04-16.235-4.306-1.34-.323-2.85.066-4.283.129.292 1.314.145 3.206.962 3.826 1.924 1.46 4.205 2.726 6.533 3.307 3.034.757 6.33.474 9.35 1.266 1.14.3 2.646 2.463 2.49 3.566-.168 1.197-2.182 3.153-3.212 3.047-8.028-.828-15.31-4.201-20.624-10.004-2.375-2.592-2.723-7.664-2.758-11.62-.048-5.279 1.524-10.559 1.637-15.854.14-6.538-.505-13.092-.87-20.918 5.292-4.637 12.393-8.765 21.584-7.896 3.646.345 5.33 1.954 5.114 5.793-.137 2.42.444 4.882.65 6.816l-3.438 4.63 5.675 3.228-1.467 5.642c-2.95-4.027-4.905-7.302-7.485-9.976-1.37-1.42-3.887-2.548-5.763-2.385-1.302.113-2.394 2.651-2.903 3.276 2.915 2.766 4.795 4.898 7.016 6.582 4.229 3.205 8.652 6.154 12.653 8.97-1.719 4.297-3.789 9.473-5.86 15.078m-10.98-4.107c.064 1.479-.311 3.2.331 4.358.513.924 2.265 1.16 3.467 1.7.451-1.129 1.307-2.276 1.259-3.383-.072-1.646-.784-3.263-1.224-4.892-1.24.474-2.48.948-3.833 2.217zM139.573 101.35c.902-4.767 1.603-9.204 2.499-14.865 4.192 1.138 9.425 2.624 14.7 3.944 1.257.315 2.654.075 3.986.09-.28-1.466-.192-3.98-.899-4.227-4.75-1.663-9.612-3.161-14.556-4.074-3.332-.615-5.26-1.585-3.504-5.036.533-1.045 2.82-2.274 3.662-1.914 6.655 2.842 13.647 5.354 19.47 9.472 2.46 1.74 3.115 7.075 3.235 10.82.164 5.1-1.41 10.242-1.434 15.369-.03 6.397.795 12.796 1.163 19.199.067 1.166.16 2.886-.513 3.453-6.267 5.268-13.193 8.912-21.79 7.904-3.37-.395-4.973-1.942-4.83-5.552.103-2.585-.532-5.198-.794-7.434l3.647-3.833-5.733-3.814 1.638-5.577c2.926 4.13 4.783 7.37 7.271 10.016 1.35 1.437 3.821 2.607 5.698 2.489 1.285-.081 2.417-2.59 2.996-3.277-2.934-2.79-4.829-4.925-7.052-6.633-4.09-3.143-8.375-6.034-12.994-9.326a2830.33 2830.33 0 0 1 4.134-7.195m12.502-8.555-4.15-.177c-.07 2.186-.327 4.394-.076 6.543.06.515 2.582 1.301 2.662 1.17a20.245 20.245 0 0 0 1.998-4.434c.226-.724-.072-1.612-.434-3.102z"/><path fill="#F7CA1B" d="M178.982 319.846c5.666 1.1 11.33 2.2 17.207 3.626-4.774 4.096-9.759 7.868-14.744 11.64-17.887-4.242-32.053-14.301-42.947-28.742-4.642-6.153-7.732-13.47-11.603-20.214-3.1-5.4-2.51-10.324 1.522-14.99 1.08-1.25 1.915-2.711 3.268-3.88 3.645 15.713 10.541 29.223 22.773 39.557 7.184 6.069 14.73 11.73 24.524 13.003zM164.772 183.053c-5.983-1.399-11.965-2.798-18.14-4.541 4.759-4.106 9.71-7.867 14.662-11.627 18.876 4.624 33.542 15.505 44.632 31.097 4.172 5.867 6.871 12.774 10.326 19.162 2.494 4.61 2.083 8.769-1.375 12.744-1.295 1.489-2.256 3.268-3.81 4.754-5.232-23.094-17.823-40.01-39.182-50.03-2.143-1.006-4.732-1.062-7.113-1.559z"/><path fill="#F8F8F8" d="M233.936 288.921c-2.306-9.513-4.57-18.598-6.96-28.19 13.483 1.4 28.085-2.417 42.033 2.458l-.171 1.826c-1.86-.358-3.745-1.084-5.567-.95-1.272.095-2.457 1.368-3.68 2.114.892.959 1.615 2.253 2.712 2.81 2.584 1.311 5.346 2.272 8.036 3.374l-.486 1.415c-2.699-.365-5.409-1.063-8.091-.971-1.6.055-3.156 1.35-4.731 2.087 1.38 1.01 2.646 2.626 4.163 2.912 3.822.72 7.99.391 9.95 5.34-4.1-.555-7.823-1.378-11.554-1.418-1.658-.019-3.334 1.541-5.002 2.385 1.476.932 2.843 2.225 4.453 2.704 2.03.604 4.4.16 6.36.883 1.773.654 3.192 2.268 4.767 3.459l-4.344 3.917c-3.29-10.592-11.495-6.277-16.924-5.853-9.022.705-1.763 9.498-5.473 14.06-4.182-3.905-9.296-7.086-9.49-14.362z"/><path fill="#F7F7F7" d="M64.152 154.999h13.631v4.557c-7.899-1.035-14.09 1.822-18.72 7.976-2.967 3.944-2.626 8.032.694 12.128l-6.546 4.446c-16.872-13.337-17.04-47.764-.295-63.715l6.114 3.946c-3.897 12.93 3.595 21.327 18.658 20.684l.398 4.508H61.228l-3.966-7.322-4.475 7.636c-1.04 0-3.21-.224-5.297.096-1.018.157-1.88 1.33-2.813 2.042.875.993 1.612 2.615 2.655 2.844 2.06.453 4.288.134 5.497.134l4.432 7.343 3.591-6.103-.92-.874c1.247-.109 2.494-.217 4.22-.326z"/><path fill="#F8F8F8" d="M286.604 379.648a640.107 640.107 0 0 0-3.152-2.145c6.304-10.885-4.151-21.268-18.34-20.797v-4.312h16.307l4.331 7.393 3.941-7.638c1.154 0 3.467.224 5.7-.104.973-.143 2.5-1.437 2.483-2.176-.023-.936-1.256-2.477-2.159-2.63-2.247-.383-4.603-.126-5.768-.126l-4.646-7.357-3.671 6.974h-16.516l-.197-4.074c8.116.652 14.438-2.056 18.867-8.44 2.635-3.799 2.306-7.823-.78-11.886l6.753-4.591c6.786 6.207 10.19 14.016 11.623 22.676 2.288 13.824.23 26.811-8.543 38.222-1.6 2.08-3.302 3.967-6.233 1.011z"/><path fill="#FBFBFB" d="M79.971 213.186c4.482.105 8.963.244 13.445.304 3.37.045 4.733-1.754 4.614-5.04-.114-3.152-.024-6.312-.024-10.894 5.332 5.277 10.196 8.748 11.134 16.386 1.115 9.069 4.21 17.894 6.563 27.291-13.59-1.197-28.334 2.162-42.5-2.215l.198-2.099c2.06.399 4.12 1.094 6.177 1.081 1.17-.007 2.333-1.17 3.5-1.814-.915-1.073-1.627-2.535-2.786-3.141-2.663-1.392-5.544-2.367-8.337-3.51l.425-1.316c2.786.362 5.592 1.092 8.352.95 1.718-.09 3.368-1.499 5.05-2.315-1.487-.915-2.875-2.329-4.479-2.643-3.666-.72-7.648-.49-9.765-5.253 3.983.515 7.519 1.313 11.049 1.29 1.85-.013 3.692-1.465 5.538-2.266-1.75-.97-3.47-2-5.266-2.873-.55-.267-1.311-.1-2.389-.486-.441-.716-.47-1.076-.499-1.437z"/><path fill="#254CC0" d="M196.306 221.762c1.851 7.82 3.78 15.623 5.459 23.479.223 1.042-.518 2.64-1.325 3.5-10.79 11.533-22.516 21.944-36.676 29.315 10.66-19.022 21.601-37.658 32.542-56.294z"/><path fill="#C73315" d="M146.141 280.054c-1.706-7.207-3.545-14.388-5.012-21.644-.315-1.56.167-3.89 1.204-5.02 10.576-11.53 22.118-21.934 36.334-29.084-10.6 18.853-21.563 37.3-32.526 55.748z"/><path fill="#F7CA1A" d="m256.998 382.144-6.788.299v-88.404c2.071 0 4.023 0 6.421.525.42 29.544.393 58.562.367 87.58zM85.833 119.863l6.788-.331v88.575c-2.034 0-3.979 0-6.39-.556-.443-29.6-.42-58.643-.398-87.688z"/><path fill="#F2C61D" d="M172.087 420.872c7.162 5.506 14.532 10.52 23.864 11.704 1.162.147 2.132 1.81 3.19 2.77-1.267 1.077-2.517 3.032-3.808 3.06-3.584.077-7.335-.139-10.755-1.142-17.263-5.067-25.295-19.64-22.313-39.576.685-4.582.879-9.245 1.145-13.88.436-7.572-.84-14.549-7.094-20.209 2.5 1.21 4.999 2.42 7.7 4.319.815.793 1.429.898 2.043 1.003 0 0-.056.067-.246.386 3.716 6.964 3.518 14.155 2.776 21.476-.68 6.715-1.759 13.49-1.393 20.17.185 3.385 3.17 6.617 4.89 9.919z"/><path fill="#F3C71E" d="M171.802 82.581c-.193-.137-.386-.275-.773-.684-.194-.273-.243-.235-.243-.235-6.713-6-14.764-9.243-23.301-11.657-1.698-.48-3.007-2.336-4.495-3.558 1.717-.993 3.357-2.665 5.164-2.873 15.526-1.785 31.856 12.096 32.69 28.211.34 6.562-.866 13.207-1.417 19.81-.795 9.538-1.599 19.062 7.495 25.927l-.832.996c-1.927-.816-3.854-1.632-6.157-2.819-.894-.727-1.412-1.085-1.93-1.442 0 0-.185-.065-.207-.503-3.59-5.777-4.496-11.699-3.873-17.962.718-7.228 1.696-14.446 2.019-21.693.186-4.188.113-8.723-4.14-11.518z"/><path fill="#F5C922" d="m85.223 246.832 7.77-.49c-.414 19.354 1.683 38.216-3.307 56.764-.893 3.32-.847 6.89-1.7 10.628-.678.294-.892.307-1.105.32 0 0 .08-.016.056-.286-.373-.412-.722-.554-1.071-.695 0 0 .092-.03.144-.416-.255-3.177-.82-5.968-.827-8.76-.052-19.021.013-38.043.04-57.065z"/><path fill="#254CC0" d="M175.982 358.01c2.368-4.244 4.085-9.059 7.22-12.629 10.6-12.071 24.345-20.023 38.537-27.387-4.657 6.65-9.04 13.587-14.708 19.236-8.906 8.876-19.142 16.182-31.049 20.78z"/><path fill="#C73315" d="M167.527 143.174c-3.668 5.618-6.254 12.583-11.225 16.581-11.046 8.885-23.288 16.285-35.282 23.88 10.608-19.284 27.511-31.095 46.507-40.461z"/><path fill="#F7CA1A" d="M251.927 255.568c-.686-1.3-1.951-2.593-1.968-3.901-.151-12.152-.634-24.34.094-36.45.535-8.891 2.737-17.683 4.668-26.462 1.08 2.183 2.202 4.308 2.218 6.44.14 18.372.088 36.744.07 55.117-.002 1.59-.174 3.178-.277 4.928l-4.805.328z"/><path fill="#F4EFEE" d="M146.193 280.405c10.91-18.798 21.874-37.246 32.836-56.051 0-.357-.041-.354.253-.408.44-.417.586-.781.731-1.145l5.289-3.236.969.905-37.892 64.217c-.866-1.595-1.5-2.763-2.186-4.282z"/><path fill="#EFF1F4" d="M196.234 221.41c-10.869 18.988-21.81 37.624-32.884 56.694-2.325 1.985-4.517 3.537-6.709 5.089l-.757-.784 38.445-65.1c.792 1.62 1.313 2.685 1.905 4.101z"/><path fill="#C73315" d="M167.798 35.118c8.908.767 16.81 4.139 24.972 9.278-5.787 4.23-10.97 8.018-16.778 11.676-3.147-7.072-5.67-14.013-8.194-20.954zM174.98 466.896c-8.947-.75-16.876-4.242-25.157-9.164 5.813-4.324 11.166-8.306 16.94-12.074 3.02 7.222 5.618 14.23 8.216 21.238z"/><path fill="#FEF6D9" d="M85.398 119.737c.413 29.17.39 58.215.373 87.723-2.286 1.186-2.824.17-2.82-2 .051-27.769.017-55.539.117-83.308.003-.85 1.235-1.694 2.33-2.415z"/><path fill="#F4F3EB" d="M164.952 183.368c2.201.182 4.79.238 6.933 1.244 21.359 10.02 33.95 26.936 38.9 50.238-.534 1.49-1.197 2.63-1.928 3.726-.344.516-.819.944-1.808 2.06-4.095-26.798-16.98-46.415-42.097-57.268z"/><path fill="#F6F5EF" d="M178.847 319.53c-9.66-.957-17.205-6.618-24.389-12.687-12.232-10.334-19.128-23.844-22.488-39.755.063-.851.166-1.37.449-1.757.876-1.197 1.821-2.343 3.243-4.148 3.734 27.642 17.8 47.078 43.185 58.348z"/><path fill="#EFF1F4" d="M131.61 186.058c-7.064 5.658-13.231 12.424-12.46 22.245.637 8.135 3.088 16.128 4.89 24.543-.708 1.5-1.573 2.639-2.835 4.302-5.272-11.32-9.275-22.175-6.227-34.168 2.176-8.561 7.169-14.848 16.632-16.922z"/><path fill="#F4F1F0" d="M210.37 316.04c15.165-12.618 17.305-23.827 8.314-46.912.706-1.492 1.592-2.614 2.846-4.203 4.983 10.935 8.717 21.334 6.529 32.993-1.778 9.468-10.332 18.063-17.69 18.121z"/><path fill="#F0E9E8" d="M167.673 142.99c-19.142 9.55-36.045 21.36-47.038 40.574-2.563 3.218-4.98 6.098-7.397 8.979l-1.094-1.083c10.526-25.984 32.848-39.17 56.78-51.7-.51 1.41-.808 2.228-1.25 3.23z"/><path fill="#EAECF0" d="M175.989 357.998c11.9-4.586 22.136-11.892 31.042-20.768 5.668-5.649 10.051-12.586 15.072-19.35 2.48-3.084 4.898-5.762 7.317-8.44l.972.299c-1.28 3.123-2.252 6.42-3.893 9.34-7.418 13.203-18.59 22.772-31.055 30.876-6.733 4.379-13.91 8.074-21.735 12.564.524-1.567.75-2.246 1.398-3.305.585-.663.75-.945.916-1.227 0 0-.028 0-.034.011zM174.028 165.388c2.061.178 4.457.294 6.465 1.235 20.074 9.412 34.591 24.31 43.651 44.95-.394 1.717-.901 3.094-1.85 5.671-9.665-24.03-24.801-41.712-48.266-51.856z"/><path fill="#EFC41E" d="M160.03 429.003c-5.529-2.509-7.413-7.723-8.999-12.858-3.453-11.184-1.294-22.263 1.379-33.253.545-2.243 1.319-4.43 2.432-6.533.508 5.036 1.198 10.052.516 14.873-1.812 12.812-2.875 25.366 4.854 36.864.121.18-.113.6-.182.907z"/><path fill="#F1EDEB" d="M162.928 334.544c-2.19-.475-4.646-.963-6.72-2.129-17.075-9.593-29.498-23.46-37.739-41.584.399-1.935 1.055-3.61 1.868-5.688 2.555 5.223 4.692 10.143 7.292 14.804 8.313 14.904 20.635 25.762 35.3 34.597z"/><path fill="#E6E6E6" d="M244.617 231.125c-.03 8.065-.03 15.84-.03 24.04h-14.791c3.582-6.031 7.034-11.906 10.554-17.74 1.354-2.244 2.86-4.396 4.267-6.3z"/><path fill="#DBD7C8" d="M252.067 255.441c1.325.027 2.79-.073 4.665-.201.103-1.75.275-3.339.276-4.928.02-18.373.071-36.745-.069-55.117-.016-2.132-1.138-4.257-1.948-6.716 4.844-.948 4.417 3.081 4.584 5.884.335 5.64.101 11.315.101 16.976 0 12.986.008 25.972-.01 38.958-.002 1.615-.143 3.231-.227 5.017-2.662 0-4.947 0-7.372.127z"/><path fill="#F3C71E" d="M183.177 73.84c7.647 4.147 9.018 11.664 9.772 19.177 1.127 11.232-1.073 22.109-5.16 32.697-.352-6.12-.3-12.223-.21-18.327.102-6.905.832-13.87.141-20.693-.444-4.393-2.957-8.577-4.543-12.854z"/><path fill="#F4F1F0" d="M97.986 255.068v-8.28h14.746L97.986 272.38v-17.312z"/><path fill="#FEF7E1" d="M257.47 382.246c-.446-29.12-.42-58.138-.384-87.614 3.814-.892 2.35 2.062 2.358 3.597.098 19.663.065 39.327.066 58.991 0 6.999.083 14-.072 20.995-.03 1.388-.974 2.755-1.969 4.03z"/><path fill="#EBE7D9" d="M183.14 73.855c1.623 4.262 4.136 8.446 4.58 12.839.691 6.823-.04 13.788-.14 20.693-.09 6.104-.143 12.207.041 18.692-.05 1.26-.354 2.14-.658 3.02l-1.495.052c-.416-4.272-1.312-8.564-1.137-12.812.267-6.466 1.489-12.887 1.92-19.353.581-8.747-1.739-16.766-6.907-23.931-.326-.452.002-1.376.477-1.802.661.547.936.69 1.276.708 0 0-.077 0-.009.24.378.411.687.584.996.756 0 0-.074.03-.028.294.371.407.697.55 1.022.693 0 0 .026-.074.062-.089z"/><path fill="#F0EDE2" d="M160.021 428.992c.078-.297.312-.716.191-.896-7.729-11.498-6.666-24.052-4.854-36.864.682-4.821-.008-9.837-.27-15.162.037-1.279.271-2.16.505-3.04l1.163-.116c.478 2.278 1.41 4.568 1.35 6.832-.172 6.44-.336 12.927-1.255 19.287-1.482 10.25-.09 19.744 5.444 28.582.58.927.592 2.21.398 3.045-.875-.426-1.28-.57-1.685-.714 0 0 0 .058.045-.294-.326-.46-.698-.568-1.07-.676 0 0 .03.004.038.016z"/><path fill="#EBE7D9" d="M171.48 82.876c4.575 2.5 4.648 7.035 4.462 11.223-.323 7.247-1.301 14.465-2.02 21.693-.622 6.263.283 12.185 3.843 17.868-6.673-3.833-6.75-10.618-6.468-17.204.268-6.283 1.863-12.525 1.94-18.797.06-4.82-1.331-9.659-1.756-14.783z"/><path fill="#EFC41E" d="M200.016 86.841c7.68 11.897 6.35 27.074-3.792 40.174 3.386-13.31 6.287-26.469 3.792-40.174z"/><path fill="#FBFBFB" d="M84.756 246.729c.44 19.125.375 38.147.427 57.168.008 2.792.572 5.583.805 8.803-1.025-1.213-2.785-2.847-2.802-4.498-.203-19.942-.16-39.887-.11-59.83.002-.584.792-1.165 1.68-1.643z"/><path fill="#EFC41E" d="M141.94 413.093c-5.127-6.407-4.957-13.956-3.341-21.155 1.238-5.516 4.383-10.603 7.112-15.534-2.972 12.23-4.399 24.34-3.772 36.69z"/><path fill="#C73719" d="m195.973 465.564-8.982 1.771c1.713-7.948 6.498-12.889 11.66-17.541.45 5.653 3.449 11.602-2.678 15.77z"/><path fill="#EBE7D9" d="M199.904 86.54c2.607 14.006-.294 27.165-3.975 40.71-.964 1.648-1.888 2.836-2.811 4.024 4.407-16.248 7.775-32.14 2.777-50.082 1.861 2.41 2.879 3.728 4.009 5.348z"/><path fill="#C73315" d="m145.994 37.146 9.657-2.377c-1.565 7.611-6.096 12.527-11.474 16.983-.49-5.148-3.595-10.557 1.817-14.606z"/><path fill="#F4EFEE" d="M175.309 467.002c-2.928-7.114-5.526-14.122-8.245-21.466.895-1.147 1.91-1.959 3.474-3.21l9.473 25.186c-1.847-.17-3.11-.286-4.702-.51z"/><path fill="#F4F1F0" d="m204.171 72.06-3.322 4.123c-3.084-9.307-5.133-17.786-2.422-27.606 1.392 1.371 2.48 2.442 3.612 4.308a2902.75 2902.75 0 0 0 2.132 19.175zM167.465 35.042c2.857 7.017 5.38 13.958 8.192 21.174-.801 1.221-1.89 2.168-3.508 3.574l-9.484-25.317c1.963.217 3.214.356 4.8.57z"/><path fill="#F4F3EB" d="M172.055 420.5c-1.688-2.93-4.674-6.162-4.86-9.547-.365-6.68.714-13.455 1.394-20.17.742-7.32.94-14.512-2.741-21.502 1.916 3.218 4.861 6.721 5.033 10.356.34 7.2-.661 14.494-1.467 21.708-.73 6.54-.654 12.852 2.64 19.155z"/><path fill="#F0EDE2" d="M141.965 413.067c-.653-12.323.774-24.434 4.093-36.72-.086-.404-.058-.355.227-.436.439-.7.593-1.321.746-1.942.592-.784 1.158-1.59 1.794-2.338.163-.192.548-.195 1.502-.499-4.875 16.084-8.861 31.97-4.812 48.703-.789-1.174-1.577-2.348-2.463-4.173a16.189 16.189 0 0 0-1.129-2.646s.068.026.042.051z"/><path fill="#F7F7F7" d="m138.574 429.876 3.115-3.905c3.622 9.11 4.54 17.71 2.791 27.434-1.46-1.303-2.482-2.214-3.705-3.837-.869-7.039-1.535-13.365-2.201-19.692z"/><path fill="#EAECF0" d="M178.197 141.648c-3.54 7.03-7.284 13.791-11.068 20.887-1.247-.086-2.455-.507-3.264-.79l11.62-21.717c.237.128 1.373.739 2.712 1.62z"/><path fill="#F1EDEB" d="M164.275 360.332c3-6.1 6.284-11.895 9.378-17.788.374-.714-.275-1.964-.565-3.296 1.917.12 3.95.57 5.727.963l-11.654 21.763a35.598 35.598 0 0 1-2.886-1.642z"/><path fill="#C73719" d="m161.095 46.685 5.497 13.313c-5.569-.747-10.074-1.351-14.826-2.304 2.945-3.902 6.137-7.455 9.329-11.009zM138.302 430.056c.938 6.147 1.604 12.473 2.213 19.228-1.379-1.232-2.847-2.796-3.995-4.568-4.884-7.544-4.81-7.939 1.782-14.66z"/><path fill="#C73315" d="M204.463 71.902c-.987-5.968-1.683-12.095-2.289-18.7 1.371 1.02 2.815 2.41 3.905 4.038 5.016 7.492 4.925 8.118-1.616 14.662zM181.543 455.939c-1.57-4.086-3.14-8.171-4.863-12.66 4.993.255 9.32.477 13.96 1.087-2.823 4.117-5.96 7.845-9.097 11.573z"/><path fill="#F1EDEB" d="M196.361 465.46c5.739-4.064 2.74-10.013 2.572-15.81 1.106-1.51 2.279-2.608 4.344-4.542.553 5.986 1.733 11.14 1.1 16.06-.219 1.696-4.955 2.81-8.016 4.293z"/><path fill="#F4EFEE" d="M145.61 37.064c-5.028 4.131-1.923 9.54-1.73 14.868-.816 2.051-1.813 3.688-2.81 5.325l-1.766-1.466c-.332-3.23-.659-6.46-.996-9.689-.714-6.848-.347-7.334 7.303-9.038z"/><path fill="#F0E9E8" d="M192.901 68.933c.255 3.384-1.44 1.891-2.841 1.136l-13.201-7.12 15.007-11.278c0 1.363 0 2.081-.353 3.318-3.56 2.993-6.768 5.468-10.24 8.148l11.628 5.796z"/><path fill="#C73719" d="M151.17 446.435c-.427-4.17-.855-8.34-.959-12.82 3.777 1.266 7.228 2.843 10.763 4.762-3.212 2.914-6.508 5.486-9.803 8.058zM192.913 68.52c-3.682-1.417-7.352-3.246-11.64-5.383 3.472-2.68 6.68-5.155 10.141-7.787.674 4.148 1.092 8.454 1.499 13.17z"/><path fill="#F0E9E8" d="M181.646 456.305c3.034-4.094 6.171-7.822 9.46-11.855 1.578-.304 3.004-.304 4.325-.304l-12.411 15.537c-.348-.824-.81-1.918-1.374-3.378z"/><path fill="#F6F5EF" d="M161.07 46.338c-3.167 3.9-6.36 7.454-9.708 11.276-1.44.268-2.723.268-4.055.268l12.478-15.755c.392 1.205.826 2.535 1.284 4.211z"/><path fill="#F0EDE2" d="M161.03 166.622c-4.688 4.023-9.639 7.784-14.812 11.775-1.356.316-2.491.403-4.58.563 5.874-4.625 11.027-8.76 16.303-12.731.58-.437 1.866.064 3.088.393zM181.718 335.384c4.712-4.044 9.697-7.816 14.9-11.803 1.345-.282 2.47-.348 4.375-.46-5.764 4.52-10.903 8.626-16.163 12.57-.6.45-1.876 0-3.112-.307z"/><path fill="#E6E6E6" d="M244.413 353.197c.128 1.504.128 2.63.128 4.75-3.563-2.712-9.476 2.245-10.841-6.016 3.781.318 7.183.603 10.713 1.266z"/><path fill="#EAECF0" d="M108.73 149.175c-3.364.423-6.647.423-10.341.423v-5.375c3.208 2.633 9.123-2.335 10.34 4.952zM240.768 347.024h-6.437c.383-3.326.383-3.326 9.365-4.855 1.245 4.232 1.245 4.232-2.928 4.855z"/><path fill="#F0E9E8" d="M151.08 446.764c3.386-2.901 6.682-5.473 10.285-8.4.83-.39 1.352-.423 1.873-.456 2.187.287 2.878 1.042.781 2.6-4.194 3.115-8.401 6.214-13.197 9.759.083-1.601.124-2.387.257-3.503z"/><path fill="#F7F7F7" d="M107.464 158.917c-3.24.484-6.142.692-9.273.916l-.246-4.544h10.96c-.395 1.2-.75 2.276-1.441 3.628z"/><path fill="#DBD7C8" d="M79.734 212.879c.266.668.295 1.028.312 1.661-.983.176-2.115.366-2.89-.073-1.725-.98-3.272-2.274-4.892-3.44l4.804-4.07c1.051 2.432 1.74 4.023 2.666 5.922z"/><path fill="#E6E6E6" d="M162.99 437.656c-.273.285-.795.319-1.708.366-3.843-1.564-7.294-3.14-11.085-4.835-.648-.984-.955-1.85-1.492-3.363 5.078 2.743 9.557 5.162 14.285 7.832z"/><path fill="#EBE7D9" d="M178.092 134.47c.43.144.947.502 1.459 1.137-.46-.122-.916-.523-1.459-1.137z"/><path fill="#EFC41E" d="M141.79 413.3c.477.381.821 1.046 1.14 2.01-.442-.375-.858-1.05-1.14-2.01zM146.759 374.13c.119.46-.035 1.08-.502 1.782-.132-.487.049-1.055.502-1.783z"/><path fill="#F4F3EB" d="M166.032 368.594c-.587.222-1.201.117-1.842-.362.588-.237 1.201-.101 1.842.362z"/><path fill="#EFC41E" d="M159.99 429.272c.365-.188.737-.08 1.088.366-.374.201-.727.065-1.087-.366z"/><path fill="#F3C71E" d="M181.104 71.675c-.347.269-.622.125-.927-.363.247-.119.59-.02.927.363z"/><path fill="#EFC41E" d="M161.151 430.254c.262-.164.667-.02 1.238.431-.254.164-.674.02-1.238-.43z"/><path fill="#C73315" d="M179.733 222.917c.135.248-.011.612-.446 1.05-.138-.263.014-.599.446-1.05z"/><path fill="#254CC0" d="M175.735 357.97c.122.3-.043.581-.471.934-.114-.27.034-.612.47-.935z"/><path fill="#F1EDEB" d="M172.904 338.958c.189-.152.111-.362-.286-.586-.036.1.078.28.286.586z"/><path fill="#F3C71E" d="M182.182 72.628c-.407.157-.716-.016-1.08-.463.357-.14.768-.002 1.08.463zM183.214 73.585c-.461.216-.787.073-1.139-.369.407-.196.841-.093 1.14.369z"/><path fill="#F4F1F0" d="M209.549 316.536c.166.089.351-.044.469-.44-.145-.024-.272.136-.469.44z"/><path fill="#EBE7D9" d="M170.806 81.642c-.02.02.029-.018.035-.047.006-.028-.016.028-.035.047z"/><path fill="#FBFBFB" d="M86.796 314.367c.298-.326.512-.339 1.032-.252-.168.254-.642.41-1.032.252zM85.75 313.441c.465-.227.814-.085 1.187.368-.418.208-.86.104-1.187-.368z"/><path fill="currentColor" d="M229.05 234.793c-1.3-.732-2.254-1.332-3.51-2.121l2.204-4.574 4.93 2.582c-1.23 1.595-2.252 2.92-3.624 4.113zM217.8 245.559c.524-1.673 1.237-3.07 2.16-4.878l4.438 3.18-2.803 4.26c-1.265-.803-2.435-1.545-3.794-2.562zM186.067 277.703c.839-1.525 1.833-2.712 3.096-4.219l3.699 4.138-4.077 3.448c-.953-1.127-1.758-2.078-2.718-3.367zM233.757 215.474c1.736-.052 3.245.194 5.199.513l-1.744 5.09c-3.26-.636-6.23-1.014-3.455-5.603zM203.003 268.922c-3.307 3.928-4.038-.14-6.03-1.307l4.358-4.626c.804 2.36 1.37 4.022 1.672 5.933zM209.496 258.482c-.081-2.006.11-3.767.442-6.801l6.307 5.767c-2.96.585-4.717.932-6.75 1.034zM175.946 289.262c-1.153-1.2-1.91-2.282-2.88-3.67 1.406-1.022 2.684-1.95 4.27-3.1l3.002 4.457c-1.522.924-2.76 1.676-4.392 2.313zM165.598 292.115c2.764 4.264-1.387 3.752-3.005 5.47l-3.297-5.78c2.662 0 4.375 0 6.302.31zM241.443 200.97c.862 1.623 1.317 3.177 2.047 5.67l-6.496-1.214c1.583-1.893-.596-5.788 4.45-4.456zM245.62 186.434c.247 1.703.15 3.125.034 4.852l-5.187-.54.716-5.079c1.558.185 2.827.336 4.438.767zM100.532 295.814c1.693.104 3.08.405 4.856.79l-1.247 5.196-5.055-1.382c.424-1.638.782-3.022 1.446-4.604zM151.656 222.732c2.014.051 3.75.315 5.485.578l-.024 1.72-4.872 4.237c-.383-2.787-.626-4.555-.59-6.535zM140.166 236.603c-3.728-3.442.873-3.657 1.476-5.91l5.106 4.757c-2.834.645-4.579 1.042-6.582 1.153zM176.071 208c1.102-1.369 2.312-2.366 3.864-3.645l2.74 4.698-4.23 2.626c-.818-1.194-1.542-2.25-2.374-3.679zM123.726 259.632c-1.83.06-3.44-.181-5.875-.546l3.296-5.338c1.88 1.704 5.797 1.686 2.579 5.884zM108.42 281.77c.594 1.866.82 3.586 1.15 6.083l-5.867-2.203c1.453-1.68-.149-5.722 4.717-3.88zM165.38 213.025c1.66.724 2.942 1.623 4.787 2.917l-4.668 3.518c-1.687-2.187-4.693-3.919-.119-6.435zM112.945 267.205c1.646.655 2.916 1.364 4.341 2.16l-2.342 4.513-4.713-2.294c.861-1.593 1.6-2.959 2.714-4.379zM132.25 242.758c1.193.909 2.112 1.605 3.056 2.319l-3.606 4.08-4.47-3.637c1.861-1.166 3.304-2.07 5.02-2.762zM98.94 310.892c4.743-.048 2.665 2.766 2.875 4.957h-5.969c1.092-2.071 1.861-3.53 3.093-4.957zM190.076 403.655c1.296-.871 2.536-1.345 3.776-1.819.44 1.63 1.152 3.246 1.224 4.892.048 1.107-.808 2.254-1.259 3.383-1.202-.54-2.954-.776-3.467-1.7-.642-1.157-.267-2.88-.274-4.756zM152.226 93.132c.21 1.152.509 2.04.283 2.764a20.245 20.245 0 0 1-1.998 4.433c-.08.132-2.602-.654-2.662-1.169-.251-2.149.005-4.357.076-6.543 1.383.06 2.767.118 4.3.515z"/></svg>