<svg xmlns="http://www.w3.org/2000/svg" viewBox="0 0 340 500" xml:space="preserve"><path fill="#FEFEFE" d="M341 125v376H1V1h340v124M38.232 84.25s-.3-.312-.166-1.022c2.274-3.695 2.572-7.746-1.042-10.209-2.167-1.476-6.208-1.98-8.602-.984-5.51 2.292-4.086 7.373-2.711 12.293-5.053-.892-9.222-.2-10.878 4.915-1.123 3.47-.275 6.724 2.958 8.739 5.495 3.424 9.176-.368 13.656-3.33-1.4 3.933-2.802 7.864-4.231 11.877h9.576l-4.224-11.878c2.344.77 3.522 2.212 5.01 3.178 3.265 2.119 6.638 2.092 9.583-.621 2.959-2.726 3.343-6.198 1.369-9.515-2.278-3.826-5.94-4.456-10.298-3.442m231.55-25.686-1.439-1.386c-6.82-6.572-16.032-6.779-22.191-.498-5.731 5.844-5.709 15.264.05 21.13 6.165 6.278 15.5 6.042 22.183-.599 1.966-1.952 3.844-3.992 6.328-6.583.876 10.416-3.197 18.33-8.586 26.171h21.989c-5.927-7.93-9.56-15.838-8.841-26.16 2.704 2.8 4.79 5.097 7.022 7.242 6.118 5.874 15.24 5.979 21.12.316 5.984-5.763 6.358-15.046.85-21.1-5.702-6.267-14.87-6.706-21.483-1.039-1.117.958-2.273 1.87-3.412 2.803l-1.003-1.119c1.8-2.035 3.56-4.107 5.406-6.1 5.915-6.38 5.843-15.558-.203-21.476-5.86-5.734-15.268-5.737-21.137-.005-6.031 5.891-6.074 15.104-.197 21.522 1.771 1.934 3.303 4.088 4.511 6.67-.125.19-.25.38-.968.21M60.767 443.709c.137.152.273.303.273 1.125-1.75 1.991-3.496 3.984-5.248 5.972-4.941 5.608-5.218 14.09-.64 19.705 5.312 6.515 15.046 7.551 21.422 2.281 6.67-5.513 7.479-15.26 1.817-21.81-1.977-2.287-3.934-4.592-5.9-6.89l1.053-.884c.87.704 1.778 1.368 2.606 2.12 6.89 6.25 15.753 6.206 21.817-.128 5.704-5.958 5.59-15.224-.26-21.103-6.065-6.093-15.323-5.94-21.844.46-2.082 2.042-3.942 4.31-6.494 7.126-.994-10.76 3.255-18.632 8.581-26.669H55.766c6.024 7.956 9.635 15.99 9.028 26.354-2.958-3.029-5.169-5.467-7.564-7.708-4.458-4.169-11.311-5.157-16.718-2.567-5.949 2.85-9.106 8.625-8.494 15.54.512 5.79 4.696 10.689 10.558 12.579 7.449 2.401 12.82-1.19 18.191-5.503m-1.95-285.273c1.746 4.352 3.468 8.713 5.255 13.048.477 1.156 1.646 2.222 1.661 3.341.134 9.645.077 19.293.077 29.508-9.312.364-14.568 4.773-14.452 14.404.059 4.865-.379 9.74-.189 14.595.078 1.99 1.918 4 1.748 5.89-.504 5.6 2.218 8.855 6.894 10.885 2.672 1.16 5.522 1.913 8.021 2.757-2.83 7.703-6.035 15.015-8.198 22.623-3.616 12.722-5.32 25.74-2.646 38.93 2.936 14.483 11.996 24.75 23.95 32.415 14.175 9.088 23.676 21.314 29.41 37.15 4.776 13.193 10.89 25.902 16.7 39.5-.029.06-.601 1.527-1.38 2.875-3.792 6.554-7.353 13.268-11.569 19.54-2.677 3.984-2.354 6.634 2.31 7.866 8.734 2.305 17.431 2.08 24.94-.544 4.393 6.665 8.427 13.047 12.746 19.229 2.256 3.229 5.604 4.271 9.206 2.279 6.742-3.73 13.36-7.68 20.722-11.937 6.15 4.128 14.19 6.798 23.179 6.43 5.665-.233 6.582-1.88 4.485-7.099-2.526-6.285-4.94-12.68-6.571-19.234-1.008-4.046-1.437-7.872-5.277-8.831.475-5.713 1.306-10.945 1.245-16.166-.077-6.54 1.665-12.222 6.327-16.739 3.535-3.425 3.56-6.315.841-8.118.399-4.497.663-7.936 1.036-11.362.096-.88.273-2.04.862-2.531 6.149-5.112 7.355-11.941 7.045-19.381-.297-7.13 2.827-12.128 9.489-14.836 1.538-.625 3.079-1.246 4.612-1.885 3.753-1.564 4.35-4.457 1.322-7.025-1.935-1.642-4.089-3.025-6.796-4.999l31.321-24.256c0 6.688.307 11.709-.122 16.666-.234 2.714-1.253 5.615-2.729 7.91-2.703 4.206-4.386 8.414-3.952 13.542.172 2.036-.743 4.233-1.444 6.26-1.988 5.743-4.418 11.355-6.011 17.2-.467 1.713.771 5.115 2.158 5.77 1.421.67 4.227-.712 5.978-1.872 1.812-1.2 3.085-3.213 4.393-4.65 2.81 5.192 5.346 10.425 8.394 15.341 2.72 4.387 5.6 4.384 8.322-.01 3.04-4.908 5.568-10.134 7.9-14.446 1.778 1.45 3.79 3.462 6.158 4.878 1.376.822 3.565 1.31 4.936.779 1.053-.408 2.233-2.87 1.918-4.026-1.72-6.313-3.906-12.498-5.886-18.741-.657-2.073-1.754-4.22-1.646-6.28.285-5.43-.923-10.162-4.493-14.34-.995-1.164-2.038-2.775-2.065-4.199-.18-9.645-.094-19.294-.094-28.939 2.716-.854 5.304-1.418 7.674-2.472 3.7-1.646 6.479-4.094 5.772-8.785-.14-.92.142-1.904.224-2.859.539-6.247 2.302-12.553-1.043-18.603-.361-.654-.352-1.577-.328-2.369.195-6.405-1.379-9.075-7.216-11.481-2.536-1.045-5.232-1.705-7.917-2.56 1.876-4.237 3.804-8.275 5.473-12.418 4.647-11.535 6.794-23.62 7.168-35.984.6-19.792-8.495-34.719-24.727-45.02-15.712-9.97-25.275-23.882-31.336-41.154-4.204-11.98-9.95-23.42-15.008-35.1-1.094-.192-.185-.453-.028-.952 2.837-8.994 7.07-17.104 13.774-23.932.69-.703-.485-4.179-1.713-5.536-1.02-1.125-3.387-1.372-5.168-1.404-7.663-.142-15.33-.06-22.149-.06-3.907-5.764-7.986-11.908-12.205-17.954-2.368-3.393-5.718-4.051-9.232-2.11-6.74 3.72-13.34 7.693-20.51 11.86-6.34-4.394-14.523-6.788-23.428-6.707-4.998.045-6.182 2.312-4.406 6.94 2.549 6.64 4.554 13.487 7.016 20.163 1.194 3.238 2.899 6.288 4.75 10.228-.356 4.045-1.325 9.473-1.183 14.872.17 6.467-1.788 11.86-6.28 16.223-3.66 3.555-3.043 6.38-.507 8.184-.546 4.2-.966 7.477-1.4 10.752-.12.912.057 2.23-.474 2.665-7.174 5.887-7.198 13.953-7.74 22.247-.226 3.471-2.9 7.205-5.403 9.967-1.85 2.041-5.189 2.782-7.925 3.961-4.307 1.856-4.787 4.767-1.103 7.744 1.747 1.412 3.656 2.624 6.221 4.444l-31.316 24.365c0-6.779-.26-12.08.117-17.336.171-2.39 1.17-4.992 2.552-6.966 3.11-4.442 4.57-9.1 4.121-14.529-.142-1.723.652-3.589 1.27-5.298 2.129-5.878 4.63-11.639 6.394-17.62.474-1.607-.73-5.064-1.933-5.488-1.698-.597-4.375.416-6.146 1.52-1.88 1.174-3.192 3.26-4.65 4.836-2.783-5.213-5.261-10.4-8.245-15.28-2.58-4.22-5.913-4.235-8.495-.04-2.994 4.861-5.482 10.033-8.316 15.306-1.27-1.415-2.328-3.291-3.935-4.213-2.113-1.213-4.658-1.674-7.016-2.458-.622 2.121-2.18 4.495-1.69 6.317 1.496 5.551 3.868 10.86 5.72 16.323.848 2.498 1.276 5.137 1.884 8.606M161.5 11.003H81.968l.225 5.14h244.906v354.883l4.947-.258c.056-1.022.108-1.519.108-2.016.005-117.291-.01-234.582.073-351.874.003-4.693-1.895-5.947-6.285-5.939-54.48.098-108.961.064-164.442.064M17.162 420.5V131.25h-5.159v3.15c0 116.827.022 233.653-.075 350.479-.004 4.956 1.989 6.19 6.56 6.184 79.496-.091 158.991-.066 238.486-.066h4.945v-5.123H17.162V420.5m24.07-405.55c.173.364.593.936.485 1.064-4.952 5.886-9.95 11.734-15.7 18.472 0-5.784.095-10.252-.034-14.713-.08-2.766.136-4.85 3.672-5.22 1.044-.108 1.907-1.94 3.666-3.877H12.249c-.3.36-.6.721-.898 1.082.984 1.008 1.87 2.738 2.97 2.886 3.22.433 3.534 2.323 3.515 4.916-.067 9.162-.109 18.326.022 27.488.042 2.958-.657 4.697-3.934 5.135-.962.13-1.71 1.867-3.2 3.632h22.74c-1.704-1.832-2.557-3.577-3.522-3.642-3.799-.256-3.735-2.545-4.032-5.454-.536-5.256 1.665-8.774 5.982-11.803 2.097 3.934 4.592 7.562 6.049 11.568 2.989 8.22 8.476 11.249 16.869 9.445.302-.065.575-.268 1.259-.599-.37-.963-.622-2.74-1.15-2.826-5.017-.816-6.118-5.221-8.242-8.647-3.152-5.084-6.193-10.236-9.405-15.566 2.697-3.036 5.367-6.457 8.477-9.417 2.708-2.578 5.913-4.635 8.899-6.922l-.88-1.496c-4.293 0-8.591-.125-12.873.082-1.161.057-2.274 1.118-3.408 1.718 1.007.848 2.014 1.697 3.745 2.693M306.79 473.465c-2.856 3.246-6.496 6.102-8.35 9.843-1.918 3.867-8.678 2.048-8.573 8.05h15.794l.947-1.043-4.388-4.48 15.763-18.285c0 5.835-.096 10.448.037 15.055.077 2.674-.38 4.415-3.575 4.783-1.088.125-1.986 1.893-2.971 2.91l.888 1.048h21.176c-1.868-2.012-2.728-3.793-3.792-3.926-3.556-.443-3.608-2.645-3.585-5.34.075-8.995.1-17.991-.014-26.985-.035-2.833.35-4.794 3.745-5.26 1.006-.138 1.789-1.908 3.324-3.681h-22.017c.958 1.598 1.583 3.566 2.232 3.574 5.208.063 5.155 3.717 4.423 6.933-.846 3.717-2.68 7.21-4.084 10.8l-1.68-.402c-3.146-5.828-6.317-11.643-9.425-17.491-1.378-2.591-3.216-3.987-6.37-3.644-2.612.284-5.281.058-7.925.058l-1.1 1.149c9.89 6.198 12.548 17.312 19.52 26.334m-8.084-56.188 6.984.959c-1.39 4.105-2.699 8.77 2.003 11.373 2.195 1.215 6.05 1.277 8.309.158 5.035-2.495 3.722-7.327 2.274-12.008 5.01.682 9.673.221 10.714-5.049.506-2.56-.614-6.654-2.513-8.244-5.174-4.329-9.308-.247-13.93 2.857l4.244-11.827h-9.576l4.18 11.823c-7.447-5.242-11.511-5.94-15.01-2.112-3.113 3.408-2.52 7.753 2.321 12.07z"/><path fill="#272726" d="M58.822 157.988c-.613-3.022-1.041-5.661-1.888-8.159-1.853-5.463-4.225-10.772-5.72-16.323-.491-1.822 1.067-4.196 1.689-6.317 2.358.784 4.903 1.245 7.016 2.458 1.607.922 2.666 2.798 3.935 4.213 2.834-5.273 5.322-10.445 8.316-15.306 2.582-4.195 5.914-4.18 8.495.04 2.984 4.88 5.462 10.067 8.245 15.28 1.458-1.576 2.77-3.662 4.65-4.835 1.771-1.105 4.448-2.118 6.146-1.52 1.202.423 2.407 3.88 1.933 5.487-1.764 5.981-4.265 11.742-6.394 17.62-.618 1.71-1.412 3.575-1.27 5.298.448 5.43-1.011 10.087-4.12 14.529-1.383 1.974-2.382 4.577-2.553 6.966-.377 5.256-.117 10.557-.117 17.336L118.5 170.39c-2.565-1.82-4.474-3.032-6.221-4.444-3.684-2.977-3.204-5.888 1.103-7.744 2.736-1.18 6.075-1.92 7.925-3.961 2.503-2.762 5.177-6.496 5.404-9.967.54-8.294.565-16.36 7.74-22.247.53-.435.353-1.753.473-2.665.434-3.275.854-6.552 1.4-10.752-2.536-1.803-3.154-4.63.507-8.184 4.492-4.363 6.45-9.756 6.28-16.223-.142-5.399.827-10.827 1.183-14.872-1.851-3.94-3.556-6.99-4.75-10.228-2.462-6.676-4.467-13.524-7.016-20.164-1.776-4.627-.592-6.894 4.406-6.94 8.905-.08 17.089 2.314 23.428 6.707 7.17-4.166 13.77-8.138 20.51-11.86 3.514-1.94 6.864-1.282 9.232 2.111 4.22 6.046 8.298 12.19 12.205 17.953 6.82 0 14.486-.08 22.149.06 1.781.033 4.149.28 5.168 1.405 1.228 1.357 2.404 4.833 1.713 5.536-6.705 6.828-10.937 14.938-13.774 23.932-.157.499-1.066.76.028.951 5.057 11.681 10.804 23.12 15.008 35.101 6.061 17.272 15.624 31.185 31.336 41.154 16.232 10.301 25.326 25.228 24.727 45.02-.374 12.364-2.521 24.449-7.168 35.984-1.669 4.143-3.597 8.181-5.473 12.419 2.685.854 5.38 1.514 7.917 2.559 5.837 2.406 7.411 5.076 7.216 11.481-.024.792-.033 1.715.328 2.369 3.345 6.05 1.582 12.356 1.043 18.603-.082.955-.363 1.938-.224 2.859.707 4.691-2.072 7.14-5.772 8.785-2.37 1.054-4.958 1.618-7.674 2.472 0 9.645-.086 19.294.094 28.94.027 1.423 1.07 3.034 2.065 4.198 3.57 4.178 4.778 8.91 4.493 14.34-.108 2.06.989 4.207 1.646 6.28 1.98 6.243 4.166 12.428 5.886 18.74.315 1.157-.865 3.62-1.918 4.027-1.37.53-3.56.043-4.936-.78-2.368-1.415-4.38-3.428-6.158-4.877-2.332 4.312-4.86 9.538-7.9 14.446-2.722 4.394-5.602 4.397-8.322.01-3.048-4.916-5.584-10.149-8.394-15.34-1.308 1.436-2.581 3.449-4.393 4.649-1.751 1.16-4.557 2.541-5.978 1.871-1.387-.654-2.625-4.056-2.158-5.769 1.593-5.845 4.023-11.457 6.01-17.2.702-2.027 1.617-4.224 1.445-6.26-.434-5.128 1.25-9.336 3.952-13.541 1.476-2.296 2.495-5.197 2.73-7.911.428-4.957.121-9.978.121-16.666l-31.32 24.256c2.706 1.974 4.86 3.357 6.795 4.999 3.029 2.568 2.431 5.461-1.322 7.025-1.533.639-3.074 1.26-4.612 1.885-6.662 2.708-9.786 7.706-9.489 14.836.31 7.44-.896 14.269-7.045 19.381-.59.49-.766 1.651-.862 2.53-.373 3.427-.637 6.866-1.036 11.363 2.72 1.803 2.694 4.693-.841 8.118-4.662 4.517-6.404 10.199-6.327 16.739.061 5.221-.77 10.453-1.245 16.166 3.84.959 4.27 4.785 5.277 8.83 1.631 6.555 4.045 12.95 6.57 19.235 2.098 5.219 1.181 6.866-4.484 7.098-8.989.369-17.028-2.3-23.179-6.43-7.361 4.259-13.98 8.208-20.722 11.938-3.602 1.992-6.95.95-9.206-2.28-4.32-6.181-8.353-12.563-12.747-19.228-7.508 2.623-16.205 2.85-24.939.544-4.664-1.232-4.987-3.882-2.31-7.866 4.216-6.272 7.777-12.986 11.568-19.54.78-1.348 1.352-2.815 1.38-2.875-5.81-13.598-11.923-26.307-16.7-39.5-5.733-15.836-15.234-28.062-29.408-37.15-11.955-7.666-21.015-17.932-23.951-32.415-2.675-13.19-.97-26.208 2.646-38.93 2.163-7.608 5.367-14.92 8.198-22.623-2.5-.844-5.349-1.597-8.02-2.757-4.677-2.03-7.4-5.285-6.895-10.884.17-1.892-1.67-3.902-1.748-5.89-.19-4.855.248-9.731.19-14.596-.117-9.631 5.14-14.04 14.451-14.404 0-10.215.057-19.863-.077-29.508-.015-1.119-1.184-2.185-1.66-3.341a330.215 330.215 0 0 1-5.25-13.495m151.13-65.941s-.088.032-.338.777c.44.101.878.203 1.327.22 0 0-.084.012-.448.653.594.415 1.189.83 2.186 1.78l9.007 7.041 1.31-.793c-3.99-6.683-7.802-13.488-12.13-19.945-.833-1.244-3.694-1.13-6.456-1.761-2.447 3.518-1.642 6.48 2.564 9.01 0 0-.118.074-.477.81.81.438 1.62.874 2.453 1.228 0 0-.085.012-.339.761.437.102.873.205 1.342.219m70.044 259.947s.06-.074.026-.752c-.627-.136-1.254-.272-2.206-1.014l-5.358-4.3c1.66-1.244 3.168-2.13 4.345-3.337.866-.889 2.036-2.39 1.803-3.289-1.31-5.063-7.584-9.476-12.004-8.81-6.537.986-10.43 5.444-10.576 12.766 3.48-1.438 5.327-.049 5.613 3.617-5.463 3.773-10.625 7.864-12.123 15.3l.106 1.216c.228-.383.456-.766 1.438-1.158 2.142-1.027 4.252-2.685 6.44-2.794.993-.05 2.333 2.877 3.178 4.618 2.141 4.412 4.092 8.916 6.622 13.85.99-.616 2.542-1.014 2.88-1.883 2.118-5.444 3.966-10.993 6.62-16.442 2.042.177 4.085.354 6.181.475 0 0-.067-.04-.364.638.45.573.901 1.147 1.592 2.289.936.995 1.871 1.991 2.897 3.393l.497-.137c-.223-.056-.445-.112-.366-.927-2.056-4.12-4.113-8.24-6.237-12.312 0 0 .063-.053.056-.655-.331-.14-.663-.28-1.06-.352M63.978 149.775c.415.083.83.166 1.737.672l5.854 5.847-6.353 3.395c.693 6.451 5.36 11.29 11.09 11.298 6.986.01 11.514-4.514 12.242-12.5-3.339.786-5.946.36-5.549-4.163 5.904-3.758 10.576-8.567 11.348-16.049-.822.156-1.127.778-1.625 1.056-1.837 1.024-3.797 2.74-5.595 2.608-1.218-.089-2.466-2.722-3.31-4.413-2.276-4.568-4.343-9.24-6.679-14.478-.208-.217-.4-.457-.636-.637-.076-.058-.37 0-.4.074-2.726 6.45-5.435 12.905-8.837 19.476-1.749.002-3.498.003-5.266.045 0 0 .045-.002.127-.722a104.34 104.34 0 0 0-1.684-2.22l-2.778-4.09-1.77 1.14c2.327 3.682 4.654 7.364 7.026 10.96 0 0-.097.012-.62.6.54.461 1.08.922 1.69 1.324 0 0-.059.068-.011.777m84.983 256.617c-.323-.225-.647-.45-1.266-1.262l-26.308-19.689c1.432 2.627 2.035 4.56 3.287 5.873 3.886 4.074 7.889 8.057 12.087 11.806 5.408 4.829 10.487 9.74 10.249 17.737 1.607 0 2.755 0 4.692.152 3.562-3.948 2.379-10.2-2.697-14.014 0 0 .065-.015-.044-.603m58.039-139.356s.059.063.598.666l2.251-.797-20.173-37.617c-.382.663-1.184 2.057-2.506 3.88-9.712 14.542-19.538 29.01-29.016 43.702-1.445 2.24-1.598 5.5-1.76 8.322-.13 2.268.632 4.586.945 7.592 1.086.03 2.42.488 3.219.025 9.379-5.45 18.686-11.023 27.986-16.608.923-.554 1.674-1.395 3.168-2.354 4.415-1.99 8.83-3.979 13.995-5.828.46-.321.918-.643 1.293-.983m-11.379-171.81c8.798 6.914 17.597 13.827 26.5 21.007l.277.062c-.15-.08-.301-.16-.137-.946-3.85-4.817-7.307-10.029-11.647-14.354-5.905-5.884-13.528-10.384-13.062-20.527-1.744.102-3.02.177-5.02.032-3.267 3.88-2.37 9.053 3.089 14.727m53.644 205.695c-1.784.148-3.985-.326-5.283.546a472.26 472.26 0 0 0-21.397 15.237c-4.282 3.237-8.198 6.96-12.78 10.898 3.08.459 5.193.774 8.082 1.32 1.365-.236 3.093-.02 4.038-.779 10.828-8.687 21.536-17.523 32.19-26.249-.997-.198-2.561-.508-4.85-.973M93.596 200.92c3.166.812 5.85.23 8.566-1.857 7.346-5.642 14.994-10.89 22.36-16.507 3.29-2.51 6.192-5.531 10.209-9.17-3.557-.188-5.667-.3-8.361-.794-1.561.434-3.444.45-4.633 1.366-9.687 7.467-19.243 15.102-28.84 22.684-1.04.82-2.087 1.63-3.5 2.733 1.754.568 2.694.872 4.199 1.545m176.55 89.944h-7.343v34.163c3.028 0 5.643 0 8.94.382.586-.665 1.674-1.324 1.681-1.995.11-9.952.138-19.907-.027-29.858-.014-.85-1.535-1.674-3.252-2.692M162.72 422.01c.53-.27 1.35-.405 1.547-.83 2.735-5.919-.056-17.053-5.617-22.091-2.076-1.829-4.057-3.78-6.244-5.465-9.4-7.24-21.002-11.52-28.891-21.193 1.303 3.758 2.677 7.645 5.334 10.195 4.863 4.667 10.28 8.839 15.835 12.685 8.453 5.852 15.137 12.457 14.357 23.836-.056.804 1.865 1.742 3.68 2.863M73.912 210.444h7.829V176.22c-3.032 0-5.816 0-9.488-.227-.366.225-1.05.447-1.053.676-.094 10.63-.162 21.262-.08 31.892.005.537 1.363 1.065 2.792 1.884M185.651 102.24c.582.592 1.097 1.277 1.758 1.762 11.045 8.104 22.108 16.183 33.868 24.78-1.295-2.705-1.835-5.377-3.452-6.931-5.47-5.26-10.893-10.748-17.123-14.99-9.638-6.565-17.014-13.869-15.04-26.776-1.282-.115-2.269-.203-3.894-.651-.65.5-1.742.898-1.885 1.515-1.807 7.832-.363 14.914 5.768 21.29M157.163 267.95c8.226-12.206 16.113-24.662 24.812-36.522 4.998-6.814 7.961-13.436 4.949-22.433-.455-3.986-2.236-.89-3.064-.412-9.97 5.75-19.878 11.608-29.792 17.454-1.706 1.006-3.365 2.091-5.568 3.622-3.317 1.533-6.634 3.065-10.71 4.656l-3.132.454 20.012 37.449c.467-1.039 1.164-2.591 2.493-4.268m3.578 201.1c11.006-1.726 17.533-8.875 22.708-18.834h6.048l-4.114 8.108c5.617 1.832 10.853 3.54 16.677 5.49h3.517c-2.088-7.369-4.038-14.32-6.045-21.255-.308-1.065-.63-2.696-1.364-2.978-6.064-2.33-12.227-4.403-18.78-7.018-4.772-1.245-9.707-2.064-14.281-3.821-10.044-3.857-20.23-2.338-30.408-1.438-1.549.137-3.653 1.164-4.362 2.422-3.55 6.3-6.722 12.816-10.548 20.27 4.723-.382 9.493-.767 15.065-.993 7.093-.668 7.093-.668 7.706-8.96h4.351c.036 9.892 2.278 18.507 8.483 25.684 1.164 1.346 3.005 2.108 5.347 3.323m-.018-417.646-5.479-.423 3.524-8.006c-5.493-1.718-10.657-3.333-16.477-5.197l-3.57-.362c2.144 7.627 4.178 14.89 6.233 22.149.213.752.362 1.944.85 2.134 6.352 2.467 12.76 4.79 19.772 7.429.504.393.95.938 1.522 1.156 14.292 5.465 29.024 5.83 43.947 3.65.994-.145 2.337-.743 2.755-1.534 3.5-6.615 6.821-13.324 10.666-20.936-5.613.581-11.046 1.144-17.222 1.535-6.479-.343-4.214 4.377-5.036 8.035h-5.003c.195-11.902-3.284-21.548-12.353-29.561-11.156 2.42-18.72 9.245-24.129 19.931m36.997 277.488c2.674-1.476 5.626-2.606 7.97-4.491 7.768-6.247 15.208-12.902 22.993-19.128 4.243-3.393 8.926-6.236 13.446-9.351-5.85-6.29-5.85-6.29-10.115-5.184-40.564 10.44-74.77 31.465-103.15 62.113-1.109 1.198-1.77 3.204-1.869 4.879-.532 9.035 4.612 14.83 12.052 20.085l3.252 1.747c6.315-20.4 18.944-34.707 37.05-44.415.966-.518 1.773-1.333 3.35-2.321 4.749-1.318 9.498-2.637 15.021-3.934m-52.349-156.024c-1.332.52-2.91.741-3.96 1.605-12.847 10.59-25.616 21.274-38.912 32.355.57.455 2.153 1.447 3.38 2.767 1.564 1.682 2.936 3.274 6.101 1.41 39.372-10.47 73.034-30.539 101.364-59.803 4.514-4.662 5.762-9.623 2.783-14.773-2.558-4.421-6.67-7.943-10.589-12.275l-3.02-2.502c-1.966 4.59-3.551 8.93-5.627 13.02-8.11 15.983-21.123 26.737-37.735 34.614-4.338 1.245-8.677 2.491-13.785 3.582m74.88-14.92c-14.68 4.46-23.834 14.682-26.993 29.158-1.757 8.051-1.228 16.907-.191 25.209 3.648 29.2 18.885 51.684 42.049 69.137.98.738 3.01.082 5.201-.296 27.922-21.602 43.457-49.666 42.68-85.346-.739-33.92-38.52-49.272-62.746-37.862M121.736 343.99c1.903-.412 3.98-.467 5.682-1.293 16.1-7.81 25.368-20.766 25.245-38.61-.243-35.023-15.371-62.922-43.209-83.969-.996-.753-2.986-.193-5.17-.054-25.55 19.459-40.413 44.928-43.044 77.129-1.576 19.29 5.1 34.89 22.626 44.098 11.643 6.117 24.193 8.997 37.87 2.7m45.42 32.202c2.294-6.168 6.83-8.606 13.257-8.22 9.039.543 17.703 2.244 25.126 7.715 5.765-3.996 6.754-9.589 6.434-15.631-.496-9.4 3.528-15.974 12.051-19.877.973-.446 1.87-1.057 2.93-1.664-26.727-16.717-71.593 8.305-79.765 44.626 15.909 8.414 26.371 20.373 22.545 39.734 8.414 2.87 16.183 5.52 24.47 8.345l.863-5.782c-5.325-1.317-10.18-2.331-14.886-3.817-1.136-.358-1.78-2.274-2.652-3.474 1.501-.454 3.098-1.485 4.486-1.255 4.538.75 9 1.96 14.172 3.15-1.078-9.046 1.264-16.439 7.474-22.833-1.929-.943-3.333-1.815-4.856-2.342-8.18-2.832-13.717-7.848-14.942-16.908-.187-1.385-1.674-3.454-2.837-3.663-2.17-.39-5.701-.453-6.58.804-1.528 2.19-1.474 5.486-2.083 8.318l1.433.458-2.81 3.796-2.041-.49c-.639-3.396-1.278-6.792-1.79-10.99m-24.677-248.145c-3.494-3.504-6.116-1.676-7.627 1.782-1.362 3.117-2.721 6.69-2.509 9.959.74 11.388-3.987 18.838-15.282 22.765 5.266 4.026 10.79 5.4 16.654 5.577 26.503.797 53.195-18.286 62.148-44.128 1.336-3.856 1.038-6.016-2.858-8.285-14.22-8.28-21.77-20.161-18.248-37.076l-24.054-8.227c-2.495 5.415-2.204 5.863 3.207 6.778 3.256.55 6.567 1.202 9.605 2.423 1.402.564 2.211 2.602 3.29 3.972-1.751.276-3.572 1.003-5.238.741-4.33-.68-8.593-1.796-12.806-2.72-.62 4.736-.576 8.844-1.802 12.53-1.222 3.675-3.716 6.926-5.851 10.717 10.002 3.056 18.105 7.998 19.864 19.679.508 3.374 4.128 4.353 7.289 3.183 3.168-1.173 4.28-3.791 3.699-7.278-.326-1.953.067-4.025.173-7.132 5.653 4.001 6.126 8.167 4.72 12.544-1.6 4.976-5.578 8.107-10.588 7.465-7.792-.998-15.43-3.202-23.786-5.27m40.886 55.89c-21.223 14.694-44.317 25.395-69.395 32.143 4.811 4.554 9.285 8.99 14.033 13.11.916.795 3.101.874 4.372.4 18.472-6.884 35.73-16.074 51.626-27.761.995-.732 2.236-1.831 2.384-2.895.848-6.108 1.4-12.257 2.076-18.61-1.544 1.101-3.022 2.157-5.096 3.612m11.355 114.271 35.044-13.466c-4.09-3.805-8.462-7.585-12.465-11.722-1.828-1.889-3.218-2.032-5.573-1.147a215.212 215.212 0 0 0-51.072 27.518c-1.175.854-2.329 2.403-2.555 3.783-.975 5.947-1.6 11.952-2.206 16.768a44523.014 44523.014 0 0 1 38.827-21.734m85.513-6.604c.807-.203 1.732-.221 2.397-.647 1.453-.93 2.773-2.066 4.148-3.118-1.425-1.193-2.685-3.026-4.31-3.447-3.343-.865-6.932-.752-10.317-1.503-1.426-.316-2.592-1.799-3.877-2.751 1.25-.765 2.545-2.246 3.74-2.17 5.317.337 10.605 1.12 16.554 1.818-.807-1.23-1.261-2.825-2.166-3.143-3.866-1.361-7.913-2.207-11.791-3.54-1.39-.478-2.488-1.8-3.72-2.737 1.382-.784 2.833-2.333 4.132-2.214 4.348.399 8.642 1.394 13.308 2.222-2.404-4.937-7.233-4.902-11.297-6.338-1.142-.404-1.94-1.78-2.896-2.71 1.245-.764 2.514-2.196 3.73-2.153 2.562.092 5.096.957 7.766 1.532-1.228-4.02-8.63-7.905-12.4-6.625-.686.233-1.322.938-1.74 1.581-7.964 12.263-17.938 22.63-30.993 32.144l16.076 10.278c1.645-12.568 1.645-12.568 13.24-12.56.5 0 1.008.062 1.498-.009 4.821-.699 7.608 1.259 8.918 6.09m-221.85-57.42c2.966.987 6.028 1.766 8.855 3.06 1.191.544 1.886 2.173 2.807 3.309-1.185.625-2.397 1.815-3.549 1.76-2.524-.121-5.017-.873-7.83-1.428 2.385 5.613 11.733 8.466 14.27 4.662 8.09-12.126 18.053-22.434 30.926-31.963L87.538 203.32c-1.412 12.514-1.412 12.514-12.729 12.515-.5 0-1.01-.065-1.498.01-4.639.719-7.8-.64-7.914-6.118-1.528.317-2.792.297-3.729.84-1.47.852-2.718 2.085-4.06 3.157 1.314 1.1 2.471 2.767 3.975 3.183 3.175.88 6.578.91 9.795 1.68 1.636.39 3.071 1.625 4.597 2.478-1.622.923-3.306 2.72-4.853 2.608-5.01-.36-9.97-1.42-16.4-2.442 2.16 2.128 3.247 3.99 4.81 4.569 3.065 1.135 6.453 1.373 9.594 2.348 1.654.514 3.07 1.8 4.592 2.736-1.707.78-3.459 2.297-5.113 2.197-4.145-.253-8.247-1.237-12.891-2.015.859 1.169 1.43 1.945 2.667 3.116m188.987-85.083-16.046-21.573-8.08 22.28c7.008 0 15.543 0 24.126-.707M105.89 362.677l6.78 12.122 8.105-23.021H96.972c3.225 3.91 5.863 7.107 8.919 10.899m20.09 45.78c2.667 3.97 5.14 8.094 8.128 11.806.802.996 3.367 1.305 4.74.829.787-.273 1.39-2.904 1.066-4.226-1.18-4.81-11.85-14.96-17.389-16.61 1.14 2.73 2.139 5.124 3.455 8.201m26.594-291.326c-1.866-1.343-3.687-2.754-5.609-4.011-2.224-1.455-4.821-1.65-5.9.95-.71 1.716-.593 5.161.527 6 4.055 3.04 8.69 5.304 13.105 7.861l1.133-1.421c-.955-2.912-1.91-5.824-3.256-9.379m51.35 269.609c.838-6.223-5.414-11.188-15.274-11.733.772 2.649 1.234 5.252 2.276 7.598 2.36 5.317 8.725 7.595 12.997 4.135z"/><path fill="#1F1F1F" d="M162 11.003c54.98 0 109.461.034 163.942-.064 4.39-.008 6.288 1.246 6.285 5.94-.084 117.29-.068 234.582-.073 351.873 0 .497-.052.994-.108 2.016l-4.947.258V16.143H82.193l-.225-5.14H162zM17.162 421v64.874H261.92v5.123h-4.945c-79.495 0-158.99-.025-238.485.066-4.572.005-6.565-1.228-6.56-6.184.096-116.826.074-233.652.074-350.479v-3.15h5.16V421z"/><path fill="currentColor" d="M60.394 443.225c-4.998 4.795-10.37 8.387-17.818 5.986-5.862-1.89-10.046-6.79-10.558-12.58-.612-6.914 2.545-12.69 8.494-15.539 5.407-2.59 12.26-1.602 16.718 2.567 2.395 2.241 4.606 4.68 7.564 7.708.607-10.364-3.004-18.398-9.028-26.354H77.95c-5.326 8.037-9.575 15.909-8.581 26.67 2.552-2.817 4.412-5.085 6.494-7.128 6.52-6.399 15.78-6.552 21.843-.459 5.851 5.879 5.965 15.145.26 21.103-6.063 6.334-14.927 6.378-21.816.128-.828-.752-1.736-1.416-2.606-2.12l-1.053.885c1.966 2.297 3.923 4.602 5.9 6.89 5.662 6.55 4.854 16.296-1.817 21.81-6.376 5.27-16.11 4.233-21.421-2.282-4.579-5.615-4.302-14.097.64-19.705a420.278 420.278 0 0 0 5.584-6.443c.412-1.022.485-1.573.56-2.123l-.893-.7-.65 1.686m11.416-.062 1.11-.13-.297-1.1c-.489.204-.978.408-.813 1.23zM271.183 57.826c-1.642-2.054-3.174-4.208-4.945-6.142-5.877-6.418-5.834-15.631.197-21.522 5.87-5.732 15.277-5.73 21.137.005 6.046 5.918 6.118 15.097.203 21.477-1.847 1.992-3.607 4.064-5.406 6.1l1.003 1.118c1.139-.933 2.295-1.845 3.412-2.803 6.614-5.667 15.781-5.228 21.483 1.04 5.508 6.053 5.134 15.336-.85 21.099-5.88 5.663-15.002 5.558-21.12-.316-2.233-2.145-4.318-4.443-7.022-7.241-.72 10.321 2.914 18.229 8.84 26.16h-21.988c5.39-7.842 9.462-15.756 8.586-26.172-2.484 2.59-4.362 4.63-6.328 6.583-6.683 6.64-16.018 6.877-22.183.599-5.759-5.866-5.781-15.286-.05-21.13 6.16-6.281 15.372-6.074 22.191.498.48.462.96.924 1.898 1.83.835.558 1.21.671 1.584.784l-.642-1.967m11.448 2.237.291-1.1c-.37-.04-.742-.078-1.113-.117-.024.435-.048.87.822 1.217zM40.87 14.875c-1.369-.922-2.376-1.77-3.383-2.619 1.134-.6 2.247-1.661 3.408-1.718 4.282-.207 8.58-.082 12.873-.082l.88 1.496c-2.986 2.287-6.19 4.344-8.9 6.922-3.109 2.96-5.779 6.38-8.476 9.417 3.212 5.33 6.253 10.482 9.405 15.566 2.124 3.426 3.225 7.831 8.242 8.647.528.086.78 1.863 1.15 2.826-.684.331-.957.534-1.26.6-8.392 1.803-13.879-1.225-16.868-9.446-1.457-4.006-3.952-7.634-6.05-11.568-4.316 3.029-6.517 6.547-5.981 11.803.297 2.909.233 5.198 4.032 5.454.965.065 1.818 1.81 3.521 3.642h-22.74c1.492-1.765 2.239-3.503 3.2-3.632 3.278-.438 3.977-2.177 3.935-5.135-.13-9.162-.09-18.326-.022-27.488.02-2.593-.294-4.483-3.514-4.916-1.1-.148-1.987-1.878-2.971-2.886l.898-1.082H33.32c-1.759 1.937-2.622 3.769-3.666 3.878-3.536.37-3.752 2.453-3.672 5.219.129 4.461.034 8.929.034 14.713 5.75-6.738 10.748-12.586 15.7-18.472.108-.128-.312-.7-.847-1.139zM306.59 473.18c-6.773-8.737-9.43-19.851-19.32-26.05l1.099-1.148c2.644 0 5.313.226 7.926-.058 3.153-.343 4.991 1.053 6.369 3.644 3.108 5.848 6.28 11.663 9.425 17.491l1.68.401c1.404-3.59 3.238-7.082 4.084-10.799.732-3.216.785-6.87-4.423-6.933-.649-.008-1.274-1.976-2.232-3.574h22.017c-1.535 1.773-2.318 3.543-3.324 3.681-3.395.466-3.78 2.427-3.745 5.26.114 8.994.089 17.99.014 26.985-.023 2.695.03 4.897 3.585 5.34 1.064.133 1.924 1.914 3.792 3.926h-21.176l-.888-1.048c.985-1.017 1.883-2.785 2.97-2.91 3.196-.368 3.653-2.109 3.576-4.783-.133-4.607-.037-9.22-.037-15.055l-15.763 18.285 4.388 4.48-.947 1.043h-15.794c-.105-6.002 6.655-4.183 8.572-8.05 1.855-3.741 5.495-6.597 8.153-10.128zM298.345 417.1c-4.48-4.14-5.074-8.485-1.96-11.893 3.498-3.829 7.562-3.13 15.008 2.112l-4.18-11.823h9.577l-4.243 11.827c4.62-3.104 8.755-7.186 13.929-2.857 1.899 1.59 3.019 5.684 2.513 8.244-1.041 5.27-5.704 5.731-10.714 5.05 1.448 4.68 2.761 9.512-2.274 12.007-2.26 1.119-6.114 1.057-8.31-.158-4.7-2.604-3.392-7.268-2.002-11.373-2.465-.339-4.724-.649-7.344-1.136m7.655.372.692.226c-.079-.232-.158-.464-.692-.226m12 0-.687-.24c.075.234.149.467.687.24zM38.505 84.587c4.085-1.35 7.747-.72 10.025 3.106 1.974 3.317 1.59 6.79-1.37 9.515-2.944 2.713-6.317 2.74-9.582.621-1.488-.966-2.666-2.408-5.01-3.178l4.224 11.878h-9.576l4.23-11.876c-4.479 2.961-8.16 6.753-13.655 3.329-3.233-2.015-4.081-5.27-2.958-8.74 1.656-5.113 5.825-5.806 10.878-4.914-1.375-4.92-2.799-10.001 2.711-12.293 2.394-.995 6.435-.492 8.602.984 3.614 2.463 3.316 6.514.689 10.651-.37.718-.385.994-.401 1.27l1.193-.353m-12.034-.516-.254.684c.23-.069.462-.137.254-.684z"/><path fill="#F7CA1B" d="M120.91 343.898c-12.85 6.39-25.4 3.51-37.044-2.608-17.526-9.207-24.202-24.809-22.626-44.098 2.631-32.201 17.494-57.67 43.646-77.02 16.346 12.444 28.46 27.564 35.927 46.234 4.74 11.852 7.172 24.213 7.093 36.937-.12 19.297-10.016 32.348-26.996 40.555m-44.283-25.839-4.493.863-1.318 2.445c2.87 2.125 5.641 4.415 8.673 6.278.917.563 2.559-.055 4.548.22 3.317 2.913 4.44.501 5.138-1.33l-9.153-9.356c-.542.29-1.688.906-3.395.88m53.676.232c-1.205.115-2.757-.208-3.55.424-2.54 2.022-4.8 4.397-7.016 6.493.711 3.975 2.45 4.351 5.586 2.8 1.186.164 2.88.91 3.475.392 3.035-2.639 5.787-5.604 8.706-8.523-2.462-2.189-4.227-4.286-7.201-1.586m-58.667-12.155 3.87-.386 2.001-19.151c-1.791.338-3.513.663-5.914.66-2.115-1.068-3.891-1.015-4.244 1.78-.687 5.434-1.206 10.888-1.864 16.987 2.564-.192 3.97-.296 6.15.11m63.963-19.283-3.8.743c.43 5.306 1.077 9.885 1.084 14.464.006 3.526 1.271 4.517 5.31 3.74l5.397.51-2.156-20.66c-2.605.807-3.997 1.237-5.835 1.203m-27.155 29.053c-10.649-.314-16.492-6.07-18.131-16.746-1.918.378-3.473.684-5.892.731-2.318-.29-3.799 0-3.472 3.075.88 8.278 8.781 16.25 17.883 17.227 16.485 3.469 30.636-6.49 28.774-20.812-1.54.189-3.095.379-5.486.462-1.3.393-3.703.717-3.733 1.19-.417 6.642-5.245 10.282-9.943 14.873m-5.127-82.57c-1.612.551-3.56.707-4.77 1.734-2.89 2.452-5.569 5.196-8.093 8.035-7.035 7.916-12.766 16.647-16.88 27.48 2.295 0 3.795 0 6.023.208 2.443 1.368 3.887 1.091 5.178-1.86 4.69-10.72 11.145-20.264 20.483-27.453 7.977 7.646 14.289 16.488 18.764 26.583 1.254 2.827 2.578 4.22 5.851 2.412l5.925.508c-6.108-15.25-14.652-27.013-25.971-36.715-1.214-1.04-3.873-.393-6.51-.933m10.056 98.541c-3.043-2.999-11.48-2.119-15.131 1.595 4.143 3.607 9.012 2.546 13.717 1.954.669-.084 1.133-1.791 1.414-3.549zM221.02 158.154c23.457-11.616 61.238 3.735 61.977 37.656.777 35.68-14.758 63.744-43.3 85.351-23.615-17.752-38.258-40.628-42.291-69.615-1.928-13.859-2.197-27.955 7.638-39.442 4.55-5.314 10.604-9.34 15.977-13.95m46.685 25.147 4.357-.622 1.617-2.802c-2.953-2.078-5.813-4.313-8.915-6.136-.921-.541-2.525.08-4.466-.068l-3.103-2.08-2.142 3.482 9.09 9.278c.676-.332 1.847-.906 3.562-1.052m-53.68-.337c5.897 2.174 5.869-4.943 9.602-6.315.42-.154-.098-2.86-.23-5.27-1.96 1.412-2.876 2.072-4.294 2.306-1.169-.274-2.883-1.178-3.417-.716-3.053 2.635-5.825 5.595-8.965 8.715 2.68 1.834 4.37 4.31 7.305 1.28m-7.979 12.623c-1.823-.322-4.166-1.766-4.617 1.531-.86 6.285-.33 12.4 2.51 18.376 1.916-.633 3.314-1.095 5.038-.979l3.561-.778-1.702-17.924c-.952 0-2.465 0-4.79-.226m67.038-.07h-4.346l-1.943 19.14c1.707-.25 3.497-.513 5.979-.564 1.89 1.154 3.623 1.204 3.99-1.374.809-5.702 1.367-11.44 2.108-17.853-2.877.685-4.148.988-5.788.65m-27.187-13.45c-16.143-4.689-30.896 5.13-29.379 19.976 1.595-.127 3.204-.255 5.593-.254 1.329-.688 3.652-1.183 3.829-2.095 1.283-6.612 5.418-10.686 11.866-13.805 10.012.54 14.54 6.756 16.22 16.15 1.772-.098 3.4-.188 5.826-.17 1.255-.113 2.51-.228 4.871-.443-1.867-4.392-2.921-8.49-5.173-11.768-2.967-4.318-6.743-8.219-13.653-7.59m-4.869 85.92c1.766-.625 4.062-.749 5.206-1.96 5.128-5.432 10.34-10.873 14.722-16.892 3.84-5.275 6.618-11.323 9.865-17.03l-.953-1.33c-1.36.087-2.718.173-4.8.106-1.323-.4-2.645-.802-4.008-1.215-5.421 12.09-12.14 22.619-22.087 30.551l-22.05-29.757c.196-.067-.888.305-2.549.196h-5.806c5.998 14.682 14.274 26.491 25.486 36.125 1.364 1.172 4.115.73 6.974 1.206m-.042-96.927 5.743-2.207c-5.48-4.785-10.735-2.488-16.157-2.801.348 2.055.585 3.46.84 4.959 3.101 0 5.895 0 9.574.049z"/><path fill="#FBFBFB" d="M167.092 376.593c.575 3.797 1.214 7.193 1.853 10.59l2.04.489 2.81-3.796-1.432-.458c.609-2.832.555-6.127 2.084-8.318.878-1.257 4.408-1.194 6.58-.804 1.162.209 2.65 2.278 2.836 3.663 1.225 9.06 6.762 14.076 14.942 16.908 1.523.527 2.927 1.4 4.856 2.342-6.21 6.394-8.552 13.787-7.474 22.833-5.172-1.19-9.634-2.4-14.172-3.15-1.388-.23-2.985.801-4.486 1.255.871 1.2 1.516 3.116 2.652 3.474 4.707 1.486 9.561 2.5 14.886 3.817l-.863 5.782-24.47-8.345c3.826-19.36-6.636-31.32-22.545-39.734 8.172-36.32 53.038-61.343 79.764-44.626-1.059.607-1.956 1.218-2.929 1.664-8.523 3.903-12.547 10.477-12.05 19.877.319 6.042-.67 11.635-6.435 15.631-7.423-5.471-16.087-7.172-25.126-7.715-6.427-.386-10.963 2.052-13.321 8.621m19.02 32.648c.43 2.497 1.424 5.267 4.238 3.045 1.294-1.021.876-4.453.814-6.781-.015-.586-1.645-1.129-2.533-1.692-.844 1.533-1.687 3.066-2.519 5.428zM142.804 128.233c8.03 1.88 15.668 4.085 23.46 5.083 5.01.642 8.988-2.489 10.587-7.465 1.407-4.377.934-8.543-4.72-12.544-.105 3.107-.498 5.18-.172 7.132.581 3.487-.531 6.105-3.7 7.278-3.16 1.17-6.78.191-7.288-3.183-1.76-11.68-9.862-16.623-19.864-19.679 2.135-3.79 4.63-7.042 5.851-10.717 1.226-3.686 1.183-7.794 1.802-12.53 4.213.924 8.475 2.04 12.806 2.72 1.666.262 3.487-.465 5.237-.741-1.078-1.37-1.887-3.408-3.289-3.972-3.038-1.221-6.35-1.872-9.605-2.423-5.41-.915-5.702-1.363-3.207-6.778l24.054 8.227c-3.523 16.915 4.028 28.797 18.248 37.076 3.896 2.27 4.194 4.43 2.858 8.285-8.953 25.842-35.645 44.925-62.148 44.128-5.865-.177-11.388-1.551-16.654-5.577 11.295-3.927 16.022-11.377 15.282-22.765-.212-3.27 1.147-6.842 2.51-9.96 1.51-3.457 4.132-5.285 7.952-1.595M157.93 95.92c.018-1.634.56-3.541-.104-4.82-.575-1.103-2.524-1.491-3.865-2.196l-.828 7.362c1.502.14 3.004.28 4.797-.346z"/><path fill="#254CC1" d="M206.033 124.566c3.424 3.92 7.536 7.442 10.094 11.863 2.979 5.15 1.731 10.11-2.783 14.773-28.33 29.264-61.992 49.333-101.855 59.463-1.924-1.914-3.356-3.487-4.757-5.025 6.91-4.958 13.947-9.444 20.317-14.734 6.696-5.56 12.754-11.89 19.091-17.883 4.339-1.246 8.678-2.492 13.752-3.868 4.998-1.807 9.535-3 13.477-5.243 15.78-8.975 26.294-22.478 32.664-39.346z"/><path fill="#C83314" d="M138.59 377.197c-6.983-4.637-12.127-10.432-11.595-19.467.099-1.675.76-3.68 1.87-4.879 28.378-30.648 62.585-51.674 103.833-61.905a40.658 40.658 0 0 1 4.033 3.869l-39.786 34.056c-4.748 1.318-9.497 2.637-14.978 4.026-1.382.163-2.099.107-2.673.367-19.739 8.921-33.831 23.087-40.705 43.933z"/><path fill="#F7CA1B" d="M185.276 32.035c8.645 7.451 12.124 17.097 11.93 28.999 1.709 0 3.355 0 5.728-.045 2.953.35 4.423.04 4.253-2.848-.096-1.636.511-3.313.801-4.97l16.478-1.707C220.621 59.076 217.3 65.785 213.8 72.4c-.418.79-1.76 1.389-2.755 1.534-14.923 2.18-29.655 1.815-43.947-3.65-.571-.218-1.018-.763-1.997-1.595-4.39-2.188-8.418-3.731-12.164-5.788-1.456-.8-2.736-2.599-3.304-4.22-2.392-6.828-4.484-13.76-6.686-20.654l15.82 4.948-3.523 8.006c2.157.167 3.818.295 6.055.198 2.293.696 3.638 1.256 4.858-1.228 4.097-8.335 10.842-13.975 19.12-17.916zM134.053 448.844l-14.264 1.151c3.826-7.453 6.997-13.968 10.548-20.27.709-1.257 2.813-2.284 4.362-2.421 10.178-.9 20.364-2.42 30.408 1.438 4.574 1.757 9.509 2.576 14.692 4.365 4.362 2.22 8.395 3.732 12.214 5.665 1.233.623 2.304 2.22 2.767 3.6 2.354 7.025 4.484 14.125 6.693 21.2l-16.09-5.248 4.114-8.108c-2.492 0-4.27 0-6.677.07-2.047.628-4.18.777-4.766 1.806-4.292 7.551-10.343 13.065-18.127 16.775-1.528-1.032-3.369-1.794-4.533-3.14-6.205-7.177-8.447-15.792-8.483-25.683-1.533 0-2.942 0-5.187.08-3.64-.475-4.867.257-4.876 3.521-.004 1.736-1.805 3.466-2.795 5.199z"/><path fill="#254DC1" d="M157.393 292.074c-.366-2.296-1.128-4.614-.998-6.882.162-2.822.315-6.082 1.76-8.322 9.478-14.692 19.304-29.16 29.394-43.533 4.555 12.62 11.733 23.362 19.51 33.762 0 0-.058-.063-.335-.14-.772.256-1.268.588-1.765.92-4.415 1.99-8.83 3.979-13.958 6.007-11.676 6.088-22.642 12.138-33.608 18.188z"/><path fill="#C83314" d="M138.549 234.256c3.317-1.532 6.634-3.064 10.609-4.877 3.127-1.1 5.796-1.56 8.032-2.799 9.953-5.513 19.782-11.25 29.656-16.906 3.09 8.318.127 14.94-4.871 21.754-8.7 11.86-16.586 24.316-25.292 36.228-4.774-11.772-10.468-22.433-18.66-31.66-.21-.237.334-1.145.526-1.74z"/><path fill="#F7F7F7" d="M183.662 183.735c1.776-1.255 3.254-2.31 4.798-3.412-.676 6.353-1.228 12.502-2.076 18.61-.148 1.064-1.389 2.163-2.384 2.895-15.895 11.687-33.154 20.877-51.626 27.762-1.27.473-3.456.394-4.372-.401-4.748-4.12-9.222-8.556-14.033-13.11 25.078-6.748 48.172-17.449 69.693-32.344m-38.209 29.338-5.571.561 2.47 5.364 4.637-2.233c-.465-1.214-.817-2.133-1.536-3.692m-12.338 5.483-5.74-.54 2.057 5.687c1.877-1.25 5.954.09 3.683-5.147m37.16-16.316c-2.057-4.493-3.94-1.017-6.21.083l3.162 4.969c1.406-1.793 2.44-3.11 3.048-5.052m-14.617 4.596c-4.547 1.518-2.434 3.794-.79 6.443l4.798-2.755c-1.305-1.616-2.288-2.832-4.008-3.688m23.826-14.442-4.159 2.716 3.074 4.298 4.182-3.056c-.945-1.356-1.686-2.42-3.097-3.958z"/><path fill="#F8F8F8" d="M194.386 298.384c-13.32 7.454-26.309 14.73-38.494 21.556.606-4.816 1.231-10.82 2.206-16.768.226-1.38 1.38-2.929 2.555-3.783a215.212 215.212 0 0 1 51.072-27.518c2.355-.885 3.745-.742 5.573 1.147 4.003 4.137 8.375 7.917 12.465 11.722-11.708 4.499-23.376 8.983-35.377 13.644m15.912-18.707 1.335 4.84 5.028-1.922-1.685-4.87c-1.706.571-2.929.98-4.678 1.952M175.2 296.02c-4.093 2.455.002 3.673.486 5.962l5.624-3.62c-2.35-1.177-3.886-1.946-6.11-2.342m25.884-7.245c4.18-1.274 2.537-3.494.822-6.146l-5.099 2.247c1.423 1.664 2.474 2.892 4.277 3.899m-15.809 2.481 2.16 4.072 4.61-2.701-2.572-4.387c-1.61.862-2.915 1.56-4.198 3.016m-17.325 13.47c-2.455-4.465-4.053-.914-6.278.462l3.494 4.562c1.282-1.717 2.24-3.001 2.784-5.024z"/><path fill="#F5F5F5" d="M279.847 291.65c-.925-4.88-3.712-6.837-8.533-6.138-.49.07-.999.008-1.498.008-11.595-.007-11.595-.007-13.24 12.561L240.5 287.803c13.055-9.515 23.03-19.88 30.993-32.144.418-.643 1.054-1.348 1.74-1.58 3.77-1.28 11.172 2.604 12.4 6.624-2.67-.575-5.204-1.44-7.766-1.532-1.216-.043-2.485 1.389-3.73 2.153.956.93 1.754 2.306 2.896 2.71 4.064 1.436 8.893 1.401 11.297 6.338-4.666-.828-8.96-1.823-13.308-2.222-1.299-.119-2.75 1.43-4.132 2.214 1.232.937 2.33 2.259 3.72 2.736 3.878 1.334 7.925 2.18 11.791 3.54.905.32 1.36 1.915 2.166 3.144-5.95-.698-11.237-1.481-16.553-1.818-1.196-.076-2.491 1.405-3.74 2.17 1.284.952 2.45 2.435 3.876 2.751 3.385.75 6.974.638 10.318 1.503 1.624.42 2.884 2.254 4.309 3.447-1.375 1.052-2.695 2.189-4.148 3.118-.665.426-1.59.444-2.782.696z"/><path fill="#F6F6F6" d="M58.047 233.984c-.904-.973-1.474-1.75-2.333-2.918 4.644.778 8.746 1.762 12.891 2.015 1.654.1 3.406-1.416 5.113-2.197-1.523-.937-2.938-2.222-4.592-2.736-3.141-.975-6.529-1.213-9.595-2.348-1.562-.579-2.648-2.44-4.809-4.569 6.43 1.021 11.39 2.082 16.4 2.442 1.547.111 3.231-1.685 4.853-2.608-1.526-.853-2.96-2.088-4.597-2.479-3.217-.768-6.62-.8-9.795-1.679-1.504-.416-2.661-2.083-3.976-3.183 1.343-1.072 2.592-2.305 4.061-3.157.937-.543 2.2-.523 3.729-.84.114 5.479 3.275 6.837 7.914 6.118.488-.075.999-.01 1.498-.01 11.317-.001 11.317-.001 12.73-12.515l16.322 10.262c-12.873 9.529-22.835 19.837-30.925 31.963-2.538 3.804-11.886.951-14.271-4.662 2.813.555 5.306 1.307 7.83 1.427 1.152.056 2.364-1.134 3.549-1.76-.92-1.135-1.616-2.764-2.807-3.308-2.827-1.294-5.889-2.073-9.19-3.258z"/><path fill="#F6C91D" d="M77.323 123.655c2.15 4.63 4.218 9.303 6.495 13.871.843 1.69 2.091 4.324 3.31 4.413 1.797.132 3.757-1.584 5.594-2.608.498-.278.803-.9 1.625-1.056-.772 7.482-5.444 12.29-11.348 16.049-.397 4.523 2.21 4.95 5.549 4.163-.728 7.986-5.256 12.51-12.242 12.5-5.73-.008-10.397-4.847-11.09-11.298l6.353-3.395c-2.375-2.372-4.115-4.11-6.224-6.38-.717-.639-1.066-.743-1.414-.848 0 0 .059-.068.244-.355-.328-.732-.84-1.179-1.352-1.625 0 0 .097-.012.175-.353-.275-1.816-.627-3.291-.98-4.767 1.75-.002 3.498-.003 5.967-.046 1.506-1.13 2.51-2.12 3.039-3.322 2.178-4.946 4.212-9.956 6.3-14.943z"/><path fill="#F6C91B" d="M282.93 360.113c-2.043-.177-4.086-.354-6.874-.481-1.543 1.554-2.4 3.03-3.125 4.57-2.072 4.4-4.092 8.824-6.132 13.239-2.027-4.468-3.978-8.972-6.12-13.384-.844-1.741-2.184-4.668-3.178-4.618-2.187.109-4.297 1.767-6.905 2.73-.467-.063-.642-.204-.642-.204 1.062-7.226 6.224-11.317 11.687-15.09-.286-3.666-2.134-5.055-5.613-3.617.146-7.322 4.04-11.78 10.576-12.765 4.42-.667 10.694 3.746 12.004 8.81.233.899-.937 2.4-1.803 3.288-1.177 1.207-2.685 2.093-4.345 3.337 2.122 1.703 3.74 3.001 5.538 4.978.806.79 1.433.902 2.06 1.014 0 0-.06.074-.159.414.323.431.745.523 1.166.614 0 0-.063.053-.304.337.562 2.465 1.365 4.647 2.168 6.828z"/><path fill="#F7F5EF" d="M220.636 158.051c-4.988 4.713-11.042 8.739-15.592 14.053-9.835 11.487-9.566 25.583-7.638 39.442 4.033 28.987 18.676 51.863 41.967 69.8-1.246.188-3.277.844-4.257.106-23.164-17.453-38.4-39.936-42.05-69.137-1.036-8.302-1.565-17.158.192-25.21 3.16-14.475 12.313-24.697 27.378-29.054z"/><path fill="#F6F5F0" d="M121.323 343.944c16.567-8.253 26.463-21.304 26.583-40.601.08-12.724-2.352-25.085-7.093-36.937-7.466-18.67-19.581-33.79-35.598-46.33 1.253-.152 3.243-.712 4.24.041 27.837 21.047 42.965 48.946 43.208 83.97.123 17.843-9.144 30.799-25.245 38.609-1.703.826-3.78.88-6.095 1.248z"/><path fill="#F2C61E" d="m182.407 79.793 3.255.29c-1.974 12.908 5.402 20.212 15.04 26.776 6.23 4.243 11.654 9.732 17.123 14.99 1.617 1.555 2.157 4.227 3.452 6.933-11.76-8.598-22.823-16.677-33.868-24.781-.661-.485-1.176-1.17-2.035-2.327-2.824-7.462-4.737-14.439-2.967-21.881z"/><path fill="#F5C921" d="M73.143 176.219h8.599v34.225c-2.644 0-5.237 0-8.208-.622-.384-11.617-.387-22.61-.391-33.603z"/><path fill="#F3C81F" d="M161.908 421.765c-1.002-.876-2.923-1.814-2.867-2.618.78-11.379-5.904-17.984-14.357-23.836-5.555-3.846-10.972-8.018-15.835-12.685-2.657-2.55-4.031-6.437-5.334-10.195 7.889 9.674 19.491 13.953 28.891 21.193 2.187 1.685 4.168 3.636 6.114 5.942 3.645 7.296 5.433 14.437 3.388 22.2z"/><path fill="#EDC119" d="M271.062 325.027h-8.26v-34.163c2.484 0 4.914 0 7.801.556.458 11.574.458 22.59.459 33.607z"/><path fill="#F5F5F5" d="M247.344 149.452c-8.559.353-17.094.353-24.102.353l8.08-22.279c4.658 6.263 10.352 13.918 16.022 21.926z"/><path fill="#F7F7F7" d="M105.682 362.38c-2.847-3.495-5.485-6.693-8.71-10.602h23.804l-8.105 23.021c-2.116-3.783-4.448-7.953-6.99-12.419z"/><path fill="#C63719" d="m126.954 172.974 7.777.412c-4.017 3.639-6.918 6.66-10.21 9.17-7.365 5.617-15.013 10.865-22.359 16.507-2.716 2.086-5.4 2.669-8.7 1.34 1.252-1.656 2.621-2.814 4.022-3.932 9.82-7.837 19.646-15.665 29.47-23.497z"/><path fill="#284EBF" d="m217.112 328.692-7.306-1.09c4.582-3.937 8.498-7.66 12.78-10.897a472.26 472.26 0 0 1 21.397-15.237c1.298-.872 3.499-.398 5.704-.189a9.094 9.094 0 0 1-2.681 3.517c-9.943 7.992-19.925 15.937-29.894 23.896z"/><path fill="#ECEEF2" d="M205.785 124.36c-6.122 17.074-16.637 30.577-32.416 39.552-3.942 2.242-8.479 3.436-13.158 5.059 15.557-7.562 28.57-18.316 36.68-34.3 2.076-4.09 3.661-8.43 5.628-13.019 1.07.887 2.045 1.694 3.266 2.708z"/><path fill="#F0C520" d="m193.255 80.72 4.298-.252c-.466 10.143 7.157 14.643 13.062 20.527 4.34 4.325 7.797 9.537 11.508 14.686-.139.332-.106.286-.106.286-8.798-6.914-17.597-13.827-26.677-21.304-.883-5.023-1.484-9.483-2.085-13.943z"/><path fill="#F3EEED" d="M138.818 377.506c6.645-21.155 20.737-35.32 40.476-44.242.574-.26 1.29-.204 2.325-.211-.497.761-1.304 1.576-2.27 2.094-18.106 9.708-30.735 24.014-37.05 44.415-1.17-.63-2.211-1.188-3.48-2.056z"/><path fill="#F2C720" d="M150.914 420.857h-3.903c.238-7.998-4.84-12.908-10.25-17.737-4.197-3.749-8.2-7.732-12.086-11.806-1.252-1.313-1.855-3.246-3.287-5.873 9.486 7.1 17.897 13.395 26.43 20.346.5.836.877 1.014 1.253 1.193 0 0-.065.015-.206.365.589 4.737 1.319 9.125 2.049 13.512z"/><path fill="#F1EBE9" d="M197.333 328.882c12.797-11.297 25.981-22.582 39.398-34.067a291.85 291.85 0 0 0-3.635-3.908c3.183-1.274 3.183-1.274 9.033 5.015-4.52 3.115-9.203 5.958-13.446 9.351-7.785 6.226-15.225 12.88-22.993 19.128-2.344 1.885-5.296 3.015-8.357 4.48z"/><path fill="#ECEEF2" d="M145.756 172.946c-5.953 6.07-12.01 12.4-18.707 17.96-6.37 5.29-13.408 9.776-20.317 14.734 1.401 1.538 2.833 3.11 4.374 5.012-2.29 2.217-3.663.625-5.226-1.057-1.228-1.32-2.81-2.312-3.38-2.767 13.295-11.081 26.064-21.765 38.912-32.355 1.048-.864 2.627-1.085 4.344-1.527z"/><path fill="#F3EEED" d="M138.17 234.286c.187.565-.358 1.473-.147 1.71 8.192 9.227 13.886 19.888 18.344 31.723-.533 1.908-1.23 3.46-1.697 4.499l-20.012-37.449c.374-.054 1.753-.254 3.511-.483z"/><path fill="#F1F2F5" d="M207.33 267.4c-8.048-10.701-15.226-21.443-19.52-34.278.683-1.777 1.485-3.171 1.867-3.834l20.173 37.617a9.155 9.155 0 0 1-2.52.496z"/><path fill="#F3F2EA" d="M142.619 37.902c2.53 7.02 4.622 13.951 7.014 20.779.568 1.621 1.848 3.42 3.304 4.22 3.746 2.057 7.774 3.6 11.855 5.648-6.228-2.06-12.636-4.383-18.987-6.85-.49-.19-.638-1.382-.851-2.134-2.055-7.258-4.09-14.522-6.232-22.15.9.092 2.235.227 3.897.487z"/><path fill="#F2C824" d="M125.822 408.116c-1.157-2.736-2.157-5.13-3.296-7.86 5.538 1.65 16.21 11.8 17.389 16.61.324 1.322-.279 3.953-1.065 4.226-1.374.476-3.939.167-4.741-.83-2.988-3.71-5.461-7.835-8.287-12.146z"/><path fill="#F5F3EE" d="M201.766 463.692c-2.502-7.195-4.632-14.295-6.986-21.32-.463-1.38-1.534-2.977-2.767-3.6-3.82-1.933-7.852-3.446-12.003-5.433 5.931 1.84 12.094 3.913 18.158 6.242.733.282 1.056 1.913 1.364 2.978 2.007 6.935 3.957 13.886 6.045 21.254-.842 0-2.18 0-3.81-.12z"/><path fill="#F2C824" d="M205.247 80.138c1.926.512 4.787.398 5.62 1.642 4.328 6.457 8.14 13.262 12.13 19.945l-1.31.793c-3.002-2.347-6.005-4.694-9.288-7.647-.701-1.008-1.121-1.411-1.541-1.815 0 0 .084-.012.073-.278-.362-.41-.714-.554-1.066-.699 0 0 .089-.032.072-.297-.369-.41-.72-.557-1.071-.703 0 0 .085-.012.071-.313-.703-.754-1.391-1.209-2.08-1.663 0 0 .118-.075.177-.397-.556-3.071-1.172-5.82-1.787-8.568z"/><path fill="#F7F7F7" d="M152.771 117.453c1.15 3.233 2.105 6.145 3.06 9.057l-1.133 1.421c-4.416-2.557-9.05-4.822-13.105-7.86-1.12-.84-1.238-4.285-.526-6 1.078-2.602 3.675-2.406 5.899-.951 1.922 1.257 3.743 2.668 5.805 4.333z"/><path fill="#F8F8F8" d="M203.693 387.031c-4.041 3.17-10.406.89-12.766-4.426-1.042-2.346-1.504-4.95-2.276-7.598 9.86.545 16.112 5.51 15.042 12.024z"/><path fill="#E9EBF0" d="M217.5 328.807c9.581-8.074 19.563-16.02 29.506-24.011 1.143-.919 2.074-2.1 3.044-3.44 1.505.03 3.069.341 4.067.54-10.655 8.725-21.363 17.56-32.19 26.248-.946.759-2.674.543-4.427.663z"/><path fill="#F3EEED" d="M126.662 172.783c-9.532 8.023-19.358 15.851-29.178 23.688a60.322 60.322 0 0 0-4.304 3.748c-1.089.028-2.029-.276-3.783-.844 1.413-1.103 2.46-1.913 3.5-2.733 9.597-7.582 19.153-15.217 28.84-22.684 1.189-.916 3.072-.932 4.925-1.175z"/><path fill="#EBE3E1" d="M186.885 209.334c-9.913 5.996-19.742 11.733-29.695 17.246-2.236 1.24-4.905 1.7-7.771 2.557 1.284-1.009 2.943-2.094 4.65-3.1 9.913-5.846 19.821-11.704 29.791-17.454.828-.477 2.609-3.574 3.025.751z"/><path fill="#F3F1E6" d="M185.064 31.754c-8.065 4.222-14.81 9.862-18.907 18.197-1.22 2.484-2.565 1.924-4.623.908 4.597-10.14 12.162-16.965 23.53-19.105z"/><path fill="#F7F5EC" d="M160.334 468.958c7.377-3.801 13.428-9.315 17.72-16.866.585-1.029 2.719-1.178 4.499-1.542-4.279 9.625-10.806 16.774-22.219 18.408z"/><path fill="#E2E4EA" d="M157.367 292.429a865.985 865.985 0 0 1 33.303-18.418 6.216 6.216 0 0 1-2.125 2.19c-9.3 5.585-18.607 11.159-27.986 16.608-.799.463-2.133.005-3.192-.38z"/><path fill="#FDF7E1" d="M271.403 325.218c-.342-11.208-.342-22.224-.352-33.707.811.37 2.332 1.195 2.346 2.045.165 9.95.138 19.906.027 29.858-.007.671-1.095 1.33-2.021 1.804z"/><path fill="#FEFEFE" d="M72.698 176.105c.449 11.107.452 22.1.485 33.573-.699-.053-2.057-.58-2.061-1.118-.083-10.63-.015-21.262.08-31.892.001-.229.686-.45 1.496-.563z"/><path fill="#EBE7D6" d="M182.087 79.613c-1.45 7.622.463 14.6 2.998 21.891-5.565-5.642-7.01-12.724-5.202-20.556.143-.617 1.234-1.016 2.204-1.335z"/><path fill="#F3F1E6" d="M162.314 421.888c1.64-7.885-.149-15.026-3.646-22.04 5.543 4.279 8.334 15.413 5.599 21.332-.196.425-1.017.56-1.953.708z"/><path fill="#EEEADC" d="M77.23 123.351a301.208 301.208 0 0 1-6.206 15.247c-.529 1.201-1.533 2.193-2.693 3.264 2.336-6.472 5.045-12.928 7.77-19.377.031-.074.325-.132.401-.074.237.18.428.42.729.94zM267.05 377.674c1.79-4.648 3.809-9.073 5.881-13.472a26.119 26.119 0 0 1 2.766-4.603 187.157 187.157 0 0 1-5.514 16.425c-.339.87-1.89 1.267-3.132 1.65z"/><path fill="#F3F1E6" d="M134.454 448.923c.589-1.812 2.39-3.542 2.394-5.278.009-3.264 1.236-3.996 4.442-3.364.657 8.054.657 8.054-6.836 8.642z"/><path fill="#EEEADC" d="M151.308 420.933c-1.124-4.463-1.854-8.85-2.427-13.618 5.2 3.494 6.384 9.746 2.427 13.618z"/><path fill="#FBFBFB" d="M207.616 53.085c.082 1.743-.525 3.42-.429 5.056.17 2.888-1.3 3.197-3.952 2.66-.205-3.425-2.47-8.145 4.381-7.716z"/><path fill="#F1EBE9" d="M192.894 80.61c.962 4.57 1.563 9.03 2.15 13.888-4.881-4.945-5.778-10.118-2.15-13.888z"/><path fill="#EEEADC" d="M62.01 141.986c.361 1.456.713 2.931.965 4.79-2.427-3.298-4.754-6.98-7.082-10.662l1.77-1.14c.927 1.364 1.853 2.728 2.91 4.728.578 1.192 1.024 1.747 1.47 2.302 0 0-.044.002-.034-.018zM282.956 360.085c-.83-2.153-1.633-4.335-2.161-6.825 2.331 3.812 4.388 7.933 6.314 12.407-.131.355-.091.304-.091.304-.936-.996-1.871-1.992-2.926-3.634-.471-1.205-.824-1.762-1.176-2.32 0 0 .067.04.04.068z"/><path fill="#F1EBE9" d="M204.829 80.078c1.033 2.808 1.649 5.557 2.161 8.682-4.221-2.26-5.026-5.223-2.161-8.682zM206.678 89.471c.868.086 1.556.54 2.248 1.337-.808-.095-1.618-.531-2.248-1.337z"/><path fill="#F1F2F5" d="M205.334 267.949c.122-.402.618-.734 1.433-.98-.14.407-.6.729-1.433.98z"/><path fill="#F1EBE9" d="M210.676 93.377c.602.083 1.022.486 1.521 1.227-.514-.077-1.109-.492-1.52-1.227z"/><path fill="#F6C91B" d="M250.218 362.174c-.138.45-.366.834-.594 1.217-.035-.405-.07-.81.112-1.32.218-.106.393.035.482.103z"/><path fill="#F6C91D" d="M62.085 141.644c-.488-.195-.934-.75-1.311-1.698.496.184.924.761 1.31 1.698z"/><path fill="#EEEADC" d="M62.561 147.38c.774.152 1.286.599 1.579 1.36-.76-.144-1.3-.605-1.579-1.36zM280.04 351.581c-.609.227-1.236.115-1.88-.372.61-.24 1.237-.103 1.88.372z"/><path fill="#F6C91B" d="M282.767 360.356c.501.219.854.776 1.205 1.697-.452-.211-.902-.785-1.205-1.697z"/><path fill="#F1EBE9" d="M209.74 92.452c.477-.228.829-.084 1.186.368-.433.207-.872.105-1.186-.368zM208.739 91.454c.478-.229.83-.083 1.181.372-.435.207-.871.104-1.181-.372z"/><path fill="#F0C520" d="M221.966 116.034c.132.102.282.181.433.261-.092-.02-.185-.042-.33-.195-.052-.133-.085-.087-.103-.066z"/><path fill="#EEEADC" d="M149.017 406.686c-.322.115-.698-.063-1.05-.605.348-.139.672.086 1.05.605zM63.955 149.42c.324-.25.673-.145 1.144.282-.291.239-.706.156-1.144-.281zM281.062 352.647c-.418.21-.84.118-1.13-.346.463-.234.795-.094 1.13.346zM286.958 366.047c.202.081.424.137.647.193-.166.046-.332.091-.542-.066-.045-.203-.085-.152-.105-.127z"/><path fill="#FEFEFE" d="M71.483 442.854c.162-.513.651-.717 1.14-.922l.297 1.101c-.37.043-.74.087-1.437-.18zM60.58 443.467c.03-.804.247-1.366.464-1.928l.892.7c-.074.55-.147 1.101-.49 1.788-.406-.016-.542-.167-.865-.56zM270.966 58.09c.43.391.645 1.047.859 1.703-.375-.113-.75-.226-1.288-.604-.039-.456.087-.646.43-1.1zM282.185 60.107c-.424-.391-.4-.826-.376-1.261l1.113.116c-.097.367-.194.734-.737 1.145zM306.228 417.237c.306-.003.385.229.464.46-.23-.075-.461-.15-.464-.46zM317.768 417.702c-.306-.003-.38-.236-.455-.47.23.08.458.16.455.47zM38.369 84.419c-.262.286-.66.403-1.057.521.016-.276.032-.552.334-.915.286-.087.586.226.723.394zM26.69 84.31c-.011.308-.242.376-.473.445.085-.228.17-.456.473-.445z"/><path fill="#292824" d="M104.842 240.94c-8.923 7.73-15.377 17.274-20.068 27.994-1.291 2.95-2.735 3.227-5.603 1.4-.137-1.394.07-2.364.45-3.26 5.535-12.992 14.254-23.665 24.344-33.335 1.988.136 4.647-.511 5.86.529 11.32 9.702 19.864 21.466 25.972 36.715-2.574-.22-4.25-.364-6.244-1.123-4.997-11.505-11.848-20.853-20.32-29.09-1.699-1.652-3.027-2.672-4.391.17z"/><path fill="#2B2923" d="m122.956 299.95 4.649-.569c1.862 14.321-12.289 24.281-29.28 20.348-7.979-4.673-12.369-10.908-13.041-19.58l5.028-.989c1.64 10.676 7.482 16.432 18.795 16.41 8.734-2.025 13.006-6.978 13.85-15.62z"/><path fill="#F9F8F1" d="M103.64 233.537c-9.765 9.872-18.484 20.545-24.018 33.538-.382.895-.588 1.865-.815 3.156-1.44.354-2.94.354-5.234.354 4.114-10.833 9.845-19.564 16.88-27.48 2.524-2.84 5.202-5.583 8.094-8.035 1.21-1.027 3.157-1.183 5.093-1.533z"/><path fill="#F7F5EC" d="M105.05 241.21c1.156-3.112 2.484-2.092 4.183-.44 8.472 8.237 15.323 17.585 20.11 28.84-2.744 2.673-4.068 1.28-5.322-1.547-4.475-10.095-10.787-18.937-18.972-26.853z"/><path fill="#282621" d="m136.044 287.318 5.39-1.667 2.155 20.658c-2.576-.243-3.986-.376-5.807-.97-.854-6.314-1.296-12.168-1.738-18.021zM72.273 287.587l5.234-.988-2.001 19.15c-1.027.103-2.449.245-4.204-.297.1-6.41.536-12.138.97-17.865z"/><path fill="#F8F5E8" d="M71.933 287.423c-.095 5.891-.53 11.618-1.018 17.773-1.46.534-2.866.638-5.43.83.658-6.099 1.177-11.553 1.864-16.986.353-2.796 2.13-2.85 4.584-1.617z"/><path fill="#F9F8F1" d="M135.82 287.085c.666 6.086 1.108 11.94 1.542 18.169-3.209 1.323-4.474.332-4.48-3.194-.007-4.579-.654-9.158-1.085-14.464.9-.176 2.35-.46 4.024-.51z"/><path fill="#F7F5EF" d="M84.852 300.02c1.104 8.801 5.494 15.036 13.081 19.562-8.204-.366-16.105-8.338-16.985-16.616-.327-3.075 1.154-3.365 3.904-2.945z"/><path fill="#393627" d="M113.511 332.277c-.42 1.357-.884 3.064-1.553 3.148-4.705.592-9.574 1.653-13.717-1.954 3.65-3.714 12.088-4.594 15.27-1.194z"/><path fill="#2B2923" d="M130.896 318.673c2.381-3.082 4.146-.985 6.608 1.204-2.92 2.92-5.67 5.884-8.706 8.523-.596.517-2.289-.228-3.802-.898-.04-1.418.011-2.527.58-3.2 1.663-1.97 3.532-3.765 5.32-5.629z"/><path fill="#2A2823" d="m77.188 318.7 2.834-1.521 9.153 9.357c-.697 1.83-1.821 4.242-5.65.88-2.453-3.204-4.395-5.96-6.337-8.715z"/><path fill="#F6F5EE" d="M122.538 299.897c-.425 8.695-4.697 13.648-13.149 15.443 3.752-4.025 8.58-7.665 8.997-14.307.03-.473 2.433-.797 4.152-1.136z"/><path fill="#F3F2EA" d="M130.6 318.482c-1.492 2.055-3.361 3.85-5.024 5.82-.569.673-.62 1.782-.824 2.974-2.565 2.283-4.304 1.907-5.015-2.068 2.216-2.096 4.476-4.471 7.016-6.493.793-.632 2.345-.31 3.846-.233z"/><path fill="#F8F5E8" d="M76.908 318.38a644.676 644.676 0 0 1 6.278 8.86c-1.138.35-2.78.968-3.697.405-3.032-1.863-5.802-4.153-8.673-6.278l1.318-2.445c1.498-.288 2.996-.575 4.774-.542z"/><path fill="#2A2823" d="M239.337 260.786c9.585-8.501 16.304-19.03 21.725-31.12 1.363.413 2.685.814 4.4 1.65-5.225 14.52-14.302 26.15-25.183 36.501-2.108-.306-4.859.136-6.223-1.036-11.212-9.634-19.488-21.443-25.486-36.125 2.343 0 4.075 0 6.105.597 4.864 11.542 11.753 20.88 20.154 29.152 1.317 1.296 2.745 3.404 4.508.381zM259.057 201.76l-5.03.279c-1.679-9.395-6.207-15.611-17.019-16.137-9.674 1.017-14.421 6.041-15.674 15.757l-4.814.383c-1.517-14.845 13.236-24.665 29.941-19.644 8.215 4.373 12.082 10.807 12.596 19.361z"/><path fill="#F8F6F0" d="M240.655 267.902c10.505-10.436 19.582-22.067 25.168-36.51 1.329-.444 2.688-.53 4.047-.616l.953 1.33c-3.247 5.706-6.025 11.754-9.865 17.029-4.383 6.019-9.594 11.46-14.722 16.892-1.144 1.211-3.44 1.335-5.581 1.875zM239.156 260.502c-1.582 3.307-3.01 1.2-4.327-.097-8.401-8.273-15.29-17.61-19.866-28.91 1.074-.73 2.158-1.102 1.961-1.035a19071.3 19071.3 0 0 1 22.232 30.042z"/><path fill="#353123" d="m272.084 213.882-5.287.775 1.943-19.14c1.04 0 2.693 0 4.583.763-.256 6.376-.748 11.989-1.24 17.602zM208.654 213.937l-4.713 1.557c-2.84-5.976-3.37-12.09-2.51-18.376.45-3.297 2.794-1.853 5.082-1.027 1.024 6.284 1.582 12.065 2.141 17.846z"/><path fill="#F7F5EC" d="M259.455 201.814c-.912-8.609-4.78-15.043-12.615-19.385 5.969-.99 9.745 2.91 12.712 7.228 2.252 3.277 3.306 7.376 5.173 11.768-2.362.215-3.616.33-5.27.39z"/><path fill="#FDFBF2" d="M272.43 213.987c.145-5.718.637-11.33 1.077-17.387 1.22-.746 2.49-1.05 5.367-1.734-.74 6.414-1.3 12.151-2.109 17.853-.366 2.578-2.098 2.528-4.335 1.268zM208.817 214.226c-.722-6.07-1.28-11.85-1.898-18.022 1.454-.39 2.967-.39 3.919-.39l1.702 17.923c-.804.176-2.182.477-3.723.49z"/><path fill="#2A2823" d="M213.416 182.642c-2.324 3.353-4.014.876-6.694-.958 3.14-3.12 5.912-6.08 8.965-8.715.534-.462 2.248.442 3.78 1.278-1.774 3.173-3.913 5.784-6.051 8.395z"/><path fill="#F8F5E8" d="M221.723 201.724c.864-9.78 5.61-14.805 14.886-15.737-5.25 3.02-9.384 7.094-10.667 13.706-.177.912-2.5 1.407-4.219 2.03z"/><path fill="#282621" d="m267.163 182.872-3.02 1.481-9.09-9.278 2.143-3.482c1.243.833 2.173 1.457 3.598 2.496 2.452 3.205 4.41 5.994 6.369 8.783z"/><path fill="currentColor" d="M240.546 171.035c-3.237-.024-6.03-.024-9.133-.024l-.839-4.96c5.422.314 10.677-1.983 16.157 2.802-2.4.922-4.072 1.564-6.185 2.182z"/><path fill="#F3F1E6" d="M267.434 183.087c-2.23-3.004-4.188-5.793-6.315-8.88 1.121-.387 2.725-1.007 3.646-.466 3.102 1.823 5.962 4.058 8.915 6.136l-1.617 2.802c-1.452.207-2.904.415-4.629.408z"/><path fill="#F8F5E8" d="M213.721 182.803c1.833-2.772 3.972-5.383 5.997-8.344.804-1.008 1.72-1.668 3.68-3.08.132 2.41.65 5.116.23 5.27-3.733 1.372-3.705 8.489-9.907 6.154z"/><path fill="#393939" d="M186.106 408.826c.838-1.947 1.681-3.48 2.525-5.013.888.563 2.518 1.106 2.533 1.692.062 2.328.48 5.76-.814 6.781-2.814 2.222-3.809-.548-4.244-3.46z"/><path fill="currentColor" d="M157.785 96.301c-1.648.243-3.15.104-4.652-.036l.828-7.362c1.341.705 3.29 1.093 3.865 2.197.665 1.278.122 3.185-.041 5.201z"/><path fill="#313131" d="M145.637 213.393c.535 1.24.887 2.158 1.352 3.372l-4.637 2.233-2.47-5.364c2.174-.219 3.873-.39 5.755-.24zM133.238 218.923c2.148 4.87-1.929 3.53-3.806 4.78l-2.058-5.686c2.415.227 4.078.383 5.864.906zM170.487 202.552c-.82 1.63-1.854 2.947-3.26 4.74l-3.162-4.969c2.27-1.1 4.153-4.576 6.422.229zM156.027 206.655c1.35 1.037 2.334 2.253 3.639 3.87l-4.797 2.754c-1.645-2.649-3.758-4.925 1.158-6.624z"/><path fill="currentColor" d="M179.819 192.631c1.076 1.302 1.817 2.365 2.762 3.72l-4.182 3.057-3.074-4.298c1.522-.994 2.84-1.855 4.494-2.479z"/><path fill="#393939" d="M210.561 279.396c1.486-.69 2.709-1.1 4.415-1.671l1.685 4.87-5.028 1.922c-.52-1.882-.927-3.36-1.072-5.12z"/><path fill="#313131" d="M175.545 295.833c1.88.583 3.416 1.352 5.766 2.53l-5.624 3.619c-.484-2.29-4.579-3.507-.142-6.149zM200.708 288.885c-1.426-1.117-2.477-2.345-3.9-4.01l5.099-2.246c1.715 2.652 3.358 4.872-1.199 6.256zM185.265 290.877c1.294-1.077 2.599-1.775 4.209-2.637l2.571 4.387c-1.575.923-2.966 1.739-4.61 2.701-.789-1.488-1.474-2.78-2.17-4.45zM168.158 305.096c-.751 1.653-1.71 2.937-2.99 4.654l-3.495-4.562c2.225-1.376 3.823-4.927 6.485-.092z"/></svg>