<svg xmlns="http://www.w3.org/2000/svg" viewBox="0 0 336 496" xml:space="preserve"><path fill="currentColor" d="M246.575 397.687c-1.502 4.286-2.804 8.228-2.012 13.261 1.992-1.822 3.64-3.34 5.298-4.845 7.137-6.482 16.668-6.573 22.842-.222 5.663 5.825 5.66 15.703-.005 21.726-5.958 6.334-15.87 6.321-22.83-.032-.484-.442-.957-.896-2.054-.836 1.459 1.522 2.946 3.017 4.371 4.571 5.524 6.024 6.303 14.053 2.028 20.617-3.606 5.536-11.047 8.04-17.688 5.95-6.67-2.097-11.169-8.608-10.803-15.685.216-4.187 2.07-7.636 4.862-10.669 1.201-1.305 2.823-2.277 3.47-4.17-11.297 6.757-19.008 6.503-24.835-.758-5.082-6.332-4.629-15.293 1.058-20.904 7.004-6.912 14.154-5.684 28.304 5.219-.028-7.236-1.78-13.353-5.75-18.867-.944-1.311-2.565-2.6-1.739-4.396.936-2.037 3.134-1.552 4.886-1.586 4.16-.082 8.33-.143 12.482.057 3.546.171 4.362 1.894 2.27 4.912-1.418 2.043-2.674 4.2-4.155 6.657zM106.91 396.992c-1.798 4.496-3.092 8.702-2.383 14.044 2.304-2.138 4.064-3.84 5.895-5.46 6.797-6.013 16.594-5.772 22.456.524 5.578 5.992 5.405 15.79-.382 21.715-5.815 5.954-15.49 6.071-22.125.26-.706-.62-1.37-1.288-2.298-1.725 2.686 4.083 6.846 7.067 8.225 12.065 2.001 7.252-.995 14.962-7.375 18.35-6.434 3.418-15.03 1.803-19.577-3.677-4.788-5.773-4.915-13.793-.194-19.812 1.528-1.949 3.323-3.69 4.854-5.811-4.11 2.596-8.107 5.17-13.288 4.884-5.245-.289-9.236-2.52-12.177-6.728-4.347-6.218-3.7-14.37 1.547-19.698 4.222-4.289 9.343-5.394 15.143-4.233 5.564 1.113 8.625 5.843 13.408 9.593-.135-7.664-1.813-13.872-5.894-19.388-.966-1.307-2.528-2.65-1.589-4.41.9-1.687 2.904-1.365 4.529-1.391 4.16-.069 8.332-.21 12.481.017 3.99.218 4.584 1.714 2.397 5.081a293.36 293.36 0 0 0-3.654 5.8zM181.067 307.792c-4.514 6.05-7.157 12.314-6.737 19.816 2.616-.2 3.553-2.204 4.908-3.5 6.776-6.477 15.333-7.274 22.122-1.93 6.047 4.759 7.33 13.76 2.953 20.728-4.287 6.825-12.906 8.732-21.24 4.696-.54-.262-1.073-.54-2.116-1.065 7.72 12.01 7.793 19.611.6 25.792-6 5.156-14.731 5.22-20.557-.103-4.513-4.123-6.181-9.332-4.908-15.4 1.183-5.635 5.987-8.866 9.004-13.282-9.691 7.567-18.55 8.175-24.97 1.59-5.713-5.86-5.934-15.2-.505-21.343 6.816-7.712 14.43-6.654 29.163 4.72-.486-6.583-1.48-12.017-4.584-16.975-.794-1.268-1.802-2.406-2.553-3.696-1.32-2.27-.93-3.988 1.996-4.057 5.16-.122 10.328-.108 15.49.009 2.42.054 3.282 1.373 1.934 4zM111.05 77.294c10.966-6.844 22.499-3.012 25.32 8.124 1.63 6.428-.844 13.226-6.061 16.658-5.95 3.914-13.179 3.744-18.647-.603-2.189-1.74-4.151-3.764-7.084-6.454-.755 7.332 1.362 12.8 4.625 18.046 1.069 1.719 3.778 3.156 2.296 5.532-1.283 2.057-3.942 1.288-6.05 1.351-2.995.09-5.999.098-8.993-.013-1.905-.07-4.339.65-5.345-1.614-.866-1.95.914-3.372 1.981-4.814 3.913-5.287 5.293-11.322 5.626-18.202-2.39.712-3.493 2.392-4.83 3.691-7.333 7.122-16.676 7.803-23.218 1.648-6-5.644-6.661-15.008-1.504-21.285 5.738-6.986 14.938-7.552 23.191-1.431.473.35.967.675 2.256 1.57C84.168 65.08 83.34 57.99 90.82 51.4c6.053-5.332 15.67-5.19 21.45.317 7.268 6.923 6.246 15.044-3.394 26.719 1.074.52 1.3-.657 2.175-1.142zM89.335 215.43c5.03-5 10.599-6.884 17.12-4.64 6.098 2.099 9.448 6.61 10.394 12.888.83 5.504-1.633 9.959-5.844 14.785 5.423-1.324 9.725-3.258 14.374-1.768 4.682 1.501 8.3 4.078 10.189 8.805 2.736 6.851 1.2 14.43-4.428 18.42-10.572 7.494-18.703 2.242-26.599-6.808-.808 7.817 1.454 13.463 4.942 18.81 1.038 1.59 3.324 2.962 2.074 5.167-1.186 2.09-3.622 1.132-5.518 1.191-3.829.12-7.67.136-11.495-.022-4.016-.167-4.777-1.67-2.34-4.979 4.169-5.663 6.277-11.887 6.452-19.977-3.358 2.872-5.766 5.342-8.56 7.243-7.831 5.325-17.99 2.863-22.387-5.211-4.455-8.18-1.201-18.285 7.371-21.798 7.716-3.162 14.307-.816 20.183 5.23-7.132-8.026-14.1-15.942-5.928-27.336zM152.724 187.272c-8.893-.134-14.28-4.017-16.467-11.54-1.889-6.496.986-13.693 6.894-17.26 6.88-4.155 13.655-2.835 22.5 5.043-1.366-3.503-3.537-4.883-5.18-6.652-5.46-5.88-6.344-14.023-2.2-20.22 3.724-5.57 11.546-8.104 18.168-5.885 9.991 3.346 13.778 15.609 7.411 24.13-1.183 1.584-2.578 3.01-3.747 4.804 4.14-1.962 8.168-4.122 12.94-3.419 4.872.718 8.869 2.856 11.488 7.119 4.105 6.68 2.913 14.892-2.801 19.957-7.216 6.397-13.742 5.168-26.851-5.252-1.5 3.975.002 7.48 1.09 10.97.948 3.045 2.674 5.702 4.483 8.324 2.42 3.505 1.86 4.745-2.238 4.875-4.494.143-9 .138-13.495-.003-4.376-.138-4.902-1.434-2.361-5.25 4.706-7.068 6.438-12.481 5.87-19.052-5.192 3.123-8.565 8.92-15.504 9.31zM208.28 80.545c8.338-9.431 17.102-9.185 28.207 1.414-2.08-4.542-5.362-6.416-7.399-9.255-5.05-7.04-4.373-15.827 1.744-21.26 5.926-5.263 14.968-5.248 21.002.034 5.525 4.837 6.735 13.617 2.555 19.953-1.632 2.474-3.696 4.663-5.47 7.218 3.878-2.84 7.914-5.195 12.922-4.94 4.958.252 8.99 2.32 11.977 6.24 4.624 6.068 3.898 15.303-1.501 20.512-7.084 6.835-14.534 5.48-27.893-5.478-.666 7.37 1.504 13.334 5.31 18.887.913 1.334 2.652 2.526 1.92 4.335-.85 2.102-3.077 1.635-4.822 1.68-3.993.1-7.997.158-11.985-.016-4.32-.19-5.165-1.802-2.511-5.265 4.338-5.66 6.145-11.99 6.372-20.33-8.344 8.982-16.796 15.115-27.696 6.543-5.84-4.591-6.627-11.972-2.732-20.272zM253.525 238.198c10.076-4.032 19.122-.68 22.307 7.956 3.19 8.65-1.009 17.54-9.783 20.396-5.69 1.852-10.937.694-15.29-3.373-1.797-1.68-3.032-3.964-5.257-5.448-1.956 7.098.545 12.645 3.787 18.034.985 1.637 3.365 2.985 2.31 5.149-1.187 2.432-3.867 1.25-5.898 1.353-3.324.17-6.664.108-9.993.007-1.575-.048-3.549.603-4.503-1.25-.935-1.813.534-3.08 1.486-4.425 3.844-5.431 5.903-11.427 5.923-18.65-3.26.973-4.645 3.582-6.704 5.279-5.225 4.306-11.016 5.492-17.223 2.622-5.82-2.69-8.809-7.572-8.925-13.922-.116-6.387 2.854-11.18 8.576-14.111 5.618-2.879 12.514-1.986 17.263 2.139 1.084.94 2.124 1.93 3.694 3.363-.77-3.352-3.028-4.632-4.664-6.38-5.277-5.637-6.416-12.481-3.096-18.822 2.906-5.552 9.867-9.094 15.923-8.102 7.24 1.185 12.093 6.014 13.314 13.6.757 4.703-.799 8.853-3.891 12.42-2.064 2.379-4.542 4.415-6.457 8.085 2.689-2.275 4.731-4.003 7.1-5.92zM314.513 489.235c-2.266.05-4.105.166-5.928.044-4.786-.32-8.986-2.013-10.713-6.8-1.917-5.309.7-9.302 5.025-12.435-.415-.534-.627-1.02-.998-1.25-5.054-3.136-7.575-7.442-6.054-13.47 1.183-4.69 6.544-8.262 12.872-8.597 3.483-.184 6.97-.257 10.372.952 4.014 1.427 7.17 3.713 8.051 8.074.906 4.481-.682 8.183-4.268 11.017-.635.502-1.274.999-1.886 1.478 6.892 12.01 5.326 17.293-6.473 20.987m-9.114-29.993c1.38 2.213 3.435 3.582 5.76 4.614 1.616.716 3.207 2.205 4.995.46 2.512-2.452 3.429-5.484 1.84-8.64-1.65-3.283-4.702-4.912-8.33-3.951-3.262.863-5.743 2.82-4.265 7.517m5.896 14.214c-3.52-1.974-4.353.892-5.33 3.108-1.348 3.057-.38 5.547 2.472 7.196 2.671 1.544 5.21 1.064 7.187-1.214 1.891-2.18 1.096-4.365-.671-6.224-.903-.95-2.042-1.673-3.658-2.866zM35.494 16.816c11.46 3.766 12.864 10.022 4.599 19.45.408.45.758 1.031 1.27 1.363 4.295 2.782 6.696 6.594 5.76 11.783-.982 5.438-4.924 8.041-9.98 9.242-4.45 1.057-8.91 1.161-13.296-.286-9.333-3.08-11.424-11.71-4.524-18.651.692-.696 1.612-1.164 2.464-1.764-1.542-2.686-3.214-4.67-3.889-6.948-2.064-6.969 2.335-12.99 10.184-14.136 2.285-.333 4.654-.089 7.412-.053m-4.735 37.71c4.036-.266 7.344-1.426 6.864-6.403-.277-2.863-7.083-7.669-9.871-7.194-2.473.42-4.333 5.042-3.415 8.447.791 2.936 3.081 4.141 6.422 5.15m.77-22.008c3.549 1.501 4.44-1.127 5.1-3.54.82-2.994.161-5.643-3.014-7.025-2.58-1.123-5.083-.76-6.669 1.542-1.625 2.359-.861 4.786 1.166 6.697.831.783 1.88 1.335 3.417 2.326zM299.984 420.262c-6.077-2.523-8.171-7.123-5.727-11.796 2.55-4.875 8.05-5.281 15.084-1.048.095-3.538-2.353-6.12-3.426-9.538 3.45-1.964 6.88-1.312 10.549-.562.032 3.747-3.712 6.194-2.768 10.389 3.862-3.042 7.977-5.016 12.466-1.84 2.86 2.023 3.751 5.123 2.98 8.429-1.2 5.149-5.438 6.152-9.893 6.355.069 9.663-1.945 12.726-8.11 12.658-5.975-.065-7.999-3.389-7.493-12.329-.944-.929-2.182-.492-3.662-.718zM24.249 77.761c3.36-4.32 7.333-5.506 10.957-3.574 3.605 1.922 4.632 5.92 2.84 11.508 4.326-.086 8.516.339 10.051 5.245 1.002 3.2.694 6.371-2.184 8.604-4.28 3.32-8.315 1.555-12.164-1.269-1.249 3.82 2.54 5.92 2.389 9.389-3.194 1.12-6.297 1.007-9.645-.048.23-3.374 3.137-5.697 2.803-9.395-4.23 2.54-8.532 5.26-12.957.943-2.467-2.407-3.217-5.405-1.73-8.68 1.966-4.327 5.67-5.072 10.115-4.5-.967-2.69-1.509-5.239-.475-8.223z"/></svg>