<svg xmlns="http://www.w3.org/2000/svg" viewBox="0 0 336 496" xml:space="preserve"><path fill="currentColor" d="M161.568 216.09c8.478-2.982 15.816-1.042 19.965 4.996 4.84 7.044 3.512 13.897-4.407 23.454 4.09-2.206 8.174-4.4 13.022-3.8 5.086.631 9.149 2.866 11.837 7.35 4.008 6.684 2.756 14.663-3.11 19.924-4.239 3.803-9.214 4.4-14.493 3.182-5.272-1.216-8.323-5.77-13.008-9.468-.012 7.594 1.891 13.703 5.773 19.265.924 1.323 2.602 2.595 1.73 4.386-.966 1.989-3.16 1.492-4.921 1.525-3.828.071-7.665.131-11.486-.054-4.686-.227-5.442-1.716-2.638-5.418 4.197-5.542 6.07-11.699 5.872-19.077-2.673.74-3.845 2.832-5.398 4.322-6.878 6.599-16.495 6.857-22.764.527-5.723-5.779-5.88-15.859-.34-21.724 6.004-6.356 15.852-6.39 22.872-.082.565.508 1.144 1.002 2.055 1.269-4.716-5.553-10.348-10.654-8.901-18.935.873-4.994 3.356-9.006 8.34-11.641zM95.243 104.281c.392-2.48.944-4.585-.58-8.654-2.03 2.701-3.269 4.896-5.009 6.57-6.346 6.11-16.187 6.086-22.044.139-5.77-5.861-5.963-15.673-.425-21.754 5.637-6.19 15.46-6.572 22.098-.85.843.726 1.646 1.498 3.013 1.76-2.346-2.867-4.999-5.539-6.97-8.644-3.674-5.791-2.709-13.623 1.852-18.479 4.593-4.89 12.324-6.264 18.404-3.271 6.035 2.97 9.536 9.533 8.616 16.07-.716 5.089-4.03 8.634-7.215 12.458 4.223-2.326 8.385-4.569 13.389-3.884 4.908.671 8.8 2.942 11.45 7.16 4.169 6.638 3.018 14.675-2.807 19.962-7.1 6.444-14.054 5.035-27.351-5.825-.98 9.188 3.677 16.238 8.446 23.937-7.413 1.488-13.665 1.17-19.871.302-2.849-.399-2.273-2.402-.966-4.069 2.93-3.738 4.99-7.855 5.97-12.928zM103.192 160.118c12.839 5.73 14.252 14.845 4.34 29.203 4.747-2.16 8.845-4.518 13.696-3.456 4.604 1.008 8.39 3.249 10.829 7.342 3.899 6.543 2.925 14.777-2.985 19.498-10.875 8.687-19.358 2.81-27.408-6.378-.995 9.898 3.813 16.809 8.076 24.45-6.965 1.868-13.27 1.43-19.427.692-3.62-.433-1.99-3.018-.63-4.804 4.287-5.63 6.323-11.918 5.992-19.478-2.638 1.045-3.899 3.078-5.515 4.614-6.674 6.34-16.39 6.638-22.453.62a15.548 15.548 0 0 1-.467-21.65c6.01-6.508 15.242-6.814 22.384-.737.73.622 1.436 1.272 2.621 1.716-6.905-7.535-13.271-15.245-6.238-25.766 3.977-5.95 10.054-7.19 17.185-5.866zM230.101 78.616c-8.82-8.905-9.507-18.53-2.013-25.124 5.928-5.217 15.204-5.241 21.04-.056 5.988 5.321 6.91 14.126 2.089 20.813-1.322 1.833-2.895 3.486-4.738 5.68 11.78-5.899 19.778-5.07 24.946 2.229 4.537 6.407 3.637 15.021-2.139 20.455-7.003 6.59-13.925 5.264-27.938-5.768.052 7.316 1.77 13.428 5.663 18.98 1.006 1.435 2.902 2.864 1.746 4.801-1.07 1.794-3.293 1.255-5.07 1.24-3.99-.032-7.981-.156-11.967-.346-3.668-.176-4.453-1.776-2.147-4.735 4.354-5.587 6.393-11.904 6.163-19.472-2.68.776-3.86 2.87-5.428 4.357-6.787 6.43-16.263 6.845-22.448.887-6.043-5.822-6.292-15.927-.544-22.094 5.85-6.275 15.499-6.384 22.47-.3.674.589 1.065 1.735 2.34 1.499.008-1.35-1.134-1.93-2.025-3.046zM268.329 213.452c-11.18 7.255-19.026 1.46-26.677-7.071-1.02 9.83 3.771 16.741 8.11 24.386-7.154 1.827-13.618 1.565-19.917.565-3.171-.504-1.44-3.022-.228-4.604 4.31-5.625 6.448-11.896 6.038-19.459-2.612.904-3.846 2.964-5.449 4.485-6.732 6.39-16.332 6.728-22.462.711-5.88-5.77-6.164-15.534-.634-21.73 5.734-6.422 15.506-6.75 22.45-.747.744.643 1.45 1.33 2.773 1.476-2.15-2.562-4.515-4.977-6.408-7.718-4.371-6.329-3.62-14.483 1.563-19.686 5.143-5.163 13.56-6.022 19.786-2.018 7.317 4.706 9.21 14.692 4.079 21.96-1.333 1.887-2.948 3.575-5.39 6.5 5.184-2.727 9.016-5.332 13.84-4.77 4.922.575 8.921 2.67 11.696 6.781 4.635 6.868 3.576 14.134-3.17 20.939zM83.27 447.399c-1.165-8.533 4.103-13.612 8.943-19.054-3.955 2.764-7.619 5.813-12.701 5.953-4.977.138-9.195-1.505-12.484-5.18-5.248-5.865-5.373-14.861-.225-20.536 3.97-4.374 8.929-5.954 14.895-5.078 5.766.848 8.724 5.682 13.7 9.291.687-7.365-1.236-13.076-4.88-18.38-1-1.453-3.035-2.78-2.058-4.739 1.05-2.103 3.481-1.557 5.42-1.592 3.83-.069 7.673-.159 11.493.058 4.088.231 4.817 1.691 2.384 4.978-4.289 5.793-6.278 12.192-6.387 19.21l1.66 1.365c1.478-1.964 2.7-4.206 4.478-5.844 6.995-6.445 16.789-6.15 22.77.476 5.632 6.24 5.298 15.934-.746 21.67-6.388 6.062-15.68 5.746-22.368-.801-.818-.8-1.452-1.788-2.486-2.394.931 4.007 4.461 5.997 6.564 9.07 4.285 6.26 4.048 13.846-.75 19.403-4.46 5.164-12.348 6.728-18.75 3.663-4.707-2.254-7.346-6.102-8.472-11.54zM234.277 401.824c-1.158-3.596-2.944-6.376-4.994-9.035-2.127-2.758-1.097-4.433 2.11-4.58 4.652-.214 9.33-.278 13.98-.039 4.065.21 4.768 1.736 2.34 5.02-4.213 5.693-6.111 12.043-6.441 20.238 2.955-2.666 5.073-4.808 7.424-6.653 6.571-5.157 15.175-4.726 20.947.909 5.482 5.35 6.206 13.71 1.74 20.089-4.3 6.143-12.72 8.257-19.592 5.05-2.916-1.361-4.634-4.138-7.696-6.206 1.497 3.899 4.584 5.813 6.655 8.514 5.071 6.612 4.673 15.33-.998 20.936-5.507 5.445-14.842 5.882-21.034.984-6.978-5.52-7.557-15.776-1.263-23.13 1.562-1.824 3.253-3.537 4.698-5.456-10.361 7.41-18.778 7.768-24.964.893-5.476-6.086-5.512-15.528.12-21.312 3.99-4.097 8.889-5.437 14.616-4.5 5.584.914 8.48 5.548 12.818 8.771 2.133-3.661.108-6.879-.466-10.493zM113.38 330.124c2.07 8.22-.796 15.218-7.361 18.62-6.335 3.28-14.77 1.712-19.131-3.558-6.226-7.524-5.169-12.93 5.116-26.832-3.785 2.797-7.44 5.813-12.48 5.938-5.155.127-9.502-1.592-12.8-5.536-5.037-6.022-4.825-14.803.443-20.521 4.1-4.45 9.3-5.423 15.074-4.56 5.74.856 8.546 5.918 13.436 9.523.29-7.552-1.388-13.69-5.458-19.204-.954-1.292-2.675-2.478-1.777-4.32.854-1.75 2.83-1.508 4.458-1.533 4.16-.064 8.327-.175 12.48.015 4.056.185 4.804 1.66 2.344 4.972-4.306 5.796-6.162 12.224-6.421 19.191l1.72 1.383c1.474-1.959 2.701-4.181 4.465-5.83 6.715-6.274 16.37-6.141 22.436.103 5.964 6.138 5.783 16.122-.4 21.997-6.39 6.07-15.724 5.776-22.339-.761-.817-.808-1.367-1.886-2.507-2.432 1.874 5.053 7.053 7.765 8.701 13.345zM246.552 320.602c5.038 4.94 8.942 10.096 7.446 17.352-1.286 6.236-5.11 10.628-11.328 12.036-5.99 1.356-11.693.169-15.807-4.932-4.1-5.084-4.989-10.648-2.22-16.79 1.75-3.883 5.287-6.3 7.43-9.927-3.849 2.873-7.561 5.829-12.664 5.956-5.2.129-9.428-1.802-12.734-5.713-5.14-6.081-4.68-15.262.949-20.872 6.89-6.865 14.805-5.47 27.885 5.335.711-7.142-1.215-12.98-4.792-18.452-.962-1.471-3.092-2.664-2.269-4.675.93-2.272 3.396-1.685 5.298-1.762 3.492-.14 6.993-.102 10.49-.055 1.637.022 3.612-.238 4.534 1.423 1 1.802-.676 3.031-1.62 4.355-3.97 5.568-5.631 11.806-5.855 18.455l1.862 1.554c1.3-1.886 2.332-4.051 3.949-5.61 6.77-6.524 16.767-6.549 22.82-.257 5.998 6.234 5.769 16.055-.512 21.973-6.567 6.185-16.019 5.684-22.702-1.208-.802-.827-1.59-1.667-2.952-2.137.855 1.233 1.71 2.466 2.792 3.95zM18.563 44.874C11.7 39.151 10.76 29.69 16.1 23.4c5.014-5.904 17.039-6.683 22.671-.994 6.236 6.297 6.366 14.297 4.804 22.418-1.485 7.72-5.364 13.57-13.344 15.858-4.125 1.183-8.247 1.024-12.196-.688-1.589-.69-3.7-1.33-2.647-3.917.9-2.211 2.61-1.492 4.23-1.15 7.996 1.69 12.481-1.362 14.232-10.064-5.058 1.402-10.028 2.619-15.286.012m3.843-16.807c-1.538 4.077-1.197 7.9 2.038 10.994 2.526 2.415 5.662 2.023 8.339.435 3.324-1.972 1.856-5.295 1.378-8.087-.573-3.35-1.758-6.616-5.541-7.55-2.894-.714-4.563 1.318-6.214 4.208zM323.983 481.55c-3.849 7.975-9.61 10.976-17.993 9.67-6.541-1.02-10.856-6.056-12.444-13.805-1.366-6.662-.347-12.937 2.487-18.906 4.121-8.682 14.908-12.463 23.323-8.434 1.703.816 3.499 1.68 2.534 4.062-.897 2.216-2.709 1.326-4.286.99-7.97-1.699-11.958.903-14.05 9.629 6.556-1.017 13.35-3.025 18.392 3.096 3.252 3.947 2.98 8.634 2.037 13.698m-9.075-7.753c-1.947-4.224-5.063-5.124-9.381-3.713-3.929 1.284-3.136 3.919-2.584 6.779 1.278 6.619 3.928 9.928 7.545 9.196 3.874-.784 5.643-5.11 4.42-12.262zM15.934 103.183c-4.181-1.9-5.8-5.015-5.092-9.059.964-5.504 5.223-6.76 10.006-6.614-.2-9.743 1.95-13.02 8.08-12.826 5.983.19 8.01 3.611 7.343 12.69 4.408.27 8.81.92 9.986 6.23.773 3.494.132 6.792-3.194 8.75-4.41 2.595-8.285.88-12.157-2.513-.834 4.262 2.388 6.954 3.146 10.516-3.688 1.35-6.967 1.267-10.483.184-.066-3.727 3.783-6.17 2.752-10.406-3.07 2.327-6.147 4.245-10.387 3.048zM300.768 428.785c.045-2.2.136-3.994.242-6.08-4.798-.36-9.192-1.396-10.196-6.933-.578-3.19.301-6.138 3.093-7.912 4.462-2.838 8.534-1.22 12.298 2.176 1.272-4.243-2.325-6.746-2.707-10.454 3.377-1.46 6.69-1.019 10.199-.279.385 3.912-3.858 6.38-2.859 10.646 4.159-2.69 8.351-5.58 13.073-1.625 2.764 2.315 3.078 5.527 2.162 8.71-1.353 4.707-5.363 5.403-9.846 5.427.283 5.273 1.459 10.98-5.469 12.714-4.805 1.202-7.51-.566-9.99-6.39z"/></svg>