<svg xmlns="http://www.w3.org/2000/svg" viewBox="0 0 340 500" xml:space="preserve"><path fill="#FEFEFE" d="M341 128v373H1V1h340v127m-181.46 15.059c2.016 2.296 3.333 5.081-.176 6.679-16.581 7.548-33.3 14.794-50.12 22.216-6.332-7.195-9.81-18.338-22.163-18.815l-3.042-16.04c5.517-.043 11.801 1.487 14.463-5.56 1.354-3.584.59-7.055-2.292-9.587-4.303-3.779-8.79-2.68-13.31.654-.605-5.07-2.497-9.276-7.58-9.41-2.887-.075-6.65 1.392-8.576 3.488-3.477 3.782-1.997 8.228 1.198 12.114-.794.176-1.267.306-1.748.384-4.698.756-7.596 3.448-7.981 8.202-.325 4.003 1.496 7.096 5.264 8.793 4.289 1.933 7.747.426 10.738-2.767 1.283-1.368 2.545-2.756 4.684-5.075l2.313 13.04c-4.057 3.527-6.673 6.281-9.752 8.346-3.277 2.199-4.643 4.81-4.464 8.73.255 5.582.223 11.186.053 16.773-.164 5.413 1.523 8.037 6.623 9.624 1.786.555 3.515 1.296 5.378 1.993-.507.909-.637 1.221-.835 1.483-.803 1.063-1.64 2.1-2.44 3.165-17.65 23.502-25.097 49.67-19.919 78.85 4.995 28.15 19.508 51.373 38.81 71.808 6.063 6.419 14.125 9.835 22.732 11.77 1.686.379 3.395.659 5.17.999-7.446 21.797-7.063 25.09 4.656 45.592.64 1.12.914 2.85.567 4.07-2.414 8.492-6.839 15.799-13.366 21.815-5.962 5.494-5.453 8.632 2.57 10.278 7.64 1.568 15.583 1.672 23.872 2.465 1.178 6.921 4.356 14.21 10.057 20.03 1.518 1.55 4.969 2.81 6.81 2.158 7.535-2.665 14.792-6.121 22.97-9.639 5.262 4.187 12.437 7.737 20.844 8.54 7.336.701 7.951-.68 6.37-7.601-2.501-10.949-4.135-22.117-5.657-33.258-.683-5.006.37-10.258-.402-15.239-1.082-6.993 1.125-12.721 4.84-18.269 4.003-5.976 3.785-6.871-2.629-10.44.98-1.466 2.223-2.787 2.793-4.353.41-1.128.429-3.307-.24-3.77-4.175-2.89-5.017-7.195-5.402-11.668-.49-5.7-2.756-8.176-8.5-8.094-3.243.047-6.476.776-9.993 1.234l-.822-5.371 52.05-23.517c6.352 7.38 10.103 18.478 22.287 19.023l3.104 16.099c-5.517-.116-11.667-1.69-14.471 5.426-1.567 3.975-.36 7.315 2.651 9.866 4.484 3.8 8.914 2.001 13.265-1.16-.273 4.961 1.64 8.253 6.031 9.597 3.594 1.101 7.01.392 9.472-2.688 3.465-4.335 2.368-8.607-.787-12.813 4.952-.91 9.49-2.748 9.324-8.172-.092-2.993-1.902-7.128-4.277-8.632-7.225-4.572-11.068 2.07-15.977 7.027l-2.615-12.812c5.02-4.294 9.21-7.523 12.904-11.243 1.158-1.166 1.323-3.646 1.358-5.535.104-5.58-.311-11.173-.096-16.745.233-6.036-1.264-8.408-7.043-10.1-1.571-.46-3.017-1.347-4.79-2.162.968-1.309 1.441-1.977 1.943-2.623 19.102-24.571 26.807-52.065 20.835-82.878-4.89-25.235-18.122-46.192-34.445-65.46-6.783-8.006-15.418-13.051-25.56-15.56-2.04-.506-4.13-.817-6.771-1.329 8.939-16.52 6.174-31.484-4.316-45.676-.694-.94-.694-2.792-.35-4.034 2.465-8.87 7.188-16.363 14.119-22.466 4.936-4.346 4.445-6.64-1.656-8.99-8.162-3.145-16.516-3.269-23.677-1.72-4.076-7.431-7.666-14.245-11.53-20.898-1.667-2.87-4.382-4.078-7.714-2.648-7.206 3.093-14.393 6.231-22.558 9.772-5.495-4.736-13.376-7.98-22.22-8.816-5.35-.505-7.245 1.76-5.162 6.66 4.729 11.121 4.788 22.978 5.735 34.685.382 4.726-.628 9.672.37 14.216 1.633 7.447-.971 13.355-4.79 19.19-3.842 5.871-3.638 6.762 2.754 10.334-.89 1.35-2.076 2.572-2.537 4.023-.413 1.3-.57 3.746.096 4.152 4.226 2.579 4.78 6.724 5.077 10.901.473 6.643 3.255 9.32 9.934 8.784 2.301-.185 4.565-.837 7.667-1.415m166.875 152.44v75.357h5.27c.072-1.629.194-3.094.194-4.559.009-116.143.009-232.287.005-348.43 0-6.423-.47-6.901-6.77-6.902-79.65-.004-159.3-.002-238.951-.002h-4.465v5.169h244.717V295.5m-315-94c0 94.156-.001 188.312.002 282.468 0 6.687.393 7.068 7.1 7.068 79.325.002 158.65.001 237.974.001h5.008v-5.198H16.863V131.267h-5.448V201.5m41.807 252.447c-3.367 8.692-1.064 16.357 6.096 20.294 6.557 3.606 14.855 1.948 19.33-3.861 4.995-6.484 4.13-14.521-2.245-21.16-1.485-1.546-2.888-3.171-4.329-4.76l.864-.907c1.261.895 2.569 1.732 3.776 2.695 6.754 5.385 15.516 4.873 21.155-1.267 5.291-5.762 5.303-14.697.026-20.472-5.415-5.926-14.705-6.465-21.178-1.103-2.497 2.07-4.768 4.41-7.588 7.045-1.007-9.9 3.073-17.504 8.505-25.228H56.08c2.312 4.272 4.809 7.821 6.204 11.761 1.417 4 1.748 8.385 2.554 12.6l-1.584.65c-2.136-2.264-4.112-4.71-6.44-6.757-6.202-5.45-15.732-4.955-21.208.924-5.55 5.96-5.36 15.571.42 21.216 5.904 5.764 14.979 5.779 21.187.026 1.362-1.262 2.7-2.55 4.049-3.827l.991.973c-2.874 3.51-5.749 7.02-9.03 11.158m197.067-400.48c-6.149 3.112-9.15 8.208-8.66 14.988.442 6.129 3.641 10.76 9.55 12.826 6.55 2.29 12.464.92 17.25-4.315 1.632-1.785 3.165-3.66 5.594-6.482 1.198 11.004-2.965 18.584-8.253 26.278h21.464c-2.306-4.266-4.793-7.819-6.199-11.758-1.43-4.01-1.797-8.399-2.63-12.622l1.972-1.04c1.89 2.276 3.579 4.767 5.715 6.783 4.67 4.407 10.29 5.292 16.2 3.088 6.074-2.264 9.217-7.032 9.491-13.39.266-6.17-2.506-10.959-8.002-13.883-5.693-3.029-11.21-2.326-16.436 1.313-1.492 1.04-3.005 2.05-4.508 3.073 1.485-3.293 3.757-5.5 5.716-7.957 4.487-5.629 4.378-13.365-.09-18.901-4.262-5.283-11.82-7.086-18.068-4.31-9.57 4.25-11.733 16.586-4.394 24.724 2.33 2.585 4.48 5.333 6.71 8.007l-1.094 1.129c-5.393-6.724-11.656-11.04-21.328-7.551M16.443 50.973c2.764 1.732 5.391 4.606 8.321 4.958 6.16.74 10.166 4.202 14.218 8.184 4.142 4.07 9.106 5.523 14.538 2.924 1.341-.642 2.033-2.641 2.456-3.228l-15.662-6.566c3.672-5.25 8.058-9.323 9.578-14.276 1.726-5.622 1.64-12.114.985-18.079-.936-8.508-6.835-13.953-14.392-14.946-10.253-1.347-18.299 1.977-21.863 9.981-4.553 10.228-4.62 20.558 1.821 31.048m314.028 426.763c.163-5.922 1-11.924.31-17.745-.783-6.605-4.486-12.467-11.339-13.726-6.679-1.227-11.36-4.593-15.958-9.046-4.094-3.965-10.005-4.6-14.264-2.067-.944.562-1.44 1.877-2.143 2.846.97.62 1.87 1.43 2.924 1.83 4.64 1.76 9.323 3.4 15.346 5.574-12.69 7.132-14.652 17.261-13.517 28.64 1.049 10.526 6.654 17.059 15.369 18.082 11.704 1.375 19.063-2.998 23.272-14.388m-34.597-72.347c-4.241 7.585-1.576 11.43 9.272 13.106-1.572 4.326-2.228 8.928 2.556 11.282 2.244 1.104 6.092 1.03 8.253-.199 4.812-2.735 3.509-7.428 1.486-12.175 4.937 1.185 9.394.89 10.902-3.815.802-2.5.196-6.72-1.51-8.513-4.828-5.075-9.418-1.313-14.426 1.526l4.05-11.057h-9.57l3.974 11.08c-5.006-2.99-9.146-6.148-14.987-1.235M31.577 106.854h5.055l-4.256-11.57.98-1.065c3.7 4.374 7.891 6.993 13.027 3.394 3.102-2.173 3.62-5.634 2.258-8.951-1.996-4.858-6.256-5.228-11.185-4.127 1.947-4.441 3.29-8.854-.893-11.587-2.197-1.436-6.237-1.889-8.6-.854-5.066 2.219-4.41 7.044-2.748 11.893-4.917-.283-9.619.188-10.683 5.369-.504 2.452.524 6.259 2.294 7.936 4.748 4.499 9.144.863 13.215-2.559l.824.92-4.075 10.992c1.405.074 2.692.141 4.787.209z"/><path fill="#262626" d="M159.13 143.128c-2.692.51-4.956 1.161-7.257 1.346-6.679.537-9.461-2.141-9.934-8.784-.297-4.177-.851-8.322-5.077-10.9-.666-.407-.509-2.852-.096-4.153.46-1.451 1.647-2.672 2.537-4.023-6.392-3.572-6.596-4.463-2.754-10.334 3.819-5.835 6.423-11.743 4.79-19.19-.998-4.544.012-9.49-.37-14.216-.947-11.707-1.006-23.564-5.735-34.685-2.083-4.9-.188-7.165 5.161-6.66 8.845.835 16.726 4.08 22.221 8.816 8.165-3.54 15.352-6.679 22.558-9.772 3.332-1.43 6.047-.222 7.714 2.648 3.864 6.653 7.454 13.467 11.53 20.897 7.161-1.548 15.515-1.424 23.677 1.72 6.101 2.351 6.592 4.645 1.656 8.99-6.931 6.104-11.654 13.596-14.118 22.467-.345 1.242-.345 3.095.349 4.034 10.49 14.192 13.255 29.155 4.316 45.676 2.641.512 4.73.823 6.772 1.328 10.141 2.51 18.776 7.555 25.559 15.561 16.323 19.268 29.555 40.225 34.445 65.46 5.972 30.813-1.733 58.307-20.835 82.878-.502.646-.975 1.314-1.943 2.623 1.773.815 3.219 1.702 4.79 2.162 5.78 1.692 7.276 4.064 7.043 10.1-.215 5.572.2 11.166.096 16.745-.035 1.89-.2 4.37-1.358 5.535-3.695 3.72-7.883 6.95-12.904 11.243l2.615 12.812c4.91-4.957 8.752-11.6 15.977-7.027 2.375 1.504 4.185 5.64 4.277 8.632.167 5.424-4.372 7.263-9.324 8.172 3.155 4.206 4.252 8.478.787 12.813-2.462 3.08-5.878 3.789-9.472 2.688-4.39-1.344-6.304-4.636-6.031-9.598-4.35 3.162-8.78 4.96-13.265 1.161-3.012-2.551-4.218-5.891-2.651-9.866 2.804-7.116 8.954-5.542 14.47-5.426l-3.103-16.099c-12.184-.545-15.935-11.643-22.287-19.023l-52.05 23.517.822 5.371c3.517-.458 6.75-1.187 9.992-1.234 5.745-.082 8.01 2.394 8.5 8.094.386 4.473 1.228 8.778 5.402 11.667.67.464.652 2.643.241 3.77-.57 1.567-1.812 2.888-2.793 4.353 6.414 3.57 6.632 4.465 2.63 10.441-3.716 5.548-5.923 11.276-4.84 18.27.77 4.98-.282 10.232.401 15.238 1.522 11.14 3.156 22.309 5.657 33.258 1.581 6.92.966 8.302-6.37 7.601-8.407-.803-15.582-4.353-20.844-8.54-8.178 3.518-15.435 6.974-22.97 9.64-1.841.65-5.292-.61-6.81-2.159-5.701-5.82-8.88-13.109-10.057-20.03-8.29-.793-16.231-.897-23.873-2.465-8.022-1.646-8.531-4.784-2.57-10.278 6.528-6.016 10.953-13.323 13.367-21.815.347-1.22.073-2.95-.567-4.07-11.72-20.502-12.102-23.795-4.657-45.592-1.774-.34-3.483-.62-5.17-1-8.606-1.934-16.668-5.35-22.73-11.77-19.303-20.434-33.816-43.658-38.81-71.806-5.179-29.18 2.268-55.349 19.918-78.85.8-1.066 1.637-2.103 2.44-3.166.198-.262.328-.574.835-1.483-1.863-.697-3.592-1.438-5.378-1.993-5.1-1.587-6.787-4.21-6.623-9.624.17-5.587.202-11.191-.053-16.772-.18-3.921 1.187-6.532 4.464-8.73 3.079-2.066 5.695-4.82 9.752-8.347l-2.313-13.04c-2.139 2.32-3.401 3.707-4.684 5.075-2.991 3.193-6.45 4.7-10.738 2.767-3.768-1.697-5.589-4.79-5.264-8.793.385-4.754 3.283-7.446 7.98-8.202.482-.078.955-.208 1.749-.384-3.195-3.886-4.675-8.332-1.198-12.114 1.927-2.096 5.689-3.563 8.576-3.487 5.083.133 6.975 4.339 7.58 9.41 4.52-3.336 9.007-4.434 13.31-.655 2.882 2.532 3.646 6.003 2.292 9.588-2.662 7.046-8.946 5.516-14.463 5.56l3.042 16.039c12.354.477 15.83 11.62 22.162 18.815 16.822-7.422 33.54-14.668 50.121-22.216 3.509-1.598 2.192-4.383-.235-6.61m-4.524 204.878c.156-.325.311-.649.398-1.006 0 0 .055.053.721-.085 2.288-3.356 4.708-6.634 6.797-10.11.81-1.348 1.391-3.478-2.543-2.925-1.966-.298-4.062-.259-5.874-.958-4.92-1.898-7.036 1.154-9.353 4.564-4.772 7.024-4.78 14.434-2.999 22.405 1.093 4.89 1.358 10.055 1.307 15.09-.097 9.413-1.506 18.877-.855 28.215.648 9.293 4.518 17.554 13.987 21.66 0 0-.097 0 .077.676.426.154.853.309 1.669.867l2.336 1.287c-8.3-11.844-7.943-24.637-5.41-37.838.92-4.795-.14-9.183-2.4-13.808-2.444-5.005-3.766-10.866-4.146-16.45-.217-3.2 2.413-6.594 3.902-10.056 0 0-.103-.184.589-.19.416-.43.832-.858 1.194-1.342 0 0 .035.07.603.004m12.047 36.395c-5.096-6.445-7.984-13.337-4.499-21.59.215-.51-.13-1.254.08-2.49 3.162-2.517 6.318-5.042 9.489-7.548 2.747-2.172 5.512-4.322 8.988-6.733 4.41-4.704 3.75-10.149 2.097-15.63-.14-.463-1.847-.452-3.581-.521-2.652.945-5.402 1.69-7.913 2.92-1.273.624-2.339 1.988-3.115 3.252-2.987 4.868-5.18 10.38-8.84 14.647-7.937 9.253-8.314 16.184.075 26.101.2.504.4 1.007.534 2.404-.185 5.093.207 10.285-.653 15.261-4.03 23.304 7.23 38.472 29.234 38.506 2.704.004 5.411-1.739 8.117-2.672l-.11-2.131c-1.671-.721-3.282-1.691-5.026-2.119-7.489-1.837-16.078.344-22.363-7.01.121-7.033.02-14.08.442-21.096.28-4.65 1.552-9.305-2.956-13.55m7.318-302.373s-.076.01-.662.674c.72 3.626 2.047 7.26 2.002 10.875-.055 4.385-1.339 8.745-1.961 13.135-.57 4.02-.432 7.876 3.648 10.3 0 0-.045.06-.061.769 7.687 11.152 7.747 15.212.447 26.72-.24.38-.172.955-.914 1.64-3.623 2.335-7.247 4.67-11.464 7.198-5.26 4.073-7.463 12.546-4.538 18.167.306.59 1.82.552 3.513.643 2.824-.962 5.683-1.838 8.453-2.936.941-.373 2.28-1.224 2.384-1.997.97-7.244 5.644-12.114 10.261-17.192 6.986-7.682 6.587-15.936-.86-24.072-.314-.792-.627-1.584-.96-3.38.409-6.754.443-13.557 1.3-20.254 2.305-18.05-8.69-34.173-30.892-33.3-2.384.094-4.696 2.003-7.042 3.07l.13 2.455c2.567.793 5.104 1.702 7.706 2.356 5.777 1.451 11.587 2.774 17.688 4.837.606.123 1.212.246 1.822.292m12.988-5.559c-.917.151-1.834.302-2.854 1.166 1.643 3.752 4.405 7.42 4.694 11.275.59 7.836-.386 15.776-.255 23.666.065 3.98.173 8.45 1.942 11.816 4.522 8.612 7.105 16.952 1.447 26.59-1.651 1.953-3.303 3.906-5.637 6.022-1.91 2.968-3.867 5.91-5.62 8.967-.11.19 1.374 1.295 2.94 2.115 2.244.528 4.468 1.314 6.74 1.498 1.647.133 4.052.07 4.928-.94 5.502-6.34 9.432-13.489 7.012-22.249-2.382-8.625-2.631-17.134-1.541-26.032.956-7.804 1.078-15.932.014-23.704-1.16-8.48-4.88-16.161-13.786-19.66 0 0-.006.055-.024-.53m-52.124 334.14c.423.5.846.999 1.69 1.963l1.567.751-.195-3.904c-.396-7.876-1.49-15.795-1.01-23.618.594-9.708 2.458-19.224-.982-28.885-2.122-5.96-.667-12.083 1.898-17.85.582-1.308.796-2.78 1.66-4.696l3.113-4.776c-6.042-1.45-10.472-.48-13.68 3.998-3.165 4.42-2.837 9.072-.335 13.586 3.466 6.254 2.793 12.31-.017 18.576-1.957 4.364-3.723 8.865-5.03 13.459-2.502 8.793 2.503 24.146 11.504 30.792 0 0 .015-.04-.183.605m69.199-243.648-3.835 6.95c6.247-.106 10.906-1.095 14.233-5.506 3.172-4.206 3.293-8.69.644-13.065-3.966-6.548-3.274-12.938-.053-19.444 1.032-2.083 1.882-4.256 2.793-6.398 5.563-13.069 1.538-27.779-10.724-39.673l-2.324-2.108c3.145 10.246 2.67 20.15 1.688 30.115-.585 5.937-2.585 12.365-1.05 17.745 3.04 10.657 3.622 20.647-1.372 31.384M131.32 420.772l-12.55 20.977c5.362 1.18 10.85 2.614 16.992.502 7.271-2.5 8.505-.926 10.714 6.603 1.51 5.147 4.166 10.018 6.761 14.765 2.009 3.674 4.868 3.498 8.39.44 6.423-.322 10.625-4.327 15.343-9.003 2.219.66 4.543 1.085 6.635 2.026 4.736 2.132 9.357 4.52 14.663 7.11l3.676.712-4.947-26.962a38.51 38.51 0 0 1-4.652.283c-12.425.373-24.78.28-36.566-6.014l-23.573-14.272c-.11.662-.24 1.461-.886 2.833m51.879-383.816c-6.75 1.015-11.85 4.757-16.976 10.02-2.198-.682-4.496-1.144-6.572-2.092-4.678-2.134-9.246-4.508-14.542-7.08-1.355-.269-2.71-.536-3.642-.72l4.685 26.96a39.163 39.163 0 0 1 4.645-.267c13.966-.851 27.313 1.867 40.147 7.746l19.994 12.717c.17-.593.396-1.378.983-2.728l12.532-21.268c-5.237-1.347-10.832-2.609-16.905-.61-7.295 2.401-8.665.858-10.767-6.671-1.444-5.17-4.386-9.937-6.804-14.812-1.451-2.924-3.613-3.056-6.778-1.195M85.736 290.558c5.773-5.638 11.358-11.492 17.425-16.795 2.01-1.756 2.762-3.065 2.714-5.687-.094-5.094-.244-10.343.813-15.275 3.132-14.621 12.12-25.388 24.324-33.419 7.585-4.99 15.7-9.177 24.134-14.046-9.14-5.61-18.02-11.06-27.344-17.163-1.485.28-3.209.168-4.414.906-4.67 2.857-9.398 5.699-13.705 9.06-19.638 15.324-32.091 34.844-33.765 60.208-.902 13.661 2.328 29.966 6.93 37.654.847-1.775 1.623-3.398 2.888-5.443M215.4 313.813c1.515-.265 3.25-.145 4.502-.867 3.885-2.237 7.755-4.57 11.33-7.264 25.414-19.16 39.364-43.842 35.651-76.478-.895-7.87-3.368-15.56-5.115-23.334l-1.462.237c-.787 1.802-1.575 3.603-2.925 5.841-5.855 5.55-11.785 11.025-17.504 16.713-1.126 1.12-2.136 3.113-2.017 4.61.899 11.317-1.426 21.757-7.598 31.333-6.76 10.487-16.23 17.885-27.018 23.757-4.91 2.673-9.942 5.124-15.516 7.982 9.5 5.868 18.378 11.354 27.672 17.47m-93.951 45.32c3.883 1.117 4.98-.944 4.22-4.171-.6-2.543-1.858-4.944-2.934-7.36-2.75-6.172-2.082-12.04 1.923-17.34 1.75-2.314 4.213-4.088 7.188-6.185 6.336-1.884 12.138-.474 18.229 1.823 4.74 1.787 10.238 2.652 15.271 2.267 4.83-.37 9.72-2.415 14.169-4.578 4.294-2.087 6.06-.136 7.8 3.724.574.193 1.29.71 1.702.53 7.383-3.214 14.73-6.513 22.78-10.103-21.715-13.698-42.56-26.963-63.573-39.956-2.63-1.627-6.15-1.815-9.933-3.088-2.169-.661-4.296-1.656-6.513-1.933-22.863-2.85-44.504 14.478-47.59 37.997-3.01 22.932 13.85 45.11 37.26 48.373m82.289-131.924c1.821.613 3.6 1.495 5.471 1.796 23.45 3.77 46.085-12.779 49.684-36.247 3.642-23.747-12.563-46.006-36.92-49.831-3.73-1.118-4.897.571-4.27 4.012.233 1.281.678 2.55 1.198 3.75 5.754 13.282 3.967 19.612-8.29 28.028-5.89.79-11.331-.424-16.953-2.453-4.841-1.748-10.367-2.638-15.482-2.294-4.852.326-9.789 2.267-14.27 4.382-4.226 1.995-6.12.202-7.95-3.646-.374-.235-.874-.761-1.104-.662-7.58 3.253-15.135 6.565-23.384 10.171 21.622 13.645 42.397 26.836 63.295 39.83 2.406 1.496 5.493 1.895 8.975 3.164m-33.395 47.773c14.976-7.566 24.995-19.077 28.382-35.812.83-4.097 1.057-7.817-4.374-9.295-2.48-.674-4.49-2.981-6.96-3.82-2.629-.892-5.877-1.943-8.291-1.168-17.415 5.592-28.904 17.298-33.832 34.986-2.43 8.721-2.136 8.8 5.736 13.208.726.406 1.505.776 2.112 1.326 5.286 4.788 10.837 4.009 17.227.575M70.038 307.384l8.05 14.99c.75-3.68.255-7.07.859-10.252 1.07-5.646-.362-10.602-2.255-15.834-14.754-40.787-2.77-80.054 33.049-104.514 12.652-8.64 27.148-14.575 40.768-21.81 1.338-.712 3.224-1.709 3.483-2.877.646-2.917.502-6.009.743-10.222-15.098 7.362-29.887 13.511-43.63 21.466-47.707 27.614-63.903 78.726-41.067 129.053m152.554 21.676c9.424-6.193 19.759-11.358 28.114-18.757 35.795-31.698 44.665-81.163 16.21-127.62-.478-.781-1.486-1.237-2.343-1.921 0 3.625.435 6.767-.101 9.735-.827 4.578-.288 8.67 1.387 13.05 6.217 16.255 9.112 33.04 5.66 50.368-4.862 24.41-18.08 43.597-38.789 56.943-13.728 8.848-28.611 15.905-43.805 24.215v9.44c11.31-5.187 22.153-10.159 33.667-15.453m-63.047-100.051 16.88-10.03c-4.234-2.682-8.663-5.586-13.211-8.289-.997-.592-2.657-1.005-3.612-.588-14.82 6.482-29.39 13.466-39.593 26.71-7.347 9.536-10.466 20.33-8.744 31.676 9.312-.47 18.172-.919 27.418-1.387 1.17-14.967 8.13-27.71 20.862-38.092m56.756 43.808c11.663-10.82 17.909-23.731 15.66-39.34l-27.273 1.445c-2.577 23.477-16.101 38.808-38.365 47.668 4.837 3.11 9.364 6.176 14.073 8.932 1.042.609 3.028.647 4.067.053 10.49-5.996 20.872-12.179 31.838-18.758m-18.792 101.61c-.504-2.42-1.465-4.85-1.409-7.257.087-3.738-1.822-5.29-4.822-4.173a217.733 217.733 0 0 0-20.3 8.781c-4.015 1.98-4.146 5.287-.915 8.357 5.81 5.52 5.713 12.364 4.595 19.46-.36 2.293-.993 4.542-1.398 6.83-1.494 8.458 1.158 12.244 9.728 13.303 4.52.559 9.112.526 13.672.76l.532-1.18c-1.562-.767-3.055-1.786-4.704-2.243-2.866-.796-5.966-.898-8.693-1.982-1.375-.547-2.149-2.609-3.195-3.986 1.575-.307 3.199-1.024 4.714-.84 3.515.428 6.978 1.29 9.234 1.734l7.45-20.71c-.352-.129-1.244-.457-2.138-.778-4.674-1.68-4.678-1.987-1.322-5.96.86-1.019 1.078-2.58 1.443-3.512-1.993-1.038-3.643-1.664-4.893-2.75-.244-.213 1.07-2.216 2.421-3.854m-50.35-241.802c.079 3.255-.762 7.288 4.722 6.481 9.487-1.395 17.728-5.217 24.212-12.663-.867-1.494-1.37-3.026-2.396-4.02-6.11-5.924-6.658-13.015-4.83-20.775.685-2.902 1.102-5.886 1.402-8.857.558-5.54-1.427-8.76-6.857-9.768-5.408-1.005-10.972-1.172-16.467-1.707l-.544 1.551c1.523.719 2.982 1.672 4.581 2.102 2.718.732 5.659.79 8.24 1.806 1.497.588 2.476 2.494 3.688 3.808-1.693.41-3.437 1.305-5.068 1.132-3.515-.374-6.973-1.296-9.155-1.733l-7.34 20.781c6.285 2.07 6.243 2.043 2.8 7.499-.55.871-.523 2.105-.747 3.103 2.231 1.203 7.772.324 4.337 4.59-2.063 2.561-.682 3.907-.578 6.67m118.887 199.47c-1.328.072-2.717.42-3.966.141-1.402-.314-2.676-1.195-4.006-1.83 1.174-1.1 2.208-2.877 3.552-3.154 2.486-.513 5.152-.147 7.744-.147l.024-1.244c-2.81 0-5.652.24-8.415-.12-1.071-.14-1.965-1.64-2.94-2.521.882-.738 1.66-1.865 2.668-2.137 2.534-.684 5.172-.982 7.768-1.434-2.391-.67-4.72-.486-6.998-.75-1.113-.128-2.13-1.091-3.19-1.677.737-1.1 1.235-2.714 2.26-3.185 1.834-.843 3.984-.998 5.86-1.409l-5.522-3.558-22.383 17.855c2.81 3.784 5.427 7.643 8.39 11.216 4.54 5.478 9.722 6.698 17.373 4.16-1.653-.87-2.954-2.16-4.212-2.12-7.524.242-8.113-5.56-9.372-10.614-.249-.998.95-2.357 1.481-3.549 1.077.526 3.038.972 3.094 1.59.545 6.026 5.085 7.156 9.63 8.895 2.376.909 4.347 2.265 5.71-.533.26-.535-2.395-2.49-4.55-3.874M92.103 170.443l-.482 5.32-5.915-3.467c-2.198 5.237-8.095 1.372-12.126 3.626 2.437.444 4.878.215 7.247.526 1.512.2 2.919 1.199 4.372 1.839-1.295 1.135-2.425 2.832-3.924 3.273-2.162.635-4.592.36-6.907.473 2.159 1.058 4.32.794 6.377 1.146 1.504.257 2.87 1.323 4.297 2.029-1.381 1.04-2.638 2.652-4.173 2.988-2.33.51-4.854.133-8.015.133l9.87 4.368 21.952-17.458c-10.596-16.062-13.27-18.739-25.542-15.465 4.68 3.166 12.638 1.792 12.969 10.67m80.881-28.99 4.363-6.783c-3.272.999-5.478 2.864-8.015 3.972-3.442 1.504-4.358 3.534-2.453 7.313 1.932-1.382 3.762-2.692 6.105-4.502m-94.786 24.054c-1.597-.191-3.21-.574-4.783-.449-.439.035-1.201 2.224-1.064 2.317 1.428.97 2.938 2.162 4.565 2.422 3.048.488 6.188.4 9.511.563-.207-4.61-5.256-2.565-8.229-4.853m-8.973-31.049-5.736 3.415c.93 1.223 2.485 3.604 2.693 3.491 2.761-1.49 5.333-3.332 7.952-5.085l-.756-1.155c-1.143-.175-2.287-.35-4.153-.666m207.3 225.776-7.072 5.691 1.209 2.24 9.036-3.002c-.826-1.572-1.652-3.145-3.174-4.929m-98.99-.615-1.349-4.782-10.73 12.284 1.203 1.113c3.66-2.633 7.32-5.265 10.876-8.615m92.192 16.06-3.63-2.311c0 3.155-.541 5.62.198 7.606.465 1.251 2.85 1.788 4.375 2.644.67-1.631 1.665-3.225 1.862-4.911.088-.752-1.43-1.692-2.805-3.028M93.294 129.998l-2.38-4.994c-2.51 1.667-5.017 3.335-7.526 5.002l.927 2.254c2.847-.534 5.695-1.068 8.979-2.262m157.11 245.77c4.24 2.066 6.473.757 8.83-5.175-7.81-1.407-9.228-.723-8.83 5.176M73.725 118.094c-1.166 1.33-3.565 3.429-3.295 3.862 1.494 2.394 3.639 4.382 5.56 6.51l2.149-1.31c-1.21-2.998-2.419-5.998-4.414-9.062z"/><path fill="#313131" d="M326.415 295V16.132H81.698v-5.17h4.465c79.65 0 159.301 0 238.952.003 6.3 0 6.769.48 6.77 6.902.003 116.143.003 232.287-.006 348.43 0 1.465-.122 2.93-.194 4.56h-5.27V295zM11.415 201v-69.733h5.448V485.84H261.5v5.198H18.518c-6.708 0-7.1-.382-7.1-7.069-.004-94.156-.003-188.312-.003-282.968z"/><path fill="currentColor" d="M53.425 453.633c3.078-3.823 5.953-7.334 8.827-10.844l-.991-.973c-1.35 1.277-2.687 2.565-4.05 3.827-6.207 5.753-15.282 5.738-21.185-.026-5.781-5.645-5.972-15.256-.42-21.216 5.475-5.879 15.005-6.375 21.207-.924 2.328 2.046 4.304 4.493 6.44 6.757l1.584-.65c-.806-4.215-1.137-8.6-2.554-12.6-1.395-3.94-3.892-7.49-6.204-11.76h21.555c-5.432 7.723-9.512 15.328-8.505 25.227 2.82-2.634 5.091-4.976 7.588-7.045 6.473-5.362 15.763-4.823 21.178 1.103 5.277 5.775 5.265 14.71-.026 20.472-5.64 6.14-14.401 6.652-21.155 1.267-1.207-.963-2.515-1.8-3.776-2.695l-.864.907c1.44 1.589 2.844 3.214 4.329 4.76 6.375 6.639 7.24 14.676 2.245 21.16-4.475 5.81-12.773 7.467-19.33 3.861-7.16-3.937-9.463-11.602-5.893-20.608zM250.646 53.3c9.315-3.323 15.578.994 20.971 7.718l1.095-1.13c-2.232-2.673-4.38-5.421-6.71-8.006-7.34-8.138-5.177-20.474 4.393-24.724 6.249-2.776 13.806-.973 18.069 4.31 4.467 5.536 4.576 13.272.089 18.9-1.96 2.458-4.231 4.665-5.716 7.958 1.503-1.024 3.016-2.034 4.508-3.073 5.226-3.64 10.743-4.342 16.436-1.313 5.496 2.924 8.268 7.712 8.002 13.883-.274 6.358-3.417 11.126-9.49 13.39-5.91 2.204-11.53 1.319-16.201-3.088-2.136-2.016-3.824-4.507-5.715-6.783l-1.971 1.04c.832 4.223 1.198 8.612 2.629 12.622 1.406 3.939 3.893 7.492 6.199 11.758H265.77c5.288-7.694 9.451-15.274 8.253-26.278-2.429 2.822-3.962 4.697-5.594 6.482-4.786 5.235-10.7 6.604-17.25 4.315-5.909-2.065-9.108-6.697-9.55-12.826-.49-6.78 2.511-11.876 9.017-15.155zM16.226 50.678c-6.223-10.195-6.157-20.525-1.604-30.753 3.564-8.004 11.61-11.328 21.863-9.98 7.557.992 13.456 6.437 14.392 14.945.656 5.965.741 12.457-.985 18.08-1.52 4.952-5.906 9.025-9.578 14.275l15.662 6.566c-.423.587-1.115 2.586-2.456 3.228-5.432 2.599-10.396 1.145-14.538-2.924-4.052-3.982-8.058-7.445-14.218-8.184-2.93-.352-5.557-3.226-8.538-5.253m25.56-7.875c1.378-7.63 1.636-15.26-1.07-22.641-1.321-3.607-3.902-6.065-8.154-6.332-4.365-.273-7.744 1.472-9.295 5.325-3.74 9.289-3.743 18.813-.138 28.167 1.354 3.51 4.425 6.094 8.146 5.285 3.067-.668 5.884-2.976 8.501-4.965 1.023-.777 1.198-2.669 2.01-4.839zM330.317 478.108c-4.055 11.018-11.414 15.391-23.118 14.016-8.715-1.023-14.32-7.556-15.37-18.082-1.134-11.379.828-21.508 13.518-28.64-6.023-2.173-10.707-3.815-15.346-5.575-1.054-.4-1.953-1.209-2.924-1.83.703-.968 1.199-2.283 2.143-2.845 4.26-2.532 10.17-1.898 14.264 2.067 4.599 4.453 9.28 7.82 15.958 9.046 6.853 1.259 10.556 7.12 11.339 13.726.69 5.821-.147 11.823-.464 18.117m-22.506-28.088c-1.909 2.416-4.683 4.555-5.56 7.3-2.42 7.572-2.288 15.448-.134 23.111 1.242 4.417 3.882 7.672 9.139 7.74 5.386.07 8.301-2.96 9.762-7.649 2.44-7.827 2.444-15.768.084-23.597-1.95-6.467-5.823-8.522-13.29-6.905zM296.133 405.087c5.582-4.611 9.722-1.453 14.728 1.537l-3.974-11.08h9.57l-4.05 11.057c5.008-2.839 9.598-6.601 14.426-1.526 1.706 1.793 2.312 6.013 1.51 8.513-1.508 4.704-5.965 5-10.902 3.815 2.023 4.747 3.326 9.44-1.486 12.175-2.161 1.229-6.009 1.303-8.253.199-4.784-2.354-4.128-6.956-2.556-11.282-10.848-1.675-13.513-5.521-9.013-13.408zM31.173 106.854c-1.69-.068-2.978-.135-4.383-.209l4.075-10.992-.824-.92c-4.071 3.422-8.467 7.058-13.215 2.559-1.77-1.677-2.798-5.484-2.294-7.936 1.064-5.18 5.766-5.652 10.683-5.369-1.663-4.849-2.318-9.674 2.749-11.893 2.362-1.035 6.402-.582 8.6.854 4.183 2.733 2.84 7.146.892 11.587 4.93-1.101 9.189-.73 11.185 4.127 1.363 3.317.844 6.778-2.258 8.951-5.136 3.599-9.326.98-13.028-3.394l-.979 1.065 4.256 11.57h-5.459z"/><path fill="#F8CA1B" d="M222.763 143.132c23.566 3.62 39.771 25.88 36.13 49.626-3.6 23.468-26.236 40.017-49.685 36.247-1.872-.3-3.65-1.183-5.952-2.29-22.4-14.287-44.32-28.079-67.114-42.421l19.832-8.927c1.811 3.187 3.705 4.98 7.93 2.985 4.482-2.115 9.42-4.056 14.271-4.382 5.115-.344 10.64.546 15.482 2.294 5.622 2.03 11.062 3.243 17.609 2.122 12.5-1.423 18.759-13.398 13.811-24.909-1.37-3.19-1.575-6.883-2.314-10.345m24.723 26.372 5.624-1.165c-3.655-4-6.198-7.066-9.096-9.748-.697-.645-2.573-.016-4.57-.39-3.448-3.038-4.212-.005-5.419 2.048l9.363 10.37c1.257-.563 2.444-1.094 4.098-1.115M168.674 195.8c3.259 2.25 3.659-.363 4.7-2.697-3.476-2.228-6.69-4.443-10.081-6.346-.788-.442-2.173.178-3.932.136l-3.408-1.828-2.5 4.531c3.643 2.312 6.989 4.666 10.578 6.558.945.498 2.642-.43 4.643-.354m80.786 6.709c2 1.57 3.395.867 4.108-1.296 1.262-3.833 2.37-7.717 3.731-12.201-2.395 0-3.846 0-6.005-.175-1.909.072-4.265-1.42-5.002 2.067-.774 3.66-2.053 7.213-3.165 10.993 1.823 1.449 3.613 3.548 6.333.612m-51.264 11.883c3.655 2.787 3.635-.57 4.78-2.55-3.606-2.308-6.847-4.515-10.246-6.443-.662-.376-1.94.334-3.587.399l-3.618-1.981-2.529 4.49c3.648 2.333 6.89 4.684 10.413 6.487 1.019.522 2.842-.526 4.787-.402m26.725 7.61 8.486-3.986-4.1-3.555-13.424 3.2.215 4.344c3.013 0 5.479 0 8.823-.003zM187.251 326.71c-1.676-3.257-3.442-5.208-7.736-3.12-4.449 2.162-9.34 4.207-14.169 4.577-5.033.385-10.53-.48-15.271-2.267-6.091-2.297-11.893-3.707-19.026-1.862-11.9 2.343-17.431 13.178-13.166 23.553 1.46 3.553 1.947 7.506 2.878 11.276-22.722-2.997-39.583-25.175-36.573-48.107 3.086-23.519 24.727-40.847 47.59-37.997 2.217.277 4.344 1.272 7.027 2.44 3.016 1.787 5.629 2.89 8.001 4.378 11.964 7.498 23.866 15.095 35.788 22.659 7.834 4.97 15.666 9.943 24.415 15.496l-19.758 8.975m-91.459 5.724-5.629 1.186c3.65 4.02 6.252 7.146 9.192 9.913.633.595 2.49-.112 4.468.17 3.388 3.22 4.203.236 5.357-1.939l-9.14-10.362c-1.16.491-2.52 1.066-4.248 1.032m78.926-26.176c-3.2-2.358-3.702.288-4.843 2.625 3.598 2.288 6.987 4.561 10.523 6.579.62.354 1.854-.368 3.445-.455l3.59 1.803 2.442-4.415c-3.642-2.308-6.859-4.618-10.349-6.39-1.028-.521-2.829.479-4.808.253m-82.897 6.778 4.226.349c1.447-4.524 2.79-8.722 4.216-13.174-1.754-1.095-3.366-4.186-6.134-.514-1.298.05-3.55-.281-3.745.208-1.605 4.028-2.827 8.209-4.373 12.984 2.546 0 3.824 0 5.81.147m53.38-25.336c-3.71-3.069-3.587.393-4.684 2.58 3.147 2.001 5.942 4 8.955 5.585 1.173.618 2.836.305 4.952.522l3.28 1.814 2.697-4.486c-3.786-2.4-7.176-4.772-10.807-6.688-.867-.458-2.539.609-4.393.673m-31.978-.79c4.688-.703 9.377-1.408 14.09-2.116v-5.255c-4.247.556-8.109 1.06-12.774 1.382l-7.218 2.189c.535 4.164 2.475 4.728 5.902 3.8z"/><path fill="#C83213" d="m214.984 313.182-27.256-16.84c5.574-2.857 10.605-5.308 15.516-7.981 10.788-5.872 20.257-13.27 27.018-23.757 6.172-9.576 8.497-20.016 7.598-31.333-.12-1.497.89-3.49 2.017-4.61a310.77 310.77 0 0 1 18.022-16.579c5.17 15.341 6.55 30.723 2.466 46.26-6.64 25.258-23.588 42.075-45.38 54.84zM128.246 188.827l26.9 16.509c-8.434 4.87-16.55 9.055-24.134 14.046-12.205 8.031-21.192 18.798-24.324 33.42-1.057 4.93-.907 10.18-.813 15.274.048 2.622-.704 3.93-2.714 5.687-6.067 5.303-11.652 11.157-17.769 16.62-7.047-22.794-6.773-44.835 5.335-65.8 8.993-15.572 22.18-26.81 37.52-35.756z"/><path fill="#234BC0" d="M169.99 275.126c-6.038 3.29-11.589 4.07-16.875-.72-.607-.55-1.386-.92-2.112-1.325-7.872-4.408-8.166-4.487-5.736-13.208 4.928-17.688 16.417-29.394 33.832-34.986 2.414-.775 5.662.276 8.291 1.168 2.47.839 4.48 3.146 6.96 3.82 5.43 1.478 5.203 5.198 4.374 9.295-3.387 16.735-13.406 28.246-28.734 35.956z"/><path fill="#F4F4F4" d="M69.9 307.033c-22.698-49.976-6.502-101.088 41.205-128.702 13.743-7.955 28.532-14.104 43.63-21.466-.241 4.213-.097 7.305-.743 10.222-.259 1.168-2.145 2.165-3.483 2.876-13.62 7.236-28.116 13.17-40.768 21.81-35.818 24.461-47.803 63.728-33.049 104.515 1.893 5.232 3.325 10.188 2.255 15.834-.604 3.182-.11 6.572-.859 10.252a2376.206 2376.206 0 0 1-8.188-15.34m-3.662-35.579 2.362-5.565-6.056.416-1.073 1.335c1.33 1.324 2.66 2.648 4.767 3.814m48.502-91.246 2.245 3.672 4.343-2.754-2.722-4.57c-1.583 1.117-2.867 2.024-3.866 3.652M66.403 281.763l-2.3 5.947 5.97-1.515.96-1.405c-1.3-1.089-2.6-2.178-4.63-3.027m2.932-40.722 3.122-4.534-5.303-1.659c-1.046 2.552-3.019 4.972 2.181 6.193m2.79-15.617 3.589 1.692 2.25-4.807-4.92-2.163c-.589 1.888-1.05 3.364-.918 5.278M84.16 208.2c-3.753-2.874-3.43 1.372-5.457 2.577l5.43 3.962c.257-2.593.43-4.335.027-6.539m19.45-16.538 4.955-2.006-3.196-4.581c-2.54 1.563-5.712 2.563-1.759 6.587m44.156-27.235-5.729.485 2.613 5.236c2.39-1.16 5.822-1.143 3.116-5.72m-76.195 137.64 3.958-1.903-2.185-4.58-4.757 2.24c.853 1.582 1.528 2.835 2.984 4.243m57.701-130.855.475 5.731 5.262-2.673c-1.201-2.263-1.154-5.756-5.737-3.058m-39.154 28.549 2.747 2.5 3.991-3.398-4.629-4.122c-.998 1.698-1.775 3.019-2.11 5.02m-24.56 56.224 4.144-4.772-7.471-.726c1.038 2.32 1.73 3.866 3.328 5.498z"/><path fill="#F5F5F5" d="M222.256 329.22c-11.178 5.134-22.02 10.106-33.331 15.293v-9.44c15.194-8.31 30.077-15.367 43.805-24.215 20.709-13.346 33.927-32.533 38.79-56.943 3.45-17.329.556-34.113-5.66-50.368-1.676-4.38-2.215-8.471-1.388-13.05.536-2.968.1-6.11.1-9.735.858.684 1.866 1.14 2.344 1.92 28.455 46.458 19.585 95.923-16.21 127.621-8.355 7.4-18.69 12.564-28.45 18.918m-9.748-3.53-4.255 1.868 2.2 4.867 4.81-2.315c-.8-1.552-1.444-2.801-2.755-4.42m68.368-93.652-4.467-1.237-1.25 6.254c2.791-1.932 6.499.616 5.717-5.017M275 250.127l4.97 1.799.76-5.423c-3.002-.644-5.801-1.666-5.73 3.624m-2.64 11.945c-1.716 4.156.838 4.614 4.203 4.816l1.334-5.12c-2.06-.16-3.591-.279-5.538.304m-45.037 61.79.436-6.428-5.63 3.26-.41 1.586c1.643.63 3.285 1.258 5.604 1.582M268.71 203.9c1.718 4.56 3.634.869 6.036.43l-2.824-5.68c-1.56 1.974-2.583 3.267-3.212 5.25m6.972 11.172c-4.854 1.036-2.134 3.559-1.342 6.01l5.565-1.888c-1.413-1.744-2.42-2.987-4.223-4.122m-76.275 122.32.392-6.036-5.415 2.531c.714 2.602.688 5.42 5.023 3.505m41.671-22.488-1.26-5.81-4.883 3.821c1.776 1.632 2.033 5.537 6.143 1.989m9.474-14.918-3.673 3.27 3.502 4.016 3.713-3.996c-1.085-1.161-1.977-2.115-3.542-3.29m15.457-22.026 3.834 4.685 2.337-5.52-.921-1.622c-1.646.573-3.292 1.145-5.25 2.457m-7.648 12.36 2.13 6.313 4.799-6.888c-2.986 0-4.717 0-6.929.576z"/><path fill="#F7C91B" d="M145.792 38.1c4.613 2.276 9.18 4.65 13.859 6.784 2.076.948 4.374 1.41 7.354 2.069 2.157-.306 3.79-.21 4.861-.94 4.13-2.808 8.08-5.88 12.097-8.854 2.401-2.064 4.563-1.932 6.014.992 2.418 4.875 5.36 9.642 6.804 14.812 2.102 7.529 3.472 9.072 10.767 6.671 6.073-1.999 11.668-.737 16.905.61-4.237 7.19-8.385 14.23-12.96 21.282-6.62-4.475-12.337-9.848-20.455-10.757-12.928-5.125-26.275-7.843-40.64-7.504-1.802-8.73-3.204-16.948-4.606-25.166z"/><path fill="#FAFAFA" d="M159.265 229.232c-12.451 10.159-19.412 22.902-20.582 37.87l-27.418 1.386c-1.722-11.346 1.397-22.14 8.744-31.676 10.203-13.244 24.773-20.228 39.593-26.71.955-.417 2.615-.004 3.612.588 4.548 2.703 8.977 5.607 13.212 8.289a2748.817 2748.817 0 0 0-17.161 10.253m-31.925 33.595.897-5.023-4.89-.513c-1.639 3.854-1.08 6.004 3.993 5.536m3.981-18.153-3.319-1.306-2.153 4.45 5.085 2.684c.407-2.104.734-3.797.387-5.828m4.147-11.781c-3.591 3.387.358 3.945 2.017 5.808l3.912-4.66c-2.217-.703-3.819-1.212-5.93-1.148m12.838-10.612-4.373 2.728 3.254 4.352 4.109-3.133c-.928-1.378-1.657-2.462-2.99-3.947m13.94-1.747-.583-5.764-5.071 2.677c1.165 2.125.753 5.979 5.653 3.087z"/><path fill="#F7C91B" d="M160.788 463.994c-2.683 3.123-5.542 3.3-7.55-.375-2.596-4.747-5.252-9.618-6.762-14.765-2.209-7.53-3.443-9.104-10.714-6.603-6.143 2.112-11.63.678-16.992-.502 4.23-7.072 8.39-14.024 13.09-20.997 2.538 1.405 4.384 3.144 6.561 4.194 5.794 2.793 11.73 5.29 17.61 7.905 11.534 5.653 23.89 5.747 36.716 5.88 1.896 8.722 3.39 16.938 4.883 25.153-4.668-2.283-9.289-4.67-14.025-6.802-2.092-.941-4.416-1.366-7.41-2.038-2.147.333-3.752.339-4.847 1.088-3.62 2.476-7.054 5.22-10.56 7.862z"/><path fill="#FAFAFA" d="M216.024 273.041c-10.689 6.355-21.072 12.538-31.56 18.534-1.04.594-3.026.556-4.068-.053-4.709-2.756-9.236-5.822-14.073-8.932 22.264-8.86 35.788-24.191 38.365-47.668l27.273-1.444c2.249 15.608-3.997 28.519-15.937 39.563m4.864-30.752c.517-4.41-2.621-3.016-5.195-3.194l-.778 6.133c2.534-.929 4.188-1.535 5.973-2.939m-28.167 32.753 1.864 5.358 4.688-3.502-2.941-4.188c-1.151.744-2.085 1.349-3.61 2.332m23.45-18.129c2.633-4.395-1.608-3.618-3.56-5.166l-2.407 5.921c2.406 0 4.02 0 5.966-.755m-9.62 13.425 3.409-3.67-4.175-3.338-3.282 4.039c1.315 1.093 2.307 1.918 4.049 2.969m-22.903 9.864-3.84 2.27 2.595 4.385 4.719-2.516c-1.044-1.627-1.9-2.96-3.474-4.14zM197.132 374.657c-.973 1.408-2.288 3.411-2.044 3.623 1.25 1.087 2.9 1.713 4.893 2.75-.365.933-.582 2.494-1.443 3.513-3.356 3.973-3.352 4.28 1.322 5.96.894.321 1.786.65 2.139.778l-7.45 20.71c-2.257-.444-5.72-1.306-9.235-1.734-1.515-.184-3.14.533-4.714.84 1.046 1.377 1.82 3.439 3.195 3.986 2.727 1.084 5.827 1.186 8.693 1.982 1.649.457 3.142 1.476 4.704 2.243l-.532 1.18c-4.56-.234-9.153-.201-13.672-.76-8.57-1.059-11.222-4.845-9.728-13.303.405-2.288 1.037-4.537 1.398-6.83 1.118-7.096 1.215-13.94-4.595-19.46-3.23-3.07-3.1-6.376.914-8.357a217.733 217.733 0 0 1 20.301-8.781c3-1.117 4.909.435 4.822 4.173-.056 2.407.905 4.837 1.032 7.487m-7.247 25.398c-3.853-1.411-4.375 1.055-3.967 3.78.24 1.607 1.302 4.285 2.228 4.388 3.628.403 2.79-2.675 2.83-4.826.018-.945-.312-1.897-1.091-3.342zM147.103 132.204c-.048-2.342-1.429-3.688.634-6.25 3.435-4.265-2.106-3.386-4.337-4.589.224-.998.198-2.232.747-3.103 3.443-5.456 3.485-5.43-2.8-7.499l7.34-20.781c2.182.437 5.64 1.36 9.155 1.733 1.631.173 3.375-.722 5.068-1.132-1.212-1.314-2.19-3.22-3.687-3.808-2.582-1.016-5.523-1.074-8.24-1.806-1.6-.43-3.06-1.383-4.582-2.102l.544-1.551c5.495.535 11.059.702 16.467 1.707 5.43 1.008 7.415 4.229 6.857 9.768-.3 2.97-.717 5.955-1.401 8.857-1.83 7.76-1.281 14.851 4.829 20.775 1.025.994 1.53 2.526 2.396 4.02-6.484 7.446-14.725 11.268-24.212 12.663-5.484.807-4.643-3.226-4.778-6.902m6.757-38.516c-.475 2.36-1.064 4.713-1.227 7.094-.014.212 3.3 1.372 4.12.78 2.215-1.599.674-6.706-2.893-7.874z"/><path fill="#264DC0" d="M186.933 77.027c8.956 3.472 12.674 11.154 13.835 19.633 1.064 7.772.942 15.9-.014 23.704-1.09 8.898-.841 17.407 1.541 26.032 2.42 8.76-1.51 15.908-7.012 22.249-.876 1.01-3.28 1.073-4.927.94-2.273-.184-4.497-.97-7.117-1.952.996-3.9 2.367-7.345 3.738-10.79 1.652-1.954 3.304-3.907 5.455-6.256 5.527-3.733 6.295-8.756 5.054-13.958-.947-3.973-3.27-7.599-4.5-11.53-1.097-3.51-2.55-7.363-2.082-10.826 1.732-12.82 2.76-25.396-3.971-37.246zM156.253 424.78c-9.53-4.03-13.401-12.29-14.049-21.584-.65-9.338.758-18.802.855-28.216.051-5.034-.214-10.2-1.307-15.089-1.78-7.971-1.773-15.38 2.999-22.405 2.317-3.41 4.433-6.462 9.353-4.564 1.812.7 3.908.66 6.212 1.375-1.527 4.53-3.392 8.643-5.258 12.756 0 0-.055-.053-.415-.22-.443.302-.524.77-.606 1.239 0 0-.035-.07-.296-.325-.715.364-1.17.983-1.625 1.603 0 0 .103.184-.258.474-5.376 4.048-7.429 9.161-6.001 15.132.989 4.135 3.327 7.931 4.561 12.03 1.117 3.711 2.699 7.822 2.085 11.417-2.147 12.582-2.551 24.763 3.75 36.378z"/><path fill="#264DC0" d="M207.317 90.285c12.036 11.436 16.061 26.146 10.498 39.215-.911 2.142-1.761 4.315-2.793 6.398-3.22 6.506-3.913 12.896.053 19.444 2.65 4.374 2.528 8.859-.644 13.065-3.327 4.411-7.986 5.4-14.233 5.507 1.56-2.826 2.697-4.889 4.332-7.372 6.598-7.085 7.151-15.155 4.853-23.107-2.056-7.113-2.121-14.04-1.112-21.107 1.536-10.759 2.04-21.44-.954-32.043z"/><path fill="#264DC1" d="M135.06 409.985c-9.044-6.625-14.049-21.978-11.547-30.771 1.307-4.594 3.073-9.095 5.03-13.459 2.81-6.265 3.483-12.322.017-18.576-2.502-4.514-2.83-9.165.336-13.586 3.207-4.479 7.637-5.449 13.679-3.998-1.155 1.772-2.134 3.274-3.693 5.138-6.713 8.3-6.867 17.077-4.586 26.384.971 3.967 1.907 8.248 1.423 12.21-1.495 12.228-2.74 24.393-.66 36.658z"/><path fill="#F4EFED" d="M215.192 313.497c21.585-13.08 38.533-29.897 45.173-55.154 4.084-15.538 2.705-30.92-2.185-46.479.55-2.154 1.339-3.955 2.126-5.757l1.462-.237c1.747 7.773 4.22 15.464 5.115 23.334 3.713 32.636-10.237 57.318-35.651 76.478-3.575 2.695-7.445 5.027-11.33 7.264-1.251.722-2.987.602-4.71.551z"/><path fill="#F6F1F0" d="M128.024 188.5c-15.117 9.273-28.304 20.51-37.297 36.083-12.108 20.965-12.382 43.006-5.58 66.011-.676 2.01-1.452 3.632-2.3 5.407-4.6-7.688-7.831-23.993-6.93-37.654 1.675-25.364 14.128-44.884 33.766-60.209 4.307-3.36 9.035-6.202 13.705-9.06 1.205-.737 2.93-.626 4.636-.578z"/><path fill="#254CBF" d="M171.844 81.05c-5.797-1.376-11.607-2.699-17.384-4.15-2.602-.654-5.139-1.563-7.705-2.356l-.13-2.455c2.345-1.067 4.657-2.976 7.041-3.07 22.202-.873 33.197 15.25 30.891 33.3-.856 6.697-.89 13.5-1.574 20.458-2.193-1.766-4.112-3.735-6.031-5.705l.306-.395c-.317-3.342-1.443-6.368-1.338-9.35.144-4.068 1.478-8.081 1.84-12.16.425-4.788 1.393-9.932-3.866-13.128 0 0 .076-.01.04-.332-.72-.433-1.405-.545-2.09-.657z"/><path fill="#274DC0" d="M169.254 419.882c6.197 6.52 14.786 4.34 22.275 6.176 1.744.428 3.355 1.398 5.027 2.119l.109 2.131c-2.706.933-5.413 2.676-8.117 2.672-22.003-.034-33.265-15.202-29.234-38.506.86-4.976.468-10.168.978-15.454 2.112 2.208 3.9 4.61 5.833 7.358.545 3.384 1.4 6.447 1.232 9.452-.23 4.101-1.465 8.138-1.856 12.242-.416 4.37-.533 8.844 3.753 11.81z"/><path fill="#274DC1" d="M159.196 376.507c-8.152-9.615-7.775-16.546.161-25.799 3.66-4.267 5.854-9.779 8.841-14.647.776-1.264 1.842-2.628 3.115-3.252 2.511-1.23 5.261-1.975 8.516-2.654.457 5.556.31 10.847.163 16.137-2.758 2.16-5.523 4.31-8.27 6.48-3.171 2.507-6.327 5.032-9.982 7.95-4.451 5.093-3.89 10.387-2.544 15.785z"/><path fill="#264DC0" d="M184.357 126.319c7.308 7.77 7.707 16.024.721 23.706-4.617 5.078-9.29 9.948-10.26 17.192-.105.773-1.444 1.624-2.385 1.997a47.416 47.416 0 0 1-8.977 2.599c-2.993-6.936-1.143-12.906 2.143-18.667 3.623-2.334 7.247-4.669 11.517-7.201 7.272-5.171 9.202-11.738 7.241-19.626z"/><path fill="#F3F3F3" d="M266.469 332.139c1.732 1.342 4.387 3.296 4.126 3.83-1.362 2.8-3.333 1.443-5.709.534-4.545-1.739-9.085-2.87-9.63-8.895-.056-.618-2.017-1.064-3.094-1.59-.531 1.192-1.73 2.551-1.481 3.549 1.26 5.054 1.848 10.856 9.372 10.615 1.258-.04 2.56 1.248 4.212 2.119-7.651 2.538-12.832 1.318-17.374-4.16-2.962-3.573-5.578-7.432-8.39-11.216l22.384-17.855 5.521 3.558c-1.875.411-4.025.566-5.859 1.409-1.025.471-1.523 2.086-2.26 3.185 1.06.586 2.077 1.549 3.19 1.678 2.278.263 4.607.079 6.998.749-2.596.452-5.234.75-7.768 1.434-1.008.272-1.786 1.399-2.668 2.137.975.88 1.869 2.38 2.94 2.52 2.763.362 5.605.121 8.415.121l-.024 1.244c-2.592 0-5.258-.366-7.744.147-1.344.277-2.378 2.054-3.552 3.154 1.33.635 2.604 1.516 4.006 1.83 1.249.28 2.638-.069 4.389-.097z"/><path fill="#F1F1F1" d="M92.02 170.056c-.248-8.49-8.207-7.116-12.886-10.282 12.271-3.274 14.946-.597 25.542 15.465l-21.952 17.458-9.87-4.368c3.16 0 5.685.377 8.015-.133 1.535-.336 2.792-1.948 4.173-2.988-1.427-.706-2.793-1.772-4.297-2.03-2.057-.35-4.218-.087-6.377-1.145 2.315-.113 4.745.162 6.907-.473 1.5-.441 2.63-2.138 3.924-3.273-1.453-.64-2.86-1.64-4.372-1.839-2.37-.311-4.81-.082-7.247-.526 4.031-2.254 9.928 1.611 12.126-3.626l5.915 3.467c.16-1.773.321-3.546.4-5.707z"/><path fill="#F0EDE4" d="M187.283 327.012c6.268-3.163 12.568-6.024 19.726-9.276-8.749-5.553-16.58-10.526-24.415-15.496-11.922-7.564-23.824-15.161-35.788-22.66-2.372-1.486-4.985-2.59-7.663-4.169 2.93.558 6.45.746 9.081 2.373 21.013 12.993 41.858 26.258 63.572 39.956-8.05 3.59-15.396 6.889-22.779 10.103-.412.18-1.128-.337-1.734-.831zM155.964 175.037c-6.317 3.178-12.643 6.026-19.822 9.257 22.794 14.342 44.713 28.134 66.759 42.24-2.646-.594-5.733-.993-8.14-2.49-20.897-12.993-41.672-26.184-63.294-39.829 8.25-3.606 15.804-6.918 23.384-10.17.23-.1.73.426 1.113.992z"/><path fill="#E2E5EC" d="M156.222 424.818c-6.27-11.652-5.866-23.833-3.719-36.415.614-3.595-.968-7.706-2.085-11.417-1.234-4.099-3.572-7.895-4.561-12.03-1.428-5.97.625-11.084 5.93-15.054-1.057 3.094-3.687 6.488-3.47 9.687.38 5.585 1.702 11.446 4.146 16.45 2.26 4.626 3.32 9.014 2.4 13.809-2.533 13.201-2.89 25.994 5.41 37.838-.779-.43-1.558-.858-2.667-1.817-.725-.69-1.118-.852-1.512-1.014 0 0 .097.001.128-.037zM207.204 90.056c3.106 10.831 2.603 21.513 1.067 32.272-1.01 7.067-.944 13.994 1.112 21.107 2.298 7.952 1.745 16.022-4.665 22.806 4.309-10.015 3.726-20.005.686-30.662-1.534-5.38.466-11.808 1.05-17.745.983-9.966 1.458-19.869-1.687-30.115.775.703 1.55 1.406 2.437 2.337z"/><path fill="#E5E7ED" d="M135.038 409.996c-2.059-12.276-.814-24.441.68-36.67.485-3.961-.45-8.242-1.422-12.209-2.28-9.307-2.127-18.083 4.346-26.124-.044 1.295-.258 2.766-.84 4.074-2.565 5.767-4.02 11.89-1.898 17.85 3.44 9.661 1.576 19.177.981 28.885-.479 7.823.615 15.742 1.01 23.618l.196 3.904c-.522-.25-1.045-.5-1.798-1.322-.575-1.06-.918-1.548-1.26-2.036 0 0-.016.04.005.03z"/><path fill="#E0E2EB" d="M186.957 77.013c6.708 11.864 5.68 24.44 3.947 37.26-.468 3.463.985 7.317 2.083 10.826 1.229 3.931 3.552 7.557 4.5 11.53 1.24 5.202.472 10.225-4.871 13.697 4.974-8.981 2.391-17.32-2.131-25.933-1.769-3.366-1.877-7.835-1.942-11.816-.13-7.89.845-15.83.255-23.666-.29-3.854-3.051-7.523-4.295-11.622 1.09-.31 1.782-.272 2.473-.234 0 0 .006-.055-.019-.042z"/><path fill="#F7F5EF" d="M222.367 143.03c1.135 3.564 1.34 7.256 2.71 10.447 4.948 11.51-1.31 23.486-13.55 24.568 11.34-7.744 13.127-14.074 7.373-27.356-.52-1.2-.965-2.469-1.198-3.75-.627-3.441.54-5.13 4.665-3.91zM121.105 359c-1.275-3.903-1.762-7.856-3.222-11.41-4.265-10.374 1.266-21.21 12.748-23.512-1.76 2.096-4.224 3.87-5.973 6.184-4.005 5.3-4.672 11.168-1.923 17.34 1.076 2.416 2.334 4.817 2.933 7.36.76 3.227-.336 5.288-4.563 4.038zM197.949 464.038c-1.812-8.37-3.306-16.585-4.799-25.226 1.471-.595 2.942-.765 3.847-.87l4.947 26.962c-.96-.186-2.318-.45-3.995-.866zM145.45 37.951c1.744 8.366 3.146 16.584 4.55 25.235-1.455.594-2.913.755-3.848.859l-4.685-26.962c.933.185 2.287.452 3.984.868z"/><path fill="#DDE0E9" d="M173.6 82.371c5.553 2.864 4.585 8.008 4.16 12.797-.362 4.078-1.696 8.091-1.84 12.16-.105 2.981 1.021 6.007 1.307 9.37-4.31-2.109-4.449-5.966-3.878-9.985.622-4.39 1.906-8.75 1.961-13.135.045-3.616-1.283-7.25-1.71-11.207z"/><path fill="#E2E5EC" d="M169.21 419.465c-4.242-2.549-4.125-7.023-3.709-11.393.391-4.104 1.626-8.14 1.856-12.242.168-3.005-.687-6.068-1.137-9.663.123-.829.362-1.019.665-1.127 4.275 3.607 3.003 8.262 2.723 12.912-.423 7.015-.32 14.063-.398 21.513z"/><path fill="#DDE0E9" d="M184.287 126.136c2.031 8.07.101 14.638-6.839 19.708-.237-.387-.306-.962-.065-1.342 7.3-11.508 7.24-15.568-.44-27.075 1.928 1.615 3.847 3.584 6.05 5.852.598 1.09.911 1.882 1.294 2.857z"/><path fill="#F0EDE4" d="M155.905 432.531c-5.753-2.295-11.69-4.792-17.484-7.585-2.177-1.05-4.023-2.79-6.303-4.48-.152-1.066-.021-1.865.088-2.527 7.945 4.81 15.759 9.541 23.7 14.592z"/><path fill="#DDE0E9" d="M166.769 384.72c-.187.428-.426.618-.695 1.1-1.883-2.19-3.67-4.592-5.748-7.247-.492-.757-.693-1.26-1.012-1.915-1.464-5.55-2.025-10.843 2.278-15.636.43.535.776 1.28.561 1.788-3.485 8.254-.597 15.146 4.616 21.91z"/><path fill="#F0EDE4" d="M190.99 71.146c8.166.532 13.883 5.905 20.322 10.663.022 1.053-.204 1.838-.374 2.431-6.683-4.25-13.339-8.484-19.947-13.094z"/><path fill="#EAEAEA" d="M172.728 141.704a333.026 333.026 0 0 1-5.849 4.252c-1.905-3.78-.989-5.81 2.453-7.313 2.537-1.108 4.743-2.973 8.015-3.972-1.454 2.261-2.909 4.522-4.62 7.033z"/><path fill="#E2E5EC" d="M78.54 165.691c2.631 2.105 7.68.06 7.887 4.67-3.323-.163-6.463-.075-9.511-.563-1.627-.26-3.137-1.452-4.565-2.422-.137-.093.625-2.282 1.064-2.317 1.573-.125 3.186.258 5.125.632z"/><path fill="#EAEAEA" d="M69.586 134.529c1.505.245 2.649.42 3.792.596l.756 1.155c-2.62 1.753-5.19 3.595-7.952 5.085-.208.113-1.764-2.268-2.693-3.49 1.912-1.14 3.824-2.278 6.097-3.346zM276.872 360.341c1.174 1.678 2 3.25 2.826 4.823l-9.036 3.002-1.209-2.24c2.357-1.897 4.714-3.794 7.42-5.585z"/><path fill="#F1F1F1" d="M177.585 359.979c-3.608 2.991-7.267 5.623-10.927 8.256l-1.203-1.113 10.73-12.284c.701 2.487 1.025 3.634 1.4 5.141zM270.02 375.921c1.081 1.095 2.599 2.035 2.51 2.787-.196 1.686-1.191 3.28-1.861 4.911-1.524-.856-3.91-1.393-4.375-2.644-.74-1.987-.197-4.451-.197-7.606 1.82 1.16 2.725 1.735 3.922 2.552zM93.076 130.328c-3.066.864-5.914 1.398-8.761 1.932-.31-.751-.618-1.502-.927-2.254l7.525-5.002c.794 1.665 1.587 3.33 2.163 5.324z"/><path fill="#EAEAEA" d="M250.21 375.405c-.204-5.535 1.214-6.219 9.025-4.812-2.358 5.932-4.591 7.241-9.025 4.812z"/><path fill="#D3D7E2" d="M165.302 153.243c-2.99 5.664-4.84 11.634-2.217 18.65-.799.166-2.312.204-2.618-.386-2.925-5.621-.722-14.094 4.835-18.264z"/><path fill="#F4F4F4" d="M74.119 118.126c1.602 3.032 2.811 6.032 4.02 9.03l-2.147 1.31c-1.922-2.128-4.067-4.116-5.56-6.51-.271-.433 2.128-2.532 3.687-3.83z"/><path fill="#DDE0E9" d="M180.35 346.166c-.211-5.164-.064-10.455-.143-16.08.753-.128 2.46-.139 2.6.323 1.653 5.482 2.313 10.927-2.456 15.757z"/><path fill="#F5F2E5" d="M183.58 37.057c-3.634 3.076-7.584 6.148-11.714 8.957-1.071.729-2.704.633-4.463.817 3.946-5.118 9.047-8.86 16.178-9.774z"/><path fill="#F6F1F0" d="M161.208 464.027c3.086-2.675 6.52-5.42 10.14-7.895 1.095-.75 2.7-.755 4.455-.975-3.55 4.575-7.753 8.58-14.595 8.87z"/><path fill="#E2E5EC" d="M155.391 346.984c1.533-4.044 3.398-8.157 5.32-12.626 3.201-1.031 2.62 1.099 1.81 2.447-2.09 3.476-4.51 6.754-7.13 10.18z"/><path fill="#E0E2EB" d="M186.636 156.923c-1.03 3.365-2.401 6.81-3.808 10.64-.78-.296-2.263-1.4-2.154-1.59 1.754-3.059 3.71-6 5.962-9.05z"/><path fill="#264DC0" d="M186.967 76.763c-.682.254-1.373.216-2.412.17.57-.16 1.486-.312 2.412-.17z"/><path fill="#264DC1" d="M134.933 410.288c.442.166.785.654 1.15 1.48-.403-.16-.826-.658-1.15-1.48z"/><path fill="#E2E5EC" d="M152.462 349.347c.11-.617.564-1.236 1.307-1.573-.129.712-.545 1.14-1.307 1.573z"/><path fill="#DDE0E9" d="M171.996 81.393c.533-.231 1.218-.12 1.936.353-.572.237-1.178.114-1.936-.353z"/><path fill="#264DC0" d="M156.181 425.194c.307-.177.7-.016 1.23.474-.29.173-.717.018-1.23-.474z"/><path fill="#E2E5EC" d="M154.32 348.039c-.201-.435-.12-.904.357-1.19.24.508.084.832-.356 1.19z"/><path fill="#FCFCFC" d="M41.66 43.196c-.686 1.777-.861 3.669-1.884 4.446-2.617 1.989-5.434 4.297-8.501 4.965-3.721.81-6.792-1.774-8.146-5.285-3.605-9.354-3.603-18.878.138-28.167 1.551-3.853 4.93-5.598 9.295-5.325 4.252.267 6.833 2.725 8.154 6.332 2.706 7.382 2.448 15.01.945 23.034zM308.177 449.895c7.102-1.492 10.976.563 12.925 7.03 2.36 7.83 2.355 15.77-.084 23.597-1.46 4.689-4.376 7.72-9.762 7.65-5.257-.07-7.897-3.324-9.139-7.74-2.154-7.664-2.285-15.54.134-23.112.877-2.745 3.651-4.884 5.926-7.425z"/><path fill="#262626" d="m224.481 222.004-8.383.001-.215-4.343 13.425-3.2 4.099 3.554c-3.034 1.425-5.76 2.705-8.926 3.988z"/><path fill="#2B2A22" d="M197.706 213.94c-1.455.328-3.278 1.376-4.297.854-3.523-1.803-6.765-4.154-10.413-6.487l2.529-4.49c1.346.737 2.482 1.359 4.134 2.354 2.15 1.417 3.983 2.254 5.36 3.568 1.169 1.114 1.812 2.779 2.687 4.2z"/><path fill="#2F2C22" d="M248.844 202.028c-2.104 3.417-3.894 1.318-5.717-.131 1.112-3.78 2.39-7.333 3.165-10.993.737-3.487 3.093-1.995 5.35-1.574-.7 4.561-1.75 8.63-2.798 12.698z"/><path fill="#2B2A22" d="M168.024 195.452c-1.351.273-3.048 1.2-3.993.702-3.59-1.892-6.935-4.246-10.578-6.558l2.5-4.531c1.26.676 2.334 1.252 3.895 2.207 2.732 1.8 5.119 3.049 7.147 4.73.769.637.71 2.27 1.03 3.45zM247.02 168.994c-1.188.53-2.375 1.062-3.632 1.625l-9.363-10.37c1.207-2.053 1.97-5.086 5.925-1.616 2.694 3.741 4.882 7.05 7.07 10.36z"/><path fill="#FBF9EF" d="M249.152 202.268c.74-4.308 1.79-8.377 2.845-12.85 1.456-.406 2.907-.406 5.302-.406-1.36 4.484-2.469 8.368-3.731 12.201-.713 2.163-2.107 2.866-4.416 1.055z"/><path fill="#F7F5EF" d="M247.253 169.249c-2.421-3.565-4.61-6.875-6.971-10.408 1.16-.266 3.035-.895 3.732-.25 2.898 2.682 5.441 5.749 9.096 9.748-2.636.546-4.13.855-5.857.91z"/><path fill="#F5F2E5" d="M197.95 214.165c-1.12-1.647-1.762-3.312-2.93-4.426-1.378-1.314-3.21-2.15-5.035-3.496.805-.51 2.083-1.22 2.745-.844 3.4 1.928 6.64 4.135 10.245 6.443-1.144 1.98-1.124 5.337-5.024 2.323zM168.349 195.626c-.643-1.354-.585-2.987-1.354-3.624-2.028-1.681-4.415-2.93-6.822-4.643.947-.424 2.332-1.044 3.12-.602 3.39 1.903 6.605 4.118 10.081 6.346-1.041 2.334-1.441 4.947-5.025 2.523z"/><path fill="#2F2C22" d="m115.342 281.106 11.97-1.566v5.255c-4.712.708-9.4 1.413-14.348 1.509-2.596-3.986 1.746-3.527 2.378-5.198z"/><path fill="#2B2A22" d="M145.754 288.002c1.301-.365 2.973-1.432 3.84-.974 3.631 1.916 7.02 4.288 10.807 6.688l-2.697 4.486c-1.267-.7-2.273-1.257-3.812-2.115-2.701-1.745-5.007-3.029-6.97-4.711-.78-.67-.801-2.223-1.168-3.374z"/><path fill="#2F2C22" d="M94.67 300.007c2.227-3.98 3.84-.89 5.593.205l-4.216 13.174c-1.35-.112-2.788-.23-4.55-.803.842-4.495 2.007-8.536 3.173-12.576z"/><path fill="#2B2A22" d="M175.25 306.788c1.447-.303 3.248-1.303 4.276-.782 3.49 1.772 6.707 4.082 10.349 6.39l-2.443 4.415c-1.334-.67-2.461-1.237-4.09-2.166-2.584-1.696-4.809-2.86-6.682-4.442-.835-.706-.961-2.251-1.41-3.415z"/><path fill="currentColor" d="m96.162 333.045 3.877-1.642 9.14 10.362c-1.153 2.175-1.968 5.159-5.832 1.484-2.712-3.705-4.949-6.955-7.185-10.204z"/><path fill="#FBF9EF" d="M94.4 299.852c-.896 4.195-2.061 8.236-3.256 12.657-1.309.381-2.587.381-5.133.381 1.546-4.775 2.768-8.956 4.373-12.984.194-.49 2.447-.159 4.015-.054z"/><path fill="#F5F2E5" d="M95.977 332.74c2.421 3.554 4.658 6.804 7.028 10.314-1.16.368-3.017 1.075-3.65.48-2.94-2.767-5.541-5.893-9.192-9.913 2.63-.554 4.13-.87 5.814-.881zM174.984 306.524c.715 1.428.84 2.973 1.676 3.679 1.873 1.581 4.098 2.746 6.361 4.373-.769.519-2.003 1.24-2.623.887-3.536-2.018-6.925-4.291-10.523-6.579 1.141-2.337 1.643-4.983 5.11-2.36zM145.477 287.852c.644 1.301.665 2.855 1.445 3.524 1.963 1.682 4.269 2.966 6.632 4.657-1.246.138-2.909.45-4.082-.167-3.013-1.585-5.808-3.584-8.955-5.586 1.097-2.186.975-5.648 4.96-2.428zM114.94 281.014c-.23 1.763-4.572 1.304-2.196 4.972-2.948 1.853-4.888 1.289-5.423-2.875 2.365-.717 4.791-1.453 7.62-2.097z"/><path fill="#474747" d="M65.85 271.534c-1.718-1.245-3.048-2.569-4.379-3.893l1.073-1.335 6.056-.416c-1.007 2.374-1.685 3.97-2.75 5.644z"/><path fill="#343434" d="M114.597 179.848c1.142-1.267 2.426-2.174 4.01-3.291l2.721 4.57-4.343 2.754c-.813-1.329-1.529-2.5-2.388-4.033z"/><path fill="#313131" d="M66.769 281.643c1.665.97 2.965 2.058 4.264 3.147l-.96 1.405-5.97 1.515c1.068-2.76 1.684-4.354 2.666-6.067z"/><path fill="#343434" d="M68.939 240.974c-4.804-1.154-2.83-3.574-1.785-6.126l5.303 1.659c-1.172 1.701-2.147 3.118-3.518 4.467zM71.83 225.205c.164-1.695.625-3.171 1.215-5.06l4.919 2.164-2.25 4.807c-1.315-.62-2.452-1.156-3.885-1.911z"/><path fill="#313131" d="M84.448 208.43c.115 1.973-.058 3.715-.315 6.308l-5.43-3.962c2.027-1.205 1.704-5.451 5.745-2.346z"/><path fill="#343434" d="M103.35 191.376c-3.693-3.74-.522-4.74 2.019-6.302l3.196 4.581c-1.911.774-3.433 1.39-5.214 1.72zM147.913 164.805c2.559 4.199-.874 4.183-3.263 5.342l-2.613-5.236c2.36-.2 4.045-.342 5.876-.106z"/><path fill="#313131" d="M71.181 301.99c-1.066-1.33-1.74-2.584-2.594-4.167l4.757-2.24 2.185 4.581c-1.47.707-2.714 1.305-4.348 1.826zM129.653 171.06c4.202-2.546 4.155.947 5.356 3.21l-5.262 2.673c-.195-2.353-.335-4.042-.094-5.884zM89.897 199.42c.555-1.66 1.332-2.98 2.33-4.68l4.63 4.123-3.992 3.398c-1.092-.993-1.92-1.747-2.968-2.84z"/><path fill="currentColor" d="M65.104 255.941c-1.145-1.588-1.836-3.134-2.874-5.454l7.471.726c-1.893 2.18-3.018 3.476-4.597 4.728z"/><path fill="#3B3B3B" d="M212.842 325.875c.977 1.435 1.621 2.684 2.421 4.236l-4.81 2.315-2.2-4.867c1.624-.713 2.94-1.29 4.589-1.684zM280.9 232.44c.758 5.232-2.95 2.684-5.74 4.616l1.249-6.254c1.489.412 2.978.825 4.49 1.639zM274.999 249.717c-.07-4.88 2.73-3.858 5.731-3.214l-.76 5.423c-1.915-.693-3.442-1.246-4.971-2.209z"/><path fill="#313131" d="M272.567 261.721c1.739-.232 3.27-.113 5.33.047l-1.334 5.12c-3.365-.202-5.92-.66-3.996-5.167z"/><path fill="#343434" d="M226.984 324.015c-1.981-.477-3.623-1.106-5.265-1.735l.41-1.587 5.629-3.259c-.194 2.866-.315 4.647-.774 6.58zM268.512 203.556c.826-1.638 1.848-2.931 3.41-4.905l2.823 5.68c-2.402.439-4.318 4.13-6.233-.775z"/><path fill="#313131" d="M276.08 215.019c1.404 1.189 2.411 2.432 3.824 4.176l-5.565 1.888c-.792-2.451-3.512-4.974 1.74-6.064z"/><path fill="#343434" d="M199.055 337.58c-3.984 1.728-3.958-1.09-4.672-3.692l5.415-2.53c-.17 2.607-.281 4.321-.743 6.221z"/><path fill="#313131" d="M240.751 315.115c-3.784 3.338-4.041-.567-5.817-2.199l4.884-3.821c.52 2.398.89 4.104.933 6.02z"/><path fill="currentColor" d="M250.888 300.097c1.228 1.065 2.12 2.019 3.205 3.18l-3.713 3.996-3.502-4.017c1.262-1.123 2.468-2.196 4.01-3.159z"/><path fill="#313131" d="M266.164 277.592c1.802-.943 3.448-1.515 5.094-2.088l.921 1.622-2.337 5.52c-1.65-2.015-2.742-3.35-3.678-5.054zM258.6 290.034c1.972-.288 3.703-.288 6.689-.288l-4.799 6.888c-.976-2.893-1.553-4.603-1.89-6.6z"/><path fill="#3B3B3B" d="M126.943 262.908c-4.676.387-5.235-1.763-3.597-5.617l4.89.513c-.34 1.912-.618 3.468-1.293 5.104z"/><path fill="#343434" d="M131.658 244.843c.01 1.862-.317 3.555-.724 5.66l-5.085-2.685 2.153-4.45c1.157.455 2.238.88 3.656 1.475z"/><path fill="#313131" d="M135.722 232.606c1.856.223 3.458.732 5.675 1.436l-3.912 4.659c-1.66-1.863-5.608-2.421-1.763-6.095zM148.606 222.482c1.032 1.284 1.761 2.368 2.689 3.746l-4.11 3.133-3.253-4.352c1.662-1.037 3.017-1.882 4.674-2.527zM161.9 220.73c-4.556 2.696-4.144-1.158-5.31-3.283l5.072-2.677c.231 2.29.407 4.027.237 5.96z"/><path fill="#474747" d="M220.822 242.688c-1.72 1.005-3.373 1.611-5.907 2.54l.778-6.133c2.574.178 5.712-1.217 5.129 3.593z"/><path fill="#343434" d="M193.017 274.852c1.23-.793 2.164-1.398 3.315-2.142l2.94 4.188-4.687 3.502c-.736-2.115-1.3-3.736-1.568-5.548z"/><path fill="#313131" d="M216.006 257.29c-1.78.378-3.395.378-5.801.378l2.406-5.92c1.953 1.547 6.194.77 3.395 5.543zM206.177 270.225c-1.367-.938-2.36-1.763-3.674-2.856l3.282-4.039 4.175 3.337c-1.29 1.39-2.35 2.53-3.783 3.558z"/><path fill="#3B3B3B" d="M184.009 280.126c1.214 1.256 2.07 2.588 3.114 4.215-1.674.892-3.05 1.625-4.719 2.516l-2.596-4.385c1.396-.825 2.619-1.547 4.2-2.346z"/><path fill="currentColor" d="M190.188 400.303c.476 1.197.806 2.149.788 3.094-.04 2.151.798 5.23-2.83 4.826-.926-.103-1.988-2.78-2.228-4.389-.408-2.724.114-5.19 4.27-3.531z"/><path fill="#3B3B3B" d="M154.216 93.572c3.211 1.284 4.752 6.391 2.537 7.99-.82.592-4.134-.568-4.12-.78.163-2.381.752-4.734 1.583-7.21z"/></svg>