<svg xmlns="http://www.w3.org/2000/svg" viewBox="0 0 340 500" xml:space="preserve"><path fill="transparent" d="M1 196C1 132.019 1.03 68.538.912 5.057.906 1.759 1.4.894 4.942.897c110.633.126 221.266.13 331.9-.014 3.86-.005 4.235 1.104 4.233 4.457-.086 163.784-.087 327.569.009 491.353.002 3.448-.51 4.421-4.275 4.417-110.634-.136-221.267-.134-331.9-.004-3.61.004-3.994-.969-3.99-4.196C1.018 396.774 1 296.637 1 196z"/><path fill="currentColor" d="M235.795 439.237c-8.276-10.607-17.807-19.346-29.27-26.933 14.041-9.411 25.688-20.838 35.11-35.22 9.466 14.25 21.005 25.813 35.247 35.2-14.37 9.382-25.792 20.873-35.115 35.027-2.099-2.836-3.93-5.312-5.972-8.074zM231.76 214.272c-7.461-8.388-15.47-15.622-25.272-21.925 14.049-9.458 25.717-20.84 35.125-35.246 9.483 14.146 20.932 25.784 35.266 35.153-14.294 9.414-25.776 20.82-35.017 34.973-3.466-4.45-6.671-8.565-10.102-12.956zM202.41 250.322c-12.383 8.765-22.294 19.444-30.746 32.06-9.43-14.075-20.733-25.652-35.18-35.05 14.074-9.446 25.731-20.851 35.14-35.235 9.51 14.125 20.868 25.869 35.242 35.05a948.5 948.5 0 0 0-4.455 3.175zM252.313 103.346c-3.701 4.714-7.17 9.16-10.776 13.78-4.815-6.822-9.745-13.274-15.557-19.03-5.818-5.762-12.111-10.907-19.487-15.788 14.088-9.412 25.724-20.85 35.156-35.238 9.485 14.248 20.914 25.921 35.29 35.143-9.408 6.225-17.35 13.03-24.626 21.133zM251.413 324.438a3833.025 3833.025 0 0 0-9.872 12.757c-9.299-13.891-20.626-25.446-35.033-34.873 14.038-9.441 25.719-20.827 35.132-35.273 9.416 14.25 20.939 25.832 35.196 35.184-9.633 6.518-18.015 13.547-25.423 22.205zM110.269 168.706c7.674 9.299 16.553 16.754 26.548 23.602-14.277 9.358-25.72 20.813-35.114 35.129-9.473-14.185-20.897-25.774-35.227-35.16 14.118-9.357 25.648-20.739 35-34.982 3.009 3.908 5.79 7.52 8.793 11.41zM105.256 442.274c-1.269 1.757-2.323 3.228-3.628 5.048-9.383-14.009-20.698-25.567-35.112-34.993 14.008-9.461 25.715-20.812 35.1-35.247 9.505 14.14 20.857 25.882 35.33 35.104-12.606 8.4-23.043 18.063-31.69 30.088zM87.697 64.688c5.282-5.375 9.44-11.21 14.017-17.47 9.364 14.037 20.82 25.663 35.184 35.036-14.308 9.402-25.783 20.81-35.189 35.198-9.48-14.176-20.875-25.793-35.158-35.114 7.617-5.4 14.754-10.822 21.146-17.65zM115.432 284.56c5.867 5.966 11.921 11.157 18.543 15.692 1.083.741 3.824 1.46.944 3.368-13.363 8.85-24.183 20.24-33.286 33.77-9.393-14.16-20.794-25.677-35.138-35.088 14.088-9.395 25.721-20.843 35.144-35.222 4.333 6.346 8.696 11.986 13.793 17.48zM36.742 36.411c-4.607 2.096-9.165 2.632-13.74.871-4.51-1.735-6.625-5.47-6.951-10.103-.401-5.678 1.323-10.561 6.433-13.675 9.702-5.913 21.174-.892 23.615 10.205 1.483 6.74.908 13.264-1.996 19.48-4.164 8.915-15.386 12.832-23.685 8.387-1.05-.563-2.669-.854-1.96-2.827.673-1.876 1.67-1.805 3.44-1.376 8.856 2.147 12.91-.357 15.496-9.618.106-.771-.04-1.049-.652-1.344zM299.336 476.459c-3.97-8.33-3.774-16.47-.417-24.455 3.91-9.299 14.17-13.315 23.202-9.368 1.391.608 3.46.85 2.676 3.342-.806 2.564-2.42 1.343-3.914.934-8.321-2.277-13.983 1.881-14.851 11.007 1.426.674 2.435-.538 3.582-.906 8.136-2.605 15.448.686 17.247 7.832 2.218 8.813-2.936 16.975-11.6 18.143-6.34.855-11.93-.482-15.925-6.53zM37.22 76.765c3.739 3.997 7.528 7.418 12.165 10.474-7.265 4.804-12.736 10.704-17.753 17.491-4.902-6.823-10.244-12.654-17.625-17.314 6.845-5.017 12.826-10.537 17.504-17.67 1.95 2.407 3.712 4.582 5.708 7.02zM321.721 401.302c2.557 2.101 4.862 3.952 7.45 6.03-6.965 4.742-12.546 10.51-17.52 17.465-4.922-7.022-10.5-12.784-17.657-17.5 6.95-4.853 12.822-10.392 17.486-17.579 3.35 4.044 6.276 8.05 10.241 11.584z"/><path fill="#fff" d="M38.036 30.567c-3.76 3.266-7.653 3.801-11.364.803-3.057-2.471-3.528-8.723-1.345-12.516 2.51-4.361 7.787-4.527 10.511-.243 2.235 3.514 2.453 7.5 2.198 11.956z"/><path fill="transparent" d="M36.707 36.574c.584-.815 1.144-.89.852.582-.324.052-.483-.123-.852-.582z"/><path fill="#fff" d="M314.463 478.807c-3.837.664-6.15-.967-7.514-3.947-1.676-3.66-3.02-7.772-1.462-11.486 1.648-3.93 10.467-2.57 12.634 1.67 2.329 4.557 1.057 9.845-3.658 13.763z"/></svg>