<svg xmlns="http://www.w3.org/2000/svg" viewBox="0 0 340 500" xml:space="preserve"><path fill="#FEFEFE" d="M1 132V1.02h339.93v499.836H1V132m156.909 14.55c-3.632-.026-4.687 2.213-5.042 5.387-.665 5.96 1.522 10.713 5.583 14.271-9.081 4.145-18.55 7.54-27.045 12.576-10.74 6.367-21.772 2.324-33.476 3.854 1.267-2.614 2.014-4.069 2.688-5.556 4.058-8.961 5.155-18.218 2.273-27.7-.493-1.62-2.031-3.784-3.397-4.04-1.451-.273-3.637 1.075-4.853 2.34-2.27 2.358-4.071 5.169-6.138 7.885l-4.565-12.85c1.447-.575 2.812-1.074 4.14-1.657 1.366-.6 2.739-1.207 4.035-1.94 4.25-2.403 5.062-4.859 1.533-8.178-5.882-5.532-10.136-11.781-12.922-19.388-1.64-4.479-4.746-5.018-8.094-1.447-5.498 5.862-11.571 10.502-19.333 12.774a2.393 2.393 0 0 0-.457.2c-3.352 1.813-4.35 4.728-1.595 7.26 6.421 5.9 10.882 12.85 13.98 20.956 1.22 3.187 4.17 3.57 6.95 1.21 2.344-1.99 4.63-4.047 7.41-6.484l3.9 11.976c-5.267-1.245-7.327-.849-7.873 2.426-.966 5.79-2.073 11.894-1.163 17.552.747 4.644-.583 7.063-3.857 9.15-3.465 2.208-4.868 5.015-4.564 9.182.382 5.234.346 10.518.158 15.768-.256 7.117 2.383 10.356 9.583 10.94 2.26.184 4.548.029 7.45.029-.677 1.502-1 2.392-1.458 3.208-10.238 18.291-15.237 37.86-13.913 58.84 1.965 31.144 14.491 56.957 39.048 76.69 4.254 3.42 8.72 7.033 11.716 11.48 11.262 16.723 21.257 33.994 13.23 55.42-1.269 3.387-2.543 6.773-3.748 9.981-7.249.325-10.286 2.458-10.589 7.121-.254 3.918 2.776 7.589 6.653 8.058 4.895.593 7.711-2.35 9.089-9.536.458-.122.967-.424 1.41-.347 2.133.37 4.248.842 6.369 1.278-.889 1.61-1.576 3.38-2.708 4.795-2.338 2.917-3.011 6.02-1.132 9.243 1.877 3.22 5.003 4.517 8.582 3.504 3.532-1 5.394-3.485 5.522-7.396.047-1.44 1.004-3.594 2.104-4.038 1.033-.417 3.361.619 4.092 1.706.73 1.088.803 3.428.092 4.527-2.42 3.743-2.608 7.211.485 10.425 2.612 2.714 5.982 3.077 9.136 1.136 3.755-2.31 4.624-5.711 3.065-9.957-.368-1.003.434-3.363 1.238-3.668 1.476-.557 3.585-.501 4.967.204.7.357.764 2.775.466 4.117-.886 3.99-.37 7.373 3.488 9.425 3.265 1.738 6.533 1.413 9.154-1.294 2.964-3.06 2.93-6.514.62-10-.523-.79-1.087-1.553-1.765-2.515 4.007-4.056 6.572-.706 9.416 1.174-.102.655-.167 1.141-.253 1.624-.88 4.91 1.189 8.451 5.59 9.56 3.609.91 7.553-1.204 8.85-4.742 1.508-4.113-.427-8.013-4.809-10.107-1.001-.479-2.324-1.477-2.457-2.388-.856-5.903-1.733-11.834-2.003-17.783-.287-6.302.933-12.768-.039-18.92-1.122-7.102 1.133-12.7 4.715-18.255 3.966-6.148 3.877-6.586-2.762-10.73.925-1.323 2.139-2.527 2.667-3.98.429-1.179.57-3.418-.083-3.877-4.276-3.007-5.027-7.38-5.424-12.039-.474-5.555-3.254-7.947-9.033-7.441-3.116.273-6.183 1.11-9.444 1.727l-.421-2.68c2.508-1.687 5.335-2.529 5.992-4.216 2.595-6.662-.118-12.25-4.477-16.526 10.703-5.22 21.427-10.456 32.163-15.67.587-.286 1.262-.553 1.897-.556 8.425-.037 16.85-.025 25.848-.025-1.042 2.269-1.8 3.881-2.528 5.507-4.097 9.149-5.182 18.523-1.931 28.16 1.517 4.497 4.455 5.107 7.597 1.524 2.245-2.559 4.228-5.348 6.555-8.326l4.576 12.686c-2.143.847-4.03 1.487-5.826 2.322-7.215 3.359-8.062 5.92-2.359 11.225 4.847 4.507 8.6 9.31 10.267 15.7.083.318.24.622.394.915 2.886 5.478 5.247 6.279 9.448 1.888 5.111-5.34 10.547-9.771 17.77-11.716.153-.041.278-.18.424-.26 4.837-2.614 5.672-5.067 1.682-8.795-5.658-5.289-10.165-11.06-12.274-18.568-.131-.467-.464-.88-.725-1.305-1.881-3.064-4.312-3.496-7.046-1.236-2.422 2.002-4.686 4.197-7.36 6.615l-3.184-10.1c3.018-1.616 6.526-2.414 6.793-3.825 1.12-5.918 2.266-12.158 1.453-18.008-.636-4.569.328-7.085 3.78-9.279 3.515-2.234 5.214-4.93 4.592-9.515-.69-5.087-.48-10.354-.145-15.51.427-6.563-2.034-10.076-8.52-10.742-2.573-.264-5.196-.043-7.5-.043-.343-.727-.507-.908-.468-1.02.212-.622.407-1.265.73-1.831 7.755-13.63 12.753-28.214 13.897-43.852 2.647-36.188-8.708-67.15-37.03-90.357-16.23-13.3-25.763-29.627-29.244-49.907-.672-3.92-1.616-8.114-.87-11.87.85-4.27 3.616-8.129 5.245-12.285 1.16-2.959 2.27-4.891 6.158-4.97 4.206-.085 6.401-3.352 6.244-7.565-.158-4.238-2.665-6.813-6.849-7.211-4.233-.403-6.939 1.835-8.046 5.893-.294 1.08-.224 2.26-.355 3.79-1.902.162-3.727.603-5.457.363-1.107-.153-2.568-1.117-2.945-2.08-.288-.737.594-2.438 1.434-3.025 3.814-2.666 4.401-6.278 2.735-10.098-1.498-3.434-4.744-4.695-8.364-3.863-4.418 1.016-6.168 4.228-5.904 8.574.231 3.82-2.223 3.809-4.426 2.691-2.823-1.43-4.044-3.548-1.456-6.76 2.488-3.089 2.412-7.18-.774-9.355-2.32-1.584-6.31-2.208-9.001-1.405-3.807 1.136-4.39 5.041-3.519 8.803.247 1.065.743 2.074 1.628 4.47-2.907.216-5.227.843-7.202.274-.647-.186-.678-3.51-.498-5.35.36-3.67-.516-6.694-3.895-8.444-3.282-1.7-6.531-1.349-9.126 1.411-2.562 2.726-2.824 5.923-1.046 9.204.599 1.105 1.442 2.077 3.006 4.286-3.117 0-5.498.662-7.029-.196-1.382-.773-2.5-3.182-2.566-4.914-.166-4.454-1.875-7.477-6.32-8.25-4.14-.719-7.161 1.173-8.62 5.134-1.395 3.793.675 7.628 4.903 9.659.935.449 2.383 1.112 2.479 1.826.834 6.216 1.68 12.453 1.993 18.71.297 5.953-.71 12.026.068 17.885.942 7.096-.719 13.082-4.55 18.839-4.22 6.338-4.12 6.528 2.451 10.844-.859 1.334-2.061 2.573-2.474 4.036-.358 1.267-.347 3.536.41 4.07 3.594 2.528 4.583 6.409 5.038 10.106.961 7.825 2.58 9.571 10.414 8.914a22.18 22.18 0 0 0 5.35-1.123c2.6-.9 3.297.229 2.65 2.974-.17.163-.34.325-1.187.607M10.415 288.5c0 65.16-.002 130.32.002 195.479 0 6.679.393 7.058 7.11 7.059h242.969v-5.204H15.857V131.27h-5.442V288.5M213.5 10.962H80.394l.334 5.28h244.79V370.79h5.37v-3.63c0-116.644-.02-233.288.065-349.93.003-4.805-1.768-6.356-6.475-6.34-36.66.13-73.319.071-110.978.071M63.059 404.615c-8.696 12.494-19.616 22.757-32.558 31.443 14.435 9.483 25.846 20.965 35.147 35.14 9.334-14.086 20.764-25.734 35.288-35.165-14.495-9.49-25.936-21.128-35.255-35.143-.9 1.275-1.563 2.212-2.622 3.725m204.877-314.03 7.867 10.484c9.189-14.31 20.963-25.595 35.008-35.204-14.577-9.382-25.82-21.137-35.269-35.083-9.255 14.556-21.053 25.78-34.697 35.054 5.077 4.051 9.823 7.454 14.107 11.363 4.41 4.023 8.37 8.539 12.984 13.385m28.109 392.862c12.22 10.166 29.174 5.362 33.463-9.59 1.967-6.86 1.857-13.8-.438-20.611-1.932-5.734-5.605-10.254-11.66-11.09-5.726-.791-9.766-3.555-13.538-7.446-1.365-1.408-3.056-3.27-4.745-3.437-3.761-.37-7.628.08-11.417.502-.621.07-1.575 1.777-1.442 2.572.112.673 1.51 1.29 2.447 1.642 4.843 1.814 9.722 3.534 15.394 5.578-14.738 9.95-17.951 27.8-8.064 41.88M49.735 58.286 37.74 52.484C50.48 44.889 52.147 33.893 50.076 21.61 48.552 12.573 42.98 6.995 34.917 6.04 24.665 4.826 16.673 8.706 13.084 17.198c-3.58 8.473-3.496 17.191-.158 25.759 2.01 5.162 5.96 9.054 11.33 9.483 6.038.483 9.63 3.942 13.43 7.662 3.847 3.768 8.361 5.634 13.624 3.741 1.512-.544 2.533-2.456 3.779-3.74-1.51-.566-3.019-1.131-5.354-1.817m251.776 355.698 7.767 8.68 15.605-15.464-13.768-13.965-16.065 15.89-1.376-1.578a3944.49 3944.49 0 0 1 7.837 6.437M22.819 79.318c-3.155 2.675-6.31 5.35-9.463 8.026l1.912-1.74 15.443 15.51 14.062-13.847-15.192-16.025c-1.604 1.94-3.933 4.756-6.762 8.076z"/><path fill="#272626" d="M159.648 145.507c.095-2.31-.603-3.439-3.203-2.54a22.18 22.18 0 0 1-5.35 1.124c-7.834.657-9.452-1.09-10.413-8.914-.455-3.697-1.444-7.578-5.037-10.107-.758-.533-.77-2.802-.411-4.07.413-1.462 1.615-2.7 2.474-4.035-6.571-4.316-6.671-4.506-2.452-10.844 3.832-5.757 5.493-11.743 4.551-18.839-.778-5.86.23-11.932-.068-17.885-.312-6.257-1.159-12.494-1.993-18.71-.096-.714-1.544-1.377-2.48-1.826-4.227-2.031-6.297-5.866-4.901-9.659 1.458-3.96 4.48-5.853 8.619-5.133 4.445.772 6.154 3.795 6.32 8.249.065 1.732 1.184 4.141 2.566 4.914 1.531.858 3.912.196 7.03.196-1.565-2.21-2.408-3.181-3.007-4.286-1.778-3.28-1.516-6.478 1.046-9.204 2.595-2.76 5.844-3.11 9.126-1.411 3.38 1.75 4.255 4.773 3.895 8.443-.18 1.841-.149 5.165.498 5.351 1.975.57 4.295-.058 7.202-.274-.885-2.396-1.38-3.405-1.628-4.47-.871-3.762-.288-7.667 3.519-8.803 2.691-.803 6.681-.179 9.001 1.405 3.186 2.175 3.262 6.266.774 9.354-2.588 3.213-1.367 5.33 1.456 6.761 2.203 1.118 4.657 1.13 4.426-2.691-.264-4.346 1.486-7.558 5.904-8.574 3.62-.832 6.866.429 8.364 3.863 1.666 3.82 1.079 7.432-2.735 10.098-.84.587-1.722 2.288-1.434 3.025.377.963 1.838 1.927 2.945 2.08 1.73.24 3.555-.2 5.457-.363.131-1.53.06-2.71.355-3.79 1.107-4.058 3.813-6.296 8.046-5.893 4.184.398 6.691 2.973 6.85 7.211.156 4.213-2.04 7.48-6.245 7.565-3.888.079-4.998 2.011-6.158 4.97-1.629 4.156-4.395 8.014-5.244 12.284-.747 3.757.197 7.951.87 11.87 3.48 20.28 13.013 36.609 29.243 49.908 28.322 23.207 39.677 54.169 37.03 90.357-1.144 15.638-6.142 30.222-13.898 43.852-.322.566-.517 1.21-.73 1.83-.038.113.126.294.468 1.02 2.305 0 4.928-.22 7.5.044 6.487.666 8.948 4.179 8.52 10.743-.334 5.155-.544 10.422.146 15.51.622 4.585-1.077 7.28-4.592 9.514-3.452 2.194-4.416 4.71-3.78 9.279.813 5.85-.333 12.09-1.453 18.008-.267 1.411-3.775 2.21-6.793 3.825l3.184 10.1c2.674-2.418 4.938-4.613 7.36-6.615 2.734-2.26 5.165-1.828 7.046 1.236.261.425.594.838.725 1.305 2.11 7.509 6.616 13.279 12.274 18.568 3.99 3.728 3.155 6.181-1.682 8.796-.146.079-.27.218-.424.26-7.223 1.944-12.659 6.375-17.77 11.715-4.201 4.39-6.562 3.59-9.448-1.888-.154-.293-.31-.597-.394-.914-1.667-6.39-5.42-11.194-10.267-15.701-5.703-5.305-4.856-7.866 2.36-11.225 1.795-.835 3.682-1.475 5.825-2.322l-4.576-12.686c-2.327 2.978-4.31 5.767-6.555 8.326-3.142 3.583-6.08 2.973-7.597-1.524-3.251-9.637-2.166-19.011 1.931-28.16.728-1.626 1.486-3.238 2.528-5.507-8.998 0-17.423-.012-25.848.025-.635.003-1.31.27-1.897.556-10.736 5.214-21.46 10.45-32.163 15.67 4.359 4.277 7.072 9.864 4.477 16.526-.657 1.687-3.484 2.53-5.992 4.216l.42 2.68c3.262-.616 6.329-1.454 9.445-1.727 5.78-.506 8.559 1.886 9.033 7.441.397 4.658 1.148 9.032 5.424 12.039.652.459.512 2.698.083 3.876-.528 1.454-1.742 2.658-2.667 3.981 6.64 4.144 6.728 4.582 2.762 10.73-3.582 5.555-5.837 11.153-4.715 18.256.972 6.151-.248 12.617.039 18.919.27 5.949 1.147 11.88 2.003 17.783.133.91 1.456 1.91 2.457 2.388 4.382 2.094 6.317 5.994 4.81 10.107-1.298 3.538-5.242 5.652-8.851 4.742-4.401-1.109-6.47-4.65-5.59-9.56.086-.483.151-.969.253-1.624-2.844-1.88-5.409-5.23-9.416-1.174.678.962 1.242 1.725 1.765 2.514 2.31 3.487 2.344 6.94-.62 10-2.621 2.708-5.889 3.033-9.154 1.295-3.858-2.052-4.374-5.436-3.488-9.425.298-1.342.234-3.76-.466-4.117-1.382-.705-3.491-.761-4.967-.204-.804.305-1.606 2.665-1.238 3.668 1.559 4.246.69 7.648-3.065 9.957-3.154 1.941-6.524 1.578-9.136-1.136-3.093-3.214-2.904-6.682-.485-10.425.71-1.099.638-3.44-.092-4.527-.73-1.087-3.06-2.123-4.092-1.706-1.1.444-2.057 2.599-2.104 4.038-.128 3.911-1.99 6.396-5.522 7.396-3.579 1.013-6.705-.284-8.582-3.504-1.88-3.222-1.206-6.326 1.132-9.243 1.132-1.414 1.82-3.186 2.708-4.795-2.121-.436-4.236-.908-6.368-1.278-.444-.077-.953.225-1.411.347-1.378 7.186-4.194 10.129-9.089 9.536-3.877-.469-6.907-4.14-6.653-8.058.303-4.663 3.34-6.796 10.589-7.12 1.205-3.21 2.48-6.595 3.748-9.983 8.027-21.425-1.968-38.696-13.23-55.418-2.996-4.448-7.462-8.062-11.716-11.48-24.557-19.734-37.083-45.547-39.048-76.691-1.324-20.98 3.675-40.549 13.913-58.84.457-.816.78-1.706 1.457-3.208-2.901 0-5.189.155-7.449-.029-7.2-.584-9.839-3.823-9.583-10.94.188-5.25.224-10.534-.158-15.768-.304-4.167 1.1-6.974 4.564-9.182 3.274-2.087 4.604-4.506 3.857-9.15-.91-5.658.197-11.763 1.163-17.552.546-3.275 2.606-3.67 7.874-2.426l-3.901-11.976c-2.78 2.437-5.066 4.495-7.41 6.485-2.78 2.36-5.73 1.976-6.95-1.211-3.098-8.105-7.559-15.055-13.98-20.956-2.755-2.532-1.757-5.447 1.595-7.26.146-.078.299-.154.457-.2 7.762-2.272 13.835-6.912 19.333-12.774 3.348-3.571 6.453-3.032 8.094 1.447 2.786 7.607 7.04 13.856 12.922 19.388 3.53 3.32 2.717 5.775-1.533 8.178-1.296.733-2.669 1.34-4.035 1.94-1.328.583-2.693 1.082-4.14 1.657l4.565 12.85c2.067-2.716 3.868-5.527 6.138-7.885 1.216-1.265 3.402-2.613 4.853-2.34 1.366.256 2.904 2.42 3.397 4.04 2.882 9.482 1.785 18.739-2.273 27.7-.674 1.487-1.42 2.942-2.688 5.556 11.704-1.53 22.735 2.513 33.476-3.854 8.496-5.036 17.964-8.431 27.045-12.576-4.06-3.558-6.248-8.311-5.583-14.27.355-3.175 1.41-5.414 5.574-5.24.757-.299.982-.745 1.207-1.19m104.166 234.118-.4.304c.22-.017.44-.034.161.635l2.655 7.43 4.5-5.079c-2.231-.969-4.477-1.944-6.916-3.29M83.972 180.246c.186-4.188.562-8.382.438-12.561-.036-1.182-1.532-2.32-2.928-3.921-.504.083-1.446.154-1.448.25-.12 4.662-.351 9.34-.048 13.982.063.958 2.15 1.783 3.986 2.25m59.846-128.538-.307.044c.091.106.175.289.274.298.103.01.222-.149-.154.592l.544 10.292c1.678-.484 3.05-.88 5.273-1.258 13.307-3.138 26.28-.926 39.585 3.08 4.641 2.306 9.356 4.48 13.89 6.98 2.01 1.11 2.944 1.278 3.241-2.077l2.18-6.035c-7.39.75-12.044-1.766-13.221-9.093-6.292 2.559-11.43 2.267-15.414-3.379-.525-.744-3.007-.764-4.212-.251-4.114 1.75-7.96 2.657-12.253.264-1.33-.741-3.55-.132-5.303.188-3.281.6-6.518 1.438-10.28 1.801-1.201-.406-2.403-.813-3.843-1.446m117.691 286.53c3.146-4.014 3.45-11.908.428-15.847-.548-.714-1.86-.843-3.629-.963-.096 4.136-.422 8.286-.16 12.4.088 1.391 1.663 2.689 3.361 4.41m-86.236-205.236-11.014 7.328 1.649 8.318c7.306-3.027 9.247-8.876 10.809-15.575l-.244-.87c-.168.253-.336.508-1.2.799m-77.071 20.163c-5.994 2.032-11.6 20.2-8.043 27.652.093.194 1.368-.177 2.688-.838 5.02-8.005 7.72-16.507 5.355-26.814M249.598 322c-4.625 7.745-7.74 15.824-5.379 25.758.63 0 1.469.266 1.86-.04 4.956-3.869 9.212-20.198 6.691-25.955-.178-.408-1.732-.215-3.172.237M85.797 198.28c-.94-2.084-10.174-7.117-12.118-6.38-.944.36-2.157 1.394-2.246 2.23-.085.8 1.007 2.347 1.792 2.501 2.24.44 4.602.565 6.886.396 3.086-.227 4.385.93 3.394 4.434l-2.76.936 3.54 4.164-5.855 3.686 6.318 1.49c-2.548 6.691-8.575 2.924-13.45 5.14 6.201 1.043 12.068 3.31 16.103-.168 5.538-4.772 9.597-11.262 14.29-17.015-9.874-13.57-13.852-15.804-23.567-12.333 2.042.938 3.36 1.757 4.795 2.166 6.034 1.717 8.22 4.061 8.846 10.46.11 1.13-1.128 2.392-1.743 3.593-1.038-.587-2.254-1-3.057-1.817-.642-.654-.781-1.802-1.168-3.483m107.069 126.809 20.823-8.385-8.32-10.754c-.983.705-1.88 1.35-3.434 2.122l-29.792 15.877 4.84 7.206c5.117-2.029 10.1-4.004 15.883-6.066M140.89 193.64l29.808-15.639-5.203-7.011c-3.337 1.095-6.378 2.092-10.166 2.815l-26.418 11.454 8.325 10.633c1.088-.741 2.013-1.373 3.654-2.252m-4.495 238.392-2.155 6.197c7.114-.668 12.01 1.43 13.1 8.83 7.214-2.622 12.952-1.489 16.479 5.314 5.539-2.241 10.55-5.434 16.167-1.106.68.525 2.384-.15 3.574-.434 3.567-.847 7.115-1.775 11.216-2.222l3.843 1.402v-11.097c-1.85.502-3.25.882-5.478 1.24-1.953.313-3.9.689-5.862.927-11.629 1.413-23.018.19-34.457-3.845l-15.78-8.163c-.058 1.082-.094 1.74-.647 2.957m36.844-248.06-33.422 15.29c9.413 10.985 17.485 20.98 31.891 23.308l9.725-41.323c-2.406.938-4.917 1.916-8.194 2.725m-2.061 96.121c-.397.803-.973 1.566-1.164 2.415-1.696 7.571-3.162 15.198-5.028 22.726-1.281 5.167-3.09 10.204-4.978 16.325 2.223-1.21 3.46-1.884 5.562-2.523.83-.004 1.79.268 2.47-.053 11.364-5.38 22.694-10.836 34.031-16.274l.32-2.185c-6.871-5.91-13.52-12.115-20.736-17.57-2.505-1.894-6.415-1.93-10.477-2.861M166.205 412.2c-.285-.933-.43-1.94-.875-2.788-5.507-10.49-6.945-21.757-5.61-33.292.786-6.792 2.757-13.447 4.495-20.773 4.942-5.42 10.949-8.355 20.16-7.075-1.665-3.323-2.175-6.324-3.764-7.091-3.19-1.54-7.227-3.119-10.46-2.458-10.839 2.215-17.92 12.244-17.326 23.51a1243.675 1243.675 0 0 0 2.244 33.713c1.667 20.824 16.307 34.71 36.899 35.069 1.709.03 3.43-.66 5.147-1.016l.03-1.825c-5.422-1.564-11.203-2.408-16.167-4.888-5.275-2.637-9.775-6.824-14.773-11.086m11.082-320.229c1.25 3.35 2.862 6.615 3.69 10.068 3.899 16.25 3.261 32.09-5.504 47.506-4.614 4.224-10.284 5.054-16.271 4.346.6 7.417 4.901 10.951 11.3 9.937 11.223-1.778 20.044-12.219 19.406-23.69-.69-12.418-1.593-24.842-2.978-37.198-2.129-18.983-16.826-31.9-35.924-32-2.034-.01-4.072.803-6.108 1.234l-.383 2.25c13.054 2.312 25.961 4.886 32.772 17.547m13.65 93.2-3.967-2.804-10.234 41.254c2.846 0 4.126 0 6.155.107 17.248-2.467 28.102-15.134 41.246-25.037-3.888-4.224-7.106-8.048-10.72-11.452-1.125-1.061-3.808-1.896-4.941-1.284-5.88 3.173-11.463 1.84-17.538-.784m-39.465 131.344 4.053 3.31 10.496-41.95c-2.966.19-4.43.284-6.683.334-17.08 2.437-27.68 15.233-41.107 24.872l13.337 14.231c6.626-3.653 12.979-4.068 19.904-.797m110.12-73.855c-18.75 12.831-40.324 13.76-62.03 14.377 6.214 5.611 12.548 10.682 18.09 16.507 6.28 6.6 11.85 13.878 17.954 21.525 1.407 3.583 2.78 1.403 4.138-.032 11.944-12.622 20.717-27.12 25.642-43.827 1.314-4.462 2.124-9.072 3.165-13.614l-1.311-.493c-1.636 1.773-3.272 3.545-5.647 5.557M80.66 259.643c11.828-8.996 25.705-12.089 40.038-13.586 7.48-.781 15.027-.908 23.795-1.4-16.204-9.862-26.328-24.162-37.574-38.314-2.11-3.108-3.319-.358-4.453.847-10.34 10.99-18.423 23.452-23.381 37.735-2.284 6.576-3.77 13.429-5.746 20.625 2.705-2.27 4.71-3.953 7.321-5.907m16.656 29.5c-13.848 15.39-16.093 32.636-5.354 48.79 4.264 6.413 9.59 12.6 15.694 17.224 22.144 16.768 31.87 39.35 33.257 66.335.07 1.354.426 3.287 1.351 3.915 11.23 7.622 23.659 11.158 37.446 9.92-2.182-.777-4.364-1.554-6.822-2.976-13.429-6.78-20.32-18.25-22.536-32.612-1.082-7.018-.963-14.224-1.342-21.348-1.28-24.028-8.925-45.141-26.173-62.773-7.677-7.847-13.337-17.668-19.894-26.608-.735-1.002-1.342-2.098-2.249-3.53-1.137 1.384-1.95 2.376-3.378 3.664m71.81-219.404c8.13 3.173 13.741 9.044 17.882 16.551 6.028 10.93 6.063 22.928 6.487 34.904.754 21.257 5.607 41.288 19.962 57.703 10.258 11.73 21.082 22.939 28.072 37.675 1.276-1.395 2.144-2.344 3.618-3.706 16.153-18.946 16.242-37.481.005-56.455-3.33-3.89-7.057-7.606-11.166-10.636-19.502-14.38-29.787-34.255-31.342-57.689-.729-10.993-5.824-14.992-14.309-18.012-2.969-1.056-5.941-2.314-9.02-2.805-5.174-.826-10.434-1.113-15.659-1.626l-.227 1.553c1.783.64 3.567 1.28 5.697 2.543m31.44 222.201c5.239 6.466 10.45 12.955 15.744 19.375.896 1.086 2.127 2.644 3.243 2.678 7.693.235 15.398.124 24.077.124-10.205-12.65-19.374-24.687-29.253-36.11-15.13-17.493-34.099-27.017-57.714-24.638-21.075 2.123-36.186 15.351-51.746 28.583l10.098 16.593c8.324-6.298 15.884-12.298 23.739-17.884 7.947-5.652 16.847-8.313 26.761-7.821 14.551.721 25.356 8.091 35.051 19.1m-53.146-51.792c12.185 7.126 25.338 9.797 39.303 8.192 20.705-2.38 35.438-15.486 50.925-28.338l-10.109-16.78c-7.728 5.936-14.64 11.667-21.973 16.798-19.82 13.868-41.889 12.058-58.722-5.196-7.41-7.596-13.768-16.215-20.67-24.313-.902-1.059-2.177-2.506-3.316-2.54-7.548-.227-15.105-.117-23.377-.117 4.565 5.993 8.511 11.285 12.573 16.486 10.244 13.119 20.287 26.445 35.366 35.808m-4.78-128.26c9.24 3.752-3.999 6.203-.137 9.346 1.532.852 3.313 1.79 4.47 3.23.304.38-1.323 2.31-2.143 3.66.33 1.888 1.176 4.329 1.08 6.733-.157 3.969 2.03 4.833 4.985 3.968 4.432-1.297 8.93-2.73 12.986-4.887 13.952-7.42 15.759-11.428 13.043-26.812-2.711-15.362-13.404-25.454-28.19-26.43-1.2-.08-2.466.809-3.702 1.247 1.072 1.004 1.987 2.53 3.245 2.906 3.004.899 6.283.932 9.22 1.968 1.46.515 2.413 2.468 3.596 3.77-1.642.42-3.331 1.319-4.915 1.16-3.542-.352-7.03-1.232-9.106-1.626l-7.241 20.75c.239.092 1.164.45 2.81 1.016m39.965 302.263-.79-3.836c1.18-.2 2.413-.726 3.529-.54 3.746.621 7.45 1.496 10.127 2.056l7.219-20.86c-10.094-.78-4.403-6.107-2.431-9.077l-4.784-5.64c4.123-2.59.832-6.108 1.094-9.169.344-4.03-2.268-5.077-5.407-3.95-5.428 1.951-10.834 4.105-15.948 6.755-8.383 4.344-11.73 10.951-10.373 20.867 2.375 17.345 13.043 29.49 28.364 30.279 1.444.074 2.945-.951 4.42-1.466-1.393-.915-2.673-2.203-4.203-2.669-3.316-1.008-6.76-1.595-10.817-2.75m-54.399-156.46 12.773-6.662c-6.133 0-11.637-.389-17.067.079-12.315 1.06-24.39 3.295-35.303 9.62-8.888 5.15-14.95 12.435-15.357 23.006-.413 10.713 2.285 20.968 6.491 32.117 1.337-14.029 7.003-24.886 16.444-33.194 9.965-8.77 20.87-16.472 32.02-24.966m79.168-9.74-6.903 3.031c6.328 0 11.234.303 16.09-.058 13.15-.98 26.067-3.128 37.662-9.968 7.763-4.58 13.572-10.884 14.736-20.176 1.432-11.427-1.82-22.17-5.706-33.998-.61 1.866-.97 2.568-1.06 3.303-1.239 10.121-5.766 18.8-12.735 25.916-12.248 12.505-25.803 23.451-42.084 31.95m52.269 59.031c2.44.972 4.815 2.267 7.348 2.776 1.206.242 2.713-1.01 4.084-1.585-.773-1.074-1.34-2.723-2.366-3.093-1.635-.589-3.593-.525-5.385-.382-3.923.312-6.819.108-3.71-4.88.26-.416.231-1.403-.079-1.726-3.14-3.273-.346-4.501 1.055-5.194-.752-1.626-1.962-3.044-1.807-4.292.12-.966 1.844-2.2 3.041-2.462 2.246-.491 4.627-.364 6.951-.494l.004-1.784c-3.67 0-7.346-.124-11.004.075-1.124.061-2.522.736-3.245 1.593-4.58 5.43-9.007 10.99-13.497 16.523 8.16 12.729 14.875 16.462 23.095 12.288-1.598-.77-2.928-1.99-4.196-1.928-7.085.346-7.664-5.092-8.817-9.81-.306-1.25.754-2.832 1.188-4.262 1.255.982 2.792 1.76 3.698 2.998 1.21 1.655 1.931 3.668 3.642 5.64M184.34 163.977l-11.324 5.417c1.089 4.848 3.978 6.422 8.462 5.454 9.145-1.973 14.576-11.307 11.83-20.21-2.79 2.93-5.61 5.892-8.968 9.34M160.45 336.92c2.196-1.014 4.616-1.735 6.49-3.169.91-.695 1.375-3.805 1.054-3.978-2.177-1.165-4.736-2.77-6.95-2.49-5.92.75-11.98 7.245-12.845 13.108-.275 1.864.269 3.848.478 6.234 4.21-3.624 7.632-6.57 11.774-9.705m-15.914-4.94c1.288-1.27 2.656-2.47 3.846-3.826 2.923-3.333 1.699-7.45-2.735-7.933-3.113-.339-6.374.68-9.569 1.093l-.411 1.827c2.765 3.08 5.53 6.16 8.87 8.84m61.527-152.387-6.785-11.888c-2.313 2.726-4.42 4.834-6.016 7.277-.632.969-.702 3.13-.04 3.977 3.122 3.99 6.16 4.177 12.841.634M167.181 363.86l-1.514 5.994c2.729-1.868 4.692-3.277 6.72-4.588 6.303-4.074 6.312-4.06 4.11-11.656-5.285 1.06-7.144 5.3-9.316 10.25M69.679 127.224c-3.387 2.442-2.493 5.357.017 7.31 1.278.995 4.154.822 5.889.127 2.37-.948 3.157-3.103 1.525-5.672-1.696-2.67-3.522-4.416-7.431-1.765M266.12 367.739c-2.796 2.575-1.323 5 .746 6.759 1.07.908 3.392 1.286 4.699.768 2.54-1.006 4.63-2.786 2.774-6.17-1.907-3.475-4.281-4.444-8.219-1.357M71.488 118.629l8.413 4.06-3.522-8.339-1.634-.846c-.987 1.51-1.974 3.02-3.257 5.125m199.282 241.04 6.235 2.75-3.666-8.213-1.738-.022c-.507 1.716-1.014 3.432-.831 5.485M57.419 126.661l1.794 5.729 1.354-.316 3.576-7.791c-2.47.805-4.282 1.395-6.724 2.378m14.512 19.074 2.151-2.406-8.35-4.049c1.051 2.686 1.744 4.871 2.814 6.853.225.417 1.832.089 3.385-.398m212.197 229.988c4.717-3.752-1.012-3.863-1.782-6.581l-3.794 8.33c2.126-.656 3.474-1.072 5.576-1.749M87.088 131.458l-2.21-1.555-3.484 7.813 8.178-3.05c-.828-1.146-1.38-1.912-2.485-3.208m173.25 234.634-7.087.37-.255 1.447 4.426 4.61c1.069-2.347 1.823-4 2.916-6.427z"/><path fill="#313131" d="M10.415 288V131.27h5.442v354.562h244.639v5.205H255.5l-237.974-.001c-6.717 0-7.11-.38-7.11-7.06-.004-65.159-.002-130.318-.002-195.977zM214 10.962c37.16 0 73.819.058 110.478-.07 4.707-.017 6.478 1.534 6.475 6.338-.084 116.643-.066 233.287-.065 349.93v3.63h-5.37V16.243H80.729l-.334-5.28H214z"/><path fill="currentColor" d="M63.257 404.328c.861-1.226 1.524-2.163 2.424-3.438 9.32 14.015 20.76 25.653 35.255 35.143-14.524 9.431-25.954 21.08-35.288 35.165-9.301-14.175-20.712-25.657-35.147-35.14 12.942-8.686 23.862-18.95 32.756-31.73zM267.708 90.311c-4.386-4.573-8.346-9.09-12.756-13.112-4.284-3.909-9.03-7.312-14.107-11.363 13.644-9.274 25.442-20.498 34.697-35.054 9.449 13.946 20.692 25.701 35.269 35.083-14.045 9.609-25.82 20.893-35.008 35.204-2.79-3.72-5.329-7.103-8.095-10.758zM295.822 483.154c-9.664-13.788-6.451-31.638 8.287-41.588-5.672-2.044-10.55-3.764-15.394-5.578-.938-.351-2.335-.969-2.447-1.642-.133-.795.82-2.503 1.442-2.572 3.79-.421 7.656-.872 11.417-.502 1.689.166 3.38 2.029 4.745 3.437 3.772 3.89 7.812 6.655 13.537 7.446 6.056.836 9.73 5.356 11.661 11.09 2.295 6.812 2.405 13.751.438 20.61-4.29 14.953-21.243 19.757-33.686 9.3m4.096-23.303c.551 6.059.634 12.212 1.82 18.145.787 3.94 4.026 6.343 8.45 6.443 4.335.099 7.506-1.89 9.032-5.766 3.607-9.162 3.805-18.621-.154-27.582-1.12-2.535-5.193-5.095-7.99-5.186-2.818-.09-6.377 2.32-8.415 4.672-1.763 2.034-1.848 5.522-2.743 9.274zM50.148 58.346c1.922.626 3.432 1.191 4.941 1.757-1.246 1.284-2.267 3.196-3.779 3.74-5.263 1.893-9.777.027-13.625-3.74-3.8-3.721-7.39-7.18-13.428-7.663-5.37-.429-9.32-4.321-11.331-9.483-3.338-8.568-3.422-17.286.158-25.759C16.673 8.706 24.665 4.826 34.917 6.04c8.064.955 13.635 6.533 15.159 15.571 2.07 12.282.403 23.278-12.336 30.873 4.446 2.15 8.22 3.976 12.408 5.862m-8.837-34.954c-.12-.991-.177-1.994-.37-2.971-1.301-6.595-4.63-10.174-9.636-10.408-5.444-.253-9.644 2.845-10.464 9.836-.818 6.969-.471 14.197.364 21.193.531 4.453 3.657 7.753 8.862 7.96 5.4.213 8.784-2.846 9.763-7.53 1.172-5.606 1.107-11.47 1.481-18.08zM301.238 413.755a7085.541 7085.541 0 0 0-7.564-6.208l1.376 1.578 16.065-15.89 13.768 13.965-15.605 15.464c-1.663-1.858-4.715-5.27-8.04-8.91zM23.069 79.066c2.579-3.068 4.908-5.884 6.512-7.824l15.192 16.025-14.062 13.846-15.443-15.51-1.912 1.74c3.154-2.675 6.308-5.35 9.713-8.277z"/><path fill="#F8CA1A" d="M168.78 69.118c-1.784-.64-3.568-1.28-5.35-1.921l.226-1.553c5.225.513 10.485.8 15.66 1.626 3.078.491 6.05 1.749 9.019 2.805 8.485 3.02 13.58 7.019 14.31 18.012 1.554 23.434 11.84 43.308 31.34 57.69 4.11 3.03 7.837 6.745 11.167 10.635 16.237 18.974 16.148 37.509-.489 56.37-7.317-9.244-13.561-18.927-21.137-27.423-9.006-10.1-16.307-20.92-20.354-33.849-3.908-12.486-5.014-25.329-5.197-38.35-.194-13.85-3.42-26.794-14.078-36.584-4.198-3.857-8.685-7.816-15.118-7.458zM173.164 432.996l6.546 2.331c-13.787 1.238-26.216-2.298-37.446-9.92-.925-.628-1.281-2.56-1.351-3.915-1.386-26.986-11.113-49.567-33.257-66.335-6.105-4.623-11.43-10.81-15.694-17.224-10.739-16.154-8.494-33.4 5.866-48.652 7.507 9.402 14.442 18.712 21.521 27.91 3.137 4.076 6.918 7.687 9.799 11.922 11.672 17.163 15.067 36.607 15.193 56.914.064 10.408 1.43 20.634 6.8 29.782 5.02 8.555 11.811 15.14 22.023 17.187z"/><path fill="#F9F9F9" d="M200.329 291.676c-9.458-10.744-20.263-18.114-34.814-18.835-9.914-.492-18.814 2.169-26.761 7.82-7.855 5.587-15.415 11.587-23.739 17.885l-10.098-16.593c15.56-13.232 30.67-26.46 51.746-28.583 23.615-2.379 42.583 7.145 57.714 24.638 9.88 11.423 19.048 23.46 29.253 36.11-8.68 0-16.384.111-24.077-.124-1.116-.034-2.347-1.592-3.243-2.678-5.294-6.42-10.505-12.91-15.981-19.64zM147.093 239.983c-14.752-9.197-24.795-22.523-35.039-35.642-4.062-5.201-8.008-10.493-12.573-16.486 8.272 0 15.83-.11 23.377.117 1.139.034 2.414 1.481 3.316 2.54 6.902 8.098 13.26 16.717 20.67 24.313 16.833 17.254 38.902 19.064 58.722 5.196 7.332-5.131 14.245-10.862 21.973-16.799l10.11 16.781c-15.488 12.852-30.221 25.959-50.926 28.338-13.965 1.605-27.118-1.066-39.63-8.358z"/><path fill="#FAFAFA" d="M142.28 111.784c-1.285-.462-2.21-.82-2.45-.913l7.242-20.749c2.076.394 5.564 1.274 9.106 1.627 1.584.158 3.273-.741 4.915-1.16-1.183-1.303-2.135-3.256-3.595-3.77-2.938-1.037-6.217-1.07-9.22-1.969-1.26-.377-2.174-1.902-3.246-2.906 1.236-.438 2.501-1.326 3.703-1.247 14.785.976 25.478 11.068 28.19 26.43 2.715 15.384.908 19.392-13.044 26.812-4.055 2.157-8.554 3.59-12.986 4.887-2.954.865-5.142 0-4.984-3.968.095-2.404-.752-4.845-1.081-6.733.82-1.35 2.447-3.28 2.143-3.66-1.157-1.44-2.938-2.378-4.47-3.23-3.862-3.143 9.376-5.594-.222-9.45m8.527-14.16 2.586 4.861c.87-.972 2.53-2.014 2.453-2.904-.174-2.005-1.208-3.936-1.893-5.897-1.048 1.04-2.096 2.08-3.146 3.94zM182.939 414.349c3.724.957 7.168 1.544 10.484 2.552 1.53.466 2.81 1.754 4.203 2.67-1.475.514-2.976 1.539-4.42 1.465-15.321-.79-25.989-12.934-28.364-30.28-1.358-9.915 1.99-16.522 10.373-20.866 5.114-2.65 10.52-4.804 15.948-6.754 3.139-1.128 5.75-.08 5.407 3.95-.262 3.06 3.029 6.578-1.094 9.168l4.784 5.64c-1.972 2.97-7.663 8.297 2.43 9.077l-7.218 20.86c-2.678-.56-6.381-1.435-10.127-2.056-1.116-.186-2.35.34-3.529.54.264 1.279.527 2.557 1.123 4.034m7.227-6.2c.521-2.366 1.151-4.722 1.367-7.115.018-.204-3.273-1.425-4.093-.847-2.358 1.66-.961 6.665 2.726 7.962z"/><path fill="#244CC1" d="M107.178 207.025c10.987 13.47 21.111 27.77 37.315 37.632-8.768.492-16.316.619-23.795 1.4-14.333 1.497-28.21 4.59-40.346 13.335 3.755-20.217 13.237-37.362 26.826-52.367zM235.382 294.404c-5.878-6.982-11.448-14.26-17.729-20.86-5.542-5.825-11.876-10.896-18.09-16.507 21.706-.617 43.28-1.546 62.4-14.02-3.8 19.91-12.742 36.942-26.58 51.387z"/><path fill="#FAFAFA" d="M127.88 257.854c-10.822 8.331-21.727 16.033-31.692 24.803-9.44 8.308-15.107 19.165-16.444 33.194-4.206-11.149-6.904-21.404-6.491-32.117.408-10.57 6.47-17.856 15.357-23.006 10.913-6.325 22.988-8.56 35.303-9.62 5.43-.468 10.934-.079 17.067-.079-4.547 2.372-8.66 4.517-13.1 6.825z"/><path fill="#FBFBFB" d="M207.718 247.8c15.94-8.348 29.494-19.294 41.742-31.8 6.969-7.114 11.496-15.794 12.735-25.915.09-.735.45-1.437 1.06-3.303 3.887 11.827 7.138 22.571 5.706 33.998-1.164 9.292-6.973 15.596-14.736 20.176-11.595 6.84-24.512 8.989-37.662 9.968-4.856.361-9.762.058-16.09.058l7.245-3.181z"/><path fill="#C73213" d="M151.067 315.975c-6.52-2.73-12.872-2.316-19.498 1.337l-13.337-14.23c13.428-9.64 24.028-22.436 41.508-24.444-2.624 12.732-5.648 25.035-8.673 37.337z"/><path fill="#F7CA1B" d="M191.34 185.71c5.673 2.086 11.256 3.418 17.136.245 1.133-.612 3.816.223 4.942 1.284 3.613 3.404 6.83 7.228 10.719 11.452-13.144 9.903-23.998 22.57-41.611 24.611 2.694-12.815 5.754-25.204 8.814-37.593z"/><path fill="#284EC0" d="M177.917 91.63c-7.44-12.32-20.348-14.894-33.402-17.207l.383-2.249c2.036-.431 4.074-1.244 6.108-1.234 19.098.1 33.795 13.017 35.924 32 1.385 12.356 2.288 24.78 2.978 37.198.638 11.471-8.183 21.912-19.407 23.69-6.398 1.014-10.7-2.52-11.3-9.937 5.988.708 11.658-.122 16.852-4.706 2.657-3.635 5.541-6.656 6.666-10.231 4.207-13.38 3.998-26.904-.617-40.198-.885-2.552-2.764-4.76-4.185-7.126z"/><path fill="#264DC0" d="M166.364 412.951c4.839 3.51 9.339 7.698 14.614 10.335 4.964 2.48 10.745 3.324 16.167 4.888l-.03 1.825c-1.716.356-3.438 1.046-5.147 1.016-20.592-.36-35.232-14.245-36.9-35.07a1243.675 1243.675 0 0 1-2.243-33.712c-.594-11.266 6.487-21.295 17.326-23.51 3.233-.66 7.27.917 10.46 2.458 1.589.767 2.099 3.768 3.765 7.091-9.212-1.28-15.22 1.654-20.653 7.463-1.53 2.243-2.908 3.988-3.551 5.972-3.98 12.275-4.637 24.806-1.006 37.18 1.457 4.965 4.744 9.393 7.198 14.064z"/><path fill="#F8CA1B" d="m164.707 319.003-4.698 2.557c1.889-6.121 3.697-11.158 4.978-16.325 1.866-7.528 3.332-15.155 5.028-22.726.19-.85.767-1.612 1.744-2.1 11.341 4.256 18.209 12.658 25.467 21.345-2.236 1.368-3.87 2.507-5.622 3.416-8.949 4.644-17.928 9.228-26.897 13.833z"/><path fill="#C83315" d="m174.006 184.143 7.428-2.895c-3.294 13.998-6.51 27.66-10.169 41.1-10.591-5.445-18.937-12.68-25.711-22.454 4.222-2.443 8.045-4.742 11.95-6.893 5.47-3.01 10.998-5.91 16.502-8.858z"/><path fill="#F6F5EF" d="M168.952 69.429c6.26-.669 10.747 3.29 14.945 7.147 10.659 9.79 13.884 22.733 14.078 36.585.183 13.02 1.29 25.863 5.197 38.349 4.047 12.928 11.348 23.748 20.354 33.85 7.576 8.495 13.82 18.178 20.834 27.628-.687 1.241-1.555 2.19-2.83 3.585-6.99-14.736-17.815-25.944-28.073-37.675-14.355-16.415-19.208-36.446-19.962-57.703-.424-11.976-.459-23.974-6.487-34.904-4.14-7.507-9.752-13.378-18.056-16.862z"/><path fill="#F8F6F0" d="M173.026 432.673c-10.074-1.725-16.864-8.309-21.886-16.864-5.369-9.148-6.735-19.374-6.8-29.782-.125-20.307-3.52-39.75-15.192-56.914-2.88-4.235-6.662-7.846-9.799-11.921-7.08-9.2-14.014-18.509-21.214-28.06.608-1.276 1.422-2.268 2.56-3.652.906 1.432 1.513 2.528 2.248 3.53 6.557 8.94 12.217 18.76 19.894 26.608 17.248 17.632 24.893 38.745 26.173 62.773.38 7.124.26 14.33 1.342 21.348 2.215 14.363 9.107 25.832 22.674 32.934z"/><path fill="#F4C81D" d="M148.167 53.53c3.256-.739 6.493-1.578 9.774-2.177 1.752-.32 3.973-.929 5.303-.188 4.293 2.393 8.14 1.486 12.253-.264 1.205-.513 3.687-.493 4.212.251 3.985 5.646 9.122 5.938 15.414 3.379 1.177 7.327 5.831 9.842 13.22 9.093-.883 2.447-1.531 4.24-2.67 6.255-6.01-1.77-11.528-3.758-17.047-5.747-12.899-3.382-25.87-5.594-39.592-2.869-.565-2.853-.716-5.292-.867-7.732zM153.077 437.892c11.185 3.381 22.574 4.605 34.203 3.192 1.963-.238 3.909-.614 6.277-.479.502 2.818.588 5.188.675 7.557-3.556.897-7.104 1.825-10.67 2.672-1.191.283-2.894.96-3.575.434-5.616-4.328-10.628-1.135-16.167 1.106-3.527-6.803-9.265-7.936-16.48-5.313-1.09-7.402-5.985-9.498-13.1-8.831.822-2.362 1.489-4.28 2.751-6.293 5.76 1.921 10.923 3.938 16.086 5.955z"/><path fill="#F2F2F2" d="M259.255 306.926c-1.32-1.915-2.042-3.928-3.252-5.583-.906-1.239-2.443-2.016-3.698-2.998-.434 1.43-1.494 3.012-1.188 4.262 1.153 4.718 1.732 10.156 8.817 9.81 1.268-.062 2.598 1.158 4.196 1.928-8.22 4.174-14.935.441-23.095-12.288 4.49-5.533 8.916-11.093 13.497-16.523.723-.857 2.12-1.532 3.245-1.593 3.658-.2 7.335-.075 11.004-.075l-.004 1.784c-2.324.13-4.705.003-6.95.494-1.198.261-2.922 1.496-3.042 2.462-.155 1.248 1.055 2.666 1.807 4.292-1.401.693-4.195 1.92-1.055 5.194.31.323.34 1.31.079 1.727-3.109 4.987-.213 5.191 3.71 4.879 1.792-.143 3.75-.207 5.385.382 1.027.37 1.593 2.019 2.366 3.093-1.37.575-2.878 1.827-4.084 1.585-2.533-.509-4.908-1.804-7.738-2.832z"/><path fill="#F5C91C" d="m156.078 174.08 9.418-3.09 5.203 7.012c-9.993 5.243-19.9 10.441-30.35 15.415-2.305-2.554-4.069-4.884-6.221-7.727 3.914-2.08 7.348-3.913 10.789-5.732 3.717-1.965 7.44-3.919 11.16-5.877z"/><path fill="#C73416" d="m192.065 325.175-15.083 5.979-4.84-7.206c9.985-5.32 19.889-10.599 30.266-15.611 2.225 2.637 3.978 5.008 5.947 7.673-1.84 1.095-3.35 2.046-4.907 2.912-3.783 2.105-7.588 4.172-11.383 6.253z"/><path fill="#F5F5F5" d="M85.822 199.031c.362.929.5 2.077 1.143 2.73.803.819 2.019 1.23 3.057 1.818.615-1.201 1.854-2.463 1.743-3.593-.625-6.399-2.812-8.743-8.846-10.46-1.435-.409-2.753-1.228-4.795-2.166 9.715-3.47 13.693-1.236 23.567 12.333-4.693 5.753-8.752 12.243-14.29 17.015-4.035 3.478-9.902 1.211-16.104.168 4.876-2.216 10.903 1.551 13.45-5.14l-6.317-1.49 5.855-3.686-3.54-4.164c.64-.218 1.7-.577 3.271-1.307.943-.934 1.375-1.496 1.806-2.058z"/><path fill="#F0F1F4" d="M107.049 206.684c-13.46 15.346-22.942 32.49-27 52.844-2 2.07-4.005 3.752-6.71 6.022 1.976-7.196 3.462-14.05 5.746-20.625 4.958-14.283 13.04-26.745 23.381-37.735 1.134-1.205 2.342-3.955 4.583-.506z"/><path fill="#F2F3F6" d="M235.495 294.737c13.726-14.778 22.667-31.81 26.837-51.84 1.637-2.249 3.273-4.021 4.909-5.794l1.311.493c-1.041 4.542-1.85 9.152-3.165 13.614-4.925 16.706-13.698 31.205-25.642 43.827-1.359 1.435-2.731 3.615-4.25-.3z"/><path fill="#F9F5F2" d="M151.27 316.245c2.822-12.572 5.846-24.875 8.865-37.585 1.458-.501 2.921-.595 5.887-.784l-10.496 41.948c-2.052-1.675-3.052-2.492-4.256-3.579z"/><path fill="#F1EFE4" d="M165.14 319.02c8.536-4.622 17.515-9.206 26.464-13.85 1.753-.91 3.386-2.048 5.622-3.416-7.258-8.687-14.126-17.09-25.07-21.321 3.085.592 6.995.628 9.5 2.521 7.216 5.456 13.865 11.66 20.737 17.571l-.321 2.185c-11.337 5.438-22.667 10.893-34.031 16.274-.68.321-1.64.05-2.902.036z"/><path fill="#EFE8E6" d="M173.623 184.058c-5.12 3.032-10.65 5.932-16.118 8.943-3.906 2.15-7.729 4.45-11.951 6.893 6.774 9.773 15.12 17.009 25.349 22.555-13.6-2.206-21.672-12.201-31.085-23.185 11.577-5.297 22.5-10.294 33.805-15.206z"/><path fill="#FAF7F2" d="M191.139 185.44c-2.859 12.658-5.919 25.047-8.987 37.809-1.29.372-2.57.372-5.416.372l10.234-41.254c2.003 1.416 2.986 2.11 4.169 3.073z"/><path fill="#2A50C2" d="M184.61 163.736a1940.19 1940.19 0 0 0 8.697-9.098c2.747 8.904-2.684 18.238-11.829 20.211-4.484.968-7.373-.606-8.462-5.454 3.752-1.795 7.538-3.606 11.594-5.66z"/><path fill="#254CC0" d="M160.09 337.015c-3.78 3.04-7.203 5.986-11.413 9.61-.21-2.386-.753-4.37-.478-6.234.865-5.863 6.924-12.358 12.844-13.108 2.215-.28 4.774 1.325 6.95 2.49.322.173-.144 3.283-1.053 3.978-1.874 1.434-4.294 2.155-6.85 3.264z"/><path fill="#E0E3EB" d="M177.602 91.8c1.736 2.196 3.615 4.404 4.5 6.956 4.615 13.294 4.824 26.819.617 40.198-1.125 3.575-4.01 6.596-6.403 10.023 7.922-14.848 8.56-30.688 4.661-46.938-.828-3.453-2.44-6.717-3.375-10.239z"/><path fill="#E2E5EC" d="M166.285 412.576c-2.375-4.296-5.662-8.724-7.119-13.688-3.631-12.375-2.973-24.906 1.006-37.181.643-1.984 2.02-3.73 3.4-5.668-1.095 6.634-3.066 13.289-3.852 20.081-1.335 11.535.103 22.802 5.61 33.292.445.848.59 1.855.954 3.164z"/><path fill="#2A50C2" d="M144.25 332.18c-3.052-2.88-5.817-5.96-8.582-9.04l.411-1.826c3.195-.413 6.456-1.432 9.57-1.093 4.433.483 5.657 4.6 2.734 7.933-1.19 1.356-2.558 2.556-4.133 4.026z"/><path fill="#284EC0" d="M205.855 179.922c-6.471 3.215-9.509 3.028-12.631-.962-.662-.846-.592-3.008.04-3.977 1.596-2.443 3.703-4.551 6.016-7.277 2.302 4.034 4.544 7.96 6.575 12.216z"/><path fill="#EFC41D" d="M244.037 347.078c-2.18-9.253.936-17.332 6.058-24.952 1.854 9.336.332 17.787-6.058 24.952z"/><path fill="#F4C81D" d="M98.42 153.934c2.147 9.538-.552 18.04-5.954 25.883-1.793-9.604.47-18.14 5.953-25.883z"/><path fill="#F2F2F2" d="M176.392 133.442c-1.237 6.33-3.178 12.179-10.484 15.206l-1.649-8.318c3.838-2.553 7.426-4.94 11.467-7.227.453.1.666.339.666.339z"/><path fill="#EFEDE4" d="M155.704 173.943c-3.347 2.096-7.07 4.05-10.787 6.015-3.44 1.82-6.875 3.652-10.79 5.732 2.153 2.843 3.917 5.173 5.864 7.85-.741.98-1.666 1.612-2.754 2.353l-8.325-10.633c9.14-3.963 17.78-7.709 26.792-11.317z"/><path fill="#F1F1F1" d="M167.338 363.506c2.015-4.596 3.874-8.836 9.16-9.895 2.201 7.597 2.192 7.582-4.112 11.656-2.027 1.31-3.99 2.72-6.72 4.588.646-2.557 1.08-4.275 1.672-6.349z"/><path fill="#EEE6E4" d="M192.465 325.132c3.395-2.038 7.2-4.105 10.983-6.21 1.557-.866 3.068-1.817 4.907-2.912-1.97-2.665-3.722-5.036-5.62-7.738.754-.974 1.651-1.618 2.635-2.323l8.32 10.754c-7.28 2.931-14.052 5.658-21.225 8.429z"/><path fill="#F5F5F5" d="M70.03 127.02c3.558-2.447 5.384-.7 7.08 1.97 1.632 2.568.845 4.723-1.525 5.671-1.735.695-4.61.868-5.89-.127-2.51-1.953-3.403-4.868.336-7.515zM266.424 367.468c3.634-2.816 6.008-1.847 7.915 1.628 1.857 3.384-.235 5.164-2.774 6.17-1.307.518-3.63.14-4.699-.768-2.07-1.76-3.542-4.184-.442-7.03z"/><path fill="#EAE6D4" d="M98.31 153.55c-5.374 8.127-7.637 16.663-6.142 26.543-.641.547-1.916.918-2.009.724-3.556-7.452 2.05-25.62 8.151-27.268z"/><path fill="#F1EFE4" d="M244.128 347.419c6.3-7.506 7.821-15.957 6.23-25.562.68-.308 2.234-.501 2.412-.093 2.52 5.757-1.735 22.086-6.69 25.955-.392.306-1.23.04-1.952-.3z"/><path fill="#EEE" d="M85.81 198.655c-.42.938-.85 1.5-1.505 2.213.191-2.913-1.108-4.069-4.194-3.842a26.105 26.105 0 0 1-6.886-.396c-.785-.154-1.877-1.701-1.792-2.502.089-.835 1.302-1.87 2.246-2.228 1.944-.738 11.178 4.295 12.13 6.755zM194.505 448.387c-.36-2.594-.446-4.964-.534-7.77 1.399-.818 2.8-1.198 4.65-1.7v11.097c-1.228-.447-2.536-.925-4.116-1.627z"/><path fill="#DFB821" d="M260.706 337.857c-.895-1.34-2.47-2.638-2.558-4.03-.262-4.113.064-8.263.683-12.2 3.665 5.315 2.655 10.782 1.875 16.23z"/><path fill="#F6F5EF" d="M147.915 53.342c.403 2.629.554 5.068.693 7.912-1.384.8-2.755 1.196-4.433 1.68-.192-3.649-.368-6.97-.315-10.675.228-.383.196-.324.196-.324 1.202.406 2.404.813 3.859 1.407z"/><path fill="#F4C81D" d="M82.052 164.207c.826 1.158 2.322 2.296 2.358 3.478.124 4.18-.252 8.373-.932 12.427-3.09-5.257-3.025-10.536-1.426-15.905z"/><path fill="#F0ECDD" d="M261.108 338.047c.378-5.638 1.388-11.105-1.872-16.56.842.06 2.153.19 2.7.904 3.022 3.94 2.719 11.833-.828 15.656z"/><path fill="#F1EFE4" d="M81.767 163.985c-1.314 5.591-1.38 10.87 1.37 16.336-1-.542-3.088-1.367-3.151-2.325-.303-4.642-.072-9.32.048-13.982.002-.096.944-.167 1.733-.029z"/><path fill="#F0ECDD" d="M188.83 64.444c5.315 1.677 10.833 3.666 16.689 5.798.348 2.772-.585 2.603-2.596 1.494-4.534-2.5-9.25-4.674-14.094-7.292z"/><path fill="#E3E3E3" d="M71.635 118.33a295.391 295.391 0 0 1 3.11-4.826l1.634.846 3.522 8.34c-3.598-1.737-6.006-2.9-8.266-4.36z"/><path fill="#EFEDE4" d="M152.95 437.565c-5.036-1.69-10.2-3.707-15.7-5.908-.3-.842-.265-1.5-.207-2.581 5.405 2.796 10.593 5.48 15.907 8.49z"/><path fill="#E3E3E3" d="M270.425 359.5c.162-1.884.669-3.6 1.176-5.316l1.738.022 3.666 8.213a1011.217 1011.217 0 0 1-6.58-2.918zM57.734 126.465c2.127-.787 3.938-1.377 6.41-2.182l-3.577 7.791-1.354.316c-.598-1.91-1.196-3.82-1.479-5.925z"/><path fill="#EEE" d="M71.64 145.986c-1.262.236-2.87.564-3.094.147-1.07-1.982-1.763-4.167-2.814-6.853l8.35 4.05c-.769.86-1.46 1.632-2.443 2.656zM283.75 375.853c-1.724.547-3.072.963-5.198 1.62l3.794-8.331c.77 2.718 6.499 2.83 1.405 6.711zM87.363 131.723c.828 1.031 1.381 1.797 2.209 2.943l-8.178 3.05 3.484-7.813c.78.55 1.495 1.052 2.485 1.82zM264.007 379.997l6.722 2.919-4.499 5.08c-1.019-2.851-1.837-5.14-2.421-7.744.233-.313.198-.255.198-.255z"/><path fill="#F1F1F1" d="M260.167 366.478c-.923 2.04-1.677 3.694-2.746 6.04l-4.426-4.609.255-1.448c2.362-.123 4.725-.246 6.917.017z"/><path fill="#FEFEFE" d="M159.372 145.725c.051.228-.174.674-.592.912-.023-.37.146-.532.592-.912z"/><path fill="#EEE" d="M264.058 379.91a4.734 4.734 0 0 0-.644.02c.133-.101.267-.203.497-.119.096.186.131.128.147.098z"/><path fill="#F2F2F2" d="M176.074 133.084c.063-.373.231-.628.4-.882.08.29.161.58.08 1.055-.162.185-.375-.053-.48-.173z"/><path fill="#F6F5EF" d="M144.104 51.846c-.097.055-.216.213-.319.204-.1-.01-.183-.192-.274-.298.103-.015.205-.03.426.07.12.113.151.054.167.024z"/><path fill="#FEFCFB" d="M299.952 459.399c.86-3.299.946-6.787 2.71-8.821 2.037-2.352 5.596-4.762 8.414-4.672 2.797.09 6.87 2.651 7.99 5.186 3.96 8.961 3.761 18.42.154 27.582-1.526 3.877-4.697 5.865-9.033 5.766-4.423-.1-7.662-2.503-8.45-6.443-1.185-5.933-1.268-12.086-1.785-18.598zM41.36 23.82c-.423 6.181-.358 12.046-1.53 17.652-.98 4.684-4.363 7.743-9.763 7.53-5.205-.207-8.33-3.507-8.862-7.96-.835-6.996-1.182-14.224-.364-21.193.82-6.991 5.02-10.09 10.464-9.836 5.006.234 8.335 3.813 9.636 10.408.193.977.25 1.98.419 3.4z"/><path fill="#2C2C2C" d="M150.809 97.215c1.049-1.45 2.097-2.49 3.145-3.53.685 1.961 1.719 3.892 1.893 5.897.077.89-1.582 1.932-2.453 2.904-.862-1.62-1.724-3.241-2.585-5.27z"/><path fill="#373737" d="M189.81 408.239c-3.331-1.387-4.728-6.392-2.37-8.052.82-.578 4.111.643 4.093.847-.216 2.393-.846 4.75-1.724 7.205z"/></svg>