<svg xmlns="http://www.w3.org/2000/svg" viewBox="0 0 336 496" xml:space="preserve"><path fill="currentColor" d="M337 448.625c-4.133.95-6.184 3.48-7.434 7.367-3.307 10.283-6.966 20.453-10.381 30.703-.981 2.945-2.22 4.842-5.88 4.784-3.386-.054-5.088-1.23-6.162-4.409-3.459-10.235-7.155-20.39-10.761-30.574-.99-2.795-1.544-5.845-4.977-6.972-1.493-.49-1.825-1.867-1.43-3.3.396-1.44 1.702-1.438 2.845-1.457 3.66-.063 7.325-.166 10.98-.023 1.83.072 4.368-.948 5.218 1.583 1.047 3.117-2.429 2.932-3.99 4.614.568 3.188.408 6.737 5.426 7.099 11.163.805 12.08.458 13.6-6.654-.2-1.243-1.35-1.397-2.205-1.772-1.378-.606-2.227-1.423-1.935-3.028.323-1.78 1.769-1.875 3.076-1.811 4.438.217 8.955-.927 13.661.977.349.998.349 1.748.349 2.873m-23.343 29.385c.439.574 1.251 1.064 1.591.38 2.256-4.54 4.03-9.238 4.4-14.778-3.69-.07-6.769-.82-10.147.543.372 4.767 2.456 8.941 4.156 13.855zM109.315 254.713c-2.006-1.467-4.177-2.183-5.578-5.084 28.007-18.302 51.313-41.633 70.32-70.894 18.891 29.161 42.195 52.486 71.396 71.502-29.249 18.862-52.347 42.194-71.457 71.344-17.579-27.088-38.735-49.105-64.68-66.868zM47.94 33.2c1.523 4.281 2.911 8.196 4.271 12.12.774 2.232 1.585 4.423 4.049 5.362 1.706.65 2.252 1.931 1.8 3.582-.446 1.627-1.944 1.672-3.252 1.697-3.49.069-6.99.16-10.473-.02-1.962-.103-4.759.937-5.41-2.081-.672-3.123 2.656-2.732 4.49-3.998-1.073-3.822-.972-7.783-6.968-7.674-11.126.202-11.132-.098-12.548 7.397.492 1.39 1.978.956 2.92 1.538 1.146.71 1.5 1.717 1.234 2.982-.246 1.17-1.183 1.665-2.187 1.678-3.982.05-7.967.025-11.949-.082-1.027-.028-1.866-.645-2.034-1.833-.182-1.291.146-2.549 1.442-2.816 3.71-.765 4.225-3.888 5.18-6.663a3852.829 3852.829 0 0 0 10.583-31.132c.924-2.763 2.188-4.535 5.567-4.57 3.404-.035 5.123 1.247 6.163 4.42 2.172 6.627 4.632 13.16 7.121 20.093m-18.936-.904c-.408 1.561-1.433 3.617.898 4.15 2.671.611 5.59 1.052 8.178-.537.37-.227.54-1.3.356-1.824-1.591-4.524-2.502-9.336-5.488-14.231a2867.807 2867.807 0 0 0-3.944 12.442zM32.77 107.033c-4.639-6.538-10.184-11.721-17.029-16.577 6.998-5.47 12.828-11.209 18.199-18.369 5.678 6.865 11.055 13.081 18.683 18.137-7.26 4.935-12.705 10.419-17.334 16.703-.543.738-1.43.742-2.52.106zM316.753 395.188c4.336 5.937 9.582 10.486 15.773 15.033-7.389 5.13-13.14 10.775-18.236 18.084-5.898-6.452-10.722-13.226-19.278-17.694 7.413-5.205 12.83-10.682 17.567-16.854 1.57-2.046 2.844-.03 4.174 1.43z"/></svg>