<svg xmlns="http://www.w3.org/2000/svg" viewBox="0 0 340 500" xml:space="preserve"><path fill="#FEFEFD" d="M1 128V1.019h339.93v499.837H1V128m272.082 21.424c-7.502-8.975-17.117-13.946-28.618-14.796-.21-.658-.393-.965-.392-1.272.022-7.497.024-14.994.117-22.491.056-4.403-1.094-7.424-6.36-7.5-5.626-.08-8.9-3.263-11.023-8.5-2.098-5.174-5.185-9.942-7.72-14.948-.517-1.02-.976-2.45-.664-3.442 1.241-3.946 2.758-7.808 4.25-11.67.95-2.46 2.263-3.887 5.482-3.786 4.134.13 6.778-2.396 7.017-6.81.231-4.274-2.42-7.646-6.362-8.174-4.006-.536-7.548 1.893-8.56 5.975-.307 1.237-.349 2.54-.497 3.692-.733.269-1.188.477-1.665.603-3.095.817-6.33 1.834-8.534-1.585-2.305-3.578 2.128-4.095 2.88-6.124 1.047-2.82 1.911-6.75.688-9.056-1.064-2.007-5.433-3.718-7.787-3.172-2.31.535-4.146 3.936-5.728 6.378-.656 1.012-.109 2.803-.109 5.787-2.977-.635-5.787-.543-7.64-1.828-1.793-1.244-3.357-3.572-.924-6.343 2.926-3.332 2.768-7.098-.353-10.313-2.62-2.699-5.904-3.043-9.145-1.166-3.97 2.3-4.309 5.839-3.214 9.967.33 1.247-.02 3.657-.779 4.018-1.863.885-4.372 1.63-6.206 1.068-2.642-.808-3.243-3.125-1.993-6 1.627-3.745.193-6.952-3.128-9.014-3.4-2.11-6.882-1.458-9.567 1.335-2.757 2.868-2.685 6.288-.582 9.615.596.944 1.378 1.77 2.016 2.576-1.401 3.075-3.46 4.569-6.45 2.953-2.5-1.352-6.03-1.756-4.946-6.552.891-3.947-1.457-7.14-5.626-8.132-4.083-.97-7.271.562-8.928 4.483-1.6 3.786.206 7.629 3.706 9.805 1.698 1.056 3.537 2.838 4.037 4.644.778 2.815.99 6.019.502 8.898-.726 4.287.012 7.4 4.569 8.909-3.855 4.611-4.69 9.63-3.047 14.834 2.289 7.252.115 13.16-4.983 18.154-2.86 2.801-3.258 5.413-.712 8.297-4.177 5.122-5.445 7.954-3.404 11.428 1.985 3.375.582 5.434-.99 8.052-4.464 7.432-7.715 15.12-4.67 24.105.348 1.03-.44 2.921-1.312 3.818a1681.38 1681.38 0 0 1-26.033 26.19c-.844.83-2.668 1.333-3.81 1.055-2.841-.69-5.55-1.92-8.35-2.948 0-5.916.412-11.614-.113-17.225-.56-5.972 1.207-10.17 6.45-13.217 3.22-1.873 2.865-4.463.132-6.773-1.112-.94-2.255-1.841-3.337-2.722 4.831-9.078 4.844-12.309.165-22.977.998-.799 2.005-1.66 3.067-2.445 3.03-2.241 2.703-4.42.147-6.87-4.663-4.47-9.284-8.991-13.769-13.64-2.483-2.574-4.681-2.512-7.096-.084-4.554 4.578-9.087 9.178-13.719 13.678-2.362 2.295-2.548 4.474-.121 6.73 1.072.996 2.273 1.853 3.571 2.898-5.263 7.668-5.075 15.275-.011 22.695-7.199 5.858-7.155 6.158-.102 12.102 1.3 1.096 3.005 2.725 3.04 4.145.256 10.626.139 21.262.139 31.175-3.86 1.558-7.21 2.56-10.204 4.209-3.761 2.072-2.935 5.882-3.433 9.52-.928 6.783-2.467 13.336 1.072 19.801.267.489.075 1.247.043 1.878-.33 6.306 1.18 8.71 6.986 10.975 1.812.706 3.661 1.317 5.546 1.99 0 10.589-.735 20.985.222 31.223.832 8.91-2.5 14.172-10.307 17.187-4.178 1.613-5.387 4.454-4.696 8.607 1.36 8.183 1.885 16.593 4.143 24.513 2.527 8.866 5.862 17.677 10.153 25.824 7.162 13.599 18.659 21.83 34.563 23.287 0 7.816.042 15.29-.013 22.763-.046 6.359.956 7.635 7.044 8.343 4.901.57 8.247 2.941 10.049 7.7 1.58 4.174 2.754 8.964 5.63 12.076 4.06 4.395 3.557 8.243 1.417 12.808-.49 1.046-.737 2.204-1.203 3.264-1.514 3.434-2.538 6.844-7.811 6.566-3.907-.206-6.684 4.262-6.14 8.239.576 4.22 3.203 6.643 7.382 6.716 4.126.072 6.893-2.069 7.677-6.347.745-4.06 6.675-6.362 9.671-3.546 1.698 1.596 2.844 3.9-.071 5.73-4.093 2.569-4.952 6.269-3.038 10.354 1.553 3.316 4.591 4.735 8.313 3.814 4.396-1.087 6.123-4.091 6.038-8.505-.02-1.088.813-3.12 1.296-3.132 2.107-.054 4.75-.184 6.208.967 1.611 1.273 3.487 3.476.973 6.29-2.924 3.272-2.881 7.045.27 10.305 2.792 2.89 6.233 3.278 9.511 1.032 3.63-2.486 4.532-6 2.575-10.077-.278-.578-.58-1.144-.88-1.734 2.12-2.813 4.505-4.955 8.078-3.272 3.171 1.493 2.93 4.036 1.885 7.095-1.224 3.581.43 6.592 3.667 8.386 3.311 1.835 6.648 1.144 9.143-1.49 2.682-2.828 2.772-6.169.794-9.672-.734-1.301-.727-3.02-1.059-4.549 1.977-.28 4.172-1.238 5.883-.689 3.03.973 5.164 2.691 4.462 6.99-.648 3.964 2.03 6.973 6.293 7.583 3.927.563 6.905-1.084 8.263-4.89 1.431-4.01.292-7.846-3.605-9.17-4.2-1.428-4.423-4.337-4.677-7.583-.195-2.483.267-5.051-.162-7.475-.503-2.836-1.656-5.557-2.928-9.604 2.783-3.185 2.855-8.581 1.378-14.06-1.68-6.234-.152-11.52 4.186-16.057 2.684-2.808 4.073-5.057 2.16-9.532-1.04-2.433 2.158-6.643 3.325-10.092.173-.513-.13-1.424-.53-1.855-2.302-2.471-.724-4.392.605-6.57 4.679-7.668 8.374-15.546 5.133-24.938-.353-1.023.49-2.925 1.378-3.836a1667.49 1667.49 0 0 1 26.048-26.169c.835-.82 2.665-1.254 3.83-.986 2.846.653 5.573 1.823 8.474 2.829 0 5.608-.342 11.127.092 16.585.476 5.97-.663 10.596-6.382 13.74-3.044 1.672-2.742 4.571-.261 6.974 1.04 1.008 2.211 1.88 3.359 2.845-5.287 7.704-4.967 15.15.024 22.624-1.24.95-2.36 1.67-3.317 2.565-2.51 2.35-2.498 4.626.053 7.101 4.635 4.498 9.194 9.081 13.63 13.776 2.32 2.457 4.39 2.505 6.689.176 4.654-4.714 9.25-9.49 13.999-14.107 2.422-2.355 2.46-4.51.085-6.748-1.064-1.002-2.298-1.825-3.543-2.799 5.058-7.653 5.082-15.144.19-22.51.48-.583.734-1.018 1.099-1.32 5.527-4.576 5.39-5.6-.329-10.384-1.756-1.47-3.927-3.729-4.006-5.702-.403-10.14-.186-20.306-.186-30.46 3.043-1.004 6.288-1.353 8.554-3.026 2.278-1.682 4.553-4.482 5.104-7.149 1.066-5.16 1.432-10.598 1.13-15.867-.29-5.088-1.519-10.184-2.907-15.115-.455-1.617-2.516-3.06-4.174-3.993-2.266-1.276-4.85-1.988-7.709-3.102v-28.781c0-13.559.06-13.46 11.52-20.38 1.584-.956 3.046-3.423 3.142-5.265.205-3.944-.32-7.967-.899-11.906-2.583-17.58-6.982-34.503-18.863-49.293M279.5 15.997h47.639V370.78h5.023v-3.587c0-116.625.002-233.25-.005-349.875 0-5.824-.548-6.313-6.775-6.313-79.472-.003-158.943-.002-238.415-.002h-5.06c.14 1.999.24 3.403.353 4.994H279.5m-22.12 475h4.577v-5.063H17.084V131.218h-5.08v5.1c0 115.829-.001 231.657 0 347.485 0 7.103.095 7.193 7.41 7.193H257.38M98.777 438.372l3.179-2.554c-14.16-9.285-25.545-20.731-34.96-35.04-9.384 14.407-20.946 25.835-35.186 35.263 14.475 9.424 25.81 21.07 35.252 35.097 8.74-13.124 18.856-23.8 31.715-32.766M268.195 89.313l8.992 11.637c9.32-14.217 20.879-25.675 35.037-35.009-14.463-9.443-25.823-20.915-35.231-35.204-9.361 14.445-20.998 25.824-34.008 34.553 8.447 7.99 16.619 15.72 25.21 24.023m56.222 398.545h7.38l.869-1.409c-1.006-.953-1.884-2.489-3.044-2.746-2.958-.654-3.52-2.331-3.483-5.025.123-8.995.148-17.995-.01-26.99-.053-3.06.458-5.094 3.939-5.696.96-.166 1.666-1.797 3.246-3.638h-22.266c1.231 1.716 1.87 3.509 2.69 3.597 3.78.404 4.109 2.536 4.391 5.8.45 5.199-1.932 8.467-5.987 11.568-2.334-4.281-4.645-8.483-6.921-12.704-5.121-9.493-6.158-9.987-17.24-7.773.364 1.024.586 2.792 1.088 2.876 4.547.758 5.82 4.603 7.758 7.814 3.25 5.383 6.45 10.798 10.381 17.39-5.164 4.171-10.642 8.504-15.982 13-.846.713-1.072 2.163-1.808 3.755h16.296l.92-1.065-4.335-4.581 15.684-18.225c0 5.933-.105 10.595.042 15.25.08 2.542-.607 3.958-3.315 4.595-1.21.285-2.094 1.952-3.126 2.992l.93 1.215h11.903M26.008 25.958c0-3.328.1-6.66-.031-9.984-.11-2.78.18-4.853 3.708-5.2.997-.098 1.825-1.912 3.387-3.685H10.54c1.766 1.898 2.588 3.597 3.601 3.721 3.488.426 3.734 2.561 3.712 5.309a1519.23 1519.23 0 0 0 .007 26.962c.027 2.773-.245 4.866-3.71 5.278-.98.116-1.777 1.762-3.404 3.507h22.318c-1.214-1.64-1.86-3.298-2.545-3.315-5.157-.124-4.202-3.721-4.601-7.001-.608-4.989 2.678-7.45 5.831-10.631 3.185 5.918 6.107 11.693 9.398 17.25.976 1.648 2.835 3.487 4.562 3.82 3.18.613 6.563.175 9.86.175l.774-1.013c-9.609-6.617-12.41-17.824-19.529-26.66 6.043-4.301 8.211-12.516 16.45-14.055.486-.091.622-2.059.966-3.32H37.745c-.256.45-.511.902-.766 1.353l4.99 3.676c-5.05 5.87-10.12 11.767-15.96 18.557V25.96M319.33 415.844l9.606-8.507-1.675 1.67-15.233-15.324-13.622 13.647 14.91 15.424-1.143 1.464c2.22-2.624 4.439-5.247 7.157-8.374M32.87 70.763c-.559-.018-1.385-.287-1.637-.018-5.29 5.643-10.515 11.346-14.071 15.21l14.837 15.244L47.26 86.312c-3.879-4.14-8.947-9.551-14.391-15.55z"/><path fill="#262625" d="M273.323 149.684c11.64 14.53 16.04 31.453 18.622 49.033.579 3.939 1.104 7.962.9 11.906-.097 1.842-1.559 4.309-3.143 5.265-11.46 6.92-11.52 6.821-11.52 20.38v28.78c2.86 1.115 5.443 1.827 7.71 3.103 1.657.933 3.718 2.376 4.173 3.993 1.388 4.931 2.616 10.027 2.907 15.115.302 5.269-.064 10.708-1.13 15.867-.551 2.667-2.826 5.467-5.104 7.149-2.266 1.673-5.511 2.022-8.554 3.027 0 10.153-.217 20.319.186 30.46.079 1.972 2.25 4.232 4.006 5.701 5.719 4.784 5.856 5.808.329 10.384-.365.302-.62.737-1.098 1.32 4.891 7.366 4.867 14.857-.19 22.51 1.244.974 2.478 1.797 3.542 2.799 2.375 2.237 2.337 4.393-.085 6.748-4.75 4.618-9.345 9.393-14 14.107-2.298 2.329-4.367 2.281-6.689-.176-4.435-4.695-8.994-9.278-13.63-13.776-2.55-2.475-2.562-4.75-.052-7.1.957-.896 2.077-1.617 3.317-2.566-4.991-7.474-5.31-14.92-.024-22.624-1.148-.964-2.319-1.837-3.36-2.845-2.48-2.403-2.782-5.302.262-6.975 5.72-3.143 6.858-7.769 6.382-13.74-.434-5.457-.092-10.976-.092-16.584-2.9-1.006-5.628-2.176-8.474-2.83-1.165-.267-2.995.167-3.83.987a1667.49 1667.49 0 0 0-26.048 26.17c-.887.91-1.731 2.812-1.378 3.835 3.241 9.392-.454 17.27-5.133 24.939-1.329 2.177-2.907 4.098-.606 6.57.401.43.704 1.341.53 1.854-1.166 3.45-4.363 7.659-3.323 10.092 1.912 4.475.523 6.724-2.16 9.532-4.339 4.536-5.867 9.823-4.187 16.058 1.477 5.478 1.405 10.874-1.378 14.06 1.272 4.046 2.425 6.767 2.928 9.603.43 2.424-.033 4.992.162 7.475.254 3.246.477 6.155 4.677 7.583 3.897 1.324 5.036 5.16 3.605 9.17-1.358 3.806-4.336 5.453-8.263 4.89-4.263-.61-6.941-3.619-6.293-7.584.702-4.298-1.432-6.016-4.462-6.989-1.711-.549-3.906.41-5.883.69.332 1.528.325 3.247 1.06 4.548 1.977 3.503 1.887 6.844-.795 9.673-2.495 2.633-5.832 3.324-9.143 1.49-3.238-1.795-4.891-4.806-3.667-8.387 1.046-3.059 1.286-5.602-1.885-7.095-3.573-1.683-5.958.46-8.078 3.272.3.59.602 1.156.88 1.734 1.957 4.078 1.056 7.591-2.575 10.077-3.278 2.246-6.719 1.857-9.511-1.032-3.151-3.26-3.194-7.033-.27-10.305 2.514-2.814.638-5.017-.973-6.29-1.458-1.151-4.1-1.021-6.208-.967-.483.013-1.317 2.044-1.296 3.132.085 4.414-1.642 7.418-6.038 8.505-3.722.92-6.76-.498-8.313-3.814-1.914-4.085-1.055-7.785 3.038-10.354 2.915-1.83 1.769-4.134.071-5.73-2.996-2.816-8.926-.514-9.67 3.546-.785 4.278-3.552 6.419-7.678 6.347-4.18-.073-6.806-2.496-7.383-6.716-.543-3.977 2.234-8.445 6.14-8.239 5.274.278 6.298-3.132 7.812-6.566.466-1.06.713-2.218 1.203-3.264 2.14-4.565 2.644-8.413-1.417-12.808-2.876-3.112-4.05-7.902-5.63-12.076-1.802-4.759-5.148-7.13-10.049-7.7-6.088-.708-7.09-1.984-7.044-8.343.055-7.473.013-14.947.013-22.763-15.904-1.457-27.401-9.688-34.563-23.287-4.29-8.147-7.626-16.958-10.153-25.824-2.258-7.92-2.783-16.33-4.143-24.513-.69-4.153.518-6.994 4.696-8.607 7.808-3.015 11.14-8.277 10.307-17.187-.957-10.238-.222-20.634-.222-31.223-1.885-.673-3.734-1.284-5.546-1.99-5.805-2.265-7.315-4.669-6.986-10.975.032-.63.224-1.39-.043-1.878-3.54-6.465-2-13.018-1.072-19.8.498-3.64-.328-7.45 3.433-9.521 2.994-1.65 6.345-2.65 10.204-4.209 0-9.913.117-20.549-.14-31.175-.034-1.42-1.74-3.05-3.04-4.145-7.052-5.944-7.096-6.244.103-12.102-5.064-7.42-5.252-15.027.011-22.695-1.298-1.045-2.5-1.902-3.571-2.898-2.427-2.256-2.241-4.435.121-6.73 4.632-4.5 9.165-9.1 13.72-13.678 2.414-2.428 4.612-2.49 7.095.084 4.485 4.649 9.106 9.17 13.77 13.64 2.555 2.45 2.883 4.629-.148 6.87-1.062.786-2.069 1.646-3.067 2.445 4.68 10.668 4.666 13.899-.165 22.977 1.082.88 2.225 1.783 3.337 2.722 2.733 2.31 3.088 4.9-.133 6.773-5.242 3.048-7.008 7.245-6.45 13.217.526 5.61.113 11.31.113 17.225 2.8 1.027 5.51 2.257 8.35 2.948 1.143.278 2.967-.226 3.81-1.055a1681.38 1681.38 0 0 0 26.034-26.19c.873-.897 1.66-2.787 1.311-3.818-3.044-8.984.207-16.673 4.67-24.105 1.573-2.618 2.976-4.677.991-8.052-2.041-3.474-.773-6.306 3.404-11.428-2.546-2.884-2.148-5.496.712-8.297 5.098-4.994 7.272-10.902 4.983-18.154-1.643-5.205-.808-10.223 3.047-14.834-4.557-1.508-5.295-4.622-4.569-8.909.488-2.88.276-6.083-.502-8.898-.5-1.806-2.34-3.588-4.037-4.644-3.5-2.176-5.305-6.02-3.706-9.805 1.657-3.92 4.845-5.454 8.928-4.483 4.169.992 6.517 4.185 5.626 8.132-1.084 4.796 2.446 5.2 4.947 6.552 2.99 1.616 5.048.122 6.449-2.953-.638-.805-1.42-1.632-2.016-2.576-2.103-3.327-2.175-6.747.582-9.615 2.685-2.793 6.168-3.445 9.567-1.335 3.32 2.062 4.755 5.27 3.128 9.013-1.25 2.876-.649 5.193 1.993 6.001 1.834.561 4.343-.183 6.206-1.068.76-.36 1.11-2.77.779-4.018-1.095-4.128-.756-7.667 3.214-9.967 3.24-1.877 6.525-1.533 9.145 1.166 3.121 3.215 3.279 6.981.353 10.313-2.433 2.771-.869 5.1.924 6.343 1.853 1.285 4.663 1.193 7.64 1.828 0-2.984-.547-4.775.109-5.787 1.582-2.442 3.419-5.843 5.728-6.378 2.354-.546 6.723 1.165 7.787 3.172 1.223 2.307.36 6.236-.687 9.056-.753 2.03-5.186 2.546-2.88 6.124 2.202 3.42 5.438 2.402 8.533 1.585.477-.126.932-.334 1.665-.603.148-1.152.19-2.455.497-3.692 1.012-4.082 4.554-6.511 8.56-5.975 3.942.528 6.593 3.9 6.362 8.174-.24 4.414-2.883 6.94-7.017 6.81-3.219-.1-4.532 1.327-5.482 3.785-1.492 3.863-3.009 7.725-4.25 11.671-.312.991.147 2.422.663 3.442 2.536 5.006 5.623 9.774 7.721 14.948 2.123 5.237 5.397 8.42 11.023 8.5 5.266.076 6.416 3.097 6.36 7.5-.093 7.497-.095 14.994-.117 22.491 0 .307.183.614.392 1.272 11.5.85 21.116 5.82 28.859 15.056m-120.07 144.157c-.275.386-.549.772-1.264 1.59l-5.031 6.035c1.558.217 2.371-.24 3.159-.737 13.458-8.496 26.918-16.99 40.36-25.51.927-.589 1.719-1.391 3.257-2.32 5.635-2.214 11.235-4.525 16.916-6.615 5.12-1.884 10.264-3.756 15.514-5.214 5.594-1.553 11.324-2.615 17.81-3.9 2.58.108 4.17-.545 4.668-3.633 1.283-7.953 5.3-14.722 10.795-20.411 5.381-5.573 11.315-10.613 17.15-16.019-1.202 0-2.438 0-4.478-.078-9.112 2.497-18.5 4.269-27.288 7.616-35.88 13.667-64.413 37.45-89.182 66.194-.454.527-.515 1.393-.703 2.152 0 0 .025-.072-.65-.291-.14.408-.282.817-.36 1.279 0 0 .045-.07-.674-.138m-26.748 105.363c-1.112-.475-2.224-.95-3.757-2.003l-5.258-1.39c1.705 2.957 3.231 5.294 4.447 7.782 1.807 3.7 3.025 7.736 5.181 11.202 2.105 3.381 4.439 7.117 10.066 6.934.231-.633.838-1.44.637-1.872-2.556-5.486-5.111-10.979-7.945-16.322-.783-1.476-2.484-2.465-3.855-3.571 0 0 .121-.07.484-.76m77.36-293.468c.998.753 1.994 1.505 3.678 2.457 5.776 5.666 15.398 7.449 22.377 3.73-11.254.298-17.656-5.78-21.964-14.795-1.926-4.031-3.628-8.182-5.763-12.097-.933-1.71-2.699-2.968-4.676-4.55-.672.355-1.953.763-1.927 1.058.746 8.545 1.421 17.15 8.399 23.484 0 0-.052.06-.123.713m-63.83 289.494c-.626-.2-1.252-.4-2.218-1.189-6.483-5.966-19.726-8.872-24.46-4.068 11.552-1.49 18.23 4.686 22.84 14.056 1.825 3.707 3.235 7.635 5.267 11.217 1.2 2.117 3.248 3.754 5.687 5.734.548-.221 1.586-.472 1.575-.658-.548-8.944-1.412-17.802-8.71-24.336 0 0 .045-.066.019-.756m50.679-187.153c.262-.377.525-.755 1.197-1.596l5.604-6.557-1.122-.955c-16.403 13.52-34.492 24.205-54.057 32.424-1.83.769-3.538 1.83-5.788 3.29-11.718 3.14-23.437 6.28-36.009 9.38l-4.167 1.007c-3.003 18.574-16.282 29.195-30.633 40.096 1.914-.103 2.74-.063 3.529-.213.8-.153 1.564-.493 3.233-.68 7.699-1.973 15.595-3.386 23.062-6.015 35.39-12.461 63.788-35.005 88.643-62.479 2.167-2.395 3.93-5.155 5.823-7.78 0 0-.009.067.685.078m16.527-128.222c-.2.654-.75 1.461-.543 1.94 1.647 3.8 3.258 7.636 5.242 11.263 1.512 2.763 3.554 5.235 5.86 8.27 2.65 2.844 5.393 5.49 9.348 4.977-2.08-4.057-4.053-7.991-6.104-11.884-1.847-3.505-3.344-7.325-5.826-10.32-1.656-1.997-4.766-2.79-7.977-4.246m-95.8 111.043 28.443-28.234c-2.951-1.284-4.456-1.938-6.493-3.162-1.089-.07-2.695-.644-3.19-.135-9.192 9.444-18.253 19.017-27.698 28.938 1.05.909 2.652 1.93 3.764 3.338 1.915 2.424 3.21 1.558 5.175-.745m121.78 119.335-28.727 28.425c2.923 1.337 4.378 2.002 6.225 3.135 1.219.054 3 .66 3.57.079 9.105-9.285 18.053-18.723 27.267-28.365-1.116-1.171-2.396-2.966-4.11-4.108-.746-.496-2.385.35-4.225.834m-74.796 111.25c.532-.443 1.54-.9 1.526-1.323-.361-11.429-1.83-22.603-9.006-32.08-1.101-1.454-3.102-2.227-5.015-3.943-10.69-7.524-22.14-7.49-31.899-2.058 1.174.342 2.106.923 2.95.815 16.35-2.075 29.136 5.673 34.2 21.195 1.427 4.371 2.247 9.02 2.684 13.605.277 2.9 1.208 3.87 4.56 3.788m27.436-341.461c-.56.72-1.621 1.457-1.597 2.156.11 3.118.323 6.262.875 9.329 1.535 8.518 3.153 17.048 10.516 23.697 9.595 9.322 28.606 10.856 36.742 2.712-1.068.147-1.887.209-2.682.377-16.356 3.466-31.052-4.566-36.43-20.339-1.595-4.677-2.34-9.7-2.973-14.628-.336-2.611-1.156-3.609-4.45-3.304m26.718 71.03c7.424-7.37 14.353-15.124 19.444-23.794-8.72.226-17.08.442-25.958.328l-4.443-1.375c.214 10.419 2.462 19.828 7.31 29.363 1.317-1.796 2.182-2.974 3.647-4.522m-73.85 223.023 5.308 1.338-7.61-30.38c-2.007 2.437-2.933 3.56-4.457 4.95l-20.528 23.835c9.535 0 18.035 0 27.286.257m18.834-125.13-17.57 13.23c7.3 3.543 13.867 6.73 20.423 10.743 1.808 2.605 3.319 1.175 4.704-.416 4.455-5.113 8.865-10.265 13.209-15.306-4.59-2.544-10.743-6.038-17.01-9.318-.724-.379-2.073.435-3.756 1.068m28.971 3.832 17.448-13.294c-6.919-3.773-13.314-7.26-20.096-11.31-1.14-.165-2.845-.895-3.333-.408-5.22 5.225-10.25 10.642-15.359 16.036 5.423 3.019 11.15 6.31 17.004 9.362.95.497 2.452-.063 4.336-.386m16.762-46.572c-1.318-.006-3.268-.579-3.853.073-4.74 5.28-9.223 10.789-14.144 16.656 7.588 4.211 15.038 8.414 22.589 12.43.761.405 2.126-.325 3.94-.756l20.568-11.024c-9.67-5.695-19.179-11.294-29.1-17.38m-62.048 89.348c1.087.112 2.757.732 3.171.258 4.882-5.595 9.576-11.355 14.55-17.347-7.524-4.19-14.582-8.233-21.78-12.009-1.07-.56-2.798.133-4.924.43l-20.243 10.977c9.893 5.872 19.376 11.5 29.226 17.691m-66.72-63.568 3.426 3.107c-1.405.76-2.81 1.519-5 1.987-.607.353-1.742.701-1.745 1.059-.093 11.688-.077 23.377-.077 35.893 1.432-1.24 2.146-1.858 3.46-2.872 6.02-4.092 7.966-9.561 7.728-16.961-.566-17.608-.079-35.247-.264-52.87-.04-3.874-1.202-7.726-1.654-11.61-.185-1.584.021-3.246.267-4.838.394-2.557 1.279-5.07 1.401-7.629.232-4.81.41-9.67-.016-14.455-.582-6.552.502-12.129 6.533-15.832.123-.076-.015-.577-.041-1.068H63.963c3.11 2.604 5.067 4.244 6.903 6.85.08 7.135.192 14.27.231 21.405.04 7.306.133 14.617-.104 21.916-.044 1.361-1.535 2.675-2.359 4.01-.862-1.148-1.845-2.23-2.539-3.473-.36-.647-.213-1.577-.324-2.667-1.65.422-3.212.519-4.432 1.216-1.291.739-2.257 2.048-3.365 3.108 1.155 1.033 2.178 2.708 3.49 2.978 4.012.827 8.136 1.113 12.98 1.844l2.53 3.045c-1.133.745-2.266 1.49-4.213 2.056l-17.027-2.164c4.56 7.083 11.399 6.34 18.65 6.85l2.585 2.681c-1.123.868-2.246 1.737-4.172 2.466L55.85 215.64c4.997 5.98 11.315 6.462 18.588 6.619 3.847 2.523 3.756 3.267-1.505 5.279L57.8 225.252c4.63 5.961 10.57 5.574 16.73 6.732m48.63 88.14c.541 1.01 1.082 2.02 1.813 3.389l15.747-23.098c-11.801-6.345-23.277-12.562-34.827-18.638-.898-.472-2.314.039-4.292.186-5.046 1.637-10.043 3.454-15.153 4.86-5.08 1.397-10.275 2.38-16.489 3.788 20.288 6.33 37.735 15.601 53.202 29.512M239.64 219.39c1.521-.112 3.11.02 4.554-.376 7.343-2.012 14.643-4.18 21.97-6.249 2.13-.601 4.302-1.058 6.455-1.581-19.006-6.986-36.3-16.189-51.624-29.999l-2.449-2.107-14.8 21.87c10.94 6.018 21.456 11.837 32.028 17.554.903.488 2.175.292 3.866.888m30.548 69.368-3.924-3.023c2.035-1.106 3.295-1.791 5.476-2.223l16.682 2.27c-4.83-6.012-11.232-6.106-18.27-6.655l-3.077-2.959c1.268-.77 2.536-1.542 4.665-2.17l14.505 2.015c-4.547-5.735-10.196-5.54-16.08-6.543l-5.773-2.628c3.128-1.396 4.799-2.141 7.375-2.656.406-1.397 1.15-2.791 1.166-4.193.105-9.299.064-18.599.043-27.898-.002-1.303-.15-2.606-.273-4.611-1.086 1.195-1.525 1.68-2.59 2.425-6.373 4.445-8.633 10.239-8.31 18.24.677 16.768.08 33.584.292 50.377.056 4.356 1.314 8.686 1.735 13.055.182 1.891-.277 3.866-.6 5.777-.264 1.573-1.06 3.102-1.094 4.662-.114 5.317-.18 10.648.082 15.957.33 6.653.371 13.047-6.816 16.39 2.504 4.74 4.978.532 7.32.64 2.814.131 5.644-.08 8.456.065 2.462.128 4.91.543 7.364.831l.24-1.476c-1.915-1.74-3.83-3.48-5.573-6.176-.07-10.994-.149-21.988-.209-32.982-.02-3.665-.19-7.348.131-10.985.097-1.095 1.616-2.064 2.483-3.09.85.992 1.868 1.89 2.493 3.01.426.763.303 1.833.471 3.118 1.563-.379 2.945-.458 4.055-1.048 1.371-.727 2.516-1.88 3.759-2.848-1.27-1.135-2.397-2.97-3.84-3.269-3.851-.795-7.839-.929-12.29-1.71l-4.075-2.572c1.983-1.25 3.298-2.078 5.464-2.717l17.06 2.428c-4.759-7.04-11.363-6.714-18.523-6.828m-82.116 161.563c1.971.084 3.942.167 6.472.575l4.317 1.846c0-3.695.082-7.008-.047-10.314-.042-1.056-.38-2.778-1.03-3.027-5.947-2.276-11.992-4.295-18.508-6.926-5.814-1.767-11.543-4.578-17.462-5.064-9.535-.781-19.198-.095-28.801.175-.977.028-2.344 1.258-2.788 2.26-1.264 2.85-2.144 5.872-3.373 9.392 7.797-.938 13.147 1.543 14.23 10.061 8.14-3.47 14.61-2.307 18.349 5.944 8.191-5.005 12.413-5.196 19.035-.508l2.302 2.63-1.111-1.773c2.524-1.718 5.049-3.436 8.415-5.271M165.87 46.75l-2.133-2.55c-2.12 2.328-4.076 4.476-6.86 6.708-2.217.035-4.434.07-7.165-.36-1.426-.66-2.852-1.32-4.177-1.935v13.86c6.515 2.14 12.976 4.261 20.131 6.733 3.287 1.261 6.485 2.886 9.878 3.718 11.759 2.882 23.67 2.729 35.575.99 1.044-.153 2.42-1.073 2.825-1.995 1.356-3.092 2.341-6.347 3.507-9.649-10.363-.212-12.248-1.585-14.123-10.104-.638.14-1.31.194-1.909.432-6.34 2.514-11.611 1.78-15.578-4.457-.508-.8-3.363-1.011-4.479-.367-5.286 3.054-10.27 3.368-15.492-1.023m3.21 113.585c-6.71 1.175-13.419 2.35-20.685 3.181-1.929.912-4.308 1.385-5.703 2.817-4.264 4.379-8.166 9.112-12.18 13.733-5.828 6.71-11.63 13.444-17.444 20.168-.107 1.123 1.383 3.723 2.438 6.488 1.17 3.066 2.616 3.562 5.67 1.321 5.04-1.658 10.182-3.059 15.101-5.02 24.038-9.584 45.991-22.577 64.784-40.538 1.317-1.258 2.741-3.786 2.334-5.218-1.442-5.077-3.657-9.934-5.44-15.524-.285-1.512-.57-3.024-1.036-5.484-6.717 11.7-16.286 18.497-27.84 24.076m27.336 177.562c1.449-.487 3.351-.545 4.276-1.526 10.555-11.19 20.962-22.521 31.718-34.15l-5.141-10.597c-1.292.68-2.537 1.335-4.554 1.894-.814.17-1.651.266-2.437.522-29.504 9.594-55.746 24.777-78.391 46.022-.936.878-1.24 3.234-.83 4.597 1.527 5.073 3.476 10.02 5.28 15.623l.705 3.056c5.554-5.198 11.309-10.78 17.3-16.094 2.278-2.02 5.1-3.427 8.372-5.425 7.62-1.347 15.239-2.695 23.702-3.922m69.248-136.645 21.945 7.855c-.668-5.664-.973-9.607-1.619-13.493-2.466-14.846-6.542-29.111-15.859-41.323-5.533-7.252-12.57-12.177-22.45-13.891-2.426-.825-3.648-.324-4.756 2.425-1.972 4.89-4.394 9.707-7.35 14.064-4.094 6.034-8.856 11.614-13.474 17.572 11.335 12.114 25.317 20.212 40.507 26.46.685.281 1.61-.02 3.056.33M81.612 301.195c-7.968-2.807-15.67-6.627-24.791-7.241 1.595 16.179 4.606 31.066 11.963 44.784 5.98 11.148 14.097 19.727 28.061 22.306 2.004.335 3.255.497 4.449-2.19 2.666-6.002 5.965-11.792 9.6-17.275 3.354-5.058 7.483-9.601 11.457-14.606-10.595-11.071-23.155-18.876-36.93-24.874-.991-.432-2.26-.228-3.81-.904m71.45 81.127c2.466 3.907 5.948 7.521 7.18 11.785 2.327 8.064 3.546 16.472 4.82 24.8.38 2.487.772 3.542 3.48 4.262 7.36 1.957 14.705 4.162 21.756 7.01 4.529 1.827 6.004.166 7.075-4.034-5.715-1.441-11.36-2.677-16.857-4.393-1.247-.39-1.974-2.445-2.94-3.734 1.53-.397 3.16-1.344 4.575-1.093 4.93.874 9.784 2.163 15.56 3.501-3.236-9.715-.042-16.729 5.692-22.915-6.618-3.637-12.95-6.869-19.021-10.534-4.742-2.863-6.619-7.25-4.928-13.42 1.473 0 3.823-.67 4.51.116 2.942 3.364 6.09 1.48 9.234 1.014 2.127-.315 4.428-1.23 6.363-.74 5.741 1.455 8.135-1.843 10.058-6.192.872-1.97 1.834-3.918 2.493-5.96 3.005-9.306-.636-15.595-10.233-17.846-19.347-4.54-43.754 8.718-51.82 27.897-1.786 4.249-1.843 7.495 3.003 10.476m12.21-260.902v7.015c-4.238-.961-7.467-2.25-10.708-2.28-3.584-.036-7.411 2.156-10.715 1.444-5.095-1.099-6.83 1.532-8.564 5.048-.954 1.932-1.948 3.862-2.676 5.883-3.717 10.33.326 17.332 11.078 19.321 20.701 3.83 45.572-11.252 51.443-31.398.411-1.41-.447-3.515-1.323-4.917-3.475-5.56-8.413-10.54-10.521-16.539-2.876-8.178-3.662-17.09-5.297-25.447-7.693-2.64-15.878-5.34-23.977-8.272-4.615-1.671-5.688-1.151-6.694 4.18 5.445 1.355 10.96 2.51 16.299 4.213 1.333.425 2.102 2.622 3.13 4.004-1.615.309-3.32 1.111-4.827.834-4.795-.883-9.515-2.168-15.407-3.57 3.567 9.897-.157 16.917-5.634 23.349 5.185 2.564 10.223 4.49 14.607 7.4 3.6 2.388 6.422 5.947 9.786 9.732m27.406 177.711c17.344-8.11 35.442-13.917 54.443-17.434l.876-19.729c-27.808 5.155-53.164 15.044-76.488 30.006-24.527 15.735-44.98 35.7-61.269 59.889-4.243 6.301-5.77 13.184-4.277 21.255 22.784-31.955 50.877-56.958 86.715-73.987m-78.707-63.61c32.577-9.077 61.768-24.384 86.655-47.456 13.208-12.245 25.64-25.193 34.863-40.875 3.41-5.798 3.973-11.9 2.935-18.891-35.304 49.444-82.092 80.112-141.538 91.588v19.589c5.672-1.28 10.99-2.479 17.085-3.955m-25.61-49.102c-2.457-.443-3.898.295-2.314 2.802 1.31 2.073 3.488 3.592 4.831 5.65 2.22 3.404 4.253 6.964 5.956 10.647.385.833-.903 2.44-1.421 3.69-1.156-.849-2.68-1.468-3.389-2.598-1.326-2.115-2.18-4.527-3.231-6.815l-1.036.35v53.412c1.256-1.297 2.16-2.87 2.289-4.502.713-9.087 1.55-18.184 1.704-27.288.085-5.007 1.965-7.161 6.787-7.777 4.335-.553 8.587-1.76 13.238-2.755-5.03-11.42-10.45-21.176-23.414-24.816m162.281 99.655-17.662 4.216c5.378 15.491 16.407 25.688 26.844 23.977-2.06-2.467-3.99-4.395-5.463-6.625-2.513-3.805-4.91-7.714-6.933-11.79-.376-.758 1.241-2.506 1.939-3.797 1.019.866 2.362 1.545 2.99 2.635 1.318 2.29 2.26 4.798 3.356 7.216l1.052-.403v-55.671c-1.188 2.92-2.286 4.507-2.436 6.18-.649 7.263-.922 14.56-1.534 21.827-.326 3.875-1.063 7.715-2.153 12.235M65.813 123.517c-3.544 6.248-.18 13.52 4.866 16.346 5.076 2.844 11.618 1.733 15.395-2.658 3.921-4.56 3.967-10.406-.137-15.386-1.427 1.657-2.874 3.216-4.184 4.883-4.24 5.394-5.695 5.297-10.065.03-1.396-1.683-3.689-2.622-5.875-3.215m213.07 253.76c2.223-6.893.178-12.783-5.493-15.83-5.052-2.713-11.123-1.614-14.978 2.712-4.177 4.688-4.291 10.09-.217 15.365.58-.537 1.171-1.055 1.73-1.604 2.392-2.354 4.403-5.928 7.245-6.799 4.499-1.379 4.818 4.614 7.798 6.372.945.558 2.34.353 3.915-.217M70.938 106.436l-6 5.184 11.878 11.269L87.22 112.39l-10.413-12.289c-1.787 1.969-3.557 3.918-5.87 6.335M275.63 386.87l-8.152-7.586-10.421 10.51 10.401 10.62 11.666-11.068c-1.082-.78-1.99-1.436-3.494-2.476M137.796 115.396c-.547 4.683 2.214 7.568 7.333 7.05 4.22-.427 8.376-1.48 14.11-2.543-4.964-2.741-8.807-4.771-12.557-6.962-3.475-2.03-6.279-1.49-8.886 2.455m59.913 263.66-12.618 2.727c5.69 2.946 10.049 5.734 14.804 7.373 1.632.563 4.883-1.26 6.186-2.932.769-.987-.247-4.441-1.53-5.649-1.322-1.244-3.943-1.11-6.842-1.519z"/><path fill="#1F1F1F" d="M279 15.997H82.26l-.353-4.994h5.06c79.472 0 158.943 0 238.415.002 6.227 0 6.775.49 6.775 6.313.007 116.625.005 233.25.005 349.875v3.587h-5.023V15.997H279zM256.892 490.997H19.413c-7.314 0-7.409-.09-7.409-7.194V131.22h5.08v354.715h244.873v5.063h-5.065z"/><path fill="currentColor" d="M98.495 438.58c-12.577 8.757-22.693 19.433-31.433 32.557-9.442-14.028-20.777-25.673-35.252-35.097 14.24-9.428 25.802-20.856 35.186-35.263 9.415 14.309 20.8 25.755 34.96 35.04-1.25 1.005-2.215 1.78-3.46 2.763zM267.985 89.027c-8.381-8.016-16.553-15.746-25-23.737 13.01-8.729 24.647-20.108 34.008-34.553 9.408 14.289 20.768 25.76 35.231 35.204-14.158 9.334-25.718 20.792-35.037 35.01-3.184-4.121-6.088-7.88-9.202-11.924zM323.937 487.858h-11.423l-.93-1.215c1.032-1.04 1.916-2.707 3.126-2.992 2.708-.637 3.395-2.053 3.315-4.596-.147-4.654-.042-9.316-.042-15.25L302.3 482.032l4.335 4.581-.92 1.065h-16.296c.736-1.592.962-3.042 1.808-3.755 5.34-4.496 10.818-8.829 15.982-13-3.93-6.592-7.13-12.007-10.38-17.39-1.939-3.21-3.212-7.056-7.76-7.814-.501-.084-.723-1.852-1.087-2.876 11.082-2.214 12.119-1.72 17.24 7.773 2.276 4.22 4.587 8.423 6.921 12.704 4.055-3.101 6.437-6.37 5.987-11.568-.282-3.264-.611-5.396-4.39-5.8-.821-.088-1.46-1.88-2.691-3.597h22.266c-1.58 1.84-2.286 3.472-3.246 3.638-3.48.602-3.992 2.636-3.939 5.697.158 8.994.133 17.994.01 26.99-.037 2.693.525 4.37 3.483 5.024 1.16.257 2.038 1.793 3.044 2.746l-.87 1.409h-7.86zM26.008 26.384v4.318L41.97 12.145l-4.99-3.676.766-1.354h16.484c-.344 1.262-.48 3.23-.966 3.32-8.239 1.54-10.407 9.755-16.45 14.056 7.12 8.836 9.92 20.043 19.53 26.66-.259.337-.516.675-.774 1.013-3.298 0-6.681.438-9.86-.175-1.728-.333-3.587-2.172-4.563-3.82-3.29-5.557-6.213-11.332-9.398-17.25-3.153 3.182-6.439 5.642-5.831 10.63.4 3.28-.556 6.878 4.6 7.002.686.017 1.332 1.674 2.546 3.315H10.745c1.627-1.745 2.424-3.39 3.404-3.507 3.465-.412 3.737-2.505 3.71-5.278a1519.23 1519.23 0 0 1-.007-26.962c.022-2.748-.224-4.883-3.712-5.309-1.013-.124-1.835-1.823-3.601-3.72h22.533c-1.562 1.772-2.39 3.586-3.387 3.684-3.528.347-3.818 2.42-3.708 5.2.132 3.323.031 6.656.031 10.41zM319.082 416.095c-2.47 2.876-4.689 5.5-6.908 8.123l1.144-1.464-14.91-15.424 13.62-13.647 15.234 15.324 1.675-1.67a2624.847 2624.847 0 0 0-9.855 8.758zM33.057 71.056A2507.328 2507.328 0 0 0 47.26 86.312L31.998 101.2c-3.99-4.098-9.578-9.84-14.837-15.244 3.556-3.864 8.781-9.567 14.071-15.21.252-.269 1.078 0 1.825.311z"/><path fill="#FBFBFC" d="M152.8 382.055c-4.585-2.715-4.528-5.961-2.741-10.21 8.065-19.18 32.472-32.436 51.819-27.897 9.597 2.251 13.238 8.54 10.233 17.846-.659 2.042-1.621 3.99-2.493 5.96-1.923 4.349-4.317 7.647-10.058 6.193-1.935-.49-4.236.424-6.363.739-3.143.465-6.292 2.35-9.234-1.014-.687-.786-3.037-.116-4.51-.116-1.691 6.17.186 10.557 4.928 13.42 6.07 3.665 12.403 6.897 19.021 10.534-5.734 6.186-8.928 13.2-5.692 22.915-5.776-1.338-10.63-2.627-15.56-3.5-1.416-.252-3.044.695-4.575 1.092.966 1.289 1.693 3.344 2.94 3.734 5.496 1.716 11.142 2.952 16.857 4.393-1.071 4.2-2.546 5.861-7.075 4.033-7.051-2.847-14.397-5.052-21.756-7.009-2.708-.72-3.1-1.775-3.48-4.263-1.274-8.327-2.493-16.735-4.82-24.799-1.232-4.264-4.714-7.878-7.442-12.05m38.85 28.846c-.069-1.645.32-3.519-.354-4.86-.512-1.02-2.373-1.36-3.634-2.004-.35 2.432-1.402 5.035-.861 7.25.61 2.506 2.792 2.385 4.849-.386z"/><path fill="#FCFCFC" d="M165.173 121.047c-3.266-3.413-6.088-6.972-9.688-9.36-4.384-2.91-9.422-4.836-14.607-7.4 5.477-6.432 9.201-13.452 5.634-23.349 5.892 1.402 10.612 2.687 15.407 3.57 1.507.277 3.212-.525 4.827-.834-1.028-1.382-1.797-3.579-3.13-4.004-5.34-1.704-10.854-2.858-16.3-4.213 1.007-5.331 2.08-5.851 6.695-4.18 8.1 2.933 16.284 5.632 23.977 8.272 1.635 8.357 2.421 17.27 5.297 25.447 2.108 6 7.046 10.98 10.521 16.54.876 1.401 1.734 3.506 1.323 4.916-5.87 20.146-30.742 35.228-51.443 31.398-10.752-1.99-14.795-8.99-11.078-19.32.728-2.022 1.722-3.952 2.676-5.884 1.735-3.516 3.469-6.147 8.564-5.048 3.304.712 7.131-1.48 10.715-1.445 3.241.032 6.47 1.32 10.708 2.281 0-2.689 0-4.852-.098-7.387M156.266 97.6l1.498-7.52-4.576-.617c.022 2.981-2.283 6.6 3.078 8.137z"/><path fill="#F5F5F5" d="M192.347 299.312c-35.508 16.847-63.601 41.85-86.385 73.805-1.492-8.071.034-14.954 4.277-21.255 16.288-24.19 36.742-44.154 61.27-59.889 23.323-14.962 48.68-24.85 76.487-30.006l-.876 19.73c-19.001 3.516-37.1 9.323-54.773 17.615z"/><path fill="#F6F6F6" d="M113.582 235.658a1983.19 1983.19 0 0 1-16.697 3.817v-19.589c59.446-11.476 106.234-42.144 141.538-91.588 1.038 6.99.475 13.093-2.935 18.89-9.222 15.683-21.655 28.63-34.863 40.876-24.887 23.072-54.078 38.38-87.043 47.594z"/><path fill="#244CC2" d="M96.015 360.821c-13.134-2.357-21.252-10.936-27.23-22.084-7.358-13.718-10.369-28.605-11.964-44.784 9.12.614 16.823 4.434 24.984 7.91 13.487 6.825 25.867 14.272 35.923 25.423-1.522 1.742-2.766 3.073-3.906 4.488-7.18 8.918-14.873 17.525-17.807 29.047z"/><path fill="#C83213" d="M248.312 140.828c9.247 1.288 16.285 6.213 21.818 13.465 9.317 12.212 13.393 26.477 15.86 41.323.645 3.886.95 7.83 1.618 13.493-8.08-2.892-15.013-5.374-22.373-8.37-14.35-7.264-27.857-14.617-38.517-26.53 1.214-1.447 2.296-2.687 3.325-3.97 7.276-9.066 15.137-17.77 18.269-29.41zM146.322 359.675c-1.79-4.994-3.739-9.94-5.266-15.014-.41-1.363-.106-3.719.83-4.597 22.645-21.245 48.887-36.428 78.39-46.022.787-.256 1.624-.352 3.032-.125 2.008 3.36 3.423 6.322 4.956 9.53-1.665 1.438-3.419 2.694-4.86 4.241-9.316 9.995-18.563 20.053-27.833 30.09-7.62 1.348-15.238 2.696-23.59 4.111-11.15 3.006-18.892 9.71-25.659 17.786z"/><path fill="#244CC1" d="M148.952 163.861a8116.09 8116.09 0 0 0 20.857-3.672c2.634-.58 4.646-.754 6.423-1.493 8.578-3.57 15.541-9.341 21.584-16.301 1.922 4.94 4.137 9.797 5.58 14.874.406 1.432-1.018 3.96-2.335 5.218-18.793 17.96-40.746 30.954-64.784 40.538-4.919 1.961-10.061 3.362-15.53 4.586-1.78-3.414-3.133-6.393-4.05-8.414 10.952-12 21.604-23.667 32.255-35.336z"/><path fill="#F8CA1B" d="M243.159 257.178c-5.67 1.277-11.401 2.339-16.995 3.892-5.25 1.458-10.395 3.33-15.514 5.214-5.681 2.09-11.281 4.4-17.64 6.643-8.547 3.896-16.442 7.626-24.164 11.684-4.791 2.519-9.32 5.536-13.966 8.33.244-.709.305-1.575.759-2.102 24.769-28.743 53.302-52.527 89.182-66.194 8.788-3.347 18.176-5.12 27.514-7.305-1.403 1.467-3.089 2.551-4.651 3.792-11.92 9.462-22.423 19.9-24.525 36.046zM101.392 244.102c11.719-3.14 23.438-6.28 35.803-9.721 2.093-.59 3.66-.61 4.964-1.208 9.056-4.152 18.2-8.15 27.029-12.746 7.173-3.734 13.948-8.233 20.899-12.393-1.95 2.59-3.714 5.35-5.88 7.745-24.856 27.474-53.254 50.018-88.644 62.479-7.467 2.63-15.363 4.042-23.255 5.7 13.743-10.403 26.117-21.647 29.084-39.856z"/><path fill="#F7CA1B" d="M150.226 51.014c2.217-.035 4.434-.07 7.47-.073 3.357-1.195 5.893-2.422 8.43-3.648 4.966 3.85 9.95 3.536 15.236.482 1.116-.644 3.97-.432 4.48.367 3.966 6.236 9.236 6.971 15.577 4.457.6-.238 1.27-.292 1.909-.432 1.875 8.519 3.76 9.892 14.123 10.104-1.166 3.302-2.151 6.557-3.507 9.65-.404.921-1.781 1.841-2.825 1.994-11.906 1.739-23.816 1.892-35.575-.99-3.393-.832-6.59-2.457-10.392-4.194-4.439-2.233-8.444-3.84-12.242-5.841-1.155-.61-2.277-2.227-2.468-3.522-.403-2.736-.182-5.564-.216-8.354zM178.202 454.113c-6.358-4.066-10.58-3.875-18.771 1.13-3.74-8.25-10.209-9.414-18.349-5.944-1.083-8.518-6.433-10.999-14.23-10.06 1.229-3.521 2.109-6.542 3.373-9.393.444-1.002 1.811-2.232 2.788-2.26 9.603-.27 19.266-.956 28.8-.175 5.92.486 11.649 3.297 17.918 5.646 1.384.912 2.327 1.211 3.242 1.578 10.89 4.364 10.888 4.367 11.012 15.937a485.882 485.882 0 0 0-6.725-.25c-3.56 1.264-6.31 2.527-9.058 3.79z"/><path fill="#F5C922" d="m273.038 349.207 5.744 5.22-.24 1.476c-2.454-.288-4.902-.703-7.364-.83-2.812-.146-5.642.065-8.456-.065-2.342-.109-4.816 4.099-7.32-.64 7.187-3.344 7.146-9.738 6.816-16.391-.263-5.309-.196-10.64-.082-15.957.034-1.56.83-3.089 1.095-4.662.322-1.911.781-3.886.599-5.777-.42-4.37-1.68-8.699-1.735-13.055-.213-16.793.385-33.61-.292-50.377-.323-8.001 1.937-13.795 8.67-17.877.37 11.47.38 22.576.39 33.683l-6.47 2.887c2.853 1.3 4.313 1.964 6.098 3.22.346 1.66.367 2.726.387 3.793l-3.803 2.313c1.026.987 2.051 1.973 3.45 3.394.347 1.523.32 2.61.294 3.697l-4.555 2.476c1.587 1.223 2.756 2.123 4.244 3.553.311 1.58.302 2.63.292 3.68l-4.613 2.907c1.774 1.12 2.925 1.845 4.364 3.244.295 15.336.227 30 .405 44.662.022 1.817 1.356 3.618 2.082 5.426z"/><path fill="#244CC1" d="M221.29 181.774c15.03 13.221 32.323 22.424 51.33 29.41-2.154.523-4.325.98-6.456 1.581-7.327 2.07-14.627 4.237-21.97 6.25-1.444.395-3.033.263-4.959-.19-10.408-6.366-20.412-12.167-30.613-18.083l12.669-18.968z"/><path fill="#C73214" d="M122.882 319.54c-15.189-13.328-32.636-22.6-52.924-28.93 6.214-1.406 11.408-2.39 16.49-3.788 5.11-1.405 10.106-3.222 15.853-4.763 11.589 6.205 22.477 12.313 33.653 18.583l-13.072 18.897z"/><path fill="#F7CA1C" d="M73.761 227.795c4.432-2.269 4.523-3.013.31-6.065-.4-1.544-.436-2.56-.471-3.575l3.369-2.605a118.893 118.893 0 0 1-2.96-3.157c-.395-1.66-.414-2.846-.434-4.031l3.4-2.235c-.844-1.015-1.688-2.03-2.877-3.62-.335-15.185-.213-29.796-.44-44.4-.033-2.123-1.738-4.22-2.67-6.328l-7.025-5.884h24.584c.026.49.164.992.041 1.068-6.031 3.703-7.115 9.28-6.533 15.832.425 4.784.248 9.644.016 14.455-.122 2.559-1.007 5.072-1.401 7.629-.246 1.592-.452 3.254-.267 4.838.452 3.884 1.614 7.736 1.654 11.61.185 17.623-.302 35.262.264 52.87.238 7.4-1.708 12.87-8.085 16.646-.404-11.368-.45-22.42-.497-33.473l4.216-2.28a185.385 185.385 0 0 1-3.825-3.54c-.389-1.542-.379-2.648-.369-3.755z"/><path fill="#254CC1" d="m140.882 294.99-28.859-17.129c6.775-3.674 13.51-7.326 20.944-10.95 7.497 3.812 14.293 7.597 21.273 11.484l-13.358 16.594z"/><path fill="#C73314" d="M203.71 206.69c9.508 5.6 19.016 11.2 28.687 16.894-6.769 3.628-13.669 7.326-21.261 10.902-7.494-3.892-14.296-7.662-21.248-11.515l13.822-16.28z"/><path fill="#ECECEC" d="M88.702 186.558c12.622 3.5 18.041 13.257 23.072 24.676-4.65.995-8.903 2.202-13.238 2.755-4.822.616-6.702 2.77-6.787 7.777-.154 9.104-.991 18.2-1.704 27.288-.129 1.633-1.033 3.205-2.29 4.502v-53.413l1.037-.35c1.05 2.289 1.905 4.7 3.231 6.816.709 1.13 2.233 1.75 3.389 2.599.518-1.25 1.806-2.858 1.421-3.69-1.703-3.684-3.735-7.244-5.956-10.648-1.343-2.058-3.521-3.577-4.831-5.65-1.584-2.507-.143-3.245 2.656-2.662z"/><path fill="#F7F7F7" d="M250.91 285.741c.82-4.188 1.558-8.028 1.884-11.903.612-7.267.885-14.564 1.534-21.827.15-1.673 1.248-3.26 2.436-6.18v55.671l-1.052.403c-1.096-2.418-2.038-4.925-3.357-7.216-.627-1.09-1.97-1.77-2.99-2.635-.697 1.291-2.314 3.039-1.938 3.797 2.022 4.076 4.42 7.985 6.933 11.79 1.472 2.23 3.402 4.158 5.463 6.625-10.437 1.71-21.466-8.486-26.844-23.977 5.914-1.412 11.788-2.814 17.931-4.548z"/><path fill="#264DC1" d="m184.274 228.735 19.709 10.748c-6.016 4.584-11.732 8.939-18.048 13.233-5.955-3.114-11.309-6.167-16.964-9.392l15.303-14.589z"/><path fill="#C73315" d="m160.428 272.091-20.434-9.917c6.505-4.898 12.037-9.064 18.22-13.278 6.114 2.971 11.576 5.992 17.37 9.196l-15.156 14z"/><path fill="#254CC0" d="M137.98 373.817h-26.536c6.82-7.919 13.673-15.877 20.992-23.587 2.158 8.028 3.85 15.807 5.544 23.587z"/><path fill="#C73314" d="m206.584 127.916 25.44-.66c-5.09 8.671-12.02 16.425-20.014 23.69-2.19-7.747-3.808-15.389-5.426-23.03z"/><path fill="#F2C61E" d="M186.63 80.155c2.527-.439 3.347.559 3.683 3.17.633 4.929 1.378 9.95 2.973 14.628 5.378 15.773 20.074 23.805 36.43 20.34.795-.17 1.614-.23 2.682-.378-8.136 8.144-27.147 6.61-37.04-3.248-5.672-11.225-8.707-22.495-8.728-34.512z"/><path fill="#F6F6F6" d="M65.965 123.174c2.034.936 4.327 1.875 5.723 3.558 4.37 5.267 5.825 5.364 10.065-.03 1.31-1.667 2.757-3.226 4.184-4.883 4.104 4.98 4.058 10.826.137 15.386-3.777 4.391-10.319 5.502-15.395 2.658-5.046-2.826-8.41-10.098-4.714-16.689z"/><path fill="#F1C51D" d="M157.774 421.152c-2.7.411-3.631-.558-3.908-3.458-.437-4.585-1.257-9.234-2.684-13.605-5.064-15.522-17.85-23.27-34.2-21.195-.844.108-1.776-.473-2.95-.815 9.759-5.433 21.208-5.466 32.204 2.674 3.04 5.678 6.67 10.473 8.285 15.87 1.968 6.579 2.245 13.663 3.253 20.529z"/><path fill="#F7F7F7" d="M278.69 377.633c-1.381.213-2.777.418-3.722-.14-2.98-1.758-3.3-7.75-7.798-6.372-2.842.871-4.853 4.445-7.245 6.799-.559.55-1.15 1.067-1.73 1.604-4.074-5.275-3.96-10.677.217-15.365 3.855-4.326 9.926-5.425 14.978-2.712 5.671 3.047 7.716 8.937 5.3 16.186z"/><path fill="#F3ECEA" d="M247.996 140.615c-2.816 11.854-10.677 20.558-17.953 29.624-1.03 1.283-2.11 2.523-3.325 3.97 10.66 11.913 24.167 19.266 38.2 26.34-.701.354-1.626.655-2.31.374-15.19-6.248-29.173-14.346-40.508-26.46 4.618-5.958 9.38-11.538 13.473-17.572 2.957-4.357 5.379-9.174 7.35-14.064 1.11-2.75 2.331-3.25 5.073-2.212z"/><path fill="#ECEEF2" d="M96.43 360.932c2.519-11.633 10.212-20.24 17.392-29.158 1.14-1.415 2.384-2.746 3.906-4.488-10.056-11.15-22.436-18.598-35.718-25.132 1.152-.284 2.42-.488 3.411-.056 13.775 5.998 26.335 13.803 36.93 24.874-3.974 5.005-8.103 9.548-11.456 14.606-3.636 5.483-6.935 11.273-9.601 17.275-1.194 2.687-2.445 2.525-4.864 2.079z"/><path fill="#F6CA1F" d="M71.209 106.202c2.04-2.183 3.81-4.132 5.598-6.1L87.22 112.39 76.816 122.89 64.938 111.62l6.271-5.418z"/><path fill="#F4C81D" d="M275.928 387.062c1.207.848 2.114 1.503 3.196 2.284l-11.666 11.068-10.401-10.62 10.42-10.51c2.418 2.25 5.286 4.918 8.451 7.778z"/><path fill="#F0C51F" d="M198.106 80.6c1.387 1.463 3.153 2.72 4.086 4.431 2.135 3.915 3.837 8.066 5.763 12.097 4.308 9.015 10.71 15.093 21.964 14.795-6.98 3.719-16.6 1.936-22.788-4.177-1.339-1.185-2.267-1.924-3.195-2.663 0 0 .052-.06.264-.367-3.754-7.75-6.363-15.552-6.094-24.116z"/><path fill="#EFC41D" d="M146.38 420.852c-1.668-1.852-3.715-3.49-4.916-5.606-2.032-3.582-3.442-7.51-5.266-11.217-4.61-9.37-11.29-15.546-22.842-14.056 4.735-4.804 17.978-1.898 24.628 4.76.804.858 1.44 1.022 2.077 1.187l-.252.366c4.228 7.78 6.316 15.917 6.57 24.566z"/><path fill="#F3C71D" d="m210.328 341.325-5.833-2.667c10.003-9.897 19.365-19.161 29.198-28.246 1.55 1.346 2.63 2.513 3.312 3.25l-26.677 27.663zM133.924 160.071l5.96 2.593c-9.831 9.759-19.137 18.996-29.039 28.198-1.686-1.195-2.776-2.353-3.44-3.06l26.519-27.73z"/><path fill="#F2ECEA" d="M195.993 337.839c8.848-10.098 18.095-20.156 27.41-30.15 1.442-1.548 3.196-2.804 4.86-4.242-1.532-3.208-2.947-6.17-4.57-9.482 1.038-1.004 2.283-1.659 3.575-2.339l5.141 10.597c-10.756 11.629-21.163 22.96-31.718 34.15-.925.981-2.827 1.04-4.698 1.466z"/><path fill="#ECEEF2" d="M148.674 163.69c-10.373 11.84-21.025 23.508-31.978 35.507.918 2.02 2.27 5 3.68 8.346-2.254 2.743-3.7 2.247-4.87-.819-1.055-2.765-2.545-5.365-2.438-6.488 5.814-6.724 11.616-13.457 17.445-20.168 4.013-4.621 7.915-9.354 12.179-13.733 1.395-1.432 3.774-1.905 5.982-2.645z"/><path fill="#EDE8D5" d="M70.927 152.262c.993 1.625 2.698 3.722 2.73 5.844.228 14.605.106 29.216.06 44.283-4.117-.038-8.24-.324-12.253-1.15-1.312-.27-2.335-1.946-3.49-2.979 1.108-1.06 2.074-2.37 3.365-3.108 1.22-.697 2.782-.794 4.432-1.216.111 1.09-.037 2.02.324 2.667.694 1.243 1.677 2.325 2.54 3.473.823-1.335 2.314-2.649 2.358-4.01.237-7.299.144-14.61.104-21.916-.039-7.135-.151-14.27-.17-21.888z"/><path fill="#EFE8E6" d="M123.02 319.831c3.987-6.255 8.112-12.218 12.934-19.19a22246.782 22246.782 0 0 0-33.252-18.628c.876-.197 2.292-.708 3.19-.236 11.55 6.076 23.026 12.293 34.827 18.638l-15.747 23.098a377.027 377.027 0 0 1-1.951-3.682z"/><path fill="#F6F4ED" d="M100.965 244.082c-2.54 18.23-14.914 29.473-29.103 39.84-1.03.538-1.794.878-2.594 1.03-.79.151-1.615.111-3.529.214 14.351-10.9 27.63-21.522 30.633-40.096 1.336-.322 2.752-.665 4.593-.988zM243.566 257.174c1.695-16.142 12.199-26.58 24.118-36.042 1.562-1.24 3.248-2.325 5.053-3.754 1.412-.27 2.648-.27 3.85-.27-5.835 5.405-11.769 10.445-17.15 16.018-5.494 5.69-9.512 12.458-10.795 20.411-.498 3.088-2.088 3.741-5.076 3.637z"/><path fill="#E9EBF0" d="M221.143 181.48c-3.897 6.35-7.942 12.406-12.52 19.262 10.2 5.916 20.204 11.717 30.317 17.846-.99.206-2.263.402-3.166-.086-10.572-5.717-21.088-11.536-32.028-17.554l14.8-21.87c.796.685 1.623 1.396 2.597 2.402z"/><path fill="#FAFAFA" d="M273.123 348.73c-.811-1.331-2.145-3.132-2.167-4.95-.178-14.66-.11-29.325-.147-44.469 3.904-.083 7.892.05 11.743.846 1.443.298 2.57 2.134 3.84 3.269-1.243.969-2.388 2.12-3.759 2.848-1.11.59-2.492.669-4.055 1.048-.168-1.285-.045-2.355-.471-3.119-.625-1.118-1.643-2.017-2.493-3.01-.867 1.027-2.386 1.996-2.483 3.09-.32 3.638-.15 7.321-.13 10.986.06 10.994.137 21.988.122 33.46z"/><path fill="#F0C623" d="M207.993 79.978c2.46 1.332 5.57 2.126 7.225 4.124 2.482 2.994 3.98 6.814 5.826 10.32 2.051 3.892 4.025 7.826 6.104 11.883-3.955.514-6.698-2.133-9.646-5.569a7221.342 7221.342 0 0 1-9.509-20.758z"/><path fill="#EFECE1" d="M190.058 208.017c-6.922 4.177-13.697 8.676-20.87 12.41-8.83 4.596-17.973 8.594-27.029 12.746-1.303.598-2.871.619-4.721.941 1.36-.89 3.068-1.952 4.898-2.721 19.565-8.219 37.654-18.904 54.057-32.424l1.122.955c-1.868 2.186-3.736 4.371-6.158 6.826-.815.618-1.076.967-1.337 1.316 0 0 .01-.066.038-.05z"/><path fill="#F0EEE7" d="M210.524 341.56c8.553-9.307 17.302-18.38 26.48-27.898a101.164 101.164 0 0 1-3.008-3.375c1.066-.539 2.705-1.384 3.45-.888 1.715 1.142 2.995 2.937 4.11 4.108-9.213 9.642-18.161 19.08-27.265 28.365-.57.582-2.352-.025-3.767-.313z"/><path fill="#F2F0E8" d="M133.658 159.787c-8.493 9.443-17.251 18.602-26.254 28.015.665.707 1.755 1.865 3.124 3.212-1.051 2.187-2.346 3.053-4.261.629-1.112-1.408-2.714-2.43-3.764-3.338 9.445-9.921 18.506-19.494 27.698-28.938.495-.509 2.101.065 3.457.42z"/><path fill="#F1F1F1" d="M137.954 115.07c2.45-3.618 5.253-4.158 8.728-2.129 3.75 2.19 7.593 4.22 12.558 6.962-5.735 1.063-9.891 2.116-14.111 2.543-5.119.518-7.88-2.367-7.175-7.377z"/><path fill="#F2C61E" d="M136.535 421.629c-4.98.283-7.313-3.453-9.418-6.834-2.156-3.466-3.374-7.503-5.181-11.202-1.216-2.488-2.742-4.825-4.447-7.781 1.855.49 3.556.94 5.453 2.027 1.197 1.11 2.198 1.583 3.2 2.055 0 0-.122.07-.178.375 3.486 7.324 7.029 14.342 10.571 21.36z"/><path fill="#F0E9E7" d="M203.504 206.448c-4.29 5.538-8.785 10.834-13.616 16.523 6.952 3.853 13.754 7.623 20.884 11.629-.757.44-2.122 1.169-2.883.764-7.55-4.016-15.001-8.219-22.589-12.43 4.92-5.867 9.404-11.376 14.144-16.656.585-.652 2.535-.079 4.06.17z"/><path fill="#E9EBF0" d="M141.066 295.27c4.169-5.688 8.522-11.096 13.174-16.875-6.98-3.887-13.776-7.672-20.922-11.576 1.074-.232 2.802-.926 3.873-.365 7.197 3.776 14.255 7.819 21.778 12.009-4.973 5.992-9.667 11.752-14.549 17.347-.414.474-2.084-.146-3.354-.54z"/><path fill="#F6F6F6" d="M198.132 379.027c2.476.439 5.097.304 6.42 1.548 1.282 1.208 2.298 4.662 1.53 5.649-1.304 1.673-4.555 3.495-6.187 2.932-4.755-1.64-9.115-4.427-14.804-7.373 5.163-1.116 8.89-1.921 13.041-2.756z"/><path fill="#F4F0EF" d="M206.326 127.75c1.876 7.807 3.495 15.449 5.384 23.38-.594 1.469-1.459 2.647-2.776 4.443-4.848-9.535-7.096-18.944-7.31-29.363 1.696.525 3.07.95 4.702 1.54z"/><path fill="#F1F1F4" d="M138.355 373.945c-2.068-7.908-3.761-15.687-5.62-23.848.76-1.505 1.687-2.628 3.695-5.064l7.61 30.379c-2.824-.712-4.067-1.025-5.685-1.467z"/><path fill="#F0EEE6" d="M154.908 292.966c4.618-2.819 9.147-5.836 13.938-8.355 7.722-4.058 15.617-7.788 23.821-11.57-.471.787-1.263 1.59-2.19 2.177-13.442 8.521-26.902 17.015-40.36 25.51-.788.498-1.6.955-3.16.738 1.678-2.011 3.355-4.023 5.583-6.32.844-.602 1.138-.92 1.431-1.237 0 0-.045.07.212.012.43-.373.604-.687.778-1.002 0 0-.025.072-.053.047z"/><path fill="#F2ECEA" d="M160.423 272.504c4.878-4.913 9.75-9.414 15.16-14.412-5.793-3.204-11.255-6.225-17.056-9.382.72-.398 2.069-1.212 2.793-.833 6.267 3.28 12.42 6.774 17.01 9.318-4.344 5.04-8.754 10.193-13.209 15.306-1.385 1.59-2.896 3.021-4.698.003z"/><path fill="#ECEEF2" d="M184.08 228.454c-4.8 5.042-9.794 9.803-15.109 14.87 5.655 3.225 11.01 6.278 16.645 9.518-.965.258-2.466.818-3.417.321-5.853-3.052-11.581-6.343-17.004-9.362 5.11-5.394 10.138-10.811 15.36-16.036.487-.487 2.192.243 3.525.689z"/><path fill="#EAE3C8" d="M73.347 237.224c.439 11.198.485 22.251.59 33.816-.658 1.132-1.372 1.75-2.804 2.99 0-12.516-.016-24.205.077-35.893.003-.358 1.138-.706 2.137-.913z"/><path fill="#E4E6ED" d="M197.886 142.07c-6.113 7.285-13.076 13.056-21.654 16.626-1.777.74-3.79.912-6.116 1.287 10.517-5.225 20.086-12.021 26.803-23.722.465 2.46.75 3.972.967 5.809z"/><path fill="#F0EEE6" d="M149.969 50.781c.291 3.023.07 5.85.473 8.587.191 1.295 1.313 2.913 2.468 3.522 3.798 2.001 7.803 3.608 11.895 5.667-6.294-1.822-12.755-3.943-19.27-6.083v-13.86c1.325.614 2.751 1.275 4.434 2.167z"/><path fill="#EFEBDC" d="M158.1 421.317c-1.334-7.03-1.61-14.115-3.58-20.693-1.615-5.398-5.243-10.193-8.12-15.557 1.444.786 3.445 1.559 4.546 3.013 7.175 9.477 8.645 20.651 9.006 32.08.013.424-.994.88-1.852 1.157z"/><path fill="#F0E9E7" d="M146.329 359.98c6.76-8.381 14.502-15.085 25.304-17.934-2.191 1.773-5.014 3.18-7.291 5.2-5.992 5.314-11.747 10.896-17.3 16.094-.055-.236-.38-1.646-.713-3.36z"/><path fill="#F0EEE7" d="M194.265 450.734c-.404-11.732-.403-11.735-11.292-16.1-.915-.366-1.858-.665-2.993-1.308 5.812 1.78 11.857 3.799 17.804 6.075.65.249.988 1.971 1.03 3.027.13 3.306.047 6.62.047 10.314-1.454-.622-2.886-1.234-4.596-2.008z"/><path fill="#EEEBDF" d="M186.246 80.088c.405 12.084 3.44 23.354 8.806 34.418-6.76-5.952-8.377-14.482-9.912-23-.552-3.067-.766-6.211-.875-9.33-.024-.698 1.036-1.435 1.981-2.088z"/><path fill="#EEEDE7" d="M73.168 208.272c.427 1.275.446 2.46.444 4.001-6.48.086-13.319.829-17.878-6.254 6.096.775 11.562 1.47 17.434 2.253z"/><path fill="#F1F1F1" d="M271.226 293.063c-.416-1.145-.407-2.196-.409-3.64 6.53-.551 13.135-.878 17.894 6.163a2993.696 2993.696 0 0 1-17.485-2.523z"/><path fill="#FEFEFD" d="M271.314 264.07c-.462-11.222-.472-22.328-.529-33.929.393-.978.832-1.462 1.918-2.657.124 2.005.27 3.308.273 4.611.02 9.3.062 18.6-.043 27.898-.016 1.402-.76 2.796-1.619 4.078z"/><path fill="#ECECEC" d="M271.28 283.385c-.434-1.213-.408-2.3-.39-3.716 6.3.007 12.701.101 17.532 6.114-5.975-.814-11.328-1.542-17.143-2.398z"/><path fill="#EEEDE7" d="M73.198 218.086c.437 1.084.473 2.1.509 3.496-6.543.52-12.86.037-17.858-5.942 6.078.852 11.513 1.614 17.35 2.446z"/><path fill="#EEEBDF" d="M146.765 420.916c-.64-8.713-2.728-16.85-6.923-24.652 7.472 6.256 8.336 15.114 8.884 24.058.01.186-1.027.437-1.961.594z"/><path fill="#EEEDE7" d="M73.347 227.666c.404 1.236.394 2.342.392 3.781-5.37-.621-11.31-.234-15.94-6.195 5.862.885 10.498 1.585 15.548 2.414z"/><path fill="#EFECE1" d="M197.81 80.54c.027 8.624 2.636 16.427 6.354 24.194-7.154-6.045-7.83-14.65-8.575-23.195-.026-.295 1.255-.703 2.222-.999z"/><path fill="#F1F1F4" d="M271.309 273.927c-.451-1.139-.472-2.206-.54-3.671 5.28.217 10.93.022 15.476 5.757-5.584-.776-10.045-1.396-14.936-2.086z"/><path fill="#EBE8DF" d="M136.859 421.679a371.439 371.439 0 0 1-10.85-21.463c1.382.854 3.083 1.843 3.866 3.319 2.834 5.343 5.389 10.836 7.945 16.322.2.431-.406 1.24-.961 1.822z"/><path fill="#EEEBDF" d="M207.617 79.916c3.446 6.784 6.517 13.506 9.635 20.603-1.758-2.226-3.8-4.698-5.312-7.46-1.984-3.628-3.595-7.464-5.242-11.265-.207-.478.344-1.285.92-1.878z"/><path fill="#EFEBDC" d="M178.334 454.424c2.617-1.575 5.366-2.838 8.505-4.044-2.133 1.776-4.658 3.494-7.182 5.212l1.111 1.773c-.767-.876-1.534-1.753-2.434-2.94z"/><path fill="#EBE8DF" d="M165.998 47.022c-2.409 1.497-4.945 2.724-7.887 3.876 1.55-2.221 3.506-4.37 5.626-6.696.543.65 1.338 1.6 2.261 2.82z"/><path fill="#EFECE1" d="M203.9 105.41c.964.412 1.892 1.151 2.888 2.237-.93-.406-1.926-1.158-2.888-2.237z"/><path fill="#EBE8DF" d="M126.323 399.55c-1.183-.128-2.184-.6-3.17-1.422a5.767 5.767 0 0 1 3.17 1.421z"/><path fill="#EEEBDF" d="M140.048 395.575c-.623.18-1.26.016-1.894-.548.63-.198 1.255.002 1.894.548z"/><path fill="#F8CA1B" d="M190.367 208.072c-.086-.355.175-.704.785-1.09.087.34-.176.718-.785 1.09zM154.624 292.81c.163.424-.01.738-.473 1.084-.147-.377-.006-.786.473-1.084zM153.612 293.875c.066.352-.228.67-.851 1.055-.057-.317.217-.703.85-1.055z"/><path fill="#393939" d="M191.465 411.263c-1.873 2.41-4.055 2.53-4.665.025-.54-2.215.512-4.818.86-7.25 1.262.643 3.123.985 3.635 2.004.673 1.341.285 3.215.17 5.22z"/><path fill="#2B2B2B" d="M155.867 97.702c-4.962-1.639-2.657-5.257-2.679-8.238l4.576.617c-.5 2.507-.999 5.014-1.897 7.621z"/></svg>