<svg xmlns="http://www.w3.org/2000/svg" viewBox="0 0 340 500" xml:space="preserve"><path fill="transparent" d="M341 193v308H1V1h340v192M234.276 386.744l-26.877 26.422c13.269 8.488 24.52 20.26 33.587 33.583 5.675-6.566 10.669-13.055 16.414-18.79 5.702-5.692 12.161-10.627 18.588-16.15-13.867-8.847-25.126-20.607-34.625-34.531a995.756 995.756 0 0 1-7.087 9.466m-74.33-77.32c-7.566 6.906-15.13 13.813-22.93 20.934 13.505 8.767 24.88 20.445 34.388 34.53 9.426-14.376 20.945-25.77 35.152-35.172-14.37-9.348-25.77-20.966-35.045-34.858a2410.93 2410.93 0 0 1-11.565 14.565m-53.61-255.319-5.093-6.945c-9.264 14.17-20.84 25.69-35.152 35.124 14.495 9.376 25.876 21.058 35.285 35.13 9.442-14.288 20.884-25.746 33.657-34.163-9.418-9.532-18.83-19.058-28.698-29.146m140.657 55.422 28.095-28.28c-12.91-8.267-24.224-19.993-33.425-33.547-5.578 6.534-10.5 13.074-16.235 18.8-5.724 5.715-12.262 10.614-18.75 16.132 13.85 9.054 25.335 20.654 34.597 34.713 1.961-2.69 3.626-4.972 5.718-7.818m10.066 151.032 18.905-16.211c-13.793-9.068-25.208-20.571-34.627-34.785-9.346 14.161-20.82 25.767-35.29 35.196 14.519 9.357 25.823 21.088 34.99 34.547 5.394-6.342 10.455-12.293 16.022-18.747m-80.49-123.65-5.323-7.294c-9.193 14.144-20.75 25.677-35.232 35.195 14.58 9.245 25.847 21.028 35.378 35.074 9.48-14.36 20.948-25.808 33.662-34.163-9.432-9.495-18.745-18.87-28.486-28.812m-61.516 125.659 20.787-18.315c-13.776-9.03-25.097-20.57-34.527-34.683-9.364 14.274-20.925 25.752-35.2 35.233 14.458 9.389 25.787 20.947 34.962 34.705 4.668-5.696 9.07-11.068 13.978-16.94m-19.2 177.126 5.586 7.662c9.418-14.342 20.92-25.703 35.105-35.133-14.34-9.312-25.722-20.958-35.259-35.115-9.474 14.362-20.933 25.791-33.709 34.179 9.38 9.386 18.605 18.617 28.278 28.407m228.922 34.363-3.952-12.26c-.503.36.104-.13.764-.536 3.923-2.413 5.846-5.909 5.259-10.484-.576-4.482-3.645-7-7.67-8.34-5.561-1.852-11.178-1.802-16.585.561-8.203 3.585-9.22 13.052-2.066 18.457 1.13.854 2.306 1.643 3.525 2.507-1.634 1.488-3.111 2.583-4.279 3.945-2.979 3.474-2.594 8.523.435 11.764 5.065 5.42 22.415 5.216 24.57-5.614M23.74 52.116c3.62.29 7.27 1.011 10.856.774 6.42-.425 10.909-3.991 12.059-8.802 1.15-4.814-.943-8.638-6.866-12.554-.485-.32-.948-.675-1.477-1.054 7.01-5.113 8.62-10.41 4.702-15.014-4.584-5.386-16.427-5.785-21.993-.742-4.801 4.35-4.088 10.423 1.977 16.83-9.846 7.991-9.86 15.238.742 20.562m273.427 352.561-3.148 2.622 2.004-1.282 15.196 15.463 13.73-14.134-13.996-14.37c-3.398 2.887-8.318 7.068-13.786 11.701M29.985 102.417c.807.11 2.027.62 2.36.274 5.02-5.206 9.921-10.524 13.587-14.46L31.725 73.848 17.079 88.626c3.185 3.364 7.849 8.29 12.906 13.79z"/><path fill="currentColor" d="M234.507 386.472c2.303-3.063 4.376-5.855 6.856-9.194 9.499 13.924 20.758 25.684 34.625 34.53-6.427 5.524-12.886 10.459-18.588 16.151-5.745 5.735-10.739 12.224-16.414 18.79-9.067-13.322-20.318-25.095-33.587-33.583 8.986-8.834 17.932-17.628 27.108-26.694zM160.184 309.16a4549.98 4549.98 0 0 0 11.327-14.302c9.275 13.892 20.675 25.51 35.045 34.858-14.207 9.402-25.726 20.796-35.152 35.172-9.508-14.085-20.883-25.763-34.388-34.53a9875.449 9875.449 0 0 0 23.168-21.197zM106.562 54.385c9.64 9.807 19.053 19.333 28.47 28.865-12.772 8.417-24.214 19.875-33.656 34.162-9.409-14.071-20.79-25.753-35.285-35.129 14.312-9.435 25.888-20.955 35.152-35.124 1.949 2.657 3.52 4.801 5.32 7.226zM246.778 109.808c-1.878 2.564-3.543 4.847-5.504 7.536-9.262-14.059-20.748-25.66-34.597-34.713 6.488-5.518 13.026-10.417 18.75-16.132 5.735-5.726 10.657-12.266 16.235-18.8 9.2 13.554 20.515 25.28 33.425 33.548a11484.24 11484.24 0 0 0-28.309 28.56zM256.805 260.81a6712.396 6712.396 0 0 0-15.769 18.495c-9.167-13.459-20.471-25.19-34.99-34.547 14.47-9.429 25.944-21.035 35.29-35.196 9.419 14.214 20.834 25.717 34.627 34.785a7991.708 7991.708 0 0 0-19.158 16.463zM176.781 137.191c9.527 9.659 18.84 19.034 28.272 28.529-12.714 8.355-24.183 19.802-33.662 34.163-9.531-14.046-20.798-25.829-35.378-35.074 14.483-9.518 26.04-21.051 35.232-35.195 1.992 2.73 3.657 5.012 5.536 7.577zM114.798 262.817a4202.838 4202.838 0 0 0-13.725 16.69c-9.175-13.758-20.504-25.316-34.961-34.705 14.274-9.48 25.835-20.959 35.2-35.233 9.43 14.113 20.75 25.654 34.526 34.683-6.986 6.155-13.886 12.235-21.04 18.565zM95.628 439.413c-9.449-9.51-18.674-18.74-28.054-28.127 12.776-8.388 24.235-19.817 33.71-34.179 9.536 14.157 20.917 25.803 35.258 35.115-14.185 9.43-25.687 20.79-35.105 35.133-1.997-2.74-3.791-5.2-5.81-7.942zM324.685 474.439c-2.065 10.447-19.415 10.65-24.48 5.231-3.03-3.241-3.414-8.29-.435-11.764 1.168-1.362 2.645-2.457 4.28-3.945-1.22-.864-2.397-1.653-3.526-2.507-7.154-5.405-6.137-14.872 2.066-18.457 5.407-2.363 11.024-2.413 16.586-.561 4.024 1.34 7.093 3.858 7.669 8.34.587 4.575-1.336 8.071-5.259 10.484-.66.405-1.267.897-.764.536 1.439 4.463 2.695 8.362 3.863 12.643m-14.311-16.18c5.272 2.677 7.927 1.567 8.685-3.73.615-4.295-.855-7.459-5.252-8.79-3.933-1.189-7.528-.505-9.184 3.452-1.954 4.669 1.698 6.797 5.75 9.067m2.819 20.821c3.899-1.078 5.449-4.096 3.33-7.082-1.767-2.49-5.321-3.712-8.084-5.496-1.12 2.732-3.227 5.501-3.122 8.185.144 3.69 3.52 4.769 7.876 4.393zM23.35 52.017C13.14 46.792 13.154 39.545 23 31.554c-6.065-6.407-6.778-12.48-1.977-16.83 5.566-5.043 17.409-4.644 21.993.742 3.918 4.603 2.308 9.9-4.702 15.014.53.379.992.733 1.477 1.054 5.923 3.916 8.016 7.74 6.866 12.554-1.15 4.811-5.638 8.377-12.059 8.802-3.586.237-7.235-.484-11.246-.873m6.544-2.982c5.835-.005 8.604-1.865 8.602-5.779-.001-3.332-6.123-9.352-10.116-8.636-2.01.36-4.354 3.808-4.906 6.234-.919 4.036 1.695 6.78 6.42 8.181m.144-22.412c2.28 1.484 4.468 2.355 6.278-.688 1.998-3.359 2.457-6.771-.864-9.373-2.925-2.291-6.619-2.389-8.953.646-2.975 3.865-.36 6.717 3.54 9.415zM297.442 404.451c5.194-4.407 10.114-8.588 13.512-11.475l13.997 14.37-13.731 14.134-15.196-15.463-2.004 1.282c1.05-.874 2.098-1.748 3.422-2.848zM29.788 102.129a2378.318 2378.318 0 0 0-12.71-13.503l14.647-14.778L45.932 88.23c-3.666 3.936-8.568 9.254-13.586 14.46-.334.345-1.554-.163-2.558-.562z"/><path fill="#fff" d="M310.028 458.112c-3.707-2.124-7.359-4.252-5.405-8.92 1.656-3.958 5.251-4.642 9.184-3.452 4.397 1.33 5.867 4.494 5.252 8.789-.758 5.297-3.413 6.407-9.031 3.583zM312.775 479.115c-3.94.34-7.315-.739-7.46-4.43-.104-2.683 2.003-5.452 3.123-8.184 2.763 1.784 6.317 3.006 8.084 5.496 2.119 2.986.569 6.004-3.747 7.118zM29.495 48.973c-4.325-1.339-6.939-4.083-6.02-8.12.552-2.425 2.896-5.873 4.906-6.233 3.993-.716 10.115 5.304 10.116 8.636.002 3.914-2.767 5.774-9.002 5.717zM29.736 26.4c-3.597-2.475-6.21-5.327-3.236-9.192 2.334-3.035 6.028-2.937 8.953-.646 3.32 2.602 2.862 6.014.864 9.373-1.81 3.043-3.998 2.172-6.58.464z"/></svg>