<svg xmlns="http://www.w3.org/2000/svg" viewBox="0 0 340 500" xml:space="preserve"><path fill="#FEFEFE" d="M341 132v369H1V1h340v131M72.266 166.527l4.519-1.736v37.027c-4.71 1.324-10.254 2.421-10.5 7.96-.421 9.536.164 19.146.91 28.68.154 1.965 2.642 3.998 4.464 5.502 1.442 1.19 3.513 1.617 5.327 2.392 0 27.395-.045 54.551.018 81.707.035 15.072-2.004 13.802 13.344 13.888 1.484.008 3.806.9 4.312 2.025 5.935 13.192 16.61 21.353 28.915 27.84 2.142 1.129 3.456 2.09 3.541 5.068.407 14.132 3.296 27.674 11.571 40.1-5.59 4.539-11.08 9.07-16.657 13.49-2.81 2.228-2.938 4.593-.787 7.247 1.151 1.422 2.38 2.782 3.6 4.147 22.835 25.571 50.44 34.587 83.668 24.11 5.67-1.787 6.26-2.844 4.584-8.672-1.609-5.589-3.271-11.162-4.836-16.763-.39-1.398-1.145-3.191-.623-4.261 2.339-4.795 1.135-8.627-1.553-10.921.369-5.144 1.987-9.691.675-13.115-2.848-7.43-.018-12.84 3.932-18.403 4.54-6.394 4.318-7.24-3.162-10.64 1.125-1.846 2.413-3.544 3.223-5.446.484-1.135.789-3.316.196-3.781-4.108-3.226-5.027-7.567-4.916-12.343.114-4.95-2.358-7.773-7.015-8.878-1.804-.429-3.638-.727-5.994-1.19 10.063-7.658 19.506-15.007 29.15-22.081 2.876-2.109 3.98-4.404 3.914-7.933-.2-10.547-.072-21.1-.072-32.06 3.382 4.255 5.628 9.173 9.448 11.457 8.153 4.875 8.777 11.848 8.016 19.84-.11 1.156-.166 2.354.009 3.494 1.24 8.066-.978 14.46-8.194 19.02-3.582 2.265-3.799 5.496.058 7.92 6.992 4.398 9.542 10.572 8.127 18.576-.114.646.023 1.333-.02 1.996-.245 3.733 1.29 5.625 5.228 5.424 2.991-.153 6.009-.199 8.993.01 4.453.31 6.521-1.41 6.22-6.03-.22-3.401-.043-6.83-.043-10.348 12.346 2.602 20.276 11.395 22.045 23.906.67 4.738 3.731 6.3 6.855 2.863 3.948-4.343 7.762-9.19 10.153-14.487 5.21-11.545 5.032-24.046 3.82-36.352-1.074-10.908-4.145-21.294-12.733-28.988-1.41-1.263-3.981-2.576-5.406-2.088-1.346.462-2.4 3.183-2.702 5.053-1.894 11.74-10.655 21.046-21.83 22.814V297.18c5.191-1.3 10.05-2.94 10.654-9.085.491-5.011.872-10.084.642-15.099-.206-4.514-.42-9.41-2.296-13.344-1.511-3.171-5.507-5.158-9.269-8.424.22 1.078.096.754.096.429-.016-27.16-.03-54.32-.026-81.48.003-14.115 1.29-13.107-12.722-13.037-.833.005-1.743.21-2.48-.057-.955-.347-2.237-.875-2.577-1.669-5.786-13.487-16.764-21.542-29.03-28.425-1.598-.897-3.147-3.343-3.272-5.17-.956-14.07-3.633-27.579-11.78-39.762 5.652-4.577 11.052-8.99 16.498-13.345 2.635-2.107 3.397-4.317 1.056-7.187-23.584-28.921-52.687-39.687-88.16-28.241-4.346 1.402-5.39 3.797-4.138 7.868a584.2 584.2 0 0 1 4.752 16.258c.517 1.874 1.487 4.18.853 5.711-1.956 4.73-.852 8.357 1.772 10.55-.394 5.004-2.028 9.52-.757 12.964 2.727 7.385.127 12.88-3.814 18.501-4.512 6.434-4.36 7.018 2.96 10.98-1.364 2.217-3.595 4.323-3.763 6.582-.142 1.908 2.499 3.866 3.208 6.03 1.051 3.211 1.65 6.6 2.137 9.957.602 4.154 2.834 6.615 6.85 7.545 1.825.422 3.664.78 6.134 1.303-9.934 7.564-19.209 14.837-28.737 21.76-3.045 2.213-4.208 4.538-4.12 8.278.249 10.535.087 21.08.087 31.954-3.77-4.54-6.413-9.753-10.657-12.374-7.01-4.33-8.002-10.046-7.155-17.09a8.472 8.472 0 0 0 0-1.997c-1.117-9.344-.092-17.684 9.183-23.051 2.76-1.598 2.651-4.35-.101-6.564-1.943-1.563-3.63-3.462-5.652-4.905-2.696-1.924-3.513-4.283-3.502-7.59.052-16.234 2.21-13.969-14.378-14.14-.167-.001-.334.01-.5 0-3.562-.204-5.205 1.423-5.094 5.038.117 3.761.026 7.528.026 11.37-12.01-2.308-20.786-11.784-22.118-23.105-.204-1.735-1.177-4.161-2.484-4.76-1.238-.565-4.045.312-5.01 1.494-3.421 4.196-7.157 8.437-9.308 13.308-5.606 12.694-5.617 26.24-3.793 39.712 1.43 10.57 4.878 20.429 13.612 27.478 3.447 2.782 6.623 1.625 6.941-2.604.84-11.163 6.972-18.315 17.44-23.22M325.112 205.5v165.37h5.474v-4.568c0-116.154.002-232.308-.003-348.462 0-6.446-.434-6.875-6.791-6.876-30.497-.005-60.994-.002-91.49-.002-49.328 0-98.656-.002-147.984.01-1.292 0-2.584.148-3.937.231v4.926h244.731V205.5m-309.526 221V130.875l-5.474.401v3.382c0 116.644-.002 233.288.005 349.932 0 5.847.64 6.445 6.724 6.445 79.818.005 159.635.003 239.453.003h4.025v-5.142H15.586V426.5M257.147 79.342l18.69 21.158c8.893-13.796 20.609-25.12 34.668-34.57-14.46-9.47-25.845-20.976-35.179-35.17-9.273 14.184-20.796 25.732-34.817 34.924l16.638 13.658M57.731 411.212l-26.404 25.674c13.378 8.546 24.635 20.33 34.087 34.285 9.31-14.38 20.983-25.758 35.103-35.222-14.439-9.444-25.822-20.949-35.048-34.966a6779.325 6779.325 0 0 0-7.738 10.228m246.598 5.988 5.94 7.238-1.475-1.849 15.197-15.084-13.954-14.194-15.477 15.072c2.375 2.13 5.821 5.22 9.769 8.817M20.401 9.923c5.718.678 5.999 4.46 5.816 9.173-.334 8.628-.155 17.279-.074 25.919.052 5.51-1.622 10.186-6.275 13.362-2.692 1.837-2.577 3.408-.346 5.294 11.872-4.298 15.016-8.724 15.066-21.148.034-8.64.028-17.282-.005-25.923-.01-2.764-.147-5.35 3.701-5.863.786-.105 1.315-2.144 2.327-3.936-6.709 0-12.18-.11-17.64.104-.962.037-1.872 1.434-2.57 3.018m-3.368 80.529 13.398 10.954 13.724-14.04-14.127-14.035-15.614 15.19c-.08-.057.992.719 2.62 1.931m297.145 368.102c0-.166-.003-.332 0-.498.14-8.572-1.075-17.576 7.972-23.182.545-.338-.101-2.597-.204-4.133-11.989 3.875-15.69 8.568-15.917 20.07-.178 8.967-.116 17.941 0 26.91.038 3.036.014 5.619-3.876 6.193-.655.096-1.374 1.54-1.521 2.448-.06.376 1.298 1.403 2.026 1.418 5.739.12 11.48.066 17.222.066l.732-1.34c-.882-.953-1.658-2.58-2.665-2.738-3.643-.574-3.862-2.872-3.804-5.79.12-6.145.035-12.293.035-19.424z"/><path fill="#272625" d="M71.927 166.713c-10.129 4.718-16.26 11.87-17.101 23.033-.318 4.229-3.494 5.386-6.94 2.604-8.735-7.05-12.183-16.908-13.613-27.478-1.824-13.472-1.813-27.018 3.793-39.712 2.15-4.871 5.887-9.112 9.309-13.308.964-1.182 3.771-2.06 5.009-1.493 1.307.598 2.28 3.024 2.484 4.76 1.332 11.32 10.108 20.796 22.118 23.104 0-3.842.09-7.609-.026-11.37-.111-3.615 1.532-5.242 5.094-5.038.166.01.333-.001.5 0 16.588.171 14.43-2.094 14.378 14.14-.01 3.307.806 5.666 3.502 7.59 2.021 1.443 3.709 3.342 5.652 4.905 2.752 2.214 2.861 4.966.101 6.564-9.275 5.367-10.3 13.707-9.183 23.051.078.658.079 1.34 0 1.998-.847 7.043.144 12.76 7.155 17.09 4.244 2.62 6.887 7.833 10.657 12.373 0-10.874.162-21.419-.087-31.954-.088-3.74 1.075-6.065 4.12-8.277 9.528-6.924 18.803-14.197 28.737-21.761-2.47-.523-4.31-.881-6.134-1.303-4.016-.93-6.248-3.391-6.85-7.545-.486-3.357-1.086-6.746-2.137-9.956-.709-2.165-3.35-4.123-3.208-6.03.168-2.26 2.4-4.366 3.764-6.582-7.32-3.963-7.473-4.547-2.961-10.98 3.941-5.622 6.54-11.117 3.814-18.502-1.271-3.444.363-7.96.757-12.964-2.624-2.193-3.728-5.82-1.772-10.55.634-1.531-.336-3.837-.853-5.71a584.2 584.2 0 0 0-4.752-16.259c-1.252-4.071-.208-6.466 4.138-7.868 35.473-11.446 64.576-.68 88.16 28.241 2.341 2.87 1.579 5.08-1.056 7.187-5.446 4.354-10.846 8.768-16.498 13.345 8.147 12.183 10.824 25.692 11.78 39.762.125 1.827 1.674 4.273 3.272 5.17 12.266 6.883 23.244 14.938 29.03 28.425.34.794 1.622 1.322 2.577 1.67.737.267 1.647.06 2.48.056 14.012-.07 12.725-1.078 12.722 13.037-.004 27.16.01 54.32.026 81.48 0 .325.124.65-.096-.43 3.762 3.267 7.758 5.254 9.269 8.425 1.875 3.934 2.09 8.83 2.296 13.344.23 5.015-.15 10.088-.642 15.099-.603 6.145-5.463 7.785-10.654 9.085v36.386c11.175-1.768 19.936-11.074 21.83-22.814.302-1.87 1.356-4.591 2.702-5.053 1.425-.488 3.996.825 5.406 2.088 8.588 7.694 11.659 18.08 12.733 28.988 1.212 12.306 1.39 24.807-3.82 36.352-2.39 5.298-6.205 10.144-10.153 14.487-3.124 3.436-6.185 1.875-6.855-2.863-1.769-12.51-9.7-21.304-22.045-23.906 0 3.519-.177 6.947.044 10.348.3 4.62-1.768 6.34-6.22 6.03-2.985-.209-6.003-.163-8.994-.01-3.939.201-5.473-1.691-5.228-5.424.043-.663-.094-1.35.02-1.996 1.415-8.004-1.135-14.178-8.127-18.575-3.857-2.425-3.64-5.656-.058-7.92 7.216-4.561 9.433-10.955 8.194-19.021-.175-1.14-.12-2.338-.01-3.494.762-7.992.138-14.965-8.015-19.84-3.82-2.284-6.066-7.202-9.448-11.458 0 10.961-.128 21.514.072 32.061.066 3.529-1.038 5.824-3.913 7.933-9.645 7.074-19.088 14.423-29.15 22.08 2.355.464 4.19.762 5.993 1.19 4.657 1.106 7.13 3.93 7.015 8.88-.11 4.775.808 9.116 4.916 12.342.593.465.288 2.646-.196 3.78-.81 1.903-2.098 3.601-3.223 5.447 7.48 3.4 7.702 4.246 3.162 10.64-3.95 5.562-6.78 10.973-3.932 18.403 1.312 3.424-.306 7.971-.675 13.115 2.688 2.294 3.892 6.126 1.553 10.92-.522 1.071.232 2.864.623 4.262 1.565 5.6 3.227 11.174 4.836 16.763 1.677 5.828 1.086 6.885-4.584 8.673-33.229 10.476-60.833 1.46-83.668-24.11-1.22-1.366-2.449-2.726-3.6-4.148-2.15-2.654-2.023-5.02.787-7.246 5.577-4.421 11.067-8.952 16.657-13.49-8.275-12.427-11.164-25.969-11.57-40.101-.086-2.978-1.4-3.94-3.542-5.069-12.304-6.486-22.98-14.647-28.915-27.839-.506-1.124-2.828-2.017-4.312-2.025-15.348-.086-13.31 1.184-13.344-13.888-.063-27.156-.018-54.312-.018-81.707-1.814-.775-3.885-1.202-5.327-2.392-1.822-1.504-4.31-3.537-4.464-5.502-.746-9.534-1.331-19.144-.91-28.68.246-5.539 5.79-6.636 10.5-7.96v-37.027c-1.626.625-3.072 1.18-4.858 1.922m112.087-87.736s.073.008.119-.649c-.453-.461-.906-.923-1.767-1.826-1.051-.906-2.103-1.812-3.422-3.263l-.841.03c.158.382.316.762.743 1.778 12.064 21.18 15.912 43.643 10.628 67.565-.065.296 1.018.846 2.12 1.265.154-.284.308-.568.405-.864 0 0 .025.052.743.16 4.845-2.5 6.11-6.963 5.763-11.796-.643-8.942-1.155-17.958-2.79-26.745-1.654-8.894-3.967-17.828-10.722-24.612 0 0 .038-.001.03-.596-.325-.17-.65-.341-1.009-.447m-20.055 67.76c.382.071.763.142 1.773.572 2.338 3.269 5.702 3.648 8.793 2.006 3.12-1.658 6.148-3.921 8.453-6.581 3.818-4.406 3.866-10 3.628-15.595-.64-15.011-1.886-29.906-8.852-43.585-7.173-14.086-19.011-20.27-34.602-19.805-3.074.092-5.087 1.186-5.136 4.946 1.394.38 2.779 1.056 4.18 1.093 12.808.338 23.464 4.759 30.101 16.196 6.765 17.475 7.46 35.573 5.637 53.95 0 0-.02-.105-.621-.553-.406.552-.812 1.103-1.687 2.264-1.229.427-2.566 1.391-3.662 1.169-2.158-.439-5.622-1.139-5.98-2.438-.916-3.321 2.423-2.127 4.21-2.816 1.282-.495 2.532-2.378 2.74-3.797.103-.702-2.131-2.381-3.396-2.479-1.403-.108-2.907 1.083-5.132 1.596-4.813 4.82-4.957 8.82-.407 13.12 0 0-.068.068-.04.738m13.038 218.273s.059.049.774-.13c3.234-5.267 3.054-7.889-1.092-11.78-5.052-4.857-8.735-5.433-14.073-1.789-5.252 3.586-8.41 8.69-8.53 15.068-.256 13.53.974 26.935 4.994 39.943 5.99 19.388 19.539 29.815 37.98 28.991 1.774-.079 3.46-2.13 5.186-3.265-1.638-.962-3.215-2.058-4.938-2.827-.85-.38-1.968-.174-2.966-.202-9.32-.263-17.075-3.803-23.318-11.702-6.642-10.69-8.513-22.67-8.707-34.882-.124-7.865.946-15.75 1.94-24.208 2.892-.634 5.765-1.45 8.69-1.75.598-.06 1.984 1.864 1.92 2.8-.054.815-1.544 1.729-2.578 2.233-1.338.653-3.257.564-4.152 1.52-.617.658-.438 3.19.28 3.764 2.24 1.787 4.79 2.162 7.36-.763.426-.32.852-.64 1.23-1.021m28.15-224.301c-3.73 2.723-7.46 5.447-11.945 8.27-1.734.35-3.468.699-6.005.898-2.49 1.025-5.295 1.616-7.418 3.15-11.397 8.23-22.624 16.696-33.91 25.08l.42.85c1.255-.066 2.51-.132 4.595-.104 16.53-1.342 32.508-4.974 47.481-12.223 12.06-5.84 22.971-13.241 30.78-24.931-1.367-1.111-2.432-2.153-3.66-2.938-2.79-1.784-5.66-3.443-9.002-5.634l-2.627-1.412c-2.934 3.196-5.476 5.964-8.71 8.994m53.407 157.286c.024-3.157-.127-6.33.178-9.46.091-.938 1.423-2.412 2.238-2.447.892-.039 2.085 1.15 2.693 2.095.528.82.423 2.047.805 4.34l4.718-4.367c-1.58-1.177-3.01-2.926-4.779-3.398-2.663-.71-5.564-.528-8.971-.978l-3.25-2.763c1.632-1.146 2.792-1.96 4.81-2.52l13.74 1.71c-4.16-5.948-9.612-5.024-15.319-5.398l-3.256-2.786c1.655-1.143 2.823-1.95 4.82-2.432l13.313 1.357c-4.774-4.66-9.567-4.421-14.89-4.957l-4.306-2.178c2.19-1.35 3.64-2.244 5.907-2.901l10.95 1.379c-2.98-4.54-7.395-4.536-12.517-4.556l-3.383-3.072c1.765-1.128 2.852-1.823 4.884-2.313.523-1.042 1.5-2.083 1.502-3.127.084-27.806.093-55.612-.038-83.417-.005-.989-1.569-1.97-3.31-3.177h-6.004c-.095 1.68-.215 2.82-.215 3.958-.01 37.944.172 75.889-.176 113.83-.063 6.844 1.611 11.892 7.523 16.247.79.743 1.58 1.485 2.114 2.45l.13.215s.016-.42.089-1.334M140.706 409.75c.432.601.864 1.202 1.57 2.37l4.052 5.784c-7.736-17.111-9.083-35.2-9.5-54.48-1.17 1.525-1.633 2.13-2.66 3.115-3.617 5.959-1.938 12.33-1.114 18.49 1.13 8.446 2.26 17.012 7.94 23.993 0 0-.077-.003-.288.728m58.996-319.67-4.786-8.253-1.31.594c8.638 16.326 9.602 34.144 10.34 52.796 1.07-1.307 1.647-2.011 2.731-3.098.639-2.36 2.057-4.817 1.777-7.063-1.096-8.79-2.501-17.56-4.29-26.235-.594-2.88-2.686-5.45-4.462-8.74m-10.703 230.912s-.007-.053-.839-.48c-29.954 2.907-56.94 11.913-77.276 37.02 4.908 3.1 8.957 5.659 13.468 8.563l3.254 1.628c3.591-9.05 13.17-11.129 19.408-17.63 1.924-.377 3.848-.754 6.598-.948 1.639-.493 3.564-.592 4.872-1.542 11.753-8.535 23.402-17.215 35.061-25.88.42-.312.625-.91 1.214-1.809-1.697.194-2.828.323-4.527.292a15.27 15.27 0 0 0-1.233.786m-33.299 98.67c.427.497.853.994 1.596 2.13l3.095 1.633c-.444-1.539-.553-2.318-.88-2.992-9.802-20.186-13.009-41.25-8.606-63.378.078-.393-1.24-1.064-2.653-1.373-.109.424-.218.847-.348 1.195 0 0-.074-.025-.745-.436-1.665 2.887-4.698 5.741-4.766 8.665-.365 15.509 1.03 30.892 7.591 45.258 1.445 3.164 3.932 5.852 5.99 8.7 0 0-.066-.042-.274.598m-14.597 30.196 2.819 1.933 12.154-21.2c-4.365-2.744-8.21-5.345-12.26-7.569-.949-.52-2.598.238-4.58.697l-14.176 11.25c5.661 5.152 10.656 9.698 16.043 14.889m60.208-374.604 14.371-11.128c-5.63-5.121-10.64-9.68-16.008-14.86-1.406-1.205-2.626-2.723-4.164.08-3.5 6.383-7.213 12.65-10.884 19.04 4.387 2.824 8.496 5.61 12.786 8.08.64.367 2.136-.75 3.899-1.212m2.478 385.812 4.739-.44-5.849-20.361c-1.665.292-3.072.539-5.428.676h-11.845l-1.97 25.305c7.14-1.964 13.325-3.664 20.353-5.18M136.3 37.96c-2.478-.162-4.36.131-3.343 3.468 1.722 5.646 3.314 11.331 5.04 17.277 1.644-.218 3.056-.405 5.199-.345l11.881.775 2.163-25.296c-7.53 1.613-13.793 2.955-20.94 4.121m-52.436 89.078c-.627 1.346-1.785 2.686-1.798 4.038-.134 13.965-.082 27.931-.082 41.898v21.172c1.522-1.89 2.236-2.776 3.814-3.968l6.19-.611c0-6.03.444-12.005-.109-17.887-.724-7.705.85-13.985 7.923-18.115.631-.369.992-1.202 2.008-2.492-11.322-4.627-10.507-14.427-9.966-23.893-2.862 0-5.006 0-7.98-.142M256.88 372.023c.597-.753 1.711-1.504 1.715-2.26.094-21.137.075-42.275.075-63.414l-1.125-.822c-.563.963-1.125 1.927-2.511 3.264l-6.173.82c0 4.793-.397 9.309.082 13.729 1.04 9.594-.264 18.034-9.364 23.491-.112.068-.127.298-.476 1.198 11.108 4.347 10.436 14.227 9.726 23.847 2.937 0 5.085 0 8.051.147m-83.043 65.91c-3.364-1.207-6.684-2.569-10.116-3.534-1.166-.328-3.357-.115-3.815.629-3.958 6.434-7.626 13.047-11.564 19.926 8.108 4.935 16.044 8.327 25.65 9.322l3.902.608 2.342-26.181c-2.18-.288-3.933-.52-6.4-.77m-7.325-403.209-3.782-.575c-.669 8.189-1.341 16.015-1.931 23.847-.255 3.381 2.143 3.046 4.985 3.285 3.55 1.184 7.037 2.676 10.678 3.404 1.501.3 4.117-.539 4.879-1.725 3.828-5.96 7.211-12.205 10.944-18.686-7.828-5.23-15.99-8.425-25.773-9.55m-81.227 206.63c3.706 2.156 3.622 3.986-1.345 5.248-.652 1.186-1.819 2.353-1.866 3.564-.207 5.299-.09 10.61-.09 15.918 0 22.059-.028 44.117.058 66.175.006 1.666-1.438 4.977 3.49 4.22h6.466v-4.625c0-37.633-.196-75.269.178-112.898.069-6.897-1.755-11.862-7.535-16.163l-2.674-3.927c0 4.565.154 8.052-.097 11.51-.072.995-1.31 1.906-2.013 2.855-.94-.871-2.074-1.616-2.75-2.659-.449-.693-.242-1.811-.443-3.966l-5.316 4.25c1.588 1.191 3.02 2.96 4.8 3.437 2.652.712 5.548.512 8.979.966 4.225 2.276 4.214 2.43-1.26 5.273l-12.91-1.482c3.4 5.42 8.64 5.021 14.48 5.23 5.2 2.605 1.642 3.96-1.601 5.221l-13.578-1.59c4.364 4.848 9.427 4.71 15.11 5.179l2.584 2.457c-1.137.935-2.274 1.87-4.19 2.632l-12.409-1.686c4.108 4.914 8.677 4.796 13.932 4.86M194.65 199.01l-6.38 1.359c10.048 11.449 15.828 24.019 17.058 38.242.499 5.773 2.51 9.47 7.02 12.92 3.163 2.421 5.302 6.3 7.551 9.755 1.75 2.687 2.962 5.723 4.577 8.929 1.14-1.312 1.994-2.297 3.404-3.58 4.362-4.354 8.813-8.625 13.028-13.116 1.14-1.214 2.223-3.093 2.228-4.671.078-24.818-.023-49.637.066-75.05v-4.776c-9.352 10.52-19.768 17.874-31.732 23.07-.275.119-.32.768-1.03 1.59-5.032 1.838-10.064 3.676-15.79 5.328M146.1 300.407l6.236-1.765c-8.587-9.857-14.52-20.603-16.132-33.001-1.067-8.204-2.412-15.462-10.043-20.343-2.324-1.487-3.72-4.592-5.226-7.141-1.7-2.875-3.043-5.96-4.753-9.374-1.259 1.537-2.188 2.67-3.73 4.161-4.373 4.341-8.83 8.601-13.06 13.077-1.145 1.21-2.269 3.071-2.27 4.635-.037 24.809.11 49.618.071 75.155v4.745c9.376-11.072 20.186-18.241 32.162-23.793.666-.309 1.116-1.083 2.365-1.888 4.609-1.38 9.218-2.76 14.38-4.468m-.36-50.198c7.067 2.076 13.814.16 20.343-2.12 10.902-3.806 21.746-7.29 33.784-3.881.142-1.518.547-2.692.298-3.706-1.657-6.74-2.496-13.894-5.38-20.083-9.84-21.122-26.317-33.675-50.77-36.191h-4.01c0 21.083.031 41.647-.028 62.21-.01 3.873 2.356 3.72 5.764 3.77m51.131 64.62 3.978-.344c0-20.326-.109-40.272.08-60.215.044-4.63-1.828-5.918-6.67-5.235-5.32.257-10.952-.517-15.9.975-12.357 3.726-24.466 8.11-37.779 5.419-.211 1.257-.471 1.904-.4 2.512 2.108 17.94 9.61 33.086 23.962 44.29 9.297 7.258 19.798 12.03 32.73 12.597M161.25 81.171c-5.545-2.004-11.038-4.18-16.68-5.858-1.04-.31-3.409 1.085-3.91 2.239-1.68 3.861 1.151 4.093 4.049 4.685 4.775.975 9.496 2.346 14.085 3.985.752.269.708 2.764 1.032 4.23-1.207.138-2.516.648-3.603.35-5.412-1.487-10.766-3.187-17.512-5.227 4.418 10.588-.854 17.109-4.861 23.751 4.477 2.071 8.886 3.929 13.116 6.13 2.837 1.477 5.082 2.207 7.232-1.09.525-.807 2.475-.686 3.77-.992.169 1.358.848 2.91.417 4.037-1.544 4.033-6.934 5.792-11.458 3.82-2.948-1.283-5.755-2.887-8.875-4.475l-1.25 4.266 5.788 3.481-3.7 4.21c.233 1.36.808 3.447.91 5.557.31 6.415 1.636 7.802 8.071 7.515 2.439-.108 4.86-.634 7.127-.948 2.728-12.099 5.21-14.134 18.645-15.235-.455-6.408-.748-12.854-1.408-19.261-.954-9.26-3.248-18.035-10.985-25.17m20.915 303.97c-.415-6.263 5.055-9.92 11.367-7.388 3.035 1.219 5.857 2.97 8.994 4.592.591-1.88 1.07-3.407 1.4-4.453l-5.844-3.243 3.839-4.812c-.79-3.143-.555-9.061-3.236-11.05-3.022-2.242-8.669-.949-11.322-1.093-3.046 5.22-4.403 9.764-7.45 12.158-3.195 2.511-8.01 2.96-13.609 4.8 1.493 9.592 2.273 20.39 5.009 30.667 3.105 11.662 12.422 17.949 24.446 18.512 1.359.063 3.541-.647 4.013-1.633 1.364-2.855.796-4.722-3.147-5.35-5.088-.812-10.055-2.54-14.953-4.224-.681-.234-.674-2.47-.986-3.78 1.444-.08 2.971-.503 4.318-.178 5.256 1.267 10.455 2.772 16.863 4.51-4.33-10.494 1.107-16.933 5-23.512-4.192-1.865-8.35-3.5-12.3-5.538-3.144-1.623-5.885-3.319-8.374.954-.39.67-2.287.463-4.028.06m38.676-80.64c0-8.154.451-16.339-.112-24.453-.739-10.655-5.917-19.257-14.734-27.274v5.982c0 18.303-.125 36.608.099 54.91.048 3.97-1.273 6.365-4.401 8.651-9.454 6.909-18.678 14.132-27.881 21.148l10.213 8.143c7.094-5.373 14.652-11.052 22.16-16.798 4.875-3.732 11.473-6.649 13.997-11.61 2.43-4.777.611-11.713.659-18.7m-86.312-115.912c-1.015-6.141 1.595-10.136 6.679-13.641 8.856-6.107 17.228-12.915 25.694-19.347l-10.28-8.158c-11.54 8.765-23.24 17.556-34.774 26.56-1.138.889-1.759 3.072-1.778 4.664-.143 12.327.233 24.667-.176 36.982-.333 10 3.878 17.999 9.577 25.537 1.291 1.708 3.18 2.966 5.058 4.671v-57.268m94.952-13.578c3.683-3.822 7.482-7.543 10.971-11.535.915-1.046 1.642-3.301 1.132-4.367-2.22-4.631-4.928-9.028-7.85-14.2-8.908 12.092-19.33 20.406-31.659 25.684-12.09 5.176-24.776 8.96-36.332 13.046 4.443 2.894 9.842 6.618 15.471 9.953 1.73 1.024 4.275 1.755 6.132 1.309 15.157-3.64 29.234-9.728 42.135-19.89m-77.329 147.603 23.899-6.7c-4.34-2.603-9.199-4.458-12.596-7.799-5.312-5.223-10.61-4.772-16.577-2.258-.454.191-.977.212-1.448.37-17.092 5.744-32.83 13.664-44.322 28.161-1.194 1.505-2.507 4.232-1.918 5.594 2.031 4.7 4.88 9.045 7.728 14.07 12.059-15.924 27.341-24.909 45.234-31.438m138.674-8.967c-2.31 5.011-1.99 9.899-.641 15.28 3.239 12.933 3.164 26.148-.535 38.936-1.546 5.344.173 9.273 1.793 15.123 2.464-4.174 4.593-6.985 5.903-10.137 5.679-13.657 5.893-27.794 2.92-42.065-1.391-6.677-3.406-13.152-9.44-17.137M48.441 117.985c-1.558 2.346-3.578 4.509-4.6 7.07-7.222 18.106-7.312 36.272.378 54.274 1.104 2.582 3.16 4.757 4.785 7.134 3.541-5.904 2.641-11.134 1.28-16.837-3.09-12.955-2.922-26.132.85-38.962 1.478-5.029.181-9-2.693-12.68M249.36 297.182c-4.564-3.513-6.456-8.003-5.917-13.856.44-4.772.089-9.616.089-14.429v-8.96c-5.987 4.533-10.788 9.32-15.461 14.227-.672.705-1.284 2.21-.986 2.983 3.982 10.33 8.725 20.179 19.374 25.385 1.855.907 4.073 1.068 6.123 1.574l.836-1.415c-1.182-1.662-2.363-3.325-4.058-5.51M97.01 235.976l.308 4.733c5.574-5.73 10.497-10.65 15.205-15.77.75-.816 1.17-2.897.663-3.755-4.097-6.932-8.048-14.016-12.887-20.417-2.698-3.57-7.074-5.753-13.915-5.445 2.516 3.165 4.008 5.547 5.985 7.416 3.196 3.02 4.992 6.234 4.742 10.89-.384 7.135-.101 14.304-.101 22.348m-23.851-75.57c3.552-.493 4.826-2.276 3.37-5.69H53.443l2.074 15.84c5.911-3.427 11.42-6.621 17.642-10.15m195.349 177.817c-3.228.884-6.264 1.891-4.097 6.371h22.97l-2.37-16.132c-5.634 3.403-10.7 6.462-16.503 9.761m14.19 27.02c.82-.244 2.29-.368 2.362-.752.866-4.648 1.526-9.335 2.266-14.185H264.15c-1.081 3.342.442 4.402 3.105 5.696 5.15 2.503 9.925 5.781 15.441 9.241M55.916 133.131l-2.617 15.753h24.692c-1.209-2.103-1.688-4.105-2.94-4.917-6.163-4.002-12.53-7.687-19.135-10.836z"/><path fill="#313131" d="M325.112 205V16.129H80.381v-4.926c1.353-.083 2.645-.23 3.937-.231 49.328-.012 98.656-.01 147.984-.01 30.496 0 60.993-.003 91.49.002 6.357.001 6.79.43 6.79 6.876.006 116.154.004 232.308.004 348.462v4.569h-5.474V205zM15.586 427v58.896H260.32v5.142h-4.025c-79.818 0-159.635.002-239.453-.003-6.084 0-6.724-.598-6.724-6.445-.007-116.644-.005-233.288-.005-349.932v-3.382l5.474-.4V427z"/><path fill="currentColor" d="M256.874 79.117 240.51 65.684c14.02-9.192 25.544-20.74 34.817-34.923 9.334 14.193 20.718 25.7 35.18 35.168-14.06 9.451-25.776 20.775-34.67 34.57-6.264-7.091-12.476-14.124-18.962-21.382zM57.943 410.925c2.604-3.446 4.997-6.604 7.526-9.942 9.226 14.017 20.61 25.522 35.048 34.966-14.12 9.464-25.793 20.841-35.103 35.222-9.452-13.955-20.709-25.739-34.087-34.285 8.918-8.672 17.66-17.173 26.616-25.961zM304.078 416.946a2998.736 2998.736 0 0 0-9.518-8.564l15.477-15.072 13.954 14.194-15.197 15.084 1.475 1.849a980.697 980.697 0 0 0-6.19-7.491zM20.283 9.515c.816-1.176 1.726-2.573 2.689-2.61C28.43 6.69 33.902 6.8 40.61 6.8c-1.012 1.792-1.54 3.83-2.327 3.936-3.848.512-3.711 3.099-3.7 5.863.032 8.641.038 17.282.004 25.923-.05 12.424-3.194 16.85-15.066 21.148-2.231-1.886-2.346-3.457.346-5.294 4.653-3.176 6.327-7.852 6.275-13.362-.08-8.64-.26-17.291.074-25.919.183-4.713-.098-8.495-5.934-9.58zM16.755 90.234c-1.349-.994-2.42-1.77-2.34-1.713l15.613-15.19 14.127 14.035-13.724 14.04c-3.403-2.783-8.4-6.868-13.676-11.172zM314.179 459.047c0 6.638.086 12.786-.035 18.93-.058 2.92.161 5.217 3.804 5.79 1.007.16 1.783 1.786 2.665 2.739l-.732 1.34c-5.741 0-11.483.054-17.222-.066-.728-.015-2.087-1.042-2.026-1.418.147-.909.866-2.352 1.52-2.448 3.891-.574 3.915-3.157 3.876-6.193-.115-8.969-.177-17.943 0-26.91.229-11.502 3.93-16.195 15.918-20.07.103 1.536.749 3.795.204 4.133-9.047 5.606-7.831 14.61-7.972 23.182-.003.166 0 .332 0 .99z"/><path fill="#C83112" d="M196.026 314.658c-12.086-.398-22.587-5.17-31.884-12.428-14.351-11.204-21.854-26.35-23.962-44.29-.071-.608.189-1.255.4-2.512 13.313 2.691 25.422-1.693 37.78-5.42 4.947-1.491 10.579-.717 16.423-.558.745 2.161 1.154 3.907 1.16 5.653.063 19.851.065 39.703.083 59.555z"/><path fill="#F8CA19" d="M144.854 184.4c23.613 2.344 40.09 14.897 49.93 36.019 2.884 6.19 3.723 13.342 5.38 20.083.25 1.014-.156 2.188-.298 3.706-12.038-3.408-22.882.075-33.784 3.88-6.529 2.28-13.276 4.197-20.743 1.473-.43-22.152-.457-43.656-.485-65.16z"/><path fill="#244DC2" d="M97.337 325.082c-.105-24.808-.253-49.617-.217-74.426.002-1.564 1.126-3.425 2.27-4.635a182.057 182.057 0 0 1 13.646-13.005c3.944 7.256 8.345 13.556 15.042 18.124 1.065.726 1.736 2.662 1.828 4.087.978 15.195 5.754 28.945 15.602 40.658 1.728 2.055 1.121 3.229.039 4.85-4.61 1.38-9.219 2.76-14.563 4.177-13.469 3.866-23.988 11.316-33.647 20.17z"/><path fill="#C93214" d="M243.051 174.392c.06 24.818.162 49.637.084 74.455-.005 1.578-1.088 3.457-2.228 4.671-4.215 4.491-8.666 8.762-13.416 12.921-3.631-7.44-7.983-13.777-14.652-18.379-1.01-.696-1.813-2.347-1.906-3.615-1.21-16.55-6.603-31.385-17.918-43.882l2.328-1.369c5.032-1.837 10.064-3.675 15.772-5.796 2.416-.731 4.419-.77 5.85-1.693 8.767-5.66 17.405-11.52 26.086-17.313z"/><path fill="#F9F9F9" d="M161.521 81.409c7.466 6.897 9.76 15.673 10.714 24.932.66 6.407.953 12.853 1.408 19.26-13.435 1.102-15.917 3.137-18.645 15.236-2.268.314-4.688.84-7.127.948-6.435.287-7.762-1.1-8.071-7.515-.102-2.11-.677-4.197-.91-5.556l3.7-4.211-5.788-3.481 1.25-4.266c3.12 1.588 5.927 3.192 8.875 4.476 4.524 1.97 9.914.212 11.458-3.82.431-1.128-.248-2.68-.418-4.038-1.294.306-3.244.185-3.77.991-2.15 3.298-4.394 2.568-7.23 1.092-4.231-2.202-8.64-4.06-13.117-6.13 4.007-6.643 9.279-13.164 4.86-23.752 6.747 2.04 12.101 3.74 17.513 5.227 1.087.298 2.396-.212 3.603-.35-.324-1.466-.28-3.961-1.032-4.23-4.589-1.639-9.31-3.01-14.085-3.985-2.898-.592-5.728-.824-4.05-4.685.502-1.154 2.871-2.548 3.91-2.24 5.643 1.678 11.136 3.855 16.952 6.097m-10.83 10.761c-3.471-1.46-4.82.425-4.458 3.409.21 1.732 1.732 3.306 2.663 4.95.9-1.787 1.92-3.529 2.635-5.387.246-.639-.268-1.57-.84-2.972zM182.435 385.44c1.471.103 3.368.31 3.758-.36 2.489-4.273 5.23-2.577 8.375-.954 3.95 2.037 8.107 3.673 12.3 5.538-3.894 6.58-9.332 13.018-5 23.512-6.409-1.738-11.608-3.243-16.864-4.51-1.347-.325-2.874.098-4.318.178.312 1.31.305 3.546.986 3.78 4.898 1.684 9.865 3.412 14.953 4.223 3.943.629 4.511 2.496 3.147 5.351-.472.986-2.654 1.696-4.013 1.633-12.024-.563-21.341-6.85-24.446-18.512-2.736-10.277-3.516-21.075-5.009-30.667 5.598-1.84 10.414-2.289 13.609-4.8 3.047-2.394 4.404-6.938 7.45-12.158 2.653.144 8.3-1.15 11.322 1.094 2.68 1.988 2.445 7.906 3.236 11.049l-3.84 4.812 5.844 3.243-1.399 4.453c-3.137-1.623-5.959-3.373-8.994-4.592-6.312-2.533-11.782 1.125-11.097 7.688m7.004 20.563 4.18.545c.1-2.24.36-4.493.161-6.706-.04-.442-2.564-1.21-2.7-1.006-.885 1.337-1.5 2.875-2.043 4.404-.202.57.031 1.293.402 2.763z"/><path fill="#F6F6F6" d="M220.84 304.999c-.047 6.487 1.771 13.423-.658 18.2-2.524 4.961-9.122 7.878-13.998 11.61-7.507 5.746-15.065 11.425-22.16 16.798l-10.212-8.143c9.203-7.016 18.427-14.239 27.88-21.148 3.129-2.286 4.45-4.68 4.402-8.652-.224-18.3-.1-36.606-.1-54.91v-5.981c8.818 8.017 13.996 16.62 14.735 27.274.563 8.114.112 16.299.112 24.952z"/><path fill="#F4F4F4" d="M134.529 189.076v56.779c-1.879-1.705-3.767-2.963-5.058-4.67-5.699-7.54-9.91-15.539-9.577-25.538.41-12.315.033-24.655.176-36.982.019-1.592.64-3.775 1.778-4.664 11.535-9.004 23.235-17.795 34.775-26.56l10.279 8.158c-8.466 6.432-16.838 13.24-25.694 19.347-5.084 3.505-7.694 7.5-6.68 14.13m9.281-26.882-1.372 4.645 3.6-.13c-.508-1.515-1.015-3.03-2.228-4.515z"/><path fill="#F8F8F8" d="M229.208 175.239c-12.628 9.932-26.705 16.02-41.862 19.66-1.857.446-4.402-.285-6.132-1.31-5.63-3.334-11.028-7.058-15.47-9.952 11.555-4.087 24.241-7.87 36.331-13.046 12.33-5.278 22.75-13.592 31.66-25.685 2.92 5.173 5.63 9.57 7.849 14.201.51 1.066-.217 3.321-1.132 4.367-3.49 3.992-7.288 7.713-11.244 11.765z"/><path fill="#F6F6F6" d="M151.785 322.753c-17.526 6.388-32.808 15.373-44.867 31.297-2.847-5.025-5.697-9.37-7.728-14.07-.59-1.362.724-4.089 1.918-5.594 11.492-14.497 27.23-22.417 44.322-28.16.471-.159.994-.18 1.448-.371 5.967-2.514 11.265-2.965 16.577 2.258 3.397 3.34 8.255 5.196 12.596 7.8a5819.095 5819.095 0 0 0-24.266 6.84z"/><path fill="#244CC0" d="M188 150.028c1.734-.349 3.468-.698 5.983-1.022 6.185.33 9.391-2.878 12.354-7.13 3.77-2.84 7.21-5.553 10.65-8.266 2.837 1.71 5.708 3.368 8.498 5.152 1.228.785 2.293 1.827 3.66 2.938-7.809 11.69-18.72 19.092-30.78 24.93-14.973 7.25-30.95 10.882-47.73 11.909 12.29-9.714 24.827-19.112 37.364-28.51z"/><path fill="#F7C91B" d="M152.787 348.963c-1.925.377-3.849.754-6.544 1.103-3.784 1.426-6.874 2.745-9.78 4.391-1.505.854-2.697 2.271-4.006 3.461-2.864 2.602-5.712 5.22-8.567 7.832l-13.006-8.218c20.335-25.106 47.322-34.112 77.647-36.463-.789 1.5-1.92 2.482-3.113 3.38-10.87 8.18-21.753 16.345-32.631 24.514z"/><path fill="#F1C720" d="m84.54 238.352 3.411-2.805c-.861-.82-1.722-1.638-2.916-2.88-.349-1.252-.364-2.08-.38-2.91 2.423-1.517 5.982-2.872.416-5.95-.366-1.33-.366-2.19-.366-3.048 4.635-3.07 4.646-3.224.075-6.05-.19-4.169-.032-7.786.125-11.403 5.515 3.788 7.339 8.753 7.27 15.65-.374 37.63-.178 75.265-.178 112.898v4.626c-2.295 0-4.381 0-6.852-.648-.367-30.1-.35-59.553-.331-89.006 4.092-1.486 4.176-3.316.166-5.985a9.885 9.885 0 0 1-.44-2.489z"/><path fill="#F7CA1C" d="m256.137 278.242-3.952 2.776c1.196 1.017 2.223 1.89 3.574 3.348.279 4.276.233 7.968.187 11.659-5.638-3.715-7.312-8.763-7.25-15.608.349-37.94.166-75.885.177-113.829 0-1.139.12-2.278.215-3.958 2.136 0 4.07 0 6.487.59.462 30.035.44 59.48.419 88.926l-3.94 2.518c1.155 1.05 2.269 2.061 3.71 3.545.359 1.138.391 1.803.424 2.468l-5.091 3.137c1.947.985 3.127 1.581 4.656 2.58.365 1.227.38 2.05.397 2.873l-3.99 2.757c1.206 1.032 2.231 1.909 3.59 3.218.351 1.289.37 2.145.387 3z"/><path fill="#F2C71E" d="M172.922 85.61c-7.262-11.063-17.918-15.484-30.725-15.822-1.402-.037-2.787-.714-4.18-1.093.048-3.76 2.06-4.854 5.135-4.946 15.591-.466 27.43 5.72 34.602 19.805 6.966 13.68 8.212 28.574 8.852 43.585.238 5.595.19 11.189-3.628 15.595-2.305 2.66-5.333 4.923-8.453 6.58-3.09 1.643-6.455 1.264-9.197-2.51-.735-.582-1.066-.659-1.397-.736 0 0 .068-.067.23-.41-1.998-4.619-.963-8.675 1.01-12.666 1.46-.625 2.964-1.816 4.367-1.708 1.265.098 3.499 1.777 3.396 2.479-.208 1.419-1.458 3.302-2.74 3.797-1.787.689-5.126-.505-4.21 2.816.358 1.3 3.822 2 5.98 2.438 1.096.222 2.433-.742 4.228-1.48.952-.71 1.337-1.107 1.722-1.505 0 0 .02.104.355.068 1.15-2.297 2.674-4.562 2.656-6.815-.071-9.093-.133-18.235-1.144-27.253-.795-7.088-1.5-14.534-6.86-20.218z"/><path fill="#F2C720" d="M175.13 366.033c-1.933 2.924-4.484 2.55-6.722.762-.719-.574-.898-3.106-.281-3.765.895-.955 2.814-.866 4.152-1.519 1.034-.504 2.524-1.418 2.579-2.233.063-.936-1.323-2.86-1.92-2.8-2.926.3-5.799 1.116-9.304 2.066-1.68 2.365-3.467 4.347-3.666 6.477-.445 4.765-.115 9.603-.07 14.412.098 10.329.982 20.58 5.224 30.126 1.383 3.113 4.041 5.66 6.116 8.465 6.019 7.193 13.775 10.733 23.094 10.996.998.028 2.116-.177 2.966.202 1.723.77 3.3 1.865 4.938 2.827-1.727 1.135-3.412 3.186-5.185 3.265-18.442.824-31.99-9.603-37.981-28.991-4.02-13.008-5.25-26.413-4.994-39.943.12-6.378 3.278-11.482 8.53-15.068 5.338-3.644 9.02-3.068 13.931 2.323.079 4.164.299 7.794.519 11.425 0 0-.059-.05-.292-.297-.7.258-1.167.764-1.634 1.27z"/><path fill="#F7F7F7" d="M291.05 313.333c5.81 4.297 7.825 10.772 9.216 17.449 2.973 14.271 2.759 28.408-2.92 42.065-1.31 3.152-3.439 5.963-5.903 10.137-1.62-5.85-3.34-9.78-1.793-15.123 3.7-12.788 3.774-26.003.535-38.936-1.348-5.381-1.67-10.269.866-15.592z"/><path fill="#F8F8F8" d="M48.73 117.77c2.585 3.895 3.882 7.865 2.404 12.894-3.772 12.83-3.94 26.007-.85 38.962 1.361 5.703 2.261 10.933-1.28 16.837-1.625-2.377-3.681-4.552-4.785-7.134-7.69-18.002-7.6-36.168-.377-54.275 1.021-2.56 3.041-4.723 4.889-7.284z"/><path fill="#C73314" d="M167.225 35.025c9.07.824 17.23 4.02 25.059 9.249-3.733 6.48-7.116 12.726-10.944 18.686-.762 1.186-3.378 2.025-4.88 1.725-3.64-.728-7.128-2.22-10.994-4.013.375-8.955 1.067-17.3 1.76-25.647zM173.323 463.994c-8.937-.713-16.873-4.105-24.981-9.04 3.938-6.88 7.606-13.492 11.564-19.926.458-.744 2.65-.957 3.815-.63 3.432.966 6.752 2.328 10.715 3.958.03 8.828-.542 17.233-1.113 25.638z"/><path fill="#F7C919" d="M256.062 371.876h-7.233c.71-9.62 1.382-19.5-9.726-23.847.35-.9.364-1.13.476-1.198 9.1-5.457 10.404-13.897 9.364-23.491-.48-4.42-.082-8.936-.082-13.73 2.11-.28 4.141-.549 6.64-.495.497 21.136.53 41.949.56 62.76z"/><path fill="#F6C919" d="M84.692 127.18h7.15c-.54 9.466-1.355 19.266 9.967 23.893-1.016 1.29-1.377 2.123-2.008 2.492-7.072 4.13-8.647 10.41-7.923 18.115.553 5.882.11 11.857.11 17.887-2.327.23-4.259.42-6.681.255-.532-21.118-.573-41.88-.615-62.642z"/><path fill="#F4F4F4" d="M249.616 297.443c1.438 1.923 2.62 3.586 3.8 5.248l-.835 1.415c-2.05-.506-4.268-.667-6.123-1.574-10.649-5.206-15.392-15.055-19.374-25.385-.298-.773.314-2.278.986-2.983 4.673-4.908 9.474-9.694 15.46-14.228v8.961c0 4.813.352 9.657-.088 14.43-.54 5.852 1.353 10.342 6.174 14.116z"/><path fill="#FCFCFC" d="M97.009 235.53c0-7.599-.283-14.768.1-21.902.251-4.657-1.545-7.872-4.74-10.891-1.978-1.869-3.47-4.25-5.986-7.416 6.84-.308 11.217 1.875 13.915 5.445 4.839 6.401 8.79 13.485 12.887 20.417.507.858.087 2.939-.663 3.754-4.708 5.12-9.631 10.042-15.205 15.771-.149-2.287-.228-3.51-.308-5.178z"/><path fill="#C73416" d="m137.183 38.135 20.056-4.296-2.163 25.296c-4.155-.27-8.018-.523-12.364-1.3-2.165-6.916-3.847-13.308-5.529-19.7z"/><path fill="#C73314" d="m202.945 460.882-19.51 5.365c.721-9.26 1.317-16.903 1.97-25.305 4.042 0 7.944 0 12.394.418 2.081 6.786 3.614 13.154 5.146 19.522zM200.032 49.889l15.65 14.238c-5.322 4.121-9.846 7.625-15.085 11.016-4.267-2.223-7.822-4.334-11.497-6.517l10.932-18.737zM140.71 449.214l-15.65-14.245c5.202-4.128 9.689-7.688 14.827-11.187 4.248 2.242 7.846 4.422 11.587 6.689-3.734 6.502-7.25 12.622-10.764 18.743z"/><path fill="#EFF1F4" d="M145.823 300.571c.806-1.457 1.413-2.63-.315-4.686-9.848-11.713-14.624-25.463-15.602-40.658-.092-1.425-.763-3.36-1.828-4.087-6.697-4.568-11.098-10.868-14.735-18.303.65-1.383 1.579-2.517 2.838-4.054 1.71 3.414 3.054 6.499 4.753 9.374 1.506 2.55 2.902 5.654 5.226 7.14 7.63 4.882 8.976 12.14 10.043 20.344 1.611 12.398 7.545 23.144 16.132 33-2.332.66-4.284 1.214-6.512 1.93z"/><path fill="#F3F3F3" d="M196.449 314.743c-.441-19.937-.443-39.789-.507-59.64-.005-1.746-.414-3.492-.804-5.62 3.963-1.132 5.835.155 5.791 4.786-.189 19.943-.08 39.889-.08 60.215-1.487.128-2.732.236-4.4.259z"/><path fill="#FDFBF2" d="M144.434 184.314c.448 21.59.476 43.095.527 65.055-2.63.788-4.996.942-4.985-2.93.06-20.564.028-41.128.028-62.211 1.521 0 2.765 0 4.43.086z"/><path fill="#F7F1F0" d="M194.996 199.102c-.334.493-1.015.893-1.98 1.461 11.314 12.497 16.707 27.333 17.917 43.882.093 1.268.897 2.919 1.906 3.615 6.67 4.602 11.02 10.94 14.374 18.529-.744 1.328-1.598 2.313-2.738 3.625-1.615-3.206-2.828-6.242-4.577-8.929-2.249-3.454-4.388-7.334-7.552-9.754-4.509-3.45-6.52-7.148-7.02-12.921-1.23-14.223-7.009-26.793-17.058-38.242 2.502-.533 4.442-.946 6.728-1.266z"/><path fill="#FEF6D9" d="M84.376 246.714c.42 29.565.402 59.018.413 88.95-4.186 1.572-2.742-1.74-2.748-3.405-.086-22.058-.058-44.116-.058-66.175 0-5.307-.117-10.62.09-15.918.047-1.21 1.214-2.378 2.303-3.452z"/><path fill="#F0F0F0" d="M72.801 160.572a3932.067 3932.067 0 0 0-17.285 9.983l-2.074-15.84H76.53c1.455 3.414.18 5.197-3.728 5.857z"/><path fill="#F3F3F3" d="M268.876 338.102c5.434-3.18 10.5-6.238 16.134-9.64l2.37 16.131h-22.97c-2.167-4.48.87-5.487 4.466-6.491z"/><path fill="#F0C51F" d="M184.986 79.983c6.762 6.82 9.075 15.755 10.73 24.649 1.634 8.787 2.146 17.803 2.789 26.745.347 4.833-.918 9.296-6.137 11.344 3.878-12.246 1.842-24.251-.04-35.986-1.458-9.077-4.824-17.846-7.342-26.752z"/><path fill="#EEC420" d="M155.924 419.125c-2.008-2.908-4.495-5.596-5.94-8.76-6.561-14.366-7.956-29.75-7.591-45.258.068-2.924 3.101-5.778 5.244-8.06-.094 5.5-1.208 10.402-1.138 15.287.23 16.146 2.829 31.89 9.425 46.79z"/><path fill="#F9F9F9" d="M282.403 364.99c-5.223-3.208-9.997-6.486-15.148-8.989-2.663-1.294-4.186-2.354-3.105-5.696h23.175c-.74 4.85-1.4 9.537-2.266 14.185-.071.384-1.542.508-2.656.5z"/><path fill="#FAFAFA" d="M56.07 132.807c6.451 3.473 12.818 7.158 18.981 11.16 1.252.812 1.731 2.814 2.94 4.917H53.3c.91-5.473 1.763-10.613 2.772-16.077z"/><path fill="#DCD7C8" d="M256.47 371.95c-.44-20.886-.472-41.699-.558-63.022.508-1.474 1.07-2.438 1.633-3.401l1.125.822c0 21.139.019 42.277-.075 63.415-.004.755-1.118 1.506-2.124 2.185z"/><path fill="#FEF6D9" d="M84.278 127.11c.456 20.832.497 41.594.597 62.865-.656 1.395-1.37 2.281-2.892 4.17v-21.171c0-13.967-.052-27.933.082-41.898.013-1.352 1.171-2.692 2.213-3.967z"/><path fill="#FEF7E1" d="M256.466 252.248c-.45-29.548-.429-58.993-.439-88.918.806.506 2.37 1.488 2.375 2.477.131 27.805.122 55.611.038 83.417-.003 1.044-.98 2.085-1.974 3.024z"/><path fill="#EEECE2" d="M184.99 80.001c2.514 8.888 5.88 17.657 7.337 26.734 1.883 11.735 3.92 23.74-.318 35.932.015.398-.01.346-.24.35-.397.294-.563.583-.73.873-.547-.432-1.63-.982-1.565-1.278 5.284-23.922 1.436-46.384-10.603-68.038.026-.473.341-.79.341-.79 1.051.906 2.103 1.812 3.432 3.255a19.627 19.627 0 0 0 1.443 1.946s-.073-.008-.032.259c.352.436.664.605.976.775 0 0-.038.001-.042-.018z"/><path fill="#F0EDDF" d="M155.95 419.095c-6.622-14.87-9.221-30.615-9.451-46.761-.07-4.885 1.044-9.787 1.473-15.081-.142-.4-.068-.375.296-.407.486-.487.608-.94.73-1.395.666.541 1.985 1.212 1.907 1.605-4.403 22.128-1.196 43.192 8.606 63.378.327.674.436 1.453.88 2.992-1.523-.804-2.309-1.218-3.216-2.281-.504-1.14-.886-1.63-1.267-2.122 0 0 .067.042.041.072z"/><path fill="#EAECF2" d="M187.598 149.953c-12.136 9.474-24.674 18.872-37.378 28.54-1.421.333-2.676.4-3.93.465l-.42-.85c11.285-8.384 22.512-16.85 33.91-25.08 2.122-1.534 4.927-2.125 7.818-3.075z"/><path fill="#F2EBEA" d="M140.907 449.536c3.318-6.443 6.833-12.563 10.567-19.065a6456.042 6456.042 0 0 1-11.26-6.834c1.004-.376 2.653-1.134 3.601-.614 4.052 2.224 7.896 4.825 12.261 7.569l-12.154 21.2c-1.094-.75-1.956-1.342-3.015-2.256z"/><path fill="#F3F1E8" d="M153.2 349.055c10.465-8.261 21.347-16.426 32.218-24.606a26.637 26.637 0 0 0 3.529-3.166c.045-.343.052-.29.283-.22.677-.185 1.124-.44 1.571-.696l3.958-.452c-.59.898-.795 1.497-1.214 1.808-11.659 8.666-23.308 17.346-35.061 25.881-1.308.95-3.233 1.049-5.285 1.45z"/><path fill="#F3EDEC" d="M199.853 49.577c-3.42 6.481-7.02 12.65-10.753 19.05 3.675 2.182 7.23 4.293 11.166 6.532-.718.557-2.214 1.675-2.854 1.307-4.29-2.47-8.399-5.255-12.786-8.08 3.67-6.39 7.383-12.656 10.884-19.038 1.538-2.804 2.758-1.286 4.343.23z"/><path fill="#F3F1E8" d="M171.126 417.67c-1.963-2.452-4.62-4.998-6.004-8.111-4.242-9.546-5.126-19.797-5.224-30.126-.045-4.809-.375-9.647.07-14.412.199-2.13 1.986-4.112 3.436-6.186-.15 7.85-1.221 15.736-1.097 23.601.194 12.212 2.065 24.192 8.82 35.235z"/><path fill="#EEEBDE" d="m206.17 132.502-2.225 2.715c-.737-18.652-1.7-36.47-10.339-52.796l1.31-.594c1.595 2.751 3.19 5.502 4.932 8.957 4.524 14.025 6.17 27.76 6.322 41.718z"/><path fill="#F6EEEC" d="M173.657 464.135c.237-8.546.808-16.951 1.136-25.77 1.51-.182 3.263.05 5.443.338l-2.342 26.18c-1.446-.224-2.674-.416-4.237-.748z"/><path fill="#F1EEE4" d="M172.61 85.797c5.671 5.498 6.376 12.944 7.17 20.032 1.012 9.018 1.074 18.16 1.145 27.253.018 2.253-1.506 4.518-2.709 6.81 1.542-18.335.846-36.433-5.607-54.095z"/><path fill="#F7F1F0" d="M166.868 34.875c-.335 8.496-1.027 16.842-1.726 25.603-2.201.564-4.6.9-4.344-2.482.59-7.832 1.262-15.658 1.93-23.847 1.62.246 2.701.411 4.14.726z"/><path fill="#EEECE2" d="m134.731 366.158 2.096-2.735c.418 19.28 1.765 37.37 9.501 54.481-1.35-1.928-2.7-3.856-4.18-6.44-.497-1.25-.864-1.848-1.23-2.445 0 0 .076.003.077-.367-4.705-14.022-6.379-28.125-6.264-42.494z"/><path fill="#E4E6ED" d="M97.265 325.447c9.731-9.22 20.25-16.669 33.37-20.41-.165.643-.615 1.417-1.281 1.726-11.976 5.552-22.786 12.72-32.162 23.793 0-2.356 0-3.55.073-5.11z"/><path fill="#E9C124" d="M134.45 366.349c.166 14.178 1.84 28.281 6.514 42.326-5.65-6.634-6.78-15.2-7.91-23.646-.824-6.16-2.503-12.531 1.396-18.68z"/><path fill="#F2EBEA" d="M243.126 174.094c-8.756 6.09-17.394 11.951-26.161 17.61-1.431.925-3.434.963-5.571 1.484-.245-.329-.2-.978.075-1.098 11.964-5.195 22.38-12.55 31.732-23.069 0 2.148 0 3.462-.075 5.073z"/><path fill="#F3EDEC" d="M203.367 460.974c-1.954-6.46-3.487-12.828-5.092-19.56 1.332-.609 2.739-.856 4.404-1.148l5.849 20.362c-1.971.183-3.355.311-5.16.346z"/><path fill="#EBC121" d="M206.424 132.31c-.406-13.767-2.052-27.5-6.39-41.237 1.444 2.298 3.536 4.869 4.13 7.748 1.789 8.675 3.194 17.445 4.29 26.235.28 2.246-1.138 4.703-2.03 7.254z"/><path fill="#F7F1F0" d="M136.741 38.048c2.124 6.479 3.806 12.87 5.605 19.664-1.294.588-2.706.775-4.35.993-1.726-5.946-3.318-11.631-5.04-17.277-1.018-3.337.865-3.63 3.785-3.38z"/><path fill="#EDECE9" d="M84.773 203.05c-.025 3.873-.182 7.49-.313 11.525-2.765.23-5.661.43-8.313-.282-1.78-.477-3.212-2.246-4.8-3.437l5.316-4.25c.201 2.155-.006 3.273.443 3.966.676 1.043 1.81 1.788 2.75 2.66.703-.95 1.941-1.86 2.013-2.856.251-3.458.097-6.945.097-11.51 1.235 1.814 1.955 2.87 2.807 4.183zM256.083 296.345c-.091-4.011-.045-7.703-.02-11.853 2.779-.261 5.68-.444 8.343.267 1.77.472 3.198 2.22 4.78 3.398l-4.719 4.367c-.382-2.293-.277-3.52-.805-4.34-.608-.945-1.801-2.134-2.693-2.095-.815.035-2.147 1.509-2.238 2.447-.305 3.13-.154 6.303-.187 9.93-.008.47.045.427.045.427-.79-.743-1.58-1.485-2.506-2.548z"/><path fill="#F3F1E8" d="M124.121 365.923c2.624-2.785 5.472-5.403 8.336-8.005 1.31-1.19 2.5-2.607 4.007-3.46 2.905-1.647 5.995-2.966 9.415-4.364-5.103 6.501-14.682 8.58-18.273 17.63a108.518 108.518 0 0 1-3.485-1.801z"/><path fill="#EDECE9" d="M84.285 220.645c.42.972.42 1.831.434 3.013-5.123.413-10.363.813-13.764-4.608 4.304.494 8.607.988 13.33 1.595zM256.566 278.37c-.447-.983-.465-1.84-.506-3.016 5.063-.17 10.516-1.094 14.676 4.855-5.183-.646-9.462-1.178-14.17-1.839z"/><path fill="#E6E5DF" d="M84.245 229.63c.426.956.441 1.785.413 2.924-4.974.067-10.037.205-14.4-4.644 5.183.608 9.38 1.1 13.987 1.72z"/><path fill="#E4E6ED" d="M216.735 133.369a74.87 74.87 0 0 1-10.439 8.118c-.4-.522-.43-.78-.458-1.04l8.018-8.73c.46.247 1.544.83 2.879 1.652z"/><path fill="#EEECE2" d="M256.565 269.43c-.431-.986-.447-1.81-.45-2.941 4.611.039 9.404-.2 14.178 4.46-5.394-.55-9.353-.954-13.728-1.52z"/><path fill="#EDECE9" d="M84.15 238.265c.435.746.48 1.405.516 2.395-4.637.63-9.206.747-13.314-4.167 4.817.655 8.613 1.17 12.798 1.772zM256.596 260.795c-.44-.783-.473-1.448-.522-2.446 4.485-.593 8.9-.597 11.88 3.943-3.65-.46-7.3-.92-11.358-1.497z"/><path fill="#EAECF2" d="M205.492 140.579c.375.127.404.386.473 1.033-2.59 4.516-5.797 7.724-11.604 7.343 3.326-2.798 7.056-5.522 11.131-8.376z"/><path fill="#EEEBDE" d="M177.413 364.97c-.577-3.54-.797-7.171-.714-11.044 4.126 3.066 4.306 5.688.714 11.045z"/><path fill="#F3F1E8" d="M164.788 132.936c-1.59 4.047-2.625 8.103-.66 12.755-4.679-3.99-4.535-7.992.66-12.755z"/><path fill="#EEC420" d="M155.804 419.343c.485.172.867.663 1.212 1.482-.463-.168-.89-.665-1.212-1.482z"/><path fill="#E9C124" d="M140.812 409.385c.472.231.839.828 1.198 1.797-.44-.23-.872-.83-1.198-1.797z"/><path fill="#F1EEE4" d="M177.614 139.605c-.085.622-.47 1.02-1.187 1.424.074-.545.48-1.096 1.187-1.424z"/><path fill="#EEEBDE" d="M175.448 366.033c.149-.506.616-1.012 1.34-1.24-.169.599-.595.919-1.34 1.24z"/><path fill="#F7C91B" d="M190.516 320.287c-.162.336-.609.591-1.31.764.173-.337.6-.59 1.31-.764z"/><path fill="#F0C51F" d="M184.11 78.657c-.411-.141-.8-.611-1.261-1.397.378.145.831.607 1.26 1.397z"/><path fill="#EEC420" d="M148.625 355.567c.25.338.13.792-.346 1.317-.245-.354-.136-.777.346-1.317z"/><path fill="#EEECE2" d="M178.737 74.256c-.318-.225-.476-.605-.634-.986.28-.01.56-.02.975.242.134.273-.181.589-.341.744z"/><path fill="#DCD7C8" d="M258.461 299.004c.128-.111.075-.069.047-.081-.028-.013-.044.407-.044.407s-.13-.215-.003-.326z"/><path fill="#F0C51F" d="M185.027 79.721c-.308.128-.62-.04-.955-.51.301-.128.626.042.955.51z"/><path fill="#F3F1E8" d="M163.945 146.403c.317-.258.648-.18 1.069.221-.292.255-.673.184-1.07-.221z"/><path fill="#F0C51F" d="M191.317 143.883c-.111-.283.055-.572.48-.86.105.286-.049.57-.48.86z"/><path fill="#3A3A3A" d="M150.893 92.473c.37 1.1.884 2.03.638 2.669-.715 1.858-1.735 3.6-2.635 5.388-.931-1.645-2.453-3.219-2.663-4.951-.362-2.984.987-4.868 4.66-3.106z"/><path fill="#272625" d="M189.271 405.596c-.203-1.062-.436-1.786-.234-2.355.542-1.53 1.158-3.067 2.043-4.404.136-.205 2.66.564 2.7 1.006.2 2.213-.061 4.467-.16 6.706-1.394-.181-2.787-.363-4.349-.953z"/><path fill="#3A3A3A" d="M144.162 162.179c.86 1.5 1.367 3.015 1.875 4.53l-3.6.13c.458-1.549.915-3.097 1.725-4.66z"/></svg>