<svg xmlns="http://www.w3.org/2000/svg" viewBox="0 0 336 496" xml:space="preserve"><path fill="currentColor" d="M1 16.428c2.728-1.208 5.322-2.282 7.668-3.905 1.815-1.255 3.672-2.383 5.975-1.242 2.365 1.173 1.653 3.42 1.67 5.296.073 8.297.09 16.596.004 24.892-.034 3.297.355 6.025 4.473 6.333 1.665.125 2.95 1.027 2.812 2.837-.172 2.265-2.075 2.317-3.743 2.332-5.973.056-11.948.04-18.39.04C1 51.286 1 49.57 1.328 47.569c2.983.368 5.961.443 6.122-2.923.376-7.876.12-15.782.12-23.675-2.82-.224-4.7.376-6.571 1.029v-5.572zM337 479.572c-2.586-.086-4.372 1.65-6.364 2.742-4.629 2.539-6.915 1.37-6.958-3.778-.072-8.647-.165-17.298.04-25.94.08-3.408-.938-5.351-4.398-5.941-1.608-.274-3.557-.682-3.192-2.992.365-2.316 2.414-1.917 3.993-1.928 5.32-.036 10.64.03 16.42.16.459 1.494.459 2.883.077 4.772-3.378.497-4.36 2.12-4.305 4.95.11 5.628.157 11.263-.01 16.888-.104 3.449 1.133 5.37 4.697 5.495v5.572zM217.501 422.504c-4.312-3.39-8.356-6.549-13.298-10.409 14.212-9.638 25.92-21.186 35.677-35.986 10.215 14.288 21.297 26.52 36.524 35.985-14.645 9.79-26.439 21.258-36.247 36.345-7.146-9.764-13.829-18.607-22.656-25.935zM80.126 314.875c-5.152-4.201-10.05-8.156-15.731-12.743 13.935-9.686 25.694-21.178 35.413-35.96 10.306 14.087 21.383 26.327 36.489 35.947-14.498 9.781-26.356 21.176-36.038 36.124-6.574-8.554-12.416-16.58-20.133-23.368zM115.298 99.3c-5.658 5.638-9.974 11.953-15.291 18.723-9.993-13.921-20.993-25.979-36.023-35.546C78.218 72.422 90.072 61.051 99.83 46.199c10.224 14.294 21.702 26.288 36.196 35.966-7.488 5.643-14.573 10.574-20.73 17.135zM251.294 280.715c7.34 8.193 15.466 14.994 24.63 21.513-7.194 5.356-13.807 10.31-19.737 16.105-5.845 5.713-10.45 12.438-16.205 19.672-9.956-13.97-21.049-26.123-36.135-35.536 14.535-10.005 26.238-21.576 35.902-36.12l11.545 14.366zM139.67 350.649c11.95-8.65 21.535-19.142 30.246-31.956 10.193 14.446 21.428 26.488 36.368 35.928-14.552 9.874-26.416 21.276-36.147 36.343-9.982-14.643-21.458-26.395-35.224-35.484.91-2.772 3.011-3.361 4.757-4.831zM89.239 170.247c3.582-4.553 6.938-8.834 10.85-13.824 9.999 14.008 21.125 26.187 36.334 35.743-14.859 9.583-26.335 21.363-36.34 36.132-9.98-14.348-21.128-26.255-35.87-35.702 9.004-7.248 17.864-13.634 25.026-22.35zM237.447 159.536c1.41-2.04 2.799-3.175 4.42-.825 9.057 13.126 20.23 24.13 34.354 33.49-14.613 9.625-26.181 21.297-36.194 36.088-9.86-14.452-21.139-26.218-36.012-35.837 13.191-9.485 24.651-19.655 33.432-32.916zM260.378 94.378c-7.753 6.866-13.885 14.704-20.369 23.672-9.924-14.185-21.253-26.095-36.12-35.701 14.662-9.8 26.157-21.57 36.074-36.177 10.07 14.51 21.583 26.287 35.872 35.85-5.43 4.322-10.32 8.213-15.457 12.356zM71.992 418.015c-2.43-2-5.2-3.02-7.345-6.193 13.858-9.316 25.617-20.816 35.146-35.85 10.273 14.475 21.414 26.639 36.564 36.14-14.715 9.73-26.344 21.36-36.405 36.508-7.974-12.314-16.996-22.16-27.96-30.605zM156.804 159.182c-6.362-7.78-14.534-13.036-22.605-19.75 14.54-9.395 25.855-21.17 35.713-35.67 10.23 14.43 21.538 26.42 36.281 35.972-14.626 9.714-26.286 21.166-36.016 36.12-4.61-6.022-8.325-11.7-13.373-16.672zM279.66 462.994c.075-3.122.03-5.74.712-8.386 2.43-9.423 7.95-14.052 16.85-13.81 8.315.226 13.296 4.895 14.787 14.606.728 4.738.838 9.628-.265 14.394-2.234 9.647-8.37 14.604-17.157 13.95-8.97-.668-14.051-6.223-14.855-16.29-.106-1.325-.052-2.662-.072-4.464m22.25-8.402c-.348-1.44-.553-2.935-1.075-4.31-.873-2.3-2.308-4.07-5.107-3.935-2.7.13-4.34 1.794-4.994 4.169-2.115 7.677-2.05 15.405.281 23.024.785 2.564 2.087 5.218 5.374 4.984 3.082-.22 4.45-2.69 5.147-5.365 1.527-5.854 1.572-11.789.374-18.567zM49.893 11.603c5.647 1.904 8.314 5.827 9.487 11.04 1.405 6.254 1.615 12.517-.112 18.71-2.384 8.55-7.634 12.156-17.016 11.975-7.454-.143-11.8-3.91-13.814-12.462-1.345-5.714-1.406-11.553.134-17.254 2.793-10.336 10.357-14.64 21.32-12.009m-6.87 36.726c3.931.688 5.521-2.045 6.36-4.95 2.125-7.357 1.677-14.82-.138-22.183-.668-2.712-2.185-4.96-5.437-4.971-3.287-.01-4.669 2.298-5.37 5.004-1.918 7.41-1.502 14.823.403 22.173.515 1.987 1.634 3.638 4.183 4.927zM34.231 100.205c-1.466 1.578-2.057 3.475-4.452 4.638-5.201-6.092-10.493-12.406-18.192-17.412 7.192-5.34 12.918-11.169 18.36-18.307 5.645 6.748 10.875 13.098 18.761 18.05-5.747 4.102-10.5 7.923-14.477 13.03zM317.773 398.225c3.436 3.101 6.62 5.952 10.354 9.296-7.11 4.824-12.734 10.75-18.037 17.992-5.406-7.149-11.167-12.97-18.685-18.521 7.71-4.653 12.975-10.775 18.028-17.313 3.91 1.962 5.244 5.882 8.34 8.546z"/></svg>