<svg xmlns="http://www.w3.org/2000/svg" viewBox="0 0 340 500" xml:space="preserve"><path fill="transparent" d="M1 187V1.028h339.922v499.82H1V187M94.293 53.734c-8.308 11.307-18.67 20.494-30.43 28.651 14.42 9.282 25.706 20.867 35.148 35.08 9.437-14.39 20.935-25.88 35.31-35.249-14.594-9.271-25.808-21.105-35.373-34.996a607.33 607.33 0 0 1-4.655 6.514m138.032 54.478 6.821 9.123c9.245-14.325 20.87-25.688 35.126-35.143-14.543-9.264-25.764-21.083-35.383-35.076-9.48 14.581-21.147 25.828-33.734 34.314 8.998 8.806 17.882 17.502 27.17 26.782m10.932 165.615c8.466-11.497 18.823-21.03 30.966-29.132-14.405-9.297-25.8-20.967-35.26-35.126-9.474 14.408-20.938 25.817-35.155 35.152 14.191 9.378 25.72 20.922 35.145 35.062a471.22 471.22 0 0 0 4.304-5.956m-155.936-49.03L64.673 245.27c13.204 8.789 24.823 20.215 34.31 34.692 9.51-14.45 21.11-25.89 35.218-35.264-14.32-9.303-25.76-20.875-35.002-34.845-4.035 5.101-7.72 9.759-11.878 14.944M73.585 405.115l-9.656 7.334c14.334 9.149 25.639 20.867 35.114 34.965 9.452-14.386 20.885-25.808 35.25-35.172-14.364-9.177-25.744-21.005-34.503-33.809-8.776 8.975-17.214 17.605-26.205 26.682m167.858 38.802c8.68-12.604 19.568-22.947 32.82-31.678-14.227-9.2-25.693-20.782-35.31-35.214-9.4 14.499-21.07 25.867-35.156 35.275 14.354 9.313 25.784 20.9 35.156 35.063.95-1.321 1.512-2.102 2.49-3.446m-43.948-283.882c-11.224-8.24-20.419-18.424-28.548-30.496-9.335 14.391-20.908 25.82-35.22 35.233 14.502 9.31 25.783 21.08 35.392 35.12 9.438-14.59 21.1-25.847 34.986-35.134-2.268-1.618-4.153-2.962-6.61-4.723M13.001 88.46l14.753 13.796 15.206-14.58-15.172-15.4c-3.924 3.657-9.37 8.7-14.752 13.808-.423.402-.404 1.268-.035 2.376M310.97 422.23l12.976-13.607-14.958-15.138-14.942 15.055c3.528 3.764 8.555 9.208 13.732 14.506.414.423 1.86-.162 3.192-.816m-.92 54.733h-10.498c7.5-8.347 12.539-16.976 14.976-26.996 1.862-7.658 1.386-8.221-6.587-7.736-.275.016-.532.325-1.063.671-.874 12.175-5.12 23.328-12.272 33.453-1.979 2.8-.197 6.147 3.196 6.202 7.946.13 15.896.042 24.403.042l.804-13.92c-3.847-1.316-5.318.403-5.83 3.217-.652 3.571-2.79 5.064-7.13 5.067M30.588 52.015c1.837-11.548 4.914-22.606 11.669-32.439 1.278-1.86 1.154-4.684 1.749-7.39H15.762l-.784 13.304c3.53 1.61 4.748.106 5.896-2.613.79-1.872 2.422-4.458 4.005-4.716 4.1-.668 8.38-.224 13.17-.224-8.733 10.067-14.678 20.736-15.6 34.252 3.091 0 5.23 0 8.139-.174z"/><path fill="currentColor" d="M94.516 53.45a1055.2 1055.2 0 0 0 4.432-6.23c9.565 13.89 20.78 25.725 35.374 34.996-14.376 9.369-25.874 20.859-35.311 35.248-9.442-14.212-20.728-25.797-35.147-35.079 11.758-8.157 22.121-17.344 30.652-28.936zM232.123 107.92c-9.086-8.988-17.97-17.684-26.968-26.49 12.587-8.486 24.254-19.733 33.734-34.314 9.62 13.993 20.84 25.812 35.383 35.076-14.255 9.455-25.881 20.818-35.126 35.143-2.504-3.35-4.662-6.236-7.023-9.415zM243.06 274.128a809.756 809.756 0 0 1-4.107 5.655c-9.425-14.14-20.954-25.684-35.145-35.062 14.217-9.335 25.68-20.744 35.155-35.152 9.46 14.16 20.855 25.83 35.26 35.126-12.143 8.103-22.5 17.635-31.162 29.433zM87.557 224.534c3.922-4.922 7.607-9.58 11.642-14.68 9.243 13.97 20.681 25.541 35.002 34.844-14.107 9.374-25.708 20.814-35.218 35.264-9.487-14.477-21.106-25.903-34.31-34.692a8563.664 8563.664 0 0 0 22.884-20.736zM73.862 404.89c8.714-8.852 17.152-17.482 25.928-26.457 8.759 12.804 20.139 24.632 34.503 33.809-14.365 9.364-25.798 20.786-35.25 35.172-9.475-14.098-20.78-25.816-35.114-34.965 3.385-2.572 6.52-4.953 9.933-7.558zM241.235 444.198c-.77 1.063-1.332 1.844-2.282 3.165-9.372-14.163-20.802-25.75-35.156-35.063 14.085-9.408 25.756-20.776 35.156-35.275 9.617 14.432 21.083 26.014 35.31 35.214-13.252 8.73-24.14 19.074-33.028 31.96zM197.781 160.243c2.17 1.553 4.056 2.897 6.324 4.515-13.886 9.287-25.548 20.543-34.986 35.133-9.609-14.039-20.89-25.81-35.392-35.12 14.312-9.412 25.885-20.84 35.22-35.232 8.13 12.072 17.324 22.256 28.834 30.704zM12.723 88.232c-.09-.88-.11-1.746.313-2.148 5.382-5.109 10.828-10.151 14.752-13.808l15.172 15.4-15.206 14.58a7189.218 7189.218 0 0 0-15.03-14.024zM310.787 422.498c-1.149.385-2.594.97-3.008.547-5.177-5.298-10.204-10.742-13.732-14.506l14.942-15.055 14.958 15.138c-3.233 3.39-8.104 8.499-13.16 13.876zM310.49 476.946c3.9.013 6.038-1.48 6.69-5.051.512-2.814 1.983-4.533 5.83-3.218l-.804 13.921c-8.507 0-16.457.089-24.403-.042-3.393-.055-5.175-3.402-3.196-6.202 7.153-10.125 11.398-21.278 12.272-33.453.531-.346.788-.655 1.063-.671 7.973-.485 8.45.078 6.587 7.736-2.437 10.02-7.476 18.649-14.976 26.996 4.043 0 7.27 0 10.938-.016zM30.203 52.102c-2.524.087-4.663.087-7.755.087.923-13.516 6.868-24.185 15.602-34.252-4.791 0-9.072-.444-13.17.224-1.584.258-3.216 2.844-4.006 4.716-1.148 2.719-2.366 4.223-5.896 2.613l.784-13.304h28.244c-.595 2.706-.471 5.53-1.75 7.39-6.754 9.833-9.83 20.89-12.053 32.526z"/></svg>