<svg xmlns="http://www.w3.org/2000/svg" viewBox="0 0 340 500" xml:space="preserve"><path fill="#FEFEFE" d="M341 132v369H1V1h340v131m-55.157 222.468-20.575-7.253-.66-8.938c.769-.046 1.007-.126 1.07-.053.327.376.652.767.9 1.197 2.698 4.675 6.532 7.051 12.037 5.777 4.154-.96 6.618-3.732 7.394-7.844 1.053-5.581-1.778-9.166-6.378-11.79-4.264-2.434-8.472-4.965-13.41-7.867 1.766-1.408 3.277-2.15 4.095-3.361 1.663-2.462 3.914-5.077 4.197-7.807.63-6.07.112-12.253.23-18.386.076-3.987-1.628-6.728-5.24-8.176-1.858-.745-3.88-1.082-5.918-1.627 6.663-8.842 8.666-18.672 7.032-31.45-2.31-18.046-8.57-34.779-16.315-51.071-.822-1.73-1.53-3.733-1.514-5.604.079-9.796-2.573-18.661-8.214-26.682-6.583-9.36-14.432-17.469-23.935-23.834-2.916-1.952-4.11-4.201-4.613-7.61-1.84-12.467-4.048-24.88-6.124-37.312-.107-.642-.491-1.315-.381-1.905 2.088-11.197 7.586-20.373 16.723-27.184 2.64-1.968 3.413-3.834 1.495-6.65-.449-.034-.949-.157-1.427-.099-9.505 1.17-10.564.592-14.033-8.282-1.521-3.891-3.965-3.5-7.125-2.126-7.343 3.19-9.767 2.305-13.862-4.579-4.024-6.765-4.024-6.765-11.398-3.037-7.039 3.559-9.08 3.068-13.79-3.318-3.201-4.342-4.484-4.487-8.626-.979-4.667 3.954-8.032 3.925-12.973.343-1.183-.858-3.397-1.509-4.471-.957-1.071.55-1.678 2.688-1.843 4.2-.77 7.05-1.312 14.126-1.95 21.192-.118 1.315-.51 2.64-.416 3.935.529 7.251.707 14.57 1.897 21.718 1.246 7.481-.813 13.715-4.888 19.711-3.848 5.662-3.633 6.27 2.517 9.793-.105.598-.02 1.38-.362 1.854-2.19 3.035-5.12 6.081 1.043 8.028.188.06.29.518.358.808.87 3.736 1.392 7.598 2.71 11.166.777 2.102 2.491 4.247 4.375 5.432 1.644 1.034 4.116.75 7.133 1.177-18.877 14.008-41.48 23.273-48.525 48.331-3.872-4.184-7.334-7.925-10.789-11.676 8.305-8.739 9.667-13.507 4.858-18.62-1.477-1.569-3.99-3.214-5.912-3.087-3.673.243-7.264 1.734-10.89 2.708l-1.278-12.868c1.8-.79 4.315-1.072 4.924-2.3 2.89-5.826 6.622-11.75 7.35-17.956.508-4.327-2.15-10.644-5.555-13.425-4.852-3.962-11.52-6.856-17.727-7.606-4.333-.524-10.75 2.076-13.449 5.486-3.958 5-6.658 11.808-7.511 18.164-.555 4.133 2.694 9.09 5.104 13.167 1.125 1.903 4.257 2.682 6.564 3.796 1.087.524 2.815.242 3.492 1.002 3.261 3.664 7.168 3.485 11.696 2.223l1.168 11.695c-1.378-.543-1.92-1.308-2.424-2.097-2.635-4.134-6.137-6.518-11.26-5.462-4.605.949-7.372 3.906-8.067 8.436-.737 4.798 1.524 8.334 5.616 10.756 4.429 2.622 8.867 5.227 13.455 7.93-.354.96-.484 2.484-1.053 2.671-7.227 2.378-6.323 8.369-6.386 13.94-.032 2.809-.1 5.622.004 8.428.438 11.722 1.29 12.886 10.9 14.873-6.564 7.872-7.809 17.044-7.225 26.766 1.2 19.984 8.43 38.137 16.615 56.041.928 2.032 1.638 4.396 1.607 6.594-.134 9.339 2.712 17.63 7.973 25.228 6.714 9.695 15.07 17.702 24.557 24.666 1.72 1.262 3.203 3.667 3.602 5.77 2.442 12.866 4.548 25.796 6.729 38.71.127.757-.005 1.576-.121 2.35-1.697 11.302-7.898 19.774-16.498 26.908-1.464 1.214-1.842 3.738-3.052 6.38 2.245 0 2.908.085 3.544-.013 8.83-1.357 10.191-.488 13.495 8.157 1.209 3.162 3.337 3.96 6.65 2.522 8.224-3.573 10.207-2.851 14.577 4.572 3.852 6.541 3.852 6.541 10.64 3.046 7.54-3.882 9.913-3.5 14.6 3.32 2.735 3.982 5.08 3.807 8.407.785 4.627-4.204 8.308-4.403 12.82-.343 2.703 2.43 4.542 1.721 5.944-.262.568-8.56 1.746-17.019 2.918-25.477.114-.82.332-1.658.264-2.467-.646-7.698-.788-15.495-2.188-23.057-1.317-7.114 1.171-12.682 4.76-18.224 3.895-6.016 3.653-7.06-2.848-10.25 2.088-3.587 6.145-7.61-.506-10.7-.069-.032.005-.32-.032-.479-.833-3.578-1.162-7.393-2.68-10.652-1.107-2.373-3.573-4.33-5.846-5.857-1.29-.866-3.413-.494-5.715-.739 18.802-13.896 41.446-23.122 48.63-48.427 2.142 2.447 3.725 4.356 5.418 6.16 1.772 1.889 3.652 3.677 5.458 5.483-8.113 8.478-9.76 13.945-5.015 18.602 2 1.962 5.497 3.274 8.315 3.276 2.778.002 5.556-2.026 8.337-3.164.24 2.035.538 4.343.775 6.658.232 2.258.401 4.523.593 6.728-1.652.633-3.119.999-4.386 1.718-3.33 1.89-9.137 15.943-7.882 19.585 1.404 4.075 3.119 8.065 4.99 11.952 1.4 2.908 15.967 9.25 18.964 8.198 4.398-1.544 8.754-3.3 12.923-5.378 3.135-1.563 9.014-15.948 7.777-19.174-1.835-4.789-4.23-9.362-6.958-14.57M70.5 491.037h188.559l-.562-5.192H13.871V131.262H8.565c-.06 1.1-.144 1.917-.144 2.733-.006 116.987.008 233.975-.06 350.962-.003 4.485 1.566 6.196 6.146 6.153 18.33-.174 36.662-.072 55.993-.072m236-480.076H78.41l.306 5.264h244.797v354.557h5.375V18.248c0-.833-.01-1.666-.001-2.5.032-3.296-1.574-4.839-4.891-4.802-5.498.061-10.998.016-17.496.016M67.388 405.096l-3.237-4.198c-5.21 4.864-10.405 9.477-15.326 14.366-5.753 5.715-12.258 11.012-16.676 17.66-8.581 12.915-1.692 28.42 12.864 30.554 7.83 1.147 13.83-2.38 18.569-8.659.695.75 1.257 1.34 1.803 1.946 6.445 7.164 15.38 8.946 23.456 4.678 7.888-4.17 11.597-12.928 9.224-22.115-2.245-8.686-8.48-14.505-14.85-20.18-5.093-4.537-10.235-9.017-15.827-14.052m171.54-351.55c-1.9 11.491 4.411 19.318 12.03 26.406 7.682 7.145 15.594 14.042 22.726 20.44 6.113-5.498 13.113-11.117 19.275-17.541 5.324-5.551 10.813-11.455 14.212-18.217 4.505-8.963.461-18.912-7.736-23.707-7.983-4.67-17.604-2.874-24.25 4.603-.506.57-.581 1.522-.894 2.402-7.248-8.353-13.177-10.775-21.082-9.022-7.525 1.668-12.088 6.533-14.282 14.637M48.86 31.458c-.137-1.82-.154-3.658-.431-5.456-1.799-11.642-7.89-17.46-18.51-17.767C19.46 7.934 11.189 14.06 9.528 24.837c-.933 6.055-.342 12.56.75 18.648 1.015 5.668 5.072 10.269 10.878 11.145 6.59.995 11.085 4.46 15.564 8.807 4.168 4.043 10.041 4.84 14.204 2.251 1.18-.733 1.669-2.575 1.897-2.953l-17.767-7.801C45.52 50 48.358 41.847 48.86 31.458m255.88 408.385c-1.465-1.36-2.875-2.784-4.405-4.065-4.42-3.703-10.175-4.468-14.332-1.738-.892.586-1.252 1.984-1.856 3.008.91.504 1.773 1.135 2.738 1.492 4.654 1.72 9.334 3.367 15.39 5.536-12.534 7.264-14.651 17.367-13.433 28.831 1.207 11.36 7.4 17.75 17.525 18.124 11.745.436 19.927-5.678 21.558-16.909.728-5.015.68-10.323-.088-15.334-1.357-8.873-6.948-13.517-15.698-14.972-2.42-.402-4.597-2.26-7.398-3.973m-6.46-38.047c-1.276 1.298-2.671 2.5-3.806 3.91-4.44 5.519-4.626 11.349-.593 15.273 3.878 3.773 9.165 3.358 14.805-1.246.61.513 1.22 1.062 1.868 1.567 3.706 2.887 7.677 3.131 11.583.659 3.872-2.45 4.966-6.45 3.687-10.498-.906-2.868-2.838-5.647-4.957-7.845-3.902-4.048-8.278-7.639-12.189-11.179a5199.748 5199.748 0 0 1-10.398 9.359M44.437 91.615c2.837-6.142 2.174-10.73-2.002-13.85-4.075-3.045-8.579-2.378-13.855 2.05-5.227-4.59-10.604-5.116-14.565-1.427-3.896 3.629-4.172 9.405-.27 14.446 2.01 2.597 4.617 4.741 7.016 7.024 2.63 2.503 5.333 4.93 8.254 7.621 4.809-4.863 9.922-10.034 15.422-15.864z"/><path fill="#272625" d="M286.129 354.74c2.442 4.937 4.837 9.51 6.672 14.299 1.237 3.226-4.642 17.611-7.777 19.174-4.169 2.077-8.525 3.834-12.923 5.378-2.997 1.052-17.565-5.29-18.964-8.198-1.871-3.887-3.586-7.877-4.99-11.952-1.255-3.642 4.553-17.696 7.882-19.585 1.267-.719 2.734-1.085 4.386-1.718-.192-2.205-.361-4.47-.593-6.728-.237-2.315-.536-4.623-.775-6.658-2.78 1.138-5.56 3.166-8.337 3.164-2.818-.002-6.315-1.314-8.315-3.276-4.744-4.657-3.098-10.124 5.015-18.602-1.806-1.806-3.686-3.594-5.458-5.483-1.693-1.804-3.276-3.713-5.418-6.16-7.184 25.305-29.828 34.531-48.63 48.427 2.302.245 4.425-.127 5.715.74 2.273 1.526 4.74 3.483 5.845 5.856 1.52 3.26 1.848 7.074 2.681 10.652.037.159-.037.447.032.479 6.65 3.09 2.594 7.113.506 10.7 6.5 3.19 6.743 4.234 2.847 10.25-3.588 5.542-6.076 11.11-4.76 18.224 1.4 7.562 1.543 15.36 2.19 23.057.067.81-.151 1.646-.265 2.467-1.172 8.458-2.35 16.917-2.918 25.477-1.402 1.983-3.241 2.693-5.943.262-4.513-4.06-8.194-3.861-12.821.343-3.327 3.022-5.672 3.197-8.408-.784-4.686-6.82-7.059-7.203-14.6-3.32-6.787 3.494-6.787 3.494-10.639-3.047-4.37-7.423-6.353-8.145-14.578-4.572-3.312 1.439-5.44.64-6.649-2.522-3.304-8.645-4.665-9.514-13.495-8.157-.636.098-1.3.013-3.544.013 1.21-2.642 1.588-5.166 3.052-6.38 8.6-7.134 14.8-15.606 16.498-26.907.116-.775.248-1.594.12-2.35-2.18-12.915-4.286-25.845-6.728-38.71-.399-2.104-1.883-4.51-3.602-5.771-9.486-6.964-17.843-14.97-24.557-24.666-5.261-7.597-8.107-15.89-7.973-25.228.031-2.198-.679-4.562-1.607-6.594-8.184-17.904-15.416-36.057-16.615-56.041-.584-9.722.66-18.894 7.225-26.766-9.61-1.987-10.462-3.15-10.9-14.873-.104-2.806-.036-5.62-.004-8.429.063-5.57-.841-11.561 6.386-13.939.569-.187.699-1.712 1.053-2.67-4.588-2.704-9.026-5.31-13.455-7.93-4.092-2.423-6.353-5.959-5.616-10.757.695-4.53 3.462-7.487 8.066-8.436 5.124-1.056 8.626 1.328 11.261 5.462.504.79 1.046 1.554 2.424 2.097l-1.168-11.695c-4.528 1.262-8.435 1.44-11.696-2.223-.677-.76-2.405-.478-3.492-1.002-2.307-1.114-5.44-1.893-6.564-3.796-2.41-4.077-5.659-9.034-5.104-13.167.853-6.356 3.553-13.163 7.511-18.164 2.7-3.41 9.116-6.01 13.449-5.486 6.207.75 12.875 3.644 17.727 7.606 3.405 2.781 6.063 9.098 5.555 13.425-.728 6.206-4.46 12.13-7.35 17.956-.609 1.228-3.123 1.51-4.924 2.3l1.279 12.868c3.625-.974 7.216-2.465 10.89-2.708 1.922-.127 4.434 1.518 5.91 3.088 4.81 5.112 3.448 9.88-4.86 18.624 3.458 3.746 6.92 7.487 10.792 11.671 7.046-25.058 29.648-34.323 48.525-48.33-3.017-.428-5.489-.144-7.133-1.178-1.884-1.185-3.598-3.33-4.375-5.432-1.318-3.568-1.84-7.43-2.71-11.166-.067-.29-.17-.749-.358-.808-6.164-1.947-3.232-4.993-1.043-8.028.342-.475.257-1.256.362-1.854-6.15-3.523-6.365-4.131-2.517-9.793 4.075-5.996 6.134-12.23 4.888-19.711-1.19-7.147-1.368-14.467-1.897-21.718-.095-1.294.298-2.62.416-3.935.638-7.066 1.18-14.141 1.95-21.192.165-1.512.772-3.65 1.843-4.2 1.074-.552 3.288.1 4.471.957 4.941 3.582 8.306 3.611 12.973-.343 4.142-3.508 5.425-3.363 8.627.979 4.71 6.386 6.75 6.877 13.79 3.318 7.373-3.728 7.373-3.728 11.397 3.037 4.095 6.884 6.519 7.77 13.862 4.579 3.16-1.374 5.604-1.765 7.125 2.126 3.469 8.874 4.528 9.452 14.033 8.282.478-.058.978.065 1.427.1 1.918 2.815 1.146 4.68-1.495 6.649-9.137 6.81-14.635 15.987-16.723 27.184-.11.59.274 1.263.381 1.905 2.076 12.432 4.284 24.845 6.124 37.312.503 3.409 1.697 5.658 4.613 7.61 9.503 6.365 17.352 14.474 23.935 23.834 5.64 8.02 8.293 16.886 8.214 26.682-.016 1.87.692 3.874 1.514 5.604 7.746 16.292 14.006 33.025 16.315 51.07 1.634 12.779-.37 22.609-7.032 31.451 2.037.545 4.06.882 5.918 1.627 3.612 1.448 5.316 4.189 5.24 8.176-.118 6.133.4 12.315-.23 18.386-.283 2.73-2.534 5.345-4.197 7.807-.818 1.21-2.33 1.953-4.094 3.36 4.937 2.903 9.145 5.434 13.41 7.867 4.599 2.625 7.43 6.21 6.377 11.79-.776 4.113-3.24 6.884-7.394 7.845-5.505 1.274-9.34-1.102-12.037-5.777-.248-.43-.573-.82-.9-1.197-.063-.073-.301.007-1.07.053l.66 8.938c7.526 2.653 14.05 4.953 20.86 7.525M183.019 78.948s.074.02.148-.704c-.573-.411-1.146-.823-2.258-1.038-.273-.154-.547-.308-.76-.287l-.189-.118s.25.015.302.742c6.09 10.43 9.765 21.603 11.24 33.637 2.516 20.512 2.191 40.435-9.308 58.717-1.459 2.318-2.255 5.186-2.806 7.91-.885 4.375 1.468 8.772 5.514 9.75l12.66-1.932c-.28-6.91-1.43-13.032-.601-18.873 2.9-20.461 2.333-40.8-1.035-61.075-1.424-8.571-3.001-17.32-9.93-23.666 0 0 .03-.003.095-.688-.684-.464-1.368-.929-2.087-1.332 0 0 .067-.022.167-.668-.37-.146-.739-.292-1.151-.375m-27.845 344.51c.56-.1 1.119-.202 1.857-1.041-.052-.325-.033-.681-.166-.969-13.737-29.83-16.64-59.652-.494-89.721 1.775-3.307 2.422-7.568 2.367-11.369-.03-2.037-2.67-4.036-4.908-6.155l-12.834 2.013c.283 7.391 1.548 14.07.585 20.412-2.55 16.792-2.321 33.532-.229 50.224 1.066 8.5 3.34 16.929 5.92 25.121 1.073 3.409 4.37 6.117 6.71 9.088 0 0-.07-.032-.434.578.51.447 1.02.894 1.46 1.35 0 0 .015-.069.166.47m9.156-255.563c-.135.349-.27.698-.33 1.103 0 0-.07-.06-.755.05-1.568 2.27-3.74 4.342-4.565 6.856-1.262 3.845-2.823 8.276 3.063 11.32l15.114 1.752c-5.158-9.775-1.8-17.129 2.124-24.465 13.392-25.035 10.272-50.55.967-75.673C174.68 74.62 162 67.905 146.926 69.146c-1.674.138-3.232 1.667-4.844 2.55 1.552.77 3.048 2.047 4.665 2.227 9.378 1.041 17.779 4.011 24.2 11.975.65.415 1.3.83 2.003 1.161 0 0-.097.02-.531.698 11.144 22.517 13.283 45.18 1.152 68.1-.21.396.096 1.067-.425 1.965-2.065 2.684-4.13 5.368-6.84 8.204-.46.636-.919 1.272-1.313 1.976 0 0-.05-.079-.663-.106m-77.353-1.926s-.018-.077-.837-.232c-4.719 4.188-1.341 9.352-2.291 13.995l1.196.673c.379-.675.758-1.35 1.774-2.298 1.66-1.6 3.5-3.053 4.942-4.83 3.13-3.853 1.643-7.137-4.24-8.242-.207.306-.414.61-.544.934m91.554 149.404c-.519-.366-1.037-.733-2.309-1.488-4.36-.2-8.72-.402-14.22-.656 4.833 9.841 1.255 17.483-2.936 25.053-5.594 10.104-8.381 20.914-8.068 32.502.412 15.186 1.337 30.301 8.353 44.194 6.368 12.61 18.524 19.23 32.397 17.766 1.473-.156 2.802-1.668 4.198-2.551-1.407-.785-2.783-2.183-4.225-2.255-10.119-.505-18.721-3.962-25.33-12.68-.922-1.882-1.995-3.706-2.742-5.655-8.595-22.433-10.654-44.591 2.9-66.07.429-.678.427-1.627.535-2.46 0 0 .03.086.71.508.388-.901.777-1.803 1.637-3.167 1.662-1.846 3.323-3.693 5.552-5.614.361-.57.722-1.141 1.013-1.756 0 0 .077.025.791-.04 1.418-3.025 3.435-5.941 4.018-9.12.326-1.779-1.727-3.994-2.75-5.919 0 0 .093-.043.476-.592m73.367 20.704c3.526-2.628 4.253-7.522 1.607-15.31-.665 1.344-1.032 2.087-2.006 3.207-1.832 1.87-4.078 3.502-5.34 5.7-.758 1.322-.57 3.921.295 5.204.669.992 3.049.83 5.444 1.199M226.17 151.392c-.45-.47-.898-.94-1.827-1.868l-4.65-3.809c.194 3.973 1.292 7.22 2.298 10.494 5.431 17.675 3.557 22.58-12.725 32.053-.442.216-.863.498-1.327.637-14.053 4.224-28.58 4.49-43.713 5-1.242.055-2.87-.382-3.664.242-6.234 4.902-12.31 10.007-18.817 15.365 6.234 4.234 12.116 9.028 20.832 9.641 12.998 5.488 26.47 4.534 39.886 2.525 12.954-1.94 25.167-6.086 35.464-14.625 5.93-4.918 9.13-11.07 9.229-19.003.158-12.688-6.584-21.965-14.51-30.69-1.9-2.092-4.47-3.575-6.686-5.364 0 0-.002.05.21-.598m-87.169 263.27c.334.296.668.591 1.313 1.384 1.074 1.157 2.148 2.315 3.666 3.804l.791-.156c-.173-.315-.347-.63-.653-1.664-1.994-5.598-4.78-11.051-5.84-16.821-3.981-21.634-5.176-43.398-1.932-65.323.679-4.592-.21-9.473-.85-14.156-.14-1.034-2.296-1.792-4.237-2.648-11.315 4.95-14.66 9.587-10.967 19.724 6.227 17.089 7.563 34.87 9.94 52.586 1.085 8.087 2.725 16.303 8.778 22.582 0 0-.037-.002-.009.688M81.471 201.42l-2.662.964 3.478 4.206-5.561 3.478c.393.193 1.101.492 1.762.873 1.208.698 2.388 1.444 3.58 2.17-1.338.943-2.574 2.427-4.038 2.705-2.395.454-4.938.123-7.419.123l.013 1.286h30.2c0-4.16.138-8.307-.061-12.438-.091-1.886-.362-4.083-1.395-5.542-2.488-3.514-5.346-6.795-8.29-9.95-3.477-3.726-8.853-4.317-14.423-1.633 1.473.662 2.642 1.648 3.798 1.632 7.058-.098 7.875 5.408 9.163 10.248.3 1.127-1.021 2.687-1.597 4.047-1.096-.745-2.306-1.373-3.245-2.28-.545-.526-.654-1.502-.98-3.027-.938-2.083-10.114-7.089-12.114-6.381-.94.333-2.188 1.369-2.25 2.167-.065.829 1.013 2.362 1.808 2.523 2.236.455 4.6.59 6.883.431 3.078-.214 4.39.922 3.35 4.398m43.565 229.74-4.19 4.816c3.055 2.927 6.45 5.22 8.443 8.394 1.606 2.557 3.366 3.243 5.563 2.543 7.559-2.41 12.56.714 16.155 7.016 1.375 2.413 2.797 2.151 5.262 1.631 4.374-.923 10.482-2.853 13.134-.813 5.656 4.353 10.587 4.568 16.588 2.33 1.179-.439 2.635-.136 4.705.186l4.003 1.053v-9.492c-1.7.244-3.137.45-5.525.64-11.71.08-23.387-.163-34.746-4.278-8.675-5.212-17.328-10.463-26.08-15.544-.536-.312-1.852.719-3.312 1.519M148.02 44.692l-3.954-1.27v9.61c1.548-.318 2.793-.573 4.8-.587 13.099-1.3 25.545 1.767 38.242 6.3 7.199 4.138 14.414 8.248 21.584 12.435 1.546.902 2.964 3.36 4.891-.477l3.913-4.694c-3.166-3.31-5.778-6.366-8.763-9-1.147-1.011-3.245-1.683-4.735-1.44-6.05.988-11.171-.082-14.895-5.323-1.235-1.739-2.415-3.518-3.542-5.166-.592.03-.98-.066-1.234.077-7.432 4.202-14.496 5.224-20.973-1.91-.687-.758-2.585-.815-3.818-.602-3.674.635-7.296 1.568-11.516 2.047m59.55 137.952c11.422-4.962 14.33-9.847 10.242-21.376-5.446-15.356-7.116-31.228-8.952-47.196-1.173-10.198-3.046-20.382-10.872-28.654l-3.65-3.52c2.177 6.572 4.508 11.743 5.576 17.163 4.204 21.336 5.648 42.808 2.499 64.492-.727 5.004-.388 10.238.121 15.3.16 1.596.517 5.178 5.036 3.791M80.805 264.367l56.412-14.326c.374.185.105 0-.193-.09-14.455-4.301-27.149-10.925-33.959-25.458-.32-.684-1.465-1.426-2.198-1.399-4.11.156-8.21.539-13.152.607-7.64.812-11.778 5.639-13.603 12.546-2.636 9.972-1.106 19.825 1.316 29.893a148.855 148.855 0 0 1 5.377-1.773m177.31-27.142-57.078 14.704c-.39-.334-.28-.168-.136-.126 14.62 4.173 27.566 10.596 34.39 25.361.304.655 1.19 1.563 1.72 1.51 4.983-.492 9.947-1.167 15.716-1.614 5.603.267 8.397-3.537 10.303-7.811 4.932-11.063 2.58-22.18.143-33.604-1.864.67-3.096 1.112-5.057 1.58m-99.958-88.314-.294-2.261c-8.812 5.948-17.819 11.363-26.04 17.784-6.747 5.269-13.4 11.086-18.588 17.82-7.811 10.137-8.545 22.23-6.408 34.578.857-.053 1.204-.014 1.512-.106.956-.286 1.898-.621 3.566-.962 16.66-4.827 31.607-12.637 44.026-24.882-5.688-8.839-4.989-15.409 2.167-24.333 1.168-1.456 2.723-3.398 2.568-4.964-.404-4.068-1.66-8.05-2.509-12.674m68.216 137.382c-16.512 4.655-31.239 12.42-43.719 24.635 5.413 7.447 5.236 15.01-.342 21.29-4.552 5.126-4.721 10.099-3.13 15.927.393 1.437.677 2.904 1.006 5.007.274 3.013 1.592 1.572 2.85.697 5.998-4.166 12.066-8.23 18-12.483 5.528-3.96 11.261-7.73 16.302-12.255 13.165-11.816 17.558-26.686 14.338-44.35-1.754.546-3.157.982-5.305 1.532m-51.68 21.765c1.111-.124 2.537.154 3.285-.433 6.327-4.96 12.53-10.079 18.968-15.312-6.65-4.1-12.57-9.466-21.572-9.562-5.097-.948-10.169-2.063-15.294-2.813-20.566-3.007-39.624 1.405-56.838 12.805-8.912 5.903-13.261 14.412-11.478 25.647 2.302 14.503 11.47 24.258 22.191 33.67l6.577 5.832c-1.877-5.957-3.284-10.5-4.739-15.03-3.794-11.807-2.209-20.764 8.445-26.52.366-.198.516-.794 1.41-1.49 5.975-1.386 11.886-3.245 17.938-4.049 10.057-1.335 20.203-1.993 31.106-2.745M190.372 255c-2.975-.334-5.943-.765-8.927-.987-22.142-1.643-43.833 1.565-65.283 6.566-13.21 3.08-26.261 6.834-40.177 10.495l12.036 31.388c5.034-9.863 12.428-15.492 21.009-19.458 5.843-2.701 11.983-5.147 18.252-6.473 25.912-5.48 50.958-4.765 73.295 12.067.806.607 2.42.796 3.38.438 8.662-3.232 17.26-6.63 26.522-10.23-1.917-2.612-3.705-5.586-6.006-8.091-8.918-9.713-20.814-13.258-34.101-15.715m-48.802-39.017-4.772-3.647-28.458 10.42c3.326 7.434 8.947 12.46 15.772 16.267 10.697 5.967 22.414 8.224 34.453 8.94 19.924 1.184 39.572-1.206 58.943-5.64 14.84-3.397 29.53-7.45 45.098-11.417-4.132-10.83-7.88-20.654-11.807-30.942-17.241 30.314-79.368 37.023-109.229 16.02m.527-103.756c5.66 4.464-4.597 5.454-2.668 8.029 2.572 1.822 4.362 2.74 5.538 4.163.308.371-1.292 2.32-2.128 3.733.322 1.967.977 4.54 1.106 7.138.134 2.716 1.207 3.76 3.929 3.898 15.605.786 29.154-13.509 27.13-28.748-2.504-18.84-11.47-29.023-27.521-30.904-1.392-.163-2.971 1.271-4.463 1.964 1.256 1.173 2.325 2.9 3.809 3.403 2.952 1.002 6.237 1.038 9.172 2.073 1.298.458 2.08 2.379 3.097 3.635-1.51.45-3.074 1.407-4.517 1.25-3.674-.4-7.295-1.298-9.501-1.721l-7.276 20.772c.74.23 2.158.668 4.293 1.315m29.694 300.432c5.002 6.218 11.664 9.22 19.472 9.634 1.381.073 2.835-1.237 4.255-1.909-1.237-1.167-2.285-2.897-3.748-3.385-3.126-1.04-6.573-1.137-9.664-2.248-1.193-.429-1.775-2.558-2.635-3.913 1.412-.331 2.881-1.092 4.225-.912 3.693.493 7.333 1.381 9.749 1.864l7.261-20.817c-.143-.062-.735-.378-1.364-.583-5.496-1.797-5.481-1.914-1.92-6.277.807-.987.936-2.527 1.373-3.799-3.71-.956-9.155-.735-3.263-5.967.267-.237.315-.901.234-1.322-.622-3.222-1.301-6.433-1.954-9.607-8.933-2.177-24.736 5.459-28.73 13.97-1.037 2.208-2.226 4.701-2.139 7.018.371 9.912 2.36 19.448 8.848 28.253m65.413-128.152c.226 4.64.404 9.283.713 13.917.084 1.258.21 2.768.927 3.684 3.069 3.922 6.19 7.835 9.635 11.421 2.732 2.845 9.327 3.085 13.568.75-1.578-.742-2.914-1.935-4.2-1.883-7.452.3-7.578-5.608-8.863-10.357-.283-1.046.873-2.483 1.367-3.74 1.164.688 3.316 1.344 3.34 2.068.245 7.681 7.566 6.627 11.618 9.482.59.416 2.43-.94 3.692-1.476-.685-1.121-1.172-2.966-2.093-3.216-2.01-.546-4.244-.405-6.378-.321-3.877.153-4.81-1.04-3.44-4.507.294-.742.59-1.969.219-2.41-2.94-3.483.115-4.364 1.432-5.044-.774-1.457-2.323-3.022-2.02-4.029 1.66-5.502 6.924-1.481 10.07-4.772-9.593 0-19.186 0-29.587.433m-66.526-218.82c13.425 2.847 25.1 9.195 35.455 18.261 2.517-6.208 2.554-6.258-2.338-9.88-16.558-12.257-35.027-17.855-55.692-16.303-4.3.322-6.904 1.326-6.63 5.41 9.602.762 19.001 1.51 29.205 2.511m-.722 371.03c-14.137-2.892-26.632-9.116-37.536-18.864l-2.442 6.039c18.322 15.75 39.432 22.32 63.309 19.74 1.637-.176 2.982-3.062 4.726-4.978-10.013-.65-18.613-1.209-28.057-1.937m5.425-300.549.671-4.397c-4.205 2.833-8.158 5.43-12.015 8.16-.655.465-1.366 1.584-1.257 2.275.783 4.918 1.772 9.803 2.848 15.506 5.409-6.667 8.367-13.325 9.753-21.544m-10.999 223.847-1.9 9.901c4.459-2.941 8.203-5.318 11.823-7.872.781-.55 1.688-1.833 1.559-2.617-.807-4.908-1.891-9.771-2.884-14.649l-1.379-.205c-2.306 4.9-4.613 9.8-7.219 15.442m93.706 6.731c-5.956 2.978-6.192 3.542-2.995 7.151l12.152-4.855c-1.361-3.312-2.354-6.492-3.99-9.296-.571-.978-3.069-1.755-4.07-1.291-.962.445-1.405 2.585-1.554 4.033-.12 1.17.538 2.42.457 4.258M65.511 134.286c-2.772 1.043-5.73 1.777-8.233 3.27-1.147.684-1.402 2.863-2.062 4.363 1.507.515 3.37 1.856 4.455 1.39 3.112-1.338 4.324-.523 5.54 2.477 1.228 3.031 3.543 3.019 5.83.55-1.622-4-3.216-7.932-5.53-12.05m-10.513-13.45c1.053 2.94 2.87 5.92-2.254 7.24-.926.239-1.135 3.26-1.674 4.997l1.454.515 12.27-4.971c-1.087-2.9-1.905-5.755-3.2-8.373-1.797-3.637-3.5-3.599-6.596.591m21.278-2.771c-3.298 2.204-4.061-.092-5.356-2.554-.54-1.028-2.869-1.115-4.384-1.63-.097 1.254-.586 2.641-.216 3.739 1.091 3.233 2.523 6.35 3.933 9.786 2.97-1.145 5.739-1.871 8.116-3.265 1.279-.75 1.887-2.643 2.798-4.02-1.398-.768-2.795-1.535-4.891-2.056M265.208 375.56c-1.686.668-3.656.997-4.978 2.101-1.28 1.07-1.896 2.936-2.804 4.453 1.663.522 3.56 1.817 4.937 1.398 2.571-.782 3.874-.814 4.843 2.074 1.114 3.326 3.33 3.73 6.05 1.221-1.346-3.474-2.493-6.912-4.061-10.147-.395-.814-2.14-.974-3.987-1.1m21.089-1.78c.277-1.447.656-2.89.717-4.347.008-.205-1.693-.888-2.338-.646-3.652 1.375-7.223 2.964-11.012 4.56 1.273 3.17 2.081 6.12 3.626 8.615.706 1.14 2.865 1.379 4.364 2.026.49-1.522 1.828-3.47 1.316-4.487-1.69-3.353-.2-4.577 3.327-5.721m-206.4-237.172c1-.903 1.884-1.996 3.019-2.671 3.006-1.789 3.4-3.68.781-6.094l-12.192 4.937c.946 2.64 1.4 5.214 2.729 7.202 1.083 1.62 3.605 3.865 4.807 3.512 3.332-.98 2.242-3.742.857-6.886m193.608 219.475c-1.719-2.78-3.656-3.083-5.955-.56l4.954 12.227c2.79-1.016 5.656-1.6 7.957-3.07 1.396-.891 1.918-3.152 2.832-4.797-1.68-.407-3.39-.724-5.033-1.248-1.52-.484-2.97-1.19-4.755-2.552M64.073 161.977c-4.445.223-7.247 3.364-5.195 6.148 3.7 5.02 9.095 7.678 14.662 9.876l1.068-1.07c-3.272-4.893-6.543-9.784-10.535-14.954m203.964 169.471c1.112 1.854 1.948 3.977 3.416 5.484 1.364 1.4 3.348 2.77 5.165 2.927.995.085 3.165-2.423 3.095-3.665-.102-1.792-1.35-4.068-2.83-5.126-3.62-2.587-7.654-4.594-11.522-6.834l-.82.626c1.052 1.98 2.103 3.96 3.496 6.588z"/><path fill="#313131" d="M70 491.038c-18.831 0-37.164-.102-55.493.072-4.58.043-6.149-1.668-6.146-6.153.068-116.987.054-233.975.06-350.962 0-.816.084-1.633.144-2.733h5.306v354.584h244.626l.562 5.192H70zM307 10.962c5.998 0 11.498.045 16.996-.016 3.317-.037 4.923 1.506 4.89 4.802-.007.834.001 1.667.001 2.5V370.783h-5.374V16.226H78.716l-.306-5.264H307z"/><path fill="currentColor" d="M67.623 405.361c5.357 4.77 10.5 9.25 15.591 13.787 6.37 5.675 12.606 11.494 14.85 20.18 2.374 9.187-1.335 17.946-9.223 22.115-8.077 4.268-17.01 2.486-23.456-4.678-.546-.606-1.108-1.196-1.803-1.946-4.739 6.28-10.74 9.806-18.57 8.659-14.555-2.134-21.444-17.639-12.863-30.553 4.418-6.649 10.923-11.946 16.676-17.661 4.921-4.889 10.115-9.502 15.326-14.366.703.912 1.97 2.555 3.472 4.463zM238.981 53.154c2.14-7.71 6.703-12.576 14.228-14.244 7.905-1.753 13.834.669 21.082 9.022.313-.88.388-1.833.894-2.402 6.646-7.477 16.267-9.273 24.25-4.603 8.197 4.795 12.24 14.744 7.736 23.707-3.399 6.762-8.888 12.666-14.212 18.217-6.162 6.424-13.162 12.043-19.275 17.54-7.132-6.397-15.044-13.294-22.726-20.44-7.619-7.087-13.93-14.914-11.977-26.797zM48.86 31.91c-.502 9.937-3.34 18.09-13.807 23.024l17.767 7.801c-.228.378-.717 2.22-1.897 2.953-4.163 2.589-10.036 1.792-14.204-2.251-4.48-4.347-8.974-7.812-15.564-8.807-5.806-.876-9.863-5.477-10.879-11.145-1.091-6.089-1.682-12.593-.75-18.648C11.189 14.059 19.46 7.934 29.92 8.235c10.62.307 16.71 6.125 18.509 17.767.277 1.798.294 3.637.43 5.907M23.154 14.291c-7.838 8.865-5.926 19.187-4 29.297.85 4.463 3.801 7.713 9.003 7.858 5.368.149 8.353-2.922 9.82-7.568 2.461-7.79 2.54-15.732.173-23.554-2.19-7.236-6.961-9.268-14.996-6.033zM304.997 440.105c2.545 1.451 4.723 3.309 7.142 3.711 8.75 1.455 14.34 6.099 15.698 14.972.767 5.01.816 10.32.088 15.334-1.631 11.23-9.813 17.345-21.558 16.91-10.125-.376-16.318-6.764-17.525-18.125-1.218-11.464.899-21.567 13.433-28.831-6.056-2.169-10.736-3.816-15.39-5.536-.965-.357-1.828-.988-2.738-1.492.604-1.024.964-2.422 1.856-3.008 4.157-2.73 9.912-1.965 14.332 1.738 1.53 1.281 2.94 2.706 4.662 4.327m8.743 45.411c1.514-2.324 3.626-4.46 4.428-7.007 2.353-7.466 2.155-15.101.017-22.635-1.288-4.538-3.906-7.671-9.037-7.877-5.404-.217-8.449 2.996-9.856 7.585-2.39 7.79-2.401 15.807-.173 23.63 1.992 6.994 6.883 9.14 14.62 6.304zM298.549 401.564c3.583-3.223 6.899-6.213 10.13-9.127 3.911 3.54 8.287 7.131 12.19 11.18 2.118 2.197 4.05 4.976 4.956 7.844 1.279 4.048.185 8.047-3.687 10.498-3.906 2.472-7.877 2.228-11.583-.66-.647-.504-1.259-1.053-1.868-1.566-5.64 4.604-10.927 5.019-14.805 1.246-4.033-3.924-3.847-9.754.593-15.272 1.135-1.411 2.53-2.613 4.074-4.143zM44.244 91.944c-5.307 5.501-10.42 10.672-15.229 15.535-2.92-2.69-5.623-5.118-8.254-7.62-2.4-2.284-5.005-4.428-7.015-7.025-3.903-5.04-3.627-10.817.269-14.446 3.961-3.69 9.338-3.162 14.565 1.427 5.276-4.428 9.78-5.095 13.855-2.05 4.176 3.12 4.84 7.708 1.809 14.18z"/><path fill="#F8F8F8" d="M190.803 255.06c12.856 2.397 24.752 5.942 33.67 15.655 2.3 2.505 4.09 5.48 6.006 8.092-9.262 3.6-17.86 6.997-26.521 10.229-.96.358-2.575.17-3.38-.438-22.338-16.832-47.384-17.548-73.296-12.067-6.269 1.326-12.409 3.772-18.252 6.473-8.58 3.966-15.975 9.595-21.01 19.458-4.133-10.782-7.91-20.628-12.035-31.388 13.916-3.66 26.967-7.415 40.177-10.495 21.45-5 43.14-8.21 65.283-6.566 2.984.222 5.952.653 9.358 1.046zM141.882 216.17c29.549 20.817 91.676 14.108 108.917-16.206l11.807 30.942c-15.568 3.968-30.258 8.02-45.098 11.417-19.37 4.434-39.02 6.824-58.943 5.64-12.04-.716-23.756-2.973-34.453-8.94-6.825-3.808-12.446-8.833-15.772-16.268l28.458-10.419a383.156 383.156 0 0 0 5.084 3.835z"/><path fill="#244CC1" d="M164.879 194.048c14.48-.66 29.008-.925 43.06-5.149.465-.14.886-.421 1.922-.638 14.862-2.454 21.931-12.508 18.696-25.768-.853-3.499-1.76-6.985-2.642-10.476 2.262 1.762 4.833 3.245 6.733 5.337 7.925 8.725 14.667 18.002 14.509 30.69-.099 7.933-3.3 14.085-9.23 19.003-10.296 8.54-22.509 12.686-35.463 14.625-13.415 2.009-26.888 2.963-40.337-2.982-5.582-3.3-10.713-6.144-15.915-9.028l18.667-15.614z"/><path fill="#C83213" d="M113.673 351.677c-10.437-9.029-19.606-18.784-21.908-33.287-1.783-11.235 2.566-19.744 11.478-25.647 17.214-11.4 36.272-15.812 56.838-12.805 5.125.75 10.197 1.865 15.743 3.304 5.807 3.215 11.164 5.94 16.587 8.699l-18.512 15.926c-10.109.943-20.255 1.6-30.312 2.936-6.052.804-11.963 2.663-18.636 4.1-12.25 3.095-17.608 11.452-15.128 22.998 1 4.653 2.55 9.188 3.85 13.776z"/><path fill="#244CC1" d="M180.193 352.501c-.333-1.452-.617-2.919-1.01-4.356-1.591-5.828-1.422-10.801 3.13-15.927 5.578-6.28 5.755-13.843.342-21.29 12.48-12.216 27.207-19.98 44.145-24.291 2.616 16.129-.696 30.511-13.04 41.05-10.556 9.013-22.33 16.598-33.567 24.814z"/><path fill="#C83213" d="M158.09 149.518c.916 4.017 2.173 8 2.577 12.067.155 1.566-1.4 3.508-2.568 4.964-7.156 8.924-7.855 15.494-2.167 24.333-12.419 12.245-27.365 20.055-44.391 24.445-2.88-20.506 4.449-36.269 20.703-47.96 8.498-6.112 17.223-11.91 25.846-17.849z"/><path fill="#FAFAFA" d="M141.739 112.124c-1.777-.543-3.195-.982-3.935-1.21l7.276-20.773c2.206.423 5.827 1.32 9.501 1.72 1.443.158 3.008-.8 4.517-1.249-1.017-1.256-1.799-3.177-3.097-3.635-2.935-1.035-6.22-1.071-9.172-2.073-1.484-.504-2.553-2.23-3.809-3.403 1.492-.693 3.07-2.127 4.463-1.964 16.05 1.881 25.017 12.065 27.52 30.904 2.025 15.24-11.524 29.534-27.129 28.748-2.722-.137-3.795-1.182-3.93-3.898-.128-2.599-.783-5.171-1.105-7.138.836-1.413 2.436-3.362 2.128-3.733-1.176-1.424-2.966-2.34-5.538-4.163-1.929-2.575 8.329-3.565 2.31-8.133m12.279-13.726-2.724-4.851c-.827.984-2.4 2.028-2.326 2.94.16 2.009 1.151 3.952 1.804 5.921 1.081-1.068 2.162-2.136 3.246-4.01zM171.564 412.382c-6.26-8.527-8.25-18.063-8.621-27.975-.087-2.317 1.102-4.81 2.138-7.017 3.995-8.512 19.798-16.148 28.731-13.971.653 3.174 1.332 6.385 1.954 9.607.081.42.033 1.085-.234 1.322-5.892 5.232-.447 5.01 3.263 5.967-.437 1.272-.566 2.812-1.373 3.8-3.561 4.362-3.576 4.479 1.92 6.276.629.205 1.221.521 1.364.583l-7.261 20.817c-2.416-.483-6.056-1.37-9.749-1.864-1.344-.18-2.813.58-4.225.912.86 1.355 1.442 3.484 2.635 3.913 3.09 1.11 6.538 1.208 9.664 2.248 1.463.488 2.511 2.218 3.748 3.385-1.42.672-2.874 1.982-4.255 1.909-7.808-.413-14.47-3.416-19.699-9.912m15.132-4.096c4.933-.414 2.967-4.187 2.973-6.702.001-.782-1.945-1.568-3-2.352-.717 2.121-1.594 4.208-2.057 6.383-.146.683.823 1.604 2.084 2.671z"/><path fill="#F7C91A" d="M251.928 276.884c-4.97.623-9.934 1.298-14.917 1.79-.53.053-1.416-.855-1.72-1.51-6.824-14.765-19.77-21.188-34.39-25.361-.145-.042-.254-.208.136.126 18.777-4.837 37.928-9.77 57.487-14.306.98 4.14 1.822 7.862 2.072 11.625.681 10.287 1.03 20.565-8.668 27.636zM88.553 223.938c4.104-.305 8.205-.688 12.314-.844.733-.027 1.878.715 2.198 1.399 6.81 14.533 19.504 21.157 33.959 25.459.298.089.567.274.193.089-18.453 4.686-37.433 9.506-56.96 14.01-1.148-7.343-2.145-14.365-2.247-21.399-.116-8.06 2.946-14.778 10.543-18.714z"/><path fill="#F4C81E" d="M170.996 85.167c-6.47-7.233-14.87-10.203-24.249-11.244-1.617-.18-3.113-1.456-4.665-2.226 1.612-.884 3.17-2.413 4.844-2.55C162 67.904 174.68 74.62 179.948 88.838c9.305 25.123 12.425 50.638-.967 75.673-3.924 7.336-7.282 14.69-2.124 24.465-5.894-.684-10.504-1.218-15.488-2.342-2.33-5.331-1.674-9.75 1.107-14.002.71-1.084.98-2.454 1.453-3.693 0 0 .071.06.395.168.423-.323.521-.754.62-1.185 0 0 .049.08.352.214.753-.665 1.203-1.464 1.654-2.263 2.065-2.684 4.13-5.368 6.735-8.406 1.721-1.909 3.145-3.335 4.047-5.038 8.102-15.293 6.942-31.392 3.613-47.519-1.346-6.52-2.863-13.228-8.492-17.832 0 0 .097-.02.148-.295-.635-.723-1.32-1.17-2.005-1.617z"/><path fill="#F3C71E" d="M174.416 332.875c-1.662 1.847-3.323 3.694-5.544 5.862-.958 1.022-1.358 1.723-1.758 2.423 0 0-.03-.087-.34-.079-.663.362-1.04.695-1.362 1.072-16.658 19.461-11.095 57.366-1.906 70.997.741 1.1 2.02 1.838 3.05 2.745 6.444 8.082 15.046 11.539 25.165 12.044 1.442.072 2.818 1.47 4.225 2.255-1.396.883-2.725 2.395-4.198 2.55-13.873 1.465-26.029-5.156-32.397-17.765-7.016-13.893-7.941-29.008-8.353-44.194-.313-11.588 2.474-22.398 8.068-32.502 4.191-7.57 7.769-15.212 2.936-25.053 5.5.254 9.86.455 14.616 1.167a18.122 18.122 0 0 0 1.53 1.526s-.094.043-.158.4c2.692 5.587-1.063 9.98-1.917 14.747 0 0-.077-.025-.26-.211-.587.548-.992 1.282-1.397 2.016z"/><path fill="#F5C81D" d="M198.19 85.81c7.623 7.88 9.496 18.064 10.669 28.262 1.836 15.968 3.506 31.84 8.952 47.196 4.088 11.529 1.18 16.414-10.855 21.121-3.99-5.402-3.052-11.04-2.53-16.654.797-8.57 2.383-17.177 2.08-25.713-.65-18.34-1.269-36.804-8.316-54.212z"/><path fill="#F4C81C" d="M139.021 414.009c-6.063-6.314-7.703-14.53-8.788-22.617-2.377-17.716-3.713-35.497-9.94-52.586-3.694-10.137-.348-14.775 11.456-19.394 1.195 4.487 2.926 8.77 2.432 12.78-2.287 18.556-3.14 37.082-.314 55.608 1.342 8.794 3.413 17.476 5.154 26.209z"/><path fill="#F4C71C" d="M185.993 81.983c6.93 6.374 8.508 15.123 9.932 23.694 3.368 20.275 3.935 40.614 1.035 61.075-.828 5.84.32 11.962.6 18.873-3.288.502-7.973 1.217-13.181 1.576-4.274-8.034-1.567-14.877 2.205-21.591 4.952-8.817 8.171-18.213 8.42-28.363.45-18.38-.59-36.558-9.078-53.452-.238-.474.033-1.203.067-1.812z"/><path fill="#F3C71D" d="M153.927 421.116c-2.286-3.026-5.582-5.734-6.656-9.143-2.58-8.192-4.853-16.62-5.919-25.121-2.092-16.692-2.321-33.432.229-50.224.963-6.341-.302-13.02-.585-20.412 3.479-.546 8.157-1.28 13.34-1.57 3.094 7.518 2.007 14.124-1.781 20.523-7.54 12.736-9.723 26.493-8.99 41.23.78 15.641 3.266 30.652 10.362 44.717z"/><path fill="#F4C81E" d="M186.733 58.105c-12.323-3.893-24.769-6.96-38.227-6.12-.209-2.624-.059-4.79.091-6.956 3.642-.816 7.264-1.749 10.938-2.384 1.233-.213 3.131-.156 3.818.601 6.477 7.135 13.541 6.113 20.973 1.911.254-.143.642-.048 1.234-.077 1.127 1.648 2.307 3.427 3.542 5.166 3.724 5.241 8.846 6.31 14.895 5.323 1.49-.243 3.588.429 4.735 1.44 2.985 2.634 5.597 5.69 8.763 9-.843 1.012-2.378 2.853-4.49 4.686-7.596-4.019-14.57-8.107-21.67-11.967-1.27-.69-3.055-.44-4.602-.623z"/><path fill="#F6F6F6" d="M237.608 284.292c9.997-.217 19.59-.217 29.183-.217-3.146 3.291-8.41-.73-10.07 4.772-.303 1.007 1.246 2.572 2.02 4.029-1.317.68-4.372 1.561-1.432 5.045.372.44.075 1.667-.218 2.409-1.37 3.467-.438 4.66 3.44 4.507 2.133-.084 4.368-.225 6.377.321.92.25 1.408 2.095 2.093 3.216-1.262.536-3.101 1.892-3.692 1.476-4.052-2.855-11.373-1.801-11.619-9.482-.023-.724-2.175-1.38-3.339-2.068-.494 1.257-1.65 2.694-1.367 3.74 1.285 4.749 1.41 10.658 8.862 10.357 1.287-.052 2.623 1.141 4.2 1.883-4.24 2.335-10.835 2.095-13.567-.75-3.445-3.586-6.566-7.499-9.635-11.42-.717-.917-.843-2.427-.927-3.685-.31-4.634-.487-9.277-.31-14.133z"/><path fill="#F4C81D" d="M189.954 456.902c-1.328.039-2.784-.264-3.963.176-6.001 2.237-10.932 2.022-16.588-2.33-2.652-2.041-8.76-.111-13.134.812-2.465.52-3.887.782-5.262-1.63-3.594-6.303-8.596-9.428-16.155-7.017-2.197.7-3.957.014-5.563-2.543-1.993-3.174-5.388-5.467-8.442-8.394 1.013-1.165 2.601-2.99 4.714-4.763 9.038 6.74 18.509 11.563 28.885 14.625 11.34 3.463 23.017 3.707 35.205 4.04.419 2.619.361 4.821.303 7.024z"/><path fill="#F8F8F8" d="M83.815 199.033c.305.774.414 1.75.959 2.276.94.907 2.149 1.535 3.245 2.28.576-1.36 1.897-2.92 1.597-4.047-1.288-4.84-2.105-10.346-9.163-10.248-1.156.016-2.325-.97-3.798-1.632 5.57-2.684 10.946-2.093 14.424 1.634 2.943 3.154 5.801 6.435 8.289 9.949 1.033 1.459 1.304 3.656 1.395 5.542.2 4.131.062 8.278.062 12.438h-30.2l-.014-1.286c2.48 0 5.024.331 7.419-.123 1.464-.278 2.7-1.762 4.038-2.705-1.192-.726-2.372-1.472-3.58-2.17-.66-.381-1.37-.68-1.762-.873l5.561-3.478-3.478-4.206c.573-.207 1.617-.586 3.188-1.312.957-.912 1.388-1.475 1.818-2.039z"/><path fill="#F2F2F2" d="M170.276 65.56c-9.802-.875-19.201-1.622-28.803-2.385-.274-4.083 2.33-5.087 6.63-5.41 20.665-1.551 39.134 4.047 55.692 16.304 4.892 3.622 4.855 3.672 2.338 9.88-10.356-9.066-22.03-15.414-35.857-18.389z"/><path fill="#F7F7F7" d="M170.378 436.801c9.022.644 17.622 1.203 27.635 1.853-1.744 1.916-3.089 4.802-4.726 4.979-23.877 2.58-44.987-3.992-63.309-19.741l2.442-6.04c10.904 9.75 23.399 15.973 37.958 18.95z"/><path fill="#EDEEF2" d="M180.191 352.827c11.238-8.542 23.013-16.127 33.57-25.14 12.343-10.539 15.655-24.921 13.411-41.107 1.35-.837 2.753-1.273 4.507-1.82 3.22 17.665-1.173 32.535-14.338 44.351-5.04 4.524-10.774 8.294-16.301 12.255-5.935 4.252-12.003 8.317-18 12.483-1.26.875-2.577 2.316-2.849-1.022z"/><path fill="#F3EEED" d="M158.124 149.215c-8.657 6.243-17.382 12.04-25.88 18.153-16.254 11.69-23.583 27.453-21.063 47.97-.943.767-1.885 1.102-2.84 1.388-.309.092-.656.053-1.513.106-2.137-12.348-1.403-24.44 6.408-34.578 5.189-6.734 11.841-12.551 18.588-17.82 8.221-6.421 17.228-11.836 26.04-17.784.09.683.192 1.472.26 2.565z"/><path fill="#EEEBDF" d="M185.994 81.997c-.035.595-.306 1.324-.068 1.798 8.487 16.894 9.527 35.072 9.077 53.452-.248 10.15-3.467 19.546-8.42 28.363-3.77 6.714-6.478 13.557-2.592 21.566-3.136-.597-5.49-4.994-4.604-9.369.55-2.724 1.347-5.592 2.806-7.91 11.5-18.282 11.824-38.205 9.309-58.717-1.476-12.034-5.152-23.207-11.308-34.001-.067-.365-.107-.435-.107-.435.274.154.548.308 1.226.67a16.65 16.65 0 0 1 1.78 1.555s-.074-.02-.014.23c.37.425.68.597.99.77 0 0-.066.022-.047.351.68.782 1.342 1.235 2.003 1.688 0 0-.03.003-.03-.011z"/><path fill="#F0EDDF" d="M153.954 421.089c-7.123-14.038-9.609-29.049-10.388-44.69-.734-14.737 1.449-28.494 8.989-41.23 3.788-6.399 4.875-13.005 2.168-20.472 1.345 1.625 3.986 3.624 4.015 5.661.055 3.801-.591 8.062-2.367 11.369-16.147 30.069-13.243 59.89.494 89.721.133.288.114.644-.228 1.237-.8.257-1.207.246-1.614.235 0 0-.015.069.094-.26-.33-.764-.768-1.197-1.206-1.63 0 0 .071.031.043.059z"/><path fill="#EDEADD" d="M139.016 413.991c-1.736-8.715-3.807-17.397-5.149-26.191-2.827-18.526-1.973-37.052.314-55.609.494-4.009-1.237-8.292-2.075-12.794 1.095.54 3.25 1.3 3.392 2.333.64 4.683 1.528 9.564.849 14.156-3.244 21.925-2.049 43.69 1.931 65.323 1.062 5.77 3.847 11.223 5.724 17.369-.233.678-.35.809-.466.94-1.073-1.157-2.147-2.315-3.377-4.089-.5-.897-.842-1.177-1.185-1.457 0 0 .037.002.042.02z"/><path fill="#EFECE1" d="M198.088 85.614c7.15 17.604 7.768 36.069 8.418 54.408.303 8.536-1.283 17.144-2.08 25.713-.522 5.614-1.46 11.252 2.135 16.734-3.51 1.562-3.867-2.02-4.028-3.616-.509-5.062-.848-10.296-.121-15.3 3.149-21.684 1.705-43.156-2.499-64.492-1.068-5.42-3.4-10.591-5.576-17.163 1.757 1.694 2.703 2.607 3.751 3.716z"/><path fill="#F7F5ED" d="M88.134 223.82c-7.178 4.054-10.24 10.771-10.124 18.832.102 7.034 1.099 14.056 1.85 21.495-1.237.891-2.624 1.37-4.432 1.993-2.422-10.068-3.952-19.92-1.316-29.893 1.825-6.907 5.963-11.734 14.022-12.428z"/><path fill="#F5F4EF" d="M252.328 276.972c9.298-7.159 8.949-17.437 8.268-27.724-.25-3.763-1.092-7.486-1.707-11.638 1.188-.853 2.42-1.295 4.284-1.965 2.438 11.425 4.789 22.54-.143 33.604-1.906 4.274-4.7 8.078-10.702 7.723z"/><path fill="#EFF0F3" d="M225.938 152.003c.86 3.505 1.766 6.991 2.62 10.49 3.234 13.26-3.835 23.314-18.363 25.593 15.354-9.297 17.228-14.202 11.797-31.877-1.006-3.275-2.104-6.521-2.297-10.494 1.55 1.27 3.099 2.54 4.922 4.37.63 1.026.986 1.49 1.342 1.955 0 0 .002-.05-.02-.037z"/><path fill="#F4EEED" d="M113.814 351.869c-1.441-4.78-2.992-9.315-3.991-13.968-2.48-11.546 2.878-19.903 14.806-22.855.126.502-.024 1.098-.39 1.296-10.654 5.756-12.24 14.713-8.445 26.52 1.455 4.53 2.862 9.073 4.739 15.03-2.929-2.597-4.753-4.214-6.719-6.023z"/><path fill="#F4F3F3" d="M175.314 136.554c-1.32 7.833-4.277 14.49-9.686 21.158-1.076-5.703-2.065-10.588-2.848-15.506-.11-.69.602-1.81 1.257-2.274 3.857-2.732 7.81-5.328 12.015-8.161-.238 1.558-.454 2.977-.738 4.783z"/><path fill="#F4F5F5" d="M164.532 359.644c2.456-5.27 4.763-10.17 7.07-15.07l1.378.204c.993 4.878 2.077 9.74 2.884 14.649.129.784-.778 2.066-1.559 2.617-3.62 2.554-7.364 4.93-11.823 7.872.699-3.642 1.3-6.771 2.05-10.272z"/><path fill="#ECE8D8" d="M172.636 87.418c5.846 4.265 7.363 10.974 8.709 17.493 3.33 16.127 4.49 32.226-3.613 47.52-.902 1.702-2.326 3.128-3.753 4.86-.312-.367-.618-1.038-.408-1.435 12.131-22.92 9.992-45.582-.935-68.438z"/><path fill="#F0EDE1" d="M166.473 415.577c-.947-.589-2.226-1.327-2.967-2.427-9.19-13.631-14.752-51.536 1.906-70.997.323-.377.7-.71 1.407-1.065.157.82.159 1.768-.27 2.446-13.554 21.479-11.495 43.637-2.9 66.07.747 1.95 1.82 3.773 2.824 5.973z"/><path fill="#E7E8EE" d="M164.553 193.973c-5.616 5.045-11.558 10.016-18.341 15.69 5.202 2.883 10.333 5.726 15.597 8.882-7.947-.01-13.83-4.805-20.063-9.039 6.508-5.358 12.583-10.463 18.817-15.365.794-.624 2.422-.187 3.99-.168z"/><path fill="#F2F2F2" d="M258.285 366.434c-.116-1.527-.774-2.776-.654-3.946.149-1.448.592-3.588 1.554-4.033 1.001-.464 3.499.313 4.07 1.29 1.636 2.805 2.629 5.985 3.99 9.297-4.293 1.715-8.222 3.285-12.153 4.86-3.196-3.614-2.96-4.178 3.193-7.468zM65.871 134.379c1.954 4.025 3.548 7.957 5.17 11.957-2.287 2.469-4.602 2.481-5.83-.55-1.216-3-2.428-3.815-5.54-2.478-1.085.467-2.948-.874-4.455-1.39.66-1.5.915-3.678 2.062-4.361 2.504-1.494 5.46-2.228 8.593-3.178z"/><path fill="#F3F3F3" d="M55.016 120.447c3.078-3.802 4.78-3.84 6.579-.203 1.294 2.618 2.112 5.472 3.199 8.373l-12.27 4.971-1.454-.515c.54-1.736.748-4.758 1.674-4.997 5.124-1.32 3.307-4.3 2.272-7.629zM76.625 117.94c1.747.645 3.144 1.412 4.542 2.18-.911 1.377-1.52 3.27-2.798 4.02-2.377 1.394-5.145 2.12-8.116 3.265-1.41-3.435-2.842-6.553-3.933-9.786-.37-1.098.12-2.485.216-3.74 1.515.516 3.844.603 4.384 1.63 1.295 2.463 2.058 4.759 5.705 2.432zM265.57 375.393c1.485.294 3.23.454 3.625 1.268 1.568 3.235 2.715 6.673 4.062 10.147-2.721 2.508-4.937 2.105-6.051-1.22-.969-2.89-2.272-2.857-4.843-2.075-1.377.419-3.274-.876-4.937-1.398.908-1.517 1.523-3.383 2.804-4.453 1.322-1.104 3.292-1.433 5.34-2.269z"/><path fill="#F2F2F2" d="M285.955 373.931c-3.184.994-4.675 2.218-2.985 5.571.512 1.017-.825 2.965-1.316 4.487-1.5-.647-3.658-.887-4.364-2.026-1.545-2.494-2.353-5.445-3.626-8.615 3.789-1.596 7.36-3.185 11.012-4.56.645-.242 2.346.441 2.338.646-.061 1.457-.44 2.9-1.06 4.497z"/><path fill="#F3F3F3" d="M79.95 137.017c1.333 2.736 2.423 5.498-.91 6.478-1.2.353-3.723-1.893-4.806-3.512-1.33-1.988-1.783-4.562-2.73-7.202l12.193-4.937c2.62 2.414 2.225 4.305-.781 6.094-1.135.675-2.02 1.768-2.966 3.079z"/><path fill="#F0E9E7" d="M174.296 307.962c5.47-5.142 11.335-10.189 18.115-16.021-5.423-2.759-10.78-5.484-16.308-8.521 8.275-.573 14.193 4.793 20.844 8.893-6.439 5.233-12.641 10.351-18.968 15.312-.748.587-2.174.31-3.683.337z"/><path fill="#F2F2F2" d="M273.658 356.461c1.633.985 3.083 1.69 4.603 2.175 1.643.524 3.352.84 5.033 1.248-.914 1.645-1.436 3.906-2.832 4.797-2.301 1.47-5.167 2.054-7.957 3.07l-4.954-12.227c2.299-2.523 4.236-2.22 6.107.937z"/><path fill="#F4C81E" d="M64.433 162.116c3.632 5.03 6.903 9.922 10.175 14.814L73.54 178c-5.567-2.197-10.962-4.855-14.662-9.875-2.052-2.784.75-5.925 5.555-6.01z"/><path fill="#F3C923" d="m267.866 331.124-3.324-6.264.82-.626c3.867 2.24 7.9 4.247 11.52 6.834 1.481 1.058 2.729 3.334 2.83 5.126.071 1.242-2.1 3.75-3.094 3.665-1.817-.157-3.801-1.527-5.165-2.927-1.468-1.507-2.304-3.63-3.587-5.808z"/><path fill="#F0EDE1" d="M154.437 445.512c-10.367-2.736-19.838-7.56-28.623-14.495.682-.656 1.998-1.687 2.534-1.375a729.864 729.864 0 0 1 26.09 15.87z"/><path fill="#F0C41B" d="M88.205 165.072c5.199 1.069 6.685 4.353 3.556 8.207-1.443 1.776-3.283 3.23-5.317 4.487-.078-4.186.219-8.03.515-11.873 0 0 .018.077.275.08.495-.298.733-.6.971-.9z"/><path fill="#F4C81E" d="M251.122 336.059c-1.619-.35-4-.188-4.668-1.18-.864-1.283-1.053-3.882-.294-5.204 1.26-2.198 3.507-3.83 5.713-5.466 0 4.107-.375 7.978-.75 11.85z"/><path fill="#F0EDE1" d="M186.92 58.425c1.36-.136 3.144-.388 4.416.303 7.098 3.86 14.073 7.948 21.376 12.139-1.057 3.672-2.475 1.215-4.02.313-7.171-4.187-14.386-8.297-21.772-12.755z"/><path fill="#EFEFEF" d="M83.805 198.658c-.42.939-.85 1.502-1.508 2.212.214-2.926-1.098-4.062-4.176-3.848a25.878 25.878 0 0 1-6.883-.43c-.795-.162-1.873-1.695-1.808-2.524.062-.798 1.31-1.834 2.25-2.167 2-.708 11.176 4.298 12.125 6.757z"/><path fill="#EDECE9" d="M190.325 457.082c-.313-2.383-.255-4.585-.199-7.195 1.436-.614 2.873-.82 4.573-1.063v9.492c-1.417-.372-2.71-.713-4.374-1.234z"/><path fill="#F7F5ED" d="M148.308 44.86c.14 2.335-.011 4.5-.183 7.005-1.267.594-2.512.85-4.06 1.167v-9.61c1.354.434 2.654.852 4.243 1.438z"/><path fill="#F4F1E4" d="M163.587 168.994c-.13 1.185-.402 2.555-1.111 3.64-2.781 4.252-3.438 8.67-1.452 13.813-5.167-2.266-3.606-6.697-2.344-10.542.826-2.514 2.997-4.587 4.907-6.911z"/><path fill="#F0EDDF" d="M251.51 336.068c-.012-3.88.363-7.752.667-12.047.296-1.166.663-1.909 1.328-3.253 2.646 7.788 1.919 12.682-1.995 15.3z"/><path fill="#F4F1E4" d="M176.43 331.038c.497-4.735 4.252-9.128 1.581-14.763 1.067 1.616 3.12 3.831 2.794 5.61-.583 3.179-2.6 6.095-4.375 9.153z"/><path fill="#F7F5ED" d="M86.55 165.816c.113 3.92-.184 7.764-.424 12.086-.323 1.154-.702 1.829-1.081 2.504l-1.196-.673c.95-4.643-2.428-9.807 2.7-13.917z"/><path fill="#F4F1E4" d="M174.7 332.838c.121-.697.526-1.43 1.149-1.957-.144.779-.505 1.35-1.15 1.957z"/><path fill="#ECE8D8" d="M170.972 85.533c.71.081 1.394.528 2.003 1.293-.727-.098-1.377-.513-2.003-1.293z"/><path fill="#F4C71C" d="M186.057 81.666c-.693-.11-1.355-.564-2.017-1.376.682.104 1.366.569 2.017 1.376z"/><path fill="#F0EDE1" d="M167.454 341.371c.06-.911.46-1.612 1.183-2.403-.066.811-.455 1.713-1.183 2.403z"/><path fill="#F4F1E4" d="M166.628 165.95c-.129.723-.58 1.522-1.365 2.153.124-.805.584-1.44 1.365-2.153zM178.34 315.648c-.57-.064-.949-.403-1.346-1.058.5.05 1.018.418 1.345 1.058z"/><path fill="#F3C71D" d="M153.73 421.334c.62.129 1.057.562 1.421 1.32-.583-.121-1.093-.568-1.421-1.32zM155.098 423.19c.332-.259.739-.248 1.45-.136-.255.202-.815.303-1.45.135z"/><path fill="#244CC1" d="M226.065 151.716c-.462-.14-.818-.605-1.208-1.401.416.138.865.608 1.208 1.401z"/><path fill="#F4C71C" d="M183.13 78.606c-.496-.086-.954-.535-1.548-1.29.438.105 1.01.517 1.547 1.29z"/><path fill="#F4C81C" d="M138.988 414.317c.329-.065.672.215 1.015.863-.333.073-.667-.222-1.015-.863z"/><path fill="#EDEADD" d="M144.069 418.937c.356.127.53.442.703.757a2.062 2.062 0 0 1-1.013-.01c-.106-.297.01-.428.31-.747z"/><path fill="#F4C71C" d="M184.12 79.646c-.36.15-.67-.022-1.02-.478.331-.137.7.009 1.02.478z"/><path fill="#EEEBDF" d="M180.168 76.815c.04.001-.209-.014-.209-.014s.189.118.158.03c-.03-.087.01-.017.05-.016z"/><path fill="#F4F1E4" d="M164.636 167.91c.21.444.11.875-.349 1.17-.226-.486-.092-.835.35-1.17z"/><path fill="#F7F5ED" d="M87.863 165.054c.104.32-.134.62-.667.91-.089-.317.118-.622.667-.91z"/><path fill="#FEFBFA" d="M23.49 14.074c7.698-3.018 12.469-.986 14.66 6.25 2.367 7.822 2.287 15.763-.173 23.554-1.468 4.646-4.453 7.717-9.821 7.568-5.202-.145-8.153-3.395-9.003-7.858-1.926-10.11-3.838-20.432 4.338-29.514zM313.405 485.716c-7.403 2.636-12.294.49-14.286-6.504-2.228-7.823-2.217-15.84.173-23.63 1.407-4.589 4.452-7.802 9.856-7.585 5.13.206 7.749 3.34 9.037 7.877 2.138 7.534 2.336 15.169-.017 22.635-.802 2.548-2.914 4.683-4.763 7.207z"/><path fill="#2C2C2C" d="M154.017 98.8c-1.083 1.472-2.164 2.54-3.245 3.608-.653-1.97-1.644-3.912-1.804-5.921-.073-.912 1.5-1.956 2.326-2.94.908 1.617 1.816 3.234 2.723 5.253z"/><path fill="#373737" d="M186.295 408.159c-.86-.94-1.829-1.86-1.683-2.544.463-2.175 1.34-4.262 2.057-6.383 1.055.784 3.001 1.57 3 2.352-.006 2.515 1.96 6.288-3.374 6.575z"/></svg>