<svg xmlns="http://www.w3.org/2000/svg" viewBox="0 0 340 500" xml:space="preserve"><path fill="#FEFEFD" d="M341 132v369H1V1h340v131m-63.82 249.5v-59.321c6.142 0 11.772.182 17.376-.118 1.563-.083 3.05-1.593 4.571-2.449-1.464-.874-2.894-2.425-4.399-2.502-5.773-.296-11.57-.12-17.36-.12l-.731-1.65c1.189-.829 2.268-2.027 3.587-2.418 3.773-1.121 7.879-1.387 11.415-2.968 4.601-2.058 4.01-6.308 2.825-10.367-.035-.12.18-.294.19-.45.373-5.784.735-11.569 1.115-17.627 5.86-2.21 6.13-2.761 3.801-9.503-2.06-5.966-4.408-11.847-6.124-17.909-.565-1.994-.286-4.943.854-6.595 17.706-25.67 5.092-59.227-25.138-66.765-2.02-.503-3.851-2.174-5.52-3.596-7.296-6.219-14.337-12.746-21.79-18.768-5.498-4.442-11.488-8.277-17.09-12.262 9.64-24.451 4.154-45.776-9.307-65.74.796-1.425 1.561-2.834 2.362-4.223 3.63-6.294 6.99-12.77 11.03-18.789 1.84-2.74 2.531-4.685.355-7.197-10.558 3.085-11.059 2.856-16.384-6.188-1.802-3.06-4.09-2.961-7.057-1.195-7.593 4.52-9.462 4.032-14.942-3.007-4.495-5.774-4.577-5.786-10.702-1.534-7.342 5.098-8.904 5.08-14.817-1.198-3.09-3.282-5.472-3.5-8.495.118-4.053 4.85-7.564 5.095-13.231 2.092-1.27-.672-3.439-.736-4.639-.074-.825.455-1.035 2.675-.925 4.058.42 5.282 1.846 10.607 1.425 15.796-.382 4.707-.454 8.228 4.108 9.294-.544 5.823-1.567 11.246-1.421 16.637.18 6.648-1.856 12.131-6.45 16.675-3.527 3.49-2.942 6.223.371 8.29-1.521 2.817-4.298 5.575-4.157 8.176.32 5.937-2.605 10.826-3.607 16.252-2.804 15.179-6.137 30.514 5.753 44.496l-30.152 21.115-19.176-12.957c5.688 0 9.873.441 13.91-.141 3.139-.453 8.924 2.82 8.94-2.555.013-4.709-5.66-2.005-8.742-2.373-4.065-.485-8.233-.12-12.802-.12v-5.807c0-21.328-.418-42.667.166-63.98.319-11.638-4.753-21.602-7.697-32.243-.236-.853-1.838-1.778-2.857-1.84-1.065-.066-2.96.65-3.175 1.403-2.682 9.365-6.842 18.72-7.284 28.233-1.06 22.778-.342 45.638-.342 68.466v5.77c-6.197 0-11.834-.186-17.444.12-1.545.084-3.011 1.634-4.514 2.512 1.49.852 2.947 2.362 4.475 2.439 5.771.291 11.565.117 17.115.117 1.27 4.426-1.256 4.067-3.722 4.173-10.573.457-12.936 2.795-13.264 12.805-.01.317-.22.626-.237.945-.32 5.79-.625 11.583-.944 17.586-5.784 2.03-6.179 2.798-3.995 9.108 2.118 6.122 4.21 12.256 6.481 18.321.953 2.544.692 4.438-.952 6.764-17.918 25.34-4.987 59.302 25.137 66.603 2.009.487 4.126 2.025 5.426 3.678 6.17 7.845 13.762 13.868 22.216 19.082 5.86 3.615 11.247 8 16.827 12.027-5.317 11.661-6.233 22.977-4.159 34.506 2.054 11.415 6.533 21.882 13.449 30.932-.914 1.497-1.693 2.713-2.414 3.962-3.712 6.436-7.108 13.084-11.247 19.232-1.898 2.82-2.313 4.703-.19 7.129 10.133-3.158 10.726-2.876 16.358 6.287 1.866 3.036 4.233 2.738 7.135 1.009 7.347-4.38 9.36-3.886 14.609 2.771 4.784 6.069 4.784 6.069 11.025 1.753 7.266-5.024 8.788-4.99 14.795 1.365 2.906 3.074 5.221 3.482 8.173.082 4.48-5.162 7.64-5.442 13.572-2.31 1.254.66 3.47.646 4.634-.06.821-.497.93-2.718.81-4.122-.441-5.117-1.927-10.29-1.463-15.299.448-4.838.495-8.492-3.998-9.73.53-5.942 1.507-11.368 1.368-16.764-.168-6.463 1.986-11.65 6.181-16.31 3.752-4.167 3.61-5.313-.85-9.246 5.435-2.75 4.708-8.225 5.965-12.934 1.576-5.905 4.433-11.567 5.299-17.542 1.924-13.27 3.814-26.847-8.116-38l29.75-20.77 19.12 12.947c-7.23 0-12.897-.17-18.541.11-1.589.078-3.112 1.476-4.665 2.269 1.61.937 3.177 2.58 4.838 2.681 5.566.34 11.165.13 16.957.13 0 20.771.61 40.779-.207 60.728-.582 14.21 2.698 27.315 7.55 40.282.475 1.27 2.315 2.624 3.655 2.778.971.112 2.707-1.484 3.173-2.68 5.112-13.101 8.838-26.482 7.187-41.788m-261.017-50V132.252h-5.159v44.152c0 102.994.012 205.987-.043 308.98-.002 4.007.494 6.678 5.535 6.672 80.995-.089 161.99-.068 242.984-.089.466 0 .932-.225 1.437-.355v-4.741H16.162V331.5m315-210c0-34.154.002-68.309-.002-102.463 0-6.79-.246-7.032-7.06-7.033H81.229v5.035h244.765v354.638h5.17V121.5M43.948 422.44c-3.74 4.828-8.45 9.192-11.03 14.577-6.139 12.812 1.638 26.208 15.454 27.565 7.39.726 13.05-2.811 17.618-8.83.865 1.009 1.465 1.763 2.119 2.466 5.821 6.252 13.801 8.112 21.333 4.986 7.784-3.23 12.072-10.268 11.566-19.067-.405-7.057-3.879-12.726-8.765-17.406-8.798-8.427-17.895-16.54-26.1-24.08a10028.11 10028.11 0 0 0-22.195 19.789M282.552 95.057c5.746-5.042 12.004-9.624 17.082-15.267 4.332-4.814 8.343-10.452 10.634-16.438 3.218-8.408-1.187-17.41-8.89-21.628-7.577-4.15-16.715-2.735-22.834 3.636-.871.908-1.365 2.179-2.1 3.389-1.282-1.482-1.706-1.993-2.151-2.483-5.94-6.546-14.047-8.593-21.65-5.471-7.81 3.206-12.04 10.004-11.62 19.003.337 7.24 3.997 12.99 9.029 17.782 8.71 8.298 17.678 16.327 26.443 24.381 1.661-1.914 3.61-4.159 6.057-6.904M25.017 26.337c0-1.498.021-2.995-.004-4.493-.062-3.631-.827-7.606 4.817-7.907.486-.026.861-2.126 1.487-3.793-6.528 0-12.17-.065-17.809.067-.887.02-1.753.928-2.63 1.426.683.897 1.271 2.463 2.064 2.575 3.596.506 3.955 2.723 3.914 5.715-.122 8.983-.126 17.97.008 26.953.041 2.736-.672 4.331-3.524 5.034-1.125.277-1.966 1.707-2.936 2.612l.899 1.138h20.74c-1.332-1.763-2.003-3.534-2.85-3.623-3.82-.399-4.038-2.603-4.315-5.817-.446-5.175 1.867-8.463 5.971-11.527 2.574 4.746 5.102 9.395 7.618 14.05 3.966 7.336 6.285 8.525 14.219 7.05.77-.142 1.88-.884 1.992-1.5.12-.672-.598-1.656-1.194-2.268-2.206-2.268-4.953-4.14-6.689-6.707-3.705-5.48-6.905-11.303-10.539-17.365 5.252-4.483 7.947-12.052 15.867-14.075.576-.147.666-2.194 1.086-3.743-5.184 0-9.505-.108-13.812.08-.995.044-1.946 1.105-2.917 1.698.804.789 1.556 1.642 2.43 2.344.555.446 1.292.666 2.255 1.14L25.017 34.146v-7.81m265.934 423.9 15.222 23.447c-6.105 3.855-8.01 12.066-16.01 13.739-.657.137-.93 2.114-1.49 3.505h16.204l.814-1.231-4.593-3.973 15.895-18.45c0 5.914-.093 10.525.035 15.129.075 2.698-.457 4.419-3.628 4.786-1.035.12-1.88 1.866-3.622 3.74H332.4c-1.722-1.878-2.544-3.603-3.54-3.71-3.523-.379-3.74-2.51-3.715-5.269.08-8.999.089-18-.005-26.999-.028-2.757.163-4.882 3.654-5.306.998-.121 1.81-1.764 3.456-3.5h-22.347c1.256 1.656 1.911 3.295 2.61 3.313 4.732.124 4.242 3.239 4.601 6.555.556 5.133-2.467 7.853-5.943 11.014-3.176-5.92-6.087-11.709-9.382-17.269-.971-1.638-2.882-3.415-4.626-3.748-3.16-.603-6.518-.17-9.794-.17l-.696 1.578c1.18.866 2.36 1.733 4.278 2.82M39.165 100.66c2.75-3.082 5.922-5.892 8.129-9.322 2.19-3.405 2.328-7.859-.792-10.619-2.326-2.058-6.017-3.19-9.202-3.44-2.05-.16-4.285 2.024-6.51 3.195-6.527-4.993-12.654-4.657-16.055 1.007-2.404 4.004-1.727 9.386 2.44 13.711 4.434 4.601 9.333 8.752 13.837 12.922 2.707-2.509 5.145-4.768 8.153-7.454m254.579 316.97c3.525 7.928 8.538 8.882 17.63 3.355 4.873 4.105 9.617 4.71 13.485 1.718 3.593-2.778 4.894-7.696 2.719-12.126-1.144-2.33-2.867-4.497-4.733-6.324-3.87-3.787-8.012-7.297-11.837-10.737-4.036 3.612-8.048 7.073-11.907 10.697-3.62 3.398-6.382 7.271-5.357 13.416z"/><path fill="#252524" d="M277.18 382c1.65 14.806-2.076 28.187-7.188 41.287-.466 1.197-2.202 2.793-3.173 2.681-1.34-.154-3.18-1.508-3.655-2.778-4.851-12.967-8.132-26.072-7.55-40.282.818-19.95.207-39.957.207-60.729-5.792 0-11.391.211-16.957-.129-1.661-.101-3.228-1.744-4.838-2.681 1.553-.793 3.076-2.191 4.665-2.27 5.644-.279 11.31-.109 18.54-.109l-19.12-12.948-29.75 20.772c11.931 11.152 10.04 24.729 8.117 38-.866 5.974-3.723 11.636-5.299 17.54-1.257 4.71-.53 10.184-5.966 12.935 4.46 3.933 4.603 5.079.851 9.246-4.195 4.66-6.349 9.847-6.181 16.31.14 5.396-.838 10.822-1.368 16.764 4.493 1.238 4.446 4.892 3.998 9.73-.464 5.009 1.022 10.182 1.462 15.3.121 1.403.012 3.624-.809 4.121-1.164.706-3.38.72-4.634.06-5.932-3.132-9.092-2.852-13.572 2.31-2.952 3.4-5.267 2.992-8.173-.082-6.007-6.354-7.53-6.389-14.795-1.365-6.24 4.316-6.24 4.316-11.025-1.753-5.25-6.657-7.262-7.15-14.61-2.771-2.901 1.73-5.268 2.027-7.134-1.009-5.632-9.163-6.225-9.445-16.358-6.287-2.123-2.426-1.708-4.31.19-7.129 4.14-6.148 7.535-12.796 11.247-19.232.72-1.25 1.5-2.465 2.414-3.962-6.916-9.05-11.395-19.517-13.449-30.932-2.074-11.529-1.158-22.845 4.159-34.506-5.58-4.027-10.966-8.412-16.827-12.027-8.454-5.214-16.045-11.237-22.216-19.082-1.3-1.653-3.417-3.19-5.426-3.678-30.124-7.301-43.055-41.263-25.137-66.603 1.644-2.326 1.905-4.22.952-6.764-2.27-6.065-4.363-12.199-6.481-18.32-2.184-6.31-1.789-7.078 3.995-9.109.32-6.003.624-11.795.944-17.586.017-.319.227-.628.237-.945.328-10.01 2.691-12.348 13.264-12.805 2.466-.106 4.993.253 3.722-4.173-5.55 0-11.344.174-17.115-.117-1.528-.077-2.985-1.587-4.475-2.439 1.503-.878 2.969-2.428 4.514-2.512 5.61-.306 11.247-.12 17.444-.12v-5.77c0-22.828-.718-45.688.342-68.466.442-9.513 4.602-18.868 7.284-28.233.215-.752 2.11-1.469 3.175-1.404 1.019.063 2.621.988 2.857 1.841 2.944 10.641 8.016 20.605 7.697 32.244-.584 21.312-.166 42.65-.166 63.979v5.808c4.57 0 8.737-.366 12.802.12 3.083.367 8.755-2.337 8.742 2.372-.016 5.374-5.801 2.102-8.94 2.555-4.037.582-8.222.141-13.91.141 6.865 4.64 12.538 8.472 19.176 12.957l30.152-21.115c-11.89-13.982-8.557-29.317-5.753-44.496 1.002-5.426 3.928-10.315 3.607-16.252-.14-2.6 2.636-5.36 4.157-8.176-3.313-2.067-3.898-4.8-.37-8.29 4.593-4.544 6.63-10.027 6.449-16.675-.146-5.391.877-10.814 1.42-16.637-4.561-1.066-4.49-4.587-4.107-9.294.42-5.19-1.005-10.514-1.425-15.796-.11-1.383.1-3.603.925-4.058 1.2-.662 3.37-.598 4.639.074 5.667 3.003 9.178 2.758 13.23-2.092 3.024-3.618 5.406-3.4 8.496-.118 5.913 6.279 7.475 6.296 14.817 1.198 6.125-4.252 6.207-4.24 10.702 1.534 5.48 7.04 7.349 7.527 14.942 3.007 2.967-1.766 5.255-1.865 7.057 1.195 5.325 9.044 5.826 9.273 16.384 6.188 2.176 2.512 1.485 4.457-.354 7.197-4.04 6.02-7.401 12.495-11.031 18.789-.8 1.389-1.566 2.798-2.362 4.223 13.461 19.964 18.946 41.289 9.307 65.74 5.602 3.985 11.592 7.82 17.09 12.262 7.453 6.022 14.494 12.55 21.79 18.768 1.669 1.422 3.5 3.093 5.52 3.596 30.23 7.538 42.844 41.095 25.138 66.765-1.14 1.652-1.419 4.601-.854 6.595 1.716 6.062 4.064 11.943 6.124 17.909 2.328 6.742 2.06 7.293-3.8 9.503-.381 6.058-.743 11.843-1.115 17.628-.01.155-.226.329-.19.45 1.184 4.058 1.775 8.308-2.826 10.366-3.536 1.581-7.642 1.847-11.415 2.968-1.319.391-2.398 1.589-3.587 2.419l.731 1.65c5.79 0 11.587-.177 17.36.12 1.505.076 2.935 1.627 4.4 2.501-1.522.856-3.009 2.366-4.572 2.45-5.604.3-11.234.117-17.377.117v59.82M142.227 223.736c-.915.374-1.83.747-3.419 1.094-1.596.6-3.192 1.199-5.516 2.177-6.815 1.605-13.63 3.21-21.182 4.823l-4.462.59c2.158 6.554 3.745 12.735 6.228 18.533 2.584 6.034 7.45 9.836 15.04 11.018 9.598.584 18.286-2.793 26.951-6.226 18.767-7.434 36.127-18.953 56.858-19.222-9.66-9.952-19.263-19.846-29.124-30.316-.53-.331-1.283-1.079-1.558-.932a1008.406 1008.406 0 0 0-23.04 12.72s-.078-.125-.74-.533c-1.442.81-2.884 1.622-4.262 2.52 0 0-.064-.094-.732-.441-.455.443-.91.887-1.275 1.41 0 0-.045-.112-.638-.665-.807.539-1.613 1.078-2.343 1.693 0 0-.053-.095-.71-.477-.788.476-1.577.951-2.307 1.488 0 0-.02-.082-.711-.317-.783.423-1.566.846-2.285 1.318 0 0-.033-.074-.773-.255M124.05 394.301c-.356-.205-.713-.411-1.279-1.233l-3.593-4.083c.997 12.288 4.958 23.086 12.769 32.197.888 1.036 2.797 1.2 5.001 1.829.506-1.16 1.615-2.43 1.424-3.46-1.828-9.866-7.71-17.447-14.335-24.587 0 0 .01-.045.013-.663m113.5-142.06c1.3.87 2.602 1.738 4.247 2.837v-19.91c-1.684 0-3.167 0-5.58-.14h-11.69c3.017 7.251 6.736 12.743 13.022 17.214m-131.765 16.73h11.604c-2.874-7.293-6.658-12.736-12.935-17.214l-4.248-2.836v19.91c1.685 0 3.167 0 5.58.14m171.415-16.255c.687.47 1.72 1.502 2.01 1.324 7.197-4.415 12.411-10.478 15.443-18.89-1.874 0-3.297 0-5.634-.131h-11.65c0 6.175 0 11.592-.169 17.697M52.982 268.98h11.65c0-6.183 0-11.602.167-17.71-.689-.463-1.72-1.488-2.017-1.307-7.222 4.392-12.366 10.509-15.487 18.886 1.927 0 3.35 0 5.687.131m46.32-60.863c-3.364 1.682-6.786 3.259-10.069 5.086-1.825 1.017-3.417 2.451-5.894 3.749-10.006 3.415-20.012 6.83-30.72 10.09l-5.937 1.061 7.525 21.471c1.634-1.448 2.716-2.407 4.487-3.57 14.81-9.495 30.236-8.435 45.672-2.147-.849-8.569-1.613-16.629-2.46-24.68-.361-3.427 1.095-5.28 4.419-6.058 35.05-8.208 65.89-24.58 92.84-48.314 6.436-5.668 12.38-11.895 19.43-18.716-6.461-3.932-11.795-7.177-17.617-10.977-2.487-2.416-3.635-1.03-5.154 1.358-10.17 15.989-23.561 28.522-40.531 37.127-1.474.747-2.839 1.71-4.7 3.001-1.125.479-2.25.958-3.825.93-2.273.857-4.828 1.303-6.775 2.636-13.402 9.179-26.678 18.543-40.691 27.953m105.751-127.13c-.526 1.165-1.683 2.456-1.482 3.479 2.1 10.682 8.9 18.645 16.122 27.08l3.358 4.262c-1.028-12.501-4.971-23.604-12.969-32.96-.895-1.048-2.814-1.221-5.029-1.862m-62.025 315.271-20.823-20.708-1.913 1.533c3.582 5.823 6.845 11.874 10.819 17.416 6.108 8.52 12.359 16.858 13.12 28.209 1.58-.163 2.838-.292 4.786-.218.672-.527 1.81-.956 1.943-1.595 1.725-8.225.213-15.824-4.932-22.54-.583-.76-1.917-.944-3-2.097m55.569-288.033 21.835 20.626 1.538-.964c-3.33-5.725-6.227-11.764-10.089-17.106-6.511-9.006-13.348-17.715-14.159-29.595-1.816.37-3.1.63-5.237.793-.568.827-1.501 1.595-1.646 2.49-1.448 8.957.686 16.87 7.758 23.756m-42.58 280.024c-.755-1.048-1.298-2.398-2.297-3.096-9.808-6.857-19.692-13.606-29.554-20.385l-1.095 1.026c.86 1.456 1.47 3.156 2.62 4.326 5.697 5.794 11.39 11.606 17.357 17.115 10.29 9.497 16.314 20.475 12.932 35.325 1.53.193 2.78.35 4.563.93.755-.397 2.095-.699 2.177-1.205 1.662-10.264 2.395-20.51-2.808-30.097-.74-1.365-2.509-2.173-3.895-3.939m25.33-307.69c-.749.574-1.996 1.036-2.156 1.743-.542 2.404-.852 4.887-.978 7.353-.486 9.45.096 18.653 7.402 26.583 6.586 4.967 13.033 10.134 19.81 14.824 3.918 2.71 8.369 4.648 12.682 7.217l.284.117c-.133-.13-.266-.26-.25-1.11-3.477-4.151-6.547-8.747-10.504-12.374-12.773-11.705-26.452-22.757-21.592-43.5-1.637-.188-2.897-.332-4.698-.854M72.992 181.79h7.995c0-22.73-.236-44.78.12-66.82.137-8.497-1.498-16.369-4.914-24.75l-.507-1.851-1.633-.21c-1.35 7.992-3.665 15.96-3.865 23.98-.541 21.758-.23 43.538-.08 65.308.01 1.333-1.948 4.428 2.884 4.343M269.008 322.21h-7.995c0 22.73.236 44.78-.12 66.82-.137 8.498 1.498 16.369 4.914 24.75l.507 1.851 1.633.213c1.35-7.993 3.665-15.962 3.865-23.983.541-21.758.23-43.538.08-65.308-.01-1.333 1.948-4.428-2.884-4.343m21.778-112.376c1.123-.06 2.247-.122 3.878-.211-3.14-9.043-8.807-15.489-16.792-19.777-2.755-1.48-6.104-1.856-9.893-2.926-17.226-5.887-41.298 7.038-42.335 22.712 21.436 0 42.874 0 65.142.202M72.779 317.271c19.639 7.311 41.172-8.742 43.96-22.904-21.604 0-43.15 0-65.525-.203l-3.391.178c2.134 10.385 14.046 21.396 24.956 22.929m57.274 133.565 2.804 3.23c1.852-4.493 3.527-8.557 5.844-13.026 3.77-1.087 5.206-.027 4.132 3.335-.928 2.904-2.346 5.651-3.198 7.65 4.011 1.309 7.651 2.496 11.72 4.222l3.466 3.68c1.048-5.007 1.979-9.459 3.306-14.498 1.293-.15 2.877-.81 3.785-.29.722.414.982 2.324.812 3.476-.494 3.344-1.308 6.641-1.832 9.164 4.316-.267 8.157-.505 12.441-.222l4.678 2.099c0-4.62 0-8.568.645-13.005 3.266-1.814 4.537-.52 4.512 2.869-.023 3.079-.005 6.158-.005 9.79 3.578-.754 6.699-1.411 10.651-1.715l3.338.342c0-5.069.034-9.66-.03-14.25-.012-.901-.17-2.42-.657-2.604-6.502-2.46-13.074-4.732-20.159-7.595-8.71-1.876-17.346-4.361-26.153-5.417-6-.719-12.245.502-18.367 1.01-.967.08-2.311.748-2.724 1.54-2.73 5.236-5.255 10.58-7.653 15.493 2.808 1.389 5.591 2.765 8.644 4.722m87.011-224.603c-.747-12.014 2.567-22.73 10.417-31.909 7.926-9.269 18.371-13.705 31.074-14.898-6.266-7.36-12.56-13.137-21.049-17.255-2.351-2.264-3.585-.388-5.226 1.173-9.249 8.8-18.418 17.699-27.997 26.129-5.298 4.663-11.345 8.476-15.707 11.682l29.227 29.25c-.124-.484-.478-1.86-.739-4.172m-92.132 51.522c.669 25.728-11.846 40.252-41.15 47.123 5.809 7.041 12.188 12.767 20.71 16.95 2.362 2.275 3.68.483 5.222-1.2 12.86-14.043 27.004-26.602 43.002-37.001.811-.528 1.709-.924 2.566-1.381l-2.16.557-29.082-29.681c.234.893.602 2.294.892 4.633m23.305-231.217-3.864-.539.8 17.427c2.732.755 5.802 1.603 9.491 2.86 3.494 1.627 6.9 3.489 10.496 4.842 14.461 5.44 29.38 6.149 44.521 3.833 1.159-.178 2.77-.713 3.232-1.581 2.773-5.217 5.272-10.58 7.669-15.496-2.796-1.384-5.581-2.761-8.634-4.719l-2.813-3.218c-1.85 4.49-3.521 8.55-5.836 13.014-3.772 1.087-5.2.03-4.134-3.337.889-2.804 2.265-5.454 3.138-7.5-3.924-1.34-7.577-2.586-11.657-4.37l-3.29-4.837c-1.256 6.202-2.129 10.512-3.374 15.363-1.243.32-2.7 1.174-3.66.789-.725-.292-1.257-2.228-1.104-3.325.485-3.484 1.332-6.919 1.939-9.885-4.348.386-8.2.728-12.501.56l-4.665-2.065c0 4.632 0 8.574-.647 13.003-3.295 1.818-4.542.482-4.514-2.902.026-3.086.006-6.173.006-9.624-3.566.721-6.73 1.36-10.599 1.707m64.91 196.492c-3.228-.075-6.665-.905-9.642-.077-7.638 2.123-15.202 4.657-22.56 7.614-16.949 6.81-32.805 16.872-51.42 16.77 9.441 9.843 19.042 19.852 28.912 30.438.512.346 1.251 1.114 1.504.978 7.734-4.157 15.42-8.404 23.77-12.927 3.046-1.28 5.998-2.886 9.153-3.78 12.057-3.417 24.178-6.604 37.022-9.869 1.657-.253 3.874.407 3.353-2.759-1.278-7.77-3.06-15.348-8.478-21.408-2.805-3.137-6.07-5.758-11.615-4.98m76.49 34.11 5.651-1.35-7.493-21.313c-1.592 1.367-2.69 2.311-4.476 3.486-14.7 9.296-30.18 8.821-45.605 2.686.85 8.532 1.531 16.14 2.393 23.726.443 3.905-1.166 5.731-4.944 6.624-31.617 7.473-60.053 21.549-85.115 42.16-9.05 7.442-17.297 15.862-26.8 24.658 6.583 4.074 11.909 7.37 17.801 11.137 2.139 1.9 3.38 1.411 4.932-1.065 10.371-16.546 24.172-29.393 41.802-38.001.836-.408 1.505-1.16 2.883-1.995 1.448-.453 2.895-.906 5.112-1.559 2.623-1.262 5.438-2.237 7.84-3.833 13.756-9.14 27.42-18.42 41.096-27.68 1.18-.8 2.228-1.798 4.018-2.917 5.908-2.626 11.699-5.573 17.754-7.797 7.328-2.691 14.88-4.77 23.152-6.966M180.218 428.208l12.104 4.657c2.211-4.055.981-5.975-3.095-6.905-3.21-.732-6.59-1.472-9.373-3.099-2.766-1.615-6.204-3.643-4.51-8.404l19.24 8.321c.705-13.885.705-13.885 7.082-23.904-6.636-3.634-13.522-6.899-19.848-11.022-5.607-3.653-6.498-11.394-2.618-16.77.576-.798 2.117-1.734 2.735-1.473.954.402 1.72 1.694 2.139 2.774.312.807-.051 1.875-.145 3.305 3.219.713 6.238 1.843 9.302 1.98 14.99.674 13.501 3.342 17.314-11.964 2.338-9.388 3.036-19.11.259-28.634-1.803-6.182-5.445-8.022-11.338-6.067-22.403 7.431-38.298 22.645-51.049 42.638 20.184 11.803 23.191 30.092 19.23 50.819 4.232 1.274 8.018 2.414 12.571 3.748m-22.703-343.5-10.578-2.772c1.332 9.157-.926 16.898-6.91 23.003 7.06 3.883 13.982 7.174 20.331 11.338 5.46 3.58 6.285 11.86 2.332 16.812-.597.747-2.04 1.397-2.883 1.2-.793-.184-1.574-1.463-1.88-2.415-.321-1-.072-2.185-.072-4.27-5.849-.595-11.58-1.108-17.29-1.79-2.836-.337-4.513.84-5.084 3.475-1.509 6.958-3.627 13.89-4.113 20.929-.413 5.993.518 12.264 1.954 18.144 1.231 5.044 4.953 6.692 9.632 4.414 8.755-4.261 17.664-8.526 25.584-14.102 10.342-7.281 18.361-17.04 24.848-28.45-20.313-11.944-22.898-30.364-19.134-50.427l-24.677-8.426c-2.196 3.892-.81 5.821 3.231 6.646 2.594.53 5.374.902 7.634 2.141 3.425 1.88 7.648 3.671 6.134 10.341-3.163-2.105-5.747-3.825-9.059-5.79M70.001 264.38v2.495c-.01 6.971-.325 7.284-7.407 7.29-5.477.006-10.955.002-16.944.002v14.516h73.522v-14.516c-6.632 0-12.76-.15-18.876.052-4.143.137-5.652-1.574-5.515-5.626.201-5.981-.231-11.993.154-17.957.243-3.748-1.432-4.93-4.598-5.552-6.813-1.34-13.475-1.12-20.336 1.427v17.869m177.167-26.733c0 5.49.138 10.984-.06 16.467-.094 2.637.798 3.898 3.35 4.485 7.256 1.67 14.362 1.654 21.54-1.156V243.33c.007-14.962-1.515-13.492 13.679-13.497 12.207-.004 12.985-.94 10.902-13.275-.078-.463-.408-.884-.62-1.325h-73.006v14.599c6.274 0 11.91-.007 17.547.001 6.413.01 6.6.21 6.668 7.815m-85.138 79.847c22.224-15.053 46.414-25.677 72.89-31.978l-.816-8.57c-49.322 8.862-89.539 32.538-122.496 69.498l8.615 7.843c12.39-13.944 25.989-26.096 41.807-36.793m40.5-148.457c-27.7 24.344-59.517 40.846-95.487 49.494.337 3.075.62 5.659.906 8.256 50.547-7.78 95.2-37.004 122.17-69.493l-7.988-7.258-19.6 19.001m52.46 139.81c.324-.27.897-.51.938-.819.983-7.495.973-7.497 8.71-7.486l3.996.005c7.34.002 7.34.002 9.612 7.64l13.015-3.173c-4.398-5.692-9.22-5.936-13.97-6.669-1.52-.235-2.836-1.802-4.246-2.76 1.571-.8 3.208-2.378 4.7-2.251 4.154.354 8.247 1.417 13.604 2.435-1.622-1.979-2.386-3.872-3.58-4.2-5.032-1.38-10.752-4.25-15.193-2.981-9.723 2.78-18.82 7.744-28.173 11.817l.02 1.648c3.276 2.17 6.553 4.342 10.567 6.795M82.127 203.444c-3.326.003-6.677-.257-9.971.07-5.073.501-8.141-.96-7.365-7.757l-13.84 2.96c4.161 6.336 9.41 6.24 14.435 6.929 1.28.175 2.388 1.593 3.575 2.44-1.295.91-2.661 2.676-3.872 2.575-4.357-.362-8.661-1.353-14.329-2.341 1.698 1.958 2.616 4.042 4.02 4.45 4.71 1.365 10.152 3.998 14.3 2.757 9.817-2.939 19.05-7.826 28.52-11.926l-.116-1.689-9.924-6.768c-1.763 3.202-3.141 5.706-5.433 8.3m56.948-87.997-2.626 4.527 22.079 2.423c-4.316-5.98-13.13-9.567-19.453-6.95m52.047 267.332-7.82-1.57-.614 1.351c4.562 2.462 8.953 5.357 13.739 7.255 4.326 1.716 7.806-1.133 8.353-6.169-4.264-.257-8.521-.513-13.658-.867M76.557 198.113l4.11-.378v-10.229c-8.004-1.1-9.2-.757-9.668 2.647-.837 6.083-.02 7.485 5.558 7.96m185.27 118.63c2.954-.41 7.172.248 8.61-1.449 3.39-4-.065-9.49-5.35-9.388-1.255.024-2.507.27-3.87.427 0 3.481 0 6.608.61 10.41z"/><path fill="#1F1F1F" d="M16.162 332v154.87h244.754v4.742c-.505.13-.97.355-1.437.355-80.994.02-161.99 0-242.984.09-5.04.005-5.537-2.666-5.535-6.672.055-102.994.043-205.987.043-308.98v-44.153h5.16V332zM331.162 122v249.677h-5.17V17.039H81.229v-5.036h4.958l237.915.001c6.813 0 7.059.243 7.06 7.033.003 34.154.001 68.309.001 102.963z"/><path fill="currentColor" d="M44.203 422.194c7.548-6.736 14.841-13.227 21.94-19.543 8.206 7.54 17.303 15.653 26.1 24.08 4.887 4.68 8.36 10.35 8.766 17.406.506 8.8-3.782 15.837-11.566 19.067-7.532 3.126-15.512 1.266-21.333-4.986-.654-.703-1.254-1.457-2.119-2.467-4.567 6.02-10.228 9.557-17.618 8.831-13.816-1.357-21.593-14.753-15.453-27.565 2.58-5.385 7.288-9.75 11.283-14.823zM282.302 95.307c-2.198 2.495-4.146 4.74-5.807 6.654-8.765-8.054-17.732-16.083-26.443-24.381-5.032-4.793-8.692-10.542-9.03-17.782-.419-8.999 3.811-15.797 11.62-19.003 7.604-3.122 15.71-1.075 21.65 5.47.446.491.87 1.002 2.153 2.484.734-1.21 1.228-2.481 2.1-3.389 6.118-6.371 15.256-7.786 22.834-3.636 7.702 4.218 12.107 13.22 8.889 21.628-2.291 5.986-6.302 11.624-10.634 16.438-5.078 5.643-11.336 10.225-17.332 15.517zM25.017 26.798v7.348l16.148-18.745c-.963-.474-1.7-.694-2.255-1.14-.874-.702-1.626-1.555-2.43-2.344.971-.593 1.922-1.654 2.917-1.697 4.307-.19 8.628-.081 13.812-.081-.42 1.55-.51 3.596-1.086 3.743-7.92 2.023-10.615 9.592-15.867 14.075 3.634 6.062 6.834 11.884 10.54 17.365 1.735 2.567 4.482 4.44 6.688 6.707.596.612 1.315 1.596 1.194 2.269-.111.615-1.222 1.357-1.992 1.5-7.934 1.474-10.253.285-14.219-7.05-2.516-4.656-5.044-9.305-7.618-14.05-4.104 3.063-6.417 6.351-5.971 11.526.277 3.214.495 5.418 4.314 5.817.848.089 1.52 1.86 2.85 3.623h-20.74l-.898-1.138c.97-.905 1.811-2.335 2.936-2.612 2.852-.703 3.565-2.298 3.524-5.034-.134-8.983-.13-17.97-.008-26.953.041-2.992-.318-5.209-3.914-5.715-.793-.112-1.38-1.678-2.063-2.575.876-.498 1.742-1.406 2.63-1.426 5.637-.132 11.28-.067 17.808-.067-.626 1.667-1.001 3.767-1.487 3.793-5.644.301-4.879 4.276-4.817 7.907.025 1.498.004 2.995.004 4.954zM290.583 450.127c-1.55-.977-2.73-1.844-3.91-2.71l.696-1.579c3.276 0 6.634-.432 9.794.171 1.744.333 3.655 2.11 4.626 3.748 3.295 5.56 6.206 11.348 9.382 17.269 3.476-3.16 6.5-5.88 5.943-11.014-.359-3.316.13-6.43-4.602-6.555-.698-.018-1.353-1.657-2.61-3.312h22.348c-1.646 1.735-2.458 3.378-3.456 3.499-3.491.424-3.682 2.55-3.654 5.306.094 9 .086 18 .005 27-.025 2.759.192 4.889 3.715 5.268.996.107 1.818 1.832 3.54 3.71h-22.622c1.741-1.874 2.587-3.62 3.622-3.74 3.17-.367 3.703-2.088 3.628-4.786-.128-4.604-.035-9.215-.035-15.128l-15.895 18.449 4.593 3.973-.814 1.231h-16.203c.56-1.391.832-3.368 1.49-3.505 7.998-1.673 9.904-9.884 16.009-13.739-5.297-8.158-10.26-15.802-15.59-23.556zM38.88 100.875c-2.723 2.472-5.16 4.731-7.868 7.24-4.504-4.17-9.403-8.321-13.836-12.922-4.168-4.325-4.845-9.707-2.44-13.711 3.4-5.664 9.527-6 16.053-1.007 2.226-1.171 4.46-3.355 6.51-3.195 3.186.25 6.877 1.382 9.203 3.44 3.12 2.76 2.982 7.214.792 10.619-2.207 3.43-5.38 6.24-8.414 9.536zM293.66 417.257c-.94-5.772 1.821-9.645 5.44-13.043 3.86-3.624 7.872-7.085 11.908-10.697 3.825 3.44 7.966 6.95 11.837 10.737 1.866 1.827 3.589 3.994 4.733 6.324 2.175 4.43.874 9.348-2.72 12.126-3.867 2.991-8.61 2.387-13.484-1.718-9.092 5.527-14.105 4.573-17.714-3.73z"/><path fill="#FBFBFB" d="M179.835 428.11c-4.17-1.236-7.956-2.376-12.188-3.65 3.961-20.727.954-39.016-19.23-50.82 12.751-19.992 28.646-35.206 51.049-42.637 5.893-1.955 9.535-.115 11.338 6.067 2.777 9.524 2.079 19.246-.26 28.634-3.812 15.306-2.323 12.638-17.313 11.965-3.064-.138-6.083-1.268-9.302-1.98.094-1.431.457-2.5.145-3.306-.418-1.08-1.185-2.372-2.139-2.774-.618-.26-2.16.675-2.735 1.472-3.88 5.377-2.989 13.118 2.618 16.771 6.326 4.123 13.212 7.388 19.848 11.022-6.377 10.019-6.377 10.019-7.082 23.904l-19.24-8.321c-1.694 4.761 1.744 6.789 4.51 8.404 2.784 1.627 6.164 2.367 9.373 3.1 4.076.929 5.306 2.85 3.095 6.904-4.12-1.586-8.112-3.121-12.487-4.754m8.505-22.74c-5.227 0-3.067 3.978-3.18 6.427-.037.825 1.785 1.735 2.757 2.606.757-1.853 1.733-3.657 2.17-5.583.199-.876-.668-1.995-1.747-3.45zM157.879 84.83c2.948 1.844 5.532 3.564 8.695 5.67 1.514-6.67-2.709-8.463-6.134-10.342-2.26-1.239-5.04-1.61-7.634-2.14-4.04-.826-5.427-2.755-3.231-6.647l24.677 8.426c-3.764 20.063-1.179 38.483 19.134 50.427-6.487 11.41-14.506 21.169-24.848 28.45-7.92 5.576-16.829 9.84-25.584 14.102-4.68 2.278-8.4.63-9.632-4.414-1.436-5.88-2.367-12.15-1.954-18.144.486-7.039 2.604-13.971 4.113-20.929.571-2.635 2.248-3.812 5.083-3.474 5.711.68 11.442 1.194 17.291 1.79 0 2.084-.249 3.268.072 4.269.306.952 1.087 2.231 1.88 2.416.844.196 2.286-.454 2.883-1.2 3.953-4.952 3.129-13.233-2.332-16.813-6.35-4.164-13.27-7.455-20.331-11.338 5.984-6.105 8.242-13.846 6.91-23.003 3.89 1.02 7.235 1.896 10.942 2.895m-6.064 10.458c.138 3.035 1.838 4.817 4.187 2.525 1.257-1.227.71-4.498.558-6.82-.034-.523-1.807-.934-2.78-1.396-.657 1.62-1.313 3.24-1.965 5.69z"/><path fill="#F8CA1B" d="m140.482 368.483-17.234-10.666c9.502-8.796 17.749-17.216 26.8-24.659 25.06-20.61 53.497-34.686 85.114-42.159 3.778-.893 5.387-2.72 4.944-6.624-.862-7.587-1.544-15.194-2.393-23.726 15.426 6.135 30.905 6.61 46.144-2.471 2.138 4.765 3.89 9.27 5.248 13.89.437 1.485-.16 3.274-.284 4.925-7.455 2.344-15.008 4.423-22.336 7.114-6.055 2.224-11.846 5.17-18.472 7.827-9.321 4.652-18.335 8.66-26.42 14.058-9.29 6.205-17.76 13.641-26.586 20.543-1.447.452-2.894.905-5.044 1.39-2.716.698-4.835 1.149-6.729 2.065-17.966 8.688-31.73 22.074-42.752 38.493z"/><path fill="#C83314" d="M53.321 227.198c10.006-3.416 20.012-6.83 30.77-10.287 6.193-2.634 11.632-5.226 17.422-7.87 16.803-8.415 31.654-19.124 45.704-31.006 1.125-.48 2.25-.958 3.999-1.694 2.954-.945 5.434-1.326 7.593-2.369 17.901-8.644 31.582-22.035 42.657-38.305l17.129 10.422c-7.05 6.821-12.994 13.048-19.43 18.716-26.95 23.733-57.79 40.106-92.84 48.314-3.324.778-4.78 2.63-4.42 6.058.848 8.051 1.612 16.111 2.46 24.68-15.435-6.288-30.862-7.348-46.241 1.938-2.249-4.972-4.057-9.697-5.514-14.528-.355-1.178.443-2.704.711-4.07z"/><path fill="#C83213" d="m158.168 297.198-28.643-29.862c18.615.103 34.471-9.958 51.42-16.77 7.358-2.956 14.922-5.49 22.56-7.613 2.977-.828 6.414.002 10.197.44 3.745 3.52 8.06 6.146 9.864 9.959 2.765 5.842 3.802 12.503 5.573 18.817-12.097 3.273-24.218 6.46-36.275 9.877-3.155.894-6.107 2.5-9.869 3.82-8.753 3.805-16.79 7.568-24.827 11.332z"/><path fill="#F8CA1A" d="m183.859 206.783 28.866 29.739c-20.731.269-38.091 11.788-56.858 19.222-8.665 3.433-17.353 6.81-27.416 5.818-3.971-4.446-8.408-8.017-10.738-12.647-2.615-5.199-3.327-11.355-4.867-17.094 6.815-1.605 13.63-3.21 21.188-4.937 2.884-.675 5.028-1.229 7.493-1.794.695-.4 1.068-.787 1.44-1.174 0 0 .033.074.355.198 1.1-.32 1.877-.763 2.654-1.207 0 0 .02.082.342.216 1.096-.325 1.869-.782 2.642-1.24 0 0 .053.095.357.235 1.08-.334 1.856-.807 2.632-1.28 0 0 .045.112.351.21.75-.322 1.194-.741 1.637-1.16 0 0 .064.093.374.253 1.745-.651 3.18-1.461 4.614-2.272 0 0 .078.124.39.276 8.39-3.687 16.466-7.524 24.544-11.362z"/><path fill="#FAFAFA" d="M70.001 263.897v-17.385c6.861-2.547 13.523-2.768 20.336-1.427 3.166.622 4.84 1.804 4.598 5.552-.385 5.964.047 11.976-.154 17.957-.137 4.052 1.372 5.763 5.515 5.626 6.116-.202 12.244-.052 18.876-.052v14.516H45.65v-14.516c5.989 0 11.467.004 16.944-.001 7.082-.007 7.397-.32 7.407-7.29v-2.98m27.818 16.13c-1.249 2.368-.58 3.922 2.104 4.082 3.138.188 6.319.264 9.431-.071 1.084-.117 2.021-1.602 3.025-2.462-1.03-.857-2.024-2.39-3.095-2.447-3.606-.187-7.24.152-11.465.898m-9.142-.653c-3.625-.12-7.26-.435-10.867-.237-1.023.056-1.964 1.607-2.943 2.473.962.847 1.86 2.318 2.897 2.425 3.112.319 6.293.286 9.42.042 2.487-.194 3.549-1.598 1.493-4.703m-30.93-.378c-.661 0-1.456-.235-1.959.048-1.268.714-2.404 1.662-3.593 2.516 1.306.87 2.533 2.294 3.934 2.493 2.756.39 5.63.293 8.41-.012.994-.109 1.857-1.404 2.78-2.157-.903-.955-1.667-2.477-2.738-2.738-1.876-.458-3.94-.142-6.833-.15zM247.168 237.17c-.067-7.127-.255-7.326-6.668-7.337-5.636-.008-11.273-.001-17.547-.001v-14.6h73.005c.213.442.543.863.621 1.326 2.083 12.335 1.305 13.271-10.902 13.275-15.194.005-13.672-1.465-13.678 13.497-.002 4.646 0 9.292 0 14.114-7.179 2.81-14.285 2.826-21.541 1.156-2.552-.587-3.444-1.848-3.35-4.485.198-5.483.06-10.978.06-16.945m11.461-12.172c1.985-.012 4.051.304 5.921-.165 1.024-.256 1.715-1.84 2.557-2.824-.914-.718-1.78-1.974-2.748-2.056a54.501 54.501 0 0 0-9.41 0c-1.006.09-1.906 1.37-2.855 2.107.885.97 1.626 2.177 2.703 2.827.732.441 1.935.101 3.832.11m-19.358-5.169c-2.152.003-4.352-.264-6.436.114-1.162.211-2.13 1.496-3.184 2.297 1.12.92 2.13 2.397 3.382 2.64 2.233.434 4.684.475 6.904.012 1.727-.36 3.243-1.736 4.852-2.66-1.537-.801-3.074-1.602-5.518-2.403m41.304.002c-.662 0-1.447-.23-1.961.046-1.389.744-2.662 1.703-3.982 2.576 1.364.85 2.648 2.213 4.108 2.44 2.584.4 5.308.353 7.905-.006 1.137-.157 2.104-1.543 3.148-2.37-1.11-.895-2.097-2.202-3.361-2.576-1.521-.451-3.277-.109-5.857-.11z"/><path fill="#F2F2F2" d="M161.736 317.704c-15.524 10.488-29.123 22.64-41.513 36.584l-8.615-7.843c32.957-36.96 73.174-60.636 122.496-69.499l.816 8.571c-26.476 6.301-50.666 16.925-73.184 32.187zM202.784 168.791l19.347-18.754 7.988 7.258c-26.97 32.489-71.623 61.714-122.17 69.493l-.906-8.256c35.97-8.648 67.786-25.15 95.741-49.74z"/><path fill="#F7CA1C" d="m212.216 53.745 8.366 4.139c-2.397 4.916-4.896 10.28-7.669 15.496-.461.868-2.073 1.403-3.232 1.58-15.14 2.317-30.06 1.607-44.52-3.832-3.598-1.353-7.003-3.215-10.96-5.384-1.815-2.112-4.048-3.53-4.347-5.28-.764-4.465-.665-9.079-.91-13.634l9.892-1.999c0 3.451.02 6.538-.006 9.624-.028 3.384 1.219 4.72 5.165 2.857 3.465 1.595 4.657.197 4.876-2.473.215-2.625.167-5.273.234-7.91l12.052-1.07c-.607 2.966-1.454 6.4-1.94 9.885-.152 1.097.38 3.033 1.105 3.325.96.385 2.417-.468 4.127-.725 2.647 1.542 4.05 1.053 4.648-1.563.646-2.832 1.316-5.66 1.976-8.489l11.23 3.831c-.873 2.047-2.25 4.697-3.138 7.501-1.066 3.367.362 4.424 4.75 3.322 2.034-.522 4.066-.617 4.743-1.623 1.54-2.288 2.414-5.024 3.558-7.578z"/><path fill="#244CC1" d="M104.047 341.375c-8.077-3.73-14.456-9.456-20.265-16.497 29.304-6.87 41.819-21.395 41.493-47.431 8.529 7.89 16.715 16.086 25.195 24.58-17.678 11.183-32.418 24.837-46.423 39.348zM237.952 162.625c8.042 3.664 14.337 9.44 20.603 16.801-12.703 1.193-23.148 5.63-31.074 14.898-7.85 9.18-11.164 19.895-10.766 32.218-8.532-7.887-16.714-16.081-25.204-24.584 17.743-11.124 32.453-24.809 46.441-39.333z"/><path fill="#F7CA1C" d="m172.889 457.037-11.997.742c.524-2.523 1.338-5.82 1.832-9.164.17-1.152-.09-3.062-.812-3.476-.908-.52-2.492.14-4.353.253-2.945-1.175-4.245-.454-4.74 2.162-.518 2.74-1.252 5.438-1.892 8.155l-11.292-3.684c.852-1.999 2.27-4.746 3.198-7.65 1.074-3.362-.362-4.422-4.748-3.31-2.106.691-4.145.963-4.964 2.108-1.494 2.088-2.265 4.694-3.338 7.083l-8.374-4.142c2.398-4.912 4.922-10.257 7.653-15.494.413-.791 1.757-1.46 2.724-1.54 6.122-.507 12.367-1.728 18.367-1.009 8.807 1.056 17.444 3.54 26.624 5.994 4.607 2.286 8.817 3.84 12.831 5.797 1.186.579 2.447 2.224 2.59 3.501.512 4.599.56 9.248.785 13.878l-9.82 2.07c0-3.633-.018-6.712.005-9.791.025-3.389-1.246-4.683-5.161-2.826-3.425-1.573-4.674-.299-4.884 2.437-.202 2.626-.166 5.27-.234 7.906z"/><path fill="#F5C81A" d="M52.044 294.367h64.695c-2.788 14.162-24.321 30.215-44.442 22.41-9.698-5.43-16.652-12.407-20.253-22.41zM289.955 209.633h-64.311c1.037-15.674 25.11-28.6 42.895-22.318 10.871 4.506 17.474 12.146 21.416 22.318z"/><path fill="#F8CC1F" d="M265.676 413.08c-3.285-7.68-4.92-15.551-4.783-24.05.356-22.04.12-44.09.12-66.819 2.834 0 5.414 0 8.44.528.43 20.69.221 40.854.482 61.012.13 10.066-.178 19.936-4.259 29.329zM76.324 90.92c3.285 7.68 4.92 15.552 4.783 24.05-.356 22.04-.12 44.09-.12 66.819-2.834 0-5.414 0-8.44-.528-.43-20.69-.221-40.854-.482-61.012-.13-10.066.178-19.936 4.259-29.329z"/><path fill="#F2F2F2" d="M254.622 308.708c-3.645-2.312-6.922-4.483-10.198-6.654l-.02-1.648c9.353-4.073 18.45-9.038 28.173-11.817 4.44-1.27 10.16 1.6 15.194 2.982 1.193.327 1.957 2.22 3.58 4.2-5.358-1.02-9.451-2.082-13.605-2.436-1.492-.127-3.129 1.451-4.7 2.25 1.41.959 2.725 2.526 4.247 2.761 4.75.733 9.571.977 13.969 6.669l-13.015 3.172c-2.272-7.637-2.272-7.637-9.612-7.64-1.332 0-2.663-.002-3.995-.004-7.738-.01-7.728-.01-8.711 7.486-.04.31-.614.548-1.307.679zM82.584 203.399c1.835-2.55 3.213-5.053 4.976-8.255l9.924 6.768.117 1.69c-9.47 4.099-18.704 8.986-28.522 11.925-4.147 1.241-9.589-1.392-14.298-2.758-1.405-.407-2.323-2.491-4.02-4.45 5.667.989 9.971 1.98 14.328 2.342 1.21.1 2.577-1.665 3.872-2.575-1.187-.847-2.296-2.265-3.575-2.44-5.026-.69-10.274-.593-14.435-6.929l13.84-2.96c-.776 6.797 2.292 8.258 7.365 7.756 3.294-.326 6.645-.066 10.428-.114z"/><path fill="#264DBF" d="M218.004 137.994c-4.21-2.285-8.661-4.224-12.578-6.933-6.778-4.69-13.225-9.857-20.062-15.387-.358-1.364-.25-2.28-.606-2.948-5.442-10.203-4.5-20.963-2.87-31.791l4.157.475c-4.86 20.744 8.82 31.796 21.592 43.501 3.957 3.627 7.027 8.223 10.433 12.732-.07.357-.066.351-.066.351z"/><path fill="#264CBF" d="m160.009 423.066-4.029-.507c3.382-14.85-2.642-25.828-12.932-35.325-5.968-5.509-11.66-11.321-17.356-17.115-1.15-1.17-1.762-2.87-2.621-4.326l1.095-1.026c9.862 6.779 19.746 13.528 29.554 20.385.999.698 1.542 2.048 2.341 3.808 6.89 11.195 5.668 22.622 3.948 34.106z"/><path fill="#294FC0" d="m193.339 82.077 4.383-.892c.811 11.88 7.648 20.589 14.16 29.595 3.86 5.342 6.757 11.38 10.088 17.106l-1.538.964c-7.278-6.875-14.557-13.75-22.099-21.168-4.167-8.457-6.776-16.617-4.994-25.605zM148.327 422.286l-4.095.42c-.762-11.35-7.013-19.688-13.121-28.208-3.974-5.542-7.237-11.593-10.82-17.416l1.914-1.533c6.941 6.903 13.882 13.805 20.875 21.41 6.13 7.992 6.966 16.39 5.247 25.327z"/><path fill="#E8E9EE" d="M104.27 341.602c13.782-14.738 28.522-28.392 46.2-39.575-8.48-8.494-16.666-16.69-25.156-25.05-.672-1.561-1.04-2.962-1.274-3.855l29.083 29.68 2.16-.556c-.858.457-1.756.853-2.567 1.38-15.998 10.4-30.142 22.96-43.002 37.002-1.542 1.683-2.86 3.475-5.444.974z"/><path fill="#E8EAEE" d="M237.73 162.398c-13.766 14.751-28.476 28.436-46.219 39.56 8.49 8.503 16.672 16.697 25.157 25.052a23.49 23.49 0 0 1 1.135 3.395l-29.227-29.25c4.362-3.206 10.409-7.02 15.707-11.682 9.58-8.43 18.748-17.33 27.997-26.129 1.641-1.56 2.875-3.437 5.45-.946z"/><path fill="#284EBF" d="M205.824 81.048c1.444.579 3.363.752 4.258 1.8 7.998 9.356 11.941 20.459 12.969 32.96-1.12-1.42-2.239-2.84-3.604-4.898-2.297-3.982-4.246-7.395-6.42-10.658-3.904-5.856-7.228-11.891-7.203-19.204zM136.179 422.95c-1.436-.569-3.345-.732-4.233-1.768-7.81-9.111-11.772-19.909-12.769-32.197 1.198 1.361 2.396 2.722 3.385 4.583.355.783.92 1.067 1.484 1.35 0 0-.01.046-.327.286 1.23 2.589 2.711 4.984 4.335 7.279 4.368 6.172 8.123 12.569 8.125 20.466z"/><path fill="#F2EAE8" d="M201.222 135.39c-10.831 16.547-24.512 29.938-42.413 38.582-2.16 1.043-4.64 1.424-7.37 2.156 1.015-.82 2.38-1.784 3.854-2.531 16.97-8.605 30.361-21.138 40.531-37.127 1.52-2.388 2.667-3.774 5.398-1.08z"/><path fill="#F4F1E8" d="M140.765 368.719c10.738-16.655 24.503-30.04 42.47-38.73 1.893-.915 4.012-1.366 6.412-1.943-.36.682-1.029 1.434-1.865 1.842-17.63 8.608-31.43 21.455-41.802 38-1.553 2.477-2.793 2.967-5.215.83z"/><path fill="#FBFBF9" d="M265.741 413.43c4.016-9.743 4.324-19.613 4.194-29.68-.26-20.157-.052-40.322-.044-60.925 3.95-.7 1.991 2.396 2 3.729.15 21.77.462 43.55-.079 65.308-.2 8.021-2.515 15.99-3.865 23.983-.545-.07-1.089-.142-1.633-.213a68.002 68.002 0 0 1-.573-2.201zM76.259 90.57c-4.016 9.743-4.324 19.613-4.194 29.679.26 20.158.052 40.322.044 60.926-3.95.7-1.991-2.396-2-3.729-.15-21.77-.462-43.55.08-65.308.199-8.02 2.514-15.988 3.864-23.98l1.633.21c.17.617.338 1.234.573 2.201z"/><path fill="#F4F1E6" d="M195.392 326.434c8.441-6.8 16.91-14.237 26.202-20.442 8.084-5.399 17.098-9.406 26.078-13.951-.731.982-1.778 1.98-2.96 2.78-13.676 9.26-27.34 18.54-41.096 27.68-2.401 1.596-5.216 2.571-8.224 3.933z"/><path fill="#F0E9E7" d="M146.993 177.781c-13.826 12.136-28.677 22.845-45.725 31.138-.82-.35-1.045-.629-1.27-.908 13.317-9.304 26.593-18.668 39.995-27.847 1.947-1.333 4.502-1.78 7-2.383z"/><path fill="#F8F6F0" d="M112.478 231.825c1.908 5.735 2.62 11.891 5.235 17.09 2.33 4.63 6.767 8.2 10.293 12.582-6.68-.71-11.546-4.51-14.13-10.545-2.483-5.798-4.07-11.98-6.228-18.534 2.269-.3 3.365-.444 4.83-.593z"/><path fill="#F5F0EE" d="M229.512 272.173c-2.144-6.318-3.18-12.979-5.946-18.821-1.805-3.813-6.119-6.438-9.456-9.902 4.581-1.198 7.846 1.423 10.651 4.56 5.419 6.06 7.2 13.638 8.478 21.408.52 3.166-1.696 2.506-3.727 2.755z"/><path fill="#F2C71D" d="M64.633 251.958v17.022c-3.905 0-7.778 0-12.007-.388 3.765-5.804 7.886-11.219 12.007-16.634zM277.369 252.029v-17.01c3.906 0 7.777 0 12.005.39-3.764 5.798-7.885 11.21-12.005 16.62z"/><path fill="#F4C719" d="M104.977 252.251c5.752 3.985 9.536 9.428 12.41 16.72-4.224 0-7.914 0-12.058-.526-.42-5.748-.386-10.97-.352-16.194zM237.023 251.749c-5.76-3.978-9.48-9.47-12.497-16.72 4.31 0 8 0 12.145.526.42 5.748.386 10.971.352 16.194z"/><path fill="#F6F3E9" d="M193.398 457.418c-.64-4.807-.688-9.456-1.2-14.055-.143-1.277-1.404-2.922-2.59-3.5-4.014-1.958-8.224-3.512-12.566-5.526a380.292 380.292 0 0 1 19.423 6.746c.488.184.645 1.703.657 2.605.064 4.59.03 9.18.03 14.249a48.889 48.889 0 0 1-3.754-.519z"/><path fill="#EDEDED" d="M139.406 115.218c5.992-2.388 14.806 1.198 19.122 7.179l-22.08-2.423c.97-1.672 1.799-3.1 2.958-4.756zM191.562 382.828c4.697.305 8.954.561 13.218.818-.547 5.036-4.027 7.885-8.353 6.17-4.786-1.899-9.177-4.794-13.74-7.256l.615-1.35c2.607.523 5.213 1.046 8.26 1.618z"/><path fill="#F1EFEA" d="M290.37 209.734c-4.357-10.273-10.96-17.913-21.475-22.324 2.873.581 6.222.957 8.977 2.437 7.985 4.288 13.652 10.734 16.792 19.777-1.631.089-2.755.15-4.294.11zM51.63 294.265c4.015 10.105 10.97 17.083 20.315 22.337-10.076-.864-21.988-11.875-24.122-22.26 1.15-.06 2.27-.119 3.806-.077z"/><path fill="#CB3B1D" d="M76.098 198.113c-5.118-.475-5.936-1.877-5.099-7.96.468-3.404 1.664-3.747 9.669-2.647v10.229c-1.303.12-2.707.249-4.57.378zM261.522 316.405c-.306-3.464-.306-6.59-.306-10.072 1.364-.157 2.616-.403 3.872-.427 5.284-.102 8.739 5.388 5.349 9.388-1.438 1.697-5.656 1.038-8.915 1.111z"/><path fill="#F5F0EE" d="M52.97 227.12c.083 1.443-.715 2.969-.36 4.147 1.457 4.83 3.265 9.556 5.169 14.63-.856 1.27-1.938 2.229-3.572 3.677l-7.525-21.471c2.19-.391 4.063-.726 6.288-.983z"/><path fill="#F6F5EF" d="M289.229 277.067c-.284-1.725.313-3.514-.124-5-1.359-4.62-3.11-9.124-4.905-14.004.903-1.275 2.002-2.219 3.594-3.586l7.493 21.313c-2.003.479-3.826.915-6.058 1.277z"/><path fill="#F8F5EC" d="M148.59 46.684c.6 4.701.5 9.315 1.264 13.78.299 1.75 2.532 3.168 4.038 5.075-2.917-.51-5.987-1.358-8.72-2.113l-.8-17.427c1.176.164 2.52.352 4.218.685z"/><path fill="#D5DAE5" d="M160.276 423.278c1.453-11.696 2.675-23.123-4.168-33.968 1.295.704 3.064 1.512 3.804 2.877 5.203 9.588 4.47 19.833 2.808 30.097-.082.506-1.422.808-2.444.994zM181.617 80.746c-1.359 11.017-2.301 21.777 3.141 31.98.356.668.248 1.584.317 2.777-6.766-7.196-7.348-16.4-6.862-25.849.126-2.466.436-4.95.978-7.353.16-.707 1.407-1.17 2.426-1.555z"/><path fill="#FEFCF3" d="M104.714 252.005c.229 5.47.195 10.692.15 16.371-1.493.456-2.975.456-4.66.456v-19.91c1.645 1.099 2.946 1.967 4.51 3.083zM237.286 251.995c-.229-5.469-.195-10.692-.15-16.371 1.493-.456 2.976-.456 4.66-.456v19.91c-1.645-1.099-2.946-1.967-4.51-3.083z"/><path fill="#F6F5EF" d="M64.716 251.614c-4.204 5.759-8.325 11.174-12.547 16.912-1.523.323-2.947.323-4.874.323 3.121-8.377 8.265-14.494 15.487-18.886.297-.18 1.328.844 1.934 1.651zM277.284 252.373c4.205-5.755 8.326-11.166 12.547-16.9 1.524-.322 2.947-.322 4.821-.322-3.032 8.412-8.246 14.475-15.443 18.89-.29.178-1.323-.855-1.925-1.668z"/><path fill="#E2E4EC" d="M205.439 81.017c.36 7.344 3.684 13.38 7.588 19.235 2.174 3.263 4.123 6.676 6.234 10.395-6.79-7.536-13.59-15.5-15.69-26.181-.2-1.023.956-2.314 1.868-3.449z"/><path fill="#DBDEE5" d="M148.672 422.387c1.374-9.038.538-17.436-5.544-25.078.983.1 2.317.285 2.9 1.046 5.145 6.715 6.657 14.314 4.932 22.539-.134.64-1.271 1.068-2.288 1.493z"/><path fill="#E3E5ED" d="M136.563 422.98c-.386-7.928-4.14-14.325-8.509-20.497-1.624-2.295-3.105-4.69-4.312-7.283 6.919 6.904 12.801 14.485 14.63 24.351.19 1.03-.919 2.3-1.809 3.429z"/><path fill="#DEE0E7" d="M192.912 82.027c-1.355 9.038 1.254 17.198 5.129 25.488-6.516-6.177-8.65-14.09-7.202-23.047.145-.895 1.078-1.663 2.073-2.44z"/><path fill="#F3F0E6" d="M168.88 46.674c.158 2.892.206 5.54-.01 8.165-.218 2.67-1.41 4.068-4.552 2.23-.327-4.141-.327-8.083-.327-12.715 1.892.837 3.278 1.451 4.89 2.32zM173.111 457.297c-.154-2.896-.19-5.54.012-8.166.21-2.736 1.459-4.01 4.56-2.192.328 4.15.328 8.097.328 12.717-1.89-.848-3.284-1.474-4.9-2.36z"/><path fill="#E8DCDA" d="M158.302 297.486c7.903-4.052 15.94-7.815 24.365-11.474-7.306 4.337-14.992 8.584-22.726 12.741-.253.136-.992-.632-1.639-1.267z"/><path fill="#ECE8D9" d="M183.73 206.494a371.353 371.353 0 0 1-24.455 11.591c7.344-4.431 15.032-8.666 22.768-12.81.275-.148 1.028.6 1.687 1.22z"/><path fill="#F8F7F1" d="M151.14 455.978c.427-2.986 1.16-5.685 1.68-8.424.494-2.616 1.794-3.337 4.541-1.868-.561 4.782-1.492 9.234-2.54 14.242a318.061 318.061 0 0 1-3.68-3.95zM190.86 48.023c-.447 3.099-1.117 5.926-1.763 8.758-.598 2.616-2.001 3.105-4.461 1.292.591-4.644 1.464-8.954 2.72-15.156a435.82 435.82 0 0 0 3.504 5.106z"/><path fill="#F6F5EF" d="M212.082 53.455c-1.01 2.844-1.885 5.58-3.424 7.868-.677 1.006-2.709 1.1-4.42 1.421 1.376-4.248 3.048-8.308 4.897-12.797 1.16 1.326 1.986 2.272 2.947 3.508zM129.918 450.546c.938-2.68 1.709-5.285 3.203-7.373.82-1.145 2.858-1.417 4.642-1.905-1.38 4.241-3.054 8.305-4.906 12.799-1.154-1.33-1.979-2.28-2.939-3.52z"/><path fill="#EBDDDA" d="M99.65 208.064c.573.226.798.506 1.268.907-5.195 2.714-10.634 5.306-16.436 7.914 1.334-1.23 2.926-2.665 4.751-3.682 3.283-1.827 6.705-3.404 10.417-5.139z"/><path fill="#EEE8D0" d="M141.205 225.102c-2.143.553-4.287 1.107-6.808 1.593 1.22-.667 2.815-1.267 5.18-1.797 1.055.114 1.342.16 1.628.204z"/><path fill="#ECE8D9" d="M158.594 217.665c-1.103 1.015-2.538 1.825-4.315 2.432 1.1-1.014 2.542-1.825 4.315-2.432zM151.653 220.562c-.48.75-1.256 1.222-2.375 1.517.465-.716 1.271-1.255 2.375-1.517zM148.632 221.692c-.445.649-1.218 1.106-2.343 1.4.437-.64 1.226-1.115 2.343-1.4zM145.63 222.79c-.431.56-1.208 1.005-2.34 1.3.429-.572 1.212-.995 2.34-1.3zM141.527 225.09c-.608-.033-.895-.078-1.614-.178.483-.43 1.399-.803 2.684-1.086-.002.477-.375.864-1.07 1.264zM153.603 219.713c-.11.594-.553 1.013-1.348 1.295.104-.581.56-1.025 1.348-1.295z"/><path fill="#E3E5ED" d="M124.048 394.61c-.566.025-1.13-.259-1.382-.734.67.014 1.027.22 1.382.734z"/><path fill="#264DBF" d="M217.996 138.003c.13.133.262.262.395.392-.095-.04-.19-.078-.335-.259-.052-.142-.056-.136-.06-.133z"/><path fill="#2B2B2B" d="M188.687 405.594c.732 1.232 1.599 2.35 1.4 3.227-.437 1.926-1.413 3.73-2.17 5.583-.972-.87-2.794-1.781-2.757-2.606.113-2.449-2.047-6.427 3.527-6.204zM151.813 94.874c.654-2.036 1.31-3.656 1.967-5.276.973.462 2.746.873 2.78 1.397.152 2.321.699 5.592-.558 6.819-2.349 2.292-4.049.51-4.19-2.94z"/><path fill="#262626" d="M98.12 279.723c3.925-.442 7.558-.78 11.164-.594 1.071.056 2.066 1.59 3.095 2.447-1.004.86-1.94 2.345-3.025 2.462-3.112.335-6.293.26-9.43.071-2.685-.16-3.354-1.714-1.804-4.386z"/><path fill="#232323" d="M88.968 279.696c1.765 2.783.703 4.187-1.784 4.381-3.127.244-6.308.277-9.42-.042-1.038-.107-1.935-1.578-2.897-2.425.979-.866 1.92-2.417 2.943-2.473 3.607-.198 7.242.116 11.158.559z"/><path fill="#262626" d="M58.201 278.996c2.44.008 4.504-.308 6.38.15 1.071.261 1.835 1.783 2.737 2.738-.922.753-1.785 2.048-2.778 2.157-2.78.305-5.655.402-8.41.012-1.402-.199-2.629-1.623-3.935-2.493 1.19-.854 2.325-1.802 3.593-2.516.503-.283 1.298-.048 2.413-.048z"/><path fill="#232323" d="M258.176 224.998c-1.444-.01-2.647.33-3.379-.111-1.077-.65-1.818-1.858-2.703-2.827.949-.736 1.849-2.017 2.855-2.106a54.501 54.501 0 0 1 9.41-.001c.967.082 1.834 1.338 2.748 2.056-.842.985-1.533 2.568-2.557 2.824-1.87.47-3.936.153-6.374.165z"/><path fill="#262626" d="M239.725 219.828c1.99.801 3.527 1.602 5.064 2.402-1.61.925-3.125 2.301-4.852 2.661-2.22.463-4.671.422-6.904-.012-1.251-.243-2.263-1.72-3.382-2.64 1.055-.801 2.022-2.086 3.184-2.297 2.084-.378 4.284-.111 6.89-.114zM281.038 219.83c2.117.001 3.873-.341 5.394.11 1.264.374 2.251 1.681 3.361 2.575-1.044.828-2.01 2.214-3.148 2.371-2.597.359-5.321.405-7.905.005-1.46-.226-2.744-1.588-4.108-2.439 1.32-.873 2.593-1.832 3.982-2.576.514-.275 1.3-.045 2.424-.046z"/></svg>