<svg version="1.1" id="Layer_1" xmlns="http://www.w3.org/2000/svg" xmlns:xlink="http://www.w3.org/1999/xlink" x="0px" y="0px"
	 width="100%" viewBox="0 0 340 500" enable-background="new 0 0 340 500" xml:space="preserve">
<path fill="#FEFEFE" opacity="1.000000" stroke="none" 
	d="
M341.000000,132.000000 
	C341.000000,255.333328 341.000000,378.166656 341.000000,501.000000 
	C227.666702,501.000000 114.333389,501.000000 1.000042,501.000000 
	C1.000000,417.666718 1.000000,334.333405 1.000000,251.000107 
	C1.000000,167.666779 1.000000,84.333466 1.000000,1.000108 
	C114.333275,1.000072 227.666550,1.000072 340.999908,1.000036 
	C341.000000,44.500000 341.000000,88.000000 341.000000,132.000000 
M285.843231,354.468475 
	C279.318573,352.168152 272.793915,349.867859 265.267944,347.214539 
	C265.122894,345.250061 264.865479,341.763824 264.608002,338.276733 
	C265.376587,338.230988 265.615326,338.151276 265.678528,338.224030 
	C266.005280,338.600128 266.329865,338.990570 266.578003,339.420563 
	C269.275726,344.095734 273.109863,346.471985 278.614990,345.198364 
	C282.769043,344.237335 285.233368,341.466248 286.009216,337.353912 
	C287.062195,331.772827 284.230743,328.187622 279.631317,325.563446 
	C275.367035,323.130493 271.159027,320.598938 266.221680,317.696594 
	C267.986908,316.289398 269.498138,315.546722 270.316071,314.335754 
	C271.978760,311.874146 274.229584,309.259430 274.513123,306.528748 
	C275.143372,300.458405 274.625214,294.276123 274.742828,288.142670 
	C274.819275,284.155640 273.115448,281.415466 269.503235,279.966858 
	C267.644836,279.221649 265.622498,278.885254 263.585205,278.340302 
	C270.247772,269.497864 272.251495,259.667694 270.616577,246.889587 
	C268.307648,228.843536 262.047668,212.111221 254.302490,195.818695 
	C253.480392,194.089371 252.772324,192.085556 252.787506,190.215378 
	C252.867035,180.418839 250.214844,171.553665 244.574020,163.532959 
	C237.991333,154.173065 230.142212,146.064026 220.638870,139.699310 
	C217.723160,137.746567 216.529449,135.497955 216.026291,132.089005 
	C214.186142,119.621796 211.978195,107.208847 209.902328,94.776543 
	C209.795135,94.134552 209.410812,93.462105 209.520844,92.871956 
	C211.608505,81.674660 217.107086,72.498802 226.244125,65.687866 
	C228.884552,63.719624 229.656982,61.853989 227.739426,59.038639 
	C227.290115,59.003510 226.790100,58.880657 226.312424,58.939438 
	C216.806763,60.109127 215.748032,59.531303 212.278748,50.656635 
	C210.757614,46.765545 208.313782,47.157341 205.153839,48.530548 
	C197.810684,51.721657 195.386856,50.836208 191.292023,43.952339 
	C187.267746,37.187042 187.267746,37.187042 179.894394,40.915024 
	C172.855423,44.473946 170.814606,43.982880 166.104874,37.596973 
	C162.902618,33.255062 161.620224,33.109577 157.478348,36.618340 
	C152.810974,40.572266 149.446411,40.542587 144.505249,36.960625 
	C143.322281,36.103065 141.107727,35.452126 140.033569,36.003525 
	C138.962738,36.553223 138.355942,38.691532 138.190689,40.203815 
	C137.420273,47.254543 136.878510,54.330154 136.241440,61.395645 
	C136.122803,62.711258 135.730499,64.036705 135.824936,65.331306 
	C136.353928,72.582039 136.531952,79.901558 137.722198,87.048988 
	C138.968094,94.530441 136.909348,100.763901 132.833786,106.760033 
	C128.985672,112.421532 129.200974,113.030159 135.351135,116.552925 
	C135.246002,117.150520 135.330826,117.932457 134.988876,118.406662 
	C132.799789,121.442474 129.868454,124.487999 136.031906,126.434937 
	C136.219788,126.494293 136.322769,126.953079 136.390259,127.243118 
	C137.259506,130.978943 137.782043,134.840988 139.100479,138.409470 
	C139.876968,140.511124 141.591385,142.656036 143.475464,143.841019 
	C145.118958,144.874695 147.591080,144.590851 150.608475,145.018204 
	C131.730667,159.025787 109.128517,168.290512 102.083282,193.349182 
	C98.210793,189.165024 94.748505,185.424088 91.294395,181.673340 
	C99.598564,172.934448 100.960777,168.165817 96.151573,163.053513 
	C94.675385,161.484299 92.162926,159.838791 90.240067,159.966110 
	C86.566658,160.209320 82.975876,161.700470 79.350632,162.673691 
	C78.973122,158.875626 78.519615,154.312973 78.071609,149.805649 
	C79.872841,149.015808 82.387405,148.733810 82.996185,147.506500 
	C85.886070,141.680435 89.617798,135.756409 90.345879,129.550079 
	C90.853523,125.222855 88.196068,118.906387 84.790794,116.125267 
	C79.939331,112.163010 73.270554,109.268555 67.063911,108.518822 
	C62.730606,107.995384 56.314396,110.595108 53.615009,114.005417 
	C49.657143,119.005623 46.956982,125.812561 46.103764,132.169464 
	C45.549129,136.301773 48.798191,141.259247 51.207973,145.335770 
	C52.332935,147.238815 55.465439,148.018036 57.772423,149.131790 
	C58.858765,149.656235 60.587429,149.373688 61.264256,150.134033 
	C64.525414,153.797607 68.432114,153.619095 72.959877,152.356979 
	C73.361160,156.374680 73.744553,160.213303 74.127953,164.051910 
	C72.750206,163.508667 72.207878,162.744110 71.704491,161.954697 
	C69.068794,157.821487 65.567207,155.436707 60.443062,156.492828 
	C55.838505,157.441833 53.072227,160.398895 52.376541,164.929398 
	C51.639839,169.727036 53.900520,173.262817 57.992943,175.685165 
	C62.421589,178.306503 66.859718,180.911804 71.448402,183.615250 
	C71.093597,184.574493 70.963989,186.099045 70.394501,186.286377 
	C63.168037,188.663574 64.071922,194.654877 64.008705,200.225433 
	C63.976822,203.034897 63.908798,205.848358 64.013458,208.654175 
	C64.450676,220.376205 65.303284,221.540405 74.913498,223.526733 
	C68.348877,231.398972 67.104111,240.571152 67.687637,250.293030 
	C68.887123,270.277466 76.118683,288.430145 84.302567,306.334137 
	C85.231239,308.365784 85.941422,310.729767 85.909813,312.927551 
	C85.775520,322.266541 88.621925,330.558807 93.882744,338.155640 
	C100.596909,347.851135 108.953697,355.857849 118.439751,362.821655 
	C120.159157,364.083862 121.643234,366.488861 122.042442,368.592712 
	C124.483780,381.458496 126.589798,394.388092 128.770615,407.302643 
	C128.898270,408.058624 128.766281,408.878357 128.650009,409.652618 
	C126.952721,420.953613 120.751640,429.425507 112.151886,436.559540 
	C110.687943,437.773956 110.310341,440.297882 109.099510,442.939880 
	C111.344604,442.939880 112.008484,443.024780 112.644279,442.927063 
	C121.474068,441.569580 122.835136,442.438965 126.139351,451.084320 
	C127.347694,454.245911 129.475830,455.044617 132.788162,453.605682 
	C141.012619,450.032715 142.995575,450.754913 147.366211,458.177856 
	C151.217819,464.719269 151.217804,464.719269 158.005814,461.224213 
	C165.545990,457.341888 167.918869,457.724945 172.605270,464.544800 
	C175.341202,468.526276 177.686035,468.351013 181.012741,465.328522 
	C185.639572,461.124695 189.321152,460.925568 193.833694,464.985565 
	C196.535583,467.416534 198.374863,466.707031 199.776917,464.723785 
	C200.344879,456.163513 201.522766,447.705414 202.694916,439.246552 
	C202.808578,438.426361 203.027328,437.589447 202.959381,436.780273 
	C202.312927,429.082184 202.170868,421.285492 200.770721,413.723236 
	C199.453522,406.609131 201.942444,401.040894 205.530457,395.499390 
	C209.426254,389.482605 209.183823,388.438202 202.682632,385.248108 
	C204.771179,381.662079 208.827942,377.639893 202.176910,374.549011 
	C202.108124,374.517059 202.181931,374.228729 202.145050,374.070312 
	C201.311996,370.492065 200.983322,366.677368 199.464264,363.417603 
	C198.358459,361.044708 195.892334,359.088074 193.619293,357.561340 
	C192.328705,356.694519 190.205841,357.066833 187.904236,356.822296 
	C206.706238,342.926270 229.349808,333.699951 236.533798,308.394897 
	C238.676422,310.841949 240.258621,312.750732 241.952042,314.555145 
	C243.724411,316.443634 245.603683,318.231812 247.410416,320.038025 
	C239.297363,328.516022 237.650726,333.983337 242.395416,338.639771 
	C244.394577,340.601746 247.892456,341.913727 250.710342,341.915924 
	C253.487549,341.918091 256.266357,339.890259 259.046906,338.752075 
	C259.286194,340.786865 259.584686,343.095245 259.822174,345.409943 
	C260.053864,347.668213 260.223206,349.932922 260.414948,352.137604 
	C258.762970,352.770569 257.296265,353.137024 256.029449,353.855865 
	C252.699936,355.745178 246.892410,369.799133 248.146896,373.440735 
	C249.550888,377.516388 251.265732,381.505951 253.136566,385.392822 
	C254.536407,388.301086 269.104034,394.643463 272.101318,393.591003 
	C276.499481,392.046692 280.855133,390.290405 285.023773,388.212860 
	C288.158997,386.650330 294.037750,372.264832 292.801453,369.038727 
	C290.966431,364.250275 288.570862,359.676636 285.843231,354.468475 
M70.500000,491.037750 
	C133.258240,491.037750 196.016495,491.037750 259.059021,491.037750 
	C258.828552,488.908447 258.677124,487.509460 258.497070,485.845947 
	C176.854889,485.845947 95.583122,485.845947 13.870964,485.845947 
	C13.870964,367.469971 13.870964,249.403290 13.870964,131.261688 
	C11.865732,131.261688 10.304985,131.261688 8.564632,131.261688 
	C8.504542,132.362091 8.420935,133.178619 8.420892,133.995148 
	C8.414691,250.982483 8.428596,367.969818 8.360628,484.957123 
	C8.358023,489.441895 9.926684,491.152954 14.506632,491.109589 
	C32.836338,490.936066 51.168652,491.037811 70.500000,491.037750 
M306.499695,10.962090 
	C230.579849,10.962090 154.660019,10.962090 78.410072,10.962090 
	C78.527420,12.981754 78.608887,14.383903 78.715897,16.225698 
	C160.447586,16.225698 241.841492,16.225698 323.512848,16.225698 
	C323.512848,134.635361 323.512848,252.583527 323.512848,370.782898 
	C325.355377,370.782898 326.918671,370.782898 328.887878,370.782898 
	C328.887878,368.948212 328.887848,367.313751 328.887848,365.679260 
	C328.887695,249.868835 328.887543,134.058395 328.887299,18.247972 
	C328.887299,17.414804 328.878937,16.581568 328.886932,15.748483 
	C328.918549,12.452483 327.312805,10.909303 323.995880,10.946125 
	C318.497650,11.007164 312.998230,10.962324 306.499695,10.962090 
M67.387520,405.095581 
	C66.120781,403.452667 64.854050,401.809753 64.151321,400.898346 
	C58.940384,405.761902 53.746292,410.375397 48.825306,415.263824 
	C43.072037,420.978973 36.567394,426.276337 32.149319,432.924866 
	C23.567526,445.839172 30.456802,461.344452 45.012722,463.477631 
	C52.842617,464.625061 58.843189,461.098206 63.581974,454.819061 
	C64.277161,455.568512 64.839485,456.158997 65.384636,456.764923 
	C71.830246,463.928619 80.764221,465.711487 88.841125,461.442719 
	C96.729027,457.273773 100.438377,448.515350 98.064613,439.327972 
	C95.820374,430.641968 89.584183,424.823181 83.214127,419.147797 
	C78.122238,414.611115 72.979591,410.131378 67.387520,405.095581 
M238.927124,53.546921 
	C237.028259,65.037476 243.339157,72.863762 250.958481,79.951599 
	C258.639771,87.097061 266.551941,93.994347 273.684448,100.391800 
	C279.797363,94.893700 286.797455,89.274529 292.958679,82.850792 
	C298.282990,77.299599 303.772003,71.395950 307.170563,64.634018 
	C311.675507,55.670700 307.632263,45.722416 299.435242,40.927147 
	C291.451660,36.256729 281.831482,38.053349 275.185242,45.530067 
	C274.679077,46.099476 274.603943,47.051994 274.290863,47.932056 
	C267.042999,39.578587 261.114471,37.156914 253.209381,38.909740 
	C245.684280,40.578308 241.121078,45.443130 238.927124,53.546921 
M48.859829,31.458397 
	C48.722633,29.638710 48.706329,27.800352 48.428616,26.002369 
	C46.630409,14.360235 40.539658,8.541610 29.919794,8.235489 
	C19.460396,7.933993 11.187763,14.059236 9.526809,24.836952 
	C8.593722,30.891621 9.184697,37.396080 10.276090,43.485130 
	C11.291960,49.152824 15.348777,53.753757 21.155439,54.630268 
	C27.744625,55.624901 32.239635,59.089935 36.719311,63.436565 
	C40.886723,67.480209 46.760174,68.276878 50.923458,65.688499 
	C52.102654,64.955376 52.591923,63.112541 52.819824,62.735222 
	C46.493000,59.957092 41.186638,57.627048 35.052513,54.933537 
	C45.520370,49.999657 48.358345,41.846619 48.859829,31.458397 
M304.740601,439.843079 
	C303.275360,438.483795 301.864716,437.059296 300.334534,435.777527 
	C295.914703,432.075287 290.159607,431.310486 286.003235,434.039703 
	C285.110748,434.625763 284.751495,436.023926 284.146637,437.048004 
	C285.056824,437.552338 285.920380,438.182861 286.885132,438.539612 
	C291.538666,440.260223 296.219452,441.907104 302.274872,444.075958 
	C289.740753,451.340118 287.623535,461.443359 288.841675,472.907135 
	C290.048889,484.267761 296.241547,490.656128 306.366547,491.031342 
	C318.111572,491.466553 326.293549,485.352783 327.924652,474.122009 
	C328.652985,469.107269 328.604370,463.798798 327.837494,458.787506 
	C326.479706,449.914734 320.889374,445.270630 312.138672,443.816071 
	C309.719543,443.413971 307.542389,441.556305 304.740601,439.843079 
M298.281036,401.796021 
	C297.005280,403.093872 295.609985,404.295593 294.474854,405.706573 
	C290.035248,411.225037 289.848663,417.054871 293.881775,420.978943 
	C297.759583,424.751892 303.046539,424.336578 308.687439,419.733490 
	C309.296051,420.245758 309.907867,420.795410 310.555023,421.299652 
	C314.261322,424.187439 318.232147,424.431000 322.138428,421.958557 
	C326.009827,419.508179 327.104004,415.508514 325.825256,411.460510 
	C324.919403,408.592896 322.986572,405.813995 320.868164,403.616302 
	C316.966095,399.568268 312.590179,395.977020 308.678955,392.437256 
	C305.447662,395.351196 302.131897,398.341278 298.281036,401.796021 
M44.437069,91.614670 
	C47.274296,85.472748 46.611069,80.885269 42.434723,77.764610 
	C38.360115,74.719978 33.856476,75.386620 28.580463,79.815346 
	C23.352840,75.225647 17.976469,74.698936 14.014874,78.388382 
	C10.118538,82.017044 9.843027,87.793114 13.745887,92.834450 
	C15.755872,95.430771 18.361853,97.575203 20.761040,99.858139 
	C23.391754,102.361382 26.094482,104.788940 29.015141,107.479126 
	C33.823906,102.616142 38.937244,97.445160 44.437069,91.614670 
z"/>
<path fill="#272625" opacity="1.000000" stroke="none" 
	d="
M286.128540,354.740021 
	C288.570862,359.676636 290.966431,364.250275 292.801453,369.038727 
	C294.037750,372.264832 288.158997,386.650330 285.023773,388.212860 
	C280.855133,390.290405 276.499481,392.046692 272.101318,393.591003 
	C269.104034,394.643463 254.536407,388.301086 253.136566,385.392822 
	C251.265732,381.505951 249.550888,377.516388 248.146896,373.440735 
	C246.892410,369.799133 252.699936,355.745178 256.029449,353.855865 
	C257.296265,353.137024 258.762970,352.770569 260.414948,352.137604 
	C260.223206,349.932922 260.053864,347.668213 259.822174,345.409943 
	C259.584686,343.095245 259.286194,340.786865 259.046906,338.752075 
	C256.266357,339.890259 253.487549,341.918091 250.710342,341.915924 
	C247.892456,341.913727 244.394577,340.601746 242.395416,338.639771 
	C237.650726,333.983337 239.297363,328.516022 247.410416,320.038025 
	C245.603683,318.231812 243.724411,316.443634 241.952042,314.555145 
	C240.258621,312.750732 238.676422,310.841949 236.533798,308.394897 
	C229.349808,333.699951 206.706238,342.926270 187.904236,356.822296 
	C190.205841,357.066833 192.328705,356.694519 193.619293,357.561340 
	C195.892334,359.088074 198.358459,361.044708 199.464264,363.417603 
	C200.983322,366.677368 201.311996,370.492065 202.145050,374.070312 
	C202.181931,374.228729 202.108124,374.517059 202.176910,374.549011 
	C208.827942,377.639893 204.771179,381.662079 202.682632,385.248108 
	C209.183823,388.438202 209.426254,389.482605 205.530457,395.499390 
	C201.942444,401.040894 199.453522,406.609131 200.770721,413.723236 
	C202.170868,421.285492 202.312927,429.082184 202.959381,436.780273 
	C203.027328,437.589447 202.808578,438.426361 202.694916,439.246552 
	C201.522766,447.705414 200.344879,456.163513 199.776917,464.723785 
	C198.374863,466.707031 196.535583,467.416534 193.833694,464.985565 
	C189.321152,460.925568 185.639572,461.124695 181.012741,465.328522 
	C177.686035,468.351013 175.341202,468.526276 172.605270,464.544800 
	C167.918869,457.724945 165.545990,457.341888 158.005814,461.224213 
	C151.217804,464.719269 151.217819,464.719269 147.366211,458.177856 
	C142.995575,450.754913 141.012619,450.032715 132.788162,453.605682 
	C129.475830,455.044617 127.347694,454.245911 126.139351,451.084320 
	C122.835136,442.438965 121.474068,441.569580 112.644279,442.927063 
	C112.008484,443.024780 111.344604,442.939880 109.099510,442.939880 
	C110.310341,440.297882 110.687943,437.773956 112.151886,436.559540 
	C120.751640,429.425507 126.952721,420.953613 128.650009,409.652618 
	C128.766281,408.878357 128.898270,408.058624 128.770615,407.302643 
	C126.589798,394.388092 124.483780,381.458496 122.042442,368.592712 
	C121.643234,366.488861 120.159157,364.083862 118.439751,362.821655 
	C108.953697,355.857849 100.596909,347.851135 93.882744,338.155640 
	C88.621925,330.558807 85.775520,322.266541 85.909813,312.927551 
	C85.941422,310.729767 85.231239,308.365784 84.302567,306.334137 
	C76.118683,288.430145 68.887123,270.277466 67.687637,250.293030 
	C67.104111,240.571152 68.348877,231.398972 74.913498,223.526733 
	C65.303284,221.540405 64.450676,220.376205 64.013458,208.654175 
	C63.908798,205.848358 63.976822,203.034897 64.008705,200.225433 
	C64.071922,194.654877 63.168037,188.663574 70.394501,186.286377 
	C70.963989,186.099045 71.093597,184.574493 71.448402,183.615250 
	C66.859718,180.911804 62.421589,178.306503 57.992943,175.685165 
	C53.900520,173.262817 51.639839,169.727036 52.376541,164.929398 
	C53.072227,160.398895 55.838505,157.441833 60.443062,156.492828 
	C65.567207,155.436707 69.068794,157.821487 71.704491,161.954697 
	C72.207878,162.744110 72.750206,163.508667 74.127953,164.051910 
	C73.744553,160.213303 73.361160,156.374680 72.959877,152.356979 
	C68.432114,153.619095 64.525414,153.797607 61.264256,150.134033 
	C60.587429,149.373688 58.858765,149.656235 57.772423,149.131790 
	C55.465439,148.018036 52.332935,147.238815 51.207973,145.335770 
	C48.798191,141.259247 45.549129,136.301773 46.103764,132.169464 
	C46.956982,125.812561 49.657143,119.005623 53.615009,114.005417 
	C56.314396,110.595108 62.730606,107.995384 67.063911,108.518822 
	C73.270554,109.268555 79.939331,112.163010 84.790794,116.125267 
	C88.196068,118.906387 90.853523,125.222855 90.345879,129.550079 
	C89.617798,135.756409 85.886070,141.680435 82.996185,147.506500 
	C82.387405,148.733810 79.872841,149.015808 78.071609,149.805649 
	C78.519615,154.312973 78.973122,158.875626 79.350632,162.673691 
	C82.975876,161.700470 86.566658,160.209320 90.240067,159.966110 
	C92.162926,159.838791 94.675385,161.484299 96.151573,163.053513 
	C100.960777,168.165817 99.598564,172.934448 91.290298,181.678238 
	C94.748505,185.424088 98.210793,189.165024 102.083282,193.349182 
	C109.128517,168.290512 131.730667,159.025787 150.608475,145.018204 
	C147.591080,144.590851 145.118958,144.874695 143.475464,143.841019 
	C141.591385,142.656036 139.876968,140.511124 139.100479,138.409470 
	C137.782043,134.840988 137.259506,130.978943 136.390259,127.243118 
	C136.322769,126.953079 136.219788,126.494293 136.031906,126.434937 
	C129.868454,124.487999 132.799789,121.442474 134.988876,118.406662 
	C135.330826,117.932457 135.246002,117.150520 135.351135,116.552925 
	C129.200974,113.030159 128.985672,112.421532 132.833786,106.760033 
	C136.909348,100.763901 138.968094,94.530441 137.722198,87.048988 
	C136.531952,79.901558 136.353928,72.582039 135.824936,65.331306 
	C135.730499,64.036705 136.122803,62.711258 136.241440,61.395645 
	C136.878510,54.330154 137.420273,47.254543 138.190689,40.203815 
	C138.355942,38.691532 138.962738,36.553223 140.033569,36.003525 
	C141.107727,35.452126 143.322281,36.103065 144.505249,36.960625 
	C149.446411,40.542587 152.810974,40.572266 157.478348,36.618340 
	C161.620224,33.109577 162.902618,33.255062 166.104874,37.596973 
	C170.814606,43.982880 172.855423,44.473946 179.894394,40.915024 
	C187.267746,37.187042 187.267746,37.187042 191.292023,43.952339 
	C195.386856,50.836208 197.810684,51.721657 205.153839,48.530548 
	C208.313782,47.157341 210.757614,46.765545 212.278748,50.656635 
	C215.748032,59.531303 216.806763,60.109127 226.312424,58.939438 
	C226.790100,58.880657 227.290115,59.003510 227.739426,59.038639 
	C229.656982,61.853989 228.884552,63.719624 226.244125,65.687866 
	C217.107086,72.498802 211.608505,81.674660 209.520844,92.871956 
	C209.410812,93.462105 209.795135,94.134552 209.902328,94.776543 
	C211.978195,107.208847 214.186142,119.621796 216.026291,132.089005 
	C216.529449,135.497955 217.723160,137.746567 220.638870,139.699310 
	C230.142212,146.064026 237.991333,154.173065 244.574020,163.532959 
	C250.214844,171.553665 252.867035,180.418839 252.787506,190.215378 
	C252.772324,192.085556 253.480392,194.089371 254.302490,195.818695 
	C262.047668,212.111221 268.307648,228.843536 270.616577,246.889587 
	C272.251495,259.667694 270.247772,269.497864 263.585205,278.340302 
	C265.622498,278.885254 267.644836,279.221649 269.503235,279.966858 
	C273.115448,281.415466 274.819275,284.155640 274.742828,288.142670 
	C274.625214,294.276123 275.143372,300.458405 274.513123,306.528748 
	C274.229584,309.259430 271.978760,311.874146 270.316071,314.335754 
	C269.498138,315.546722 267.986908,316.289398 266.221680,317.696594 
	C271.159027,320.598938 275.367035,323.130493 279.631317,325.563446 
	C284.230743,328.187622 287.062195,331.772827 286.009216,337.353912 
	C285.233368,341.466248 282.769043,344.237335 278.614990,345.198364 
	C273.109863,346.471985 269.275726,344.095734 266.578003,339.420563 
	C266.329865,338.990570 266.005280,338.600128 265.678528,338.224030 
	C265.615326,338.151276 265.376587,338.230988 264.608002,338.276733 
	C264.865479,341.763824 265.122894,345.250061 265.267944,347.214539 
	C272.793915,349.867859 279.318573,352.168152 286.128540,354.740021 
M183.018600,78.948143 
	C183.018600,78.948143 183.092194,78.968941 183.165939,78.243568 
	C182.592789,77.832527 182.019623,77.421486 180.908218,77.206055 
	C180.634567,77.051903 180.360916,76.897751 180.147614,76.919319 
	C180.147614,76.919319 179.958984,76.801163 179.958984,76.801163 
	C179.958984,76.801163 180.208328,76.816277 180.260529,77.542763 
	C186.350143,87.972610 190.025665,99.145515 191.501709,111.180359 
	C194.017410,131.692184 193.692291,151.615204 182.192520,169.897247 
	C180.734421,172.215302 179.937607,175.082794 179.386566,177.807419 
	C178.501923,182.181686 180.854919,186.579208 184.901077,187.557693 
	C189.586502,186.842255 194.271927,186.126816 197.560120,185.624725 
	C197.280609,178.714310 196.131744,172.592911 196.959641,166.751663 
	C199.859619,146.290543 199.292923,125.951530 195.924789,105.677315 
	C194.500854,97.105988 192.923508,88.356995 185.995529,82.010544 
	C185.995529,82.010544 186.024902,82.008469 186.089798,81.322662 
	C185.406128,80.858536 184.722473,80.394402 184.002945,79.990685 
	C184.002945,79.990685 184.069824,79.969139 184.170364,79.322540 
	C183.800842,79.176704 183.431320,79.030869 183.018600,78.948143 
M155.173889,423.458191 
	C155.733368,423.357178 156.292862,423.256165 157.030853,422.417023 
	C156.979019,422.092499 156.997696,421.735535 156.865311,421.448090 
	C143.128235,391.617798 140.224167,361.795746 156.370819,331.727020 
	C158.146500,328.420319 158.792770,324.158966 158.738129,320.358002 
	C158.708832,318.321106 156.067917,316.321777 153.830429,314.202789 
	C149.152634,314.936401 144.474854,315.669983 140.996002,316.215576 
	C141.278671,323.607300 142.543961,330.286743 141.580963,336.627777 
	C139.030777,353.419769 139.259689,370.160034 141.352356,386.851654 
	C142.418076,395.352081 144.691589,403.780762 147.271469,411.973480 
	C148.344666,415.381561 151.641144,418.089569 153.981964,421.061401 
	C153.981964,421.061401 153.911499,421.029175 153.548157,421.639038 
	C154.057983,422.085785 154.567810,422.532532 155.008453,422.988678 
	C155.008453,422.988678 155.022980,422.920410 155.173889,423.458191 
M164.329514,167.895630 
	C164.195053,168.245026 164.060577,168.594421 164.000000,168.999390 
	C164.000000,168.999390 163.929108,168.939819 163.245300,169.048172 
	C161.676941,171.318390 159.505768,173.390686 158.680344,175.904816 
	C157.417801,179.750488 155.857346,184.181396 161.743073,187.224167 
	C166.352921,187.758713 170.962784,188.293259 176.856735,188.976700 
	C171.698822,179.202316 175.057129,171.848068 178.981400,164.512009 
	C192.373413,139.476761 189.252914,113.961990 179.947693,88.839149 
	C174.681091,74.620033 162.001144,67.905388 146.925674,69.146187 
	C145.252457,69.283897 143.693756,70.813019 142.081955,71.696846 
	C143.633942,72.466591 145.129684,73.742943 146.747208,73.922562 
	C156.125488,74.964005 164.526047,77.934464 170.947937,85.897957 
	C171.597885,86.313133 172.247833,86.728310 172.949509,87.059135 
	C172.949509,87.059135 172.852646,87.079330 172.418930,87.757172 
	C183.563293,110.274071 185.701965,132.936478 173.570648,155.856445 
	C173.360626,156.253235 173.667450,156.923584 173.146179,157.822281 
	C171.080643,160.506027 169.015091,163.189789 166.305786,166.026138 
	C165.846634,166.662155 165.387466,167.298157 164.992783,168.002106 
	C164.992783,168.002106 164.943298,167.923126 164.329514,167.895630 
M86.976707,165.969955 
	C86.976707,165.969955 86.959213,165.893219 86.140182,165.737793 
	C81.421043,169.926117 84.798851,175.090225 83.849007,179.732788 
	C84.247536,179.957153 84.646065,180.181534 85.044594,180.405899 
	C85.423561,179.730881 85.802521,179.055878 86.818756,178.107834 
	C88.478363,176.508087 90.318062,175.054596 91.760574,173.278534 
	C94.890099,169.425354 93.403717,166.140518 87.521149,165.036484 
	C87.314148,165.341583 87.107140,165.646683 86.976707,165.969955 
M178.530777,315.374237 
	C178.012146,315.007507 177.493515,314.640808 176.222031,313.886444 
	C171.862335,313.685211 167.502625,313.483948 162.002411,313.230072 
	C166.834885,323.071198 163.257050,330.712799 159.065872,338.283173 
	C153.472214,348.386719 150.684677,359.197113 150.998413,370.785339 
	C151.409546,385.970734 152.334839,401.086304 159.351135,414.979187 
	C165.719101,427.588257 177.874756,434.209015 191.748184,432.744873 
	C193.220856,432.589447 194.550293,431.076782 195.946182,430.193756 
	C194.539490,429.409424 193.163467,428.011322 191.721207,427.939301 
	C181.601990,427.433868 172.999664,423.976929 166.391479,415.259827 
	C165.469482,413.377472 164.395599,411.553345 163.648712,409.603882 
	C155.053970,387.170898 152.995148,365.012543 166.549881,343.533508 
	C166.977539,342.855804 166.976349,341.907471 167.083847,341.073181 
	C167.083847,341.073181 167.114136,341.160095 167.793457,341.581909 
	C168.182266,340.680603 168.571075,339.779297 169.430984,338.415405 
	C171.092667,336.568726 172.754349,334.722076 174.982925,332.800873 
	C175.344116,332.230225 175.705307,331.659576 175.995514,331.045135 
	C175.995514,331.045135 176.072632,331.069580 176.787231,331.005646 
	C178.204941,327.979736 180.222488,325.063751 180.805237,321.884796 
	C181.131348,320.105957 179.078323,317.891052 178.054367,315.966003 
	C178.054367,315.966003 178.147552,315.922607 178.530777,315.374237 
M251.897934,336.077911 
	C255.423950,333.450470 256.151276,328.556488 253.505234,320.767609 
	C252.840378,322.112457 252.473297,322.854980 251.498581,323.974945 
	C249.667191,325.845093 247.420639,327.477020 246.159775,329.674500 
	C245.401138,330.996704 245.589508,333.596405 246.454254,334.879181 
	C247.122696,335.870697 249.502991,335.708252 251.897934,336.077911 
M226.171005,151.392395 
	C225.721863,150.922577 225.272705,150.452759 224.343674,149.524078 
	C222.793991,148.254517 221.244293,146.984955 219.694611,145.715393 
	C219.887634,149.687973 220.985733,152.934326 221.991959,156.208908 
	C227.423157,173.884109 225.549469,178.789398 209.266525,188.262283 
	C208.825256,188.477768 208.403931,188.759598 207.939819,188.899094 
	C193.886948,193.122681 179.359238,193.388474 164.226501,193.898880 
	C162.985031,193.953674 161.357162,193.517044 160.563339,194.141190 
	C154.328766,199.043121 148.253830,204.148117 141.746109,209.506393 
	C147.979507,213.740250 153.861984,218.534470 162.578125,219.147293 
	C175.575882,224.635468 189.048874,223.680542 202.463531,221.672150 
	C215.418381,219.732620 227.631454,215.586288 237.927719,207.047318 
	C243.857925,202.129257 247.058426,195.976944 247.156967,188.043839 
	C247.314545,175.355728 240.572617,166.079010 232.647781,157.353928 
	C230.747818,155.262100 228.177139,153.779434 225.961197,151.989853 
	C225.961197,151.989853 225.958771,152.040268 226.171005,151.392395 
M139.002213,414.662018 
	C139.336151,414.957581 139.670074,415.253113 140.315491,416.046082 
	C141.389160,417.203308 142.462814,418.360535 143.981415,419.850189 
	C144.245056,419.798096 144.508698,419.746002 144.772324,419.693909 
	C144.598755,419.378906 144.425186,419.063904 144.118698,418.030334 
	C142.124847,412.431885 139.339630,406.979034 138.278091,401.209045 
	C134.298035,379.575317 133.102859,357.811462 136.346741,335.885590 
	C137.026001,331.294281 136.137695,326.412781 135.497574,321.729858 
	C135.356277,320.696289 133.201279,319.937927 131.259689,319.082214 
	C119.945107,324.031464 116.599449,328.668518 120.293266,338.806458 
	C126.519608,355.895020 127.855721,373.676300 130.233109,391.391663 
	C131.318451,399.479126 132.957733,407.694733 139.010895,413.974304 
	C139.010895,413.974304 138.974289,413.971588 139.002213,414.662018 
M81.470505,201.419647 
	C80.426308,201.798187 79.382103,202.176712 78.809402,202.384338 
	C80.061775,203.898712 81.174545,205.244293 82.287323,206.589890 
	C80.454803,207.736053 78.622292,208.882233 76.725906,210.068344 
	C77.118668,210.260635 77.827110,210.559830 78.488014,210.941345 
	C79.696243,211.638870 80.876343,212.385117 82.068184,213.111023 
	C80.729752,214.053680 79.494148,215.538284 78.029579,215.816177 
	C75.635201,216.270477 73.091736,215.938980 70.611160,215.938980 
	C70.615456,216.367523 70.619751,216.796066 70.624054,217.224609 
	C80.741379,217.224609 90.858711,217.224609 100.824638,217.224609 
	C100.824638,213.065399 100.962097,208.918228 100.762978,204.787277 
	C100.672028,202.900513 100.400650,200.703751 99.367760,199.244537 
	C96.880455,195.730606 94.022499,192.450470 91.078682,189.295654 
	C87.600937,185.568604 82.224907,184.978104 76.654861,187.662048 
	C78.128212,188.324280 79.297363,189.309784 80.452599,189.293747 
	C87.511330,189.195679 88.327652,194.701889 89.616058,199.541885 
	C89.916206,200.669403 88.594566,202.228653 88.019135,203.589249 
	C86.922844,202.844147 85.713097,202.216476 84.773766,201.308929 
	C84.229469,200.783096 84.120270,199.806915 83.793907,198.281830 
	C82.856346,196.198944 73.680145,191.193069 71.680016,191.901001 
	C70.740440,192.233566 69.491577,193.269821 69.429573,194.068451 
	C69.365273,194.896713 70.443474,196.429642 71.238174,196.591248 
	C73.474182,197.045914 75.837120,197.180862 78.120804,197.022003 
	C81.199097,196.807877 82.511429,197.943726 81.470505,201.419647 
M125.036057,431.160522 
	C123.448227,432.985596 121.860397,434.810638 120.846870,435.975616 
	C123.901291,438.903107 127.296150,441.196381 129.289337,444.369995 
	C130.895187,446.926880 132.655167,447.613159 134.851532,446.912750 
	C142.410645,444.502167 147.412567,447.627472 151.006546,453.929199 
	C152.382431,456.341705 153.803711,456.080322 156.268539,455.559998 
	C160.642944,454.636627 166.751190,452.706787 169.402954,454.747253 
	C175.059174,459.099670 179.989578,459.314636 185.990540,457.077606 
	C187.169739,456.638031 188.625732,456.941010 190.696426,457.263123 
	C191.989334,457.603333 193.282227,457.943512 194.698730,458.316254 
	C194.698730,454.806915 194.698730,451.932098 194.698730,448.824188 
	C192.998627,449.067566 191.561859,449.273224 189.173904,449.463440 
	C177.463257,449.544678 165.786560,449.300781 154.428299,445.186249 
	C145.753006,439.973663 137.099945,434.722839 128.348312,429.641724 
	C127.811874,429.330261 126.496223,430.360840 125.036057,431.160522 
M148.018723,44.692120 
	C146.718842,44.274292 145.418961,43.856461 144.065048,43.421261 
	C144.065048,46.818241 144.065048,49.737862 144.065048,53.031666 
	C145.613083,52.714241 146.857712,52.459026 148.865265,52.444660 
	C161.964050,51.145370 174.410172,54.212414 187.106689,58.744839 
	C194.305756,62.882607 201.520737,66.993111 208.691269,71.179756 
	C210.236954,72.082222 211.655350,74.539268 213.582153,70.702980 
	C215.116974,68.861755 216.651810,67.020531 217.494934,66.009087 
	C214.328918,62.698338 211.716736,59.642700 208.731857,57.009541 
	C207.584686,55.997543 205.486847,55.325787 203.996857,55.569031 
	C197.947830,56.556545 192.825958,55.486969 189.102234,50.246315 
	C187.866516,48.507236 186.687225,46.728081 185.559601,45.080406 
	C184.968369,45.109352 184.579742,45.014027 184.326096,45.157429 
	C176.894257,49.359291 169.830002,50.381001 163.353271,43.246441 
	C162.665985,42.489357 160.768097,42.431526 159.534851,42.644852 
	C155.861465,43.280273 152.239456,44.212543 148.018723,44.692120 
M207.569351,182.644119 
	C218.991364,177.681580 221.899094,172.796783 217.810654,161.267563 
	C212.365204,145.911682 210.695114,130.040253 208.858826,114.071968 
	C207.686050,103.873810 205.812515,93.689613 197.986954,85.418159 
	C197.040375,84.505241 196.093781,83.592323 194.336502,81.897545 
	C196.513733,88.469749 198.845261,93.640656 199.913147,99.060532 
	C204.117096,120.397102 205.560745,141.869324 202.411789,163.553162 
	C201.685165,168.556671 202.024307,173.791260 202.533310,178.853134 
	C202.693756,180.448639 203.050278,184.030777 207.569351,182.644119 
M80.804543,264.367279 
	C99.784203,259.547150 118.763863,254.727020 137.217316,250.040527 
	C137.591232,250.226181 137.321930,250.040604 137.023819,249.951889 
	C122.569458,245.650009 109.875465,239.025818 103.065376,224.492920 
	C102.744911,223.809052 101.600235,223.066742 100.867447,223.094406 
	C96.757851,223.249512 92.656860,223.632843 87.714722,223.700668 
	C80.075020,224.513168 75.937469,229.339584 74.111938,236.246658 
	C71.476166,246.219284 73.006157,256.072021 75.428421,266.140106 
	C77.235504,265.516968 78.623459,265.038361 80.804543,264.367279 
M258.115906,237.225311 
	C238.965118,242.158798 219.814316,247.092285 201.037247,251.929489 
	C200.646744,251.595169 200.756210,251.761398 200.901291,251.802826 
	C215.520721,255.975647 228.466629,262.399170 235.291672,277.164185 
	C235.594574,277.819458 236.480072,278.726654 237.011047,278.674225 
	C241.993683,278.182495 246.958145,277.506866 252.727249,277.059998 
	C258.329803,277.326843 261.124084,273.523315 263.029572,269.248962 
	C267.961548,258.185791 265.610687,247.069672 263.173431,235.645233 
	C261.308868,236.314697 260.077332,236.756866 258.115906,237.225311 
M158.158295,148.911362 
	C158.055710,148.122375 157.953125,147.333374 157.864273,146.650024 
	C149.051941,152.598083 140.045074,158.012985 131.823837,164.433792 
	C125.077477,169.702728 118.424736,175.520096 113.235764,182.254257 
	C105.424828,192.391129 104.691177,204.484344 106.827934,216.832275 
	C107.685226,216.778503 108.032333,216.818039 108.340141,216.726044 
	C109.296471,216.440262 110.237877,216.104538 111.905724,215.763626 
	C128.566696,210.936523 143.513351,203.126724 155.931946,190.881546 
	C150.244492,182.043015 150.943024,175.473114 158.099396,166.549332 
	C159.267288,165.093018 160.822495,163.150528 160.666992,161.584869 
	C160.263046,157.517395 159.006302,153.534607 158.158295,148.911362 
M226.374451,286.292816 
	C209.862137,290.948395 195.135422,298.712494 182.655396,310.927795 
	C188.067825,318.375244 187.890869,325.937195 182.312683,332.218231 
	C177.760574,337.343842 177.591614,342.316650 179.183609,348.145416 
	C179.576004,349.582123 179.859650,351.048584 180.188736,353.152222 
	C180.462799,356.164917 181.780792,354.723633 183.039764,353.849030 
	C189.036575,349.683167 195.105423,345.618469 201.039795,341.365936 
	C206.566986,337.405212 212.300064,333.635315 217.340744,329.110992 
	C230.505692,317.294586 234.898697,302.425293 231.679291,284.760925 
	C229.924698,285.306793 228.521591,285.743286 226.374451,286.292816 
M174.693130,308.057648 
	C175.804993,307.934326 177.230896,308.211548 177.979324,307.624725 
	C184.305542,302.664307 190.508102,297.546204 196.947144,292.313446 
	C190.296219,288.212830 184.377914,282.846527 175.374924,282.750763 
	C170.278366,281.803436 165.206436,280.687714 160.080933,279.938354 
	C139.515152,276.931488 120.456886,281.343323 103.243103,292.743500 
	C94.331306,298.645508 89.981529,307.155151 91.764877,318.390167 
	C94.066910,332.892853 103.235924,342.648499 113.955971,352.060120 
	C115.780098,353.677704 117.604218,355.295288 120.532921,357.892365 
	C118.656433,351.934998 117.249222,347.391083 115.794067,342.862579 
	C111.999748,331.054535 113.584969,322.097687 124.239151,316.341644 
	C124.604691,316.144165 124.754700,315.547760 125.649666,314.851074 
	C131.624084,313.466095 137.535492,311.606628 143.587097,310.802979 
	C153.643646,309.467529 163.790222,308.809967 174.693130,308.057648 
M190.371979,254.999603 
	C187.396759,254.665710 184.428757,254.234833 181.445190,254.013367 
	C159.302856,252.369705 137.612289,255.578461 116.161728,260.579132 
	C102.952423,263.658539 89.900627,267.413483 75.984703,271.073792 
	C80.110901,281.834167 83.886536,291.680328 88.020950,302.462128 
	C93.054932,292.599365 100.449173,286.969879 109.030014,283.003815 
	C114.873291,280.303040 121.013359,277.856934 127.281754,276.531097 
	C153.193909,271.050385 178.239868,271.766144 200.577179,288.598206 
	C201.382523,289.205109 202.997345,289.394440 203.957901,289.035980 
	C212.618515,285.804291 221.217178,282.406555 230.478806,278.806915 
	C228.562424,276.194336 226.773621,273.219574 224.473343,270.714539 
	C215.554535,261.001862 203.659454,257.457336 190.371979,254.999603 
M141.570297,215.983276 
	C139.854523,214.672012 138.138733,213.360748 136.798416,212.336426 
	C127.145752,215.870361 117.785126,219.297394 108.340134,222.755310 
	C111.665794,230.190079 117.287025,235.215256 124.112152,239.022812 
	C134.808899,244.990265 146.525803,247.246780 158.564743,247.962357 
	C178.488846,249.146576 198.137299,246.757355 217.507721,242.323044 
	C232.347794,238.925812 247.037979,234.873810 262.606354,230.906204 
	C258.473938,220.076538 254.725159,210.252228 250.799484,199.964340 
	C233.557938,230.278214 171.431030,236.987411 141.570297,215.983276 
M142.097382,112.228287 
	C147.757828,116.691521 137.500076,117.681610 139.429382,120.256989 
	C142.001297,122.079491 143.790710,122.996376 144.967377,124.419800 
	C145.274612,124.791458 143.674667,126.739685 142.838928,128.152695 
	C143.161316,130.119675 143.816376,132.692291 143.944611,135.290924 
	C144.078659,138.007019 145.152206,139.051926 147.874023,139.188965 
	C163.479080,139.974686 177.028107,125.680305 175.003220,110.441025 
	C172.499969,91.601746 163.533569,81.418373 147.482513,79.537048 
	C146.090881,79.373940 144.511993,80.808250 143.020096,81.500549 
	C144.276413,82.673904 145.345047,84.400261 146.828705,84.903793 
	C149.781342,85.905876 153.065781,85.941803 156.001312,86.977386 
	C157.299362,87.435310 158.081482,89.355690 159.097824,90.612160 
	C157.588730,91.061729 156.024429,92.018555 154.581360,91.861519 
	C150.906601,91.461624 147.286041,90.563988 145.079605,90.140877 
	C142.453674,97.638252 140.143280,104.234726 137.804123,110.913338 
	C138.543533,111.142059 139.961838,111.580772 142.097382,112.228287 
M171.791107,412.660431 
	C176.793427,418.878143 183.454849,421.880615 191.263336,422.293823 
	C192.643951,422.366882 194.097763,421.056702 195.517776,420.385315 
	C194.281372,419.218262 193.232635,417.487518 191.769806,417.000488 
	C188.644257,415.959930 185.196793,415.862549 182.106445,414.752014 
	C180.913376,414.323273 180.331482,412.193787 179.471130,410.839172 
	C180.883148,410.507660 182.352463,409.747314 183.696182,409.926849 
	C187.388794,410.420288 191.028702,411.308136 193.444778,411.791077 
	C196.009552,404.438477 198.346695,397.738434 200.706146,390.974457 
	C200.563004,390.912262 199.970566,390.596252 199.342026,390.390778 
	C193.846359,388.594025 193.860672,388.476654 197.422333,384.114380 
	C198.228531,383.126923 198.358475,381.587372 198.795212,380.315002 
	C195.085342,379.358551 189.640488,379.580170 195.532242,374.347809 
	C195.799271,374.110657 195.847046,373.446594 195.765884,373.025970 
	C195.144043,369.803741 194.464905,366.592560 193.811966,363.418854 
	C184.878845,361.241821 169.076141,368.877686 165.081253,377.389587 
	C164.045044,379.597443 162.856277,382.090057 162.943039,384.406738 
	C163.314285,394.319000 165.303772,403.855316 171.791107,412.660431 
M237.203552,284.508179 
	C237.430496,289.147888 237.607880,293.790863 237.917053,298.425110 
	C238.000961,299.682861 238.126831,301.192657 238.843887,302.109161 
	C241.912506,306.031464 245.033859,309.943695 248.478683,313.530487 
	C251.211044,316.375458 257.805847,316.615204 262.046509,314.279907 
	C260.469269,313.537994 259.132660,312.345245 257.846252,312.397186 
	C250.394516,312.697906 250.269226,306.788757 248.984024,302.040314 
	C248.700714,300.993530 249.857498,299.557007 250.351135,298.299957 
	C251.514923,298.987701 253.667236,299.643860 253.690384,300.368073 
	C253.935928,308.048981 261.256805,306.994598 265.309113,309.850281 
	C265.899597,310.266388 267.739075,308.910187 269.000641,308.374115 
	C268.316406,307.252625 267.828735,305.408356 266.907684,305.157959 
	C264.898560,304.611664 262.664032,304.752502 260.530457,304.836670 
	C256.653107,304.989624 255.720795,303.796936 257.090912,300.330017 
	C257.384003,299.588409 257.680634,298.361450 257.308807,297.920898 
	C254.368607,294.437103 257.423859,293.555725 258.740601,292.875885 
	C257.967346,291.418976 256.418365,289.853821 256.721802,288.847015 
	C258.380066,283.344940 263.645416,287.365997 266.791382,284.075409 
	C257.198242,284.075409 247.605072,284.075409 237.203552,284.508179 
M170.678253,65.687416 
	C184.103409,68.534622 195.777115,74.883461 206.133377,83.949471 
	C208.650436,77.740761 208.687408,77.690804 203.795258,74.069435 
	C187.236847,61.812225 168.768295,56.214050 148.103394,57.765564 
	C143.803040,58.088436 141.198685,59.092243 141.472809,63.175167 
	C151.074997,63.938396 160.474136,64.685486 170.678253,65.687416 
M169.956268,436.716614 
	C155.818741,433.825287 143.324112,427.601105 132.420395,417.852539 
	C131.558899,419.982666 130.822327,421.803955 129.977966,423.891754 
	C148.299759,439.641357 169.409668,446.212616 193.286652,443.632721 
	C194.924072,443.455811 196.268768,440.569702 198.012985,438.654266 
	C187.999542,438.003754 179.399780,437.445038 169.956268,436.716614 
M175.380981,136.168152 
	C175.597656,134.748322 175.814346,133.328506 176.052124,131.770523 
	C171.846878,134.604141 167.894211,137.200165 164.037445,139.931610 
	C163.382339,140.395584 162.670654,141.515396 162.780487,142.205643 
	C163.563049,147.123856 164.552185,152.009216 165.627823,157.712189 
	C171.036926,151.044601 173.994781,144.387253 175.380981,136.168152 
M164.382339,360.015259 
	C163.781601,363.144592 163.180847,366.273926 162.481644,369.916138 
	C166.940857,366.974915 170.685226,364.597870 174.305038,362.044250 
	C175.086136,361.493195 175.992569,360.211365 175.863602,359.426880 
	C175.056656,354.518646 173.972504,349.656006 172.980118,344.778259 
	C172.520493,344.709991 172.060867,344.641724 171.601227,344.573456 
	C169.294769,349.473389 166.988312,354.373352 164.382339,360.015259 
M258.088287,366.746002 
	C252.131927,369.724304 251.896103,370.287811 255.093216,373.897034 
	C259.022522,372.326996 262.951782,370.756927 267.244843,369.041534 
	C265.883881,365.729523 264.891083,362.549530 263.254211,359.745514 
	C262.683624,358.768097 260.186279,357.991394 259.184875,358.454590 
	C258.222931,358.899628 257.779633,361.039520 257.631012,362.488281 
	C257.511078,363.657806 258.169250,364.907135 258.088287,366.746002 
M65.510796,134.285248 
	C62.738747,135.329407 59.781643,136.063263 57.277500,137.556656 
	C56.130955,138.240417 55.875587,140.418518 55.216057,141.918930 
	C56.723465,142.434250 58.585552,143.774857 59.671009,143.308365 
	C62.782799,141.971024 63.994713,142.785614 65.210419,145.785736 
	C66.438889,148.817383 68.753540,148.804886 71.040665,146.335831 
	C69.418991,142.335663 67.825142,138.404160 65.510796,134.285248 
M54.998310,120.835388 
	C56.051495,123.776802 57.868122,126.756508 52.744255,128.076172 
	C51.818409,128.314621 51.609463,131.336594 51.069542,133.073486 
	C51.554321,133.244995 52.039097,133.416489 52.523876,133.587982 
	C56.496090,131.978699 60.468304,130.369431 64.793846,128.617004 
	C63.706818,125.716454 62.889397,122.862228 61.594883,120.243881 
	C59.796818,116.607056 58.094063,116.645470 54.998310,120.835388 
M76.275871,118.063911 
	C72.977646,120.267548 72.214607,117.972481 70.920425,115.509674 
	C70.380402,114.482018 68.051285,114.394501 66.535660,113.879517 
	C66.439102,115.134178 65.949722,116.521408 66.319977,117.618530 
	C67.411049,120.851570 68.842712,123.969673 70.253021,127.405495 
	C73.223602,126.260399 75.991852,125.533669 78.369164,124.140045 
	C79.647820,123.390480 80.255890,121.496971 81.166542,120.119629 
	C79.769218,119.352211 78.371895,118.584785 76.275871,118.063911 
M265.207703,375.561035 
	C263.521515,376.229095 261.552124,376.558044 260.230072,377.662109 
	C258.949249,378.731781 258.333984,380.598358 257.426392,382.114929 
	C259.088837,382.636627 260.986389,383.931641 262.362976,383.513092 
	C264.934113,382.731445 266.237091,382.698883 267.205536,385.587402 
	C268.320496,388.913116 270.535828,389.316193 273.256775,386.808472 
	C271.910370,383.334045 270.763428,379.895508 269.194916,376.661438 
	C268.799866,375.846863 267.055328,375.686798 265.207703,375.561035 
M286.296722,373.780975 
	C286.574249,372.333710 286.952942,370.890656 287.013794,369.434326 
	C287.022400,369.229431 285.320557,368.545502 284.675720,368.788208 
	C281.023712,370.162872 277.452515,371.752197 273.664429,373.348206 
	C274.936523,376.517761 275.745056,379.468536 277.290375,381.962738 
	C277.996307,383.102112 280.154755,383.341522 281.654419,383.989105 
	C282.144684,382.467346 283.482208,380.518707 282.969940,379.502106 
	C281.280396,376.149139 282.770874,374.925079 286.296722,373.780975 
M79.897659,136.608887 
	C80.896286,135.706284 81.781380,134.612900 82.915512,133.938019 
	C85.921799,132.149094 86.316704,130.258118 83.697105,127.844086 
	C79.582993,129.509857 75.675636,131.091904 71.504539,132.780746 
	C72.451302,135.421448 72.904335,137.995163 74.233749,139.982697 
	C75.316925,141.602097 77.839188,143.848236 79.040840,143.494965 
	C82.372948,142.515381 81.282539,139.753494 79.897659,136.608887 
M273.505646,356.084473 
	C271.787323,353.304749 269.849762,353.001434 267.551270,355.523651 
	C269.189514,359.567719 270.797272,363.536438 272.504761,367.751373 
	C275.294647,366.735016 278.160980,366.150635 280.462158,364.681152 
	C281.858002,363.789795 282.379578,361.529388 283.293915,359.883972 
	C281.613495,359.476929 279.904327,359.160034 278.261078,358.636383 
	C276.740570,358.151794 275.290558,357.445953 273.505646,356.084473 
M64.072670,161.976822 
	C59.627674,162.199829 56.825802,165.340988 58.877563,168.124649 
	C62.577984,173.145126 67.973465,175.802994 73.539711,178.000595 
	C73.895760,177.643799 74.251808,177.287003 74.607857,176.930206 
	C71.336357,172.038467 68.064857,167.146729 64.072670,161.976822 
M268.037415,331.448181 
	C269.148956,333.302368 269.984558,335.425354 271.452576,336.932251 
	C272.816681,338.332428 274.801270,339.702332 276.618286,339.858734 
	C277.612701,339.944336 279.782959,337.436005 279.712524,336.194458 
	C279.610718,334.401642 278.363312,332.126404 276.882233,331.067841 
	C273.262726,328.480927 269.228607,326.474121 265.361389,324.233795 
	C265.088165,324.442566 264.814911,324.651367 264.541687,324.860168 
	C265.592651,326.839935 266.643585,328.819702 268.037415,331.448181 
z"/>
<path fill="#313131" opacity="1.000000" stroke="none" 
	d="
M70.000000,491.037750 
	C51.168652,491.037811 32.836338,490.936066 14.506632,491.109589 
	C9.926684,491.152954 8.358023,489.441895 8.360628,484.957123 
	C8.428596,367.969818 8.414691,250.982483 8.420892,133.995148 
	C8.420935,133.178619 8.504542,132.362091 8.564632,131.261688 
	C10.304985,131.261688 11.865732,131.261688 13.870964,131.261688 
	C13.870964,249.403290 13.870964,367.469971 13.870964,485.845947 
	C95.583122,485.845947 176.854889,485.845947 258.497070,485.845947 
	C258.677124,487.509460 258.828552,488.908447 259.059021,491.037750 
	C196.016495,491.037750 133.258240,491.037750 70.000000,491.037750 
z"/>
<path fill="#313131" opacity="1.000000" stroke="none" 
	d="
M306.999512,10.962090 
	C312.998230,10.962324 318.497650,11.007164 323.995880,10.946125 
	C327.312805,10.909303 328.918549,12.452483 328.886932,15.748483 
	C328.878937,16.581568 328.887299,17.414804 328.887299,18.247972 
	C328.887543,134.058395 328.887695,249.868835 328.887848,365.679260 
	C328.887848,367.313751 328.887878,368.948212 328.887878,370.782898 
	C326.918671,370.782898 325.355377,370.782898 323.512848,370.782898 
	C323.512848,252.583527 323.512848,134.635361 323.512848,16.225698 
	C241.841492,16.225698 160.447586,16.225698 78.715897,16.225698 
	C78.608887,14.383903 78.527420,12.981754 78.410072,10.962090 
	C154.660019,10.962090 230.579849,10.962090 306.999512,10.962090 
z"/>
<path fill="#C93314" opacity="1.000000" stroke="none" 
	d="
M67.623489,405.360962 
	C72.979591,410.131378 78.122238,414.611115 83.214127,419.147797 
	C89.584183,424.823181 95.820374,430.641968 98.064613,439.327972 
	C100.438377,448.515350 96.729027,457.273773 88.841125,461.442719 
	C80.764221,465.711487 71.830246,463.928619 65.384636,456.764923 
	C64.839485,456.158997 64.277161,455.568512 63.581974,454.819061 
	C58.843189,461.098206 52.842617,464.625061 45.012722,463.477631 
	C30.456802,461.344452 23.567526,445.839172 32.149319,432.924866 
	C36.567394,426.276337 43.072037,420.978973 48.825306,415.263824 
	C53.746292,410.375397 58.940384,405.761902 64.151321,400.898346 
	C64.854050,401.809753 66.120781,403.452667 67.623489,405.360962 
z"/>
<path fill="#C93314" opacity="1.000000" stroke="none" 
	d="
M238.981003,53.153954 
	C241.121078,45.443130 245.684280,40.578308 253.209381,38.909740 
	C261.114471,37.156914 267.042999,39.578587 274.290863,47.932056 
	C274.603943,47.051994 274.679077,46.099476 275.185242,45.530067 
	C281.831482,38.053349 291.451660,36.256729 299.435242,40.927147 
	C307.632263,45.722416 311.675507,55.670700 307.170563,64.634018 
	C303.772003,71.395950 298.282990,77.299599 292.958679,82.850792 
	C286.797455,89.274529 279.797363,94.893700 273.684448,100.391800 
	C266.551941,93.994347 258.639771,87.097061 250.958481,79.951599 
	C243.339157,72.863762 237.028259,65.037476 238.981003,53.153954 
z"/>
<path fill="#CB391B" opacity="1.000000" stroke="none" 
	d="
M48.859535,31.909273 
	C48.358345,41.846619 45.520370,49.999657 35.052513,54.933537 
	C41.186638,57.627048 46.493000,59.957092 52.819824,62.735222 
	C52.591923,63.112541 52.102654,64.955376 50.923458,65.688499 
	C46.760174,68.276878 40.886723,67.480209 36.719311,63.436565 
	C32.239635,59.089935 27.744625,55.624901 21.155439,54.630268 
	C15.348777,53.753757 11.291960,49.152824 10.276090,43.485130 
	C9.184697,37.396080 8.593722,30.891621 9.526809,24.836952 
	C11.187763,14.059236 19.460396,7.933993 29.919794,8.235489 
	C40.539658,8.541610 46.630409,14.360235 48.428616,26.002369 
	C48.706329,27.800352 48.722633,29.638710 48.859535,31.909273 
M23.153120,14.291354 
	C15.314631,23.155743 17.226519,33.477818 19.152733,43.587624 
	C20.003130,48.050968 22.954355,51.301453 28.155540,51.445877 
	C33.524040,51.594944 36.509182,48.524277 37.976540,43.878178 
	C40.437092,36.087322 40.516724,28.146265 38.149315,20.324402 
	C35.958996,13.087632 31.187767,11.055584 23.153120,14.291354 
z"/>
<path fill="#CA381A" opacity="1.000000" stroke="none" 
	d="
M304.997406,440.104797 
	C307.542389,441.556305 309.719543,443.413971 312.138672,443.816071 
	C320.889374,445.270630 326.479706,449.914734 327.837494,458.787506 
	C328.604370,463.798798 328.652985,469.107269 327.924652,474.122009 
	C326.293549,485.352783 318.111572,491.466553 306.366547,491.031342 
	C296.241547,490.656128 290.048889,484.267761 288.841675,472.907135 
	C287.623535,461.443359 289.740753,451.340118 302.274872,444.075958 
	C296.219452,441.907104 291.538666,440.260223 286.885132,438.539612 
	C285.920380,438.182861 285.056824,437.552338 284.146637,437.048004 
	C284.751495,436.023926 285.110748,434.625763 286.003235,434.039703 
	C290.159607,431.310486 295.914703,432.075287 300.334534,435.777527 
	C301.864716,437.059296 303.275360,438.483795 304.997406,440.104797 
M313.739929,485.516327 
	C315.253723,483.192230 317.365540,481.056610 318.168488,478.508514 
	C320.521027,471.042664 320.322601,463.407837 318.184631,455.873535 
	C316.897034,451.336151 314.278931,448.202576 309.148163,447.996948 
	C303.744293,447.780426 300.699371,450.993225 299.291656,455.581818 
	C296.901825,463.371429 296.890503,471.388824 299.118774,479.212341 
	C301.110840,486.206390 306.002289,488.352173 313.739929,485.516327 
z"/>
<path fill="#CA3516" opacity="1.000000" stroke="none" 
	d="
M298.548584,401.563690 
	C302.131897,398.341278 305.447662,395.351196 308.678955,392.437256 
	C312.590179,395.977020 316.966095,399.568268 320.868164,403.616302 
	C322.986572,405.813995 324.919403,408.592896 325.825256,411.460510 
	C327.104004,415.508514 326.009827,419.508179 322.138428,421.958557 
	C318.232147,424.431000 314.261322,424.187439 310.555023,421.299652 
	C309.907867,420.795410 309.296051,420.245758 308.687439,419.733490 
	C303.046539,424.336578 297.759583,424.751892 293.881775,420.978943 
	C289.848663,417.054871 290.035248,411.225037 294.474854,405.706573 
	C295.609985,404.295593 297.005280,403.093872 298.548584,401.563690 
z"/>
<path fill="#CA3415" opacity="1.000000" stroke="none" 
	d="
M44.243828,91.944420 
	C38.937244,97.445160 33.823906,102.616142 29.015141,107.479126 
	C26.094482,104.788940 23.391754,102.361382 20.761040,99.858139 
	C18.361853,97.575203 15.755872,95.430771 13.745887,92.834450 
	C9.843027,87.793114 10.118538,82.017044 14.014874,78.388382 
	C17.976469,74.698936 23.352840,75.225647 28.580463,79.815346 
	C33.856476,75.386620 38.360115,74.719978 42.434723,77.764610 
	C46.611069,80.885269 47.274296,85.472748 44.243828,91.944420 
z"/>
<path fill="#F8F8F8" opacity="1.000000" stroke="none" 
	d="
M190.803467,255.059479 
	C203.659454,257.457336 215.554535,261.001862 224.473343,270.714539 
	C226.773621,273.219574 228.562424,276.194336 230.478806,278.806915 
	C221.217178,282.406555 212.618515,285.804291 203.957901,289.035980 
	C202.997345,289.394440 201.382523,289.205109 200.577179,288.598206 
	C178.239868,271.766144 153.193909,271.050385 127.281754,276.531097 
	C121.013359,277.856934 114.873291,280.303040 109.030014,283.003815 
	C100.449173,286.969879 93.054932,292.599365 88.020950,302.462128 
	C83.886536,291.680328 80.110901,281.834167 75.984703,271.073792 
	C89.900627,267.413483 102.952423,263.658539 116.161728,260.579132 
	C137.612289,255.578461 159.302856,252.369705 181.445190,254.013367 
	C184.428757,254.234833 187.396759,254.665710 190.803467,255.059479 
z"/>
<path fill="#F8F8F8" opacity="1.000000" stroke="none" 
	d="
M141.881927,216.170837 
	C171.431030,236.987411 233.557938,230.278214 250.799484,199.964340 
	C254.725159,210.252228 258.473938,220.076538 262.606354,230.906204 
	C247.037979,234.873810 232.347794,238.925812 217.507721,242.323044 
	C198.137299,246.757355 178.488846,249.146576 158.564743,247.962357 
	C146.525803,247.246780 134.808899,244.990265 124.112152,239.022812 
	C117.287025,235.215256 111.665794,230.190079 108.340134,222.755310 
	C117.785126,219.297394 127.145752,215.870361 136.798416,212.336426 
	C138.138733,213.360748 139.854523,214.672012 141.881927,216.170837 
z"/>
<path fill="#244CC1" opacity="1.000000" stroke="none" 
	d="
M164.878876,194.047699 
	C179.359238,193.388474 193.886948,193.122681 207.939819,188.899094 
	C208.403931,188.759598 208.825256,188.477768 209.861404,188.261230 
	C224.723389,185.806961 231.792450,175.753372 228.557144,162.492828 
	C227.703537,158.994125 226.797104,155.508331 225.914932,152.016602 
	C228.177139,153.779434 230.747818,155.262100 232.647781,157.353928 
	C240.572617,166.079010 247.314545,175.355728 247.156967,188.043839 
	C247.058426,195.976944 243.857925,202.129257 237.927719,207.047318 
	C227.631454,215.586288 215.418381,219.732620 202.463531,221.672150 
	C189.048874,223.680542 175.575882,224.635468 162.127106,218.690063 
	C156.545288,215.389252 151.414490,212.545700 146.211960,209.662384 
	C152.994522,203.988831 158.936691,199.018265 164.878876,194.047699 
z"/>
<path fill="#C83213" opacity="1.000000" stroke="none" 
	d="
M113.672783,351.677216 
	C103.235924,342.648499 94.066910,332.892853 91.764877,318.390167 
	C89.981529,307.155151 94.331306,298.645508 103.243103,292.743500 
	C120.456886,281.343323 139.515152,276.931488 160.080933,279.938354 
	C165.206436,280.687714 170.278366,281.803436 175.824432,283.241608 
	C181.630829,286.457367 186.987717,289.182281 192.410904,291.940948 
	C185.631378,297.773376 179.765137,302.820129 173.898880,307.866882 
	C163.790222,308.809967 153.643646,309.467529 143.587097,310.802979 
	C137.535492,311.606628 131.624084,313.466095 124.951172,314.903198 
	C112.701218,317.997833 107.342865,326.354919 109.822952,337.901428 
	C110.822350,342.554321 112.373009,347.088837 113.672783,351.677216 
z"/>
<path fill="#244CC1" opacity="1.000000" stroke="none" 
	d="
M180.193268,352.501343 
	C179.859650,351.048584 179.576004,349.582123 179.183609,348.145416 
	C177.591614,342.316650 177.760574,337.343842 182.312683,332.218231 
	C187.890869,325.937195 188.067825,318.375244 182.655396,310.927795 
	C195.135422,298.712494 209.862137,290.948395 226.800354,286.636505 
	C229.415649,302.765991 226.104263,317.148132 213.760437,327.687164 
	C203.204315,336.699860 191.429214,344.284851 180.193268,352.501343 
z"/>
<path fill="#C83213" opacity="1.000000" stroke="none" 
	d="
M158.089890,149.518036 
	C159.006302,153.534607 160.263046,157.517395 160.666992,161.584869 
	C160.822495,163.150528 159.267288,165.093018 158.099396,166.549332 
	C150.943024,175.473114 150.244492,182.043015 155.931946,190.881546 
	C143.513351,203.126724 128.566696,210.936523 111.540894,215.326569 
	C108.660782,194.820770 115.989693,179.058167 132.243637,167.367737 
	C140.742157,161.255310 149.467178,155.457794 158.089890,149.518036 
z"/>
<path fill="#FAFAFA" opacity="1.000000" stroke="none" 
	d="
M141.738754,112.123886 
	C139.961838,111.580772 138.543533,111.142059 137.804123,110.913338 
	C140.143280,104.234726 142.453674,97.638252 145.079605,90.140877 
	C147.286041,90.563988 150.906601,91.461624 154.581360,91.861519 
	C156.024429,92.018555 157.588730,91.061729 159.097824,90.612160 
	C158.081482,89.355690 157.299362,87.435310 156.001312,86.977386 
	C153.065781,85.941803 149.781342,85.905876 146.828705,84.903793 
	C145.345047,84.400261 144.276413,82.673904 143.020096,81.500549 
	C144.511993,80.808250 146.090881,79.373940 147.482513,79.537048 
	C163.533569,81.418373 172.499969,91.601746 175.003220,110.441025 
	C177.028107,125.680305 163.479080,139.974686 147.874023,139.188965 
	C145.152206,139.051926 144.078659,138.007019 143.944611,135.290924 
	C143.816376,132.692291 143.161316,130.119675 142.838928,128.152695 
	C143.674667,126.739685 145.274612,124.791458 144.967377,124.419800 
	C143.790710,122.996376 142.001297,122.079491 139.429382,120.256989 
	C137.500076,117.681610 147.757828,116.691521 141.738754,112.123886 
M154.017715,98.397713 
	C153.109695,96.780716 152.201675,95.163719 151.293640,93.546730 
	C150.467407,94.530769 148.894623,95.574509 148.967575,96.486633 
	C149.128250,98.495773 150.119400,100.438507 150.771652,102.408333 
	C151.852982,101.339951 152.934311,100.271568 154.017715,98.397713 
z"/>
<path fill="#FAFAFA" opacity="1.000000" stroke="none" 
	d="
M171.564056,412.382080 
	C165.303772,403.855316 163.314285,394.319000 162.943039,384.406738 
	C162.856277,382.090057 164.045044,379.597443 165.081253,377.389587 
	C169.076141,368.877686 184.878845,361.241821 193.811966,363.418854 
	C194.464905,366.592560 195.144043,369.803741 195.765884,373.025970 
	C195.847046,373.446594 195.799271,374.110657 195.532242,374.347809 
	C189.640488,379.580170 195.085342,379.358551 198.795212,380.315002 
	C198.358475,381.587372 198.228531,383.126923 197.422333,384.114380 
	C193.860672,388.476654 193.846359,388.594025 199.342026,390.390778 
	C199.970566,390.596252 200.563004,390.912262 200.706146,390.974457 
	C198.346695,397.738434 196.009552,404.438477 193.444778,411.791077 
	C191.028702,411.308136 187.388794,410.420288 183.696182,409.926849 
	C182.352463,409.747314 180.883148,410.507660 179.471130,410.839172 
	C180.331482,412.193787 180.913376,414.323273 182.106445,414.752014 
	C185.196793,415.862549 188.644257,415.959930 191.769806,417.000488 
	C193.232635,417.487518 194.281372,419.218262 195.517776,420.385315 
	C194.097763,421.056702 192.643951,422.366882 191.263336,422.293823 
	C183.454849,421.880615 176.793427,418.878143 171.564056,412.382080 
M186.695526,408.286285 
	C191.629105,407.872253 189.663422,404.099121 189.668747,401.583771 
	C189.670410,400.802032 187.723724,400.016174 186.669006,399.232178 
	C185.951874,401.353119 185.074509,403.439941 184.611816,405.615021 
	C184.466415,406.298492 185.434952,407.218933 186.695526,408.286285 
z"/>
<path fill="#F7C91A" opacity="1.000000" stroke="none" 
	d="
M251.927872,276.884430 
	C246.958145,277.506866 241.993683,278.182495 237.011047,278.674225 
	C236.480072,278.726654 235.594574,277.819458 235.291672,277.164185 
	C228.466629,262.399170 215.520721,255.975647 200.901291,251.802826 
	C200.756210,251.761398 200.646744,251.595169 201.037247,251.929489 
	C219.814316,247.092285 238.965118,242.158798 258.523865,237.623199 
	C259.503784,241.762161 260.346497,245.485291 260.595673,249.247742 
	C261.276978,259.535370 261.625580,269.813477 251.927872,276.884430 
z"/>
<path fill="#F7C91A" opacity="1.000000" stroke="none" 
	d="
M88.552933,223.938278 
	C92.656860,223.632843 96.757851,223.249512 100.867447,223.094406 
	C101.600235,223.066742 102.744911,223.809052 103.065376,224.492920 
	C109.875465,239.025818 122.569458,245.650009 137.023819,249.951889 
	C137.321930,250.040604 137.591232,250.226181 137.217316,250.040527 
	C118.763863,254.727020 99.784203,259.547150 80.257416,264.050995 
	C79.108894,256.707703 78.111519,249.686371 78.010368,242.652161 
	C77.894463,234.591187 80.955681,227.873734 88.552933,223.938278 
z"/>
<path fill="#F4C81E" opacity="1.000000" stroke="none" 
	d="
M170.995850,85.167465 
	C164.526047,77.934464 156.125488,74.964005 146.747208,73.922562 
	C145.129684,73.742943 143.633942,72.466591 142.081955,71.696846 
	C143.693756,70.813019 145.252457,69.283897 146.925674,69.146187 
	C162.001144,67.905388 174.681091,74.620033 179.947693,88.839149 
	C189.252914,113.961990 192.373413,139.476761 178.981400,164.512009 
	C175.057129,171.848068 171.698822,179.202316 176.856735,188.976700 
	C170.962784,188.293259 166.352921,187.758713 161.368591,186.635193 
	C159.038147,181.304031 159.694550,176.885635 162.476013,172.633408 
	C163.185165,171.549255 163.456573,170.178757 163.929108,168.939819 
	C163.929108,168.939819 164.000000,168.999390 164.324387,169.107773 
	C164.746948,168.785141 164.845123,168.354141 164.943298,167.923126 
	C164.943298,167.923126 164.992783,168.002106 165.295593,168.137024 
	C166.048798,167.472473 166.499176,166.673004 166.949554,165.873550 
	C169.015091,163.189789 171.080643,160.506027 173.685303,157.468079 
	C175.406372,155.559357 176.830383,154.133026 177.732468,152.430237 
	C185.834198,137.137192 184.674149,121.038010 181.344849,104.911499 
	C179.998825,98.391586 178.482452,91.683243 172.852646,87.079330 
	C172.852646,87.079330 172.949509,87.059135 173.000534,86.783691 
	C172.366318,86.061317 171.681076,85.614395 170.995850,85.167465 
z"/>
<path fill="#F3C71E" opacity="1.000000" stroke="none" 
	d="
M174.416016,332.875397 
	C172.754349,334.722076 171.092667,336.568726 168.872131,338.737091 
	C167.913559,339.759216 167.513855,340.459656 167.114136,341.160095 
	C167.114136,341.160095 167.083847,341.073181 166.773529,341.081482 
	C166.111465,341.443268 165.734924,341.775543 165.411530,342.153320 
	C148.754227,361.614288 154.316910,399.518921 163.505676,413.149536 
	C164.247437,414.249878 165.526047,414.988312 166.555206,415.894897 
	C172.999664,423.976929 181.601990,427.433868 191.721207,427.939301 
	C193.163467,428.011322 194.539490,429.409424 195.946182,430.193756 
	C194.550293,431.076782 193.220856,432.589447 191.748184,432.744873 
	C177.874756,434.209015 165.719101,427.588257 159.351135,414.979187 
	C152.334839,401.086304 151.409546,385.970734 150.998413,370.785339 
	C150.684677,359.197113 153.472214,348.386719 159.065872,338.283173 
	C163.257050,330.712799 166.834885,323.071198 162.002411,313.230072 
	C167.502625,313.483948 171.862335,313.685211 176.617676,314.396545 
	C177.391388,315.245270 177.769470,315.583954 178.147552,315.922607 
	C178.147552,315.922607 178.054367,315.966003 177.989853,316.322083 
	C180.681931,321.909668 176.927078,326.302948 176.072632,331.069580 
	C176.072632,331.069580 175.995514,331.045135 175.813461,330.859039 
	C175.226288,331.407074 174.821152,332.141235 174.416016,332.875397 
z"/>
<path fill="#F5C81D" opacity="1.000000" stroke="none" 
	d="
M198.190002,85.809982 
	C205.812515,93.689613 207.686050,103.873810 208.858826,114.071968 
	C210.695114,130.040253 212.365204,145.911682 217.810654,161.267563 
	C221.899094,172.796783 218.991364,177.681580 206.955719,182.389496 
	C202.966660,176.986664 203.903839,171.349258 204.426147,165.734650 
	C205.223297,157.165741 206.808517,148.558121 206.505844,140.022018 
	C205.855560,121.682556 205.237183,103.217873 198.190002,85.809982 
z"/>
<path fill="#F4C81C" opacity="1.000000" stroke="none" 
	d="
M139.021088,414.008667 
	C132.957733,407.694733 131.318451,399.479126 130.233109,391.391663 
	C127.855721,373.676300 126.519608,355.895020 120.293266,338.806458 
	C116.599449,328.668518 119.945107,324.031464 131.749039,319.411926 
	C132.944397,323.898804 134.675217,328.182251 134.181152,332.191498 
	C131.894394,350.747772 131.040192,369.273956 133.867142,387.799957 
	C135.208984,396.593597 137.280273,405.275909 139.021088,414.008667 
z"/>
<path fill="#F4C71C" opacity="1.000000" stroke="none" 
	d="
M185.993042,81.982819 
	C192.923508,88.356995 194.500854,97.105988 195.924789,105.677315 
	C199.292923,125.951530 199.859619,146.290543 196.959641,166.751663 
	C196.131744,172.592911 197.280609,178.714310 197.560120,185.624725 
	C194.271927,186.126816 189.586502,186.842255 184.378632,187.201019 
	C180.104645,179.167206 182.812485,172.324081 186.583878,165.609528 
	C191.535736,156.793243 194.754959,147.396881 195.003326,137.246689 
	C195.453094,118.866867 194.413452,100.688652 185.926056,83.794518 
	C185.688309,83.321289 185.959274,82.592461 185.993042,81.982819 
z"/>
<path fill="#F3C71D" opacity="1.000000" stroke="none" 
	d="
M153.926651,421.115906 
	C151.641144,418.089569 148.344666,415.381561 147.271469,411.973480 
	C144.691589,403.780762 142.418076,395.352081 141.352356,386.851654 
	C139.259689,370.160034 139.030777,353.419769 141.580963,336.627777 
	C142.543961,330.286743 141.278671,323.607300 140.996002,316.215576 
	C144.474854,315.669983 149.152634,314.936401 154.335510,314.645630 
	C157.430267,322.163940 156.342911,328.770477 152.554703,335.169037 
	C145.014709,347.904541 142.831696,361.662354 143.565826,376.399719 
	C144.344971,392.040131 146.830566,407.050537 153.926651,421.115906 
z"/>
<path fill="#F4C81E" opacity="1.000000" stroke="none" 
	d="
M186.732895,58.104958 
	C174.410172,54.212414 161.964050,51.145370 148.506042,51.985664 
	C148.296997,49.360722 148.447189,47.194778 148.597382,45.028831 
	C152.239456,44.212543 155.861465,43.280273 159.534851,42.644852 
	C160.768097,42.431526 162.665985,42.489357 163.353271,43.246441 
	C169.830002,50.381001 176.894257,49.359291 184.326096,45.157429 
	C184.579742,45.014027 184.968369,45.109352 185.559601,45.080406 
	C186.687225,46.728081 187.866516,48.507236 189.102234,50.246315 
	C192.825958,55.486969 197.947830,56.556545 203.996857,55.569031 
	C205.486847,55.325787 207.584686,55.997543 208.731857,57.009541 
	C211.716736,59.642700 214.328918,62.698338 217.494934,66.009087 
	C216.651810,67.020531 215.116974,68.861755 213.004120,70.694565 
	C205.409012,66.676147 198.434326,62.588192 191.335587,58.728348 
	C190.064240,58.037075 188.280212,58.288692 186.732895,58.104958 
z"/>
<path fill="#F6F6F6" opacity="1.000000" stroke="none" 
	d="
M237.607727,284.291809 
	C247.605072,284.075409 257.198242,284.075409 266.791382,284.075409 
	C263.645416,287.365997 258.380066,283.344940 256.721802,288.847015 
	C256.418365,289.853821 257.967346,291.418976 258.740601,292.875885 
	C257.423859,293.555725 254.368607,294.437103 257.308807,297.920898 
	C257.680634,298.361450 257.384003,299.588409 257.090912,300.330017 
	C255.720795,303.796936 256.653107,304.989624 260.530457,304.836670 
	C262.664032,304.752502 264.898560,304.611664 266.907684,305.157959 
	C267.828735,305.408356 268.316406,307.252625 269.000641,308.374084 
	C267.739075,308.910187 265.899597,310.266388 265.309113,309.850281 
	C261.256805,306.994598 253.935928,308.048981 253.690384,300.368073 
	C253.667236,299.643860 251.514923,298.987701 250.351135,298.299957 
	C249.857498,299.557007 248.700714,300.993530 248.984024,302.040314 
	C250.269226,306.788757 250.394516,312.697906 257.846252,312.397186 
	C259.132660,312.345245 260.469269,313.537994 262.046509,314.279907 
	C257.805847,316.615204 251.211044,316.375458 248.478683,313.530487 
	C245.033859,309.943695 241.912506,306.031464 238.843887,302.109161 
	C238.126831,301.192657 238.000961,299.682861 237.917053,298.425110 
	C237.607880,293.790863 237.430496,289.147888 237.607727,284.291809 
z"/>
<path fill="#F4C81D" opacity="1.000000" stroke="none" 
	d="
M189.954071,456.901550 
	C188.625732,456.941010 187.169739,456.638031 185.990540,457.077606 
	C179.989578,459.314636 175.059174,459.099670 169.402954,454.747253 
	C166.751190,452.706787 160.642944,454.636627 156.268539,455.559998 
	C153.803711,456.080322 152.382431,456.341705 151.006546,453.929199 
	C147.412567,447.627472 142.410645,444.502167 134.851532,446.912750 
	C132.655167,447.613159 130.895187,446.926880 129.289337,444.369995 
	C127.296150,441.196381 123.901291,438.903107 120.846870,435.975616 
	C121.860397,434.810638 123.448227,432.985596 125.560654,431.213379 
	C134.598953,437.952667 144.069839,442.776215 154.445862,445.838135 
	C165.786560,449.300781 177.463257,449.544678 189.650848,449.878845 
	C190.069885,452.496674 190.011978,454.699127 189.954071,456.901550 
z"/>
<path fill="#F8F8F8" opacity="1.000000" stroke="none" 
	d="
M83.815262,199.033386 
	C84.120270,199.806915 84.229469,200.783096 84.773766,201.308929 
	C85.713097,202.216476 86.922844,202.844147 88.019135,203.589249 
	C88.594566,202.228653 89.916206,200.669403 89.616058,199.541885 
	C88.327652,194.701889 87.511330,189.195679 80.452599,189.293747 
	C79.297363,189.309784 78.128212,188.324280 76.654861,187.662048 
	C82.224907,184.978104 87.600937,185.568604 91.078682,189.295654 
	C94.022499,192.450470 96.880455,195.730606 99.367760,199.244537 
	C100.400650,200.703751 100.672028,202.900513 100.762978,204.787277 
	C100.962097,208.918228 100.824638,213.065399 100.824638,217.224609 
	C90.858711,217.224609 80.741379,217.224609 70.624054,217.224609 
	C70.619751,216.796066 70.615456,216.367523 70.611160,215.938980 
	C73.091736,215.938980 75.635201,216.270477 78.029579,215.816177 
	C79.494148,215.538284 80.729752,214.053680 82.068184,213.111023 
	C80.876343,212.385117 79.696243,211.638870 78.488014,210.941345 
	C77.827110,210.559830 77.118668,210.260635 76.725906,210.068344 
	C78.622292,208.882233 80.454803,207.736053 82.287323,206.589874 
	C81.174545,205.244293 80.061775,203.898712 78.809402,202.384338 
	C79.382103,202.176712 80.426308,201.798187 81.997055,201.071747 
	C82.954163,200.160355 83.384712,199.596863 83.815262,199.033386 
z"/>
<path fill="#F2F2F2" opacity="1.000000" stroke="none" 
	d="
M170.275757,65.559998 
	C160.474136,64.685486 151.074997,63.938396 141.472809,63.175167 
	C141.198685,59.092243 143.803040,58.088436 148.103394,57.765564 
	C168.768295,56.214050 187.236847,61.812225 203.795258,74.069435 
	C208.687408,77.690804 208.650436,77.740761 206.133377,83.949471 
	C195.777115,74.883461 184.103409,68.534622 170.275757,65.559998 
z"/>
<path fill="#F7F7F7" opacity="1.000000" stroke="none" 
	d="
M170.378143,436.801483 
	C179.399780,437.445038 187.999542,438.003754 198.012985,438.654266 
	C196.268768,440.569702 194.924072,443.455811 193.286652,443.632721 
	C169.409668,446.212616 148.299759,439.641357 129.977966,423.891754 
	C130.822327,421.803955 131.558899,419.982666 132.420395,417.852539 
	C143.324112,427.601105 155.818741,433.825287 170.378143,436.801483 
z"/>
<path fill="#EDEEF2" opacity="1.000000" stroke="none" 
	d="
M180.191010,352.826782 
	C191.429214,344.284851 203.204315,336.699860 213.760437,327.687164 
	C226.104263,317.148132 229.415649,302.765991 227.172394,286.579987 
	C228.521591,285.743286 229.924698,285.306793 231.679291,284.760925 
	C234.898697,302.425293 230.505692,317.294586 217.340744,329.110992 
	C212.300064,333.635315 206.566986,337.405212 201.039795,341.365936 
	C195.105423,345.618469 189.036575,349.683167 183.039764,353.849030 
	C181.780792,354.723633 180.462799,356.164917 180.191010,352.826782 
z"/>
<path fill="#F3EEED" opacity="1.000000" stroke="none" 
	d="
M158.124084,149.214691 
	C149.467178,155.457794 140.742157,161.255310 132.243637,167.367737 
	C115.989693,179.058167 108.660782,194.820770 111.180573,215.338852 
	C110.237877,216.104538 109.296471,216.440262 108.340141,216.726044 
	C108.032333,216.818039 107.685226,216.778503 106.827934,216.832275 
	C104.691177,204.484344 105.424828,192.391129 113.235764,182.254257 
	C118.424736,175.520096 125.077477,169.702728 131.823837,164.433792 
	C140.045074,158.012985 149.051941,152.598083 157.864273,146.650024 
	C157.953125,147.333374 158.055710,148.122375 158.124084,149.214691 
z"/>
<path fill="#EEEBDF" opacity="1.000000" stroke="none" 
	d="
M185.994293,81.996681 
	C185.959274,82.592461 185.688309,83.321289 185.926056,83.794518 
	C194.413452,100.688652 195.453094,118.866867 195.003326,137.246689 
	C194.754959,147.396881 191.535736,156.793243 186.583878,165.609528 
	C182.812485,172.324081 180.104645,179.167206 183.991028,187.176010 
	C180.854919,186.579208 178.501923,182.181686 179.386566,177.807419 
	C179.937607,175.082794 180.734421,172.215302 182.192520,169.897247 
	C193.692291,151.615204 194.017410,131.692184 191.501709,111.180359 
	C190.025665,99.145515 186.350143,87.972610 180.193817,77.178589 
	C180.127106,76.814407 180.087265,76.743607 180.087265,76.743607 
	C180.360916,76.897751 180.634567,77.051903 181.312714,77.413773 
	C182.175522,78.070641 182.633865,78.519791 183.092194,78.968941 
	C183.092194,78.968941 183.018600,78.948143 183.078766,79.199493 
	C183.449234,79.623611 183.759521,79.796379 184.069824,79.969147 
	C184.069824,79.969139 184.002945,79.990685 184.021912,80.319992 
	C184.702225,81.102364 185.363556,81.555412 186.024902,82.008469 
	C186.024902,82.008469 185.995529,82.010544 185.994293,81.996681 
z"/>
<path fill="#F0EDDF" opacity="1.000000" stroke="none" 
	d="
M153.954315,421.088654 
	C146.830566,407.050537 144.344971,392.040131 143.565826,376.399719 
	C142.831696,361.662354 145.014709,347.904541 152.554703,335.169037 
	C156.342911,328.770477 157.430267,322.163940 154.723053,314.696991 
	C156.067917,316.321777 158.708832,318.321106 158.738129,320.358002 
	C158.792770,324.158966 158.146500,328.420319 156.370819,331.727020 
	C140.224167,361.795746 143.128235,391.617798 156.865311,421.448090 
	C156.997696,421.735535 156.979019,422.092499 156.637451,422.685089 
	C155.837036,422.942230 155.430008,422.931335 155.022980,422.920410 
	C155.022980,422.920410 155.008453,422.988678 155.116684,422.659363 
	C154.787109,421.896423 154.349304,421.462799 153.911499,421.029175 
	C153.911499,421.029175 153.981964,421.061401 153.954315,421.088654 
z"/>
<path fill="#EDEADD" opacity="1.000000" stroke="none" 
	d="
M139.015991,413.991486 
	C137.280273,405.275909 135.208984,396.593597 133.867142,387.799957 
	C131.040192,369.273956 131.894394,350.747772 134.181152,332.191498 
	C134.675217,328.182251 132.944397,323.898804 132.105957,319.397247 
	C133.201279,319.937927 135.356277,320.696289 135.497574,321.729858 
	C136.137695,326.412781 137.026001,331.294281 136.346741,335.885590 
	C133.102859,357.811462 134.298035,379.575317 138.278091,401.209045 
	C139.339630,406.979034 142.124847,412.431885 144.002090,418.577881 
	C143.769150,419.256195 143.652817,419.386993 143.536469,419.517792 
	C142.462814,418.360535 141.389160,417.203308 140.158936,415.428955 
	C139.659683,414.531738 139.316986,414.251648 138.974304,413.971588 
	C138.974289,413.971588 139.010895,413.974304 139.015991,413.991486 
z"/>
<path fill="#EFECE1" opacity="1.000000" stroke="none" 
	d="
M198.088470,85.614075 
	C205.237183,103.217873 205.855560,121.682556 206.505844,140.022018 
	C206.808517,148.558121 205.223297,157.165741 204.426147,165.734650 
	C203.903839,171.349258 202.966660,176.986664 206.560974,182.469452 
	C203.050278,184.030777 202.693756,180.448639 202.533310,178.853134 
	C202.024307,173.791260 201.685165,168.556671 202.411789,163.553162 
	C205.560745,141.869324 204.117096,120.397102 199.913147,99.060532 
	C198.845261,93.640656 196.513733,88.469749 194.336502,81.897545 
	C196.093781,83.592323 197.040375,84.505241 198.088470,85.614075 
z"/>
<path fill="#F7F5ED" opacity="1.000000" stroke="none" 
	d="
M88.133827,223.819473 
	C80.955681,227.873734 77.894463,234.591187 78.010368,242.652161 
	C78.111519,249.686371 79.108894,256.707703 79.860855,264.147217 
	C78.623459,265.038361 77.235504,265.516968 75.428421,266.140106 
	C73.006157,256.072021 71.476166,246.219284 74.111938,236.246658 
	C75.937469,229.339584 80.075020,224.513168 88.133827,223.819473 
z"/>
<path fill="#F5F4EF" opacity="1.000000" stroke="none" 
	d="
M252.327560,276.972229 
	C261.625580,269.813477 261.276978,259.535370 260.595673,249.247742 
	C260.346497,245.485291 259.503784,241.762161 258.888794,237.610077 
	C260.077332,236.756866 261.308868,236.314697 263.173431,235.645233 
	C265.610687,247.069672 267.961548,258.185791 263.029572,269.248962 
	C261.124084,273.523315 258.329803,277.326843 252.327560,276.972229 
z"/>
<path fill="#EFF0F3" opacity="1.000000" stroke="none" 
	d="
M225.938065,152.003235 
	C226.797104,155.508331 227.703537,158.994125 228.557144,162.492828 
	C231.792450,175.753372 224.723389,185.806961 210.194733,188.086304 
	C225.549469,178.789398 227.423157,173.884109 221.991959,156.208908 
	C220.985733,152.934326 219.887634,149.687973 219.694611,145.715393 
	C221.244293,146.984955 222.793991,148.254517 224.617035,150.085602 
	C225.246521,151.111496 225.602646,151.575882 225.958771,152.040268 
	C225.958771,152.040268 225.961197,151.989853 225.938065,152.003235 
z"/>
<path fill="#F4EEED" opacity="1.000000" stroke="none" 
	d="
M113.814377,351.868652 
	C112.373009,347.088837 110.822350,342.554321 109.822952,337.901428 
	C107.342865,326.354919 112.701218,317.997833 124.628922,315.046326 
	C124.754700,315.547760 124.604691,316.144165 124.239151,316.341644 
	C113.584969,322.097687 111.999748,331.054535 115.794067,342.862579 
	C117.249222,347.391083 118.656433,351.934998 120.532921,357.892365 
	C117.604218,355.295288 115.780098,353.677704 113.814377,351.868652 
z"/>
<path fill="#F4F3F3" opacity="1.000000" stroke="none" 
	d="
M175.313644,136.554474 
	C173.994781,144.387253 171.036926,151.044601 165.627823,157.712189 
	C164.552185,152.009216 163.563049,147.123856 162.780487,142.205643 
	C162.670654,141.515396 163.382339,140.395584 164.037445,139.931610 
	C167.894211,137.200165 171.846878,134.604141 176.052124,131.770523 
	C175.814346,133.328506 175.597656,134.748322 175.313644,136.554474 
z"/>
<path fill="#F4F5F5" opacity="1.000000" stroke="none" 
	d="
M164.532104,359.644287 
	C166.988312,354.373352 169.294769,349.473389 171.601227,344.573456 
	C172.060867,344.641724 172.520493,344.709991 172.980118,344.778259 
	C173.972504,349.656006 175.056656,354.518646 175.863602,359.426880 
	C175.992569,360.211365 175.086136,361.493195 174.305038,362.044250 
	C170.685226,364.597870 166.940857,366.974915 162.481644,369.916138 
	C163.180847,366.273926 163.781601,363.144592 164.532104,359.644287 
z"/>
<path fill="#ECE8D8" opacity="1.000000" stroke="none" 
	d="
M172.635788,87.418251 
	C178.482452,91.683243 179.998825,98.391586 181.344849,104.911499 
	C184.674149,121.038010 185.834198,137.137192 177.732468,152.430237 
	C176.830383,154.133026 175.406372,155.559357 173.978760,157.290100 
	C173.667450,156.923584 173.360626,156.253235 173.570648,155.856445 
	C185.701965,132.936478 183.563293,110.274071 172.635788,87.418251 
z"/>
<path fill="#F0EDE1" opacity="1.000000" stroke="none" 
	d="
M166.473343,415.577362 
	C165.526047,414.988312 164.247437,414.249878 163.505676,413.149536 
	C154.316910,399.518921 148.754227,361.614288 165.411530,342.153320 
	C165.734924,341.775543 166.111465,341.443268 166.819138,341.087524 
	C166.976349,341.907471 166.977539,342.855804 166.549881,343.533508 
	C152.995148,365.012543 155.053970,387.170898 163.648712,409.603882 
	C164.395599,411.553345 165.469482,413.377472 166.473343,415.577362 
z"/>
<path fill="#E7E8EE" opacity="1.000000" stroke="none" 
	d="
M164.552689,193.973297 
	C158.936691,199.018265 152.994522,203.988831 146.211960,209.662384 
	C151.414490,212.545700 156.545288,215.389252 161.808746,218.544678 
	C153.861984,218.534470 147.979507,213.740250 141.746109,209.506393 
	C148.253830,204.148117 154.328766,199.043121 160.563339,194.141190 
	C161.357162,193.517044 162.985031,193.953674 164.552689,193.973297 
z"/>
<path fill="#F2F2F2" opacity="1.000000" stroke="none" 
	d="
M258.285248,366.433533 
	C258.169250,364.907135 257.511078,363.657806 257.631012,362.488281 
	C257.779633,361.039520 258.222931,358.899628 259.184875,358.454590 
	C260.186279,357.991394 262.683624,358.768097 263.254211,359.745514 
	C264.891083,362.549530 265.883881,365.729523 267.244843,369.041534 
	C262.951782,370.756927 259.022522,372.326996 255.092285,373.902222 
	C251.896103,370.287811 252.131927,369.724304 258.285248,366.433533 
z"/>
<path fill="#F2F2F2" opacity="1.000000" stroke="none" 
	d="
M65.871048,134.378937 
	C67.825142,138.404160 69.418991,142.335663 71.040665,146.335831 
	C68.753540,148.804886 66.438889,148.817383 65.210419,145.785736 
	C63.994713,142.785614 62.782799,141.971024 59.671009,143.308365 
	C58.585552,143.774857 56.723465,142.434250 55.216057,141.918930 
	C55.875587,140.418518 56.130955,138.240417 57.277500,137.556656 
	C59.781643,136.063263 62.738747,135.329407 65.871048,134.378937 
z"/>
<path fill="#F3F3F3" opacity="1.000000" stroke="none" 
	d="
M55.015942,120.447235 
	C58.094063,116.645470 59.796818,116.607056 61.594883,120.243881 
	C62.889397,122.862228 63.706818,125.716454 64.793846,128.617004 
	C60.468304,130.369431 56.496090,131.978699 52.523876,133.587982 
	C52.039097,133.416489 51.554321,133.244995 51.069542,133.073486 
	C51.609463,131.336594 51.818409,128.314621 52.744255,128.076172 
	C57.868122,126.756508 56.051495,123.776802 55.015942,120.447235 
z"/>
<path fill="#F3F3F3" opacity="1.000000" stroke="none" 
	d="
M76.625229,117.940636 
	C78.371895,118.584785 79.769218,119.352211 81.166534,120.119629 
	C80.255890,121.496971 79.647820,123.390480 78.369164,124.140045 
	C75.991852,125.533669 73.223602,126.260399 70.253021,127.405495 
	C68.842712,123.969673 67.411049,120.851570 66.319977,117.618530 
	C65.949722,116.521408 66.439102,115.134178 66.535660,113.879517 
	C68.051285,114.394501 70.380402,114.482018 70.920425,115.509674 
	C72.214607,117.972481 72.977646,120.267548 76.625229,117.940636 
z"/>
<path fill="#F3F3F3" opacity="1.000000" stroke="none" 
	d="
M265.569336,375.393494 
	C267.055328,375.686798 268.799866,375.846863 269.194916,376.661438 
	C270.763428,379.895508 271.910370,383.334045 273.256775,386.808472 
	C270.535828,389.316193 268.320496,388.913116 267.205536,385.587402 
	C266.237091,382.698883 264.934113,382.731445 262.362976,383.513092 
	C260.986389,383.931641 259.088837,382.636627 257.426392,382.114929 
	C258.333984,380.598358 258.949249,378.731781 260.230072,377.662109 
	C261.552124,376.558044 263.521515,376.229095 265.569336,375.393494 
z"/>
<path fill="#F2F2F2" opacity="1.000000" stroke="none" 
	d="
M285.954590,373.931000 
	C282.770874,374.925079 281.280396,376.149139 282.969940,379.502106 
	C283.482208,380.518707 282.144684,382.467346 281.654419,383.989105 
	C280.154755,383.341522 277.996307,383.102112 277.290375,381.962738 
	C275.745056,379.468536 274.936523,376.517761 273.664429,373.348206 
	C277.452515,371.752197 281.023712,370.162872 284.675720,368.788208 
	C285.320557,368.545502 287.022400,369.229431 287.013794,369.434326 
	C286.952942,370.890656 286.574249,372.333710 285.954590,373.931000 
z"/>
<path fill="#F3F3F3" opacity="1.000000" stroke="none" 
	d="
M79.950096,137.016571 
	C81.282539,139.753494 82.372948,142.515381 79.040840,143.494965 
	C77.839188,143.848236 75.316925,141.602097 74.233749,139.982697 
	C72.904335,137.995163 72.451302,135.421448 71.504539,132.780746 
	C75.675636,131.091904 79.582993,129.509857 83.697105,127.844086 
	C86.316704,130.258118 85.921799,132.149094 82.915512,133.938019 
	C81.781380,134.612900 80.896286,135.706284 79.950096,137.016571 
z"/>
<path fill="#F0E9E7" opacity="1.000000" stroke="none" 
	d="
M174.296005,307.962280 
	C179.765137,302.820129 185.631378,297.773376 192.410904,291.940948 
	C186.987717,289.182281 181.630829,286.457367 176.103012,283.419617 
	C184.377914,282.846527 190.296219,288.212830 196.947144,292.313446 
	C190.508102,297.546204 184.305542,302.664307 177.979324,307.624725 
	C177.230896,308.211548 175.804993,307.934326 174.296005,307.962280 
z"/>
<path fill="#F2F2F2" opacity="1.000000" stroke="none" 
	d="
M273.657593,356.460999 
	C275.290558,357.445953 276.740570,358.151794 278.261078,358.636383 
	C279.904327,359.160034 281.613495,359.476929 283.293945,359.883972 
	C282.379578,361.529388 281.858002,363.789795 280.462158,364.681152 
	C278.160980,366.150635 275.294647,366.735016 272.504761,367.751373 
	C270.797272,363.536438 269.189514,359.567719 267.551270,355.523651 
	C269.849762,353.001434 271.787323,353.304749 273.657593,356.460999 
z"/>
<path fill="#F4C81E" opacity="1.000000" stroke="none" 
	d="
M64.433014,162.115906 
	C68.064857,167.146729 71.336357,172.038467 74.607857,176.930206 
	C74.251808,177.287003 73.895760,177.643799 73.539711,178.000595 
	C67.973465,175.802994 62.577984,173.145126 58.877563,168.124649 
	C56.825802,165.340988 59.627674,162.199829 64.433014,162.115906 
z"/>
<path fill="#F3C923" opacity="1.000000" stroke="none" 
	d="
M267.865967,331.123840 
	C266.643585,328.819702 265.592651,326.839935 264.541687,324.860168 
	C264.814911,324.651367 265.088165,324.442566 265.361389,324.233795 
	C269.228607,326.474121 273.262726,328.480927 276.882233,331.067841 
	C278.363312,332.126404 279.610718,334.401642 279.712524,336.194458 
	C279.782959,337.436005 277.612701,339.944336 276.618286,339.858734 
	C274.801270,339.702332 272.816681,338.332428 271.452576,336.932251 
	C269.984558,335.425354 269.148956,333.302368 267.865967,331.123840 
z"/>
<path fill="#F0EDE1" opacity="1.000000" stroke="none" 
	d="
M154.437073,445.512207 
	C144.069839,442.776215 134.598953,437.952667 125.814178,431.016602 
	C126.496223,430.360840 127.811874,429.330261 128.348312,429.641724 
	C137.099945,434.722839 145.753006,439.973663 154.437073,445.512207 
z"/>
<path fill="#F0C41B" opacity="1.000000" stroke="none" 
	d="
M88.205154,165.072449 
	C93.403717,166.140518 94.890099,169.425354 91.760574,173.278534 
	C90.318062,175.054596 88.478363,176.508087 86.444420,177.765656 
	C86.366455,173.580063 86.662834,169.736633 86.959213,165.893219 
	C86.959213,165.893219 86.976707,165.969955 87.234154,165.973038 
	C87.729446,165.674896 87.967293,165.373672 88.205154,165.072449 
z"/>
<path fill="#F4C81E" opacity="1.000000" stroke="none" 
	d="
M251.122223,336.058838 
	C249.502991,335.708252 247.122696,335.870697 246.454254,334.879181 
	C245.589508,333.596405 245.401138,330.996704 246.159775,329.674500 
	C247.420639,327.477020 249.667191,325.845093 251.873413,324.209412 
	C251.872894,328.315552 251.497559,332.187195 251.122223,336.058838 
z"/>
<path fill="#F0EDE1" opacity="1.000000" stroke="none" 
	d="
M186.919800,58.424900 
	C188.280212,58.288692 190.064240,58.037075 191.335587,58.728348 
	C198.434326,62.588192 205.409012,66.676147 212.711823,70.866821 
	C211.655350,74.539268 210.236954,72.082222 208.691269,71.179756 
	C201.520737,66.993111 194.305756,62.882607 186.919800,58.424900 
z"/>
<path fill="#EFEFEF" opacity="1.000000" stroke="none" 
	d="
M83.804581,198.657608 
	C83.384712,199.596863 82.954163,200.160355 82.297256,200.869904 
	C82.511429,197.943726 81.199097,196.807877 78.120804,197.022003 
	C75.837120,197.180862 73.474182,197.045914 71.238174,196.591248 
	C70.443474,196.429642 69.365273,194.896713 69.429573,194.068451 
	C69.491577,193.269821 70.740440,192.233566 71.680016,191.901001 
	C73.680145,191.193069 82.856346,196.198944 83.804581,198.657608 
z"/>
<path fill="#EDECE9" opacity="1.000000" stroke="none" 
	d="
M190.325256,457.082336 
	C190.011978,454.699127 190.069885,452.496674 190.126434,449.886597 
	C191.561859,449.273224 192.998627,449.067566 194.698730,448.824188 
	C194.698730,451.932098 194.698730,454.806915 194.698730,458.316254 
	C193.282227,457.943512 191.989334,457.603333 190.325256,457.082336 
z"/>
<path fill="#F7F5ED" opacity="1.000000" stroke="none" 
	d="
M148.308044,44.860477 
	C148.447189,47.194778 148.296997,49.360722 148.124573,51.865242 
	C146.857712,52.459026 145.613083,52.714241 144.065048,53.031666 
	C144.065048,49.737862 144.065048,46.818241 144.065048,43.421261 
	C145.418961,43.856461 146.718842,44.274292 148.308044,44.860477 
z"/>
<path fill="#F4F1E4" opacity="1.000000" stroke="none" 
	d="
M163.587204,168.993988 
	C163.456573,170.178757 163.185165,171.549255 162.476013,172.633408 
	C159.694550,176.885635 159.038147,181.304031 161.023682,186.446930 
	C155.857346,184.181396 157.417801,179.750488 158.680344,175.904816 
	C159.505768,173.390686 161.676941,171.318390 163.587204,168.993988 
z"/>
<path fill="#F0EDDF" opacity="1.000000" stroke="none" 
	d="
M251.510071,336.068359 
	C251.497559,332.187195 251.872894,328.315552 252.177216,324.020721 
	C252.473297,322.854980 252.840378,322.112457 253.505234,320.767609 
	C256.151276,328.556488 255.423950,333.450470 251.510071,336.068359 
z"/>
<path fill="#F4F1E4" opacity="1.000000" stroke="none" 
	d="
M176.429932,331.037598 
	C176.927078,326.302948 180.681931,321.909668 178.011322,316.275391 
	C179.078323,317.891052 181.131348,320.105957 180.805237,321.884796 
	C180.222488,325.063751 178.204941,327.979736 176.429932,331.037598 
z"/>
<path fill="#F7F5ED" opacity="1.000000" stroke="none" 
	d="
M86.549698,165.815506 
	C86.662834,169.736633 86.366455,173.580063 86.125778,177.902161 
	C85.802521,179.055878 85.423561,179.730881 85.044594,180.405899 
	C84.646065,180.181534 84.247536,179.957153 83.849007,179.732788 
	C84.798851,175.090225 81.421043,169.926117 86.549698,165.815506 
z"/>
<path fill="#F4F1E4" opacity="1.000000" stroke="none" 
	d="
M174.699463,332.838135 
	C174.821152,332.141235 175.226288,331.407074 175.848938,330.880920 
	C175.705307,331.659576 175.344116,332.230225 174.699463,332.838135 
z"/>
<path fill="#ECE8D8" opacity="1.000000" stroke="none" 
	d="
M170.971893,85.532715 
	C171.681076,85.614395 172.366318,86.061317 172.974670,86.825867 
	C172.247833,86.728310 171.597885,86.313133 170.971893,85.532715 
z"/>
<path fill="#F4C71C" opacity="1.000000" stroke="none" 
	d="
M186.057343,81.665565 
	C185.363556,81.555412 184.702225,81.102364 184.039856,80.289787 
	C184.722473,80.394402 185.406128,80.858536 186.057343,81.665565 
z"/>
<path fill="#F0EDE1" opacity="1.000000" stroke="none" 
	d="
M167.453796,341.371002 
	C167.513855,340.459656 167.913559,339.759216 168.636566,338.968384 
	C168.571075,339.779297 168.182266,340.680603 167.453796,341.371002 
z"/>
<path fill="#F4F1E4" opacity="1.000000" stroke="none" 
	d="
M166.627670,165.949844 
	C166.499176,166.673004 166.048798,167.472473 165.263367,168.103043 
	C165.387466,167.298157 165.846634,166.662155 166.627670,165.949844 
z"/>
<path fill="#F4F1E4" opacity="1.000000" stroke="none" 
	d="
M178.339172,315.648438 
	C177.769470,315.583954 177.391388,315.245270 176.994095,314.590332 
	C177.493515,314.640808 178.012146,315.007507 178.339172,315.648438 
z"/>
<path fill="#F3C71D" opacity="1.000000" stroke="none" 
	d="
M153.729828,421.334106 
	C154.349304,421.462799 154.787109,421.896423 155.151276,422.654694 
	C154.567810,422.532532 154.057983,422.085785 153.729828,421.334106 
z"/>
<path fill="#F3C71D" opacity="1.000000" stroke="none" 
	d="
M155.098434,423.189301 
	C155.430008,422.931335 155.837036,422.942230 156.548203,423.054169 
	C156.292862,423.256165 155.733368,423.357178 155.098434,423.189301 
z"/>
<path fill="#244CC1" opacity="1.000000" stroke="none" 
	d="
M226.064880,151.716339 
	C225.602646,151.575882 225.246521,151.111496 224.856964,150.315033 
	C225.272705,150.452759 225.721863,150.922577 226.064880,151.716339 
z"/>
<path fill="#F4C71C" opacity="1.000000" stroke="none" 
	d="
M183.129059,78.606255 
	C182.633865,78.519791 182.175522,78.070641 181.581833,77.315971 
	C182.019623,77.421486 182.592789,77.832527 183.129059,78.606255 
z"/>
<path fill="#F4C81C" opacity="1.000000" stroke="none" 
	d="
M138.988251,414.316803 
	C139.316986,414.251648 139.659683,414.531738 140.003204,415.180237 
	C139.670074,415.253113 139.336151,414.957581 138.988251,414.316803 
z"/>
<path fill="#EDEADD" opacity="1.000000" stroke="none" 
	d="
M144.068542,418.937134 
	C144.425186,419.063904 144.598755,419.378906 144.772324,419.693909 
	C144.508698,419.746002 144.245056,419.798096 143.758942,419.683990 
	C143.652817,419.386993 143.769150,419.256195 144.068542,418.937134 
z"/>
<path fill="#F4C71C" opacity="1.000000" stroke="none" 
	d="
M184.120087,79.645844 
	C183.759521,79.796379 183.449234,79.623611 183.100372,79.167938 
	C183.431320,79.030869 183.800842,79.176704 184.120087,79.645844 
z"/>
<path fill="#EEEBDF" opacity="1.000000" stroke="none" 
	d="
M180.167725,76.815338 
	C180.208328,76.816277 179.958984,76.801163 179.958984,76.801163 
	C179.958984,76.801163 180.147614,76.919319 180.117432,76.831467 
	C180.087265,76.743607 180.127106,76.814407 180.167725,76.815338 
z"/>
<path fill="#F4F1E4" opacity="1.000000" stroke="none" 
	d="
M164.636414,167.909378 
	C164.845123,168.354141 164.746948,168.785141 164.287445,169.079987 
	C164.060577,168.594421 164.195053,168.245026 164.636414,167.909378 
z"/>
<path fill="#F7F5ED" opacity="1.000000" stroke="none" 
	d="
M87.863144,165.054474 
	C87.967293,165.373672 87.729446,165.674896 87.195869,165.963959 
	C87.107140,165.646683 87.314148,165.341583 87.863144,165.054474 
z"/>
<path fill="#FEFBFA" opacity="1.000000" stroke="none" 
	d="
M23.490818,14.073808 
	C31.187767,11.055584 35.958996,13.087632 38.149315,20.324402 
	C40.516724,28.146265 40.437092,36.087322 37.976540,43.878178 
	C36.509182,48.524277 33.524040,51.594944 28.155540,51.445877 
	C22.954355,51.301453 20.003130,48.050968 19.152733,43.587624 
	C17.226519,33.477818 15.314631,23.155743 23.490818,14.073808 
z"/>
<path fill="#FEFBFA" opacity="1.000000" stroke="none" 
	d="
M313.405457,485.715820 
	C306.002289,488.352173 301.110840,486.206390 299.118774,479.212341 
	C296.890503,471.388824 296.901825,463.371429 299.291656,455.581818 
	C300.699371,450.993225 303.744293,447.780426 309.148163,447.996948 
	C314.278931,448.202576 316.897034,451.336151 318.184631,455.873535 
	C320.322601,463.407837 320.521027,471.042664 318.168488,478.508514 
	C317.365540,481.056610 315.253723,483.192230 313.405457,485.715820 
z"/>
<path fill="#2C2C2C" opacity="1.000000" stroke="none" 
	d="
M154.016678,98.800446 
	C152.934311,100.271568 151.852982,101.339951 150.771652,102.408333 
	C150.119400,100.438507 149.128250,98.495773 148.967575,96.486633 
	C148.894623,95.574509 150.467407,94.530769 151.293640,93.546730 
	C152.201675,95.163719 153.109695,96.780716 154.016678,98.800446 
z"/>
<path fill="#373737" opacity="1.000000" stroke="none" 
	d="
M186.294571,408.158600 
	C185.434952,407.218933 184.466415,406.298492 184.611816,405.615021 
	C185.074509,403.439941 185.951874,401.353119 186.669006,399.232178 
	C187.723724,400.016174 189.670410,400.802032 189.668747,401.583771 
	C189.663422,404.099121 191.629105,407.872253 186.294571,408.158600 
z"/>
</svg>