<svg xmlns="http://www.w3.org/2000/svg" viewBox="0 0 340 500" xml:space="preserve"><path fill="transparent" d="M1 199C1 134.02 1.03 69.538.912 5.058.906 1.762 1.397.894 4.94.898c110.634.125 221.268.13 331.901-.014 3.858-.005 4.236 1.1 4.235 4.455-.087 163.784-.088 327.569.008 491.354.002 3.445-.507 4.421-4.274 4.417-110.634-.136-221.268-.134-331.901-.004-3.607.004-3.994-.966-3.99-4.195C1.018 397.774 1 298.637 1 199z"/><path fill="currentColor" d="M97.862 63.029a287.486 287.486 0 0 1 5.15 4.6c4.522-6.053 10.709-9.506 18.725-8.32 12.35 1.826 19.126 14.234 14.611 26.483-2.496 6.772-7.44 11.666-12.608 16.43-7.177 6.613-15.767 11.768-21.09 20.67-4.238-7.281-10.786-11.862-16.799-16.982-5.704-4.857-11.445-9.704-15.144-16.383-3.87-6.986-4.691-14.232-.449-21.311 3.815-6.367 9.731-9.322 17.166-9.044 3.744.14 7.158 1.33 10.438 3.857zM210.164 88.637c-5.796-13.926-.535-26.322 12.247-29.049 8.353-1.782 14.95 1.394 20.19 8.45 3.753-4.689 8.172-8.273 14.346-8.866 14.37-1.382 24.49 12.234 19.523 26.328-2.4 6.814-7.31 11.77-12.479 16.522-7.306 6.717-15.99 11.998-21.41 20.863-4.05-7.243-10.543-11.743-16.475-16.774-5.975-5.069-11.839-10.207-15.942-17.474zM126.866 170.841c11.047 6.696 13.996 17.429 7.978 28.384-2.833 5.155-6.975 9.229-11.293 13.178-7.078 6.473-15.515 11.552-20.837 20.431-5.827-9.376-15.119-14.78-22.672-22.02-5.45-5.224-10.523-10.717-12.042-18.456-1.843-9.386 2.278-17.7 10.471-21.486 8.06-3.724 16.712-1.614 22.83 5.57.398.466.783.943 1.318 1.59 6.387-8.071 14.148-11.075 24.247-7.19zM256.435 218.43c-5.194 4.433-10.399 8.36-13.692 14.599-4.333-7.404-10.854-11.999-16.87-17.101-5.845-4.957-11.75-9.913-15.406-16.803-3.727-7.023-4.41-14.297.048-21.307 4.003-6.295 9.997-9.112 17.386-8.614 6.19.417 10.97 3.514 14.684 8.938 4.932-6.543 11.209-10.148 19.403-8.786 13.097 2.176 19.538 15.852 13.527 28.523-2.686 5.661-6.962 10.088-11.601 14.176-2.369 2.087-4.804 4.098-7.48 6.375zM193.877 224.843c12.756 4.611 17.381 16.4 11.431 28.413-2.783 5.62-7.162 9.929-11.732 14.118-7.087 6.495-15.547 11.58-20.869 20.47-5.717-9.3-14.884-14.646-22.366-21.765-3.396-3.231-6.614-6.583-9.09-10.572-6.178-9.95-4.487-21.644 3.961-27.723 8.923-6.42 19.353-4.51 27.4 5.184 5.392-6.691 11.99-10.45 21.265-8.125zM98.166 330.254c-8.282 5.5-17.159 5.316-23.87-.263-6.748-5.611-8.718-14.913-4.804-23.632 3.078-6.855 8.384-11.902 13.966-16.733 6.649-5.756 14.077-10.735 19.122-18.85 6.714 10.336 17.505 16.16 25.653 24.806 4.536 4.813 8.232 10.016 9.363 16.715 1.339 7.937-2.503 15.903-9.602 19.79-6.99 3.828-15.953 2.714-21.8-2.743-1.205-1.124-2.32-2.345-3.467-3.511-1.47 1.444-2.87 2.819-4.561 4.421zM226.812 286.808c5.86-4.93 11.715-9.368 15.795-16.09 5.31 8.497 13.56 13.695 20.643 20.122 5.44 4.936 10.713 10.024 13.25 17.176 3.29 9.267.181 18.75-7.637 23.598-7.747 4.804-17.586 3.187-24.391-4.014-.559-.592-1.09-1.209-1.817-2.016-3.626 4.52-7.73 7.975-13.584 8.521-15.133 1.412-25.23-11.527-20.247-25.966 2.125-6.158 6.32-10.861 10.939-15.222 2.173-2.051 4.517-3.922 7.049-6.109zM119 444.169c-6.23.276-10.822-2.241-14.376-6.514-1.714-2.06-2.341-1.655-3.962.087-6.628 7.126-16.3 8.62-23.997 3.988-7.905-4.756-11.071-14.22-7.858-23.548 2.126-6.17 6.26-10.952 10.956-15.24 4.545-4.15 9.35-8.015 13.987-12.066 3.264-2.851 6.41-5.83 8.74-10.238 6.79 10.466 17.58 16.285 25.724 24.925 4.532 4.808 8.235 10 9.376 16.695 1.951 11.452-6.153 21.26-18.59 21.91zM225.15 444.166c-14.448-1.681-21.589-15.078-15.426-28.272 3.101-6.639 8.293-11.553 13.739-16.273 6.641-5.756 14.068-10.727 19.11-18.83 6.822 10.43 17.771 16.312 25.977 25.12 5.75 6.173 10.196 12.977 9.124 21.793-.91 7.479-4.997 13.05-12.378 15.45-7.35 2.39-14.12 1.25-19.753-4.445-.925-.936-1.812-1.91-2.94-3.102-4.332 5.674-9.714 9.108-17.452 8.56zM328.05 409.215c3.098 6.078 2.734 10.744-.875 13.984-3.577 3.21-7.766 3.232-13.074-.451-1.618-1.122-2.106-.366-3.207.415-4.522 3.215-9.285 3.16-12.769.017-3.631-3.276-4.178-8.395-1.303-13.205 1.457-2.437 3.394-4.463 5.564-6.328 3.518-3.024 7.386-5.699 10.2-9.865 4.374 5.907 11.023 9.26 15.464 15.433zM24.966 102.027c-3.096-2.552-5.907-4.9-7.88-8.042-3.124-4.975-2.72-10.235 1.001-13.642 3.57-3.268 8.318-3.302 13.044.324 1.43 1.096 1.806.806 3.064-.144 4.822-3.641 9.856-3.419 13.441.27 3.401 3.5 3.559 9.07.251 13.726-4.177 5.881-10.857 9.224-15.238 15.148-2.172-2.962-4.711-5.27-7.683-7.64zM38.055 40.715c-1.29.522-2.371.942-3.475 1.29-8.358 2.636-15.588-.909-17.323-8.48-1.934-8.436 3.504-16.423 11.945-17.545 9.729-1.294 16.068 3.281 18.034 12.903 1.31 6.414.683 12.617-2.01 18.539-4.056 8.914-14.149 12.817-23.05 8.945-1.272-.552-3.512-.552-2.681-3.24.808-2.618 2.274-1.506 3.818-1.085 8.036 2.191 12.652-.81 15.22-10.184-.12-.658-.22-.961-.478-1.143zM317.117 487.336c-11.377 1.535-17.868-3.529-19.318-14.55-.802-6.101-.126-11.972 2.67-17.473 4.247-8.358 14.004-11.895 22.572-8.243 1.422.606 3.534.97 2.767 3.346-.772 2.39-2.35 1.363-4.023.936-8.422-2.149-14.186 2.282-14.735 11.631 5.255-2.383 10.517-3.39 15.737-.594 2.627 1.407 4.17 3.812 4.983 6.615 2.378 8.204-1.71 15.41-10.653 18.332z"/><path fill="#fff" d="M28.304 21.146c4.558-2.492 7.265-.563 9.18 3.165.993 1.934 1.412 4.048 1.59 6.244.27 3.326.462 6.236-4.052 6.987-4.627.77-7.8-.484-9.22-4.582-1.466-4.228-1.083-8.195 2.502-11.814z"/><path fill="transparent" d="M38.026 41.017c.089-.35.347-.535.605-.719.056.248.112.496.046.968-.122.224-.482-.083-.651-.25z"/><path fill="#fff" d="M317.597 481.796c-5.092 2.538-7.852 1.684-9.837-2.881-.719-1.655-1.196-3.462-1.48-5.249-.562-3.55-1.02-7.023 4.172-7.717 5.194-.695 8.567 1.027 9.404 5.691.62 3.457.74 6.993-2.259 10.156z"/></svg>