<svg xmlns="http://www.w3.org/2000/svg" viewBox="0 0 336 496" xml:space="preserve"><path fill="currentColor" d="M219.834 444.572c-11.6-6.003-15.282-17.434-9.576-28.853 1.728-3.457 4.112-6.461 6.747-9.259 8.3-8.815 19.202-14.85 26.328-25.615 6.712 9.839 16.297 15.603 24.129 23.243 4.925 4.803 9.299 9.983 10.883 16.986 2.025 8.952-1.052 17.417-8.087 21.83-7.584 4.759-16.888 3.915-24.052-2.178-.875-.744-1.758-1.48-3.04-2.558-6.375 6.696-13.893 9.608-23.332 6.404zM68.172 421.721c2.037-8.417 7.272-14.178 13.15-19.46 7.394-6.645 15.777-12.237 21.926-21.372 8.61 12.21 21.95 18.772 30.54 30.31 6.543 8.787 7.045 19.713 1.246 27.346-6.253 8.23-18.868 9.843-27.26 3.435-1.555-1.188-2.952-2.584-4.66-4.093-7.264 8.12-15.88 10.679-25.56 5.46-8.316-4.485-10.836-12.13-9.382-21.626zM167.276 360.583c-9.326 4.388-17.912 3.321-23.849-2.71-6.255-6.357-7.522-15.802-3.252-24.555 2.075-4.254 5.235-7.664 8.518-11.012 7.898-8.056 18.053-13.697 24.576-24.145 7.21 10.65 17.662 16.688 25.857 25.136 6.217 6.408 11.06 13.637 9.81 23.036-1.037 7.806-5.35 13.575-13.174 16.047-7.467 2.359-14.11.71-19.89-4.532-.615-.558-1.23-1.115-1.86-1.654-.117-.1-.31-.114-.744-.262a869.723 869.723 0 0 1-5.992 4.65zM138.287 236.16c3.104 12.378-3.625 20.532-11.216 28.017-7.672 7.565-17.069 13.307-23.813 22.825-7.868-11.722-20.423-18-28.88-28.567-4.885-6.104-7.95-12.856-6.332-20.789 2.986-14.634 20.316-20.438 31.755-10.795 1.008.85 2.01 1.706 3.479 2.955 6.59-6.581 14.332-9.591 23.487-6.385 5.91 2.07 9.62 6.377 11.52 12.74zM139.118 169.446c-2.839-10.244-.679-18.222 6.063-23.34 6.279-4.767 15.483-5.301 22.094-1.116 2.074 1.312 3.894 3.026 6.138 4.798 4.537-4.282 9.426-7.537 15.85-7.636 14.05-.218 23.25 12.946 18.567 26.707-1.933 5.677-5.656 10.134-9.79 14.3-7.944 8.002-17.957 13.793-24.779 23.959-6.778-10.718-17.587-16.372-25.609-24.993-3.42-3.675-6.627-7.494-8.534-12.679zM70.547 90.175c-7.197-14.345.294-27.306 12.198-30.076 6.776-1.577 11.592-.04 20.731 7.1 3.881-3.354 7.89-6.942 13.47-7.454 7.281-.667 13.645 1.322 18.112 7.286 4.902 6.543 5.299 13.803 2.066 21.236-2.297 5.28-6.054 9.485-10.13 13.468-7.696 7.522-17.273 13.02-23.602 22.835-7.26-10.796-18.212-16.778-26.425-25.674-2.376-2.574-4.607-5.255-6.42-8.721zM261.269 269.292c-6.48 5.443-13.184 10.133-17.942 17.89-6.961-10.882-17.84-16.665-25.98-25.375-5.345-5.718-9.693-11.904-9.636-20.152.056-8.053 3.585-14.268 10.951-17.55 7.333-3.266 14.574-2.703 21.033 2.64 1.129.933 1.935 2.33 3.817 2.658 3.39-2.278 6.357-5.643 10.766-6.556 7.897-1.634 15.062-.304 20.323 6.167 5.736 7.055 5.82 14.941 1.942 22.923-3.427 7.053-9.183 12.135-15.274 17.355zM251.691 61.234c9.79-3.062 17.799-1.09 23.02 5.402 5.344 6.646 5.862 15.548 1.26 23.893-3.185 5.778-7.83 10.317-12.78 14.578-6.796 5.85-14.22 11.043-19.748 19.323-8.352-12.16-21.675-18.52-30.198-29.908-6.3-8.419-7.354-18.164-2.775-25.697 5.986-9.846 19.559-12.22 28.773-5.012 1.296 1.013 2.51 2.13 3.855 3.278 2.83-1.95 5.534-3.814 8.593-5.857zM21.702 20.8c5.472-5.083 11.75-5.247 18.04-3.67 7.784 1.95 10.073 9.718 5.055 15.98-.708.883-1.435 1.75-2.168 2.644.402.59.589 1.102.954 1.365 4.443 3.203 6.896 7.416 5.423 12.89-1.532 5.692-6.25 7.846-11.564 8.916-3.825.77-7.6.456-11.332-.635-9.462-2.768-11.853-11.897-4.92-18.938.686-.697 1.62-1.15 2.623-1.844-4.164-5.418-6.18-10.609-2.11-16.709m17.604 29.972c1.496-5.575-2.727-7.145-6.388-9.077-3.398-1.794-5.399-.247-6.352 2.984-.918 3.111-.444 6.155 2.494 7.917 3.412 2.044 6.928 2.184 10.246-1.824M29.041 28.275c1.21 1.103 2.316 2.352 3.648 3.279 2.818 1.96 4.738.607 5.733-2.134.89-2.45.663-4.94-1.508-6.79-1.806-1.538-3.947-1.69-6.04-.772-2.592 1.137-3.01 3.266-1.833 6.417zM298.833 463.847c-3.014-8.63-.368-14.2 7.754-16.574 4.548-1.33 9.257-1.3 13.808-.087 4.392 1.17 7.903 3.61 8.819 8.514.886 4.74-.737 8.05-6.189 12.483 2.59 3.556 5.334 7.222 4.114 12.089-.625 2.494-1.903 4.603-4.002 6.159-5.736 4.252-16.918 3.704-21.433-1.05-3.781-3.981-3.136-8.305 2.794-16.404-1.77-1.55-3.626-3.176-5.665-5.13m16.103-12.356c-.827-.04-1.663-.175-2.481-.104-3.011.26-5.285 1.958-5.457 4.851-.227 3.85 2.829 5.687 5.939 7.169 1.95.93 3.927 2.296 5.812.015 2.077-2.514 2.643-5.314 1.057-8.314-.896-1.696-2.394-2.716-4.87-3.617m-5.645 30.95c2.892 2.127 5.956 2.51 8.423-.298 2.028-2.306.809-4.839-1.218-6.537-1.768-1.48-3.839-4.031-6.397-1.974-2.614 2.101-3.834 5.034-.808 8.81zM315.251 396.09c3.62 3.398 7.075 6.496 10.434 9.696 2.926 2.788 5.358 5.87 5.648 10.182.267 3.966-.936 7.24-4.297 9.457-3.49 2.3-7.274 2.622-10.762.229-2.092-1.436-3.481-1.445-5.664-.094-4.378 2.71-9.13 2.124-12.335-1.213-3.503-3.646-3.828-7.945-1.888-12.453 1.135-2.64 3.12-4.674 5.207-6.6 3.289-3.036 6.626-6.024 9.812-9.164 1.27-1.25 2.277-1.942 3.845-.04zM16.745 92.806c-1.813-4.742-1.009-8.636 2.559-11.628 3.544-2.973 7.581-3.29 11.543-.795 1.759 1.108 3.084 1.16 4.985.185 5.12-2.63 9.65-1.94 12.65 1.525 2.969 3.426 3.025 8.983.028 13.41-3.971 5.869-10.336 9.26-15.097 15.05-5.382-6.32-12.903-9.917-16.668-17.747z"/></svg>