<svg xmlns="http://www.w3.org/2000/svg" viewBox="0 0 336 496" xml:space="preserve"><path fill="currentColor" d="M302.454 497c-4.787-12.555-9.12-25.109-13.452-37.664-.457-1.324-1.23-2.386-2.606-2.816-1.814-.566-3-1.584-2.494-3.621.55-2.212 2.523-1.84 4.095-1.887 3.323-.1 6.655-.13 9.976-.007 1.867.07 4.339-.647 5.093 1.931.938 3.209-2.355 2.948-4.09 4.283.577 3.946.744 7.653 6.665 7.59 11.331-.118 11.357.122 12.23-7.447-.474-1.132-1.66-.95-2.523-1.358-1.222-.579-1.634-1.563-1.514-2.848.138-1.467 1.182-2.01 2.405-2.029 3.819-.06 7.641-.05 11.459.052 1.186.031 2.299.519 2.468 1.99.173 1.5-.315 2.618-1.843 3.094-2.09.651-3.29 2.13-3.971 4.138-4.053 11.953-8.114 23.904-12.262 36.227-3.12.372-6.151.372-9.636.372m10.287-21.442c.346-1.574 1.5-3.026.626-5.058-3.12-.226-6.344-.84-9.983.632 1.248 5.308 2.912 10.267 5.349 16.179 1.555-4.447 2.704-7.733 4.008-11.753zM150.606 204.12c7.119 3 12.326 7.835 16.63 13.246 2.518.057 3.15-1.752 4.218-2.924 11.04-12.118 24.563-16.206 40.244-11.654 14.607 4.24 23.547 14.421 26.235 29.226 2.804 15.449-2.634 28.894-12.491 40.667-5.783 6.907-12.358 13.042-19.103 19.018-13.262 11.751-28.673 21.314-37.561 37.17-.808-.17-1.299-.128-1.417-.318-8.814-14.177-22.205-23.735-34.59-34.306-9.009-7.69-17.84-15.542-24.9-25.17-8.252-11.252-12.176-23.692-9.695-37.589 4.05-22.686 28.92-36.907 52.43-27.366zM22.12 60.314c-4.75 3.578-9.973 2.082-14.827 1.476-2.493-.312-2.18-3.187.3-4.187 3.075-1.24 3.95-3.76 4.864-6.48 3.498-10.401 7.108-20.765 10.545-31.186.946-2.869 2.294-4.373 5.632-4.374 3.314-.001 5.18.931 6.284 4.2C38.482 30.314 42.298 40.782 46 51.29c.887 2.517 1.573 5.127 4.53 6.14 1.535.525 1.883 1.794 1.543 3.241-.342 1.461-1.612 1.552-2.774 1.568-3.994.056-7.991.107-11.985.028-1.56-.03-3.612.542-4.292-1.565-.821-2.542 1.425-2.923 3.006-3.724.424-.215.753-.615 1.272-1.055-.82-3.51-.943-7.065-6.342-7.036-11.595.06-11.596-.159-13.064 6.82.593 2.219 4.375 1.24 4.226 4.607m10.197-20.277c-1.636-3.877-2.022-8.281-5.032-12.256-3.112 4.922-3.956 10.047-5.422 15.225 2.847.97 5.326.572 7.754.645 1.964.06 3.257-.585 2.7-3.614zM305.228 429.617c-5.122 2.734-9.384 1.873-12.974-2.025-3.128-3.396-3.234-8.256-.505-13.024 2.033-3.551 5.238-5.971 8.253-8.598 2.621-2.283 5.063-4.771 8.139-7.696 4.392 5.552 10.89 8.913 15.172 14.675 3.643 4.904 3.847 10.56.799 14.384-3.18 3.99-7.954 4.75-13.901 1.9-1.757-.842-3.135-.763-4.983.384zM34.67 108.703c-2.323 2.117-4.37 4.013-6.653 6.126-4.687-4.335-9.321-8.572-13.893-12.874-1.595-1.5-2.657-3.394-3.444-5.446-1.667-4.344-1.001-8.252 2.434-11.416 3.469-3.194 7.598-3.312 11.597-1.325 2.235 1.111 3.742 1.693 6.274.223 3.969-2.304 8.383-2.289 12 1.147 3.541 3.364 4.09 7.476 2.185 11.91-2.126 4.945-6.393 8.001-10.5 11.655z"/></svg>