<svg xmlns="http://www.w3.org/2000/svg" viewBox="0 0 336 496" xml:space="preserve"><path fill="currentColor" d="M1 21.428c3.347-.42 5.879-2.443 8.683-3.839 4.444-2.21 6.591-.95 6.635 3.913.076 8.625.15 17.254-.03 25.876-.07 3.355.916 5.397 4.364 5.999 1.48.258 3.073.67 2.913 2.698-.19 2.414-2.121 2.198-3.738 2.204-5.97.02-11.94-.032-18.37-.168-.457-1.5-.457-2.889-.04-4.687 4.831-.084 6.697-1.918 6.345-6.522-.351-4.602-.077-9.251-.08-13.88C7.677 26.056 7.676 26.056 1 27v-5.572zM337 484.563c-2.73.815-4.82 2.586-7.199 3.731-4.001 1.927-6.056.79-6.11-3.612a1113.45 1113.45 0 0 1-.008-26.412c.039-3.334-.307-5.974-4.544-6.118-1.756-.059-3.348-.973-3.039-3.128.282-1.963 2.056-1.96 3.519-1.979 5.48-.068 10.962-.04 16.912-.047.469 1.716.469 3.43.156 5.467-2.813-.237-4.251.82-4.282 3.319a640.662 640.662 0 0 0 .033 19.37c.055 3.027 1.558 4.275 4.562 2.846v6.563zM204.762 430.496c-1.296-10.227 2.62-18.013 9.514-24.524 4.357-4.114 8.798-8.161 13.447-11.936 4.522-3.673 8.363-7.954 12.235-13.193 8.01 11.445 19.854 17.947 28.507 27.849 6.009 6.876 8.612 14.813 6.336 23.601-3.36 12.976-19.983 17.841-30.833 9.387-1.292-1.007-2.501-2.117-3.689-3.128-17.795 11.34-29.866 8.682-35.517-8.056zM66.474 306.842c2.976-6.614 7.85-11.165 12.795-15.657 6.882-6.249 14.756-11.438 20.093-19.354 3.572 1.275 4.63 4.596 6.838 6.72 6.728 6.472 14.527 11.73 20.856 18.645 5.103 5.576 8.54 11.645 8.395 19.619-.143 7.864-3.467 13.424-10.29 16.88-7.183 3.64-14.18 2.836-20.742-1.733-1.479-1.03-2.798-2.289-4.358-3.581-3.557 2.639-6.598 5.844-10.975 6.85-7.8 1.794-14.723.08-19.985-5.952-5.73-6.57-5.67-14.231-2.627-22.437zM266.436 296.582c5.293 5.574 8.85 11.426 9.003 19.176.172 8.659-3.321 14.817-11.084 18.334-7.711 3.493-14.903 2.113-21.366-3.276-.885-.737-1.763-1.484-2.514-2.118-1.572-.064-2.25.993-3.102 1.742-7.28 6.404-16.633 7.278-24.365 2.268-7.466-4.838-10.432-14.256-7.483-23.382 1.36-4.209 3.698-7.796 6.55-11.084 8.39-9.673 20.065-15.842 27.88-27.218 7.436 10.593 18.144 16.53 26.48 25.558zM94.145 388.134c2.318-1.916 3.102-4.766 6.193-6.418 8.508 11.65 22.057 18.287 30.487 30.211 8.204 11.605 5.795 25.735-5.225 31.573-7.2 3.814-15.636 2.997-21.977-2.145-1.143-.927-2.247-1.903-3.538-3-3.563 2.636-6.59 5.857-10.955 6.853-7.742 1.767-14.605.194-19.99-5.797-5.297-5.894-5.562-12.965-3.55-20.164 1.759-6.297 6.033-11.05 10.742-15.34 5.773-5.262 11.7-10.354 17.813-15.773zM185.724 339.253c4.172 3.857 8.29 7.28 11.927 11.156 4.909 5.231 7.919 11.27 7.8 18.849-.128 8.106-3.773 13.809-10.71 17.19-7.158 3.49-14.243 2.574-20.65-2.34-1.306-1.003-2.518-2.13-4.002-3.393-4.14 3.436-8.107 7.011-13.74 7.562-15.083 1.475-25.746-12.087-20.793-26.545 1.706-4.978 4.614-9.211 8.255-12.958 8.32-8.564 18.871-14.733 26.233-25.304 4.458 6.476 9.823 11.132 15.68 15.783zM179.385 171.386c-3.203 3.352-6.136 6.477-9.542 10.105-8.306-11.484-20.939-18.108-29.55-28.975-5.189-6.547-7.254-14.009-4.945-22.013 3.69-12.798 19.824-17.509 30.53-9.23 1.304 1.009 2.514 2.139 3.643 3.106 1.985.024 2.741-1.483 3.859-2.398 7.234-5.928 16.502-6.475 24.089-1.382 6.938 4.657 9.825 13.975 7.134 22.682-2.371 7.675-7.815 13.04-13.54 18.173-3.715 3.333-7.6 6.477-11.678 9.932zM68.89 92.935c-2.526-4.211-4.123-8.25-4.296-12.949-.318-8.643 3.233-14.85 10.966-18.474 7.72-3.618 14.897-2.156 21.41 3.127.902.732 1.729 1.554 2.56 2.307 1.849.08 2.61-1.443 3.707-2.345 7.48-6.154 16.747-6.695 24.458-1.35 7.024 4.867 9.81 13.895 6.892 22.731-2.265 6.858-6.93 12.018-12.1 16.835-7.395 6.89-16.313 12.157-22.289 21.689-8.968-12.39-22.564-19.219-31.308-31.571zM257.824 106.847c-6.315 5.391-12.978 9.9-17.57 17.555-8.848-12.125-22.185-18.76-30.602-30.43-9.692-13.435-5.69-28.84 8.497-33.517 7.094-2.338 12.853-.612 22.002 6.722 4.078-3.525 8.3-7.05 14.11-7.465 7.581-.541 13.876 2.04 18.108 8.359 4.573 6.83 4.114 14.211.751 21.39-3.334 7.12-9.352 12.016-15.296 17.386zM133.002 199.684c-4.536 8.484-11.701 13.996-18.47 19.878-5.003 4.348-10.503 8.19-14.156 15.023-8.692-12.083-21.684-18.528-30.147-29.71-3.349-4.425-5.543-9.273-5.651-15.117-.156-8.414 3.153-14.557 10.709-18.093 8.048-3.766 15.526-2.426 22.184 3.452.74.653 1.459 1.332 2.072 1.893 1.57.07 2.243-1.018 3.095-1.75 7.863-6.763 17.292-7.501 25.159-1.94 7.258 5.131 9.793 14.978 6.224 24.213-.24.618-.561 1.205-1.02 2.151zM251.86 221.88c-4.551 3.435-8.233 7.229-11.663 12.376-3.616-4.353-6.938-8.398-11.003-11.691-6.075-4.922-12.163-9.85-17.32-15.772-4.122-4.733-6.976-10-7.257-16.53-.368-8.546 2.828-14.966 10.658-18.591 8.273-3.83 15.853-2.34 22.569 3.76.609.554 1.215 1.11 1.739 1.589 1.709.013 2.452-1.247 3.427-2.08 7.546-6.45 17.099-7.091 24.787-1.628 7.29 5.18 9.97 15.304 6.267 24.212-3.164 7.613-9.07 13.02-15.12 18.277-2.259 1.963-4.544 3.896-7.084 6.078zM297.684 405.72c4.206-3.798 8.506-6.959 12.108-11.5 5.234 4.922 10.733 9.267 15.2 14.494 6.154 7.198 2.974 18.177-5.386 17.972-6.498-.159-12.827-.397-19.374.125-5.709.454-9.6-6.688-8.037-12.471.896-3.316 2.837-5.988 5.49-8.62zM43.504 98.42c-4.117 4.645-9.417 7.47-13.302 12.818-5.13-5.845-11.796-9.564-16.04-15.805-3.383-4.976-3.106-10.104.342-13.796 3.333-3.57 7.963-4.104 13.245-1.343 1.4.732 2.41 1.179 4.082.359 6.364-3.12 10.71-2.601 13.982 1.308 3.421 4.087 3.17 9.115-.757 14.68-.382.541-.863 1.013-1.552 1.778zM309.25 481.991c-4.486 6.564-10.573 8.29-17.65 6.876-6.96-1.392-10.208-6.375-11.31-12.949-1.137-6.773-1.281-13.53 1.37-20.066 2.836-6.99 7.995-9.696 17.443-9.159 5.866.334 10.68 4.272 12.136 10.712 1.854 8.2 2.248 16.427-1.989 24.586m-19.917-13.617c.025 3.99.554 7.909 2.011 11.636.914 2.338 2.619 3.846 5.285 3.763 2.805-.088 4.14-2.127 4.746-4.405 2.043-7.674 1.854-15.378-.318-23.016-.734-2.582-2.34-4.675-5.1-4.74-3.11-.074-4.585 2.43-5.357 5.057-1.03 3.5-1.515 7.118-1.267 11.705zM46.465 59.004c-11.1.512-16.21-3.307-18.296-13.722-.98-4.897-1.015-9.937.076-14.842 2.209-9.934 7.46-14.15 17.005-13.954 8.372.171 13.136 4.587 14.727 14.478.895 5.567.852 11.265-.929 16.766-1.946 6.013-5.821 9.95-12.583 11.274m-9.087-26.968c-.01 2.658-.042 5.317-.027 7.974.02 3.345.6 6.61 1.838 9.705.904 2.264 2.39 4 5.156 3.985 2.86-.014 4.261-2.007 4.889-4.258 2.235-8.018 2.087-16.072-.48-24.013-.782-2.419-2.585-3.932-5.189-3.952-2.531-.02-3.85 1.83-4.626 3.923-.687 1.854-1.02 3.84-1.561 6.636z"/></svg>