<svg xmlns="http://www.w3.org/2000/svg" viewBox="0 0 340 500" xml:space="preserve"><path fill="#FEFEFE" d="M341 129v372H1V1h340v128m-276.358-1.694c1.493-3.161 2.622-6.576 4.589-9.408 1.762-2.538 3.126-4.657 1.17-7.562-2.509-3.727-5.047-7.434-7.506-11.193-2.044-3.126-4.513-3.115-7.033-.846-27.581 24.828-27.648 70.137-.258 95.779 2.938 2.75 5.205 2.52 7.369-.61 2.27-3.286 4.305-6.738 6.673-9.948 2.746-3.724 2.409-6.57-1.355-9.483-3.654-2.828-4.605-6.954-3.02-11.243 1.558-4.21 4.696-6.688 9.581-6.77v47.696c-.826.276-1.594.539-2.367.79-6.813 2.207-7.574 3.603-8.374 10.957-.728 6.681.082 13.172.445 19.78.43 7.821 3.66 11.185 10.171 12.781.12.638.234.964.234 1.29.014 19.164.023 38.327.013 57.49 0 1.328.013 2.687-.243 3.979-2.118 10.708.465 20.446 6.176 29.467 6.694 10.573 16.229 18.197 27.255 23.533 7.11 3.44 11.963 8.533 16.048 14.842-8.944 10.323-6.565 18.042 5.675 21.046l6.336 23.184c-3.516 3.758-7.467 8.04-11.485 12.256-2.236 2.346-2.625 4.628-.897 7.588 15.505 26.547 50.985 38.827 79.712 27.364 1.437-.573 3.45-2.395 3.401-3.562-.332-7.971.065-16.285-2.175-23.77-1.857-6.205-3.274-11.344-.209-17.426 1.14-2.263 1.287-5.906.275-8.212-3.207-7.31-.04-12.813 3.899-18.39 4.403-6.231 4.182-7.007-3.104-10.655.972-1.698 2.194-3.284 2.808-5.079.473-1.383.855-3.681.115-4.443-3.183-3.274-4.692-7.03-4.521-11.48.166-4.324-1.457-7.41-5.602-8.991-1.11-.424-2.209-.872-4.03-1.594 20.545-5.617 34.838-18.198 46.692-35.85v28.727c-2.703-2.584-4.397-4.519-6.408-6.033-1.795-1.353-3.94-2.24-5.93-3.333-1.032 2.115-3.041 4.3-2.898 6.333.317 4.522-1.02 7.806-4.632 10.302-3.078 2.127-2.811 4.042.07 6.205 3.575 2.685 6.36 5.658 5.073 10.935-.386 1.583 1.474 3.713 2.304 5.593 1.892-.93 3.983-1.598 5.628-2.851 2.228-1.7 4.115-3.847 7.15-6.765 0 6.027.03 10.344-.008 14.661-.031 3.686 1.638 5.565 5.428 5.484 3.165-.067 6.336-.11 9.497.012 4.128.158 5.633-1.865 5.518-5.798-.142-4.876-.034-9.76-.034-14.904 5.486.745 8.544 3.364 9.793 7.664 1.277 4.397-.07 8.338-3.845 11.032-3.507 2.503-3.661 5.071-1.193 8.394 2.479 3.335 4.71 6.857 6.995 10.332 2.113 3.21 4.463 3.49 7.34.92 27.451-24.517 27.445-70.742.002-95.804-2.698-2.465-5.008-2.325-7.053.606-2.476 3.546-4.645 7.318-7.267 10.748-2.57 3.361-3.1 5.762 1.128 8.385 3.895 2.417 5.174 6.588 3.895 10.979-1.31 4.502-4.461 7.213-9.601 7.551V302.19c1.555-.484 3.527-.536 4.59-1.546 2.283-2.168 5.665-4.744 5.805-7.306.403-7.364.645-14.73-.22-22.29-.87-7.605-3.451-11.235-9.9-13.018-.176-.386-.3-.531-.3-.677.028-21.32-.461-42.66.317-63.953.409-11.188-1.781-21.024-8.204-30.014-6.329-8.858-14.659-15.534-24.204-20.432-7.283-3.738-13.53-8.223-17.366-15.675 8.772-9.965 6.674-17.157-5.891-21.137l-6.163-22.938c3.318-3.62 7.113-8.027 11.207-12.136 2.741-2.751 2.752-5.164.735-8.355-15.4-24.37-43.829-35.876-71.863-28.948-11.222 2.773-11.282 2.777-10.541 14.334.329 5.139-.184 10.74 1.73 15.266 2.426 5.736 3.482 10.571.637 16.38-1.205 2.458-1.669 6.204-.68 8.638 2.927 7.198.493 12.85-3.527 18.52-4.735 6.677-4.658 6.75 2.62 11.373-.948 1.641-2.16 3.217-2.784 5-.442 1.264-.56 3.807-.014 4.065 3.782 1.787 4.146 5.708 4.174 8.523.07 7.067 1.907 12.137 9.98 13.406-20.66 5.873-35.268 18.744-46.902 36.675v-29.72c3.103 3.164 5.068 5.48 7.368 7.395 1.375 1.144 3.583 2.608 4.851 2.194 1.337-.435 3.066-3.17 2.773-4.491-1.258-5.685 1.395-9.101 5.41-12.403.942-.776 1.24-4.29.597-4.727-4.58-3.116-5.8-7.213-5.47-12.508.102-1.654-1.714-4.387-3.23-4.892-1.306-.435-3.619 1.363-5.156 2.588-2.308 1.84-4.327 4.043-7.415 6.996 0-3.208.006-4.689 0-6.17-.068-16.06 1.935-13.867-14.597-14.1-4.124-.058-5.618 1.8-5.477 5.766.175 4.912.042 9.834.042 15.057-5.708-.993-9.146-3.544-10.342-9.624M91.5 493.038h167.1l-.32-5.273H13.484V133.212H8.112v3.62c0 116.644.018 233.288-.066 349.932-.004 4.799 1.755 6.376 6.47 6.347 25.327-.154 50.656-.073 76.984-.073m147-475h84.742v355.09l5.18-.407c.073-1.077.155-1.732.155-2.386.007-117.154-.007-234.308.065-351.462.002-4.644-1.894-6.025-6.318-5.98-16.663.171-33.329.069-49.993.069-63.327 0-126.653-.001-189.98.009-1.294 0-2.588.13-3.983.206v4.861H238.5M84.333 465.026c12.182-4.154 17.622-15.361 12.18-26.953-2.403-5.118-6.34-9.77-10.411-13.793-7.492-7.403-15.6-14.183-22.845-20.68-5.928 5.36-12.9 11.017-19.075 17.442-5.335 5.55-11.127 11.34-14.294 18.15-5.768 12.407 2.533 25.256 15.986 26.428 7.417.645 13.019-3.067 17.49-8.833 5.278 6.8 11.673 10.203 20.969 8.239M262.43 92.06l12.454 9.122c3.437-3.19 8.896-8.002 14.057-13.115 5.522-5.472 11.648-10.632 15.931-16.991 7.538-11.192 3.107-25.264-8.597-29.415-9.244-3.278-16.914-.344-22.794 7.412-1.19-1.188-2.23-2.248-3.293-3.285-5.611-5.479-14.182-6.95-21.252-3.658-7.134 3.323-12.08 11.364-10.548 19.195.923 4.719 2.853 9.816 5.898 13.417 5.218 6.169 11.665 11.299 18.144 17.318m38.943 308.822c-3.156 3.366-6.835 6.391-9.32 10.196-2.405 3.684-1.975 8.05 1.217 11.533 2.912 3.177 6.646 3.691 10.529 2.253 1.653-.612 3.035-1.954 4.697-3.07.535.474 1.1 1.046 1.734 1.523 3.913 2.945 8.004 3.133 12.007.35 3.782-2.628 5.013-7.527 2.67-12.054-1.414-2.732-3.548-5.199-5.752-7.389-3.488-3.466-7.307-6.6-11.161-10.03a638.009 638.009 0 0 1-6.621 6.688M41.59 97.016c1.118-1.64 2.492-3.163 3.31-4.941 3.24-7.032-1.146-14.413-8.524-13.939-2.85.183-5.597 1.95-8.698 3.11-4.62-3.956-9.278-4.532-13.348-1.297-3.952 3.141-4.908 8.78-1.852 13.47 1.605 2.463 3.814 4.576 5.953 6.637 3.321 3.2 6.816 6.221 9.895 9.008 4.168-3.769 8.462-7.651 13.264-12.048M23.94 52.828c-2.256 3.524-4.574 7.01-6.73 10.596-.582.969-.67 2.234-.985 3.363 1.112.236 2.4.958 3.31.632 7.253-2.599 12.516-7.059 12.703-15.43.233-10.48.287-20.966.346-31.45.013-2.484.172-4.49 3.24-5.245 1.066-.262 1.761-2.026 3.314-3.964H18.555c-1.672 5.357 3.72 3.292 5.457 5.658 0 11.361 0 23.16-.072 35.84m280.052 412.675c0 5.658-.044 11.315.019 16.972.03 2.752.3 5.36-3.625 5.81-.822.095-1.432 2.037-2.46 3.621h21.555c-1.787-1.903-2.606-3.582-3.631-3.72-3.446-.462-3.738-2.554-3.707-5.321.088-7.82.108-15.642.012-23.46-.102-8.26.54-16.135 10.055-21.036-1.957-1.253-3.166-2.693-4.169-2.561-5.924.777-12.187 6.624-13.134 12.802-.8 5.223-.646 10.592-.915 16.893z"/><path fill="#272727" d="M64.719 127.715c1.119 5.67 4.557 8.222 10.265 9.215 0-5.223.133-10.145-.042-15.057-.141-3.965 1.353-5.824 5.477-5.766 16.532.233 14.529-1.96 14.596 14.1.007 1.481.001 2.962.001 6.17 3.088-2.953 5.107-5.156 7.415-6.996 1.537-1.225 3.85-3.023 5.156-2.588 1.516.505 3.332 3.238 3.23 4.892-.33 5.295.89 9.392 5.47 12.508.642.437.345 3.95-.598 4.727-4.014 3.302-6.667 6.718-5.409 12.403.293 1.32-1.436 4.056-2.773 4.491-1.268.414-3.476-1.05-4.85-2.194-2.3-1.915-4.266-4.231-7.37-7.394v29.72c11.635-17.932 26.243-30.803 46.903-36.676-8.073-1.269-9.91-6.34-9.98-13.406-.028-2.815-.392-6.736-4.174-8.523-.547-.258-.428-2.8.014-4.065.623-1.783 1.836-3.359 2.784-5-7.278-4.623-7.355-4.696-2.62-11.373 4.02-5.67 6.454-11.322 3.528-18.52-.99-2.434-.526-6.18.679-8.638 2.845-5.809 1.789-10.644-.637-16.38-1.914-4.526-1.401-10.127-1.73-15.266-.74-11.557-.681-11.56 10.54-14.334 28.035-6.928 56.464 4.578 71.864 28.948 2.017 3.19 2.006 5.604-.735 8.355-4.094 4.11-7.89 8.516-11.207 12.136l6.163 22.938c12.565 3.98 14.663 11.172 5.891 21.137 3.835 7.452 10.083 11.937 17.366 15.675 9.545 4.898 17.875 11.574 24.204 20.432 6.423 8.99 8.613 18.826 8.204 30.014-.778 21.293-.29 42.633-.318 63.953 0 .146.125.291.3.677 6.45 1.783 9.03 5.413 9.9 13.018.866 7.56.624 14.926.221 22.29-.14 2.562-3.522 5.138-5.805 7.306-1.063 1.01-3.035 1.062-4.59 1.546v47.798c5.14-.338 8.29-3.049 9.601-7.551 1.279-4.391 0-8.562-3.895-10.979-4.228-2.623-3.698-5.024-1.128-8.385 2.622-3.43 4.791-7.202 7.267-10.748 2.045-2.931 4.355-3.07 7.053-.606 27.443 25.062 27.45 71.287-.002 95.805-2.877 2.569-5.227 2.29-7.34-.921-2.286-3.475-4.516-6.997-6.995-10.332-2.468-3.323-2.314-5.89 1.193-8.394 3.775-2.694 5.122-6.635 3.845-11.032-1.25-4.3-4.307-6.919-9.793-7.664 0 5.144-.108 10.028.034 14.904.115 3.933-1.39 5.956-5.518 5.798-3.161-.122-6.332-.08-9.497-.012-3.79.081-5.46-1.798-5.428-5.484.037-4.317.009-8.634.009-14.661-3.036 2.918-4.923 5.066-7.151 6.765-1.645 1.253-3.736 1.922-5.628 2.85-.83-1.879-2.69-4.01-2.304-5.592 1.287-5.277-1.498-8.25-5.074-10.935-2.88-2.163-3.147-4.078-.07-6.205 3.614-2.496 4.95-5.78 4.633-10.302-.143-2.034 1.866-4.218 2.898-6.333 1.99 1.092 4.135 1.98 5.93 3.333 2.011 1.514 3.705 3.45 6.408 6.033v-28.727c-11.854 17.652-26.147 30.233-46.693 35.85 1.822.722 2.922 1.17 4.031 1.594 4.145 1.581 5.768 4.667 5.602 8.992-.17 4.448 1.338 8.205 4.52 11.48.74.76.359 3.059-.114 4.442-.614 1.795-1.836 3.381-2.808 5.079 7.286 3.648 7.507 4.424 3.104 10.656-3.94 5.576-7.106 11.078-3.899 18.389 1.012 2.306.865 5.949-.275 8.212-3.065 6.082-1.648 11.22.209 17.427 2.24 7.484 1.843 15.798 2.175 23.77.049 1.166-1.964 2.988-3.4 3.561-28.728 11.463-64.208-.817-79.713-27.364-1.728-2.96-1.34-5.242.897-7.588 4.018-4.217 7.97-8.498 11.485-12.256l-6.336-23.184c-12.24-3.004-14.619-10.723-5.675-21.045-4.085-6.31-8.937-11.402-16.048-14.843-11.026-5.336-20.56-12.96-27.255-23.533-5.711-9.021-8.294-18.759-6.176-29.467.256-1.292.242-2.65.243-3.979.01-19.163 0-38.326-.013-57.49 0-.326-.114-.652-.234-1.29-6.51-1.596-9.742-4.96-10.171-12.78-.363-6.609-1.173-13.1-.445-19.781.8-7.354 1.56-8.75 8.374-10.958.773-.25 1.54-.513 2.367-.79v-47.694c-4.885.081-8.023 2.56-9.58 6.77-1.586 4.288-.635 8.414 3.019 11.242 3.764 2.912 4.1 5.76 1.355 9.483-2.368 3.21-4.404 6.662-6.673 9.947-2.164 3.132-4.43 3.361-7.369.61-27.39-25.64-27.323-70.95.258-95.778 2.52-2.269 4.989-2.28 7.033.846 2.459 3.759 4.997 7.466 7.506 11.193 1.956 2.905.592 5.024-1.17 7.562-1.967 2.832-3.096 6.247-4.512 9.817m135.305-63.691s.017-.093-.72-.322c-.797.395-1.594.79-2.292 1.229 0 0-.066-.086-.712-.62l-11.8 5.709c3.958 2.943 7.192 5.513 10.637 7.762.658.429 2.145-.413 3.823-.965l10.013-10.87c-3.157-.922-5.29-1.545-7.707-2.43-.446.167-.891.333-1.242.507m-2.963 27.303c-.437-.875-.874-1.75-1.719-3.147l-2.327-4.203c.94 9.807 1.84 19.454 2.874 29.087.04.38 1.348.624 2.871.883 3.031-7.62 1.955-14.884-1.833-21.966 0 0-.013.081.134-.654m-40.439-45.848 4.702-8.483c-4.307.4-8.316.773-12.99.97l-2.324.22 8.724 13.167c.453-1.741.933-3.584 1.888-5.874m31.27 422.577 2.71-.124-8.572-13.243c-.512 1.748-1.011 3.456-1.87 5.719l-4.969 9.014c4.526-.538 8.245-.98 12.702-1.366m4-407.97 10.13-2.78c-3.412-2.87-6.136-5.162-9.21-8.048L189.3 46.78l-3.568 16.531c1.846-1.061 3.617-2.08 6.162-3.225m-47.237 385.917-9.79 2.556c3.047 2.82 5.648 5.227 8.693 8.162l3.82 2.281 3.462-16.376c-2.066 1.298-3.702 2.326-6.185 3.377m11.266-17.345c.81.824 1.62 1.647 2.933 2.873l1.672 1.498c.27-1.631-.298-2.688-.724-3.8-2.241-5.84-5.305-11.533-6.437-17.585-1.293-6.913-.781-14.155-1.24-21.242-.082-1.278 1.636-4.306-2.993-3.406-.986 1.384-2.818 2.77-2.815 4.151.015 6.447-.133 13.02 1.062 19.302 1.226 6.445 2.392 13.393 8.657 17.554 0 0 .001-.047-.115.655m3.083-58.41c-.628-.109-1.256-.218-2.313-.919-1.678-.674-3.311-1.51-5.043-1.988-3.419-.946-7.265 1.646-8.818 5.615-1.4 3.578-.163 6.191 2.903 8.022.857.512 2.12.345 3.197.49.071-1.02.543-2.254.135-3.02-1.065-1.998-1.901-4.06.992-4.606 1.337-.252 4.12 1.12 4.38 2.202 1.33 5.558 2.987 11.292 2.802 16.907-.427 12.99 1.278 25.252 8.862 36.097 5.812 8.312 17.587 13.2 25.97 10.958 1.466-.392 2.67-1.766 3.994-2.687-1.394-1.1-2.73-3.064-4.19-3.162-10.943-.737-18.683-6.506-24.657-15.822-1.009-6.02-2.37-12.009-2.925-18.071-.53-5.776.377-11.72-.481-17.418-.619-4.112-3.094-7.944-4.8-11.862 0 0 .036-.06-.008-.736m21.837-292.834a19.18 19.18 0 0 0-1.572-1.085 156.498 156.498 0 0 0-4.257-4.284l-.83.156c.195.343.39.685.772 1.697 2.682 6.158 6.387 12.095 7.777 18.532 1.613 7.464 1.114 15.374 1.734 23.074.106 1.324-1.754 4.754 3.266 3.463.782-.97 2.128-1.868 2.259-2.918 1.177-9.474.614-18.89-2.875-27.814-1.424-3.644-4.185-6.765-6.269-10.187 0 0 .092.024-.005-.634m16.65 387.212 4.495.333-1.919-19.811c-1.95.38-3.234.631-5.366.738h-9.222c2.54 7.562 3.805 14.842 12.012 18.74M141.906 60.115h9.43c-2.8-7.389-3.794-14.974-12.244-18.751l-4.335-.283 1.702 19.649c1.78-.3 3.167-.535 5.447-.615m-4.286 369.154-9.171 9.997c3.53 2.906 6.635 4.781 11.313 1.824l12.812-4.915c-4.37-3.219-7.476-5.704-10.819-7.815-.757-.48-2.335.34-4.135.909m27.462-347.457s.206.078.482.693c6.756 8.364 6.727 18.271 6.804 28.304.048 6.4.632 12.881 1.885 19.144.454 2.27 3.551 4.012 5.825 6.668 2.293 3.143 5.84 3.359 8.407 1.677 2.46-1.612 4.83-4.659 5.459-7.473 1.023-4.582-2.153-6.498-7.015-4.785l1.662 4.027c-3.499 3.678-5.531 3.657-6.851-.983-1.517-5.334-2.01-10.998-2.569-16.556-.628-6.256-.078-12.717-1.381-18.8-2.74-12.784-8.8-23.328-22.593-27.168-6.73-1.873-12.79-.735-15.288 3.089 7.802 3.252 15.562 6.486 23.497 10.15.526.606 1.052 1.211 1.676 2.013m88.145 136.232c-2.124 4.034-5.54 7.9-6.089 12.138-.994 7.683-.37 15.59-.19 23.397.031 1.341 1.206 2.657 2.183 3.768h7.2V214.05l-.7-.28c-.615 1.233-1.232 2.466-2.404 4.274M83.505 287.81c2.14-3.34 5.815-6.544 6.124-10.046.852-9.645.294-19.415.294-29.511-2.86.244-4.98.425-7.97.36-.655 1.35-1.86 2.694-1.88 4.055-.158 10.644-.087 21.291-.088 31.937v8.111l.91.017c.684-1.499 1.367-2.998 2.61-4.923m80.784 178.9c4.158.535 7.422-1.43 8.943-4.867 2.332-5.272 3.8-10.927 5.782-16.864-3.012-.433-4.628-.665-7.04-1.007-1.751-.32-3.635-.33-5.232-1.012-8.734-3.732-7.794-3.514-11.783 5.989-.506 1.205-.806 2.523-1.025 3.819-1.357 8.014 1.591 12.074 10.355 13.942m6.072-426.692c-2.383 1.399-5.904 2.237-6.924 4.307-2.473 5.023-3.782 10.62-5.75 16.557 3.22.555 5.122.882 7.508 1.848.815.116 1.65.152 2.44.36 11.1 2.913 12.645 1.974 15.094-9.256.14-.644.22-1.304.288-1.961.81-7.902-3.759-12.42-12.656-11.855M104.955 355.48c.278.192.556.383 1.292 1.118l5.454 3.238c-13.543-35.995-2.312-66.792 14.933-96.584-2.4-2.133-4.52-4.249-6.916-5.98-.588-.425-2.083.408-3.77.847-13.607 12.452-25.933 25.905-33.052 43.287-8.752 21.37.606 42.647 22.09 53.592 0 0 .011-.038-.03.482M83.692 210.105h5.925v-88.57c-2.516.122-4.653.226-7.66.079-.657.849-1.885 1.695-1.888 2.547-.1 27.763-.066 55.528-.117 83.292-.004 2.16.518 3.193 3.74 2.652m169.433 85.786h-5.9v88.553c2.503-.112 4.638-.207 7.716-.1.52-1.04 1.492-2.078 1.495-3.12.082-27.391.09-54.784-.04-82.175-.005-.997-1.544-1.987-3.271-3.158m-114.93-138.95c-19.869 5.843-31.58 20.595-41.54 37.212l10.738 9.408c.213-1.675.352-2.77 1.003-4.432 4.934-11.693 14.308-16.584 26.397-18.39 5.383-.804 10.507-3.663 15.584-5.953 1.143-.516 2.411-2.674 2.232-3.868-.803-5.344-2.108-10.612-3.412-16.762-3.772 1.1-7 2.041-11.002 2.784m59.323 192.08c1.292-.17 2.693-.075 3.86-.553 17.73-7.254 29.657-20.523 38.528-36.706l-10.634-9.391c-.176 1.525-.321 2.785-.973 4.573-4.867 11.49-14.069 16.408-25.967 18.3-5.543.88-10.853 3.666-16.03 6.096-1.222.573-2.255 3.302-2.042 4.857.715 5.238 2.031 10.395 3.295 16.429 3.251-1.294 6.171-2.456 9.963-3.605M76.51 214.565l-2.447-5.628-4.812 4.1c1.626 1.17 3.179 2.47 4.911 3.451.776.44 1.914.242 3.738.488.664.032 1.426-.137 1.975.131 1.793.876 3.508 1.911 5.254 2.885-1.85.803-3.695 2.256-5.55 2.268-3.527.022-7.06-.779-11.352-1.337 2.572 4.544 6.353 4.683 10.094 5.294 1.59.26 2.982 1.727 4.464 2.645-1.682.816-3.334 2.222-5.054 2.312-2.76.144-5.565-.583-8.35-.942l-.429 1.3c2.8 1.144 5.689 2.117 8.358 3.51 1.157.605 1.86 2.076 2.77 3.154-1.168.64-2.333 1.801-3.504 1.808-2.058.012-4.12-.683-6.18-1.081l-.155 1.416c13.12 5.777 27.092 1.276 39.943 2.976 0-4.638-.96-8.9.21-12.461 2.136-6.509-.32-11.545-3.226-16.77-2.96-5.321-6.33-10.265-12.16-13.784 0 3.838-.088 6.998.025 10.15.119 3.282-1.24 5.09-4.609 5.045-4.481-.06-8.961-.203-13.914-.93m55.276 41.139c.437-1.384.932-2.754 1.301-4.156 1.811-6.876 8.707-12.092 15.47-11.525 2.106.176 4.182.719 6.558 1.723l10.043 9.584c.161-.087 1.269-.684 3.115-1.284 3.306-.513 4.48-2.444 3.8-5.653-.411-1.946-.62-3.945-1.16-5.853-5.063-17.891-23.894-29.427-40.585-24.722-2.798 1.688-6.08 2.895-8.314 5.144-12.552 12.631-6.195 29.45 6.612 38.708.322.233 1.695-.987 3.16-1.966m36.421.33c-2.098.783-4.53.914-3.999 4.45 1.637 10.887 6.126 20.237 15.424 26.31 7.234 4.726 14.921 9.63 25.12 5.188 1.576-.329 3.355-.295 4.695-1.045 7.888-4.413 12.121-11.177 11.838-20.297-.302-9.748-5.811-16.646-13.201-22.256-.36-.274-1.828.913-3.27 2.019-.492 1.396-1.017 2.782-1.474 4.19-3.093 9.532-12.912 14.043-22.593 9.643l-8.946-9.668c-.379.185-1.611.787-3.594 1.466m52.572-8.306c10.86-10.14 21.08-20.814 28.602-33.788 16.087-27.753 5.294-50.348-18.5-63.923l-5.963-3.913c13.585 35.985 2.403 66.835-14.872 96.59 2.253 2.085 4.182 4.198 6.469 5.799.752.527 2.432-.27 4.264-.765m-62.139 115.65 3.942 2.092c2.276-17.2 9.01-31.254 24.133-41.31-2.272 0-3.52 0-5.406-.182-3.433-1.377-6.866-2.755-10.499-4.78-16.183-8.835-28.264-21.322-34.213-39.059-1.668-4.973-2.621-10.186-4.085-16.017-1.323 2.464-2.389 4.447-4.02 6.899-4.336 9.663-9.518 19.045-12.835 29.046-7.1 21.406-7.413 42.733 4.253 63.041 5.332 9.284 5.368 9.263 15.396 5.987 4.602-.207 6.673-3.627 9.724-7.024 4.341.283 8.682.566 13.61 1.308m19.23-220.927-3.726-2.04c-2.298 17.117-8.945 31.36-23.97 41.328 1.396.218 1.884.36 2.369.352.49-.008.978-.166 2.136.062 2.405.983 4.81 1.965 7.543 3.58 24.484 10.419 37.476 29.575 41.723 56.597 1.55-2.896 2.467-4.608 3.893-6.734 4.57-10.295 10.038-20.297 13.523-30.947 7.16-21.88 6.77-43.504-5.829-63.775-4.888-7.865-4.925-7.84-12.89-3.84-.142.072-.323.068-1.26-.11-3.83 2.31-7.66 4.622-12.364 7.038-3.564-.323-7.128-.646-11.148-1.51m5.501 116.936c9.25 3.295 15.573-1.402 15.464-11.487-.306-28.366-19.714-53.368-47.24-60.38-10.772-2.744-21.515-2.917-31.052 4.14-8.583 6.35-10.732 18.075-4.91 26.186 6.453-8.085 15.002-11.478 25.11-10.593 20.07 1.757 36.96 20.175 37.127 40.445.038 4.594.741 8.599 5.501 11.69m21.186 38.84c-3.467.085-7.019.703-10.386.165-20.524-3.278-34.426-19.5-35.327-40.852-.326-7.73-4.527-12.556-10.758-12.36-6.245.196-10.108 5.15-10.082 12.93.088 27.134 18.244 51.764 44.165 59.565 10.268 3.09 20.514 3.664 30.699-1.018 8.858-4.073 16.491-20.585 9.38-27.336-5.901 3.067-11.385 5.918-17.69 8.907m-35.065 103.81c1.31 16.876 8.824 25.016 24.39 26.888 4.121.496 4.775-1.967 4.27-4.642-.2-1.063-2.918-1.847-4.608-2.396-4.633-1.506-9.379-2.683-13.945-4.358-.682-.25-.635-2.485-.925-3.802 1.32-.15 3.207-.94 3.87-.35 4.94 4.397 10.961 2.211 17.128 4.155-4.176-9.901 1.314-16.335 5.472-23.42-5.023-1.428-10.017-2.314-14.498-4.336-2.475-1.117-4.622-3.888-5.827-6.43-.472-.998 2.037-3.407 3.189-5.173.714 1.683 1.422 3.368 2.147 5.047.125.29.317.55.727 1.245l9.737 2.754 1.165-4.123-5.756-3.731 3.585-3.97c-.235-2.086-.842-4.544-.708-6.961.206-3.737-1.278-5.408-4.941-5.996-7.6-1.22-21.668 5.012-25.3 11.537-.367.66-.535 1.537-.498 2.299.408 8.281.874 16.56 1.326 25.762m-16.13-316.148c1.357.929 2.982 1.64 3.976 2.863.663.815.427 2.361.594 3.58-1.326.108-2.747.578-3.963.261-5.303-1.381-10.546-2.992-17.268-4.941 4.536 10.488-.933 17.058-5.134 24.23 5.027 1.437 9.814 2.351 14.185 4.232 2.441 1.05 4.672 3.423 6.044 5.76.649 1.104-.782 3.602-1.622 5.294-.224.45-2.423.584-2.559.304-.757-1.568-1.16-3.308-1.98-5.941l-9.607-2.783-1.126 4.22 5.609 3.324-3.373 4.644c.208 2.037.748 4.498.637 6.93-.16 3.53 1.307 5.04 4.724 5.632 7.596 1.318 22.45-5.263 25.7-11.685.274-.541.364-1.244.332-1.86-.484-9.102-1.063-18.199-1.499-27.303-.73-15.249-9.324-24.147-24.508-25.616-3.047-.295-4.272 1.268-4.095 3.48.101 1.257 2.01 3.02 3.412 3.393 3.493.928 7.162 1.191 11.521 1.982m119.719 304.613c-1.643 1.191-2.586 2.32-.888 4.4 1.965 2.408 3.541 5.132 5.298 7.736 25.757-22.178 24.266-66.013-.16-85.868l-6.62 9.941c6.145 4.985 7.898 11.111 5.758 18.134-2.102 6.896-7.864 9.796-14.146 11.841h22.286c-.876-4.128-1.874-7.815-2.348-11.569-.192-1.52.757-3.186 1.186-4.786 1.302 1.17 3.357 2.113 3.786 3.544 3.178 10.604 3.281 21.32-.127 31.902-.42 1.305-2.312 2.137-3.522 3.188-.482-1.552-1.518-3.171-1.338-4.643.474-3.881 1.475-7.698 2.281-11.611H262.02c15.039 5.332 19.535 15.713 11.063 27.791M41.108 156.197c2.087 13.065 8.259 23.904 17.914 33.502l6.835-10.262c-5.506-5.029-8.152-10.814-5.761-18.038 2.314-6.994 7.93-10.212 14.508-12.138H52.141c.8 4.066 1.75 7.743 2.154 11.478.173 1.595-.79 3.313-1.237 4.975-1.236-1.07-3.186-1.92-3.596-3.246-3.33-10.772-3.385-21.652.093-32.401.408-1.263 2.415-2.009 3.68-2.994.416 1.55 1.332 3.16 1.15 4.636-.478 3.864-1.436 7.667-2.236 11.657h23.914c-18.358-6.992-21.824-18.059-10.237-30.096l-6.887-10.222c-14.937 14.764-20.387 32.186-17.83 53.149m213.442 122.69c-1.633-3.797.759-4.467 3.595-4.283 3.12.202 6.211.829 9.315 1.27l.441-1.306c-2.79-1.17-5.66-2.185-8.332-3.58-1.19-.622-1.978-2.01-2.949-3.05 1.297-.66 2.558-1.76 3.898-1.867 1.727-.14 3.518.515 5.28.828l.138-1.845c-13.075-4.466-26.691-1.144-38.937-2.234-.739 6.758-2.813 12.907-1.703 18.413 1.938 9.607 7.275 17.842 15.204 24.083 3.483-4.788-3.574-13.963 5.81-14.53 13.601-.824 13.85-1.79 16.43 6.38l4.41-4.395c-1.533-1.073-2.93-2.578-4.633-3.11-2.174-.68-4.664-.31-6.883-.901-1.474-.393-2.711-1.677-4.055-2.562 1.475-.89 2.961-2.544 4.423-2.522 3.92.057 7.83.832 11.743 1.321-1.002-2.005-2.46-3.545-4.23-4.114-2.644-.85-5.509-1.016-8.965-1.997m-19.268-21.326h5.928v-22.04c-6.098 5.878-12.09 11.594-17.978 17.413-.655.648-1.222 2.1-.929 2.803.34.82 1.643 1.667 2.581 1.732 3.143.216 6.31.088 10.398.092M94.99 259.493v10.385l20.2-20.147c-6.58-2.483-13.353-.697-20.2-1.338v11.1m87.517 95.34-3.466-16.158c-6.423 6.814-11.264 19.623-10.541 26.926 4.264-2.21 8.68-4.37 12.93-6.82.78-.45.878-2.079 1.077-3.948M158.095 166.87c6.37-7.408 9.546-15.956 10.107-26.41-4.404 2.378-7.701 4.598-11.32 5.972-2.881 1.095-3.305 2.599-2.707 5.208 1.14 4.973 2.137 9.979 3.92 15.23M137.34 399.455c1.103 8.177 1.814 16.48 6.807 23.378l-4.077-31.388-1.1-.274c-.543 2.494-1.087 4.988-1.63 8.284m-31.753-262.844c-.416-.392-1.08-1.194-1.21-1.116-2.79 1.692-5.576 3.405-8.223 5.308-.694.498-.922 1.643-1.541 2.833h12.824c-.655-2.282-1.24-4.32-1.85-7.025m125.59 211.824-1.578 8.346h11.653l.58-.913c-3.303-2.49-6.607-4.979-10.656-7.433m7.654 13.688h-9.47l3.06 7.629c2.608-1.466 5.047-2.8 7.449-4.2 2.143-1.248 2.726-2.468-1.04-3.43M95.032 150.113l9.226 6.696 2.653-7.52c-4.093 0-7.875 0-11.88.825m106.155-30.116c-1.356.12-2.711.24-4.498.4l4.92 10.04c4.195-5.016 4.16-7.074-.422-10.44M139.373 383.85l-4.617-8.054c-2.648 2.852-4.235 5.824-1.36 9.094 1.918 2.18 4.425 3.076 5.977-1.04m68.125-271.885c-3.676 4.856 1.217 5.71 3.838 8.619 1.064-4.26 1.276-7.233-3.838-8.62z"/><path fill="#313131" d="M91 493.038c-25.828 0-51.157-.081-76.485.073-4.714.029-6.473-1.548-6.47-6.347.085-116.644.067-233.288.067-349.932v-3.62h5.372v354.553H258.28l.32 5.273H91zM238 18.038H78.368v-4.86c1.395-.076 2.69-.207 3.983-.207 63.327-.01 126.653-.009 189.98-.01 16.664 0 33.33.103 49.993-.068 4.424-.045 6.32 1.336 6.318 5.98-.072 117.154-.058 234.308-.065 351.462 0 .654-.082 1.309-.155 2.386l-5.18.407V18.038H238z"/><path fill="currentColor" d="M83.936 465.101c-8.899 1.889-15.294-1.514-20.571-8.314-4.472 5.766-10.074 9.478-17.491 8.833-13.453-1.172-21.754-14.021-15.986-26.429 3.167-6.81 8.96-12.598 14.294-18.15 6.174-6.424 13.147-12.081 19.075-17.44 7.246 6.496 15.353 13.276 22.845 20.679 4.071 4.022 8.008 8.675 10.41 13.793 5.443 11.592.003 22.799-12.576 27.028zM262.157 91.834c-6.205-5.793-12.652-10.923-17.87-17.092-3.045-3.601-4.975-8.698-5.898-13.417-1.532-7.83 3.414-15.872 10.548-19.195 7.07-3.293 15.641-1.821 21.252 3.658 1.063 1.037 2.104 2.097 3.293 3.285 5.88-7.756 13.55-10.69 22.794-7.412 11.704 4.15 16.135 18.223 8.597 29.415-4.283 6.36-10.409 11.52-15.931 16.99-5.161 5.114-10.62 9.926-14.057 13.116-3.684-2.698-8.07-5.91-12.728-9.348zM301.638 400.649c2.35-2.364 4.437-4.494 6.357-6.455 3.854 3.43 7.673 6.564 11.161 10.03 2.204 2.19 4.338 4.657 5.752 7.389 2.343 4.527 1.112 9.426-2.67 12.054-4.003 2.783-8.094 2.595-12.007-.35-.635-.477-1.199-1.05-1.734-1.523-1.662 1.116-3.044 2.458-4.697 3.07-3.883 1.438-7.617.924-10.529-2.253-3.192-3.484-3.622-7.85-1.216-11.533 2.484-3.805 6.163-6.83 9.583-10.43zM41.336 97.273c-4.548 4.14-8.842 8.022-13.01 11.791-3.079-2.787-6.574-5.808-9.895-9.008-2.139-2.061-4.348-4.174-5.953-6.637-3.056-4.69-2.1-10.329 1.852-13.47 4.07-3.235 8.727-2.659 13.348 1.296 3.1-1.16 5.848-2.926 8.698-3.109 7.378-.474 11.764 6.907 8.525 13.939-.82 1.778-2.193 3.3-3.565 5.198zM23.976 52.387c.036-12.239.036-24.038.036-35.399-1.737-2.366-7.13-.3-5.457-5.658h20.583c-1.553 1.938-2.248 3.702-3.313 3.964-3.069.755-3.228 2.761-3.241 5.245-.059 10.484-.113 20.97-.346 31.45-.187 8.371-5.45 12.831-12.702 15.43-.912.326-2.199-.396-3.311-.632.315-1.13.403-2.394.985-3.363 2.156-3.585 4.474-7.072 6.766-11.037zM303.992 465.004c.269-5.802.115-11.171.915-16.394.947-6.178 7.21-12.025 13.134-12.802 1.003-.132 2.212 1.308 4.169 2.56-9.515 4.902-10.157 12.778-10.055 21.036.096 7.82.076 15.642-.012 23.461-.031 2.767.261 4.86 3.707 5.321 1.025.138 1.844 1.817 3.631 3.72h-21.554c1.027-1.584 1.637-3.526 2.459-3.62 3.926-.45 3.656-3.06 3.625-5.811-.063-5.657-.019-11.314-.019-17.47z"/><path fill="#F9CB1A" d="M202.155 137.134c.164-.031.345-.027.488-.099 7.964-4 8.001-4.025 12.889 3.84 12.6 20.271 12.988 41.895 5.83 63.775-3.486 10.65-8.953 20.652-13.863 30.751-5.208-23.497-18.525-39.986-40.316-49.547-1.57-.689-3.517-.521-5.289-.752-2.405-.983-4.81-1.965-7.377-3.393 14.582-8.97 21.344-22.497 23.809-38.715 3.564.323 7.128.646 11.534.977 5.903-.194 9.962-2.071 12.295-6.837zM134.473 369.05c-9.195 3.321-9.23 3.342-14.563-5.942-11.666-20.308-11.352-41.635-4.253-63.04 3.317-10.002 8.499-19.384 13.302-28.913 5.092 20.321 15.999 35.924 34.256 46.034 2.364 1.31 5.185 1.791 7.795 2.656 3.433 1.378 6.866 2.756 10.461 4.51-13.86 9.3-20.533 22.763-23.418 38.564-4.34-.282-8.682-.565-13.834-.787-3.79 2.347-6.768 4.633-9.746 6.919z"/><path fill="#F8F8F8" d="M183.036 259.204c-4.425-2.905-5.128-6.91-5.166-11.504-.167-20.27-17.056-38.688-37.127-40.445-10.108-.885-18.657 2.508-25.11 10.593-5.822-8.11-3.673-19.836 4.91-26.186 9.537-7.057 20.28-6.884 31.053-4.14 27.525 7.012 46.933 32.014 47.24 60.38.108 10.085-6.216 14.782-15.8 11.302z"/><path fill="#F8F8F9" d="M204.968 298.162c5.895-2.92 11.379-5.77 17.28-8.838 7.111 6.75-.522 23.263-9.38 27.336-10.185 4.682-20.43 4.109-30.699 1.018-25.92-7.8-44.077-32.43-44.165-59.566-.026-7.78 3.837-12.733 10.082-12.93 6.231-.195 10.432 4.63 10.758 12.36.901 21.354 14.803 37.575 35.327 40.853 3.367.538 6.92-.08 10.797-.233z"/><path fill="#C73213" d="M105.024 355.006c-21.522-10.953-30.88-32.23-22.128-53.6 7.119-17.382 19.445-30.835 33.545-43.074 2.197 1.753 3.902 3.294 5.695 4.913-.919 1.614-1.741 3.036-2.543 4.47-15.292 27.355-24.293 55.76-14.57 87.291z"/><path fill="#244CC1" d="M231.208 150.367c23.467 13.225 34.26 35.82 18.173 63.573-7.521 12.974-17.742 23.648-29.087 33.648-2.215-1.645-3.944-3.15-5.738-4.71 16.437-29.045 28.044-58.737 16.652-92.511z"/><path fill="#F9F9F9" d="M169.493 401.579c-.452-8.741-.918-17.02-1.326-25.301-.037-.762.13-1.64.498-2.299 3.632-6.525 17.7-12.758 25.3-11.537 3.663.588 5.147 2.259 4.94 5.996-.133 2.417.474 4.875.709 6.96l-3.585 3.971 5.756 3.731-1.165 4.123-9.737-2.754c-.41-.696-.602-.956-.727-1.245-.725-1.679-1.433-3.364-2.147-5.047-1.152 1.766-3.661 4.175-3.189 5.172 1.205 2.543 3.352 5.314 5.827 6.43 4.481 2.023 9.475 2.909 14.498 4.338-4.158 7.084-9.648 13.518-5.472 23.42-6.167-1.945-12.188.24-17.129-4.156-.662-.59-2.55.2-3.87.35.29 1.317.244 3.552.926 3.802 4.566 1.675 9.312 2.852 13.945 4.358 1.69.55 4.408 1.333 4.608 2.396.505 2.675-.149 5.138-4.27 4.642-15.566-1.872-23.08-10.012-24.39-27.35m21.02 10.62c.503-2.364 1.129-4.713 1.395-7.103.048-.426-1.383-1.404-2.15-1.426-.803-.023-2.273.724-2.337 1.267-.323 2.725-1.952 6.018 3.092 7.262zM152.983 85.762c-3.979-.661-7.648-.924-11.14-1.852-1.404-.373-3.312-2.136-3.413-3.393-.177-2.212 1.048-3.775 4.095-3.48 15.184 1.47 23.779 10.367 24.508 25.616.436 9.104 1.015 18.201 1.499 27.303.032.616-.058 1.319-.331 1.86-3.25 6.422-18.105 13.003-25.701 11.685-3.417-.592-4.884-2.102-4.724-5.632.11-2.432-.43-4.893-.637-6.93l3.373-4.644-5.61-3.323 1.127-4.22 9.606 2.782c.821 2.633 1.224 4.373 1.981 5.941.136.28 2.335.147 2.559-.304.84-1.692 2.27-4.19 1.622-5.295-1.372-2.336-3.603-4.709-6.044-5.76-4.371-1.88-9.158-2.794-14.185-4.231 4.201-7.172 9.67-13.742 5.134-24.23 6.722 1.95 11.965 3.56 17.268 4.941 1.216.317 2.637-.153 3.963-.26-.167-1.22.069-2.766-.594-3.581-.994-1.224-2.62-1.934-4.356-2.993m-8.877 11.127c.149 2.508-.716 5.847 3.527 5.388.77-.083 1.898-2.237 1.835-3.379-.096-1.735-1.088-3.42-1.7-5.128-1.202.785-2.404 1.57-3.662 3.119z"/><path fill="#C83213" d="M203.945 291.877c-9.392 4.547-17.079-.357-24.313-5.082-9.298-6.074-13.787-15.424-15.424-26.311-.531-3.536 1.9-3.667 4.496-4.166 3.296 4.638 6.11 8.97 12.265 8.54 9.46 3.778 19.278-.733 22.371-10.266.457-1.407.982-2.793 1.987-4.302a20.795 20.795 0 0 1 4.29 3.803c11.254 13.044 8.813 29.233-5.672 37.784z"/><path fill="#244CC1" d="M154.829 241.116c-2.09-.374-4.166-.917-6.273-1.093-6.762-.567-13.658 4.649-15.469 11.525-.37 1.402-.864 2.772-1.87 4.159-8.672-7.822-14.028-16.918-9.746-28.318 1.855-4.941 6.307-8.907 9.58-13.315 15.968-4.96 34.799 6.575 39.862 24.466.54 1.908.749 3.907 1.16 5.853.68 3.21-.494 5.14-4.292 5.302-3.109-5.421-6.626-9.126-12.952-8.579z"/><path fill="#F7F7F7" d="M273.333 390.235c8.221-11.808 3.725-22.19-11.314-27.521h22.51c-.807 3.913-1.808 7.73-2.282 11.611-.18 1.472.856 3.091 1.338 4.643 1.21-1.05 3.101-1.883 3.522-3.188 3.408-10.582 3.305-21.298.127-31.902-.43-1.43-2.484-2.374-3.786-3.544-.43 1.6-1.378 3.265-1.186 4.786.474 3.754 1.472 7.44 2.348 11.569h-22.286c6.282-2.045 12.044-4.945 14.146-11.84 2.14-7.024.387-13.15-5.757-18.135l6.618-9.94c24.427 19.854 25.918 63.689.161 85.867-1.757-2.604-3.333-5.328-5.298-7.736-1.698-2.08-.755-3.209 1.14-4.67z"/><path fill="#F6F6F6" d="M41.058 155.764c-2.506-20.53 2.944-37.952 17.881-52.716l6.887 10.222c-11.587 12.037-8.121 23.104 10.237 30.096H52.149c.8-3.99 1.758-7.793 2.235-11.657.183-1.475-.733-3.087-1.149-4.636-1.265.985-3.272 1.73-3.68 2.994-3.478 10.75-3.423 21.63-.093 32.4.41 1.327 2.36 2.176 3.596 3.247.447-1.662 1.41-3.38 1.237-4.975-.405-3.735-1.354-7.412-2.154-11.478h22.463c-6.578 1.926-12.194 5.144-14.508 12.138-2.391 7.224.255 13.01 5.761 18.038L59.022 189.7c-9.655-9.598-15.827-20.437-17.964-33.935z"/><path fill="#F7F7F7" d="M254.894 279.148c3.113.719 5.978.885 8.623 1.735 1.77.569 3.227 2.109 4.23 4.114-3.914-.49-7.824-1.264-11.744-1.321-1.462-.022-2.948 1.632-4.423 2.522 1.344.885 2.58 2.169 4.055 2.562 2.219.59 4.71.22 6.883.9 1.702.533 3.1 2.038 4.633 3.111l-4.41 4.396c-2.58-8.171-2.829-7.205-16.43-6.381-9.384.567-2.327 9.742-5.81 14.53-7.93-6.24-13.266-14.476-15.204-24.083-1.11-5.506.964-11.655 1.703-18.413 12.246 1.09 25.862-2.232 38.937 2.234l-.137 1.845c-1.763-.313-3.554-.968-5.28-.828-1.341.108-2.602 1.207-3.899 1.866.97 1.04 1.76 2.429 2.95 3.05 2.671 1.396 5.542 2.41 8.331 3.58l-.441 1.307c-3.104-.441-6.196-1.068-9.315-1.27-2.836-.184-5.228.486-3.252 4.544z"/><path fill="#FBFBFB" d="M76.982 215.185c4.48.107 8.961.25 13.442.31 3.37.044 4.728-1.763 4.61-5.045-.114-3.152-.025-6.312-.025-10.15 5.83 3.519 9.199 8.463 12.159 13.784 2.906 5.225 5.362 10.261 3.225 16.77-1.17 3.562-.209 7.823-.209 12.461-12.851-1.7-26.822 2.8-39.943-2.976l.155-1.416c2.06.398 4.122 1.093 6.18 1.081 1.171-.007 2.336-1.167 3.504-1.808-.91-1.078-1.613-2.55-2.77-3.153-2.67-1.394-5.558-2.367-8.358-3.511l.429-1.3c2.785.359 5.59 1.086 8.35.942 1.72-.09 3.372-1.496 5.054-2.312-1.482-.918-2.874-2.386-4.464-2.645-3.74-.61-7.522-.75-10.094-5.294 4.292.558 7.825 1.36 11.353 1.337 1.854-.012 3.7-1.465 5.549-2.268-1.746-.974-3.46-2.009-5.254-2.885-.549-.268-1.31-.1-2.393-.483-.446-.714-.473-1.076-.5-1.439z"/><path fill="#254CC1" d="m196.647 349.007-9.09 3.618c-1.265-6.034-2.58-11.19-3.296-16.43-.213-1.554.82-4.283 2.041-4.856 5.178-2.43 10.488-5.216 16.031-6.097 11.898-1.891 21.1-6.808 26.553-18.354 2.498 1.473 4.41 3.002 6.391 4.585-.69 1.28-1.208 2.31-1.785 3.305-8.782 15.175-20.867 26.799-36.845 34.23z"/><path fill="#C73315" d="m138.968 157.139 10.23-2.983c1.304 6.15 2.61 11.418 3.412 16.762.18 1.194-1.089 3.352-2.232 3.868-5.077 2.29-10.2 5.149-15.584 5.953-12.089 1.806-21.463 6.697-26.98 18.462-2.499-1.463-4.416-2.998-6.47-4.644 7.557-13.857 17.218-25.52 30.96-33.438 2.242-1.292 4.444-2.652 6.664-3.98z"/><path fill="#F8CA19" d="m253.999 384.142-6.774.302v-88.553c2.028 0 3.965 0 6.369.553.446 29.6.426 58.65.405 87.698z"/><path fill="#F7CA1A" d="m82.828 121.865 6.79-.33v88.57c-2.035 0-3.98 0-6.39-.555-.443-29.598-.421-58.642-.4-87.685z"/><path fill="#264DBF" d="M167.02 419.16c6.174 8.492 13.914 14.26 24.857 14.998 1.46.098 2.796 2.062 4.19 3.162-1.325.92-2.528 2.295-3.994 2.687-8.383 2.242-20.158-2.646-25.97-10.958-7.584-10.845-9.29-23.106-8.862-36.097.185-5.615-1.471-11.35-2.803-16.907-.259-1.083-3.042-2.454-4.379-2.202-2.893.547-2.057 2.608-.992 4.607.408.765-.064 1.999-.135 3.019-1.077-.145-2.34.022-3.197-.49-3.066-1.83-4.303-4.444-2.903-8.022 1.553-3.969 5.399-6.56 8.818-5.615 1.732.479 3.365 1.314 5.306 2.673.873.76 1.484.835 2.094.91 0 0-.037.06-.33.34.873 4.56 2.668 8.781 3.06 13.13.595 6.571-.152 13.259.36 19.843.409 5.245.105 10.993 4.88 14.922z"/><path fill="#274EBF" d="m163.23 79.37-23.32-9.721c2.497-3.824 8.556-4.962 15.287-3.089 13.793 3.84 19.854 14.384 22.593 27.167 1.303 6.084.753 12.545 1.381 18.8.559 5.56 1.052 11.223 2.569 16.557 1.32 4.64 3.352 4.66 6.85.983l-1.661-4.027c4.862-1.713 8.038.203 7.015 4.785-.628 2.814-2.999 5.861-5.459 7.473-2.567 1.682-6.114 1.466-8.78-2.29-5.383-7.55-4.496-15.568-4.979-23.473-.498-8.139-1.72-16.297-3.48-24.257-.542-2.449-3.893-4.276-5.958-6.388 0 0-.206-.078-.442-.37-.696-.91-1.156-1.53-1.615-2.15z"/><path fill="#F1F2F6" d="M231.045 150.192c11.555 33.949-.052 63.64-16.489 92.686 1.794 1.56 3.523 3.065 5.45 4.861-1.059.484-2.739 1.28-3.491.754-2.287-1.601-4.216-3.714-6.469-5.799 17.275-29.755 28.457-60.605 14.872-96.59 2.613 1.714 4.288 2.814 6.127 4.088z"/><path fill="#F7F1F0" d="M105.004 355.002c-9.704-31.526-.703-59.932 14.589-87.287.802-1.434 1.624-2.856 2.543-4.47-1.793-1.62-3.498-3.16-5.39-5.005.889-.56 2.384-1.393 2.972-.969 2.397 1.732 4.516 3.848 6.916 5.981-17.245 29.792-28.476 60.59-14.933 96.584-2.58-1.532-4.017-2.385-5.697-3.77-.497-.723-.752-.914-1.007-1.106 0 0-.012.038.007.042z"/><path fill="#F8CA1C" d="M171.172 40.155c8.086-.701 12.655 3.816 11.845 11.718a17.673 17.673 0 0 1-.288 1.961c-2.449 11.23-3.993 12.17-15.093 9.256-.79-.208-1.626-.244-2.893-1.03-1.844-8.943 1.034-15.831 6.429-21.905zM163.692 466.295c-8.167-1.453-11.115-5.513-9.758-13.527.219-1.296.52-2.614 1.025-3.82 3.99-9.502 3.049-9.72 11.783-5.988 1.597.682 3.481.692 5.72 1.491-.046 8.707-.55 16.947-8.77 21.844z"/><path fill="#EDEDED" d="M234.817 257.56c-3.623-.004-6.79.124-9.932-.092-.938-.065-2.24-.913-2.581-1.732-.293-.704.274-2.155.929-2.803 5.888-5.82 11.88-11.535 17.978-17.413v22.04h-6.394z"/><path fill="#F3F3F3" d="M94.991 259.005v-10.612c6.847.64 13.62-1.145 20.2 1.338l-20.2 20.147v-10.873z"/><path fill="#FEF6D9" d="M82.393 121.74c.414 29.168.392 58.212.375 87.72-2.297 1.186-2.819.153-2.815-2.007.05-27.764.016-55.529.117-83.292.003-.852 1.231-1.698 2.323-2.422z"/><path fill="#F3F2EB" d="M162.058 185.418c1.608-.085 3.554-.253 5.125.436 21.791 9.561 35.108 26.05 40.06 49.754-.831 2.115-1.748 3.827-3.298 6.723-4.247-27.022-17.239-46.178-41.887-56.913z"/><path fill="#F6F4EE" d="M170.91 319.522c-2.51-.542-5.331-1.024-7.695-2.333-18.257-10.11-29.164-25.713-33.973-46.269.881-2.351 1.947-4.334 3.27-6.798 1.464 5.831 2.417 11.044 4.085 16.017 5.95 17.737 18.03 30.224 34.313 39.383z"/><path fill="#F3C71B" d="m82.824 248.859 7.1-.606c0 10.096.557 19.866-.295 29.511-.31 3.502-3.985 6.706-6.477 9.772-.344-13.075-.336-25.876-.328-38.677z"/><path fill="#F4C71A" d="M248.8 257.563c-.646-1.327-1.821-2.643-1.852-3.984-.18-7.808-.804-15.714.19-23.397.548-4.238 3.965-8.104 6.438-11.976.349 13.07.349 25.978.349 39.035l-5.125.322z"/><path fill="#EAECF1" d="M197.083 349.014c15.542-7.437 27.627-19.06 36.41-34.236.576-.995 1.094-2.024 1.784-3.305-1.98-1.583-3.893-3.112-6.138-4.85-.187-1.468-.042-2.728.134-4.253l10.634 9.391c-8.87 16.183-20.797 29.452-38.529 36.706-1.166.478-2.567.382-4.295.547z"/><path fill="#F4EFEE" d="M138.582 157.04c-1.834 1.427-4.036 2.787-6.278 4.079-13.742 7.918-23.403 19.58-30.96 33.438a550.156 550.156 0 0 0 6.215 4.928c.187 1.306.048 2.4-.165 4.076l-10.738-9.408c9.96-16.617 21.671-31.369 41.926-37.114z"/><path fill="#F5F5F5" d="M182.616 355.225c-.307 1.477-.406 3.107-1.186 3.556-4.248 2.45-8.665 4.61-12.93 6.82-.722-7.303 4.119-20.112 10.542-26.926 1.197 5.58 2.332 10.87 3.574 16.55z"/><path fill="#EEF0F2" d="M130.69 213.946c-2.912 4.536-7.364 8.502-9.22 13.443-4.281 11.4 1.075 20.496 9.456 28.536-.605.758-1.978 1.978-2.3 1.745-12.807-9.259-19.164-26.077-6.612-38.708 2.234-2.249 5.516-3.456 8.676-5.016z"/><path fill="#F6F6F6" d="M157.732 166.74c-1.42-5.121-2.417-10.127-3.557-15.1-.598-2.61-.174-4.113 2.707-5.208 3.619-1.374 6.916-3.594 11.32-5.973-.561 10.455-3.738 19.003-10.47 26.281z"/><path fill="#F5F0EE" d="M204.349 291.93c14.081-8.604 16.522-24.793 5.267-37.837-1.183-1.37-2.515-2.613-4.045-4.103.685-.693 2.153-1.88 2.513-1.606 7.39 5.61 12.899 12.508 13.201 22.256.283 9.12-3.95 15.884-11.838 20.297-1.34.75-3.12.716-5.098.993z"/><path fill="#F3F2EB" d="M158.347 363.149c2.591-16.031 9.264-29.495 23.444-38.704 1.404-.286 2.652-.286 4.924-.286-15.123 10.057-21.857 24.11-24.133 41.31-1.481-.785-2.711-1.438-4.235-2.32z"/><path fill="#F7F6F0" d="M178.098 142.723c-2.237 16.49-8.999 30.015-23.916 38.826-.661.377-1.149.535-1.64.543-.484.008-.972-.134-2.369-.352 15.026-9.967 21.673-24.211 23.97-41.328 1.343.735 2.535 1.388 3.955 2.311z"/><path fill="#FEF7E1" d="M254.47 384.242c-.45-29.149-.43-58.197-.425-87.71.808.53 2.347 1.52 2.352 2.517.13 27.391.122 54.784.04 82.176-.003 1.04-.975 2.079-1.967 3.017z"/><path fill="#D5D9E4" d="M165.426 82.197c1.927 1.805 5.278 3.632 5.82 6.08 1.76 7.961 2.982 16.119 3.48 24.258.483 7.905-.404 15.924 4.788 23.136-1.71-1.706-4.807-3.447-5.261-5.718-1.253-6.263-1.837-12.743-1.885-19.144-.077-10.033-.048-19.94-6.942-28.612z"/><path fill="#D8D4C5" d="M248.966 257.455c1.313.015 2.79-.078 4.959-.214 0-13.057 0-25.965-.071-39.322.545-1.683 1.162-2.916 1.778-4.15l.698.28v43.298c-2.636 0-4.917 0-7.364.108z"/><path fill="#2B4EBA" d="M156.08 427.973c-6.307-4.13-7.473-11.078-8.699-17.523-1.195-6.283-1.047-12.855-1.062-19.302-.003-1.381 1.829-2.767 3.216-3.682.283 4.75-.564 9.165.196 13.284 1.689 9.154 4.183 18.158 6.349 27.223z"/><path fill="#F3C820" d="m201.55 63.778 7.423 2.17c-3.828 4.155-6.921 7.512-10.542 10.754-3.21-2.105-5.893-4.097-8.73-6.203l7.245-5.654s.066.086.354.18c1.106-.301 1.923-.698 2.741-1.094 0 0-.017.093.19-.035.579-.125.949-.121 1.319-.118zM138.947 440.923c-3.863 3.124-6.967 1.249-10.498-1.657 3.173-3.459 6.172-6.728 9.737-9.978 3.288 2.039 6.01 4.059 9.189 6.417l-8.428 5.218z"/><path fill="#F3C71B" d="M139.653 41.845c7.89 3.296 8.883 10.881 11.683 18.27-3.562 0-6.496 0-9.867-.522-.897-6.263-1.356-12.006-1.816-17.748z"/><path fill="#F8CA1C" d="M196.926 464.075c-7.64-3.346-8.906-10.626-11.445-18.188 3.481 0 6.352 0 9.701.53.901 6.24 1.322 11.949 1.744 17.658z"/><path fill="#FEF6D9" d="M82.389 248.736c.427 12.924.419 25.725.484 39.013-.611 1.986-1.294 3.485-1.978 4.984l-.91-.017v-8.11c0-10.647-.07-21.294.088-31.938.02-1.36 1.225-2.704 2.316-3.932z"/><path fill="#264DBF" d="M180.779 78.113c2.153 3.358 4.914 6.48 6.338 10.123 3.489 8.925 4.052 18.34 2.875 27.814-.13 1.05-1.477 1.949-2.657 2.436-1.028-9.574-1.308-18.71-2.44-27.74-.54-4.315-2.693-8.428-4.116-12.633z"/><path fill="#E0E4EF" d="M137.34 399.054c.543-2.895 1.087-5.389 1.63-7.883l1.1.274 4.077 31.388c-4.993-6.899-5.704-15.2-6.808-23.779z"/><path fill="#DCDFE8" d="M180.813 78.08c1.389 4.238 3.543 8.35 4.083 12.666 1.13 9.03 1.41 18.166 2.025 27.723-4.208 1.79-2.348-1.64-2.454-2.964-.62-7.7-.12-15.61-1.734-23.074-1.39-6.437-5.095-12.374-7.683-19.065.208-.672.324-.811.44-.95 1.26 1.304 2.52 2.61 4.044 4.439.644.756 1.025.987 1.406 1.218 0 0-.092-.024-.127.008z"/><path fill="#F6F4EE" d="M163.99 466.502c7.921-5.104 8.426-13.344 8.87-21.996 1.526-.192 3.142.04 6.154.473-1.983 5.937-3.45 11.592-5.782 16.864-1.521 3.437-4.785 5.402-9.242 4.66z"/><path fill="#EAECF1" d="M167.12 418.748c-4.875-3.517-4.571-9.265-4.98-14.51-.512-6.584.235-13.272-.36-19.843-.392-4.349-2.187-8.57-3.03-13.149 1.97 3.657 4.445 7.49 5.064 11.6.858 5.7-.05 11.643.48 17.419.557 6.062 1.917 12.05 2.826 18.483z"/><path fill="#E6E8EF" d="M156.06 427.989c-2.146-9.081-4.64-18.085-6.33-27.239-.76-4.119.088-8.534.208-13.265 3.825-1.388 2.107 1.64 2.19 2.918.458 7.087-.054 14.329 1.24 21.242 1.131 6.052 4.195 11.745 6.436 17.585.426 1.112.995 2.169.724 3.8-.557-.5-1.115-.999-2.007-2.048-1.05-1.375-1.766-2.2-2.482-3.025 0 0 0 .047.02.032z"/><path fill="#F7F6F0" d="M170.766 40.087c-4.989 6.142-7.867 13.03-6.266 21.653-1.691.024-3.593-.303-6.814-.858 1.969-5.938 3.278-11.534 5.751-16.556 1.02-2.07 4.54-2.91 7.33-4.24z"/><path fill="#F3F2EB" d="M197.21 464.35c-.706-5.984-1.127-11.693-1.604-17.86 1.229-.71 2.513-.96 4.463-1.341l1.919 19.81c-1.736-.128-3.115-.23-4.779-.608zM139.373 41.604c.74 5.983 1.199 11.726 1.649 17.912-1.396.68-2.782.913-4.563 1.214l-1.702-19.65c1.647.108 2.99.196 4.616.524z"/><path fill="#E0E4EF" d="M197.954 113.995c-.717-.307-2.024-.551-2.065-.93-1.033-9.634-1.934-19.281-2.874-29.088.71 1.282 1.519 2.743 2.523 4.858.589 1.513.982 2.37 1.376 3.227 0 0 .013-.081-.152.37.287 7.49.74 14.527 1.192 21.563z"/><path fill="#E8E8E8" d="M105.6 136.945c.598 2.371 1.182 4.409 1.837 6.69H94.613c.62-1.189.847-2.334 1.54-2.832 2.648-1.903 5.434-3.616 8.223-5.308.13-.078.795.724 1.224 1.45z"/><path fill="#F5F0EE" d="m145.504 445.98 5.338-3.353-3.461 16.376c-1.138-.679-2.48-1.48-3.89-2.92.624-3.795 1.318-6.948 2.013-10.102z"/><path fill="#F4EFEE" d="m191.12 60.214-5.388 3.098 3.568-16.53c.916.645 2.214 1.56 3.63 3.198-.526 3.893-1.168 7.063-1.81 10.234z"/><path fill="#E8E8E8" d="M139.355 441.007c2.293-1.756 4.993-3.428 8.02-5.302-3.179-2.358-5.901-4.378-8.89-6.59.935-.415 2.513-1.234 3.27-.755 3.343 2.111 6.448 4.596 10.82 7.815-4.713 1.808-8.763 3.362-13.22 4.832z"/><path fill="#F5F5F5" d="M231.548 348.418c3.677 2.471 6.98 4.96 10.285 7.45l-.581.913h-11.653c.518-2.74 1.047-5.543 1.95-8.363z"/><path fill="#E8E8E8" d="M239.239 362.126c3.356.958 2.773 2.178.63 3.427-2.402 1.399-4.841 2.733-7.448 4.199l-3.06-7.63c3.346 0 6.407 0 9.878.004z"/><path fill="#F4F1E6" d="M196.623 64.578c-1.937 2.03-4.196 3.794-6.921 5.921 2.836 2.106 5.518 4.098 8.443 6.352-.863.518-2.35 1.36-3.008.93-3.445-2.248-6.679-4.818-10.638-7.761 4.163-2.014 7.982-3.862 12.124-5.442z"/><path fill="#C43618" d="m187.155 468-11.964 1.422c2.027-3.677 3.498-6.346 5.339-8.977 2.455 2.543 4.54 5.05 6.625 7.555z"/><path fill="#F5F5F5" d="M95.142 149.7c3.893-.413 7.675-.413 11.768-.413l-2.653 7.521c-3.136-2.275-6.18-4.485-9.115-7.108z"/><path fill="#C43618" d="M191.507 60.15c.255-3.107.897-6.277 1.597-9.873 2.783 1.867 5.507 4.159 8.919 7.028-4.16 1.143-7.145 1.962-10.516 2.845z"/><path fill="#EDEDED" d="m156.146 45.927-1.412 5.426-8.724-13.167a8.194 8.194 0 0 1 2.807.162c2.766 2.781 5.048 5.18 7.33 7.579z"/><path fill="#C73213" d="M156.384 45.703c-2.52-2.175-4.801-4.574-7.234-7.267 3.858-.667 7.867-1.04 12.174-1.44-1.727 3.116-3.214 5.8-4.94 8.707z"/><path fill="#C43618" d="M145.08 445.993c-.27 3.142-.965 6.295-1.812 9.825-2.753-2.031-5.354-4.438-8.401-7.258 3.709-.968 6.75-1.762 10.213-2.567z"/><path fill="#2B4EBA" d="M201.584 120.057c4.184 3.306 4.218 5.364.022 10.38l-4.919-10.04c1.787-.16 3.142-.28 4.897-.34z"/><path fill="#274EBF" d="M139.532 384.16c-1.71 3.806-4.218 2.91-6.136.73-2.875-3.27-1.288-6.242 1.36-9.094 1.637 2.856 3.127 5.455 4.776 8.364z"/><path fill="#F7F1F0" d="M187.524 468.028c-2.454-2.534-4.539-5.04-6.815-7.86.31-2.023.81-3.731 1.32-5.48l8.572 13.244c-.783.036-1.746.08-3.077.096z"/><path fill="#EAECF1" d="M154.972 241.431c6.183-.862 9.7 2.843 12.44 8.265-.985.95-2.093 1.547-2.254 1.634-3.655-3.488-6.85-6.536-10.186-9.899z"/><path fill="#F4EFEE" d="M180.858 264.547c-6.044.742-8.858-3.591-11.78-8.267 1.112-.925 2.344-1.527 2.723-1.712 3.282 3.547 6.114 6.607 9.057 9.979z"/><path fill="#264DBF" d="M198.357 113.971c-.856-7.012-1.308-14.05-1.625-21.51 3.983 6.602 5.06 13.866 1.625 21.51z"/><path fill="#CFCFCF" d="M76.746 214.875c.263.673.29 1.035.31 1.672-.98.183-2.118.38-2.894-.059-1.732-.982-3.285-2.281-4.91-3.452l4.811-4.1c1.06 2.44 1.754 4.034 2.683 5.94z"/><path fill="#4162C6" d="M207.89 112.014c4.722 1.337 4.51 4.31 3.446 8.57-2.62-2.91-7.514-3.763-3.447-8.57z"/><path fill="#F4F1E6" d="M201.769 137.03c-1.947 4.87-6.006 6.747-11.471 6.889 3.425-2.372 7.254-4.683 11.47-6.89zM134.89 369.073c2.561-2.308 5.54-4.594 8.878-6.904-1.789 3.299-3.86 6.719-8.878 6.904z"/><path fill="#D5D9E4" d="M163.319 79.585c.371.405.831 1.024 1.478 1.837-.34-.412-.865-1.017-1.478-1.837z"/><path fill="#2B4EBA" d="M155.981 428.308c.774.474 1.49 1.3 2.288 2.473-.727-.475-1.536-1.298-2.288-2.473z"/><path fill="#264DBF" d="M196.987 91.695c-.467-.49-.86-1.347-1.245-2.599.445.48.882 1.356 1.245 2.599z"/><path fill="#F4F1E6" d="M199.672 63.817c-.449.51-1.266.907-2.421 1.186.459-.511 1.256-.906 2.421-1.186z"/><path fill="#EAECF1" d="M159.028 370.587c-.588.263-1.199.188-1.858-.275.58-.28 1.208-.172 1.858.275z"/><path fill="#F4F1E6" d="M201.408 63.648c-.228.127-.598.123-1.223.244.19-.042.635-.208 1.223-.244z"/><path fill="#264DBF" d="M180.891 77.744c-.332.098-.713-.133-1.094-.744.35-.114.698.15 1.094.744z"/><path fill="#DCDFE8" d="M174.956 73.031c-.382-.144-.577-.486-.771-.829.276-.052.553-.104 1.067.029.122.324.006.463-.296.8z"/><path fill="#C73213" d="M104.976 355.22c.276-.068.53.123.799.574-.264.069-.542-.122-.799-.574z"/><path fill="#272727" d="M190.081 412.284c-4.612-1.329-2.983-4.622-2.66-7.347.064-.543 1.534-1.29 2.336-1.267.768.022 2.199 1 2.151 1.426-.266 2.39-.892 4.74-1.827 7.188z"/><path fill="#3A3A3A" d="M144.134 96.506c1.23-1.167 2.432-1.951 3.634-2.736.612 1.707 1.604 3.393 1.7 5.128.063 1.142-1.065 3.296-1.835 3.38-4.243.458-3.378-2.88-3.499-5.772z"/></svg>