<svg xmlns="http://www.w3.org/2000/svg" viewBox="0 0 336 496" xml:space="preserve"><path fill="currentColor" d="M244.264 441.94a365.186 365.186 0 0 1-3.863-3.264c-1.631.079-2.303 1.123-3.153 1.881-7.122 6.362-16.654 7.187-24.38 2.101-7.252-4.774-10.258-14.074-7.485-22.998a28.69 28.69 0 0 1 7.147-11.863c3.754-3.768 7.61-7.462 11.69-10.87 5.598-4.675 11.224-9.28 15.597-16.161 8.359 11.679 20.508 18.313 29.228 28.597 5.292 6.24 7.228 13.383 6.2 21.357-1.466 11.362-15.535 18.49-26.778 13.625-1.365-.59-2.61-1.454-4.203-2.405zM71.446 441.676c-7.997-7.812-9.223-17.863-3.638-27.568 2.61-4.533 6.27-8.158 10.026-11.705 7.325-6.917 16.172-12.202 22.035-21.652 7.897 11.29 19.327 17.71 27.898 27.19 6.333 7.007 9.449 15.06 7.068 24.299-3.345 12.978-20.01 17.944-30.76 9.503-1.293-1.016-2.499-2.142-4.019-3.453-8.588 8.135-17.92 10.607-28.61 3.386zM105.25 62.999c12.017-6.556 24.668-2.819 29.01 8.706 2.368 6.285 1.773 12.77-1.552 18.794-2.19 3.967-4.995 7.492-8.282 10.586-8.074 7.598-17.489 13.734-24.464 23.378-7.933-11.084-19.337-17.604-27.775-27.24-4.25-4.855-7.279-10.19-7.581-16.936-.396-8.835 3.111-15.253 11.114-18.868 7.94-3.587 15.255-2.01 21.764 3.651.746.649 1.473 1.319 2.225 1.995 2.299-.68 3.407-2.764 5.541-4.066zM91.81 223.817c3.38 1.296 5.33 3.987 7.877 5.526 1.56.018 2.215-1.071 3.068-1.817 7.378-6.445 16.884-7.19 24.873-1.93 6.84 4.504 9.657 13.906 6.979 22.74-2.338 7.712-7.78 13.111-13.518 18.21-7.074 6.287-14.845 11.812-21.027 20.203-8.816-12.154-22.448-18.722-30.832-30.71-8.464-12.105-5.65-26.511 6.198-32.04 5.241-2.445 10.638-2.306 16.381-.182zM170.02 149.331c6.692-5.96 13.96-8.987 22.67-6.19 11.21 3.6 16.054 16.307 10.886 28.028-2.625 5.952-7.036 10.5-11.773 14.724-7.308 6.517-15.363 12.221-21.779 20.862-8.752-12.28-22.43-18.794-30.828-30.8-8.764-12.53-5.192-27.947 7.7-32.563 8.847-3.168 16.289-.231 23.123 5.94zM269.163 226.742c7.552 8.05 8.458 18.3 2.705 27.717-3.164 5.179-7.47 9.36-12.063 13.202-6.86 5.739-13.889 11.276-19.774 19.035-8.072-11.133-19.955-17.524-28.43-27.543-4.044-4.782-6.82-10.051-7.02-16.62-.262-8.591 3.035-14.994 10.846-18.48 7.793-3.477 15.236-2.424 21.798 3.328.853.748 1.766 1.428 2.895 2.336 8.806-8.58 18.343-10.35 29.043-2.975zM227.441 59.867c5.084 1.221 8.966 3.687 12.364 7.485 4.24-3.434 8.25-6.98 13.812-7.616 14.965-1.71 25.625 11.678 20.945 26.374-1.927 6.05-5.853 10.788-10.317 15.092-7.866 7.583-17.414 13.357-24.211 23.072-8.47-11.775-21.219-18.495-29.937-29.475-4.637-5.842-6.262-12.42-5.33-19.656 1.1-8.547 10.2-17.062 22.674-15.276zM312.01 396.205c2.93 2.697 5.65 5.123 8.346 7.579 2.7 2.461 5.414 4.908 6.79 8.45 1.702 4.38 1.67 8.594-1.925 11.956-3.62 3.387-7.946 4.218-12.32 1.484-2.192-1.369-3.863-1.082-5.939.087-4.44 2.502-8.71 1.962-12.26-1.705-3.556-3.67-3.648-7.966-1.496-12.425 1.247-2.584 3.12-4.67 5.21-6.598 3.288-3.032 7.074-5.534 9.815-9.147 1.237-1.631 2.4-1.51 3.779.32zM29.33 81.119c3.2-.423 5.369-2.68 8.678-2.549 7.301.29 11.876 6.35 9.599 13.323-.957 2.928-2.807 5.218-4.912 7.401-3.91 4.056-8.794 7.03-12.51 11.84-5.034-4.705-9.908-9.14-14.63-13.73-1.933-1.88-3.107-4.354-3.566-7.024-.747-4.347.622-8.066 4.433-10.311 4.242-2.499 8.574-2.04 12.908 1.05zM295.62 480.706c5.936-9.006 10.378-18.207 11.158-28.801.302-4.1 2.556-5.299 6.392-4.868 4.186.47 3.862 2.849 3.354 6.048-1.668 10.52-7.035 19.207-13.192 27.573 7.202 2.771 11.57 1.402 14.769-4.75 1.009-1.94 2.426-2.697 4.413-2.377 2.08.336 1.705 2.127 1.797 3.565.694 10.786.267 11.246-10.393 11.246-4.82 0-9.643.085-14.46-.041-4.736-.124-6.016-2.541-3.839-7.595zM33.046 54.772c-1.283 5.127-5.023 3.681-7.824 3.194-3.088-.538-1.923-3.248-1.64-5.323 1.197-8.803 5.142-16.403 10.17-23.559 1.11-1.58 2.664-2.93 3.06-4.98-8.68-1.987-10.834-1.164-15.233 5.995-.889 1.447-1.971 2.206-3.647 2.001-2.014-.247-2.12-1.813-2.196-3.34a57.952 57.952 0 0 1-.043-3.491c.087-7.944.598-8.459 8.427-8.47 5.321-.008 10.646-.122 15.963.035 5.181.154 7.03 3.727 4.147 8.02-6.027 8.972-10.31 18.563-11.184 29.918z"/></svg>