<svg xmlns="http://www.w3.org/2000/svg" viewBox="0 0 340 500" xml:space="preserve"><path fill="#FEFEFE" d="M1 131V1.02h339.93v499.836H1V131m113.856 24.229c-.954-5.523-1.672-11.1-2.946-16.549-.814-3.48-3.008-4.316-6.329-2.103-2.403 1.601-5.262 2.517-8.566 4.037 0-2.687.014-4.477-.002-6.266-.152-16.879 2.333-14.29-15.07-14.552-3.624-.054-5.08 1.613-4.99 5.168.126 4.92.032 9.845.032 14.875-7.047-1.74-10.335-5.946-9.963-14.247.227-5.056-1.483-8.553-4.947-11.758-2.072-1.917-3.868-4.13-5.845-6.154-2.604-2.667-5.284-2.725-7.482.367-3.172 4.464-6.524 8.874-9.084 13.688-12.998 24.445-9.287 55.093 8.816 75.554 2.187 2.472 4.612 3.968 7.116 1.165 5.444-6.093 12.803-10.776 11.716-21.14-.705-6.728 3.621-10.496 9.467-11.241v33.812c-6.83 1.453-11.704 4.272-10.752 12.395.372 3.178-.495 6.487-.28 9.702.354 5.325.754 10.707 1.927 15.886.412 1.818 3.037 3.275 4.875 4.583 1.278.91 2.937 1.287 4.435 1.905v3.256c0 27 .022 54-.027 81-.006 3.274.347 6.773 4.427 6.103 8.679-1.425 14.514 2.144 18.974 9.064.089.137.222.252.352.354 6.602 5.202 13.206 10.4 18.927 14.905-2.568 22.88 1.002 43.41 18.078 60.321-3.492 3.746-6.753 7.5-10.296 10.968-3.17 3.102-3.287 5.859-.803 9.607 15.64 23.598 42.196 34.647 69.813 28.793 13.617-2.887 13.555-2.88 12.03-16.655-.548-4.94-1.975-10.27-.721-14.789 1.411-5.09.958-8.613-1.713-10.92.394-5.098 2.052-9.647.745-13.062-2.922-7.637.075-13.142 4.156-18.839 4.403-6.146 4.152-6.913-3.372-10.287 1.098-1.841 2.35-3.537 3.146-5.425.482-1.143.836-3.314.257-3.772-4.086-3.23-5.043-7.555-4.926-12.335.13-5.212-2.603-7.937-7.432-9.1-6.363-1.534-7.682-4.53-4.524-10.547 1.071-2.041 2.329-4.148 3.998-5.686 12.572-11.585 25.269-23.035 39.232-35.712 2.368 3.067 5.611 5.367 5.87 7.965.739 7.387.26 14.895.26 23.439-3.474-1.608-6.255-2.598-8.715-4.112-2.849-1.754-4.539-1.254-5.828 1.76-4.146 9.697-4.176 19.35-.042 29.066 1.424 3.347 3.253 3.563 6.19 1.695 2.383-1.516 5.137-2.449 8.42-3.96 0 5.764.125 10.413-.038 15.052-.14 3.943 1.262 5.966 5.475 5.72 3.156-.186 6.337-.162 9.496-.006 4.155.206 5.638-1.772 5.503-5.732-.162-4.737-.038-9.483-.038-14.384 7.267 2.217 9.99 6.808 10.155 15.617.044 2.362.23 5.196 1.52 6.96 2.63 3.598 5.976 6.697 9.179 9.847 2.164 2.13 4.346 2.432 6.793-.09 22.696-23.398 22.759-66.928.136-90.365-2.39-2.477-4.607-2.716-6.776-.289-5.244 5.868-12.89 10.363-11.24 20.257.345 2.07-.598 4.816-1.874 6.582-1.755 2.43-4.391 4.223-6.65 6.288l-1.085-1.052v-33.658c1.56-.485 3.483-.554 4.595-1.539 2.254-1.995 5.669-4.41 5.782-6.787.436-9.192.117-18.47-.74-27.64-.22-2.363-3.263-4.624-5.337-6.585-1.102-1.042-2.908-1.339-4.458-1.998v-5.215c0-26.167.005-52.333-.004-78.5-.002-6.178-.633-6.772-6.964-6.79-2.333-.008-4.675.112-6.996-.057-1.04-.075-2.464-.411-2.992-1.147-7.139-9.94-16.517-17.196-27.076-22.678 4.361-11.113 1.676-21.802-.573-32.421-2.336-11.03-8.077-20.254-16.392-27.981 3.617-3.967 6.78-7.84 10.373-11.26 3.303-3.142 3.269-5.845.81-9.549-17.35-26.132-48.155-36.667-78-26.613-3.626 1.222-4.926 3.16-4.53 7 .765 7.43 2.127 15.024 1.262 22.316-.58 4.876-.926 8.622 1.877 10.97-.443 4.87-2.09 9.215-.886 12.523 2.722 7.475.384 13.198-3.751 18.987-4.433 6.205-4.253 6.762 2.827 10.916-.925 1.666-2.02 3.28-2.735 5.049-.485 1.197-1.03 3.445-.535 3.796 4.358 3.092 4.686 7.579 4.937 12.255.311 5.802 2.514 8.155 8.417 9.432 5.018 1.085 6.64 3.647 4.434 8.36-1.592 3.4-3.68 6.87-6.4 9.39-11.927 11.045-24.163 21.755-36.718 32.972-2.636-2.746-6.572-4.927-6.911-7.57-.92-7.169-.316-14.534-.316-22.767 3.2 1.382 5.959 2.127 8.198 3.64 3.764 2.543 5.84 1.472 6.991-2.487.971-3.34 1.765-6.73 2.65-10.991M325.113 26.51v342.364h5.474v-4.565c0-116.154 0-232.308-.004-348.463 0-6.453-.43-6.88-6.785-6.881-28.663-.006-57.327-.003-85.99-.003-51.162 0-102.323-.001-153.484.01-1.292 0-2.585.146-3.943.228v4.926h244.732V26.51M103.5 489.038h157.102l-.325-5.275H15.483V129.211h-5.37v3.624c0 116.643.018 233.287-.067 349.93-.003 4.8 1.76 6.369 6.471 6.345 28.66-.145 57.322-.072 86.983-.072M82.22 417.84c-4.714.95-9.427 1.9-14.973 3.02l8.262-17.76H54.402c2 3.215 3.869 5.67 5.135 8.405 1.325 2.86 2.07 5.99 3.482 10.248-2.42-1.1-3.31-1.469-4.17-1.9-12.741-6.386-26.13 1.956-26.03 16.165.071 10.172 6.601 16.204 13.731 21.93 6.596 5.297 13.133 10.665 18.992 15.43 3.872-3.414 8.291-7.337 12.74-11.226 4.986-4.357 10.739-8.082 14.854-13.143 9.868-12.134 4.462-27.98-10.916-31.17M242.896 65.105c.69 5.683 3.582 9.989 8.464 12.83 6.855 3.988 13.644 2.583 20.548-1.16.853 7.445-4.672 12.061-7.128 18.1h20.62l-8.236-18.06c13.05 6.39 24.367 3.945 29.152-6.745 3.405-7.605 1.919-14.924-3.172-21.038-3.674-4.412-8.486-7.889-12.864-11.699-5.154-4.484-10.388-8.878-13.71-11.71-3.012 2.154-6.576 4.644-10.075 7.223-4.42 3.257-8.898 6.45-13.154 9.914-6.762 5.503-11.264 12.229-10.445 22.345M17.547 93.057l10.736 2.015-2.97 6.633h9.932l-4.103-9.431c5.761 3.469 10.01 3.297 13.466-.662 3.307-3.789 2.81-8.13.17-11.978-1.556-2.269-3.923-4.011-6.04-5.858-2.805-2.444-5.723-4.76-8.354-6.933-3.725 3-7.668 6.034-11.451 9.255-5.888 5.011-6.516 10.72-1.386 16.96M313.15 423.594c3.579-2.97 7.528-5.597 10.654-8.985 5.391-5.843 3.375-14.3-3.678-15.941-2.467-.575-5.27.294-8.375.54l3.568-8.086h-10.032l3.81 8.897c-5.591-2.57-10.203-2.7-12.833 1.48-1.602 2.548-1.875 6.587-1.266 9.663.481 2.429 2.98 4.67 5.006 6.534 3.41 3.134 7.156 5.902 10.753 8.819.464-.603 1.172-1.52 2.393-2.92M23.333 10.192c.93 1.447 2.63 2.875 2.667 4.344.242 9.645.02 19.302.164 28.951.088 5.873-1.612 10.673-6.396 14.41-1.08.843-1.137 2.994-1.994 5.51 13.315-4.411 16.73-9.063 16.785-21.326.04-8.986.049-17.972-.017-26.958-.018-2.574.397-4.432 3.411-5.146 1.029-.243 1.68-2.078 2.869-3.675H20.249l-.666 1.06c.968.901 1.936 1.802 3.75 2.83m282.657 467.94c.253 2.366-.177 4.083-2.96 4.845-1.15.315-1.92 2.022-3.453 3.77h20.408l.782-1.207c-1.073-.906-2.266-1.706-3.19-2.745-1.24-1.396-3.196-2.946-3.246-4.482-.302-9.295-.253-18.606-.11-27.908.093-6.148 1.34-11.828 7.069-15.627.916-.608.676-2.96 1.116-5.276-13.67 5.571-16.33 9.405-16.406 22.284-.05 8.473-.01 16.947-.01 26.346z"/><path fill="#272726" d="M114.85 155.675c-.88 3.814-1.674 7.206-2.645 10.545-1.15 3.959-3.227 5.03-6.99 2.487-2.24-1.513-4.998-2.258-8.2-3.64 0 8.233-.604 15.598.317 22.768.339 2.642 4.275 4.823 6.91 7.57 12.556-11.218 24.792-21.928 36.718-32.973 2.72-2.52 4.81-5.99 6.401-9.39 2.206-4.713.584-7.275-4.434-8.36-5.903-1.277-8.106-3.63-8.417-9.432-.251-4.676-.579-9.163-4.937-12.255-.494-.35.05-2.599.535-3.796.716-1.768 1.81-3.383 2.735-5.049-7.08-4.154-7.26-4.711-2.827-10.916 4.135-5.789 6.473-11.512 3.751-18.987-1.204-3.308.443-7.654.886-12.522-2.803-2.35-2.456-6.095-1.877-10.971.865-7.292-.497-14.887-1.263-22.317-.395-3.839.905-5.777 4.53-6.999 29.846-10.054 60.651.481 78 26.613 2.46 3.704 2.494 6.407-.81 9.55-3.593 3.419-6.755 7.292-10.372 11.259 8.315 7.727 14.056 16.95 16.392 27.98 2.249 10.62 4.934 21.309.573 32.422 10.56 5.482 19.937 12.738 27.076 22.678.528.736 1.952 1.072 2.992 1.147 2.321.169 4.663.05 6.996.056 6.331.019 6.962.613 6.964 6.791.01 26.167.004 52.333.004 78.5v5.215c1.55.66 3.356.956 4.458 1.998 2.074 1.96 5.117 4.222 5.337 6.585.857 9.17 1.176 18.448.74 27.64-.113 2.377-3.528 4.792-5.782 6.787-1.112.985-3.035 1.054-4.595 1.539v33.658l1.085 1.052c2.259-2.065 4.895-3.858 6.65-6.288 1.276-1.766 2.219-4.512 1.874-6.582-1.65-9.894 5.996-14.39 11.24-20.257 2.169-2.427 4.385-2.188 6.776.289 22.623 23.437 22.56 66.967-.136 90.365-2.447 2.522-4.629 2.22-6.793.09-3.203-3.15-6.549-6.249-9.18-9.848-1.289-1.763-1.475-4.597-1.52-6.959-.164-8.81-2.887-13.4-10.154-15.617 0 4.901-.124 9.647.038 14.384.135 3.96-1.348 5.938-5.503 5.732-3.159-.156-6.34-.18-9.496.005-4.213.247-5.614-1.776-5.475-5.72.163-4.638.038-9.287.038-15.05-3.283 1.51-6.037 2.443-8.42 3.959-2.937 1.868-4.766 1.652-6.19-1.695-4.134-9.716-4.104-19.37.042-29.065 1.29-3.015 2.98-3.515 5.828-1.761 2.46 1.514 5.241 2.504 8.715 4.112 0-8.544.479-16.052-.26-23.439-.259-2.598-3.502-4.898-5.87-7.965-13.963 12.677-26.66 24.127-39.232 35.712-1.67 1.538-2.927 3.645-3.998 5.686-3.158 6.017-1.84 9.013 4.524 10.547 4.83 1.163 7.561 3.888 7.432 9.1-.117 4.78.84 9.106 4.926 12.335.579.458.225 2.63-.257 3.772-.796 1.888-2.048 3.584-3.146 5.425 7.524 3.374 7.775 4.14 3.372 10.287-4.08 5.697-7.078 11.202-4.156 18.839 1.307 3.415-.35 7.964-.745 13.063 2.671 2.306 3.124 5.83 1.713 10.919-1.254 4.52.173 9.85.72 14.789 1.526 13.775 1.588 13.768-12.029 16.655-27.617 5.854-54.173-5.195-69.813-28.793-2.484-3.748-2.366-6.505.803-9.607 3.543-3.468 6.804-7.222 10.296-10.968-17.076-16.91-20.646-37.44-18.078-60.321-5.72-4.504-12.325-9.703-18.927-14.905a1.548 1.548 0 0 1-.352-.354c-4.46-6.92-10.295-10.49-18.974-9.064-4.08.67-4.433-2.83-4.427-6.104.05-27 .028-54 .027-81v-3.255c-1.498-.618-3.157-.994-4.435-1.905-1.838-1.308-4.463-2.765-4.875-4.583-1.173-5.179-1.573-10.561-1.928-15.886-.214-3.215.653-6.524.28-9.702-.951-8.123 3.923-10.942 10.753-12.395v-33.812c-5.846.745-10.172 4.513-9.467 11.241 1.087 10.364-6.272 15.047-11.716 21.14-2.504 2.803-4.93 1.307-7.116-1.165-18.103-20.46-21.814-51.109-8.816-75.554 2.56-4.814 5.912-9.224 9.084-13.688 2.198-3.092 4.878-3.034 7.482-.367 1.977 2.025 3.773 4.237 5.845 6.154 3.464 3.205 5.174 6.702 4.947 11.758-.372 8.3 2.916 12.508 9.963 14.247 0-5.03.094-9.955-.031-14.875-.09-3.555 1.365-5.222 4.99-5.168 17.402.262 14.917-2.327 15.069 14.552.016 1.79.002 3.579.002 6.266 3.304-1.52 6.163-2.436 8.566-4.037 3.321-2.213 5.515-1.377 6.329 2.103 1.274 5.448 1.992 11.026 2.94 16.995m60.144-93.666s-.062.03.25.676c6.89 3.626 13.808 7.203 20.65 10.916 1.628.883 3.023 2.48 4.916-.643.093-1.223.76-3.01.194-3.587-15.116-15.412-33.116-23.542-55.915-21.365l-7.205 1.178.464 7.437c1.924-.156 3.335-.27 5.627-.14 9.98 1.82 19.96 3.64 30.454 5.679.184-.028.369-.055.565-.15m21.867-15.092-2.524-1.79-3.75 7.944 16.162 13.552c.496-.684 1.061-1.463 2.22-2.582-.126-1.405.27-3.232-.467-4.143-3.5-4.328-7.308-8.405-11.641-12.981M131.437 434.21c.306 1.463.152 3.31.998 4.32 3.33 3.974 6.975 7.686 10.76 12.087l3.21 2.206 3.777-7.878-16.423-13.744c-.465.68-1.101 1.61-2.322 3.01m6.35-23.505c.476.566.953 1.132 1.942 2.055l2.757 3.186c-.174-2.972-1.395-5.352-2.435-7.81-5.442-12.861-6.7-26.46-7.042-40.223-.053-2.116.793-4.998-3.636-5.283-3.687-1.813-5.184.636-5.245 3.443-.329 14.97 1.66 29.434 10.895 41.935.67.907 1.98 1.342 2.97 1.99l-.206.707m5.067-367.817c3.939-.262 7.88-.752 11.815-.71 2.998.031 4.215-1.134 4.3-3.991.046-1.587.332-3.167.58-5.37-6.4 1.147-12.346 2.213-19.142 3.075-6.17.736-2.503 4.923-3.168 8.073 1.917-.45 3.343-.784 5.615-1.077m43.94 35.599c-.336-.27-.673-.541-1.522-1.235l-2.987-1.637c2.071 5.23 4.155 9.732 5.653 14.422 4.137 12.944 4.927 26.354 5.313 39.836.058 2.044 1.878 4.039 3.657 6.31 3.914.165 5.534-2.074 5.13-5.582-1.278-11.104-2.108-22.325-4.427-33.22-1.468-6.897-4.588-13.72-10.794-18.26 0 0 .082.007-.022-.634m15.387 7.81c-.457-.488-.915-.977-1.845-1.87l-1.131-3.584-1.953 1.832c1.524 3.418 3.237 6.767 4.538 10.268 4.264 11.478 5.509 23.45 5.616 35.608.024 2.783-.87 6.25 4.204 7.328 3.863.57 5.279-1.87 5.19-4.976-.38-13.156-1.631-26.191-8.896-37.698-1.504-2.383-3.875-4.22-5.888-6.262 0 0 .055.028.165-.646m-2.437 376.033c4.879-1.433 5.152-2.204 2.82-8.108-1.234.295-2.478.592-4.541.867l-15.643 1.277-1.45 9.174c6.406-1.084 12.206-2.064 18.814-3.21m-45.699-42.71c.32.295.639.59 1.431 1.309l2.926 3.171c-.992-4.587-2.905-8.42-4.395-12.41-5.14-13.764-6.145-28.175-6.411-42.69-.05-2.74.528-5.895-4.129-6.954-4.83-.348-5.666 2.995-5.264 6.48 1.19 10.303 2.08 20.716 4.386 30.789 1.701 7.43 4.952 14.685 11.41 19.686 0 0 .009-.04.046.62m17.784 44.46c8.266.609 2.33-6.497 6.712-9.12-3.375-.435-4.97-.64-7.3-.936l-16.65-5.529-4.28 8.605c7.3 2.378 13.98 4.552 21.518 6.98m-2.92-430.086-3.774-.521-1.485 9.647c2.027.377 3.605.67 5.68 1.57l16.777 4.713c4.408-7.946 4.48-8.123-3.69-11.43-4.119-1.666-8.552-2.557-13.508-3.979m18.428 307.646c-13.438 3.823-18.844 8.91-19.161 17.93l18.934-6.6c.285-3.586.58-7.286 1.297-11.045l-.263-.525c-.027.213-.054.427-.807.24m18.672-23.128.194 3.167 25.974-21.961-10.21-18.43c-1.057 1.14-2.03 2.189-3.608 3.601-4.345 4.328-8.82 8.538-12.945 13.066-1.07 1.174-1.577 3.398-1.418 5.052.472 4.927 1.404 9.81 2.013 15.505M122.139 213.19c4.34-4.272 8.842-8.398 12.92-12.907 1.188-1.312 1.73-3.763 1.588-5.616-.376-4.892-1.288-9.743-1.83-15.37l-.24-3.136-26.029 22.15 10.227 18.673c.968-1.22 1.871-2.359 3.364-3.794m-36.341-25.02 5.95-.546v-62.442c-2.505 0-4.781 0-7.886-.143-.626 1.34-1.79 2.676-1.798 4.019-.117 19.712-.085 39.425-.065 59.138.001.994.218 1.988.36 3.2 1.048-1.186 1.811-2.05 3.439-3.226M255.05 309.727l-5.795.814v62.285c2.538 0 4.686 0 7.738.125.507-1.354 1.449-2.707 1.456-4.064.096-19.108.071-38.218.049-57.327-.002-1.244-.229-2.487-.351-3.73l-1.056-.615c-.399.73-.798 1.46-2.04 2.512m-27.34-159.158c-.393-.182-.785-.363-1.632-.991l-6.205-4.188c1.365 3.907 3.506 6.804 5.33 9.887 15.291 25.848 14.625 51.312-1.855 76.431-5.197 7.922-12.738 13.15-20.84 18.877-4.498 1.187-8.996 2.374-14.18 3.39l-3.527.25c12.57 10.059 15.325 23.924 17.768 38.97 1.924-2.202 3.082-3.527 4.863-5.199 10.847-10.81 21.802-21.514 32.435-32.53 1.824-1.89 3.188-5.098 3.213-7.713.24-24.634-.16-49.277.277-73.905.21-11.746-7.321-17.19-15.564-22.62 0 0 .075-.014-.083-.66M112.142 346.602c.38.243.761.485 1.671 1.029 2.311 1.54 4.622 3.082 7.193 5.103l.742-.047c-.125-.352-.25-.704-.62-1.693-21.169-27.985-22.226-61.107-2.011-86.751 4.898-6.214 11.87-10.794 18.576-16.437 4.117-1.32 8.235-2.639 13.145-3.797h5.183c-12.678-10.426-15.568-24.147-17.848-39.183-1.966 2.254-3.118 3.575-4.858 5.242-11.063 11.039-22.236 21.971-33.08 33.22-1.805 1.873-3.053 5.117-3.077 7.741-.229 24.771-.136 49.545-.136 74.318 0 7.476 7.618 17.8 15.107 20.628 0 0-.075-.05.013.627m27.693 78.441c-3.271 2.663-.125 4.06 1.294 5.391 16.016 15.005 34.716 22.298 57.63 19.368l4.262-1.496-1.05-7.054c-1.952.2-3.406.348-5.774.271-12.532-.317-24.725-2.232-36.404-8.324-5.333-3.147-10.62-6.377-16.052-9.344-.75-.41-2.212.483-3.906 1.188m18.494-62.445c-4.458-1.708-5.303 1.213-5.374 4.485-.316 14.685.988 29.169 6.01 43.116 6.394 17.757 21.318 27.746 39.048 25.892 1.467-.153 2.757-2.007 4.129-3.071-1.323-.969-2.558-2.111-4.002-2.837-.805-.405-1.965-.202-2.954-.126-9.455.728-16.497-4.124-23.126-10.68-2.776-7.205-6.706-14.202-8.04-21.664-1.74-9.727-1.396-19.823-2.005-29.757-.13-2.135.64-4.98-3.686-5.358m23.585-227.011c4.754 1.39 6.37-1.415 5.984-5.26-1.243-12.357-1.686-24.96-4.586-36.948-5.204-21.515-19.177-32.112-38.915-31.702-2.734.057-5.996.11-6.137 3.535-.168 4.087 3.495 2.373 5.659 2.65 12.415 1.582 23.692 5.004 29.13 18.477.997 3.134 2.557 6.21 2.89 9.413 1.179 11.306 1.839 22.667 2.952 33.982.181 1.844 1.66 3.561 3.023 5.853m73.179 33.043h-6.234v6.453c0 35.27.204 70.543-.172 105.81-.074 6.987 1.484 12.247 7.646 16.847l2.241 2.439c0-4.09-.206-7.078.101-10.011.124-1.178 1.375-2.237 2.113-3.35 1.005 1.035 2.12 1.988 2.967 3.139.409.554.315 1.48.699 3.655l4.72-4.903c-1.56-1.046-2.996-2.617-4.708-3.019-2.697-.632-5.58-.477-9.035-.911l-3.614-3.06c1.785-1.029 3.037-1.751 5.164-2.247l13.724 1.63c-4.148-5.847-9.526-5.046-15.243-5.31l-3.279-2.765c1.632-1.147 2.793-1.963 4.818-2.546l13.28 1.473c-4.703-4.79-9.541-4.44-14.807-4.962l-3.45-3.006c1.7-.95 2.925-1.635 4.985-2.157l10.931 1.388c-3.036-4.433-7.39-4.555-12.489-4.544l-3.44-3.024c1.806-1.128 2.9-1.81 4.937-2.292.52-1.044 1.494-2.086 1.497-3.132.084-26.14.094-52.28-.039-78.419-.005-.991-1.57-1.974-3.313-3.176M83.828 227.495l-13.647-1.53c4.613 4.754 9.556 4.718 15.186 5.115l2.598 2.451c-1.134.942-2.268 1.884-4.184 2.649l-11.585-1.587c2.521 3.98 5.083 4.846 13.117 4.75 3.703 2.178 3.602 4.015-1.367 5.262-.625.358-1.61.586-1.795 1.101-.318.889-.163 1.956-.163 2.948-.005 25.54-.029 51.078.05 76.617.006 1.668-1.426 4.98 3.708 4.095h6.24v-5.915c0-35.495-.207-70.993.18-106.484.076-6.905-1.77-11.866-7.537-16.175l-2.659-4.355c0 4.808.15 8.398-.097 11.96-.069.99-1.318 1.899-2.026 2.844-.938-.873-2.07-1.62-2.745-2.664-.448-.693-.24-1.81-.44-3.97l-5.309 4.258c1.59 1.187 3.027 2.95 4.807 3.425 2.65.708 5.544.507 8.978.955 4.229 2.301 4.216 2.46-1.283 5.295l-14.13-1.638c4.6 5.674 9.884 5.138 15.723 5.357 5.086 2.619 1.742 4.001-1.62 5.236m26.811 69.57c-3.095 21.86 5.048 39.85 19.11 55.861 3.2 3.643 6.258 6.895 11.552 3.565.616-.387 1.806-.53 2.39-.195 5.012 2.872 9.87.25 15.497.197l1.932.495 11.828-16.763c-.384 0-1.367 0-3.297-.186-5.888-1.397-11.777-2.794-17.914-4.814-20.545-10.226-34.265-25.774-38.854-49.106-.632 3.361-1.264 6.722-2.244 10.945m79.439-133.436c20.36 9.79 32.93 25.65 37.66 47.976.668-2.86 1.335-5.72 2.197-9.437 3.441-23.226-5.014-42.26-20.793-58.653-1.313-1.364-3.23-3.114-4.826-3.072-7.375.194-14.735.958-22.765 1.097l-1.855-.526-12.072 16.733c.331 0 1.313 0 3.096.23 6.451 1.64 12.903 3.278 19.358 5.652m-34.76 30.202c-1.424.425-2.902.72-4.261 1.295-8.07 3.411-8.596 4.402-7.042 12.858.449 2.445.982 4.874 1.42 7.32 2.377 13.273 9.325 23.238 21.434 29.363 1.521.77 3.417.798 5.842 1.523 8.369 4.05 16.724 2.798 24.944-.35 1.303-.498 3.013-2.457 2.94-3.642-.947-15.413-5.865-29.427-16.8-40.58-7.539-7.69-16.913-10.824-28.477-7.787m31.27 109.18c8.339-.377 11.9-4.609 10.253-12.389-1.885-8.901-2.894-18.161-8.946-25.572-4.738-5.8-9.712-11.393-18.353-12.826-.815-.151-1.696-.152-2.434-.477-8.223-3.614-16.396-2.592-24.407.528-1.226.478-2.637 2.691-2.546 4.002 1.138 16.303 6.59 30.854 18.865 42.105 7.642 7.004 19.329 8.692 27.567 4.629m-52.381 13.28c2.08 1.912 4.04 3.982 6.262 5.713 14.427 11.24 30.639 15.616 48.682 11.981 7.548-1.52 10.603-4.61 11.114-12.012.397-5.762-.545-11.617-.883-17.283-5.765 1.993-10.464 4.36-15.42 5.192-15.814 2.658-27.797-3.83-36.763-16.667-7.543-10.8-11.541-22.869-13.396-36.587-3.947 3.226-7.157 6.94-10.462 10.566-3.413 3.745-4.77 7.925-4.604 13.13.441 13.846 5.702 25.436 15.47 35.966m87.403-103.171c-.123-.654-.27-1.304-.365-1.962-4.486-31.266-39.364-54.71-70.047-47.167-6.134 1.509-10.512 4.923-10.842 11.31-.312 6.062.638 12.19 1.076 18.948 13.625-8.205 26.33-9.192 39.046-1.971 9.509 5.4 15.414 14.212 19.32 24.048 3.113 7.837 4.87 16.212 7.191 24.217 12.02-9.782 16.753-14.841 14.621-27.423M172.92 109.829c-.348-2.975-.597-5.965-1.062-8.922-2.742-17.45-11.683-26.518-26.94-27.836-3.853-.333-5.016 1.665-4.485 4.55.2 1.082 2.857 1.943 4.53 2.479 4.643 1.487 9.415 2.596 13.983 4.272.673.247.515 2.76.742 4.225-1.334-.06-2.722.095-3.992-.22-5.27-1.307-10.503-2.755-16.975-4.476 4.54 10.432-1.073 16.853-4.94 23.653 8.488 3.154 14.31 8.602 18.377 17.464-7.807.092-9.312-6.936-14.482-9.003l-.88 3.092c1.763 1.134 3.78 1.854 4.688 3.28.407.637-1.412 2.693-2.488 4.571.202 1.214.715 3.148.815 5.103.34 6.67 1.88 8.825 8.337 7.542 7.706-1.532 15.158-4.486 22.564-7.243 1.314-.49 2.587-3.008 2.637-4.627.174-5.646-.197-11.308-.429-17.904m10.427 311.546c4.295 1.174 8.56 2.476 12.893 3.483 3.793.881 4.397-2.115 3.924-4.5-.216-1.087-2.877-1.902-4.557-2.447-4.637-1.505-9.393-2.66-13.966-4.327-.705-.257-.694-2.482-1.014-3.797 1.314-.185 2.737-.79 3.923-.482 5.41 1.404 10.753 3.064 17.417 5.01-4.43-10.607.861-17.087 5.033-23.851-8.441-3.06-14.466-8.364-18.012-16.153l1.603-2.02 7.59 4.952 3.471-6.494c-.14-.799-.663-2.719-.785-4.664-.428-6.844-2.417-9.127-9.193-7.658-7.368 1.599-14.508 4.402-21.564 7.15-1.403.546-2.792 3.22-2.794 4.913-.01 7.307.05 14.668.924 21.908 1.347 11.168 3.48 22.203 15.107 28.977m103.207-115.499c-1.03 1.855-3.226 3.957-2.894 5.524 1.746 8.247 4.175 16.348 6.271 24.525.878 3.424 2.083 6.26 6.222 6.781.998.126 2.483 1.47 2.561 2.357.074.846-1.342 2.565-2.196 2.627-4.78.35-5.823 3.725-6.678 7.446-1.56 6.79-2.333 13.923-5.008 20.247-2.254 5.324-.797 7.866 3.305 10.392 19.554-21.68 20.383-56.896 1.882-79.07-.636-.763-1.966-.946-3.465-.829M50.894 143.104l5.869-26.292-4.094-4.943c-21.704 25.572-19.45 59.745.722 82.27 1.386-2.769 3.916-5.395 3.53-7.48-1.442-7.78-3.936-15.36-5.839-23.063-.99-4.011-1.799-7.83-6.978-8.417-.834-.094-1.92-1.683-2.073-2.704-.097-.64 1.302-2.132 2.083-2.17 4.211-.21 5.547-3.093 6.78-7.2m198.212 161.403h5.326c-2.369-2.938-3.539-4.979-5.236-6.38-4.49-3.706-6.086-8.218-5.771-14.022.418-7.71.103-15.46.103-23.193l-1.42-.692c-4.667 4.937-9.39 9.824-13.945 14.863-.731.81-1.307 2.551-.94 3.444 4.411 10.708 9.21 21.173 21.883 25.98M98.366 237.16c4.6-4.585 9.282-9.091 13.726-13.822.88-.937 1.618-3.189 1.106-4.069-4.054-6.965-8.027-14.046-12.859-20.464-2.702-3.589-7.085-5.76-13.956-5.527 2.502 3.168 3.986 5.565 5.966 7.437 3.195 3.021 5.292 6.215 4.728 10.893-.357 2.955-.152 5.99-.049 8.985.196 5.692.498 11.38 1.339 16.567m-41.473-71.397 3.43 15.964c1.439-10.129 3.849-18.457 14.785-21.556 1.07-.303 1.578-2.593 2.665-4.528H54.431c.827 3.253 1.593 6.27 2.463 10.12m217.618 176.778h11.652l-5.295-23.78-1.443.384c-2.212 11.9-3.646 13.68-13.796 18.611-1.112.54-1.445 2.685-2.488 4.785h11.37M57.859 134.397l-3.177 15.496h22.089c.52-2.758.503-4.426-2.874-5.14-5.591-1.185-9.23-5.146-10.87-10.585-.96-3.181-1.308-6.547-1.932-9.83l-.696-.143c-.804 3.124-1.609 6.248-2.54 10.202m206.159 217.526c4.977 2.069 10.414 3.69 12.567 9.347 1.374 3.61 2.117 7.459 3.143 11.201l.881.396 5.522-25.021c-6.789 0-13.377-.11-19.952.142-.811.03-1.548 2-2.161 3.935M161.06 153.692c6.876-2.976 11.138-7.878 11.808-15.486l-19.379 6.884c-.29 3.82-.586 7.698-.89 11.677 2.523-.911 5.14-1.856 8.46-3.075m73.259 181.201-4.192 7.502h12.742c.846-4.157.836-4.126-2.206-5.149-1.88-.632-3.722-1.376-6.344-2.353M106.688 163.112l3.46-7.389h-12.78c-1.205 3.1-.095 4.566 2.995 5.163 1.899.366 3.685 1.311 6.325 2.226m128.085 184.706-3.782.333 2.287 9.041c2.55-4.908 10.489-1.4 10.206-9.374h-8.71M101.611 150.166h7.94c-.655-2.99-1.201-5.478-1.76-8.02l-10.573 3.712c-.682 2.937-.35 4.995 4.393 4.308m102.07 229.7-3.592-2.632c1.34 4.334 1.34 4.334 3.592 2.632M258.4 300.36l.106.096s.003-.222-.106-.096z"/><path fill="#313131" d="M325.112 26.013V14.126H80.38V9.2c1.358-.082 2.65-.228 3.943-.228 51.161-.011 102.322-.01 153.484-.01 28.663 0 57.327-.003 85.99.003 6.355 0 6.785.428 6.785 6.881.005 116.155.004 232.309.004 348.463v4.565h-5.474V26.013zM103 489.038c-29.161 0-57.822-.073-86.483.072-4.712.024-6.474-1.544-6.47-6.344.084-116.644.065-233.288.065-349.931v-3.624h5.37v354.552h244.795l.325 5.275H103z"/><path fill="currentColor" d="M82.65 417.88c14.948 3.15 20.354 18.996 10.486 31.13-4.115 5.06-9.868 8.786-14.854 13.143-4.449 3.889-8.868 7.812-12.74 11.226-5.859-4.765-12.396-10.133-18.992-15.43-7.13-5.726-13.66-11.758-13.731-21.93-.1-14.209 13.289-22.551 26.03-16.164.86.43 1.75.8 4.17 1.899-1.412-4.259-2.157-7.388-3.482-10.248-1.266-2.735-3.135-5.19-5.135-8.404h21.107l-8.262 17.758c5.546-1.118 10.26-2.069 15.403-2.98zM242.867 64.666c-.79-9.678 3.712-16.404 10.474-21.907 4.256-3.463 8.733-6.657 13.154-9.914 3.5-2.579 7.063-5.07 10.075-7.224 3.322 2.833 8.556 7.227 13.71 11.711 4.378 3.81 9.19 7.287 12.864 11.7 5.09 6.113 6.577 13.432 3.172 21.037-4.785 10.69-16.102 13.135-29.152 6.745l8.237 18.06H264.78c2.456-6.039 7.98-10.655 7.128-18.1-6.904 3.743-13.693 5.148-20.548 1.16-4.882-2.841-7.774-7.147-8.493-13.268zM17.249 92.811c-4.832-5.992-4.204-11.702 1.684-16.713 3.783-3.22 7.726-6.255 11.451-9.255 2.63 2.174 5.549 4.489 8.353 6.933 2.118 1.847 4.485 3.59 6.041 5.858 2.64 3.849 3.137 8.19-.17 11.978-3.455 3.959-7.705 4.13-13.466.662l4.103 9.43h-9.931l2.97-6.632c-3.905-.733-7.321-1.374-11.035-2.26zM312.893 423.836c-.964 1.16-1.672 2.077-2.136 2.68-3.597-2.917-7.343-5.685-10.753-8.82-2.026-1.863-4.525-4.104-5.006-6.533-.609-3.076-.336-7.115 1.266-9.662 2.63-4.18 7.242-4.051 12.834-1.481l-3.811-8.897h10.032l-3.568 8.085c3.105-.245 5.908-1.114 8.375-.54 7.053 1.643 9.07 10.099 3.678 15.942-3.126 3.388-7.075 6.016-10.91 9.226zM22.91 10.13c-1.39-.965-2.359-1.866-3.327-2.767l.666-1.06h20.573c-1.188 1.597-1.84 3.432-2.869 3.675-3.014.714-3.43 2.572-3.41 5.146.065 8.986.056 17.972.016 26.958-.055 12.263-3.47 16.915-16.785 21.325.857-2.515.915-4.666 1.994-5.51 4.784-3.736 6.484-8.536 6.396-14.409-.145-9.65.078-19.306-.164-28.951-.037-1.47-1.737-2.897-3.09-4.407zM305.99 477.67c0-8.936-.04-17.41.01-25.883.076-12.88 2.736-16.713 16.406-22.284-.44 2.316-.2 4.668-1.116 5.276-5.73 3.799-6.976 9.48-7.07 15.627-.142 9.302-.191 18.613.11 27.908.05 1.536 2.006 3.086 3.248 4.482.923 1.04 2.116 1.839 3.189 2.745l-.782 1.206h-20.408c1.533-1.747 2.303-3.454 3.454-3.77 2.782-.76 3.212-2.478 2.96-5.307z"/><path fill="#FBFBFB" d="M134.009 315.992c-9.571-10.233-14.832-21.823-15.273-35.668-.166-5.206 1.191-9.386 4.604-13.13 3.305-3.628 6.515-7.341 10.462-10.567 1.855 13.718 5.853 25.787 13.396 36.587 8.966 12.837 20.95 19.325 36.763 16.667 4.956-.833 9.655-3.2 15.42-5.192.338 5.666 1.28 11.52.883 17.283-.51 7.402-3.566 10.491-11.114 12.012-18.043 3.635-34.255-.741-48.682-11.98-2.222-1.732-4.181-3.802-6.46-6.012m53.625 2.63.683 5.235 4.723-1.406c.392-3.976-.799-5.738-5.406-3.829m-8.804 4.73c.703-4.794-2.546-3.22-5.237-3.234l-.42 5.578c2.26-.626 3.85-1.066 5.657-2.344m-18.264-6.418c-.69 1.423-1.378 2.847-2.24 4.628l5.177 1.72 1.59-4.764c-1.327-.54-2.523-1.026-4.527-1.584m-26.289-24.876-.943-5.55-5.068 2.6 1.977 4.51c1.193-.455 2.234-.852 4.034-1.56m5.023 13.84 3.24-2.817-3.036-3.992-4.313 3.244c1.264 1.42 2.305 2.589 4.11 3.566m12.85 7.51-3.455-4.42-3.167 4.765 3.924 2.985c.83-.954 1.556-1.787 2.697-3.33m-27.284-37.67c-.055 4.462 2.536 3.58 5.544 2.62l-.773-5.265c-1.9.71-3.35 1.251-4.771 2.646z"/><path fill="#FAFAFA" d="M221.68 213.56c2.06 12.14-2.673 17.199-14.692 26.98-2.32-8.004-4.078-16.38-7.19-24.216-3.907-9.836-9.812-18.649-19.32-24.048-12.717-7.221-25.422-6.234-39.047 1.97-.438-6.757-1.388-12.885-1.076-18.947.33-6.387 4.708-9.801 10.842-11.31 30.683-7.544 65.56 15.901 70.047 47.167.094.658.242 1.308.437 2.404m-13.51-8.49c-4.517 1.881-.922 3.823-.354 6.195l5.62-2.85c-2.019-1.56-3.3-2.55-5.267-3.346m2.162 14.52.771 5.132 4.721-.958c.42-4.125-.98-5.73-5.492-4.173m-11.909-24.187 2.913 3.574 4.088-3.489-3.522-3.953c-1.428 1.227-2.545 2.187-3.479 3.868m-6.902-13.923-5.168 3.048 5.863 3.928 3.053-3.965a85.473 85.473 0 0 0-3.748-3.011m-38.454-4.181c-.804-4.903-3.447-1.976-5.953-1.605l1.728 5.64c1.805-1.33 3.084-2.273 4.225-4.035m28.038 2.381c2.31-4.158-1.08-4.07-3.817-4.909l-1.945 5.333c2.234.138 3.874.24 5.762-.424m-15.625-6.827c-4.398-.644-3.551 2.17-3.287 4.867h5.229c-.39-1.834-.705-3.31-1.942-4.867z"/><path fill="#C83213" d="M185.746 302.94c-7.397 4.133-19.084 2.445-26.726-4.559-12.275-11.25-17.727-25.802-18.865-42.105-.091-1.311 1.32-3.524 2.546-4.002 8.01-3.12 16.184-4.142 24.407-.528.738.325 1.62.326 2.636 1.123 3.131 2.798 6.249 4.739 8.956 7.142 8.48 7.526 11.05 17.83 13.04 28.41 1.775 9.435 1.869 9.418-5.994 14.519z"/><path fill="#F8CA1A" d="M156.063 194.097c10.819-3.304 20.193-.17 27.733 7.52 10.934 11.153 15.852 25.167 16.799 40.58.073 1.185-1.637 3.144-2.94 3.642-8.22 3.148-16.575 4.4-25.423-.134-14.018-7.833-20.274-19.79-23.166-34.477-1.505-7.645-1.645-13.605 6.792-16.686.108-.04.139-.292.205-.445z"/><path fill="#254DC2" d="M112.2 345.918c-7.56-2.772-15.178-13.096-15.178-20.572 0-24.773-.093-49.547.136-74.318.024-2.624 1.272-5.868 3.077-7.74 10.844-11.25 22.017-22.182 33.522-33 2.558 10.663 5.095 20.92 12.673 29.06 1.307 1.404 2.415 2.994 3.615 4.5-4.117 1.318-8.235 2.638-13.077 4.03-2.852.922-5.127 1.514-7.081 2.656-22.61 13.216-34.812 42.402-28.084 69.218 2.263 9.023 6.865 17.46 10.397 26.166z"/><path fill="#254DC1" d="M189.015 254.145c4.498-1.186 8.996-2.373 14.145-3.831 2.806-1.012 5.137-1.44 7.088-2.541 22.16-12.514 35.203-41.46 29.094-67.165-2.406-10.12-7.647-19.568-11.596-29.321 8.29 5.37 15.821 10.815 15.612 22.56-.437 24.63-.037 49.272-.277 73.906-.025 2.615-1.389 5.823-3.213 7.713-10.633 11.016-21.588 21.72-32.983 32.369-2.708-13.204-6.416-25.448-17.87-33.69z"/><path fill="#FAFAFA" d="M172.954 110.299c.198 6.126.569 11.788.395 17.434-.05 1.62-1.323 4.137-2.637 4.627-7.406 2.757-14.858 5.71-22.564 7.243-6.457 1.283-7.997-.873-8.337-7.542-.1-1.955-.613-3.89-.815-5.103 1.076-1.878 2.895-3.934 2.488-4.572-.908-1.425-2.925-2.145-4.689-3.28.19-.667.5-1.752.88-3.09 5.17 2.066 6.676 9.094 14.483 9.002-4.067-8.862-9.89-14.31-18.376-17.464 3.866-6.8 9.479-13.22 4.94-23.653 6.47 1.721 11.704 3.17 16.974 4.476 1.27.315 2.658.16 3.992.22-.227-1.465-.069-3.978-.742-4.225-4.568-1.676-9.34-2.785-13.983-4.272-1.673-.536-4.33-1.397-4.53-2.48-.53-2.884.632-4.882 4.486-4.549 15.256 1.318 24.197 10.386 26.94 27.836.464 2.957.713 5.947 1.095 9.392m-25.051-20.463-1.574 6.668c1.561.34 3.775 1.494 4.557.865 2.06-1.655.457-6.4-2.983-7.533zM183.01 421.21c-11.29-6.609-13.423-17.644-14.77-28.812-.874-7.24-.934-14.601-.924-21.908.002-1.694 1.39-4.367 2.794-4.913 7.056-2.748 14.196-5.551 21.564-7.15 6.776-1.47 8.765.814 9.193 7.658.122 1.945.645 3.865.785 4.664l-3.47 6.494-7.591-4.951-1.603 2.019c3.546 7.79 9.57 13.093 18.012 16.153-4.172 6.764-9.462 13.244-5.033 23.852-6.664-1.947-12.007-3.607-17.417-5.011-1.186-.308-2.609.297-3.923.482.32 1.315.309 3.54 1.014 3.797 4.573 1.666 9.33 2.822 13.966 4.327 1.68.545 4.341 1.36 4.557 2.448.473 2.384-.13 5.38-3.924 4.499-4.333-1.007-8.598-2.31-13.23-3.649m7.845-21.566-1.564 7.064 4.475.646c-.078-2.782 2.439-6.267-2.91-7.71z"/><path fill="#C83315" d="M182.215 141.96c7.366-.56 14.726-1.324 22.101-1.518 1.595-.042 3.513 1.708 4.826 3.072 15.779 16.392 24.234 35.427 20.496 58.8-5.886-17.52-17.482-29.96-33.847-38.153-1.693-.848-3.801-.865-5.717-1.267-6.451-1.64-12.903-3.279-19.553-5.29 6.098-3.647 10.462-8.426 11.694-15.645z"/><path fill="#F8CA1B" d="M158.472 356.047c-4.91.499-9.77 3.121-14.78.25-.585-.336-1.775-.193-2.39.194-5.295 3.33-8.353.078-11.552-3.565-14.063-16.01-22.206-34.002-18.672-55.97 6.815 17.286 18.478 29.818 35.27 37.55 1.721.791 3.751.91 5.638 1.342 5.888 1.397 11.777 2.794 17.884 4.548-5.825 3.806-10.046 8.639-11.398 15.651z"/><path fill="#F9F9F9" d="M286.8 305.59c1.253.169 2.583.352 3.22 1.115 18.5 22.174 17.67 57.39-1.883 79.07-4.102-2.526-5.559-5.068-3.305-10.392 2.675-6.324 3.447-13.457 5.008-20.247.855-3.72 1.898-7.096 6.678-7.446.854-.062 2.27-1.781 2.196-2.627-.078-.887-1.563-2.23-2.561-2.357-4.14-.52-5.344-3.357-6.222-6.781-2.096-8.177-4.525-16.278-6.27-24.525-.333-1.567 1.863-3.669 3.14-5.81zM50.787 143.496c-1.126 3.716-2.462 6.6-6.673 6.809-.78.038-2.18 1.53-2.083 2.17.153 1.02 1.24 2.61 2.073 2.704 5.179.588 5.987 4.406 6.978 8.417 1.903 7.703 4.397 15.282 5.838 23.062.387 2.086-2.143 4.712-3.53 7.48-20.172-22.524-22.425-56.697-.721-82.269l4.094 4.943c-1.998 8.953-3.933 17.623-5.976 26.684z"/><path fill="#F6CA1D" d="m84.563 236.357 3.402-2.826c-.866-.817-1.732-1.634-2.934-2.869-.354-1.245-.372-2.074-.39-2.903 2.55-1.499 5.893-2.881.44-5.962-.378-1.31-.388-2.157-.398-3.004 4.67-3.088 4.684-3.247.105-6.096-.199-4.163-.047-7.78.105-11.395 5.504 3.8 7.349 8.76 7.273 15.665-.387 35.491-.18 70.989-.18 106.484v5.915c-2.355 0-4.298 0-6.726-.593-.47-28.375-.455-56.156-.44-83.936 4.095-1.48 4.196-3.316.183-6.002a9.572 9.572 0 0 1-.44-2.478z"/><path fill="#F6C91C" d="m256.137 270.247-3.954 2.779c1.212 1.022 2.246 1.893 3.598 3.207.32 1.3.323 2.156.325 3.012l-4.29 2.474c1.309 1.107 2.462 2.083 3.95 3.645.291 4.265.25 7.944.207 11.622-5.802-3.847-7.36-9.107-7.286-16.094.376-35.267.173-70.54.172-105.81v-6.453c2.367 0 4.3 0 6.716.587.464 28.371.446 56.155.428 83.94l-3.993 2.492c1.204 1.058 2.322 2.041 3.757 3.519.347 1.162.378 1.83.408 2.497l-4.151 2.32c1.371 1.196 2.41 2.101 3.761 3.395.325 1.215.338 2.042.352 2.868z"/><path fill="#274DBF" d="M173.333 85.554c-5.722-12.69-16.999-16.11-29.414-17.694-2.164-.276-5.827 1.438-5.659-2.649.141-3.425 3.403-3.478 6.137-3.535 19.738-.41 33.711 10.187 38.915 31.702 2.9 11.988 3.343 24.59 4.586 36.948.386 3.845-1.23 6.65-6.333 4.54-.4-3.528-.242-6.359-.543-9.14-1.256-11.61-2.514-23.225-4.131-34.788-.27-1.923-2.327-3.596-3.558-5.384z"/><path fill="#284EC0" d="M172.059 420.11c6.63 5.822 13.672 10.674 23.127 9.946.989-.076 2.149-.279 2.954.126 1.444.726 2.68 1.868 4.002 2.837-1.372 1.064-2.662 2.918-4.129 3.071-17.73 1.854-32.654-8.135-39.048-25.892-5.022-13.947-6.326-28.43-6.01-43.116.07-3.272.916-6.193 5.739-3.844.604 5.092.602 9.571 1.13 13.987 1.237 10.326 2.11 20.761 4.403 30.864.993 4.374 5.125 8.036 7.832 12.02z"/><path fill="#F2C71D" d="M197.99 449.876c-22.145 2.855-40.845-4.438-56.86-19.443-1.42-1.33-4.566-2.728-.714-5.434 6.926 2.916 13.272 5.875 19.617 8.834 11.44 5.457 23.632 7.372 36.733 8.13.787 2.933 1.006 5.423 1.225 7.913z"/><path fill="#F5C81D" d="M145.92 48.036c21.968-2.207 39.968 5.923 55.084 21.335.566.577-.101 2.364-.825 3.582-3.046-1.45-5.334-3.2-7.904-4.276-5.706-2.391-11.553-4.446-17.343-6.637 0 0 .062-.03.075-.229-.356-.088-.724.021-1.093.13-9.98-1.82-19.96-3.64-30.383-5.966-.31-3.292-1.967-6.762 2.388-7.939z"/><path fill="#F0F1F4" d="M112.165 345.946c-3.497-8.734-8.099-17.17-10.362-26.194-6.728-26.816 5.475-56.002 28.084-69.218 1.954-1.142 4.23-1.734 6.737-2.5-5.637 5.414-12.609 9.994-17.507 16.208-20.215 25.644-19.158 58.766 1.977 87.225-.035.474-.348.786-.348.786-2.31-1.54-4.622-3.082-7.23-5.15-.685-.745-1.074-.962-1.462-1.18 0 0 .075.05.11.023z"/><path fill="#F4F4F4" d="M248.747 304.361c-12.314-4.66-17.113-15.125-21.523-25.833-.368-.893.208-2.634.94-3.444 4.553-5.04 9.277-9.926 13.944-14.863l1.42.692c0 7.733.315 15.483-.103 23.193-.315 5.804 1.28 10.316 5.77 14.022 1.698 1.401 2.868 3.442 5.237 6.38-2.759 0-4.042 0-5.685-.147z"/><path fill="#F0F1F6" d="M227.77 151.257c3.925 9.783 9.166 19.23 11.572 29.35 6.11 25.706-6.935 54.652-29.094 67.166-1.95 1.101-4.282 1.529-6.826 2.295 7.189-5.21 14.73-10.438 19.927-18.36 16.48-25.119 17.146-50.583 1.855-76.43-1.824-3.084-3.965-5.981-5.33-9.888 2.068 1.396 4.137 2.792 6.57 4.714.719.721 1.072.916 1.425 1.11 0 0-.075.014-.1.043z"/><path fill="#FCFCFC" d="M98.075 237.413c-.549-5.438-.851-11.127-1.047-16.82-.103-2.994-.308-6.03.049-8.984.564-4.678-1.533-7.872-4.728-10.893-1.98-1.872-3.464-4.269-5.966-7.437 6.871-.233 11.254 1.938 13.956 5.527 4.832 6.418 8.805 13.499 12.859 20.464.512.88-.225 3.132-1.106 4.07-4.444 4.73-9.126 9.236-14.017 14.073z"/><path fill="#F8CA19" d="M256.09 372.826h-6.835V310.54c1.72-.241 3.758-.528 6.277-.461.508 21.15.532 41.948.557 62.746zM84.69 125.182h7.058v62.442c-2.087.191-4.019.369-6.44.193-.533-21.113-.575-41.874-.617-62.635z"/><path fill="#C83315" d="M134.66 180.056c.699 4.868 1.611 9.719 1.987 14.61.142 1.854-.4 4.305-1.587 5.617-4.079 4.51-8.58 8.635-13.443 12.707-3.135-4.927-5.75-9.654-8.524-14.669l21.567-18.265z"/><path fill="#F8CA1B" d="M206.153 317.721c-.752-4.9-1.684-9.784-2.156-14.711-.159-1.654.348-3.878 1.418-5.052 4.125-4.528 8.6-8.738 13.497-12.967 3.215 4.822 5.879 9.546 8.763 14.66l-21.522 18.07z"/><path fill="#264CBE" d="M154.04 418.993c-6.498-4.991-9.749-12.246-11.45-19.676-2.306-10.073-3.196-20.486-4.386-30.789-.402-3.485.434-6.828 5.703-6.03.664 1.416 1.083 2.382 1.088 3.349.087 18.217 2.31 36.063 9.045 53.146z"/><path fill="#284EC0" d="M186.76 79.182c6.263 4.482 9.383 11.304 10.851 18.2 2.32 10.896 3.15 22.117 4.427 33.221.404 3.508-1.216 5.747-5.51 5.034-.68-2.003-1.263-3.464-1.238-4.913.313-17.71-2.193-34.94-8.53-51.542z"/><path fill="#274DBF" d="M138.017 410.007c-1.013-.655-2.324-1.09-2.994-1.997-9.236-12.501-11.224-26.964-10.895-41.935.061-2.807 1.558-5.256 5.644-2.81 1.263 16.301 2.435 31.916 8.245 46.742z"/><path fill="#264CBE" d="M202.058 86.898c1.972 2.09 4.343 3.926 5.847 6.31 7.265 11.506 8.516 24.541 8.895 37.697.09 3.107-1.326 5.546-5.65 4.458-.69-1.647-1.13-2.779-1.118-3.905.177-15.365-2.186-30.266-7.974-44.56z"/><path fill="#EDEDED" d="M56.842 165.347c-.818-3.434-1.584-6.45-2.41-9.703h23.342c-1.087 1.935-1.594 4.225-2.665 4.528-10.936 3.1-13.346 11.427-14.785 21.556a2602.538 2602.538 0 0 1-3.482-16.381z"/><path fill="#F1F0F0" d="M274.027 342.542h-10.885c1.043-2.1 1.376-4.244 2.488-4.785 10.15-4.93 11.584-6.71 13.796-18.61l1.443-.385 5.295 23.78h-12.137z"/><path fill="#FEF6D9" d="M84.383 244.72c.422 27.897.407 55.678.417 83.938-4.188 1.592-2.756-1.72-2.761-3.387-.08-25.539-.056-51.078-.051-76.617 0-.992-.155-2.06.163-2.948.185-.515 1.17-.743 2.232-.985z"/><path fill="#F6F5F0" d="M155.69 193.964c.307.286.276.538.168.578-8.437 3.08-8.297 9.04-6.792 16.686 2.892 14.687 9.148 26.644 22.815 34.301-1.595-.065-3.49-.094-5.012-.863-12.109-6.125-19.057-16.09-21.434-29.363-.438-2.446-.971-4.875-1.42-7.32-1.554-8.456-1.027-9.447 7.042-12.858 1.36-.574 2.837-.87 4.633-1.161z"/><path fill="#F6F6F6" d="M57.922 133.982a842.734 842.734 0 0 1 2.477-9.787l.696.143c.624 3.283.972 6.649 1.932 9.83 1.64 5.44 5.279 9.4 10.87 10.584 3.377.715 3.394 2.383 2.874 5.14H54.682c1.063-5.182 2.12-10.339 3.24-15.91z"/><path fill="#F3EEEC" d="M186.167 302.975c7.442-5.136 7.348-5.119 5.573-14.554-1.99-10.58-4.56-20.884-13.04-28.41-2.707-2.403-5.825-4.344-8.717-6.86 8.2.505 13.174 6.098 17.912 11.898 6.052 7.41 7.061 16.67 8.946 25.572 1.647 7.78-1.914 12.012-10.674 12.354z"/><path fill="#F9F9F9" d="M263.939 351.491c.692-1.503 1.429-3.472 2.24-3.503 6.575-.253 13.163-.142 19.952-.142l-5.522 25.021-.88-.396c-1.027-3.742-1.77-7.592-3.144-11.201-2.153-5.658-7.59-7.278-12.646-9.779z"/><path fill="#F3F2EA" d="M151.861 335.536c-1.762-.12-3.792-.239-5.512-1.03-16.793-7.732-28.456-20.264-35.097-37.981.367-3.684.999-7.045 1.63-10.406 4.59 23.332 18.31 38.88 38.98 49.417z"/><path fill="#F3EEEC" d="M190.076 163.26c1.914.036 4.022.053 5.715.9 16.365 8.194 27.961 20.633 33.75 38.582-.468 3.143-1.135 6.002-1.803 8.862-4.73-22.326-17.3-38.186-37.662-48.343z"/><path fill="#F4F4F4" d="M160.708 153.83a2742.88 2742.88 0 0 1-8.107 2.937l.89-11.677 19.378-6.884c-.67 7.608-4.932 12.51-12.16 15.623zM187.984 341.986l-.873 10.988-18.934 6.6c.317-9.02 5.723-14.108 19.503-17.744.342.187.304.156.304.156z"/><path fill="#C73517" d="M169.576 34.178c4.29 1.241 8.723 2.132 12.842 3.799 8.17 3.306 8.098 3.483 3.69 11.43-5.573-1.567-11.175-3.14-17.125-5.45-.035-3.75.28-6.764.593-9.78z"/><path fill="#FEF6D9" d="M84.276 125.11c.457 20.833.499 41.594.599 62.864-.705 1.373-1.468 2.236-2.516 3.423-.142-1.213-.359-2.207-.36-3.201-.02-19.713-.052-39.426.065-59.138.008-1.343 1.172-2.68 2.212-3.947z"/><path fill="#C73517" d="m170.97 463.83-20.658-6.727 4.28-8.605c5.98 1.986 11.315 3.758 17.065 5.988.048 3.42-.32 6.382-.688 9.344z"/><path fill="#F0F1F6" d="M150.442 243.928c-1.597-1.586-2.705-3.176-4.012-4.58-7.578-8.14-10.115-18.397-12.379-29.234 1.004-1.714 2.156-3.035 4.122-5.289 2.28 15.036 5.17 28.757 17.848 39.183-2.509 0-3.846 0-5.58-.08zM188.672 254.06c11.797 8.327 15.505 20.57 17.901 33.948-.921 1.66-2.079 2.985-4.003 5.188-2.443-15.047-5.198-28.912-17.768-38.97 1.773-.127 2.65-.19 3.87-.166z"/><path fill="#F3EEEC" d="M134.739 179.676c-7.282 6.48-14.485 12.581-21.646 18.645a3222.37 3222.37 0 0 0 8.23 14.817c-.677 1.487-1.58 2.626-2.548 3.846l-10.227-18.672 26.028-22.151c.125 1.627.183 2.381.163 3.515z"/><path fill="#F6F5F0" d="M206.081 318.118c7.29-6.457 14.507-12.516 21.594-18.467-2.884-5.114-5.548-9.838-8.461-14.842.724-1.329 1.697-2.378 2.754-3.518l10.21 18.43-25.974 21.961c-.098-1.595-.146-2.381-.123-3.564z"/><path fill="#FCF6DF" d="M256.475 253.256c-.454-27.885-.436-55.669-.447-83.933.808.508 2.373 1.49 2.378 2.482.133 26.14.123 52.28.039 78.42-.003 1.045-.976 2.087-1.97 3.03z"/><path fill="#DCDFE8" d="M154.02 418.998c-6.715-17.088-8.938-34.934-9.025-53.151-.005-.967-.424-1.933-.675-3.305 3.805.565 3.227 3.72 3.277 6.46.266 14.515 1.272 28.926 6.411 42.69 1.49 3.99 3.403 7.823 4.395 12.41-.975-1.057-1.95-2.114-3.192-3.729-.578-.841-.89-1.126-1.202-1.41 0 0-.009.04.011.035z"/><path fill="#C73517" d="m198.938 462.497-18.007 3.045 1.45-9.174c5.232-.427 10.437-.852 16.03-.809.435 2.624.48 4.781.526 6.938z"/><path fill="#D7DAE3" d="M202.037 86.922c5.809 14.27 8.172 29.17 7.995 44.536-.013 1.126.428 2.258.732 3.767-4.227-.423-3.333-3.89-3.357-6.672-.107-12.157-1.352-24.13-5.616-35.608-1.301-3.501-3.014-6.85-4.538-10.268l1.953-1.832c.377 1.195.754 2.39 1.442 4.112.682 1.024 1.053 1.52 1.424 2.016 0 0-.055-.028-.035-.051z"/><path fill="#E4E6ED" d="M186.789 79.153c6.308 16.632 8.814 33.86 8.501 51.57-.025 1.45.559 2.91.852 4.787-1.013-1.596-2.833-3.59-2.891-5.635-.386-13.482-1.176-26.892-5.313-39.836-1.498-4.69-3.582-9.192-5.653-14.422 1.105.606 2.046 1.122 3.304 2.196.648.811.98 1.064 1.31 1.317 0 0-.082-.006-.11.023z"/><path fill="#C83315" d="m141.257 36.098 18.292-3.279c-.248 2.203-.534 3.783-.58 5.37-.085 2.857-1.302 4.022-4.3 3.99-3.935-.04-7.876.45-12.249.305-.677-2.399-.92-4.392-1.163-6.386z"/><path fill="#E4E6ED" d="M172.06 419.743c-2.708-3.618-6.84-7.28-7.833-11.654-2.293-10.103-3.166-20.538-4.403-30.864-.528-4.416-.526-8.895-.836-13.753 3.667-.498 2.897 2.348 3.027 4.483.609 9.934.266 20.03 2.005 29.757 1.334 7.462 5.264 14.46 8.04 22.03z"/><path fill="#FCF6DF" d="M256.541 372.888c-.477-20.86-.501-41.658-.587-62.97.34-1.243.738-1.973 1.137-2.703l1.056.615c.122 1.243.349 2.486.35 3.73.023 19.109.048 38.219-.048 57.327-.007 1.357-.95 2.71-1.908 4.001z"/><path fill="#E4E6ED" d="M138.005 410.004c-5.798-14.823-6.97-30.438-7.935-46.505 3.732-.582 2.886 2.3 2.939 4.416.342 13.764 1.6 27.362 7.042 40.223 1.04 2.458 2.261 4.838 2.435 7.81-.92-1.062-1.838-2.124-2.978-3.748a17.665 17.665 0 0 0-1.51-2.223s-.005.024.007.027zM173.19 85.946c1.374 1.396 3.432 3.07 3.7 4.992 1.618 11.563 2.876 23.178 4.132 34.788.301 2.781.142 5.612.302 8.882-.773-1.314-2.252-3.03-2.433-4.875-1.113-11.315-1.773-22.676-2.951-33.982-.334-3.204-1.894-6.28-2.75-9.805z"/><path fill="#EDECE7" d="m132.021 433.742 1.738-2.54 16.423 13.744-3.776 7.878c-1.17-.804-2.19-1.505-3.163-2.82.774-2.223 1.501-3.832 2.162-5.295l-13.384-10.967z"/><path fill="#C73517" d="M197.495 47.327c3.699 4.167 7.507 8.244 11.007 12.572.737.911.341 2.738-.12 4.07-4.805-3.637-9.02-7.2-13.238-10.764.782-1.96 1.567-3.92 2.351-5.878z"/><path fill="#E1E1E1" d="M234.7 335.035c2.24.835 4.083 1.58 5.963 2.211 3.042 1.023 3.052.992 2.206 5.149h-12.742c1.673-2.995 2.933-5.249 4.573-7.36z"/><path fill="#C73517" d="M131.73 433.977c4.633 3.322 8.974 6.88 13.675 10.732a377.216 377.216 0 0 1-2.29 5c-3.705-3.492-7.35-7.204-10.68-11.179-.846-1.01-.692-2.856-.706-4.553z"/><path fill="#EDEDED" d="M84.761 201.047c-.02 3.87-.172 7.487-.295 11.52-2.762.23-5.655.43-8.306-.277-1.78-.476-3.216-2.238-4.807-3.425l5.308-4.258c.2 2.16-.007 3.277.44 3.97.675 1.043 1.808 1.791 2.746 2.664.708-.945 1.957-1.853 2.026-2.843.248-3.563.097-7.153.097-11.96 1.352 2.213 2.006 3.283 2.791 4.609z"/><path fill="#F6F5F0" d="M197.178 47.122c-.467 2.164-1.252 4.123-2.034 6.083 4.218 3.564 8.433 7.127 12.94 10.933-.274 1.023-.839 1.802-1.335 2.486l-16.162-13.552 3.75-7.944c.931.66 1.728 1.225 2.84 1.994z"/><path fill="#F3EEEC" d="M181.883 141.749c-.9 7.429-5.264 12.208-11.763 15.74-1.183.257-2.165.257-2.496.257 3.76-5.21 7.686-10.653 12.072-16.733-.264-.075.795.225 2.187.736z"/><path fill="#EDECE7" d="M106.287 162.997c-2.239-.8-4.025-1.745-5.924-2.111-3.09-.597-4.2-2.064-2.994-5.163h12.78c-1.366 2.915-2.414 5.152-3.862 7.274zM158.83 356.27c.994-7.235 5.215-12.068 11.513-15.782 1.238-.263 2.22-.263 2.605-.263l-11.828 16.763c.251.064-.84-.215-2.29-.718z"/><path fill="#EDEDED" d="M256.153 297.363c-.138-4.055-.096-7.734-.062-11.871 2.796-.28 5.678-.435 8.375.197 1.712.402 3.149 1.973 4.709 3.02l-4.721 4.902c-.384-2.176-.29-3.1-.699-3.655-.848-1.15-1.962-2.104-2.967-3.139-.738 1.113-1.99 2.172-2.113 3.35-.307 2.933-.101 5.92-.101 10.01-1.272-1.383-1.757-1.91-2.421-2.814z"/><path fill="#F1F0F0" d="M235.223 347.818h8.26c.284 7.974-7.655 4.466-10.205 9.374l-2.287-9.041c1.53-.135 2.656-.234 4.232-.333z"/><path fill="#F6F6F6" d="M101.14 150.166c-4.272.687-4.603-1.37-3.92-4.308l10.573-3.713 1.76 8.021h-8.412z"/><path fill="#EDECE7" d="M175.088 62.362c5.634 1.87 11.48 3.924 17.187 6.315 2.57 1.077 4.858 2.826 7.591 4.455-.949 2.949-2.344 1.352-3.971.47-6.843-3.714-13.76-7.29-20.807-11.24z"/><path fill="#EDEDED" d="M256.543 279.358c-.44-.97-.441-1.826-.455-3.004 5.09-.3 10.47-1.1 14.617 4.748-5.165-.614-9.444-1.122-14.162-1.744z"/><path fill="#EDECE7" d="M84.27 218.667c.423.973.433 1.82.455 2.987-5.116.386-10.4.922-15-4.752 5.53.641 9.83 1.14 14.544 1.765zM169.243 34.087c.02 3.106-.295 6.12-.509 9.567-1.478.139-3.056-.154-5.083-.531l1.485-9.647c1.358.187 2.566.354 4.107.611zM159.913 433.516c-6.225-2.642-12.571-5.601-19.216-8.725.832-.454 2.294-1.347 3.044-.937 5.432 2.967 10.72 6.197 16.172 9.662zM171.4 463.956c-.063-3.088.305-6.05.625-9.425 1.547-.208 3.142-.003 6.517.432-4.382 2.623 1.554 9.729-7.142 8.993z"/><path fill="#E1E1E1" d="M84.234 227.627c.425.961.443 1.79.417 2.928-4.914.128-9.857.164-14.47-4.59 5.299.594 9.473 1.062 14.053 1.662z"/><path fill="#EDECE7" d="M145.504 48.021c-3.94 1.192-2.283 4.662-2.414 7.831-1.407.498-2.818.613-4.742.769l-.464-7.437c2.535-.414 4.87-.796 7.62-1.163zM256.569 270.363c-.446-.942-.46-1.769-.453-2.905 4.624.056 9.462-.294 14.164 4.495-5.345-.593-9.312-1.033-13.711-1.59z"/><path fill="#E1E1E1" d="M198.375 449.839c-.603-2.453-.822-4.943-1.153-7.763 1.343-.477 2.797-.626 4.749-.825l1.05 7.054c-1.614.567-2.938 1.032-4.646 1.534z"/><path fill="#EDECE7" d="M84.172 236.269c.434.745.478 1.401.516 2.386-7.41.784-9.97-.082-12.492-4.062 3.967.543 7.776 1.065 11.976 1.676zM199.341 462.414c-.45-2.074-.495-4.23-.52-6.844 1.266-.754 2.51-1.05 3.743-1.346 2.333 5.904 2.06 6.675-3.223 8.19zM256.592 261.746c-.447-.75-.478-1.417-.525-2.418 4.484-.667 8.837-.545 11.873 3.888-3.644-.463-7.287-.926-11.348-1.47z"/><path fill="#F1F0F0" d="M140.832 35.996c.668 2.096.91 4.09 1.165 6.468-1.415.72-2.841 1.054-4.758 1.503.665-3.15-3.001-7.337 3.593-7.971z"/><path fill="#FAFAFA" d="M203.509 380.259c-2.08 1.309-2.08 1.309-3.419-3.025 1.197.878 2.395 1.755 3.419 3.025z"/><path fill="#274DBF" d="M137.893 410.342c.535.189.965.743 1.359 1.68-.512-.183-.989-.75-1.36-1.68z"/><path fill="#264CBE" d="M202.127 86.636c-.426-.16-.797-.655-1.242-1.477.382.163.84.652 1.242 1.477z"/><path fill="#284EC0" d="M186.847 78.81c-.279.067-.61-.186-1.002-.785.276-.077.613.193 1.002.784z"/><path fill="#264CBE" d="M154.027 419.293c.294-.046.606.239.947.869-.29.05-.609-.245-.947-.87z"/><path fill="#F0F1F4" d="M121.216 351.785c.282.197.407.549.532.9-.247.016-.495.032-.872-.192-.13-.24.183-.552.34-.708z"/><path fill="#E1E1E1" d="M258.454 300.297c.055-.063.052.159.052.159s-.106-.096-.052-.16z"/><path fill="#254DC1" d="M227.79 150.891c-.274.129-.627-.066-1.118-.563.254-.122.646.06 1.118.563z"/><path fill="#254DC2" d="M112.098 346.262c.344-.121.733.096 1.154.69-.349.134-.73-.108-1.154-.69z"/><path fill="#F4F4F4" d="M188.043 342.03c.048-.2.075-.414.102-.627.087.175.175.35.051.554-.212.03-.174.06-.153.073z"/><path fill="#EDECE7" d="M174.171 62.05c.112-.218.48-.327.83-.205-.203.26-.388.287-.83.206z"/><path fill="#383838" d="M187.983 318.426c4.257-1.713 5.448.05 5.056 4.025l-4.723 1.406c-.25-1.912-.466-3.573-.333-5.43zM178.72 323.77c-1.698.86-3.287 1.3-5.547 1.926l.419-5.578c2.69.013 5.94-1.56 5.128 3.653z"/><path fill="currentColor" d="M160.97 316.97c1.6.522 2.795 1.008 4.122 1.548l-1.59 4.764-5.177-1.72c.862-1.781 1.55-3.205 2.644-4.592z"/><path fill="#313131" d="M133.897 292.213c-1.421.553-2.462.95-3.655 1.406l-1.977-4.51 5.068-2.601c.372 2.191.658 3.87.564 5.705zM138.918 305.995c-1.423-1.073-2.464-2.243-3.728-3.662 1.62-1.22 2.882-2.168 4.313-3.244l3.036 3.992c-1.157 1.007-2.198 1.912-3.62 2.914zM151.942 313.764c-.934 1.188-1.66 2.021-2.49 2.975l-3.924-2.985 3.167-4.764c1.368 1.75 2.411 3.084 3.247 4.774z"/><path fill="currentColor" d="M124.852 275.313c1.435-.968 2.883-1.509 4.784-2.219l.773 5.264c-3.008.96-5.599 1.843-5.557-3.045z"/><path fill="#313131" d="M208.513 204.972c1.623.893 2.905 1.883 4.925 3.442l-5.62 2.851c-.569-2.372-4.164-4.314.695-6.293z"/><path fill="#383838" d="M210.689 219.392c4.155-1.358 5.554.246 5.135 4.37l-4.72.959c-.266-1.769-.52-3.45-.415-5.329zM198.332 195.042c1.025-1.32 2.142-2.28 3.57-3.507l3.522 3.953-4.088 3.49c-1.062-1.304-1.987-2.44-3.004-3.936zM191.849 181.688a133.963 133.963 0 0 1 3.42 2.803l-3.053 3.965-5.863-3.928c2.116-1.248 3.642-2.148 5.496-2.84z"/><path fill="#313131" d="M153.136 177.709c-1.21 1.352-2.49 2.295-4.294 3.626l-1.728-5.64c2.506-.372 5.149-3.3 6.022 2.014z"/><path fill="currentColor" d="M180.981 180.062c-1.764.281-3.404.18-5.638.042l1.945-5.333c2.737.838 6.126.751 3.693 5.291zM165.942 172.894c.775 1.517 1.09 2.992 1.48 4.826h-5.23c-.263-2.697-1.11-5.51 3.75-4.826z"/><path fill="#383838" d="M148.246 89.717c3.097 1.252 4.7 5.997 2.64 7.652-.782.629-2.996-.524-4.557-.865.525-2.223 1.05-4.445 1.917-6.787z"/><path fill="currentColor" d="M191.25 399.581c4.955 1.505 2.438 4.99 2.516 7.772l-4.475-.646c.521-2.354 1.043-4.709 1.958-7.126z"/></svg>