<svg xmlns="http://www.w3.org/2000/svg" viewBox="0 0 336 496" xml:space="preserve"><path fill="currentColor" d="M1 21.428c3.235-.847 5.87-2.588 8.614-4.176 4.176-2.417 6.66-.996 6.705 3.83.081 8.816.1 17.633-.008 26.448-.038 3.048.514 5.174 4.112 5.49 1.636.145 3.396.867 2.991 3.163-.352 1.992-2.04 1.965-3.52 1.972-5.988.027-11.976-.014-18.429-.093-.465-1.45-.465-2.84-.051-4.68 2.841-.86 6.182.1 6.208-4.056.048-7.574.014-15.148.014-22.697C5.086 25.86 3.035 26.306 1 27v-5.572zM337 484.572c-2.259.488-4.092 1.664-5.959 2.728-5.416 3.087-7.36 1.957-7.383-4.384-.032-8.448-.076-16.897.015-25.344.032-2.966-.352-5.167-4.009-5.537-1.65-.167-4.006-.686-3.497-3.245.484-2.437 2.77-1.948 4.503-1.968 5.134-.056 10.27.004 15.867.098.463 1.469.463 2.858.084 4.753-3.325.544-4.367 2.121-4.318 4.955.1 5.777.258 11.57-.07 17.33-.214 3.771 1.376 5.065 4.767 5.042v5.572zM136.744 360.216c3.319-15.539 13.666-20.473 29.42-14.102-.073-4.641-2.182-8.262-4.56-11.765-1.027-1.513-2.568-2.993-1.518-4.914 1.048-1.917 3.214-1.394 4.983-1.423 3.66-.06 7.328-.118 10.981.06 4.532.222 5.415 1.916 2.837 5.599-2.515 3.594-4.513 7.339-5.176 11.672.801.963 1.579.373 2.287.077 9.459-3.952 17.628-2.44 23.04 4.286 5.636 7.003 5.643 17.24-.154 25.045-2.48 3.34-5.372 6.33-8.745 8.84-7.037 5.239-14.66 9.808-20.094 18.141-6.505-9.949-16.82-14.612-24.741-22.089-5.412-5.108-8.552-11.385-8.56-19.427zM202.181 149.686c-5.808 12.01-14.518 14.805-28.393 9.171.258 4.796 2.285 8.628 4.906 12.217 1.007 1.379 2.13 2.779 1.216 4.511-.821 1.554-2.56 1.344-4.028 1.36-4.16.044-8.33.178-12.48-.048-3.837-.208-4.716-2.035-2.495-5.19 2.694-3.828 4.913-7.762 5.36-13.008-4.808 1.98-9.188 3.724-14.21 2.88-10.198-1.714-17.073-11.486-14.97-21.628 1.413-6.81 4.99-12.17 10.341-16.576 7.536-6.204 16.491-10.756 22.423-20.022 7.066 10.606 18.614 15.137 26.518 23.929 5.722 6.365 8.294 13.507 5.812 22.404zM241.58 457.314c-1.228 1.477-2.245 1.315-3.033.086-4.37-6.808-11.32-10.67-17.495-15.422-6.144-4.729-11.614-9.889-13.569-17.902-1.784-7.315-.265-13.598 5.208-18.665 5.518-5.109 12.056-5.92 19.076-3.548 1.356.457 2.708.923 4.484 1.528-.592-4.935-2.573-8.641-5.044-12.222-2.644-3.832-1.866-5.298 2.757-5.433 3.826-.112 7.66-.108 11.486-.008 1.557.04 3.545-.656 4.476 1.245.98 2.005-.582 3.404-1.603 4.9-2.263 3.315-4.179 6.773-4.275 11.361 2.97-.864 5.697-2.06 8.53-2.415 14.513-1.816 24.577 12.065 19.124 26.178-3.052 7.9-9.591 12.575-15.998 17.363-5.057 3.779-10.526 7.09-14.124 12.954zM95.187 385.706c3.644-.003 6.814-.101 9.974.033 1.699.072 3.903-.792 4.848 1.444.753 1.785-.622 3.09-1.55 4.477-2.303 3.44-4.481 6.952-4.353 11.795 4.738-1.924 9.262-3.492 14.183-2.594 11.728 2.14 17.924 14.477 13.304 26.392-1.936 4.993-5.398 8.798-9.4 12.1-3.85 3.176-7.925 6.09-11.99 8.995-3.932 2.808-6.958 6.5-10.273 10.841-6.004-9.505-15.657-13.975-23.295-20.805-6.687-5.978-11.012-13.157-9.553-22.407 1.828-11.591 12.847-17.948 23.997-14.3 1.551.507 3.082 1.076 5.07 1.774-.282-4.698-2.215-8.252-4.536-11.68-3.15-4.65-2.615-5.671 3.574-6.065zM116.744 214.28c-4.911.49-8.893-1.095-13.177-3.465.454 5.309 2.747 9.211 5.292 13.063 2.543 3.849 1.76 5.299-2.886 5.41-4.155.1-8.32.13-12.472-.033-3.918-.153-4.834-1.84-2.57-5.027 2.73-3.845 4.757-7.889 5.564-12.966-3.278.87-5.927 2.663-9.056 3.002-14.57 1.575-24.535-12.097-19.103-26.232 2.431-6.326 7.11-10.725 12.319-14.712 6.704-5.13 14.148-9.417 19.297-17.672 5.96 9.78 15.836 14.142 23.547 21.078 5.112 4.598 8.736 10.046 9.636 16.972 1.31 10.085-5.029 18.173-16.39 20.582zM244.804 211.39c-1.903 3.883 1.019 6.678 2.363 9.893.925 2.21 4.13 3.88 2.717 6.534-1.521 2.857-4.804 1.238-7.305 1.451-2.645.226-5.328.12-7.989.014-1.575-.063-3.515.56-4.473-1.327-.913-1.796.3-3.14 1.32-4.48 2.664-3.499 4.239-7.46 5.153-12.255-4.038 1.155-7.445 3.209-11.53 3.147-11.622-.176-20.23-10.562-17.988-21.977 1.575-8.02 6.538-13.64 12.756-18.458 6.938-5.376 14.776-9.721 20.154-18.234 5.977 9.777 15.876 14.142 23.582 21.111 4.695 4.247 8.265 9.161 9.328 15.535 1.259 7.55-.995 13.99-7.174 18.51-6.57 4.803-13.631 4.636-20.914.536zM103.56 102.636c1.02 4.23 2.685 7.83 5.169 11.033.942 1.215 1.906 2.472 1.277 4.07-.805 2.044-2.754 1.52-4.331 1.546-4.163.07-8.329.058-12.492-.002-3.89-.055-4.32-2.2-2.385-4.864 2.788-3.84 4.772-7.947 5.741-12.538-1.134-1.174-1.89-.017-2.676.325-8.171 3.557-15.88 2.585-21.355-2.747-5.765-5.614-7.185-14.028-3.84-22.161 2.513-6.111 7.189-10.308 12.271-14.166 6.607-5.015 13.868-9.28 18.915-17.348 7.088 10.887 19.163 15.3 27.095 24.5 5.302 6.15 7.749 13.132 5.374 21.263-3.075 10.531-14.432 15.599-24.92 11.29-1.11-.456-2.323-2.884-3.842-.2zM219.373 330.667c-5.702-4.574-10.15-9.517-11.87-16.596-1.728-7.115-.312-13.289 4.86-18.343 5.387-5.264 11.9-6.166 19.012-4.037 1.516.454 2.811 1.842 4.887 1.24-.644-4.388-2.347-8.244-5.035-11.696-.944-1.214-1.836-2.501-1.232-4.097.702-1.855 2.478-1.384 3.883-1.41 4.165-.08 8.335-.135 12.496 0 4.184.136 5.015 1.784 2.513 5.27-2.669 3.72-4.524 7.706-5.419 12.246 1.82.93 2.839-.66 4.112-1.126 6.95-2.538 13.512-2.1 19.207 2.869 5.787 5.048 7.51 11.551 5.811 19-1.61 7.065-6.218 11.982-11.602 16.387-7.043 5.763-15.48 9.93-20.807 18.962-5.424-8.356-13.36-12.948-20.816-18.67zM126.337 294.53c8.967 8.933 9.139 20.564.705 30.13-3.21 3.64-7.004 6.625-10.941 9.424-5.82 4.14-11.773 8.123-15.904 15.281-6.55-10.187-17.138-14.758-25.104-22.415-4.183-4.02-6.92-8.854-8.023-14.62-2.54-13.287 9.542-24.586 22.59-21.031 2.062.561 4.06 1.354 6.552 2.197-.333-4.764-2.234-8.488-4.77-11.957-.996-1.362-2.195-2.72-1.399-4.496.887-1.978 2.874-1.27 4.423-1.317 3.657-.11 7.322-.108 10.979-.004 1.56.044 3.524-.62 4.473 1.27.892 1.775-.325 3.121-1.334 4.478-2.61 3.511-4.303 7.427-5.258 12.528 7.934-3.943 15.478-5.029 23.01.531zM244.963 107.128c1.413 2.48 2.622 4.658 3.937 6.77 2.317 3.721 1.701 5.238-2.478 5.375-4.322.142-8.658.15-12.979-.017-3.874-.15-4.749-1.85-2.469-5.065 2.724-3.84 4.752-7.877 5.527-12.938-3.437.966-6.257 2.79-9.59 3.054-14.403 1.142-23.817-12.206-18.54-26.32 2.32-6.2 6.93-10.46 11.955-14.39 6.772-5.296 14.483-9.51 19.549-17.886 6.271 9.575 15.928 14.236 23.692 21.135 4.871 4.328 8.253 9.457 9.42 16.004 2.395 13.427-10.345 24.76-23.343 20.635-1.876-.596-3.666-1.464-5.771-2.318-.812 2.147.709 3.808 1.09 5.961zM280.105 460.697c3.024-11.494 9.806-16.053 20.123-14.144 5.78 1.07 9.122 4.678 10.766 9.905 1.928 6.126 2.04 12.487.622 18.727-2.192 9.65-8.613 14.718-17.18 13.965-8.694-.763-14.062-6.679-14.678-16.58-.237-3.8.123-7.638.347-11.873m10.113-2.814c-1.691 6.786-1.091 13.564.376 20.26.61 2.787 1.888 5.526 5.512 5.472 3.498-.052 4.841-2.463 5.533-5.424 1.577-6.754 1.511-13.518-.046-20.26-.695-3.007-1.72-6.08-5.316-6.432-3.773-.369-5.025 2.568-6.059 6.384zM31.74 21.865c5.11-5.57 11.044-7.096 17.867-5.079 6.397 1.892 8.995 6.816 10.096 12.928 1.074 5.966 1.157 11.898-.732 17.696-2.531 7.767-8.105 11.65-16.114 11.49-7.298-.145-12.336-4.155-14.221-12.231-1.964-8.41-1.929-16.79 3.104-24.804m11.042-.494c-2.683.547-3.773 2.613-4.344 4.92-1.824 7.38-1.635 14.805.225 22.126.654 2.575 2.072 5.102 5.307 5.15 3.506.053 4.812-2.554 5.567-5.394 1.92-7.216 1.474-14.468-.218-21.638-.683-2.895-2.37-5.145-6.537-5.164zM293.54 416.187c-1.075-9.313 3.08-12.989 13.303-12.231 1.261-2.665-4.219-4.992-.76-7.315 2.269-1.524 5.902-1.55 8.102.144 3.08 2.371-2.02 4.397-.984 7.214.345.435.989.221 1.625.07 4.603-1.097 8.36.347 10.69 4.356 2.296 3.951 1.69 8.022-.977 11.701-2.076 2.865-4.889 4.954-7.743 6.978-2.304 1.634-4.438 3.464-6.652 6.444-5.047-6.502-13.553-8.844-16.604-17.361zM44.056 84.146c3.016 4.29 3.874 8.57 1.209 12.853-2.772 4.454-7.137 4.916-11.96 3.696-1.182 2.83 2.32 4.411 1.562 7.253-2.95 1.463-6.592 2.097-9.182.107-2.704-2.078 2.216-4.359 1.275-6.958-2.19 0-4.364.343-6.39-.061-7.65-1.527-10.094-11.213-4.113-17.37 4.014-4.132 8.771-7.541 13.539-11.563 4.566 3.88 9.197 7.816 14.06 12.043z"/></svg>