<svg xmlns="http://www.w3.org/2000/svg" viewBox="0 0 340 500" xml:space="preserve"><path fill="#FEFEFE" d="M1 132V1.02h339.93v499.836H1V132m238.86 226.45c-.823 4.055-1.868 8.084-2.35 12.178-.173 1.466.591 3.763 1.697 4.46 1.148.723 3.579.535 4.834-.245 4.118-2.555 7.957-5.56 12.104-8.537l1.676 6.481c-3.679 3.905-6.949 6.93-9.598 10.427-.937 1.235-1.193 4.341-.322 5.347 3.06 3.529 6.683 6.588 10.228 9.67 1.318 1.145 2.91 2.158 4.553 2.713 4.61 1.555 9.272 3.014 14.008 4.097 1.031.236 3.185-.977 3.572-1.996 1.508-3.968 2.827-8.068 3.599-12.233.552-2.98-.03-6.152.156-9.223.71-11.744-7.008-17.186-17.714-12.396-1.015.455-1.96 1.068-3.46 1.896l-1.91-9.245c4.501 1.138 8.316 2.409 12.234 3.018 5.16.803 7.41-1.719 5.109-6.288-2.539-5.04-6.26-9.485-9.933-14.873.846-.792 2.317-2.43 4.043-3.727 2.89-2.174 4.187-4.703 3.907-8.507-.408-5.556-.333-11.17-.088-16.744.232-5.276-1.499-7.887-6.52-9.633-2.62-.912-5-2.517-7.378-3.752 3.546-5.446 6.923-9.841 9.419-14.69 2.566-4.986 4.26-10.42 6.36-15.648 1.201-2.99.125-4.96-2.476-6.647-3.7-2.398-7.226-5.064-10.894-7.664 1.186-1.819 2.021-3.055 2.81-4.32 23.979-38.412 8.519-89.894-33.045-107.523-8.143-3.453-11.839-7.426-13.446-15.972-2.414-12.835-6.58-25.34-9.775-37.147 3.988-3.435 7.498-6.165 10.59-9.306.888-.903 1.294-3.913.689-4.389-4.017-3.157-3.104-7.815-4.16-11.848-4.01-15.329-13.734-25.238-28.88-29.453-15.188-4.227-28.536-.51-39.975 10.413-1.497 1.429-3.964 1.79-5.842 2.886-1.687.984-4.449 2.204-4.545 3.485-.457 6.062-1.608 12.687.298 18.128 1.67 4.768.852 9.268 1.874 13.69 1.624 7.033-.705 12.711-4.393 18.28-4.329 6.536-4.253 6.81 2.268 11.135-1.417 3.357-6.93 7.265.63 10.048.053.02-.023.319.01.477.78 3.719 1.03 7.675 2.539 11.072 1.045 2.352 3.589 5.125 5.89 5.588 3.888.783 8.115-.114 12.348-.312.313 1.556.529 3.383 1.061 5.112 1.177 3.82.142 6.242-3.304 8.677-4.584 3.239-8.362 7.595-12.703 11.212-1.49 1.241-3.556 2.084-5.485 2.454-7.97 1.527-16.073 2.45-23.945 4.348-3.052.737-4.537.21-6.194-2.03-4.722-6.38-9.547-12.684-14.55-19.307 5.996-5.648 9.412-13.446 10.232-22.279.215-2.317-.356-5.45-1.842-6.905-.904-.885-4.57.2-6.431 1.33-3.588 2.177-6.776 5.014-10.233 7.657l-1.928-7.411c2.606-2.097 5.165-3.721 7.18-5.86 5.02-5.33 5.575-9.021-.046-13.573-6.004-4.861-13.037-8.935-20.258-11.67-6.641-2.515-10.3-.432-11.314 6.369-1.167 7.829-1.166 16.129.101 23.936 1.152 7.093 3.612 7.843 10.838 6.482 2.863-.54 5.612-1.686 8.871-2.698l1.65 8.734c-4.164-1.122-7.638-2.299-11.207-2.966-6.139-1.147-8.658 1.71-5.784 7.213 2.468 4.723 6.256 8.756 9.916 13.713-1.026.985-2.29 2.64-3.939 3.686-3.149 1.998-4.443 4.603-4.308 8.324.209 5.752.358 11.533.004 17.269-.31 5.055 1.986 7.673 6.41 9.355 2.711 1.03 5.202 2.642 8.046 4.125-7.695 9.318-12.905 18.693-16.057 29.209-1.051 3.51-.5 5.956 2.91 7.936 3.556 2.067 6.772 4.721 10.233 7.187-.864 1.411-1.453 2.4-2.068 3.373-24.365 38.489-10.514 88.865 30.91 107.696 9.834 4.47 13.664 9.859 15.587 19.49 2.392 11.983 6.207 23.684 9.138 34.511-3.628 3.039-6.466 5.432-9.322 7.804-2.804 2.33-3.198 4.721-.743 7.699 1.065 1.292 1.784 3.134 2.008 4.814 2.207 16.555 11.12 27.966 26.686 33.622 15.562 5.655 29.707 2.676 42.134-8.534 2.01-1.813 5.092-2.39 7.539-3.784 1.46-.833 3.709-2.08 3.78-3.252.371-6.079 1.503-12.621-.26-18.166-1.56-4.909-1.135-9.615-2.005-14.327-1.323-7.175 1.208-13.019 5.05-18.692 3.756-5.549 3.437-6.642-2.696-9.925 1.153-3.516 6.254-7.695-.78-10.587-.012-.005.167-.314.136-.454-.918-4.059-1.361-8.324-2.978-12.085-.866-2.014-3.606-4.15-5.766-4.478-3.802-.575-7.809.194-12.14.421-.264-1.451-.32-3.312-.956-4.946-1.605-4.115-.17-6.465 3.349-8.98 4.561-3.26 8.34-7.596 12.645-11.246 1.364-1.156 3.262-1.974 5.036-2.304 7.975-1.483 16.105-2.294 23.946-4.27 3.52-.886 5.028-.144 6.913 2.452 4.568 6.29 9.396 12.39 13.869 18.24-2.383 3.92-4.944 8.134-7.676 13.109M16.888 235.5V129.133h-5.474v4.573c0 116.154 0 232.308.004 348.462 0 6.436.437 6.867 6.8 6.867 32.496.005 64.992.003 97.488.003 47.329 0 94.657.002 141.985-.01 1.292 0 2.583-.152 3.927-.236v-4.925H16.888V235.5M293.5 8.962H81.408l.31 5.266h244.796v354.556h5.374v-69.595c0-94.314 0-188.629-.002-282.943 0-7.047-.243-7.28-7.392-7.283-9.998-.003-19.996 0-30.994 0m-19.537 67.932-7 17.928h19.97l-8.393-17.136 1.139-.978c1.574.712 3.146 1.429 4.723 2.136 9.807 4.398 21.786-1.058 24.273-11.404 1.633-6.798.467-13.505-4.366-18.705-4.152-4.467-9.133-8.167-13.763-12.19-4.85-4.213-9.718-8.406-13.656-11.812-5.959 4.832-12.733 9.794-18.852 15.462-4.549 4.212-9.49 8.748-12.083 14.178-6.524 13.666 3.382 27.28 18.15 25.618 3.29-.37 6.383-2.488 9.858-3.097M34.685 440.516c2.035 9.024 8.977 14.013 15.67 19.289 5.77 4.549 11.33 9.363 16.254 13.455 5.256-4.33 11.338-9.139 17.18-14.223 4.116-3.58 8.595-7.046 11.705-11.42 7.732-10.878 3.626-24.92-8.02-28.91-6.558-2.248-12.612-.77-18.049 3.61l-1.065-.765 8.393-18.348H56.587l8.154 18.009-1.321.665c-6.894-4.913-14.16-5.972-21.428-1.297-6.933 4.46-8.94 11.229-7.307 19.935M31.624 5.071c-10.71.975-17.031 5.722-18.932 15.846-1.045 5.565-.792 11.575-.008 17.23.926 6.678 4.923 12.215 11.787 13.294 6.287.988 10.508 4.22 14.737 8.316 4.588 4.443 9.935 5.402 14.559 2.726 1.23-.713 1.837-2.505 2.159-2.973-6.312-2.727-11.661-5.04-17.408-7.524 11.523-8.043 15.037-16.669 12.754-30.121C49.39 10.769 43.896 5.834 31.624 5.071M291.46 465.43c.131 1.487.24 2.976.398 4.46 1.16 10.924 7.238 17.291 17.15 17.98 11.037.766 19.608-4.916 21.603-15.58 1.07-5.724.926-11.944-.036-17.713-1.2-7.205-5.782-12.483-13.434-13.503-4.283-.57-7.456-2.259-10.27-5.321-1.559-1.698-3.381-3.222-5.295-4.512-4.08-2.75-8.415-2.866-12.669-.398-.83.482-1.705 1.691-1.69 2.55.01.61 1.399 1.41 2.312 1.756 4.885 1.851 9.813 3.587 14.727 5.363-9.714 6.057-12.523 14.374-12.796 24.919m27.755-67.273-6.371 1.3 4.017-8.35h-10.126l3.965 9.457c-5.67-3.273-9.919-3.133-13.353.878-3.266 3.814-2.769 8.142-.094 11.978 1.576 2.26 3.94 3.997 6.06 5.843 2.795 2.432 5.699 4.74 8.29 6.881 3.91-3.146 8.045-6.216 11.886-9.62 7.457-6.605 5.753-15.323-4.274-18.367M28.463 98.193l-1.991 3.67h10.462L32.755 93.8c1.962.324 3.175.88 4.186.626 3.048-.766 7.008-1.002 8.741-3.038 1.755-2.062 2.154-6.219 1.517-9.098-.575-2.6-3.09-4.993-5.215-6.98-3.379-3.16-7.143-5.905-10.33-8.49-3.857 3.182-8.068 6.389-11.964 9.94-4.75 4.33-5.75 9.464-3.114 13.813 2.503 4.13 6.881 5.046 13.634 2.529-.51 1.698-.917 3.056-1.747 5.09z"/><path fill="#272626" d="M239.946 358.07c2.647-4.594 5.208-8.808 7.59-12.728-4.472-5.85-9.3-11.95-13.868-18.24-1.885-2.596-3.393-3.338-6.913-2.452-7.841 1.976-15.97 2.787-23.946 4.27-1.774.33-3.672 1.148-5.036 2.304-4.305 3.65-8.084 7.986-12.645 11.246-3.518 2.515-4.954 4.865-3.35 8.98.638 1.634.693 3.495.958 4.946 4.33-.227 8.337-.996 12.14-.42 2.16.326 4.899 2.463 5.765 4.477 1.617 3.76 2.06 8.026 2.978 12.085.031.14-.148.45-.136.454 7.034 2.892 1.933 7.07.78 10.587 6.133 3.283 6.452 4.376 2.695 9.925-3.84 5.673-6.372 11.517-5.049 18.692.87 4.712.445 9.418 2.005 14.327 1.763 5.545.631 12.087.26 18.166-.071 1.172-2.32 2.42-3.78 3.252-2.447 1.394-5.53 1.97-7.54 3.784-12.426 11.21-26.571 14.19-42.133 8.534-15.565-5.656-24.479-17.067-26.686-33.622-.224-1.68-.943-3.522-2.008-4.814-2.455-2.978-2.06-5.37.743-7.699 2.856-2.372 5.694-4.765 9.322-7.804-2.931-10.827-6.746-22.528-9.138-34.512-1.923-9.63-5.753-15.018-15.587-19.489-41.424-18.83-55.275-69.207-30.91-107.696.615-.972 1.204-1.962 2.068-3.373-3.46-2.466-6.677-5.12-10.234-7.187-3.409-1.98-3.96-4.427-2.909-7.936 3.152-10.516 8.362-19.891 16.057-29.209-2.844-1.483-5.335-3.094-8.047-4.125-4.423-1.682-6.72-4.3-6.409-9.355.354-5.736.205-11.517-.004-17.269-.135-3.721 1.16-6.326 4.308-8.324 1.65-1.046 2.913-2.7 3.94-3.686-3.661-4.957-7.45-8.99-9.917-13.713-2.874-5.503-.355-8.36 5.784-7.213 3.57.667 7.043 1.844 11.206 2.966l-1.649-8.734c-3.26 1.012-6.008 2.158-8.871 2.698-7.226 1.361-9.686.611-10.838-6.482-1.267-7.807-1.268-16.107-.101-23.936 1.013-6.801 4.673-8.884 11.314-6.369 7.22 2.735 14.254 6.809 20.258 11.67 5.621 4.552 5.065 8.244.045 13.574-2.014 2.138-4.573 3.762-7.18 5.859l1.93 7.41c3.456-2.642 6.644-5.479 10.232-7.657 1.861-1.13 5.527-2.214 6.431-1.329 1.486 1.454 2.057 4.588 1.842 6.905-.82 8.833-4.236 16.631-10.232 22.28 5.003 6.622 9.828 12.926 14.55 19.306 1.657 2.24 3.142 2.767 6.194 2.03 7.872-1.899 15.975-2.821 23.945-4.348 1.929-.37 3.995-1.213 5.485-2.454 4.34-3.617 8.12-7.973 12.703-11.212 3.446-2.435 4.481-4.857 3.304-8.677-.532-1.73-.748-3.556-1.061-5.112-4.233.198-8.46 1.095-12.348.312-2.301-.463-4.845-3.236-5.89-5.588-1.51-3.397-1.758-7.353-2.539-11.072-.033-.158.043-.458-.01-.477-7.56-2.783-2.047-6.691-.63-10.048-6.52-4.325-6.597-4.599-2.268-11.134 3.688-5.57 6.017-11.248 4.393-18.28-1.022-4.423-.203-8.923-1.874-13.691-1.906-5.44-.755-12.066-.298-18.128.096-1.281 2.858-2.5 4.545-3.485 1.878-1.096 4.345-1.457 5.842-2.886 11.439-10.924 24.787-14.64 39.976-10.413 15.145 4.215 24.87 14.124 28.88 29.453 1.055 4.033.142 8.691 4.159 11.848.605.476.199 3.486-.69 4.389-3.091 3.14-6.601 5.87-10.589 9.306 3.195 11.808 7.361 24.312 9.775 37.147 1.607 8.546 5.303 12.519 13.446 15.972 41.564 17.63 57.024 69.11 33.046 107.523-.79 1.265-1.625 2.501-2.81 4.32 3.667 2.6 7.193 5.266 10.893 7.664 2.601 1.686 3.677 3.656 2.476 6.647-2.1 5.229-3.794 10.662-6.36 15.649-2.496 4.848-5.873 9.243-9.419 14.69 2.377 1.234 4.757 2.84 7.379 3.751 5.02 1.746 6.751 4.357 6.52 9.633-.246 5.573-.321 11.188.087 16.744.28 3.804-1.016 6.333-3.907 8.507-1.726 1.298-3.197 2.935-4.043 3.727 3.673 5.388 7.394 9.832 9.933 14.873 2.301 4.57.05 7.091-5.109 6.288-3.918-.61-7.733-1.88-12.234-3.018l1.91 9.245c1.5-.828 2.445-1.441 3.46-1.896 10.706-4.79 18.424.652 17.714 12.396-.186 3.07.396 6.243-.156 9.223-.772 4.165-2.091 8.265-3.599 12.233-.387 1.02-2.54 2.232-3.572 1.996-4.736-1.083-9.397-2.542-14.008-4.097-1.642-.555-3.235-1.568-4.553-2.713-3.545-3.082-7.168-6.141-10.228-9.67-.871-1.006-.615-4.112.322-5.347 2.65-3.496 5.92-6.522 9.598-10.427l-1.676-6.481c-4.147 2.976-7.986 5.982-12.104 8.537-1.255.78-3.686.968-4.834.245-1.106-.697-1.87-2.994-1.697-4.46.482-4.094 1.527-8.123 2.436-12.557M94.991 132.992s-.007-.07-.573.018c-.165.323-.33.646-.427.99 0 0-.041-.06-.712.117-4.928 4.34-6.516 9.58-4.36 16.949.713-1.638 1.005-2.31 1.989-3.008 5.834-3.641 7.589-9.642 8.95-15.796.102-.46-1.284-1.249-2.46-1.667-.486.459-.972.917-1.396 1.397 0 0-.002-.065-.536.086-.181.302-.363.603-.475.914M250.66 363.1c.138-.35.277-.7.34-1.1 0 0 .074.052.776-.09 3.602-3.42 3.433-7.847 3.146-12.253-.015-.223-1.387-.357-2.719-.278-5.445 4.924-8.166 11.109-9.062 18.139l1.813 1.562c1.054-1.602 2.109-3.204 3.853-4.787.419-.41.838-.818 1.197-1.291 0 0 .039.078.656.098m-118.568 71.755s.07-.076-.076.662c3.334 4.633 6.026 9.96 10.132 13.76 9.162 8.478 23.425 10.532 33.515 5.802l11.881-4.699-.451-1.739a69.24 69.24 0 0 1-4.547-.45c-13.148.157-25.628-2.695-37.685-8.975l-15.013-9.695c.59 1.85.96 3.008 1.417 4.74.29.23.581.458.827.594m78.912-371.837s-.025.054.14-.695c-5.214-15.787-24.801-25.384-41.957-20.356-5.287.686-9.409 3.422-14.214 7.588 2.615 0 3.89 0 6.128.225 3.735.404 7.52.553 11.194 1.272 5.89 1.152 11.705 2.68 17.892 4.698l22.885 11.517c-.294-.815-.714-1.982-1.21-3.727-.306-.173-.611-.345-.858-.522m-1.007 95.998s.031.048.737.15c6.646-4.242 9.16-10.294 7.67-17.962-.982-5.052-2.122-10.077-3.317-15.083-3.083-12.91-6.046-25.854-9.543-38.652-.6-2.198-3.597-3.741-5.533-5.528 0 0 .068.03.148-.63-.37-.242-.738-.484-1.543-1.205l-2.715-1.694c1.902 4.56 4.03 8.153 4.905 12.028 3.284 14.541 6.373 29.134 9.111 43.787 1.697 9.083.697 18.048-3.794 26.586.748.034 1.237.17 1.647.045.45-.137.83-.514 1.823-.89.153-.315.307-.63.404-.952M185.173 75.2l-2.428-1.182a16.3 16.3 0 0 0-.609 2.649c2.889 5.365 6.883 10.423 8.472 16.149 6.356 22.908 7.88 46.06.89 69.234-.36 1.193-2.331 3.588 2.255 2.464 3.914-.317 6.629-2.398 7.575-6.11 1.496-5.865 3.624-11.832 3.607-17.75-.021-7.384-1.563-14.845-3.143-22.121-2.281-10.514-4.654-21.072-8.076-31.244-1.444-4.292-5.66-7.65-8.663-11.398 0 0 .004.06.12-.691M144.17 417.38l3.64 2.379c-9.72-18.533-11.032-37.925-14.531-56.727-1.631-8.765-.468-17.627 3.016-26.24-.669.397-1.338.793-2.717 1.29-7.038 4.165-10.095 10.225-8.675 18.37.567 3.255 1.092 6.529 1.893 9.73 3.41 13.625 7.193 27.164 10.23 40.869 1.019 4.595 2.536 8.045 7.144 10.33m73.686-117.252c17.773-7.823 30.712-20.57 39.099-38.074 1.365-2.848 1.016-4.617-1.232-6.874-9.285-9.324-15.948-20.326-19.943-32.89-1.158-3.638-2.14-7.333-3.322-11.413-1.436 1.692-2.496 2.941-4.151 4.457l-19.09 17.425c1.9 3.98 4.081 8.067 5.843 12.33 7.204 17.43 6.911 35.19 1.792 53.545-.209.28-.298.593-.574 1.296l.254.817c.195-.207.39-.415 1.324-.619m35.027-131.034s-.038-.012-.167.881c-.114 2.96-.018 5.947-.383 8.876-1.093 8.794-6.579 15.319-11.484 22.207-1.578 2.217-3.07 5.478-2.677 7.955 2.442 15.376 8.613 29.091 19.967 40.948l1.834 3.563c25.02-34.115 10.55-77.728-9.21-90.459.525 1.907.95 3.446 1.38 5.503.258.18.517.361.74.526m-94.792 249.997c-.042-.655.134-1.434-.157-1.945-8.807-15.435-10.03-32.435-10.34-49.635-.21-11.742.833-23.307 5.486-34.892-1.46.39-2.079.556-3.538.854-3.931.309-6.56 2.47-7.613 6.122-1.502 5.21-4.277 10.744-3.621 15.762a501.073 501.073 0 0 0 8.767 48.463c1.405 6.047 5.562 11.546 8.952 16.991 1.3 2.088 3.963 3.326 6.004 4.952l1.029-1.3c-1.666-1.534-3.333-3.068-4.97-5.372M74.158 179.64l-.82-.137c.227.16.454.32 1.052 1.248 2.477.09 4.991-.038 7.416.368 1.171.195 2.175 1.395 3.254 2.14-.907.958-1.723 2.61-2.738 2.742-2.873.377-5.828.132-8.863.132l11.163 6.329 22.53-16.24c-3.667-4.895-7.322-9.823-11.03-14.712-4.383-5.78-10.301-5.471-16.55-3.982 1.434 1.143 3.004 2.368 4.626 2.44 4.422.199 6.806 2.398 7.332 6.579.298 2.374.076 4.814.088 7.224l-5.915-3.472c-2.187 5.25-8.085 1.366-12.111 3.62 2.437.435 4.879.205 7.248.518 1.511.2 2.916 1.205 4.369 1.849-1.294 1.137-2.425 2.867-3.918 3.275-2.331.637-4.907.379-7.133.079m91.298 148.795c-4.619.845-6.758 3.987-8.279 8.17-3.647 10.033-4.526 20.376-4.346 30.928.243 14.198 1.135 28.283 6.937 41.523 6.252 14.266 18.558 22.137 33.451 21.384 1.73-.088 3.41-1.134 5.114-1.735l-.261-1.61c-9.038-2.385-19.463-1.141-26.584-9.99-3.131-7.059-7.411-13.848-9.145-21.234-3.262-13.899-2.325-28.152.27-42.148 1.641-8.856 4.045-17.57 6.191-26.706-1.096.532-1.82.884-3.348 1.418m12.139-158.77c4.64-.76 7.115-3.743 8.371-8.047.604-2.068 1.48-4.063 2.003-6.148 4.168-16.623 3.266-33.396.294-49.97-1.351-7.534-4.02-15.174-7.715-21.87-6.67-12.087-18.15-16.441-31.554-16.01-1.321.043-2.599 1.445-3.897 2.216 1.26.72 2.472 1.557 3.8 2.117.72.305 1.65.078 2.469.199 8.95 1.327 17.135 4.142 22.779 12.536 1.647 3.237 3.731 6.328 4.866 9.735 5.685 17.08 4.571 34.45 1.37 51.762-1.506 8.148-3.794 16.152-5.827 24.637 1.135-.503 1.734-.768 3.04-1.157m-92.55 78.233-1.821-3.171c-22.705 30.45-13.977 72.874 9.801 91.312-.879-2.645-1.534-4.618-2.068-7.443-1.3-9.972 1.747-18.679 7.739-26.52 1.818-2.379 3.832-4.627 5.462-7.127.835-1.28 1.635-3.088 1.403-4.484-2.64-15.937-8.743-30.261-20.516-42.567m29.776 34.835 18.761-17.002c-3-8.01-6.356-15.429-8.555-23.177-4.05-14.266-2.483-28.578 1.585-43.304-1.177-1.474-1.203-1.529-3.596-.36-15.076 7.365-26.673 18.4-34.69 33.141-3.898 7.165-3.812 7.18 1.696 13.28 10.641 11.783 17.241 25.624 20.483 41.292.765-.414 1.28-.55 1.576-.881.77-.858 1.442-1.803 2.74-2.989m44.843 41.252c5.86-.46 10.889-2.69 14.812-7.13 7.92-8.965 13.85-19.115 17.358-30.547 4.384-14.283 4.792-28.656.358-43.543-1.701.956-2.96 1.663-4.897 2.529-3.815 1.645-7.566 3.464-11.457 4.905-16.671 6.174-32.29 14.22-45.843 25.864-12.184 10.468-23.455 21.887-31.042 36.188-7.612 14.347.635 32.831 16.304 37.454l4.248 1.301c.307-9.2 6.326-14.09 13.3-18.972 8.673-2.697 17.346-5.395 26.86-8.049m20.535-149.038c-3.789 2.102-8.565 3.378-11.159 6.48-5.16 6.17-9.886 12.968-13.418 20.18-8.319 16.981-10.12 34.81-4.471 53.562 1.523-.853 2.773-1.552 4.693-2.416 4.425-1.89 8.767-4.007 13.286-5.633 31.103-11.187 55.495-30.877 73.658-58.313 9.814-14.825 2.386-35.217-14.639-40.445l-4.007-1.3c-1.18 8.984-6.3 14.916-14.443 19.511-9.576 2.852-19.152 5.704-29.5 8.374m-9.41 166.199-.852 3.968c39.048-17.503 59.39-71.987 33.957-109.345l-6.784 4.32c7.478 27.302 2.888 52.126-13.94 74.042-6.214 8.092-10.069 16.586-12.38 27.015m-28.052-81.017c2.5-1.136 3.56-2.358 2.731-5.692-7.014-28.214-.122-53.307 18.24-75.34 6.436-7.722 6.812-17.122 10.059-26.502-40.692 18.865-59.598 74.204-34.203 109.51a151.72 151.72 0 0 0 3.173-1.976m34.413 154.283c4.994 2.03 9.92 4.27 15.031 5.936 1.186.386 3.008-1.18 4.538-1.847-1.329-1.155-2.48-2.826-4.023-3.355-2.953-1.013-6.236-1.081-9.162-2.146-1.287-.468-2.035-2.415-3.028-3.69 1.531-.406 3.12-1.295 4.583-1.12 3.55.422 7.04 1.34 9.476 1.837l7.483-20.942c-10.765-.762-3.746-6.298-1.998-9.741-2.07-1.303-3.956-2.01-4.976-3.368-.413-.549 1.068-2.52 1.957-4.42-.245-1.504-1.04-3.957-.946-6.375.145-3.76-1.76-5.101-4.842-4.225-5.695 1.62-11.375 3.454-16.805 5.794-6.34 2.732-9.465 7.324-8.746 14.916 1.11 11.73 2.12 23.245 11.458 32.746m-9.098-328.945c-5.537-6.066-12.67-8.004-20.61-8.228-1.444 3.456-.453 5.215 3.035 5.751 2.95.454 5.994.761 8.75 1.79 1.493.557 2.473 2.49 3.684 3.8-1.691.412-3.434 1.31-5.063 1.136-3.518-.375-6.978-1.299-9.17-1.739l-7.327 20.782c6.323 2.093 6.28 2.065 2.81 7.465-.56.873-.54 2.118-.788 3.19l1.06-.68 4.17 4.581c-4.632 2.702-.752 6.62-1.34 9.916-.524 2.928 1.385 4.598 4.192 3.845 5.559-1.491 11.182-3 16.444-5.276 6.903-2.986 10.882-7.732 9.758-16.328-1.366-10.452-2.102-20.867-9.605-30.005m-61.846 98.22c-14.983 8.445-25.997 20.52-32.942 36.248-3.58 8.107-3.5 8.144 3.521 13.276 1.202.879 2.413 1.743 3.706 2.676 9.847-21.58 25.6-36.66 47.754-44.921.743-.277 1.662-.678 2.02-1.298 2.827-4.89 5.537-9.848 8.452-15.09-11.731.283-22.113 3.395-32.51 9.108m165.425 90.401 1.381-4.832-10.268-7.075c-9.818 21.59-25.436 36.38-47.141 44.724-1.017.391-2.262.942-2.764 1.794-2.751 4.662-5.304 9.44-7.963 14.249 25.82 1.838 55.635-19.869 66.755-48.86M144.467 55.704l.507 6.637c25.318-1.575 48.434 2.816 66.767 22.006.93-.777 1.674-1.403 2.423-2.022 1.011-.835 2.027-1.664 3.116-2.558-20.128-20.787-44.782-26.521-72.813-24.063m15.826 383.55c12.546 3.921 25.373 4.366 38.525 3.439 0-1.641.064-2.941-.024-4.231-.054-.8-.34-1.583-.618-2.79-25.166 1.635-48.355-2.93-66.77-22.109l-5.115 4.777c9.433 10.006 20.427 16.8 34.002 20.915m98.139-109.828c-1.19-3.391.994-4.148 3.559-4.325 2.43-.168 4.882-.036 7.325-.036l-.046-1.25c-2.572 0-5.185.267-7.7-.112-1.271-.191-2.366-1.552-3.54-2.384 1.016-.772 1.927-1.902 3.072-2.241 2.415-.716 4.953-1.016 7.44-1.487-2.542-.605-5.029-.452-7.48-.682-.965-.09-2.596-1.018-2.61-1.595-.024-1.067.661-2.745 1.512-3.118 2.034-.892 4.336-1.174 6.086-1.594l-7.044-5.35-22.722 16.515c3.296 4.52 6.755 9.204 10.147 13.934 4.479 6.245 10.612 6.5 18.418 4.983-2.163-1.187-3.436-2.494-4.68-2.468-6.676.144-8.325-4.418-9.171-9.57-.236-1.436.663-3.058 1.041-4.595 1.32 1.099 3.378 1.966 3.812 3.344 1.038 3.3 2.258 5.68 6.22 5.834 1.363.053 2.642 1.603 4.037 1.757 1.5.165 3.091-.508 4.642-.815-.927-1.254-1.667-3.336-2.818-3.596-2.843-.643-5.874-.451-9.5-1.15m-90.988 26.655-1.246 9.208 11.499-6.612-2.137-11.341c-3.25 3.26-5.587 5.606-8.116 8.745m5.65-209.59 4.793-12.826c-13.14 5.9-13.14 5.9-9.941 15.249 1.496-.69 2.977-1.373 5.149-2.423m87.732 237.237-2.239-5.312c-2.361 3.41-5.65 6.105-5.309 8.209.396 2.437 3.808 4.604 6.284 6.362.865.614 2.84-.336 4.308-.572-.743-1.17-1.222-2.785-2.284-3.415-2.162-1.28-2.95-2.543-.76-5.272m10.625 10.391-4.663 2.71.523 2.35c3.056 0 7.487 1.223 8.837-.294 1.883-2.118 1.666-6.271 1.86-9.582.039-.672-2.094-1.472-3.226-2.212-.376 1.096-.734 2.2-1.135 3.288-.45 1.226-.94 2.438-2.196 3.74M68.648 98.011c-3.303 2.387-5.142 8.187-3.321 11.112.523.841 1.745 1.546 2.732 1.68.533.073 1.914-1.414 1.779-1.82-1.37-4.115.678-5.142 4.25-5.512.786-.081 1.391-1.921 2.438-3.488-2.688-.731-4.877-1.327-7.878-1.972m208.317 276.268c-3.484-2.266-9.871-.995-11.532 2.456-.416.863-.02 2.117.002 3.192 1.044-.036 2.088-.076 3.133-.107 1.665-.05 3.426-.454 4.97-.044 1.626.432 3.046 1.643 4.555 2.514l.942-1.161c-.592-2.03-1.183-4.06-2.07-6.85M66.146 123.41c3.368 2.91 11.345 1.033 12.126-3.018.138-.716-2.313-2.654-2.4-2.584-3.053 2.472-5.376 2.353-7.413-1.323-.287-.517-2.308-.072-4.068-.072a263.074 263.074 0 0 0 1.755 6.997m14.61-14.48c.969 1.317 2.338 2.509 2.797 3.983.486 1.564.109 3.397.109 6.548 2.57-2.361 3.915-3.525 5.176-4.771 1.94-1.917 2.413-4.174.008-5.813-2.543-1.733-5.485-2.88-8.253-4.282-.176 1.33-.352 2.662.163 4.335m188.8 249.81 2.429.323c-2.883-5.076-5.99-9.015-11.336-10.874-1.544 5.294 0 8.216 4.942 9.165 1.12.215 2.185.719 3.965 1.386M75.808 140.005l-3.443-.301-.785 1.55 10.7 9.045c2.301-6.97-1.28-8.866-6.472-10.294m4.541 24.414c-1.022-.523-1.995-1.243-3.08-1.515-1.134-.284-2.477-.436-3.533-.074-.685.234-1.604 1.978-1.413 2.207.882 1.057 2.027 2.393 3.24 2.582 3.547.552 7.171.605 10.83.858.315-3.621-2.985-3.066-6.044-4.058z"/><path fill="#313131" d="M16.888 236v247.867h244.73v4.925c-1.344.084-2.635.235-3.927.235-47.328.013-94.656.01-141.985.01-32.496 0-64.992.003-97.489-.002-6.362 0-6.799-.431-6.8-6.867-.004-116.154-.003-232.308-.003-348.462v-4.573h5.474V236zM294 8.962c10.498 0 20.496-.002 30.494.001 7.149.003 7.391.236 7.392 7.283.002 94.314.001 188.629.002 282.943v69.595h-5.374V14.228H81.718l-.31-5.266H294z"/><path fill="currentColor" d="M273.817 76.543c-3.33.96-6.422 3.079-9.711 3.449-14.769 1.662-24.675-11.952-18.151-25.618 2.592-5.43 7.534-9.966 12.083-14.178 6.12-5.668 12.893-10.63 18.852-15.462 3.938 3.406 8.806 7.599 13.656 11.813 4.63 4.022 9.61 7.722 13.763 12.19 4.833 5.199 5.999 11.906 4.366 18.704-2.487 10.346-14.466 15.802-24.273 11.404-1.577-.707-3.15-1.424-4.723-2.136l-1.139.978 8.393 17.136h-19.97c2.335-5.982 4.668-11.955 6.854-18.28zM34.54 440.125c-1.489-8.315.519-15.084 7.452-19.544 7.267-4.675 14.534-3.616 21.428 1.297l1.321-.665-8.154-18.009h20.166l-8.393 18.348 1.065.764c5.437-4.38 11.49-5.857 18.05-3.61 11.645 3.99 15.75 18.033 8.02 28.91-3.11 4.375-7.59 7.84-11.706 11.421-5.842 5.084-11.924 9.893-17.18 14.223-4.924-4.092-10.485-8.906-16.255-13.455-6.692-5.276-13.634-10.265-15.814-19.68zM32.06 5.034c11.836.8 17.33 5.735 19.212 16.831 2.283 13.452-1.231 22.078-12.754 30.121 5.747 2.484 11.096 4.797 17.408 7.524-.322.468-.928 2.26-2.16 2.973-4.623 2.676-9.97 1.717-14.558-2.726-4.229-4.095-8.45-7.328-14.737-8.316-6.864-1.08-10.861-6.616-11.787-13.294-.784-5.655-1.037-11.665.008-17.23 1.9-10.124 8.223-14.87 19.368-15.883M21.262 20.27c.312 6.919.067 13.927 1.144 20.725.661 4.173 3.868 7.156 8.92 7.205 4.956.047 7.923-2.6 9.364-6.787 2.954-8.58 2.937-17.336-.063-25.92-1.37-3.924-4.398-6.195-8.715-6.294-4.124-.094-6.906 2.118-8.74 5.57-.767 1.446-1.104 3.12-1.91 5.5zM291.46 465.002c.273-10.115 3.082-18.432 12.796-24.49-4.914-1.775-9.842-3.51-14.727-5.362-.913-.346-2.302-1.146-2.312-1.756-.015-.859.86-2.068 1.69-2.55 4.254-2.468 8.59-2.353 12.669.398 1.914 1.29 3.736 2.814 5.296 4.512 2.813 3.062 5.986 4.75 10.27 5.321 7.651 1.02 12.232 6.298 13.433 13.503.962 5.769 1.107 11.989.036 17.714-1.995 10.663-10.566 16.345-21.603 15.579-9.912-.689-15.99-7.056-17.15-17.98-.157-1.484-.267-2.973-.398-4.889m11.18-13.548c-2.785 8.08-2.637 16.284-.55 24.42 1.142 4.46 3.96 7.652 9.011 7.928 4.535.247 8.219-2.417 9.854-7.542 2.478-7.764 2.436-15.649.28-23.493-1.12-4.082-3.31-7.264-7.9-7.876-4.886-.651-8.337 1.382-10.696 6.563zM319.629 398.177c9.613 3.026 11.317 11.744 3.86 18.35-3.84 3.403-7.976 6.473-11.886 9.619-2.591-2.142-5.495-4.449-8.29-6.881-2.12-1.846-4.484-3.583-6.06-5.843-2.675-3.836-3.172-8.164.094-11.978 3.434-4.011 7.684-4.151 13.353-.878l-3.965-9.456h10.126l-4.017 8.35c2.647-.541 4.51-.921 6.785-1.283zM28.674 97.855c.619-1.696 1.026-3.054 1.536-4.752-6.753 2.517-11.131 1.6-13.634-2.529-2.636-4.349-1.637-9.483 3.114-13.813 3.896-3.551 8.107-6.758 11.964-9.94 3.187 2.585 6.951 5.33 10.33 8.49 2.124 1.987 4.64 4.38 5.215 6.98.637 2.88.238 7.036-1.517 9.098-1.733 2.036-5.693 2.272-8.741 3.038-1.01.253-2.224-.302-4.186-.626l4.179 8.061H26.472c.798-1.471 1.394-2.57 2.202-4.007z"/><path fill="#244CC2" d="M228.555 148.835c16.618 4.756 24.046 25.148 14.232 39.973-18.163 27.436-42.555 47.126-73.658 58.313-4.519 1.626-8.861 3.743-13.672 5.308-1.065-7.562-2.75-14.872-2.237-22.023 1.589-22.103 9.355-41.447 27.75-55.276 9.576-2.852 19.152-5.704 29.269-8.826 8.769-.519 15.52-7.05 18.316-17.469z"/><path fill="#C83213" d="M114.805 349.195c-15.22-4.112-23.466-22.596-15.854-36.943 7.587-14.3 18.858-25.72 31.043-36.188 13.552-11.643 29.17-19.69 45.842-25.864 3.891-1.441 7.642-3.26 11.87-4.597 4.257 15.781 3.376 31.067-2.617 45.756-5.452 13.362-11.631 26.473-26.267 32.583-8.673 2.698-17.346 5.396-26.801 8.055-10.123 2.024-15.101 8.246-17.216 17.198z"/><path fill="#F8CA1B" d="M217.076 298.192c4.896-17.913 5.19-35.672-2.015-53.103-1.762-4.262-3.944-8.35-5.842-12.329 6.385-5.829 12.737-11.627 19.497-17.196 4.358 15.288 11.434 28.557 22.492 39.68 1.166 1.174 1.923 4.085 1.302 5.502-7.309 16.678-18.951 29.386-35.434 37.446z"/><path fill="#F8CA1A" d="M126.178 199.814c-3.636 14.163-5.203 28.475-1.153 42.741 2.2 7.748 5.555 15.168 8.555 23.177-5.841 5.293-12.301 11.148-19.134 16.748-3.88-15.334-11.21-28.3-22.052-39.297-1.7-1.724-3.048-3.09-1.755-5.947 7.524-16.625 19.063-29.344 35.539-37.422z"/><path fill="#F7F7F7" d="M170.867 340.75c2.233-10.032 6.088-18.526 12.301-26.618 16.829-21.916 21.419-46.74 13.94-74.043l6.785-4.32c25.433 37.36 5.09 91.843-33.957 109.346.331-1.543.592-2.756.93-4.365m32.357-48.613c4.588 2.236 4.05-1.395 4.933-4.017l-5.29-1.558c-.16 2.041-.29 3.69.357 5.575m-5.161 8.62-2.211 4.055 4.905 2.245 2.242-4.708c-1.776-.832-3.1-1.452-4.936-1.592m8.317-56.362-5.773-.463 1.937 5.52c2.299-.879 5.73-.08 3.836-5.057m-17.023 73.432c3.348 3.146 4.37.195 5.876-2.383l-4.543-3.25c-.76 2.003-1.33 3.503-1.333 5.633m-5.89 7.07-6.362.968 4.354 4.698 1.593.086c.312-1.719.624-3.438.416-5.752m22.13-51.874-.675 4.84h5.015l.556-4.641c-1.518-.153-2.792-.282-4.895-.2m4.475-12.41c-.224-4.613-3.008-2.226-5.303-2.108l.568 5.6c1.902-1.014 3.354-1.789 4.735-3.491z"/><path fill="#F8F8F7" d="M142.424 260.343a223.82 223.82 0 0 1-2.86 1.764c-25.395-35.307-6.489-90.646 34.203-109.511-3.247 9.38-3.623 18.78-10.058 26.502-18.363 22.033-25.255 47.126-18.24 75.34.828 3.334-.231 4.556-3.045 5.905m-9.41-24.429c-.384 4.588 1.99 4.878 5.794 3.416l-.858-4.883c-1.774.277-3.2.499-4.936 1.467m29.832-67.637-5.625 1.967 4.146 4.364c1.817-1.823 5.444-2.642 1.48-6.331m-24.36 86.494c4.567-.803 4.197-3.08 1.829-6.189l-4.642 1.585c.76 1.74 1.393 3.192 2.813 4.604m10.389-73.72 2.76 5.223c1.686-2.293 2.602-3.54 3.58-4.873-2.043-1.45-3.455-4.682-6.34-.35m-11.633 29.555c4.205 1.526 3.605-1.697 4.13-4.286l-5.62-1.734c.334 2.431.56 4.062 1.49 6.02m8.187-18.471c-4.136-2.433-3.882 1.248-4.988 3.548l5.312 2.56c.14-2.345.24-4.017-.324-6.108m-12.444 32.331 5.067.931v-5.188c-2.871-.338-5.632-1.112-5.067 4.257z"/><path fill="#C83214" d="M257.911 249.308c-11.125-11.203-17.296-24.918-19.738-40.294-.394-2.477 1.099-5.738 2.677-7.955 4.905-6.888 10.391-13.413 11.484-22.207.365-2.93.269-5.915.768-9.197 1.19.736 2.027 1.772 2.8 2.852 16.403 22.894 17.249 55.347 2.01 76.801z"/><path fill="#244CC1" d="M85.333 248.505c11.483 11.7 17.585 26.024 20.226 41.961.232 1.396-.568 3.203-1.403 4.484-1.63 2.5-3.644 4.748-5.462 7.128-5.992 7.84-9.04 16.547-8.102 26.752-19.392-23.502-21.332-55.422-5.259-80.325z"/><path fill="#FBFBFB" d="M176.872 414.18c-9.06-9.268-10.07-20.783-11.18-32.513-.72-7.592 2.406-12.184 8.746-14.916 5.43-2.34 11.11-4.175 16.805-5.794 3.082-.876 4.987.465 4.842 4.225-.093 2.418.701 4.871.946 6.374-.89 1.902-2.37 3.872-1.957 4.42 1.02 1.359 2.906 2.066 4.976 3.369-1.748 3.443-8.767 8.979 1.998 9.741-2.447 6.849-4.85 13.57-7.483 20.942-2.435-.498-5.926-1.415-9.476-1.838-1.463-.174-3.052.715-4.583 1.12.993 1.276 1.741 3.223 3.028 3.691 2.926 1.065 6.21 1.133 9.162 2.146 1.543.53 2.694 2.2 4.023 3.355-1.53.668-3.352 2.233-4.538 1.847-5.112-1.667-10.037-3.905-15.31-6.169m8.946-12.54 2.579 4.835c.87-.963 2.525-1.99 2.452-2.875-.165-2-1.182-3.931-1.852-5.89-1.059 1.04-2.117 2.079-3.179 3.93z"/><path fill="#FAFAFA" d="M168.307 85.725c7.248 8.881 7.984 19.296 9.35 29.748 1.124 8.596-2.855 13.342-9.758 16.328-5.262 2.276-10.885 3.785-16.444 5.276-2.807.753-4.716-.917-4.193-3.845.59-3.297-3.29-7.214 1.34-9.916l-4.17-4.58-1.06.68c.249-1.073.229-2.318.79-3.19 3.468-5.401 3.512-5.373-2.811-7.466l7.326-20.782c2.193.44 5.653 1.364 9.171 1.739 1.629.173 3.372-.724 5.063-1.135-1.211-1.312-2.19-3.244-3.683-3.8-2.757-1.03-5.802-1.337-8.75-1.79-3.489-.537-4.48-2.296-3.037-5.752 7.94.224 15.074 2.162 20.866 8.485m-10.739 12.152c-.442-2.428 1.57-6.226-3.2-6.202-.75.004-2.163 1.857-2.098 2.77.14 1.957 1.047 3.858 1.64 5.781 1.18-.538 2.36-1.076 3.658-2.349z"/><path fill="#F6F6F6" d="M106.514 183.483c10.09-5.509 20.472-8.621 32.203-8.904-2.915 5.242-5.625 10.2-8.452 15.09-.358.62-1.277 1.02-2.02 1.298-22.154 8.261-37.907 23.341-47.754 44.92-1.293-.932-2.504-1.796-3.706-2.675-7.021-5.132-7.1-5.169-3.52-13.276 6.944-15.728 17.958-27.803 33.25-36.453m8.272 3.451-5.669.886 2.754 5.158c2.51-1.225 5.855-1.528 2.915-6.044m13.477-5.876c-4.166.503-4.147 2.752-2.302 6.13l5.013-1.392c-.737-1.797-1.324-3.228-2.71-4.738m-46.183 42.328c2.622-4.1-.946-3.984-3.298-5.19l-2.637 5.17c2.22.29 3.924.513 5.935.02m4.83-12.635c3.467 3.007 3.784-.736 5.464-2.377l-4.939-3.998c-.456 2.54-.758 4.214-.525 6.375m13.442-16.122-4.256 2.777 3.475 4.04 3.848-3.07c-.886-1.2-1.653-2.239-3.067-3.747z"/><path fill="#F8F8F8" d="M271.452 274.43c-10.94 28.65-40.755 50.356-66.575 48.518 2.66-4.809 5.212-9.587 7.963-14.249.502-.852 1.747-1.403 2.764-1.794 21.705-8.344 37.323-23.133 47.14-44.724l10.27 7.075c-.483 1.689-.933 3.26-1.562 5.173m-44.234 33.904 2.278 3.777 4.364-2.736c-.9-1.605-1.62-2.886-2.5-4.452-1.575.995-2.936 1.855-4.142 3.411m14.436-6.17 6.542-.53-4.236-5.015-1.646-.155c-.396 1.717-.793 3.433-.66 5.7m20.379-28.791-2.308 4.08 4.792 2.51 2.36-4.687c-1.58-.843-2.861-1.527-4.844-1.903m-44.81 37.678-4.739 1.16 1.612 5.01 4.85-1.58c-.411-1.58-.743-2.859-1.723-4.59m38.53-24.367-5.652 2.368 4.864 3.898c.882-2.058 5.154-2.764.788-6.266z"/><path fill="#F3C71F" d="M174.147 83.987c-5.647-7.692-13.832-10.507-22.782-11.834-.82-.121-1.748.106-2.47-.199-1.327-.56-2.539-1.396-3.799-2.117 1.298-.771 2.576-2.173 3.897-2.216 13.404-.431 24.883 3.923 31.554 16.01 3.695 6.696 6.364 14.336 7.715 21.87 2.972 16.574 3.874 33.347-.294 49.97-.523 2.085-1.399 4.08-2.003 6.148-1.256 4.304-3.732 7.287-8.676 7.731 5.22-18.309 8.869-36.573 7.757-55.539-.538-9.175-1.953-18.143-6.764-26.17-.902-1.503-2.733-2.45-4.135-3.654z"/><path fill="#F3C71E" d="M171.859 417.59c6.749 8.365 17.174 7.121 26.212 9.506l.261 1.61c-1.703.601-3.384 1.647-5.114 1.735-14.893.753-27.199-7.118-33.45-21.384-5.803-13.24-6.695-27.325-6.938-41.523-.18-10.552.699-20.895 4.346-30.928 1.521-4.183 3.66-7.325 8.612-7.81-2.24 12.843-5.54 25.231-7.191 37.836-1.776 13.57-1.06 27.328 4.677 40.08 1.839 4.087 5.667 7.278 8.585 10.878z"/><path fill="#F7F7F7" d="M144.846 55.482c27.652-2.236 52.306 3.498 72.434 24.285-1.09.894-2.105 1.723-3.116 2.558-.75.619-1.493 1.245-2.423 2.022-18.333-19.19-41.45-23.58-66.767-22.006-.187-2.437-.347-4.537-.128-6.86zM159.902 439.165c-13.184-4.024-24.178-10.819-33.611-20.825l5.115-4.777c18.415 19.178 41.604 23.744 66.77 22.109.278 1.207.564 1.99.618 2.79.088 1.29.024 2.59.024 4.23-13.152.928-25.98.483-38.916-3.527z"/><path fill="#F5F5F5" d="M258.767 329.704c3.29.421 6.322.229 9.165.872 1.151.26 1.891 2.342 2.818 3.596-1.551.307-3.142.98-4.642.815-1.395-.154-2.674-1.704-4.038-1.757-3.961-.153-5.18-2.534-6.22-5.834-.433-1.378-2.491-2.245-3.81-3.344-.38 1.537-1.278 3.16-1.042 4.595.846 5.152 2.495 9.714 9.17 9.57 1.245-.026 2.518 1.28 4.681 2.468-7.806 1.516-13.94 1.262-18.418-4.983-3.392-4.73-6.851-9.413-10.147-13.934l22.722-16.516 7.044 5.35c-1.75.421-4.052.703-6.086 1.595-.85.373-1.536 2.051-1.512 3.118.014.577 1.645 1.505 2.61 1.595 2.451.23 4.938.077 7.48.682-2.487.47-5.025.771-7.44 1.487-1.145.339-2.056 1.47-3.073 2.241 1.175.832 2.27 2.193 3.541 2.384 2.515.379 5.128.112 7.7.112l.046 1.25c-2.443 0-4.894-.132-7.325.036-2.565.177-4.75.934-3.224 4.602z"/><path fill="#F3F3F3" d="M73.912 180.062c2.471-.121 5.047.137 7.378-.5 1.493-.408 2.624-2.138 3.918-3.275-1.453-.644-2.858-1.649-4.37-1.849-2.368-.313-4.81-.083-7.247-.517 4.026-2.255 9.924 1.63 12.111-3.621l5.915 3.472c-.012-2.41.21-4.85-.088-7.224-.526-4.18-2.91-6.38-7.332-6.578-1.622-.073-3.192-1.298-4.627-2.441 6.25-1.49 12.168-1.798 16.55 3.982 3.709 4.889 7.364 9.817 11.03 14.711-7.57 5.457-15.014 10.824-22.53 16.24l-11.162-6.328c3.035 0 5.99.245 8.863-.132 1.015-.133 1.831-1.784 2.738-2.742-1.08-.745-2.083-1.945-3.254-2.14-2.425-.406-4.939-.277-7.627-.731-.212-.363-.266-.327-.266-.327z"/><path fill="#C73416" d="M174.832 454.97c-9.259 4.84-23.522 2.785-32.684-5.693-4.106-3.8-6.798-9.127-9.694-14.15 4.491 1.32 8.545 3.03 12.6 4.741 11.864 5.628 24.344 8.48 37.767 8.692-2.48 2.383-5.235 4.397-7.99 6.41zM189.847 55.102c-5.847-1.37-11.662-2.898-17.552-4.05-3.674-.719-7.459-.868-11.468-1.687 2.86-2.685 5.994-4.954 9.127-7.224 16.389-5.202 35.976 4.395 40.747 20.575-2.165-.585-3.792-1.823-5.626-2.492-5.03-1.835-10.146-3.431-15.228-5.122z"/><path fill="#F3C71E" d="m158.062 419.862 4.999 4.602-1.029 1.3c-2.041-1.626-4.704-2.864-6.004-4.952-3.39-5.445-7.547-10.944-8.952-16.99a501.073 501.073 0 0 1-8.767-48.464c-.656-5.018 2.119-10.551 3.621-15.762 1.053-3.652 3.682-5.813 7.895-5.761-6.813 20.43-5.647 40.877-2.158 61.333 1.526 8.945 4.197 17.616 10.395 24.694z"/><path fill="#F0F1F5" d="M85.188 248.202c-15.928 25.206-13.988 57.126 5.343 81.055.958 2.165 1.613 4.138 2.492 6.783-23.778-18.438-32.506-60.863-9.801-91.312.67 1.167 1.245 2.169 1.966 3.474z"/><path fill="#F4EFEE" d="M258.026 249.635c15.125-21.78 14.279-54.234-2.124-77.128a29.601 29.601 0 0 0-2.736-3.298c-.32-.126-.282-.114-.29-.348-.138-.57-.381-.762-.738-.81l-1.374-4.985c19.76 12.731 34.23 56.344 9.21 90.459a133.743 133.743 0 0 1-1.948-3.89z"/><path fill="#F3C71C" d="M185.1 75.855c2.956 3.783 7.172 7.142 8.616 11.434 3.422 10.172 5.795 20.73 8.076 31.244 1.58 7.276 3.122 14.737 3.143 22.12.017 5.919-2.111 11.886-3.607 17.751-.946 3.712-3.66 5.793-7.9 5.76 5.752-15.475 5.169-31.304 4.196-47.063-.718-11.627-2.821-23.068-8.475-33.53-1.38-2.555-2.7-5.143-4.049-7.716z"/><path fill="#F6F5EF" d="M126.394 199.533c-16.692 8.359-28.23 21.078-35.755 37.703-1.293 2.856.055 4.223 1.755 5.947 10.842 10.997 18.173 23.963 21.76 39.435a12.922 12.922 0 0 1-2.075 3.105c-.296.331-.81.467-1.576.881-3.242-15.668-9.842-29.509-20.483-41.292-5.508-6.1-5.594-6.115-1.697-13.28 8.018-14.741 19.615-25.776 34.691-33.14 2.393-1.17 2.419-1.115 3.38.64zM216.964 298.414c16.595-8.282 28.237-20.99 35.546-37.668.621-1.417-.136-4.328-1.302-5.502-11.058-11.123-18.134-24.392-22.195-39.813.95-1.612 2.01-2.861 3.446-4.553 1.181 4.08 2.164 7.775 3.322 11.414 3.995 12.563 10.658 23.565 19.943 32.889 2.248 2.257 2.597 4.026 1.232 6.874-8.387 17.503-21.326 30.251-39.6 37.934-.502-.14-.771-.414-.771-.414-.03-.347.06-.66.38-1.161z"/><path fill="#F7F2F0" d="M159.242 323.964c14.216-6.132 20.395-19.243 25.847-32.605 5.993-14.69 6.874-29.975 2.957-45.836 1.185-1.094 2.443-1.8 4.144-2.757 4.434 14.887 4.026 29.26-.358 43.543-3.509 11.432-9.439 21.582-17.358 30.546-3.923 4.44-8.951 6.672-15.232 7.11z"/><path fill="#F1F2F5" d="M180.584 175.039c-18.009 13.92-25.775 33.264-27.364 55.367-.513 7.151 1.172 14.46 1.902 22.105-1.2 1.107-2.45 1.806-3.972 2.659-5.648-18.752-3.848-36.581 4.47-53.563 3.533-7.211 8.26-14.01 13.42-20.18 2.593-3.101 7.37-4.377 11.544-6.388z"/><path fill="#EFC51F" d="M200.057 81.882c1.89 1.846 4.887 3.39 5.487 5.587 3.497 12.798 6.46 25.742 9.543 38.652 1.195 5.006 2.335 10.03 3.316 15.083 1.49 7.668-1.023 13.72-8.096 17.516 2.36-8.206 3.596-16.076 2.063-24.342-3.284-17.695-5.39-35.657-12.313-52.496zM143.891 417.034c-4.328-1.938-5.845-5.388-6.864-9.983-3.037-13.705-6.82-27.244-10.23-40.869-.8-3.201-1.326-6.475-1.893-9.73-1.42-8.145 1.637-14.205 8.923-18.045-1.005 6.942-3.982 13.773-3.193 20.136 2.465 19.868 5.014 39.871 13.257 58.491z"/><path fill="#EBE7D9" d="M171.673 417.348c-2.732-3.358-6.56-6.549-8.399-10.635-5.736-12.753-6.453-26.511-4.677-40.081 1.65-12.605 4.95-24.993 7.593-37.927.793-.803 1.517-1.155 2.613-1.687-2.146 9.135-4.55 17.85-6.192 26.706-2.594 13.996-3.53 28.25-.269 42.148 1.734 7.386 6.014 14.175 9.33 21.476zM158.077 419.477c-6.213-6.693-8.884-15.364-10.41-24.31-3.49-20.455-4.655-40.902 2.58-61.399.755-.592 1.373-.757 2.834-1.148-4.653 11.585-5.697 23.15-5.485 34.892.31 17.2 1.532 34.2 10.339 49.635.291.511.115 1.29.142 2.33z"/><path fill="#EEECE0" d="M185.077 75.873c1.371 2.555 2.691 5.143 4.072 7.698 5.654 10.462 7.757 21.903 8.475 33.53.973 15.76 1.556 31.588-4.598 47.127-3.86 1.41-1.887-.985-1.527-2.178 6.99-23.174 5.465-46.326-.891-69.234-1.589-5.726-5.583-10.784-8.1-16.501 1.098-.357 1.824-.36 2.549-.365 0 0-.004-.059.02-.077z"/><path fill="#F0EEE5" d="M174.145 84.338c1.404.853 3.235 1.8 4.137 3.304 4.811 8.026 6.226 16.994 6.764 26.17 1.112 18.965-2.537 37.23-8.111 55.6-.648.643-1.248.908-2.382 1.41 2.033-8.484 4.321-16.488 5.828-24.636 3.2-17.313 4.314-34.683-1.371-51.762-1.135-3.407-3.22-6.498-4.865-10.086z"/><path fill="#EEECE0" d="M144.031 417.207c-8.383-18.793-10.932-38.796-13.397-58.664-.79-6.363 2.188-13.194 3.548-20.187.776-.77 1.445-1.167 2.114-1.563-3.484 8.612-4.647 17.474-3.016 26.24 3.5 18.8 4.81 38.193 14.532 56.726-1.917-1.252-2.779-1.815-3.78-2.552zM200.034 81.912c6.946 16.81 9.052 34.77 12.336 52.466 1.533 8.266.297 16.136-2.416 24.291.074.395.043.347-.22.35-.418.352-.572.702-.725 1.052-.41.273-.788.65-1.24.787-.409.125-.898-.01-1.646-.045 4.49-8.538 5.491-17.503 3.794-26.586-2.738-14.653-5.827-29.246-9.111-43.787-.876-3.875-3.003-7.467-4.905-12.028 1.41.88 2.062 1.287 2.99 2.245.58.806.884 1.06 1.188 1.315 0 0-.068-.03-.045-.06z"/><path fill="#F1F1F1" d="M167.54 355.684c2.433-2.742 4.77-5.088 8.02-8.348l2.137 11.341-11.5 6.612c.462-3.407.855-6.308 1.342-9.605z"/><path fill="#F5F5F5" d="M172.75 146.674c-1.827.867-3.308 1.55-4.804 2.24-3.199-9.349-3.199-9.349 9.941-15.249-1.597 4.275-3.195 8.55-5.138 13.01z"/><path fill="#F0F1F5" d="M228.352 148.6c-2.593 10.653-9.344 17.185-17.88 17.397 7.369-4.018 12.489-9.95 13.669-18.933 1.535.498 2.771.898 4.21 1.535z"/><path fill="#F4EFEE" d="M115.03 349.45c1.89-9.207 6.868-15.429 16.59-17.402-5.79 4.869-11.81 9.758-12.117 18.96-1.842-.565-3.045-.934-4.473-1.558z"/><path fill="#F1F1F1" d="M260.532 384.008c-1.895 2.45-1.107 3.711 1.055 4.992 1.062.63 1.54 2.246 2.284 3.415-1.468.236-3.443 1.186-4.308.572-2.476-1.758-5.888-3.925-6.284-6.362-.342-2.104 2.948-4.798 5.31-8.21 1.15 2.73 1.694 4.021 1.943 5.593z"/><path fill="#EFEFEF" d="M271.844 394.077c.865-1.26 1.353-2.472 1.804-3.698.4-1.088.759-2.192 1.135-3.288 1.132.74 3.265 1.54 3.225 2.212-.193 3.31.024 7.464-1.86 9.582-1.349 1.517-5.78.295-8.836.295l-.523-2.35c1.554-.904 3.108-1.807 5.055-2.753z"/><path fill="#244CC1" d="M97.88 130.377c.694.636 2.08 1.425 1.978 1.885-1.361 6.154-3.116 12.155-9.373 15.38.61-3.935 1.642-7.452 2.673-10.97.267-.91.528-1.821.792-2.731 0 0 .04.058.403.223.451-.304.54-.772.63-1.241 0 0 .008.069.365.234.456-.3.554-.765.652-1.23 0 0 .002.065.213.346.697-.444 1.182-1.17 1.667-1.896z"/><path fill="#F3F3F3" d="M69.055 98.036c2.594.62 4.783 1.216 7.471 1.947-1.047 1.567-1.652 3.407-2.439 3.488-3.57.37-5.619 1.397-4.249 5.513.135.405-1.246 1.892-1.779 1.82-.987-.135-2.209-.84-2.732-1.681-1.821-2.925.018-8.725 3.728-11.087z"/><path fill="#2A50C0" d="m248.117 364.274-3.163 4.806-1.813-1.562c.896-7.03 3.617-13.215 9.38-17.84-.27 4.323-.859 8.348-1.447 12.374 0 0-.074-.052-.419-.231-.434.3-.523.78-.612 1.26 0 0-.039-.08-.316-.319-.721.344-1.166.928-1.61 1.512z"/><path fill="#EFEFEF" d="M277.113 374.66c.739 2.41 1.33 4.44 1.922 6.469l-.942 1.16c-1.51-.87-2.929-2.08-4.555-2.513-1.544-.41-3.305-.006-4.97.044-1.045.031-2.089.07-3.133.107-.023-1.075-.418-2.329-.002-3.192 1.66-3.451 8.048-4.722 11.68-2.075zM66.013 123.003a438.654 438.654 0 0 1-1.622-6.59c1.76 0 3.781-.446 4.068.07 2.037 3.677 4.36 3.796 7.413 1.324.087-.07 2.538 1.868 2.4 2.584-.78 4.05-8.758 5.927-12.259 2.612z"/><path fill="#F3F3F3" d="M80.41 108.758c-.169-1.502.007-2.833.183-4.164 2.768 1.402 5.71 2.55 8.253 4.282 2.405 1.639 1.932 3.896-.008 5.813-1.261 1.246-2.605 2.41-5.176 4.771 0-3.151.377-4.984-.11-6.548-.458-1.474-1.827-2.666-3.141-4.154z"/><path fill="#2A50C0" d="M269.211 358.591c-1.435-.52-2.5-1.023-3.62-1.238-4.942-.95-6.486-3.871-4.942-9.165 5.346 1.859 8.453 5.798 11.336 10.874-1.184-.158-1.807-.24-2.774-.471zM76.159 140.094c4.84 1.34 8.422 3.235 6.122 10.205l-10.701-9.046.785-1.55c1.147.101 2.295.202 3.794.39z"/><path fill="#EBE7D9" d="M190.017 55.426c4.912 1.367 10.029 2.963 15.058 4.798 1.834.669 3.461 1.907 5.544 2.866.36-.018.385-.072.357.215.302.462.631.638.961.813l1.135 3.15c-7.676-3.863-15.28-7.69-23.055-11.842z"/><path fill="#E5E5E5" d="M80.715 164.582c2.693.829 5.993.274 5.677 3.895-3.658-.253-7.282-.306-10.828-.858-1.214-.19-2.36-1.525-3.24-2.582-.192-.23.727-1.973 1.412-2.207 1.056-.362 2.4-.21 3.532.074 1.086.272 2.059.992 3.447 1.678zM144.958 439.542c-3.959-1.384-8.013-3.095-12.432-4.785-.364.022-.434.098-.348-.168-.276-.478-.638-.69-1-.903l-1.33-4.165c5.477 3.537 10.245 6.616 15.11 10.021z"/><path fill="#EBE7D9" d="M169.57 42.054c-2.75 2.357-5.883 4.626-9.224 7.198-1.482.303-2.758.303-5.373.303 4.805-4.166 8.927-6.902 14.597-7.5z"/><path fill="#E5E5E5" d="M175.247 455.025c2.34-2.068 5.094-4.082 8.06-6.368 1.402-.186 2.594-.1 3.786-.016l.451 1.74c-3.96 1.566-7.92 3.132-12.297 4.644z"/><path fill="#F0F1F5" d="M93.615 134.029c.071.822-.19 1.733-.457 2.642-1.03 3.519-2.064 7.036-3.019 10.983-.215 1.101-.507 1.774-1.22 3.412-2.156-7.37-.568-12.609 4.696-17.037zM251.425 361.981c.237-3.955.825-7.98 1.391-12.43.719-.25 2.091-.117 2.106.106.287 4.406.456 8.833-3.497 12.324z"/><path fill="#F3C71C" d="M185.115 75.575c-.783.38-1.509.383-2.602.396-.169-.646.031-1.3.232-1.953.809.394 1.618.788 2.37 1.557z"/><path fill="#F0F1F5" d="M97.64 130.486c-.245.617-.73 1.343-1.458 1.777.244-.75.73-1.21 1.457-1.777zM248.462 364.283c.1-.593.544-1.177 1.295-1.489-.112.681-.531 1.09-1.295 1.49zM250.351 363.09c-.219-.49-.13-.969.342-1.245.244.554.105.905-.342 1.245z"/><path fill="#F3F3F3" d="M73.992 180.005a7.059 7.059 0 0 0-.655-.501c.273.046.547.091.697.348-.122.21-.068.174-.042.153z"/><path fill="#C83214" d="M252.14 168.31c.355-.211.598-.02.755.558-.234.062-.493-.118-.755-.558z"/><path fill="#EFC51F" d="M209.301 160.02c-.139-.299.015-.649.46-.997.139.315-.015.63-.46.996z"/><path fill="#F6F5EF" d="M216.987 299.987c-.063.346-.259.554-.454.761-.085-.272-.17-.545-.101-.995.153-.178.422.095.555.234z"/><path fill="#F0F1F5" d="M94.7 132.967c.194.425.104.893-.382 1.187-.23-.498-.065-.82.383-1.187zM95.733 132.002c.169.39.07.855-.42 1.15-.21-.471-.028-.772.42-1.15z"/><path fill="#C73416" d="M131.221 433.974c.32-.075.68.137.98.662-.355.083-.646-.146-.98-.662z"/><path fill="#EFC51F" d="M200.119 81.642c-.344.075-.647-.18-1.01-.745.312-.07.68.172 1.01.745z"/><path fill="#C73416" d="M211.9 63.829c-.293.114-.622-.062-.953-.522.304-.112.609.06.952.522z"/><path fill="#FCFCFC" d="M21.398 19.863c.67-1.976 1.007-3.65 1.774-5.094 1.834-3.453 4.616-5.665 8.74-5.57 4.317.098 7.344 2.369 8.715 6.292 3 8.585 3.017 17.341.063 25.921-1.44 4.186-4.408 6.834-9.364 6.787-5.052-.05-8.259-3.032-8.92-7.205-1.077-6.798-.832-13.806-1.008-21.131z"/><path fill="#FBFBFB" d="M302.793 451.093c2.205-4.82 5.656-6.853 10.543-6.202 4.59.612 6.778 3.794 7.9 7.876 2.155 7.844 2.197 15.729-.28 23.493-1.636 5.125-5.32 7.789-9.855 7.542-5.051-.276-7.869-3.468-9.012-7.928-2.086-8.136-2.234-16.34.704-24.781z"/><path fill="#313131" d="M202.834 292.018c-.258-1.766-.129-3.415.032-5.456l5.29 1.558c-.883 2.622-.345 6.253-5.322 3.898zM198.318 300.517c1.58.38 2.904 1 4.68 1.832l-2.242 4.708-4.905-2.245c.84-1.543 1.526-2.799 2.467-4.295zM206.55 244.751c1.724 4.621-1.708 3.822-4.007 4.7l-1.937-5.519c2.333.187 4.053.325 5.943.82zM189.073 317.512c.287-1.815.856-3.315 1.616-5.319l4.543 3.251c-1.506 2.578-2.528 5.529-6.159 2.068zM183.727 325.194c-.052 2.017-.364 3.736-.676 5.455l-1.593-.086-4.354-4.698c2.882-.438 4.622-.703 6.623-.67z"/><path fill="currentColor" d="M206.012 272.917c1.69.023 2.963.152 4.481.305l-.556 4.641h-5.015c.25-1.797.463-3.318 1.09-4.946zM210.109 261.077c-1.417 1.238-2.87 2.013-4.771 3.028l-.568-5.6c2.295-.119 5.079-2.506 5.339 2.572z"/><path fill="#363636" d="M133.169 235.541c1.581-.595 3.007-.817 4.78-1.094.32 1.82.59 3.36.859 4.883-3.803 1.462-6.178 1.172-5.64-3.789zM163.082 168.577c3.729 3.389.102 4.208-1.715 6.03-1.146-1.206-2.23-2.345-4.146-4.363 2.297-.803 3.961-1.385 5.861-1.667z"/><path fill="#313131" d="M138.094 254.79c-1.027-1.43-1.66-2.882-2.42-4.623l4.642-1.585c2.368 3.109 2.738 5.386-2.222 6.209zM149.075 180.735c2.686-4.016 4.098-.784 6.141.666-.978 1.333-1.894 2.58-3.58 4.873-1.157-2.191-1.959-3.707-2.56-5.54zM136.89 210.442c-.578-1.794-.803-3.425-1.137-5.856l5.62 1.734c-.525 2.59.075 5.812-4.483 4.122zM145.763 192.344c.232 1.882.132 3.554-.009 5.899l-5.312-2.56c1.106-2.3.852-5.98 5.32-3.339z"/><path fill="currentColor" d="M132.99 224.003c-.57-4.906 2.192-4.132 5.063-3.794v5.188c-1.842-.338-3.454-.634-5.063-1.394zM185.819 401.234c1.06-1.445 2.118-2.485 3.177-3.524.67 1.959 1.687 3.89 1.852 5.89.073.885-1.582 1.912-2.452 2.875-.86-1.612-1.72-3.223-2.577-5.241z"/><path fill="#363636" d="M157.51 98.244c-1.24.906-2.42 1.444-3.6 1.982-.593-1.923-1.5-3.824-1.64-5.78-.065-.914 1.348-2.767 2.098-2.77 4.77-.025 2.758 3.773 3.142 6.568zM114.935 187.277c2.792 4.173-.552 4.476-3.063 5.701l-2.754-5.158c2.277-.356 3.973-.62 5.817-.543zM128.664 181.097c.987 1.47 1.574 2.902 2.311 4.699l-5.013 1.392c-1.845-3.378-1.864-5.627 2.702-6.09zM81.928 223.744c-1.857.135-3.56-.087-5.781-.377l2.637-5.171c2.352 1.206 5.92 1.09 3.144 5.548z"/><path fill="#313131" d="M86.645 210.508c.034-1.918.336-3.593.792-6.132l4.94 3.998c-1.68 1.641-1.998 5.384-5.732 2.134z"/><path fill="currentColor" d="M100.677 194.864c1.09 1.273 1.858 2.312 2.744 3.512l-3.848 3.07-3.475-4.04c1.586-1.035 2.921-1.906 4.58-2.542z"/><path fill="#363636" d="M227.14 307.985c1.284-1.208 2.645-2.068 4.22-3.063.88 1.566 1.6 2.847 2.5 4.452l-4.364 2.736c-.814-1.35-1.546-2.564-2.355-4.125zM241.39 301.887c.13-1.99.528-3.707.924-5.424l1.646.155 4.236 5.015c-2.945.238-4.744.384-6.807.254zM262.383 273.218c1.633.53 2.915 1.214 4.493 2.057l-2.36 4.687-4.79-2.51c.884-1.563 1.595-2.822 2.657-4.234z"/><path fill="#313131" d="M217.547 311.276c.656 1.505.988 2.783 1.398 4.365l-4.85 1.58-1.61-5.01c1.723-.423 3.23-.792 5.062-.935zM256.04 286.915c4.079 3.27-.193 3.976-1.075 6.034l-4.864-3.898c2.36-.989 4.006-1.678 5.939-2.136z"/></svg>