<svg xmlns="http://www.w3.org/2000/svg" viewBox="0 0 336 496" xml:space="preserve"><path fill="currentColor" d="M176.23 176.744c8.135 9.245 18.083 15.728 27.618 22.71 7.276 5.328 14.338 10.913 20.15 17.856 11.091 13.25 15.23 28.308 8.628 44.615-8.513 21.028-33.776 28.123-52.7 15.592-1.223-.81-2.426-1.65-4.378-2.981 1.491 11.283 5.012 20.829 11.684 29.146.833 1.037 1.87 1.966 2.475 3.121 1.975 3.776.4 6.497-3.834 6.526-10.33.07-20.66.067-30.989-.02-1.854-.016-4.32.945-5.344-1.455-1.007-2.36.035-4.449 1.696-6.356 7.322-8.404 11.353-18.302 13.001-29.24.045-.3-.096-.629-.167-1.036-1.804.105-2.811 1.574-4.161 2.402-12.614 7.734-25.632 8.336-38.319.861-12.601-7.425-17.792-19.089-17.044-33.68.714-13.919 7.514-24.556 17.232-33.774 6.062-5.75 12.878-10.563 19.617-15.452 10.659-7.733 21.46-15.285 28.148-27.507 3.17 2.365 4.03 6.01 6.688 8.672zM38.793 50.269c-.131-4.073-.109-7.892-5.768-7.98-11.76-.184-11.758-.343-13.144 7.2.256 1.238 1.417 1.292 2.282 1.678 1.35.601 2.254 1.403 1.925 3.037-.345 1.713-1.714 1.91-3.057 1.926a319.67 319.67 0 0 1-10.488-.057c-1.212-.026-2.31-.44-2.626-1.836-.346-1.531.216-2.799 1.682-3.162 3.16-.783 3.863-3.358 4.722-5.887 3.533-10.394 7.141-20.763 10.552-31.197 1.055-3.227 2.572-5.022 6.304-5.043 3.68-.02 4.846 2.056 5.842 4.933 3.7 10.688 7.507 21.34 11.241 32.018.778 2.224 1.412 4.419 4.127 5.168 1.434.396 2.03 1.624 1.742 3.164-.325 1.738-1.71 1.896-3.047 1.918-3.83.064-7.664.121-11.49.01-1.692-.048-4.002.69-4.627-1.78-.722-2.851 1.91-3.008 3.828-4.11m-4.33-15.573c-1.5-4.758-2.714-9.626-5.42-14.914-1.631 5.03-3.01 9.208-4.337 13.405-.485 1.535-.531 3.327 1.446 3.488 2.775.227 5.878 1.615 8.312-1.979zM321.706 467.58c-2.396 6.975-4.75 13.55-6.858 20.203-.952 3.005-2.675 4.24-5.805 4.29-3.219.05-4.684-1.359-5.697-4.327-3.65-10.697-7.59-21.295-11.341-31.96-.895-2.543-1.532-5.07-4.594-6-1.463-.444-1.854-1.836-1.475-3.292.369-1.416 1.607-1.588 2.778-1.607 4.16-.068 8.32-.122 12.478-.063 1.576.022 3.535-.319 3.929 2.044.378 2.277-1.467 2.667-2.945 3.369-.432.205-.81.525-1.443.945 1.014 3.478.522 7.572 6.384 7.558 11.46-.027 11.46.212 13.013-7.435-.633-1.37-2.263-1.18-3.28-1.989-.9-.714-1.107-1.612-.924-2.652.206-1.168 1.077-1.707 2.128-1.72 3.989-.05 7.996-.23 11.963.077 2.55.197 3.132 2.948 1.446 3.863-7.467 4.052-6.402 12.259-9.757 18.696m-14.55 3.891 3.485 10.129c2.149-6.384 4.42-11.4 5.313-17.367-3.854-.155-7.084-.635-10.31.049-.656 2.553.778 4.413 1.512 7.19zM20.722 77.69c3.375-2.42 6.39-4.718 9.012-7.603 3.66 2.907 7.124 5.67 10.6 8.417 5.57 4.403 7.702 9.677 5.896 14.626-1.75 4.8-5.22 6.376-13.184 5.969-.599 2.519 2.387 3.964 1.9 6.74-3.134 1.634-6.376 1.475-9.581.32-1.37-2.995 2.333-4.526 1.479-7.35-1.428.152-2.87.427-4.314.438-3.647.028-6.398-1.677-8.158-4.809-2.067-3.68-1.614-7.369.5-10.871 1.393-2.31 3.48-3.999 5.85-5.877zM293.121 411.88c1.22-8.342 4.786-10.798 13.758-9.798.84-2.553-2.265-3.956-1.815-6.735 2.734-2.047 6.359-2.294 9.003-.581 3.388 2.195-1.903 4.339-.815 7.158.104.031.57.344.935.252 4.942-1.24 9.092-.048 11.506 4.545 2.457 4.676 1.077 9.025-2.304 12.83-3.876 4.361-9.398 6.771-13.448 11.917-5.09-7.245-15.347-9.16-16.82-19.588z"/></svg>