<svg xmlns="http://www.w3.org/2000/svg" viewBox="0 0 336 496" xml:space="preserve"><path fill="currentColor" d="M107.001 392.947c-1.819 3.174-3.571 5.994-3.512 9.994 2.94-.787 5.546-1.828 8.24-2.15 15.127-1.81 25.08 12.37 19.016 26.987-2.241 5.403-6.235 9.367-10.747 12.906-7.157 5.613-15.302 10.085-20.626 18.742-5.668-9.07-14.415-13.595-21.853-19.655-5.976-4.87-10.298-10.661-11.212-18.741-1.505-13.29 10.705-23.636 23.479-19.668 1.687.524 3.196 1.839 5.397 1.348-.044-4.387-2.121-7.887-4.593-11.242-.982-1.332-2.303-2.701-1.412-4.483.938-1.877 2.917-1.217 4.49-1.266 3.329-.102 6.67-.151 9.995.004 2.047.096 4.75-1.034 5.941 1.307 1.19 2.336-1.46 3.768-2.603 5.917zM76.567 228.537c7.822-6.638 17.034-11.114 22.764-20.488 5.522 9.125 14.382 13.487 21.73 19.606 6.33 5.274 11.18 11.365 11.278 20.164.162 14.502-12.793 23.074-26.04 17.177-.899-.4-1.793-.813-3.225-1.463.263 5.062 2.377 8.859 4.915 12.505.926 1.329 2.604 2.583 1.72 4.372-.965 1.954-3.132 1.565-4.916 1.59-3.99.057-7.99.154-11.974-.038-4.288-.206-5.1-1.828-2.604-5.312 2.631-3.673 4.866-7.43 5.363-12.126-2.6-.755-4.16 1.29-6.184 1.745-6.827 1.534-13.017.43-17.943-4.67-5.635-5.832-6.345-12.876-4.038-20.407 1.573-5.137 5.069-8.891 9.154-12.655zM166.308 372.684c-4.353-5.43-10.058-8.673-15.188-12.616-6.81-5.234-13.09-10.786-14.545-20-2.335-14.785 9.833-25.393 24.065-20.89 1.514.478 2.845 1.693 4.878 1.32-.325-4.535-2.437-8.2-4.994-11.685-.977-1.33-2.337-2.681-1.394-4.455.816-1.536 2.577-1.317 4.043-1.333 4.158-.045 8.318-.025 12.477.017 1.49.015 3.195-.067 4.024 1.433.88 1.594-.351 2.81-1.274 3.984-2.829 3.594-4.68 7.605-5.454 12.802 4.132-1.536 7.807-3.437 11.966-3.2 12.618.72 20.362 12.086 16.742 24.522-1.904 6.542-6.19 11.253-11.362 15.379-7.11 5.67-15.388 9.994-20.262 17.87-2.223-.085-2.6-1.77-3.722-3.148zM173.725 202.02c-3.96-.004-7.464.128-10.95-.052-4.257-.22-5.09-1.88-2.55-5.335 2.69-3.66 4.791-7.469 5.273-12.136-2.406-.658-3.859 1.179-5.717 1.645-6.996 1.757-13.259.592-18.367-4.701-5.532-5.733-6.248-12.584-4.098-19.94 1.819-6.222 6.183-10.555 11.063-14.42 3.652-2.893 7.42-5.644 11.205-8.362 3.806-2.733 6.669-6.372 9.886-10.521 5.377 9.205 14.55 13.462 21.944 19.78 6.123 5.234 10.891 11.185 10.938 19.83.078 14.522-12.828 23.038-26.112 17.149-.897-.398-1.784-.818-3.08-1.414-.042 4.755 2.09 8.279 4.304 11.714 3.723 5.778 3.502 6.315-3.739 6.763zM263.623 403.09c11.669 8.215 11.728 23.773.346 34.167-2.942 2.686-6.168 5.08-9.394 7.43-5.521 4.023-11.142 7.908-14.97 14.919-6.388-9.944-16.321-14.547-24.15-21.63-5.084-4.6-8.424-10.084-9.176-17.172-1.385-13.052 10.595-23.27 23.206-19.501 1.736.518 3.428 1.18 5.587 1.93.195-4.925-2.077-8.457-4.568-11.918-.965-1.34-2.276-2.712-1.243-4.485.904-1.552 2.658-1.091 4.094-1.11 4.33-.06 8.662-.046 12.993-.006 3.602.034 4.635 1.486 2.415 4.61-2.594 3.652-5.01 7.379-5.38 12.888 6.87-2.504 13.453-4.089 20.24-.122zM235.463 266.23c-.672-4.257-2.7-1.26-3.808-.82-12.29 4.871-24.875-2.894-25.458-16.043-.292-6.594 2.12-12.352 6.675-17.227 4.134-4.425 9.084-7.825 13.924-11.356 4.707-3.434 9.078-7.184 12.547-12.822 5.317 9.02 13.842 13.31 21.021 19.155 6.806 5.541 12.07 11.903 11.995 21.382-.108 13.667-12.935 22.188-25.424 16.791-1.171-.506-2.181-1.532-3.902-1.24.401 4.832 2.684 8.78 5.372 12.614 2.524 3.602 1.88 5.017-2.47 5.226-4.324.207-8.67.223-12.995.051-4.534-.18-5.26-1.806-2.447-5.633 2.208-3.004 3.814-6.234 4.97-10.078zM87.658 57.642c4.671-3.24 8.513-6.826 11.474-12.336 6.091 9.858 15.745 14.317 23.358 21.147 5.495 4.93 9.662 10.525 9.842 18.307.362 15.624-13.399 24.234-27.3 17.065-.572-.295-1.142-.594-2.22-1.155.61 5.205 2.514 9.293 5.33 13.051.963 1.286 2.452 2.573 1.464 4.417-.866 1.616-2.622 1.16-4.054 1.18-4.326.056-8.657.133-12.977-.031-4.034-.153-4.758-1.594-2.43-4.966 2.656-3.846 4.976-7.761 5.49-12.905-3.331.737-5.952 2.638-9.1 2.876-7.88.597-14.216-2.151-17.992-9.14-4.207-7.789-2.802-15.488 2.016-22.576 4.304-6.33 10.837-10.235 17.099-14.934zM231.848 111.902c1.914-3.363 3.479-6.459 3.813-10.547-3.384.876-6.182 2.75-9.471 2.96-7.482.474-13.544-2.132-17.352-8.611-4.403-7.49-3.32-15.09 1.08-22.218 2.74-4.438 6.785-7.71 10.935-10.847 6.467-4.89 13.716-8.924 18.322-17.087 6.422 10.284 17.142 14.71 25.003 22.481 4.638 4.585 7.968 9.8 8.15 16.58.422 15.72-13.149 24.299-27.259 17.218-.577-.29-1.147-.595-2.18-1.132.424 5.026 2.358 8.93 4.923 12.625.998 1.438 2.892 2.805 1.747 4.809-1.103 1.93-3.3 1.107-5.04 1.168-3.162.112-6.337.154-9.494-.014-2.027-.108-4.737 1.049-5.851-1.437-1.056-2.355 1.475-3.803 2.674-5.948zM39.962 18.968c5.15 6.07 4.708 9.762-1.648 16.576.091.302.094.721.3.884 6.313 5 8.09 9.11 6.14 14.289-2.011 5.338-9.806 9.156-17.223 8.436-8.598-.835-13.161-4.12-14.09-10.142-.655-4.248.33-6.326 5.83-12.119-1.133-2.06-2.735-4.067-3.4-6.346-2.496-8.569 5.372-16.055 15.362-14.639 2.923.415 5.923.951 8.729 3.061M29.127 41.486c-1.377-.368-2.72-1.56-4.191-.445-2.514 1.902-3.265 4.589-2.548 7.497.789 3.203 3.03 4.97 6.412 5.167 2.841.165 5.384-.438 6.534-3.325 1.165-2.924-.313-5.097-2.609-6.79-.922-.68-1.972-1.19-3.598-2.104m-1.223-20.125c-3.61.91-4.628 3.439-3.01 6.398 1.397 2.56 3.793 5.31 7.094 4.173 3.099-1.067 3.417-4.307 2.615-7.239-.801-2.933-3.259-3.463-6.699-3.332zM299.359 468.138c-5.562-4.581-7.281-9.509-5.22-14.5 1.963-4.753 9.27-8.306 16.147-7.805.987.072 1.951.404 2.937.533 5.404.705 10.252 2.445 11.782 8.328 1.481 5.698-1.074 10.003-5.757 13.074.075.48.018.876.188 1.1 5.146 6.799 5.13 13.031-.071 17.164-6.137 4.879-18.076 3.908-22.377-1.82-2.716-3.616-2.373-7.959.752-11.904.89-1.123 3.277-1.698 1.619-4.17m16.441-13.315c-.91-1.462-2.162-2.532-3.77-3.13-4.575-1.705-9.643 1.101-9.251 5.097.278 2.841 6.754 8.363 9.641 7.607 3.926-1.026 4.477-4.417 4.084-7.984-.036-.321-.207-.627-.704-1.59m-4.843 28.8c3.05-.928 4.555-2.983 3.215-5.964-1.345-2.992-4.073-5.196-7.359-4.82-2.438.28-3.39 3.177-3.296 5.491.167 4.05 2.751 5.695 7.44 5.292zM294.206 419.352c-4.084-10.38.466-16.201 11.706-15.447.899-2.548-2.179-3.992-1.73-6.926 3.356-1.758 6.856-1.342 10.335.01.691 2.699-2.217 3.92-1.9 6.244.472 1.015 1.384.648 2.154.573 4.544-.44 8.25.84 10.414 5.14 2.346 4.664.94 8.87-2.197 12.443-3.943 4.49-9.568 7.06-13.77 12.244-4.177-6.04-11.075-8.192-15.012-14.28zM43.73 97.423c-3.244 3.616-6.98 4.196-11.11 3.037-1.203 2.77 2.275 4.149 1.454 6.985-3.09 1.26-6.3 1.176-9.443-.069-.852-2.622 2.01-4.035 1.458-6.41-1.697 0-3.367.259-4.923-.052-3.606-.719-6.417-2.477-7.64-6.31-1.39-4.361.12-7.885 2.926-10.962 3.81-4.18 9.103-6.633 12.717-11.499 3.396 4.134 7.368 6.586 10.981 9.481 5.338 4.278 6.486 9.222 3.58 15.799z"/></svg>