<svg xmlns="http://www.w3.org/2000/svg" viewBox="0 0 336 496" xml:space="preserve"><path fill="currentColor" d="M166.079 189.24c.525-1.762.916-3.193 1.486-5.28-3.326.575-5.84 2.268-8.734 2.705-12.478 1.883-23.157-9.037-20.82-21.43 1.367-7.246 5.297-12.822 10.934-17.348 7.479-6.006 16.11-10.656 21.99-19.545 6.228 9.296 15.662 13.974 23.404 20.662 5.071 4.38 8.551 9.693 9.68 16.426 2.356 14.047-10.876 25.133-24.355 20.354-1.531-.543-3.013-1.224-4.891-1.994.309 5.004 2.56 8.769 5.068 12.478 2.58 3.816 1.81 5.506-2.687 5.683-4.322.17-8.663.122-12.986-.066-3.548-.155-4.39-2.068-2.43-4.97 1.589-2.353 3.199-4.67 4.34-7.675zM127.152 231.884c4.904 5.037 7.232 10.8 7.026 17.427-.378 12.195-11.833 20.338-23.463 16.78-1.886-.576-3.69-1.425-5.91-2.297.172 4.774 2.258 8.458 4.697 11.981.957 1.383 2.275 2.7 1.53 4.483-.896 2.143-3.06 1.68-4.802 1.726-3.663.099-7.335.118-10.995-.027-4.9-.194-5.788-1.85-2.956-5.764 2.585-3.573 4.127-7.474 5.234-12.349-4.518 1.719-8.489 3.434-12.859 3.073-13.865-1.148-21.064-15.747-14.265-28.933 1.78-3.452 4.325-6.291 7.218-8.857 7.666-6.8 17.243-11.35 23.423-20.955 6.65 10.805 18.106 14.998 26.122 23.712zM261.656 266.079c-6.114 1.902-11.437.313-17.048-2.606.562 5.215 2.49 8.993 5.035 12.493 1.011 1.39 2.173 2.812 1.313 4.513-.886 1.754-2.862 1.447-4.48 1.48-3.661.073-7.326.055-10.989-.005-1.624-.027-3.578.305-4.468-1.472-.866-1.73.327-3.161 1.363-4.503 2.667-3.454 4.235-7.342 5.11-12.264-4.593 1.94-8.59 3.591-13.012 3.173-13.667-1.293-20.736-15.5-14.233-28.62 2.509-5.063 6.566-8.755 10.944-12.131 6.821-5.262 14.444-9.594 19.713-17.876 7.139 10.887 19.002 15.547 27.14 24.567 10.285 11.402 7.499 27.135-6.388 33.25zM90.831 388.51c.052-1.274.22-2.295 1.136-2.415a67.887 67.887 0 0 1 17.415-.059c2.874.366 2.036 2.847.805 4.647-2.54 3.712-4.827 7.518-5.48 12.688 3.408-.566 6.073-2.496 9.2-2.679 7.413-.435 13.482 1.914 17.452 8.418 4.469 7.319 3.531 14.667-.533 21.772-2.258 3.947-5.655 6.957-9.172 9.796-7.058 5.697-15.431 9.87-20.552 18.693-5.545-8.732-13.892-13.182-21.118-18.94-5.182-4.128-9.437-8.897-11.32-15.443-2.168-7.542-.85-14.319 5.011-19.644 5.864-5.328 12.748-5.99 20.032-3.084.909.362 1.812.738 3.008 1.226.82-6.239-3.642-9.949-5.884-14.976zM255.997 400.69c14.155 1.064 21.654 13.103 16.771 26.196-1.99 5.34-5.76 9.305-9.986 12.888-7.294 6.186-16.281 10.395-21.739 19.646-5.68-9.1-14.438-13.597-21.859-19.647-5.746-4.685-9.947-10.303-11.243-17.735-2.369-13.58 10.274-24.627 23.486-20.559 1.73.533 3.41 1.225 5.544 2 .07-4.664-1.922-8.151-4.32-11.497-1.06-1.479-2.548-2.96-1.58-4.929 1.037-2.104 3.226-1.27 4.938-1.323 3.828-.119 7.668-.144 11.494.013 4.015.165 4.833 1.656 2.59 4.987-2.52 3.744-4.695 7.549-5.37 12.534 3.956-.604 7.085-3.064 11.274-2.574zM95.13 102.116c-9.774 3.917-18.084 2.259-23.316-4.458-5.502-7.065-5.238-17.42.678-25.51 2.58-3.528 5.855-6.351 9.308-8.974 6.714-5.099 14.118-9.4 19.141-17.463 5.883 9.155 15.013 13.658 22.515 20.082 6.425 5.5 11.043 12.044 10.738 20.978-.415 12.179-11.731 20.25-23.434 16.793-1.866-.55-3.688-1.249-5.918-2.012.29 4.889 2.321 8.593 4.865 12.076 1.008 1.38 2.088 2.767 1.17 4.52-.869 1.655-2.623 1.125-4.039 1.155a252.36 252.36 0 0 1-11.478.005c-1.561-.038-3.52.527-4.36-1.486-.754-1.805.43-3.17 1.41-4.518 2.278-3.133 3.869-6.601 4.842-10.33.608-2.332-.706-1.592-2.121-.858zM271.273 75.026c6.132 13.411 1.38 25.732-10.835 28.86-3.84.984-7.558.472-15.395-2.198-.26 4.483 1.953 7.877 4.147 11.27.974 1.505 2.7 2.877 1.802 4.878-1.078 2.404-3.484 1.387-5.332 1.46-3.659.145-7.332.131-10.99-.013-4.164-.164-5.058-1.826-2.653-5.325 2.583-3.757 4.61-7.672 5.534-12.713-3.212.962-5.894 2.631-8.97 3.002-14.755 1.78-24.763-12.15-19.087-26.57 2.555-6.492 7.538-10.852 12.878-14.92 6.463-4.923 13.672-8.999 18.476-17.137 7.924 12.582 22.935 16.637 30.425 29.406zM31.661 72.403c2.775 3.427 6.238 5.497 9.463 7.847 2.605 1.899 4.952 4.098 5.94 7.219 2.27 7.177-.947 15.546-12.945 13.426-.97 2.68 2.742 4.172 1.78 6.779-3.865 1.741-5.726 1.76-9.761.076-.885-2.568 2.273-3.992 1.87-6.449-.246-.146-.522-.455-.759-.427-6.587.758-10.316-.775-12.273-5.085-2.017-4.444-.811-9.706 3.582-13.503 4.102-3.546 8.522-6.723 13.103-9.883zM307.578 401.728c-.838-1.59-1.908-2.75-1.49-4.662 2.997-1.806 6.686-2.022 9.24-.13 2.62 1.94-1.758 4.151-1.283 6.75.29.71.937.506 1.586.365 4.75-1.032 8.737.236 11.086 4.573 2.407 4.443 1.326 8.722-1.845 12.472-3.89 4.599-9.738 6.935-13.518 12.324-3.78-4.198-8.265-6.752-12.074-10.15-4.569-4.075-6.364-9.366-4.378-13.759 2.227-4.927 6.274-6.576 11.518-5.44 2.197.476 1.602-.88 1.158-2.343zM21.822 31.067c-3.406 1.823-5.039.872-5.115-2.645-.011-.5-.015-1-.025-1.499-.201-10.03 0-10.236 10.057-10.24 4.832-.002 9.665-.082 14.494.033 5.015.12 6.957 3.549 4.216 7.56-6.113 8.946-10.411 18.563-11.333 29.475-.377 4.455-3.284 4.869-6.743 4.393-3.944-.543-3.328-3.172-2.852-6.016 1.406-8.407 5.07-15.792 9.833-22.717 1.193-1.736 2.502-3.392 3.873-5.24-10.17-2.368-12.467-1.382-16.405 6.896zM307.3 476.166c-1.004 1.86-2.888 2.78-3.03 5.363 3.353 0 6.633.205 9.875-.06 2.932-.24 3.973-2.63 4.741-5.14.63-2.061 1.796-3.702 4.285-3.272 2.607.451 2.043 2.671 2.118 4.396.459 10.576.155 10.879-10.354 10.876-4.831-.001-9.665.093-14.493-.047-4.624-.134-6.534-3.57-4.012-7.37 6.07-9.146 10.608-18.838 11.469-29.956.331-4.274 3.26-4.414 6.473-4.105 3.487.335 3.663 2.437 3.21 5.354-1.364 8.771-5.158 16.448-10.282 23.961z"/></svg>