<svg xmlns="http://www.w3.org/2000/svg" viewBox="0 0 336 496" xml:space="preserve"><path fill="currentColor" d="M124.37 211.64c-7.05 4.03-13.694 3.304-20.984-.722.28 5.146 2.432 8.866 4.86 12.48.913 1.36 2.455 2.609 1.684 4.42-.937 2.202-3.14 1.424-4.857 1.473-3.66.107-7.329.105-10.99-.002-1.72-.05-3.942.709-4.85-1.497-.75-1.816.81-3.061 1.81-4.358 2.47-3.207 4.269-6.685 4.58-10.761-1.49-1.173-2.632-.19-3.812.262-6.97 2.671-13.578 1.892-19.155-3.032-5.926-5.232-7.187-12.134-5.309-19.633 1.38-5.506 4.414-10.05 8.826-13.58 5.326-4.263 10.754-8.4 16.18-12.535 2.812-2.142 4.61-5.194 7.313-8.176 5.822 8.762 14.86 13.423 22.461 19.784 5.34 4.469 9.372 9.78 10.371 17.057 1.08 7.858-1.28 14.052-8.129 18.82zM139.856 239.088c2.9-4.858 6.948-8.062 11.042-11.223 6.552-5.057 13.983-9.114 18.614-17.321 5.764 9.243 14.745 13.728 22.25 19.948 5.945 4.925 10.16 10.833 10.997 18.868 1.336 12.809-10.498 22.902-22.923 19.3-2.044-.592-4.007-1.468-6.4-2.359.25 4.903 2.428 8.709 4.996 12.359.953 1.355 2.287 2.667 1.357 4.472-.856 1.662-2.62 1.137-4.04 1.158-4.33.063-8.663.13-12.987-.02-4.08-.142-4.815-1.614-2.404-4.91 2.648-3.621 5.107-7.238 5.182-12.454-3.094.865-5.71 1.96-8.419 2.292-13.785 1.686-23.734-10.611-19.703-24.258.56-1.897 1.498-3.684 2.438-5.852zM241.724 346.522c-1.17 1.637-2.344 2.813-3.6.751-4.147-6.81-11.122-10.361-17.095-15.062-3.934-3.096-7.8-6.256-10.572-10.497-7.408-11.334-4.248-24.763 6.95-29.64 4.135-1.802 8.342-1.8 12.672-.666 1.696.445 3.227 1.794 5.44 1.139.094-4.61-2.35-8.097-4.93-11.533-.886-1.18-2.132-2.33-1.347-3.985.812-1.713 2.551-1.287 3.979-1.305 4.49-.058 8.981-.038 13.472-.008 3.865.027 4.34 1.998 2.371 4.758-2.63 3.686-4.824 7.5-5.592 11.908 1.257 1.418 2.302.44 3.272.024 7.664-3.29 14.784-2.35 20.73 3.458 5.81 5.676 6.547 12.769 4.131 20.304-2.547 7.942-8.767 12.711-15.09 17.383-5.202 3.844-10.832 7.197-14.79 12.971zM115.34 444.394c-6.053 4.168-11.542 8.435-15.719 14.941-5.3-8.763-13.592-13.082-20.727-18.734-7.051-5.587-12.326-12.12-12.243-21.76.112-13.011 11.852-21.39 24.138-17.165 1.387.477 2.655 1.472 4.629 1.047.42-4.598-2.224-8.004-4.605-11.514-.904-1.332-2.466-2.592-1.345-4.42.936-1.525 2.682-1.053 4.124-1.074 3.999-.059 8-.079 11.997.01 1.566.034 3.561-.564 4.363 1.468.629 1.594-.536 2.82-1.402 4.048-2.471 3.505-4.674 7.123-4.948 12.014 3.217-.916 5.983-2.126 8.85-2.45 14.02-1.585 23.677 10.999 19.347 24.968-2.653 8.556-9.437 13.457-16.46 18.621zM217.566 439.467c-6.449-5.71-11.076-11.913-10.94-20.758.198-12.98 11.902-21.249 24.273-17 1.37.471 2.631 1.517 4.564.866.247-4.55-2.31-7.998-4.736-11.498-.837-1.208-2.142-2.34-1.405-4 .775-1.744 2.525-1.343 3.96-1.357 5.456-.05 10.912-.02 16.942-.02-.61 6.845-6.958 10.657-6.462 17.438 2.84-.817 5.562-2.01 8.384-2.34 14.304-1.674 24.193 11.08 19.586 25.12-1.767 5.384-5.193 9.581-9.496 13.199-7.597 6.386-16.826 10.87-22.573 20.274-5.562-9.214-14.486-13.533-22.097-19.924zM90.683 339.333c-5.756-4.564-11.863-8.114-16.686-13.274-4.59-4.911-7.495-10.463-7.37-17.448.226-12.559 11.345-20.746 23.454-17.191 1.68.493 3.21 1.844 5.452 1.177.055-4.583-2.362-8.096-4.867-11.58-.859-1.195-2.14-2.348-1.388-4 .792-1.74 2.552-1.279 3.978-1.301a370.17 370.17 0 0 1 12.498.003c1.422.026 3.203-.473 4.047 1.171.922 1.795-.4 3.142-1.378 4.476-2.485 3.385-4.216 7.084-4.998 11.008.97 1.11 1.811.774 2.512.387 8.302-4.594 18.31-1.414 23.045 4.652 5.12 6.559 5.138 16.617-.055 24.324-1.872 2.777-4.121 5.204-6.7 7.368-7.606 6.38-16.795 10.906-22.492 19.93-3.053-3.567-5.256-7.16-9.052-9.702zM243.415 102.205c.585 4.712 2.902 8.33 5.343 11.927 2.495 3.677 1.815 5.031-2.603 5.16-4.324.124-8.656.066-12.984.008-1.438-.019-3.182.324-3.91-1.453-.68-1.662.576-2.774 1.443-3.983 3.668-5.112 4.504-7.197 5.168-12.869-4.884 2.732-9.914 4.25-15.376 2.935-10.337-2.489-16.043-12.537-13.353-23.224 1.812-7.2 6.596-12.162 12.147-16.596 6.978-5.572 15.118-9.805 20.219-18.417 5.968 9.18 15.064 13.802 22.663 20.178 6.277 5.267 10.504 11.668 10.748 20.025.375 12.843-12.429 21.72-24.61 17.393-1.551-.55-2.784-2.596-4.895-1.084zM248.484 165.514c4.788 3.634 9.41 6.91 13.8 10.473 5.745 4.663 9.503 10.487 10.415 18.092 1.525 12.721-10.27 23.12-22.618 19.662-2.056-.576-4.01-1.522-6.652-2.546-.034 4.933 2.466 8.528 4.785 12.177.953 1.498 2.75 2.855 1.514 4.847-1.04 1.675-3.009 1.042-4.603 1.078-3.494.08-6.994.12-10.485-.016-1.872-.073-4.312.882-5.365-1.457-.907-2.011.986-3.316 2.06-4.732 2.659-3.506 4.06-7.488 4.976-12.425-5.237 3.045-10.241 4.562-15.682 3.3-10.458-2.425-16.287-12.848-13.352-23.646 1.887-6.94 6.364-11.932 11.902-16.166 7.109-5.435 14.943-10.03 20.167-18.022 3.22 3.186 5.507 6.714 9.138 9.38zM97.086 119.34c-1.147 0-1.823.073-2.478-.014-1.87-.247-4.324.84-5.339-1.544-.86-2.022 1.068-3.293 2.117-4.731 2.578-3.535 4.16-7.444 4.859-12.401-5.194 3.096-10.22 4.578-15.68 3.29C70.25 101.506 64.48 91.365 67.177 80.7c1.727-6.824 6.078-11.731 11.37-15.988 7.216-5.806 15.565-10.3 21.022-18.889 5.945 9.08 15.101 13.658 22.67 20.094 6.53 5.553 10.993 12.238 10.526 21.089-.709 13.449-13.515 21.001-25.944 15.574-.901-.394-1.774-.854-3.273-1.58-.221 4.961 2.228 8.424 4.373 11.973.92 1.523 2.852 2.814 1.985 4.815-1.033 2.384-3.47 1.384-5.342 1.505-2.323.151-4.664.042-7.478.046zM324.405 420.035c-4.109 5.433-10.404 7.746-14.689 13.536-3.516-4.465-8.022-6.953-11.829-10.319-4.93-4.359-6.39-9.533-4.16-14.178 2.118-4.41 5.89-5.878 12.823-4.937.905-2.799-2.542-4.157-2.203-7.19 3.437-1.648 6.952-1.328 10.453.006.602 2.805-2.629 4.184-1.798 6.722 12.102.178 16.37 6.072 11.403 16.36zM294.228 473.365c-.935-6.716.198-12.715 3.163-18.254 4.349-8.126 14.572-11.46 22.798-7.675 1.699.782 3.561 1.61 2.755 3.988-.736 2.171-2.46 1.667-4.164 1.232-7.999-2.045-13.58 2.418-13.873 9.279 1.884.697 3.478-.532 5.192-.86 6.33-1.21 12.746 2.012 14.772 7.471 2.64 7.115-.21 15.417-6.504 18.565-9.497 4.751-22.52 1.27-24.14-13.746m10.185 3.617c2.22 6.008 5.15 8.02 8.681 5.961 3.227-1.88 4.55-7.59 2.798-11.66-1.853-4.306-5.398-4.664-9.161-3.676-5.349 1.405-2.78 5.386-2.318 9.375zM26.184 75.177c1.104-1.258 1.954-2.27 3.173-3.725 4.066 4.6 9.032 7.339 13.08 11.194 3.899 3.713 5.169 9.104 3.19 13.215-2.621 5.445-7.432 5.982-12.65 5.003-1.077 2.892 2.12 4.221 1.831 7.095-3.416 1.555-6.878 1.57-10.425-.113.094-2.926 2.722-4.543 2.62-7.607-3.358 1.31-6.707 1.62-9.865-.418-5.436-3.508-5.998-11.154-.816-16.49 2.872-2.957 6.384-5.293 9.862-8.154zM40.373 52.243c-5.867 6.433-12.705 8.201-20.577 5.616-1.767-.58-4.215-1.189-3.652-3.918.627-3.04 2.703-1.844 4.69-1.445 7.626 1.53 12.325-1.722 13.502-9.177-1.477-.948-2.884.006-4.25.296-7.165 1.518-12.773-.928-15.39-6.84-2.572-5.808-.576-13.977 4.314-17.655 9.11-6.853 22.194-2.537 25.217 8.462 2.36 8.59 1.298 16.795-3.854 24.661m-16.892-18.3c1.927 4.28 5.526 4.378 9.27 3.418 3.499-.896 3.068-3.931 2.826-6.557-.548-5.955-3.8-9.885-7.589-9.403-4.16.53-6.227 5.722-4.507 12.541z"/></svg>