<svg xmlns="http://www.w3.org/2000/svg" viewBox="0 0 340 500" xml:space="preserve"><path fill="#FDFDFD" d="M1 123V1.018h339.931v499.839H1V123m58.149-5.127c-2.19 4.6-1.347 9.39 1.802 12.587 4.498 4.565 4.066 9.711 4.051 15.121-.04 15.302-.014 30.603-.014 45.734-2.93.91-5.716 1.238-7.86 2.588-2.241 1.412-5.134 3.588-5.519 5.814-1.115 6.446-1.197 13.08-1.473 19.65-.05 1.202.951 2.427 1.358 3.676.377 1.158 1.027 2.438.83 3.533-.836 4.652 1.252 7.755 4.99 9.95 2.458 1.445 5.11 2.556 7.208 3.586-5.001 3.972-10.336 7.459-14.764 11.858-17.46 17.342-20.887 43.586-8.955 65.309 11.696 21.29 35.699 32.44 58.775 26.015 1.46-.407 3.745.06 4.902 1.018 4.336 3.593 8.364 7.56 12.454 11.336-9.378 23.738-3.723 45.033 9.518 64.97-2.372 5.34-4.546 10.676-7.104 15.82-1.394 2.803-4.85 5.322-4.775 7.894.067 2.33 3.777 4.468 5.683 6.848 19.198 23.96 50.272 29.631 76.502 13.945 1.077-.643 2.283-1.26 3.496-1.447 3.437-.528 4.6-2.073 3.93-5.694-.964-5.204-2.124-10.595-1.673-15.773.42-4.812.697-8.512-4.17-9.652.595-5.232 1.759-10.005 1.53-14.71-.375-7.682 1.76-14.036 7.205-19.423 2.816-2.786 2.086-5.252-1.183-7.166-.822-.481-1.648-.956-1.527-.886.733-3.53 1.303-6.485 1.983-9.413.194-.835.492-1.91 1.113-2.34 5.626-3.902 7.772-9.817 9.31-16.018 2.258-9.103 5.285-11.02 14.567-8.793 1.773.426 3.479 1.193 5.267 1.48 1.486.237 3.372.5 4.46-.206.702-.455.606-2.71.314-4.036-2.09-9.492-7.863-16.17-16.931-20.753 4.679-3.992 9.15-7.464 13.207-11.367 3.837-3.69 7.517-5.382 12.454-1.983 1.53 1.054 3.702 1.175 5.878 1.81 0 12.87.148 25.678-.127 38.478-.054 2.5-1.35 5.23-2.779 7.386-2.755 4.154-5.678 8.581-3.507 13.378 5.104 11.273 10.946 22.21 16.95 34.206 5.652-11.05 10.695-21.133 15.953-31.104 2.965-5.622 2.146-11.11-1.794-15.278-3.337-3.53-3.552-7.105-3.533-11.294.076-16.124.031-32.248.031-48.364 2.926-.856 5.705-1.18 7.936-2.461 2.184-1.254 5.293-3.381 5.424-5.3.57-8.404 3.896-16.99-.583-25.313-.33-.613-.117-1.587.013-2.365.811-4.836-1.48-8-5.506-10.16-2.248-1.205-4.6-2.217-7.433-3.567 1.336-.79 2.148-1.276 2.963-1.753 16.827-9.854 26.436-24.483 28.355-43.862 3.214-32.456-25.1-62.608-56.185-58.32-10.69 1.474-17.552-1.026-23.842-8.541-.209-.25-.686-.374-.75-.63-.43-1.687-1.317-3.479-1.062-5.08.96-6.038 3.08-11.981 3.35-18.024.736-16.397-4.853-30.999-14.006-43.704.882-1.936 1.597-3.51 2.317-5.083 1.927-4.21 3.524-8.616 5.86-12.587 3.956-6.725 4.148-6.605-1.117-12.011-.46-.473-.79-1.071-1.205-1.592-18.75-23.504-50.291-29.056-76.208-13.447-1.089.656-2.318 1.266-3.55 1.46-3.664.573-4.35 2.557-3.781 5.983.866 5.222 1.965 10.583 1.585 15.784-.344 4.72-.113 8.16 4.125 9.253-.5 5.702-1.254 10.912-1.338 16.133-.098 6.05-1.425 11.403-5.516 16.09-5.002 5.733-4.74 6.595 1.037 10.103-.746 3.25-1.392 6.228-2.13 9.183-.222.886-.459 2.051-1.101 2.507-6.225 4.41-8.099 11.128-9.71 17.978-1.345 5.716-3.582 7.727-9.273 7.418-2.79-.151-5.526-1.115-8.316-1.477-2.157-.28-4.362-.198-6.545-.276.182 2.082.032 4.261.603 6.23 2.439 8.41 8.08 14.24 16.447 18.488-6.323 5.208-12.044 9.987-17.868 14.637-.754.603-2.201 1.01-3.046.711-3.55-1.256-6.993-2.815-10.592-4.311 0-13.371-.085-26.694.105-40.012.024-1.725 1.174-3.666 2.314-5.099 3.292-4.133 5.891-8.98 3.749-13.817-5.022-11.338-10.98-22.262-16.917-34.066-5.727 11.251-10.99 21.588-16.636 32.61M106.5 488.997h154.411v-5.134H16.015V129.257h-5.011v3.16c0 116.827.021 233.652-.076 350.478-.004 4.973 2.02 6.19 6.578 6.17 29.33-.134 58.663-.068 88.994-.068m206.99-475h12.65v354.782h5.022v-3.589c0-116.625.001-233.25-.005-349.875 0-5.819-.55-6.31-6.779-6.31-79.471-.002-158.943-.002-238.414-.002h-5.06l.36 4.994H313.49M61.445 469.053l3.879 4.67c5.857-4.823 11.617-9.243 16.994-14.088 4.772-4.302 9.934-8.53 13.444-13.78 4.186-6.262 4.215-13.67-.063-20.291-3.982-6.166-10.035-8.719-17.226-7.572-3.244.517-6.302 2.196-11.123 3.964l8.889-18.852H55.885l8.217 17.946-1.47.753c-.688-.44-1.363-.902-2.066-1.316-6.263-3.687-12.703-3.956-18.885-.16-6.24 3.83-8.737 9.772-8.169 17.039.586 7.5 4.602 13.07 10.17 17.632 5.657 4.636 11.5 9.045 17.763 14.055M303.563 75.047c4.5-4.312 5.488-9.719 4.771-15.605-.934-7.668-5.67-12.935-11.345-17.542-7.262-5.894-14.57-11.731-21.092-16.977-5.223 4.303-10.853 9.136-16.696 13.698-6.07 4.74-12.19 9.35-14.73 17.096-4.56 13.91 5.314 26.282 19.587 24.238 3.075-.44 5.96-2.2 10.555-3.98L265.9 94.921h20.267l-8.278-17.967c11.192 4.984 17.804 4.764 25.675-1.908M50.183 10.254l3.308-2.992-.98-1.008H36.715l-.778 1.274 4.941 3.95-15.863 18.447c0-6.052.118-10.697-.046-15.332-.091-2.566.638-3.941 3.313-4.58 1.217-.292 2.126-1.874 3.175-2.87l-.9-.998H9.403c1.856 1.968 2.679 3.65 3.769 3.846 3.322.598 3.716 2.58 3.682 5.39-.108 8.986-.124 17.974.01 26.959.043 2.856-.441 4.789-3.7 5.328-.877.145-1.547 1.543-2.311 2.366.872.5 1.733 1.409 2.619 1.434 4.989.14 9.985.137 14.974.002.91-.025 1.798-.882 2.697-1.355-.745-.841-1.412-1.771-2.253-2.502-1.222-1.063-3.54-1.846-3.7-2.984-.768-5.521-.372-10.874 5.823-14.023 2.427 4.546 4.84 9.076 7.264 13.6 4.317 8.062 5.076 8.49 14.082 7.268.883-.12 1.653-1.068 2.475-1.633-.52-.697-.964-1.472-1.575-2.079-2.027-2.011-4.556-3.67-6.092-5.994-3.827-5.789-7.213-11.87-11.126-18.42 4.39-4.227 8.882-8.553 14.142-13.094m262.883 431.214-2.234 1.9c.588.636 1.151 1.797 1.768 1.826 4.628.22 4.143 3.336 4.513 6.634.579 5.15-2.691 7.727-5.87 11.056-2.648-4.944-5.165-9.61-7.652-14.292-3.913-7.366-6.16-8.525-14.243-7.074-.784.141-1.45.943-2.17 1.438.6.818 1.075 1.784 1.828 2.421 1.334 1.129 3.323 1.75 4.187 3.12 4.313 6.842 8.35 13.857 12.713 21.2-5.992 3.803-8.006 12.038-16.054 13.582-.55.105-.714 2.218-1.1 3.54h16.142l.824-1.077-4.525-4.348c4.924-5.718 9.985-11.595 15.793-18.337 0 6.098-.116 10.756.045 15.404.09 2.608-.758 3.896-3.406 4.521-1.188.28-2.048 1.943-3.912 3.855h21.178l.844-1.046c-1.01-.968-1.897-2.551-3.056-2.785-2.998-.605-3.568-2.29-3.536-4.982.11-9.152.15-18.31-.02-27.46-.056-2.956.61-4.704 3.776-5.262.863-.153 1.501-1.583 2.243-2.426-.901-.47-1.79-1.322-2.704-1.348-4.823-.136-9.651-.064-15.372-.06M33.118 95.891c-.892-3.3 1.117-2.018 2.59-1.657 6.91 1.693 12.36-2.485 11.246-9.412-.522-3.251-2.836-6.597-5.202-9.076-3.245-3.401-7.31-6.02-10.773-8.773-3.5 2.794-7.12 5.635-10.688 8.538-5.225 4.25-7.023 9.8-4.72 14.373 2.27 4.51 6.079 5.622 14.041 3.643l-3.61 8.288h10.306c-1.133-2.041-1.995-3.593-3.19-5.924m282.485 326.16c2.735-2.153 5.675-4.097 8.159-6.51 3.841-3.731 4.718-9.557 2.19-13.179-3.01-4.309-7.076-5.114-11.836-3.156-.321.132-.772-.052-1.697-.14l3.658-7.9h-10.031l3.647 8.905c-5.08-2.35-9.379-2.991-12.041.748-1.79 2.514-2.723 6.419-2.318 9.473.339 2.559 2.866 5.112 4.97 7.088 3.445 3.234 7.332 5.998 10.308 8.38 1.5-1.097 2.976-2.18 4.991-3.708z"/><path fill="#262625" d="M59.34 117.53c5.455-10.68 10.718-21.016 16.445-32.267 5.937 11.804 11.895 22.728 16.917 34.066 2.142 4.836-.457 9.684-3.749 13.817-1.14 1.433-2.29 3.374-2.314 5.099-.19 13.318-.105 26.64-.105 40.012 3.599 1.496 7.042 3.055 10.592 4.311.845.299 2.292-.108 3.046-.711 5.824-4.65 11.545-9.429 17.868-14.637-8.367-4.247-14.008-10.079-16.447-18.487-.571-1.97-.421-4.149-.603-6.231 2.183.078 4.388-.005 6.545.276 2.79.362 5.527 1.326 8.316 1.477 5.691.31 7.928-1.702 9.273-7.418 1.611-6.85 3.485-13.568 9.71-17.978.642-.456.88-1.62 1.1-2.507.74-2.955 1.385-5.933 2.131-9.183-5.778-3.508-6.04-4.37-1.037-10.102 4.09-4.688 5.418-10.04 5.516-16.091.084-5.22.838-10.43 1.338-16.133-4.238-1.093-4.47-4.532-4.125-9.253.38-5.201-.719-10.562-1.585-15.784-.568-3.426.117-5.41 3.78-5.984 1.233-.193 2.462-.803 3.551-1.459 25.917-15.609 57.457-10.057 76.208 13.447.416.52.745 1.12 1.205 1.592 5.265 5.406 5.073 5.286 1.117 12.01-2.336 3.972-3.933 8.377-5.86 12.588-.72 1.573-1.435 3.147-2.317 5.083 9.153 12.705 14.742 27.307 14.006 43.704-.27 6.043-2.39 11.986-3.35 18.025-.255 1.6.632 3.392 1.061 5.08.065.255.542.379.751.629 6.29 7.515 13.152 10.015 23.842 8.54 31.084-4.287 59.4 25.865 56.185 58.321-1.92 19.38-11.528 34.008-28.355 43.862-.815.477-1.627.962-2.963 1.753 2.833 1.35 5.185 2.362 7.433 3.567 4.026 2.16 6.317 5.324 5.506 10.16-.13.778-.342 1.752-.013 2.365 4.48 8.323 1.154 16.909.583 25.313-.13 1.919-3.24 4.046-5.424 5.3-2.23 1.28-5.01 1.605-7.936 2.46 0 16.117.045 32.241-.03 48.365-.02 4.19.195 7.764 3.532 11.294 3.94 4.168 4.759 9.656 1.794 15.278-5.258 9.971-10.301 20.055-15.952 31.104-6.005-11.996-11.847-22.933-16.95-34.206-2.172-4.797.751-9.224 3.506-13.378 1.43-2.155 2.725-4.887 2.779-7.386.275-12.8.127-25.609.127-38.478-2.176-.635-4.348-.756-5.878-1.81-4.937-3.399-8.617-1.707-12.454 1.983-4.057 3.903-8.528 7.375-13.207 11.367 9.068 4.583 14.84 11.261 16.931 20.753.292 1.326.388 3.58-.314 4.036-1.088.706-2.974.443-4.46.205-1.788-.286-3.494-1.053-5.267-1.479-9.282-2.228-12.309-.31-14.567 8.793-1.538 6.201-3.684 12.116-9.31 16.017-.621.43-.919 1.506-1.113 2.34-.68 2.93-1.25 5.884-1.983 9.414-.12-.07.705.405 1.527.886 3.269 1.914 4 4.38 1.183 7.166-5.446 5.387-7.58 11.741-7.206 19.423.23 4.705-.934 9.478-1.528 14.71 4.866 1.14 4.588 4.84 4.17 9.652-.452 5.178.708 10.569 1.672 15.773.67 3.62-.493 5.166-3.93 5.694-1.213.187-2.42.804-3.496 1.447-26.23 15.686-57.304 10.015-76.502-13.945-1.906-2.38-5.616-4.517-5.683-6.848-.075-2.572 3.38-5.091 4.775-7.894 2.558-5.144 4.732-10.48 7.104-15.82-13.241-19.937-18.896-41.232-9.518-64.97-4.09-3.777-8.118-7.743-12.454-11.336-1.157-.958-3.441-1.425-4.902-1.018-23.076 6.426-47.079-4.724-58.775-26.015-11.932-21.723-8.505-47.967 8.955-65.31 4.428-4.398 9.763-7.885 14.764-11.857-2.098-1.03-4.75-2.141-7.208-3.585-3.738-2.196-5.826-5.3-4.99-9.95.197-1.096-.453-2.376-.83-3.534-.407-1.25-1.409-2.474-1.358-3.676.276-6.57.358-13.204 1.473-19.65.385-2.226 3.278-4.402 5.52-5.814 2.143-1.35 4.93-1.679 7.859-2.588 0-15.13-.027-30.432.014-45.734.015-5.41.447-10.556-4.05-15.121-3.15-3.198-3.993-7.986-1.611-12.93m156.825-17.114c.186.285.436.494.991 1.259l5.214 5.21c-1.55-10.607-5.246-19.869-12.05-27.631-.85-.97-2.434-1.296-4.367-2.043-.573.568-1.748 1.41-1.632 1.665 2.78 6.091 5.697 12.12 8.628 18.167 0 0 .003.039-.008.702 1.02.776 2.04 1.551 3.07 2.248 0 0-.08-.015.154.423m-88.134 297.818c-.625-.155-1.25-.31-2.089-1.09-1.953-1.748-3.906-3.495-5.987-5.525l-.338-.08c.095.183.19.364.19 1.358 1.706 9.44 5.864 17.743 11.961 25.056.9 1.08 2.73 1.385 4.946 2.165.438-.375 1.31-.84 1.253-1.111-1.584-7.518-3.554-14.871-9.941-20.031 0 0 .024-.053.005-.742m147-30.996c-.622-.111-1.244-.223-2.047-.846-.33-.427-.662-.854-.888-2.23-.034-21.818-.068-43.636-.098-65.454-.001-.666-.214-1.512.109-1.96.694-.962 1.637-2.322 2.547-2.376.785-.047 1.913 1.36 2.428 2.362.47.915.321 2.148.486 3.603 1.601-.396 2.978-.483 4.083-1.076 1.365-.732 2.504-1.885 3.741-2.856-1.277-1.13-2.412-2.956-3.86-3.253-3.85-.79-7.837-.919-12.284-1.698l-4.064-2.584c1.984-1.246 3.3-2.072 5.467-2.712l15.993 2.28c-1.092-2.252-2.87-4.497-5.086-5.08-3.77-.994-7.816-.942-12.369-1.592l-3.932-3.028c2.034-1.112 3.295-1.8 5.476-2.232l16.774 2.288c-4.931-5.964-11.3-6.142-18.35-6.658l-3.088-2.96c1.265-.778 2.531-1.555 4.66-2.186l14.349 1.973c-4.161-5.797-9.785-6.623-16.104-8.028h-7.961c0 11.66.829 22.689-.272 33.522-.826 8.13 2.458 15.523.9 24.105-2.36 12.997-.616 26.74-.616 40.302 1.081 0 1.815-.207 2.33.04 1.295.623 2.491 1.45 3.727 2.196-.918.975-1.714 2.126-2.79 2.872-.916.635-2.212.69-3.241 1.2-5.082 2.521-7.9 8.412-5.808 12.67 3.358 6.834 6.97 13.544 10.622 20.962.169.262.286.613.526.75.145.084.616-.095.71-.276a4170.7 4170.7 0 0 0 10.651-20.67c2.213-4.324 1.097-7.842-2.756-10.621 0 0 .065-.067.034-.749m-135.215 23.45c-.108-.23-.282-.386-.85-1.142-5.815-3.49-11.63-6.98-17.443-10.471l-1.058 1.208c1.458 2.317 2.717 4.795 4.427 6.907 1.87 2.307 4.164 4.267 6.258 6.394 7.091 7.198 10.666 16.163 12.527 26.277 1.884-.402 3.3-.705 5.48-.891.557-.904 1.692-1.892 1.574-2.697-.572-3.922-.844-8.078-2.422-11.616-2.15-4.82-5.388-9.155-8.207-13.728 0 0-.048.03-.286-.241M66.98 129.773c.415.084.829.167 1.643.59.48.5.961.999 1.327 2.453.051 10.627.123 21.255.147 31.882.026 11.295.098 22.592-.104 33.883-.027 1.51-1.545 2.993-2.372 4.489-.863-1.486-1.748-2.96-2.572-4.467-.226-.413-.268-.928-.46-1.635-1.48.383-3.045.484-4.265 1.186-1.289.741-2.248 2.055-3.35 3.119 1.158 1.03 2.185 2.704 3.5 2.973 4.015.824 8.14 1.108 12.966 1.837 4.778 2.568 2.544 4.015-1.663 5.106l-17.367-2.225c4.984 6.873 11.69 6.476 18.967 6.904l2.596 2.67c-1.12.873-2.239 1.744-4.165 2.48l-16.753-2.234c5.056 5.862 11.241 6.312 18.372 6.48l2.551 2.771c-1.083.925-2.167 1.85-4.074 2.517l-14.937-2.26c4.456 6.118 10.298 6.95 16.702 8.38h7.465c0-15.161.38-29.458-.22-43.713-.192-4.586-.694-8.846-.244-13.64 1.265-13.46.441-27.114.441-39.507l-5.922-3.074c1.443-1.248 2.854-2.537 4.347-3.723.497-.396 1.226-.484 1.81-.787 5.83-3.02 7.763-8.707 4.837-14.497-3.065-6.068-6.227-12.086-9.593-18.557-.597-.1-1.64-.432-1.726-.265-3.663 7.029-7.447 14.008-10.74 21.211-1.552 3.396-.545 6.717 2.876 8.88 0 0-.068.065-.02.773M230.37 306.958c-7.895 6.193-15.728 12.45-23.06 20.977 3.487 0 5.617 0 8.388.214 1.238-.08 2.887.326 3.648-.318 6.742-5.703 13.326-11.592 20.007-17.47-1.264-1.418-2.512-2.545-3.425-3.899-1.875-2.778-3.373-1.82-5.558.496M126.446 169.091c-1.222.244-2.774.092-3.612.794-6.645 5.57-13.155 11.303-19.815 17.08l5.455 6.255c.913-.786 1.748-1.504 3.197-2.483l22.743-19.47-.79-1.248c-2.12-.26-4.24-.522-7.178-.928m66.826-91.218c-.543.246-1.571.516-1.56.736.47 10.024 2.068 19.683 9.99 27.715L220.69 119.5l1.543-1.522c-1.8-2.84-3.093-6.233-5.488-8.421-9.378-8.566-16.087-18.54-18.006-31.464-1.809 0-3.267 0-5.467-.221M160.54 420.47c.657-.317 1.834-.552 1.897-.96 1.867-12.021 2.851-24.013-3.023-35.341-.54-1.04-2.174-1.513-3.364-2.958-2.359-3.635-5.08-6.386-9.655-7.678-8.187-2.313-16.127-5.502-24.567-8.463-1.922 3.43.33 6.753 3.533 9.264 2.968 2.328 6.445 4.072 9.848 5.77 8.473 4.228 14.345 10.769 17.138 19.736a90.64 90.64 0 0 1 3.493 16.46c.358 3.103 1.282 4.14 4.7 4.17m20.74-343.494c-.51.666-1.466 1.334-1.464 1.998.036 9.205-.199 18.442.555 27.596.266 3.22 3.032 6.232 5.2 9.73 4.462 5.096 9.783 8.766 16.396 10.658 6.191 1.77 12.262 3.962 18.683 6.066 1.265-3.18-.03-6.563-2.763-9.146-2.131-2.014-4.823-3.644-7.542-4.789-13.622-5.733-20.232-16.639-22.983-30.485-.518-2.606-1.04-5.249-1.147-7.891-.116-2.873-1.421-3.879-4.935-3.737m-32.687-34.896-3.5-1.076c0 5.325-.032 10.547.032 15.768.011.903.193 2.397.707 2.606 4.01 1.635 8.12 3.022 12.831 4.855 16.294 8.3 33.58 9.63 51.372 7.235 1.04-.14 2.553-.605 2.913-1.362 2.443-5.14 4.636-10.4 7.067-15.98-24.687.756-48.026-3.898-71.422-12.046m-25.06 286.775-14.888 11.892 11.614 10.524c15.045-17.095 32.087-31.297 51.267-42.925 19.066-11.56 39.53-19.837 61.464-25.512-1.865-2.321-3.553-3.99-4.728-5.965-3.177-5.34-7.293-5.569-12.947-3.972-29.514 8.337-56.318 21.856-79.823 41.524-4.509 3.773-7.38 9.502-11.016 14.387 0 0-.101.08-.943.047m38.552-164.506c-5.022 1.604-10.044 3.208-15.83 4.591-1.807.868-3.939 1.379-5.36 2.67-4.176 3.793-7.91 8.072-12.11 11.833-5.638 5.048-11.55 9.788-17.279 14.605 1.067 2.344 2.177 4.23 2.795 6.266 1.009 3.325 2.839 3.142 5.928 1.628 31.295-9.697 58.982-25.687 82.864-48.082 3.658-3.43 6.634-7.85 9.04-12.292 4.187-7.734 2.987-9.844-6.176-12.498-1.62.495-3.525.618-4.789 1.58-1.525 1.164-2.463 3.077-3.732 4.6-9.41 11.3-21.718 18.522-35.351 25.1m33.21 164.691c1.763-.73 3.904-1.047 5.23-2.257 10.018-9.145 19.876-18.465 30.088-28.014l-4.142-8.677c-1.413.535-2.635.998-4.615 1.56-31.509 9.666-59.24 25.888-83.173 48.479-3.525 3.326-6.362 7.657-8.62 11.99-4.02 7.718-2.647 9.997 6.537 12.316 1.594-.582 3.841-.682 4.682-1.82 8.382-11.353 19.274-19.514 31.738-25.804 1.42-.717 2.672-1.768 4.684-2.929 5.583-1.634 11.165-3.268 17.591-4.844m9.059-133.366.973-4.305c-3.613 2.586-6.283 4.888-9.293 6.586-13.809 7.785-27.713 15.402-42.049 23.494-.912.69-1.824 1.382-3.547 2.685 4.242.805 7.4 1.403 10.86 2.67 5.25 2.006 10.59 3.806 15.72 6.077 4.902 2.169 5.22 3.87 2.255 8.38-3.99 6.072-8.024 12.117-12.721 19.202 7.745 2.237 14.843 4.287 22.76 6.532 9.14.005 18.326.578 27.407-.156 7.851-.635 15.277-3.566 22.791-7.858-1.444-.781-2.115-1.219-2.84-1.525-12.326-5.202-21.157-14.053-27.306-25.82-5.863-11.22-6.528-23.158-5.01-35.962m-38.64 38.598c-2.903-1.065-5.74-2.776-8.72-3.077-9.963-1.006-19.96-3.652-29.993-1.048-8.068 2.094-16.003 4.704-23.997 7.085l.17 1.606c10.555 4.11 19.18 10.677 25.603 19.93 9.07 13.063 11.966 27.5 9 43.766l-.59 2.499c11.387-6.888 22.849-13.914 34.411-20.77 4.355-2.582 8.942-4.772 14.1-7.4l5.723-2.793c-8.019-2.464-15.718-4.83-23.594-7.859-.547-.367-1.067-.787-1.647-1.093-6.176-3.26-6.403-4.075-2.655-9.724 3.833-5.775 7.664-11.552 12.025-18.126-3.59-.886-6.527-1.612-9.836-2.996m104.009 18.716c1.885-.453 3.93-.58 5.633-1.408 34.14-16.6 37.574-64.515 6.028-85.73-3.953-2.659-8.906-3.83-14.153-5.824-4.386-.725-8.78-2.118-13.156-2.063-22.16.281-42.863 20.347-45.06 43.267-2.399 25.043 14.147 49.01 37.312 53.68 7.625 1.537 15.415 2.74 23.396-1.922M70.26 244.96c-.933.233-1.955.292-2.785.724-18.642 9.686-28.785 25.154-28.26 46.057.511 20.414 10.941 35.368 29.523 44.278 1.256.603 2.821.562 4.954 1.162 7.754 3.677 15.744 3.174 23.71 1.051 18.713-4.987 33.639-22.17 35.596-40.754 2.32-22.018-8.24-42.258-26.833-51.392-11.57-5.683-23.288-6.138-35.905-1.126M183.7 371.477c1.735-2.373 3.835-2.719 6.506-1.511 3.014 1.363 6.393 2.05 9.185 3.738 3.264 1.972 5.77.928 7.163-1.65 2.249-4.162 4.16-8.627 5.4-13.186 1.949-7.167 5.915-10.919 13.315-10.987 3.171-.029 6.348.51 9.796.815-3.455-8.373-9.389-13.505-17.876-14.599-6.169-.794-12.686-1.035-18.77.046-21.77 3.868-39.64 14.56-53.63 32.643 17.097 5.123 23.313 17.653 24.073 33.767.327 6.928.055 13.883.055 21.042l23.485 8.017c1.872-3.373 1.04-4.877-2.766-5.954-4.723-1.338-9.295-3.41-13.655-5.693-1.129-.59-1.225-3.153-1.796-4.81 1.595.182 3.31.05 4.763.603 5.104 1.944 10.119 4.124 16.276 6.674-1.442-10.407.635-18.203 7.5-25.136-12.217-3.437-20.933-9.16-19.024-23.819M157.26 113.51c.528 3.423 1.346 6.831 1.507 10.27.173 3.73-2.143 5.107-5.568 4.013-3.47-1.109-7.031-2.22-10.17-4.002-3.485-1.977-6.112-.888-7.586 1.926-2.204 4.206-3.943 8.738-5.244 13.313-1.821 6.401-4.61 9.56-11.154 10.332-3.665.432-7.423.078-11.382.078 3.76 9.032 10.87 13.482 20.273 14.547 14.963 1.695 28.612-2.709 41.635-9.551 10.864-5.708 20.257-13.163 27.74-23.75-17.86-5.765-23.735-19.084-23.786-35.984-.019-6.252.521-12.506.8-18.606l-24.25-8.195c-2.218 3.244-1.086 4.724 2.428 5.925 4.973 1.7 9.83 3.808 14.543 6.133.884.435.861 2.707 1.257 4.131-1.466.037-3.12.535-4.365.029-5.148-2.095-10.172-4.493-16.125-7.178.448 10.014-.98 18.218-6.922 23.846 5.43 4.044 10.771 8.02 16.369 12.723m-8.887 87.45-38.387 14.378c1.642 2.007 3.779 4.284 5.52 6.832 2.416 3.533 5.15 4.047 9.31 2.931 24.286-6.515 46.87-16.66 67.492-31.03 6.261-4.363 13.424-8.327 17.852-14.219 6.74-8.969 13.761-17.15 24.054-22.626L222.15 146.15c-20.675 23.303-44.982 41.478-73.778 54.81m49.155 250.754c-.154-3.482-.1-6.992-.562-10.433-.2-1.487-1.114-3.536-2.305-4.133-19.616-9.846-40.173-14.774-62.214-11.118-1.165.193-2.817.737-3.234 1.604-2.41 5.004-4.517 10.154-6.83 15.495 26.087-.417 51.047 4.455 75.601 13.748-.12-1.74-.208-3.034-.456-5.163m-98.65-261.126c-1.757-1.245-3.361-2.88-5.308-3.64-2.62-1.022-5.504-1.368-8.275-2.005 1.335 2.403 2.22 5.26 4.093 7.12 4.775 4.746 7.602 10.098 6.658 16.882-.186 1.337-1.871 2.465-2.865 3.69-.726-1.289-1.747-2.498-2.12-3.881-.973-3.612-1.662-7.3-2.465-10.958l-1.774.338v38.037c2.915 0 6.138.821 8.655-.164 5.97-2.336 11.607-5.528 17.488-8.43-2.896-3.596-5.883-7.143-8.683-10.831-2.445-3.22-1.524-5.788 2.28-6.989 1.199-.378 2.381-.807 4.816-1.638-4.233-6.049-8.09-11.56-12.5-17.53m136.523 86.623c5.623 6.102 6.276 9.552-2.5 11.403-.248.052-.414.487-.616.745 5.774 15.016 16.903 25.124 25.972 22.418-1.794-2.206-3.169-4.34-4.966-6.023-5.022-4.704-7.925-10.274-7.143-17.23.146-1.302 1.952-2.417 2.993-3.62.698 1.255 1.96 2.497 1.99 3.767.1 4.235.873 8.039 4.594 11.55V261.59c-10.723-3.07-17.33 6.243-26.946 7.643 2.376 2.848 4.277 5.125 6.622 7.98m-56.912 178.765c-17.009-4.857-34.27-7.647-52.704-7.258 17.594 23.402 51.82 24.109 66.459 11.664a1600.56 1600.56 0 0 0-13.755-4.406m26.995-418.01c-17.322-12.266-41.15-11.1-53.694-1.095 21.044 7.786 42.193 12.757 64.982 10.932-3.564-3.145-7.127-6.29-11.288-9.838M153.49 120.44c-.308-4.45-1.83-8.283-6.58-9.304-1.502-.323-3.588.9-5.013 1.949-.58.427-.513 3.131-.058 3.345 3.776 1.772 7.712 3.204 11.651 4.01m47.55 262.884c-1.368-6.518-7.521-5.541-11.925-8.198-.516 5.17.87 8.686 5.032 10.87 2.84 1.49 5.041.753 6.892-2.672z"/><path fill="#1F1F1F" d="M106 488.997c-29.831 0-59.163-.066-88.494.068-4.557.02-6.582-1.197-6.578-6.17.097-116.826.075-233.651.076-350.477v-3.161h5.01v354.606h244.897v5.134H106zM312.99 13.997H81.265l-.36-4.994h5.06c79.471 0 158.943 0 238.414.002 6.228 0 6.778.491 6.779 6.31.006 116.625.005 233.25.005 349.875v3.589h-5.022V13.997h-13.15z"/><path fill="currentColor" d="M61.194 468.802c-6.012-4.759-11.855-9.168-17.512-13.804-5.568-4.563-9.584-10.132-10.17-17.632-.568-7.267 1.93-13.209 8.169-17.04 6.182-3.795 12.622-3.526 18.885.161.703.414 1.378.876 2.066 1.316l1.47-.753-8.217-17.946H76.24l-8.89 18.852c4.822-1.768 7.88-3.447 11.124-3.964 7.19-1.147 13.244 1.406 17.226 7.572 4.278 6.621 4.249 14.03.063 20.29-3.51 5.25-8.672 9.48-13.444 13.78-5.377 4.846-11.137 9.266-16.994 14.089-.8-.963-2.34-2.816-4.13-4.92zM303.303 75.309c-7.61 6.41-14.223 6.63-25.415 1.646l8.278 17.967h-20.267l8.714-18.948c-4.594 1.78-7.48 3.54-10.555 3.981C249.785 82 239.91 69.626 244.472 55.717c2.54-7.747 8.659-12.357 14.729-17.096 5.843-4.562 11.473-9.395 16.696-13.698 6.522 5.246 13.83 11.083 21.092 16.977 5.676 4.607 10.411 9.874 11.345 17.542.717 5.886-.271 11.293-5.031 15.867zM49.8 10.362c-4.877 4.433-9.368 8.759-13.759 12.986 3.913 6.55 7.299 12.631 11.126 18.42 1.536 2.324 4.065 3.983 6.092 5.994.611.607 1.055 1.382 1.575 2.08-.822.564-1.592 1.513-2.475 1.632-9.006 1.222-9.765.794-14.082-7.268-2.423-4.524-4.837-9.054-7.264-13.6-6.195 3.15-6.59 8.502-5.822 14.023.158 1.138 2.477 1.921 3.699 2.984.84.73 1.508 1.66 2.253 2.502-.899.473-1.787 1.33-2.697 1.355-4.989.135-9.985.137-14.974-.002-.886-.025-1.747-.934-2.62-1.434.765-.823 1.435-2.22 2.312-2.366 3.259-.54 3.743-2.472 3.7-5.328-.134-8.985-.118-17.973-.01-26.959.034-2.81-.36-4.792-3.682-5.39-1.09-.197-1.913-1.878-3.769-3.846h21.154l.9.998c-1.049.996-1.958 2.578-3.175 2.87-2.675.639-3.404 2.014-3.313 4.58.164 4.635.046 9.28.046 15.332l15.863-18.446-4.94-3.95.777-1.275H52.51l.98 1.008c-1.102.998-2.205 1.995-3.692 3.1zM313.513 441.466c5.274-.002 10.102-.074 14.925.062.913.026 1.803.877 2.704 1.348-.742.843-1.38 2.273-2.243 2.426-3.166.558-3.832 2.306-3.777 5.262.172 9.15.13 18.308.021 27.46-.032 2.692.538 4.377 3.536 4.982 1.159.234 2.045 1.817 3.056 2.785l-.844 1.046h-21.178c1.864-1.912 2.724-3.574 3.912-3.855 2.648-.625 3.495-1.913 3.406-4.52-.16-4.649-.045-9.307-.045-15.405-5.808 6.742-10.87 12.62-15.793 18.337l4.525 4.348-.824 1.078h-16.142c.386-1.323.55-3.436 1.1-3.541 8.048-1.544 10.062-9.779 16.054-13.582-4.364-7.343-8.4-14.358-12.713-21.2-.864-1.37-2.853-1.991-4.187-3.12-.753-.637-1.228-1.603-1.828-2.421.72-.495 1.386-1.297 2.17-1.438 8.084-1.451 10.33-.292 14.243 7.074 2.487 4.682 5.004 9.348 7.653 14.292 3.178-3.329 6.448-5.906 5.87-11.056-.371-3.298.114-6.414-4.514-6.634-.617-.03-1.18-1.19-1.768-1.826.745-.633 1.49-1.266 2.68-1.902zM33.284 96.28a297.993 297.993 0 0 0 3.024 5.535H26.001l3.611-8.288c-7.962 1.98-11.772.867-14.042-3.643-2.302-4.574-.504-10.122 4.72-14.373 3.57-2.903 7.188-5.744 10.69-8.538 3.462 2.754 7.527 5.372 10.772 8.773 2.366 2.479 4.68 5.825 5.202 9.076 1.113 6.927-4.336 11.105-11.246 9.412-1.473-.36-3.482-1.642-2.424 2.047zM315.334 422.275c-1.746 1.306-3.222 2.388-4.722 3.486-2.976-2.383-6.863-5.147-10.308-8.381-2.104-1.976-4.631-4.53-4.97-7.088-.405-3.054.528-6.96 2.318-9.473 2.662-3.74 6.962-3.097 12.04-.748l-3.646-8.906h10.031l-3.658 7.901c.925.088 1.376.272 1.697.14 4.76-1.958 8.826-1.153 11.835 3.156 2.53 3.622 1.652 9.448-2.19 13.18-2.483 2.412-5.423 4.356-8.427 6.733z"/><path fill="#F6C91C" d="M71.014 245.15c11.864-5.202 23.583-4.747 35.152.936 18.592 9.134 29.153 29.374 26.833 51.392-1.957 18.583-16.883 35.767-35.597 40.754-7.965 2.123-15.955 2.626-24.205-1.525-.91-.748-1.308-1.056-1.744-1.291-31.787-17.146-37.234-57.533-10.984-82.151 3.22-3.02 7.016-5.425 10.545-8.115m53.556 38.405-4.832.39v13.675c1.783-.216 3.534-.428 6.008-.508 1.724.423 3.85 1.372 4.008-1.587.205-3.829.05-7.676.05-11.909-2.244.23-3.517.361-5.234-.06m-12.82 37.69c.977.046 2.349.529 2.866.063 3.076-2.768 5.955-5.756 8.9-8.67l-.623-1.57c-1.552 0-3.105 0-5.323-.162l-2.013-1.2c-3.463 3.432-6.62 6.56-10.126 10.037.34.516 1.211 1.832 2.156 3.26 1.39-.851 2.507-1.535 4.163-1.757m7.024-50.758 4.363-.743 1.326-2.587c-3.043-2.312-5.98-4.79-9.192-6.837-.98-.624-2.714-.064-4.725-.328l-3.107-1.89-2.542 4.273 1.435-.906 9.05 10.094c.594-.321 1.748-.947 3.392-1.076m-59.17 40.283c-3.07-3.555-3.789.501-7.118 1.938 3.92 3.37 7.179 5.953 10.17 8.816 2.026 1.939 3.107.72 5.004-.396l3.682-.394c-.2-1.116-.037-2.536-.669-3.292-1.803-2.158-3.746-4.302-6.01-5.927-1.05-.754-2.971-.294-5.058-.745m6.825-50.853c-1.15-.154-2.792-.872-3.369-.369-3.3 2.883-6.348 6.055-9.754 9.396 2.804 1.77 4.542 4.375 7.5 1.268 1.224-.096 2.86.276 3.6-.373 2.678-2.346 5.055-5.036 7.61-7.662-.709-3.015-2.218-4.103-5.587-2.26m-14.189 23.854-4.2-.649v15.119c2.155-.485 3.58-.806 5.666-.683l4.07-.728v-12.84c-1.632 0-3.163 0-5.536-.219m42.7-15.706c-.788-.215-1.58-.418-2.365-.648-16.492-4.816-32.973 9.938-29.947 26.811 2.838 15.822 17.02 23.771 34.038 18.773 11.98-1.063 21.043-15.252 17.798-27.867-2.514-9.774-10.701-17.203-19.523-17.07m-12.184 55.895c-4.406-.511-3.782 2.13-3.316 4.891 5.38.582 10.54 1.735 15.474-2.205-1.665-1.335-3.446-2.277-5.333-2.605-1.915-.333-3.935-.061-6.825-.081m4.592-66.947c2.964-.036 6.593 1.334 7.464-4.323H78.838l1.056 4.322 7.456.001zM268.898 252.901c-7.156 4.751-14.946 3.548-22.571 2.011-23.165-4.67-39.71-28.637-37.311-53.68 2.196-22.92 22.9-42.986 45.06-43.267 4.375-.055 8.77 1.338 13.684 2.433 20.482 10.207 31.14 26.105 30.438 48.49-.641 20.441-11.518 34.674-29.3 44.013m12.675-25.82c-5.85-1.192-6.375 5.37-10.225 7.206-.58.277-.081 2.816-.081 5.344 2.137-1.491 3.054-2.13 4.514-2.368 1.148.304 2.739 1.246 3.37.807 3.638-2.531 7.048-5.388 10.565-8.158-3.369-3.539-5.08-5.467-8.143-2.83m-57.964-.177-4.519.59-1.587 2.699c3.21 2.372 6.328 4.889 9.69 7.018.898.568 2.545-.05 4.497.114l3.125 2.07 2.06-3.46-9.906-10.01c-.534.272-1.68.853-3.36.979m7.018-50.814c-.82-.112-1.97-.628-2.405-.272-3.396 2.785-6.654 5.737-9.954 8.637l1.03 2.12c1.615-.095 3.23-.19 5.513.054 1.392.114 3.29.863 4.086.229 3.078-2.454 5.805-5.35 8.766-8.178l-2.966-4.087c-1.348.771-2.476 1.417-4.07 1.497m52.018 10.397c2.819 3.664 3.802-.065 6.671-2.471-2.695-2.96-6.003-5.147-9.012-7.687-2.177-1.838-3.66-1.568-5.551.129-3.144-2.895-3.549.177-4.28 1.45 2.564 2.892 5.11 5.449 7.27 8.298 1.701 2.244 2.904 1.177 4.902.281m5.675 13.445c-2.859-.157-4.243.627-3.638 4.01.51 2.849.105 5.862.105 9.433 1.258.086 2.795.19 5.174.445 1.574-.596 4.428-1.054 4.51-1.811.446-4.144.212-8.362.212-12.75-2.656.434-4.13.674-6.363.673m-70.381 13.852h4.78v-13.934c-1.83.167-3.605.328-6.241.285-2.426-.66-3.91.137-3.962 2.765-.07 3.56-.017 7.122-.017 11.197 2.247-.396 3.497-.617 5.44-.313m29.877 16.386c3.41.237 6.848.878 10.224.638 12.088-.861 21.625-10.995 21.967-22.985.53-18.628-17.318-29.87-36.739-22.853-9.642 2.347-16.944 12.945-16.141 23.426.858 11.208 9.65 20.706 20.69 21.774m3.477 15.407h12.22l-1.126-6.197c-5.144 2.708-10.949-1.873-15.413 3.636 1.194.811 2.355 1.6 4.319 2.56m10.127-71.78 2.688-5.623c-5.178 0-8.978-.21-12.735.103-1.501.126-2.906 1.404-4.355 2.158 1.727 1.067 3.34 2.691 5.207 3.07 2.695.545 5.573.188 9.195.292z"/><path fill="#FCFCFC" d="M183.617 371.866c-1.826 14.27 6.89 19.993 19.107 23.43-6.865 6.933-8.942 14.729-7.5 25.136-6.157-2.55-11.172-4.73-16.276-6.674-1.453-.554-3.168-.42-4.763-.603.57 1.657.667 4.22 1.796 4.81 4.36 2.283 8.932 4.355 13.655 5.693 3.805 1.077 4.638 2.58 2.766 5.954l-23.485-8.017c0-7.159.272-14.114-.055-21.042-.76-16.114-6.976-28.644-24.072-33.767 13.99-18.083 31.859-28.775 53.63-32.643 6.083-1.081 12.6-.84 18.769-.046 8.487 1.094 14.421 6.226 17.876 14.599-3.448-.305-6.625-.844-9.796-.815-7.4.068-11.366 3.82-13.315 10.987-1.24 4.559-3.151 9.024-5.4 13.186-1.394 2.578-3.899 3.622-7.163 1.65-2.792-1.688-6.171-2.375-9.185-3.738-2.67-1.208-4.77-.862-6.589 1.9m1.512 37.874c1.623 2.07 3.738 2.9 4.775.001.683-1.909-.116-4.422-.57-6.598-.087-.412-2.409-.82-2.456-.708-.752 1.792-1.315 3.665-1.883 5.53-.09.299.001.652.134 1.775z"/><path fill="#FBFBFB" d="M157.131 113.146c-5.469-4.34-10.81-8.316-16.24-12.36 5.942-5.628 7.37-13.832 6.922-23.846 5.953 2.685 10.977 5.083 16.125 7.178 1.245.506 2.899.008 4.365-.029-.396-1.424-.373-3.696-1.257-4.131-4.713-2.325-9.57-4.432-14.543-6.133-3.514-1.201-4.646-2.68-2.427-5.925l24.248 8.195c-.278 6.1-.818 12.354-.799 18.606.05 16.9 5.926 30.22 23.785 35.984-7.482 10.587-16.875 18.042-27.739 23.75-13.023 6.842-26.672 11.246-41.635 9.551-9.403-1.065-16.513-5.515-20.273-14.547 3.959 0 7.717.354 11.382-.078 6.543-.772 9.333-3.93 11.154-10.332 1.301-4.575 3.04-9.107 5.244-13.313 1.474-2.814 4.1-3.903 7.585-1.926 3.14 1.782 6.7 2.893 10.17 4.002 3.426 1.094 5.742-.284 5.569-4.012-.16-3.44-.979-6.848-1.636-10.634m-4.7-19.391c3.17 2.813 4.981 1.414 4.92-2.127-.033-1.936 1.16-5.763-2.854-5.374-.963.093-1.65 3.391-2.38 5.249-.163.415.031.97.313 2.252z"/><path fill="#244CC2" d="m168.004 266.875 23.417 7.197c-1.685.823-3.704 1.808-6.448 2.836-2.285.53-3.988.767-5.386 1.549-13.876 7.758-27.702 15.607-41.542 23.43 2.698-15.616-.199-30.054-9.268-43.117-6.423-9.253-15.048-15.82-25.603-19.93l-.17-1.606c7.994-2.38 15.929-4.99 23.997-7.085 10.033-2.604 20.03.042 29.994 1.048 2.98.3 5.816 2.012 8.958 3.761 1.545 1.3 2.852 1.914 4.639 2.755-4.323 6.492-8.645 12.552-12.412 18.939-.97 1.643-1.053 5.606-.054 6.272 2.886 1.926 6.53 2.715 9.878 3.951z"/><path fill="#C83314" d="m160.997 226.138-10.559-2.002c1.723-1.303 2.635-1.994 4.228-2.88 2.746-.651 5.049-.665 6.838-1.631 14.247-7.697 28.398-15.574 42.578-23.396-1.246 12.25-.58 24.19 5.282 35.408 6.149 11.768 14.98 20.619 27.306 25.82.725.307 1.396.745 2.84 1.526-7.514 4.292-14.94 7.223-22.791 7.858-9.08.734-18.267.161-27.828-.268-5.478-2.594-10.534-4.764-16.017-7.117 4.386-6.586 8.77-12.793 12.661-19.295.905-1.51.892-5.37.01-5.868-7.601-4.298-15.397-8.39-24.548-8.155z"/><path fill="#F8CA1A" d="M136.037 364.005c-8.621-1.885-9.994-4.164-5.973-11.881 2.257-4.334 5.094-8.665 8.619-11.991 23.933-22.59 51.664-38.813 83.702-48.155 1.596 2.717 2.663 5.109 3.854 7.78-1.656 1.305-3.295 2.417-4.724 3.754-9.047 8.463-18.048 16.976-27.064 25.472-5.582 1.634-11.164 3.268-17.469 4.95-17.43 5.634-30.751 15.758-40.945 30.07zM206.535 133.387c8.585 2.338 9.785 4.448 5.598 12.182-2.406 4.442-5.382 8.862-9.04 12.292-23.882 22.395-51.569 38.385-83.32 47.713-1.535-2.773-2.615-5.178-3.801-7.82 1.91-1.476 3.858-2.742 5.522-4.31 8.548-8.051 17.024-16.18 25.525-24.282 5.022-1.604 10.044-3.208 15.774-4.976 2.154-.402 3.712-.372 5.027-.921 15.566-6.495 28.954-15.847 38.715-29.878z"/><path fill="#F7F7F7" d="M124.484 328.75c3.627-4.826 6.5-10.555 11.008-14.328 23.505-19.668 50.309-33.187 79.823-41.524 5.654-1.597 9.77-1.369 12.947 3.972 1.175 1.974 2.863 3.644 4.728 5.965-21.935 5.675-42.398 13.953-61.464 25.512-19.18 11.628-36.222 25.83-51.267 42.925l-11.614-10.524c5.073-4.052 9.98-7.972 15.517-11.443 1.193 2.168 1.758 3.887 2.449 5.99 1.479-1.108 2.168-1.554 2.772-2.096.59-.53 1.093-1.159 2.91-3.123l-7.81-1.325m53.503-35.253-5.297 1.732 2.866 4.875 4.425-2.683c-.635-1.251-1.152-2.271-1.994-3.924m-37.727 30.093c4.057-2.972.145-3.944-1.23-6.078l-4.546 4.345c2.234.938 3.72 1.561 5.776 1.733m65.695-41.863-5.431.631 1.935 4.992c3.234-.468 6.018-.882 3.496-5.623m-13.508 10.094-.55-5.52-5.308 2.332c1.306 2.14.82 6.007 5.858 3.188m-30.264 9.573c-4.073 2.45-.695 3.92.495 5.997l5.01-3.066c-1.927-1.314-3.382-2.306-5.505-2.93m-14.038 11.768 2.296 2.623 4.09-3.251-3.72-4.447c-1.228 1.75-2.133 3.038-2.666 5.075m67.441-33.891 1.01 3.564 4.637-1.309c-.167-5.195-2.116-6.018-5.647-2.255zM148.715 200.802c28.454-13.174 52.76-31.349 73.436-54.652l12.063 11.075c-10.293 5.477-17.313 13.657-24.054 22.626-4.428 5.892-11.59 9.856-17.852 14.219-20.623 14.37-43.206 24.515-67.493 31.03-4.159 1.116-6.893.602-9.309-2.931-1.741-2.548-3.878-4.825-5.52-6.832 13.03-4.88 25.708-9.629 38.73-14.535m42.682-12.226 3.981-2.81-3.45-4.102-4.115 3.133c1.137 1.452 2.024 2.585 3.584 3.78m-50.172 24.94-1.534-3.842-4.81 2.056 1.923 4.817c1.658-.82 3.056-1.513 4.42-3.03m59.359-38.473 2.235 5.264 4.347-3.877c-1.768-2.136-2.875-5.38-6.582-1.387M122 220.355l5.413-.542c-.75-2.129-1.27-3.612-1.749-4.97-3.489.193-5.88.881-3.664 5.512m33.288-12.497-1.844-3.928-4.752 2.548 2.545 4.59c1.661-.945 2.92-1.662 4.05-3.21m8.963-9.074-.72 6.563 7.185-4.236c-2.717-1.292-4.262-2.026-6.465-2.327m14.592-8.238c-4.419 1.778-3.082 3.996-.363 6.527l4.137-2.925c-1.187-1.505-2.162-2.741-3.774-3.602m36.425-27.5-4.268 2.994 3.686 3.855 3.773-3.429c-.917-1.074-1.733-2.03-3.191-3.42m9.024-4.92 5.407-2.264-4.559-4.15c-1.12 2.105-5.057 3.055-.848 6.414z"/><path fill="#F6C819" d="M197.607 452.131c.169 1.712.258 3.006.377 4.746-24.554-9.293-49.514-14.165-75.6-13.748 2.312-5.341 4.419-10.491 6.829-15.495.417-.867 2.07-1.41 3.234-1.604 22.041-3.656 42.598 1.272 62.214 11.118 1.19.597 2.105 2.646 2.305 4.133.462 3.44.408 6.95.641 10.85z"/><path fill="#F7CB20" d="m269.802 285.971-4.617 2.899c1.767 1.123 2.915 1.853 4.357 3.256.302 22.703.254 44.734.413 66.764.015 2.078 1.327 4.147 2.037 6.22.331.428.662.855 1.116 1.899.733.715 1.343.813 1.954.91 0 0-.065.068-.21.4 2.347 4.623 1.94 8.69-.495 12.984-3.11 5.484-5.78 11.219-8.639 16.846-3.504-6.763-7.116-13.473-10.474-20.308-2.091-4.257.726-10.148 5.808-12.67 1.029-.51 2.325-.564 3.241-1.199 1.076-.746 1.872-1.897 2.79-2.872-1.236-.745-2.432-1.573-3.726-2.195-.516-.248-1.25-.04-2.331-.04 0-13.564-1.744-27.306.616-40.303 1.558-8.582-1.726-15.976-.9-24.105 1.1-10.833.272-21.862.272-33.522 2.835 0 5.398 0 8.4.523.445 2.144.449 3.765.453 5.386l-3.797 2.331a161.45 161.45 0 0 1 3.46 3.393c.343 1.515.313 2.598.283 3.68-1.26.69-2.52 1.378-4.555 2.49 1.59 1.224 2.761 2.126 4.254 3.554.311 1.577.3 2.628.29 3.68z"/><path fill="#F6C91B" d="M149.172 42.485c22.817 7.744 46.156 12.398 70.843 11.642-2.431 5.58-4.624 10.84-7.067 15.98-.36.757-1.872 1.222-2.913 1.362-17.793 2.396-35.078 1.066-51.835-7.737-1.343-.962-2.174-1.617-3.11-1.847-4.304-1.056-5.505-3.699-5.173-8.007.29-3.756-.457-7.592-.745-11.393z"/><path fill="#F7CA1B" d="M76.835 99.606c3.12 6.04 6.282 12.057 9.347 18.125 2.926 5.79.993 11.478-4.836 14.497-.585.303-1.314.391-1.811.787-1.493 1.186-2.904 2.475-4.347 3.723l5.922 3.074c0 12.393.824 26.048-.44 39.507-.451 4.794.051 9.054.244 13.64.599 14.255.22 28.552.22 43.713-2.678 0-5.072 0-7.91-.59-.463-2.152-.48-3.712-.497-5.273l3.25-2.774c-.85-.923-1.7-1.847-2.91-3.302-.39-1.547-.422-2.563-.453-3.579l3.358-2.615c-.865-.89-1.73-1.781-2.968-3.144-.384-1.659-.396-2.846-.409-4.034 3.388-1.263 5.622-2.71.507-5.854-.327-17.81-.3-35.043-.315-52.276-.005-5.797.04-11.603-.292-17.384-.078-1.37-1.583-2.66-2.432-3.986-.48-.5-.96-.999-1.764-1.992-.671-.597-1.02-.7-1.368-.804 0 0 .068-.066.234-.41.03-3.49-1.117-7.044-.042-9.698 2.702-6.668 6.408-12.928 9.712-19.351z"/><path fill="#F5F5F5" d="M99.154 190.818c4.134 5.741 7.991 11.252 12.224 17.3-2.435.832-3.617 1.261-4.815 1.64-3.805 1.2-4.726 3.767-2.28 6.988 2.799 3.688 5.786 7.235 8.682 10.832-5.881 2.9-11.517 6.093-17.488 8.43-2.517.984-5.74.163-8.655.163v-38.037l1.774-.338c.803 3.658 1.492 7.346 2.465 10.958.373 1.383 1.394 2.592 2.12 3.88.994-1.224 2.679-2.352 2.865-3.69.944-6.783-1.883-12.135-6.658-16.88-1.873-1.862-2.758-4.718-4.093-7.12 2.77.636 5.655.982 8.275 2.004 1.947.76 3.551 2.395 5.584 3.87z"/><path fill="#FAFAFA" d="M235.179 276.924c-2.123-2.566-4.024-4.843-6.4-7.69 9.617-1.401 16.223-10.715 26.946-7.644v38.632c-3.72-3.511-4.493-7.315-4.593-11.55-.03-1.27-1.293-2.512-1.991-3.766-1.04 1.202-2.847 2.317-2.993 3.62-.782 6.955 2.121 12.525 7.143 17.23 1.797 1.682 3.172 3.816 4.966 6.022-9.069 2.706-20.198-7.402-25.973-22.419.203-.257.37-.692.617-.744 8.776-1.851 8.123-5.301 2.278-11.691z"/><path fill="#C43214" d="M178.881 456.082c4.611 1.469 8.83 2.834 13.363 4.302-14.64 12.445-48.865 11.738-66.459-11.664 18.434-.389 35.695 2.4 53.096 7.362z"/><path fill="#C83416" d="M205.782 38.168a1555.06 1555.06 0 0 1 10.99 9.637c-22.789 1.825-43.938-3.146-64.982-10.932 12.544-10.004 36.372-11.17 53.992 1.295z"/><path fill="#264DC0" d="M182.12 77.148c2.674-.313 3.979.693 4.095 3.566.108 2.642.629 5.285 1.147 7.891 2.751 13.846 9.361 24.752 22.983 30.485 2.719 1.145 5.41 2.775 7.542 4.789 2.734 2.583 4.028 5.967 2.763 9.146-6.42-2.104-12.492-4.296-18.683-6.066-6.613-1.892-11.934-5.562-16.634-11.252-4.943-12.958-5.004-25.686-3.213-38.559z"/><path fill="#264CC0" d="M160 420.07c-2.878.37-3.802-.666-4.16-3.768a90.64 90.64 0 0 0-3.493-16.46c-2.793-8.968-8.665-15.51-17.138-19.737-3.403-1.698-6.88-3.442-9.848-5.77-3.203-2.511-5.455-5.834-3.533-9.264 8.44 2.961 16.38 6.15 24.567 8.463 4.575 1.292 7.296 4.043 9.68 8.397 1.359 4.09 3.65 7.408 3.844 10.845.513 9.07.116 18.193.081 27.294z"/><path fill="#F8F6EE" d="M269.31 252.945c17.37-9.383 28.247-23.616 28.888-44.058.701-22.384-9.956-38.282-30.059-48.422 4.34 1.557 9.292 2.728 13.245 5.386 31.546 21.216 28.112 69.131-6.028 85.731-1.703.828-3.748.955-6.046 1.363z"/><path fill="#F7F6F0" d="M70.637 245.055c-3.152 2.785-6.948 5.19-10.168 8.21-26.25 24.618-20.803 65.005 10.984 82.15.436.236.834.544 1.39 1.12-1.283.046-2.848.087-4.104-.516-18.582-8.91-29.012-23.864-29.524-44.278-.524-20.903 9.619-36.37 28.261-46.057.83-.432 1.852-.491 3.161-.629z"/><path fill="#2A50C1" d="M194.014 78.094h4.725c1.92 12.924 8.628 22.898 18.006 31.464 2.395 2.188 3.689 5.581 5.488 8.421l-1.543 1.522c-6.33-4.392-12.659-8.785-19.25-13.756-4.194-9.195-7.76-17.907-7.426-27.651z"/><path fill="#294FC0" d="m148.391 418.854-4.714 1.007c-1.86-10.114-5.436-19.079-12.527-26.277-2.094-2.127-4.389-4.087-6.258-6.394-1.71-2.112-2.97-4.59-4.427-6.907l1.058-1.208c5.814 3.49 11.628 6.98 17.736 10.93.562.522.73.687.795.955 0 0 .048-.031.039.347 5.312 8.654 7.977 17.742 8.298 27.547z"/><path fill="#EDE7D2" d="M70.006 132.338c.906.85 2.41 2.138 2.49 3.509.331 5.781.286 11.587.29 17.384.015 17.233-.011 34.467-.056 52.16-4.116-.037-8.242-.32-12.257-1.145-1.315-.27-2.342-1.942-3.5-2.973 1.102-1.064 2.061-2.378 3.35-3.12 1.22-.7 2.785-.802 4.266-1.185.19.707.233 1.222.459 1.635.824 1.507 1.71 2.98 2.572 4.467.827-1.496 2.345-2.979 2.372-4.489.202-11.291.13-22.588.104-33.883-.024-10.627-.096-21.255-.09-32.36z"/><path fill="#F3EEED" d="M161.148 226.472c9-.57 16.796 3.523 24.398 7.821.88.498.894 4.357-.01 5.868-3.892 6.502-8.276 12.709-12.662 19.295 5.483 2.353 10.539 4.523 15.607 7.02-7.086-1.724-14.184-3.774-21.93-6.01 4.698-7.086 8.731-13.131 12.722-19.203 2.965-4.51 2.647-6.211-2.254-8.38-5.132-2.27-10.472-4.071-15.871-6.411z"/><path fill="#FAFAFA" d="M272.045 364.636c-.763-1.599-2.075-3.668-2.09-5.746-.159-22.03-.111-44.06-.156-66.57 3.897-.087 7.883.043 11.734.832 1.448.297 2.583 2.124 3.86 3.253-1.237.971-2.376 2.124-3.74 2.856-1.106.593-2.483.68-4.084 1.076-.165-1.455-.016-2.688-.486-3.603-.515-1.001-1.643-2.41-2.428-2.362-.91.054-1.853 1.414-2.547 2.377-.323.447-.11 1.293-.11 1.959.031 21.818.065 43.636.047 65.928z"/><path fill="#F2F0E8" d="M194.873 329.013c8.594-8.525 17.595-17.038 26.642-25.501 1.429-1.337 3.068-2.449 4.724-3.754-1.191-2.671-2.258-5.063-3.475-7.829 1.072-.837 2.294-1.3 3.707-1.835l4.142 8.677c-10.212 9.549-20.07 18.869-30.088 28.014-1.326 1.21-3.467 1.526-5.652 2.228z"/><path fill="#F6F4EC" d="M146.637 169.052c-8.12 8.212-16.595 16.34-25.143 24.392-1.664 1.568-3.613 2.834-5.522 4.31 1.186 2.642 2.266 5.047 3.445 7.817-2.277 1.886-4.107 2.069-5.116-1.256-.618-2.036-1.728-3.922-2.795-6.266 5.728-4.817 11.64-9.557 17.278-14.605 4.201-3.76 7.935-8.04 12.11-11.833 1.422-1.291 3.554-1.802 5.743-2.56z"/><path fill="#C43618" d="m127.264 169.237 6.36.782.79 1.248c-7.581 6.49-15.162 12.98-23.225 19.3-1.535-1.39-2.589-2.61-3.428-3.583l19.503-17.747z"/><path fill="#274CBE" d="M215.058 327.935h-7.747c7.331-8.526 15.164-14.784 23.688-20.917 1.692 1.237 2.756 2.414 3.661 3.415l-19.602 17.502z"/><path fill="#2D53C0" d="M206.643 77.333c1.244.625 2.828.95 3.678 1.92 6.804 7.763 10.5 17.025 12.05 27.632-1.738-1.736-3.476-3.473-5.41-5.778-.473-.754-.75-.941-1.028-1.129 0 0 .078.015.094-.33-1.015-1.084-2.044-1.825-3.074-2.566 0 0-.003-.039.343-.277-1.987-6.65-4.32-13.06-6.653-19.472z"/><path fill="#274CBE" d="M135.898 420.002c-1.4-.664-3.229-.969-4.129-2.049-6.097-7.313-10.255-15.616-11.866-25.506.094-.45.181-.545.181-.545 1.953 1.747 3.906 3.494 6.057 5.93.768.824 1.34.958 1.91 1.091 0 0-.024.053-.328.298 2.523 7.09 5.349 13.936 8.175 20.78z"/><path fill="#ECEEF4" d="M167.915 266.544c-3.258-.905-6.903-1.694-9.79-3.62-.998-.666-.915-4.63.055-6.272 3.767-6.387 8.09-12.447 12.412-18.94-1.787-.84-3.094-1.455-4.454-2.425 2.885.37 5.823 1.097 9.412 1.983-4.36 6.574-8.192 12.35-12.025 18.126-3.748 5.649-3.521 6.465 2.655 9.724.58.306 1.1.726 1.735 1.424z"/><path fill="#F2F0E8" d="M206.246 133.23c-9.472 14.188-22.86 23.54-38.426 30.035-1.315.549-2.873.519-4.743.708 12.64-6.2 24.948-13.423 34.36-24.722 1.268-1.523 2.206-3.436 3.731-4.6 1.264-.962 3.168-1.085 5.078-1.422z"/><path fill="#EFE6E5" d="M204.218 195.952c-14.316 8.099-28.467 15.976-42.714 23.673-1.79.966-4.092.98-6.605 1.423 13.422-7.69 27.326-15.306 41.135-23.091 3.01-1.698 5.68-4 9.293-6.586-.443 1.957-.708 3.131-1.11 4.581z"/><path fill="#F3F1E9" d="M136.318 364.222c9.913-14.53 23.234-24.654 40.323-30.155-.95.98-2.2 2.031-3.62 2.748-12.465 6.29-23.357 14.45-31.74 25.803-.84 1.139-3.087 1.239-4.963 1.604z"/><path fill="#E4E6EC" d="M137.91 302.212c13.975-8.148 27.8-15.997 41.677-23.755 1.398-.782 3.101-1.018 5.049-1.42-4.096 2.456-8.683 4.646-13.038 7.228-11.562 6.856-23.024 13.882-34.41 20.77.1-.426.344-1.462.723-2.823z"/><path fill="#E9EBF0" d="M215.378 328.042c6.147-5.882 12.615-11.656 19.282-17.609-.905-1.001-1.969-2.178-3.327-3.528 1.222-2.264 2.72-3.221 4.595-.443.913 1.354 2.161 2.481 3.425 3.899-6.681 5.878-13.265 11.767-20.007 17.47-.76.644-2.41.237-3.968.21z"/><path fill="#F6F4EC" d="M148.882 42.283c.578 4.003 1.324 7.839 1.035 11.595-.332 4.308.87 6.951 5.174 8.007.935.23 1.766.885 2.793 1.662-3.932-1.146-8.042-2.533-12.052-4.168-.514-.21-.696-1.703-.707-2.606-.064-5.22-.031-10.443-.031-15.768.736.226 2.117.651 3.788 1.278z"/><path fill="#F3EEED" d="M126.855 169.164c-6.016 5.919-12.44 11.765-19.094 17.82.84.973 1.893 2.194 3.12 3.714-.659 1.018-1.494 1.736-2.407 2.522l-5.455-6.255c6.66-5.777 13.17-11.51 19.815-17.08.838-.702 2.39-.55 4.02-.721z"/><path fill="#D8DBE5" d="M160.27 420.27c-.235-9.301.162-18.423-.35-27.494-.195-3.437-2.486-6.755-3.814-10.491 1.134.372 2.769.844 3.308 1.885 5.874 11.328 4.89 23.32 3.023 35.34-.063.409-1.24.644-2.167.76z"/><path fill="#F5F5F5" d="M153.464 120.804c-3.913-1.17-7.849-2.602-11.625-4.374-.455-.214-.522-2.918.058-3.345 1.425-1.05 3.51-2.272 5.013-1.949 4.75 1.021 6.272 4.854 6.554 9.668z"/><path fill="#ECEEF4" d="M181.7 77.063c-1.37 12.958-1.31 25.686 3.362 38.448-1.659-2.708-4.425-5.72-4.69-8.94-.755-9.154-.52-18.391-.556-27.596-.002-.664.954-1.332 1.884-1.912z"/><path fill="#F5F5F5" d="M200.932 383.695c-1.744 3.054-3.945 3.79-6.785 2.3-4.161-2.183-5.548-5.7-5.032-10.87 4.404 2.658 10.557 1.68 11.817 8.57z"/><path fill="#EEEDE7" d="M72.186 211.275c.422 1.274.434 2.461.419 4.005-6.507.16-13.212.557-18.196-6.316 6.458.827 11.912 1.526 17.777 2.31z"/><path fill="#EEEBDE" d="M76.712 99.39c-3.18 6.64-6.887 12.9-9.589 19.567-1.075 2.654.073 6.208.006 9.73-3.551-1.85-4.558-5.17-3.006-8.567 3.293-7.203 7.077-14.182 10.74-21.211.087-.167 1.13.165 1.85.48z"/><path fill="#F2F0E8" d="M72.315 230.68c.429 1.69.446 3.25.582 5.192-5.633-.63-11.475-1.462-15.93-7.58 5.694.861 10.315 1.56 15.348 2.389z"/><path fill="#EEEFF2" d="M270.227 286.065c-.414-1.145-.404-2.196-.403-3.642 3.92-.007 7.965-.059 11.735.934 2.216.584 3.994 2.829 5.086 5.081-5.33-.76-10.662-1.52-16.418-2.373z"/><path fill="#DCDFE8" d="M148.774 418.912c-.704-9.863-3.37-18.95-8.657-27.59 2.804 4.18 6.041 8.515 8.192 13.335 1.578 3.538 1.85 7.694 2.422 11.616.118.805-1.017 1.793-1.957 2.639z"/><path fill="#E9EBF0" d="M270.273 276.377c-.43-1.21-.4-2.294-.377-3.703 6.313-.022 12.68.156 17.612 6.12-6.058-.826-11.416-1.557-17.235-2.417z"/><path fill="#E4E6EC" d="M193.643 77.983c.038 9.855 3.603 18.567 7.535 27.56-7.398-7.251-8.996-16.91-9.467-26.934-.01-.22 1.018-.49 1.932-.626z"/><path fill="#EEEDE7" d="M265.792 398.477c2.786-5.955 5.455-11.69 8.565-17.174 2.435-4.294 2.842-8.361.532-13.012 3.961 2.475 5.077 5.993 2.864 10.317a4170.7 4170.7 0 0 1-10.65 20.67c-.095.18-.566.36-.71.277-.24-.138-.358-.49-.6-1.078z"/><path fill="#F5F5F5" d="M270.298 266.917c-.435-1.694-.44-3.315-.446-5.341 5.442.764 11.066 1.59 15.227 7.387-5.435-.747-9.892-1.36-14.78-2.046z"/><path fill="#EEEDE7" d="M72.21 221.086c.435 1.084.467 2.1.491 3.498-6.406.512-12.59.062-17.647-5.8a6580.4 6580.4 0 0 1 17.157 2.302z"/><path fill="#DCDFE8" d="M206.299 77.272c2.677 6.472 5.01 12.883 6.978 19.529-3.258-5.805-6.175-11.834-8.955-17.925-.116-.254 1.059-1.097 1.977-1.604z"/><path fill="#E4E6EC" d="M136.306 420.06c-3.234-6.903-6.06-13.748-8.556-20.85 6.664 4.926 8.634 12.279 10.218 19.797.057.27-.815.736-1.662 1.053z"/><path fill="#363636" d="M124.48 328.78c2.221.347 4.439.723 7.814 1.296-1.818 1.964-2.32 2.592-2.911 3.123-.604.542-1.293.988-2.772 2.096-.691-2.103-1.256-3.822-2.028-5.974-.208-.433-.107-.512-.103-.541z"/><path fill="#DCDFE8" d="M212.947 97.414c1.036.409 2.065 1.15 3.075 2.274-1.04-.392-2.06-1.167-3.075-2.274z"/><path fill="#E4E6EC" d="M128.042 398.579c-.562.21-1.133.077-1.795-.433.535-.222 1.16-.067 1.795.433z"/><path fill="#EEEDE7" d="M275.047 367.58c-.596.242-1.206.144-1.848-.316.589-.249 1.21-.137 1.848.315z"/><path fill="#DCDFE8" d="M139.935 390.824c.053-.132-.114-.297-.512-.483.11-.04.285.118.512.483z"/><path fill="#274CBE" d="M119.95 392.04c-.142-.137-.237-.318-.332-.5.113.026.225.053.402.22.064.142-.023.237-.07.28z"/><path fill="#DCDFE8" d="M216.05 100.197c.16-.031.438.156.79.595-.238.118-.488-.09-.79-.595z"/><path fill="#EEEBDE" d="M66.955 129.42c.324-.251.673-.148 1.144.28-.291.24-.705.157-1.144-.28z"/><path fill="#282622" d="M95.864 312.859C79.649 318 65.467 310.052 62.629 294.23c-3.026-16.873 13.455-31.627 29.947-26.81.785.229 1.577.432 2.93.981 9.324 4.312 14.14 11.167 14.732 20.696.69 11.115-4.926 18.657-14.374 23.762M81.26 272.972c-11.708 2.582-17.532 16.693-10.932 27.16 2.612 4.143 5.788 8.193 12.411 8.106 6.757 2.129 14.297-.587 18.625-6.71 4.996-7.065 4.944-15.319-.138-22.173-4.66-6.284-12.071-8.674-19.966-6.383z"/><path fill="#F6F4EC" d="M96.265 312.93c9.047-5.176 14.663-12.718 13.973-23.833-.592-9.529-5.408-16.384-14.343-20.666 7.869-.498 16.056 6.931 18.57 16.705 3.245 12.615-5.818 26.804-18.2 27.795z"/><path fill="#2E2C22" d="m53.045 297.116-5.004 1.127v-15.119c1.51.234 2.856.442 4.665 1.132.423 4.608.38 8.734.34 12.86z"/><path fill="#2A2721" d="M60.167 269.909c-2.318 3.412-4.056.807-6.86-.963 3.406-3.341 6.454-6.513 9.754-9.396.577-.503 2.219.215 3.729.927.026 1.44-.097 2.507-.679 3.173-1.89 2.165-3.95 4.184-5.944 6.259z"/><path fill="#2E2C22" d="M67 320.791c-1.237 1.455-2.318 2.674-4.344.735-2.991-2.863-6.25-5.447-10.17-8.816 3.33-1.437 4.049-5.493 7.487-1.448 2.374 2.427 4.498 4.26 6.32 6.357.624.72.493 2.096.708 3.172zM83.216 323.974c2.432.007 4.452-.265 6.367.068 1.887.328 3.668 1.27 5.333 2.605-4.934 3.94-10.094 2.787-15.474 2.205-.466-2.76-1.09-5.402 3.774-4.878z"/><path fill="#2A2721" d="m118.284 269.992-2.901 1.573-9.05-10.094-1.436.906 2.542-4.272c1.183.72 2.145 1.304 3.574 2.293 2.735 3.468 5.003 6.531 7.27 9.594zM111.211 320.784l-3.624 2.22-2.156-3.26 10.126-10.038c.05.03 1.031.616 2.402 1.648-1.99 3.442-4.368 6.436-6.748 9.43zM125.024 296.98l-5.286.64v-13.675c1.51-.121 3.171-.256 5.024.341.214 4.719.238 8.706.262 12.694z"/><path fill="#282622" d="M86.89 257.014h-6.996l-1.056-4.323h15.976c-.871 5.657-4.5 4.287-7.924 4.323z"/><path fill="#FAF6E9" d="M53.376 297.338c-.29-4.348-.247-8.474-.249-12.973 1.487-.374 3.018-.374 4.65-.374v12.84c-1.317.236-2.694.483-4.4.507zM125.385 297.046c-.385-4.054-.409-8.041-.401-12.483 1.303-.586 2.576-.716 4.82-.947 0 4.233.155 8.08-.05 11.909-.158 2.959-2.284 2.01-4.37 1.52zM67.33 320.96c-.544-1.245-.413-2.621-1.038-3.34-1.821-2.097-3.945-3.931-6.038-6.178 1.438-.219 3.36-.68 4.41.075 2.263 1.625 4.206 3.769 6.01 5.927.631.756.468 2.176.668 3.292-1.227.132-2.455.263-4.012.225z"/><path fill="#F6F4EC" d="M60.486 270.061c1.675-2.227 3.734-4.246 5.625-6.411.582-.666.705-1.732.95-2.991 2.738-2.583 4.247-1.495 4.957 1.52-2.556 2.626-4.933 5.316-7.61 7.662-.741.649-2.377.277-3.922.22z"/><path fill="#F2F0E8" d="M111.48 321.016c2.11-3.226 4.49-6.22 6.812-9.58 1.496-.367 3.049-.367 4.601-.367l.623 1.57c-2.945 2.914-5.824 5.902-8.9 8.67-.517.466-1.889-.017-3.135-.293z"/><path fill="#F3F1E9" d="M118.529 270.24a604.584 604.584 0 0 1-7.205-9.7c1.233-.282 2.967-.842 3.947-.218 3.212 2.047 6.149 4.525 9.192 6.837l-1.326 2.587c-1.454.248-2.909.496-4.608.495z"/><path fill="#262524" d="M244.012 185.154c18.677-7.2 36.525 4.042 35.995 22.67-.342 11.99-9.879 22.124-21.967 22.985-3.376.24-6.814-.401-10.747-1.089-14.32-8.205-19.391-21.59-12.558-33.78 2.272-4.055 6.14-7.217 9.277-10.786m14.75 39.873c10.103-1.007 17.398-10.612 15.714-20.688-1.565-9.373-8.553-15.844-17.174-15.336-1.267-.244-2.573-.821-3.795-.68-9.329 1.083-17.275 10.67-16.318 19.526 1.237 11.441 9.692 18.371 21.573 17.178z"/><path fill="#F8F6EE" d="M243.64 185.063c-2.766 3.66-6.633 6.822-8.905 10.876-6.833 12.19-1.763 25.576 12.162 33.641-10.12-.477-18.912-9.975-19.77-21.183-.803-10.481 6.499-21.079 16.513-23.334z"/><path fill="#353124" d="M250.892 245.492c-1.562-.875-2.723-1.664-3.917-2.475 4.464-5.509 10.269-.928 15.413-3.636l1.126 6.197c-4.433 0-8.327 0-12.622-.086z"/><path fill="#373220" d="M217.338 200.34c1.776-.16 3.552-.322 5.381-.489v13.934c-1.704 0-3.242 0-5.103-.655-.309-4.7-.294-8.744-.278-12.79z"/><path fill="#2E2C22" d="M261.01 173.759c-3.21-.066-6.089.291-8.784-.255-1.867-.378-3.48-2.002-5.207-3.069 1.449-.754 2.854-2.032 4.355-2.158 3.757-.313 7.557-.103 12.735-.103-1.218 2.548-1.953 4.085-3.099 5.585z"/><path fill="#393526" d="m289.08 200.175 5.603-.914c0 4.387.234 8.605-.213 12.749-.081.757-2.935 1.215-4.962 1.3-.445-4.72-.436-8.927-.427-13.135z"/><path fill="#2E2C22" d="M275.184 176.967c1.46-2.205 2.943-2.475 5.12-.637 3.01 2.54 6.317 4.727 9.012 7.687-2.87 2.406-3.852 6.135-7.069 1.962-1.748-1.88-3.223-3.15-4.412-4.649-1.05-1.322-1.78-2.898-2.651-4.363zM231.094 176.656l3.603-2.062 2.966 4.087c-2.96 2.828-5.688 5.724-8.766 8.178-.796.634-2.694-.115-4.545-.684 1.941-3.476 4.341-6.497 6.742-9.519z"/><path fill="#2A2721" d="m224.144 227.36 2.825-1.433 9.906 10.009-2.06 3.46a91.678 91.678 0 0 1-3.618-2.485c-2.68-3.46-4.866-6.506-7.053-9.551zM282.196 227.452c2.44-3.007 4.151-1.079 7.52 2.46-3.517 2.77-6.927 5.627-10.565 8.158-.631.439-2.222-.503-3.726-1.364 2.02-3.456 4.395-6.355 6.77-9.254z"/><path fill="#FEFBF0" d="M216.908 200.239c.414 4.147.4 8.192.361 12.63-1.273.612-2.523.833-4.77 1.23 0-4.076-.054-7.638.017-11.198.053-2.628 1.536-3.425 4.392-2.662zM288.7 200.054c.372 4.329.363 8.536.387 13.18-1.505.332-3.042.228-4.3.142 0-3.571.405-6.584-.105-9.433-.605-3.383.78-4.167 4.018-3.89z"/><path fill="#F8F6EE" d="M274.968 176.713c1.087 1.719 1.817 3.295 2.867 4.617 1.189 1.498 2.664 2.77 4.12 4.474-1.308 1.58-2.51 2.647-4.212.403-2.16-2.849-4.706-5.406-7.27-8.298.731-1.273 1.136-4.345 4.495-1.196z"/><path fill="#F2F0E8" d="M223.876 227.133a391.05 391.05 0 0 1 6.997 9.66c-1.135.37-2.782.987-3.68.42-3.362-2.13-6.48-4.647-9.69-7.02l1.587-2.697c1.506-.197 3.013-.394 4.786-.363zM281.884 227.267c-2.064 3.084-4.44 5.983-6.731 9.238-.832.996-1.749 1.635-3.886 3.126 0-2.528-.5-5.067.08-5.344 3.85-1.837 4.375-8.398 10.537-7.02z"/><path fill="#F8F6EE" d="M230.86 176.374c-2.167 3.304-4.567 6.325-6.842 9.632-1.49.38-3.105.475-4.72.57l-1.03-2.12c3.3-2.9 6.558-5.852 9.954-8.637.435-.356 1.586.16 2.638.555z"/><path fill="#2B2B2B" d="M185.067 409.343c-.07-.726-.163-1.08-.072-1.377.568-1.866 1.131-3.739 1.883-5.53.047-.113 2.37.295 2.455.707.455 2.176 1.254 4.69.57 6.598-1.036 2.898-3.151 2.069-4.836-.398z"/><path fill="#303030" d="M152.304 93.36c-.156-.887-.35-1.442-.187-1.857.73-1.858 1.417-5.156 2.38-5.249 4.014-.39 2.82 3.438 2.854 5.374.061 3.54-1.75 4.94-5.047 1.731z"/><path fill="#363636" d="M178.148 293.814c.68 1.337 1.197 2.357 1.832 3.608l-4.425 2.683-2.866-4.875c1.945-.636 3.62-1.184 5.46-1.416z"/><path fill="#303030" d="M139.974 323.817c-1.771-.398-3.257-1.021-5.491-1.96l4.546-4.344c1.375 2.134 5.287 3.106.945 6.304zM206.08 282.106c2.396 4.363-.388 4.777-3.622 5.245l-1.935-4.992c2.172-.252 3.801-.442 5.557-.253zM192.075 291.975c-4.668 2.666-4.18-1.2-5.487-3.34l5.309-2.333c.215 2.161.382 3.84.178 5.673zM162.517 301.212c1.788.808 3.243 1.8 5.17 3.114-2.208 1.35-3.44 2.105-5.01 3.066-1.19-2.077-4.568-3.548-.16-6.18z"/><path fill="#363636" d="M147.959 312.79c.718-1.663 1.623-2.952 2.85-4.701l3.72 4.447-4.089 3.25c-.845-.965-1.57-1.794-2.481-2.996zM215.51 278.849c3.606-3.339 5.555-2.516 5.722 2.68l-4.637 1.308c-.394-1.39-.702-2.477-1.086-3.988zM191.061 188.545c-1.223-1.163-2.11-2.296-3.247-3.748l4.115-3.133 3.45 4.102c-1.424 1.006-2.702 1.908-4.318 2.78z"/><path fill="#303030" d="M141.243 213.93c-1.382 1.105-2.78 1.797-4.438 2.618l-1.922-4.817 4.809-2.056c.581 1.456 1.057 2.65 1.55 4.255zM200.872 174.812c3.419-3.76 4.526-.516 6.294 1.62l-4.347 3.877c-.886-2.087-1.56-3.675-1.947-5.497zM121.854 219.985c-2.07-4.26.321-4.949 3.81-5.142l1.749 4.97c-2.106.211-3.76.377-5.559.172z"/><path fill="#363636" d="M155.352 208.273c-1.195 1.133-2.454 1.85-4.115 2.796l-2.545-4.59 4.752-2.549c.67 1.428 1.257 2.678 1.908 4.343z"/><path fill="#303030" d="M164.579 198.567c1.874.518 3.419 1.252 6.136 2.544l-7.185 4.236c.337-3.068.528-4.815 1.049-6.78z"/><path fill="#2B2B2B" d="M179.16 190.358c1.294 1.049 2.269 2.285 3.456 3.79l-4.137 2.925c-2.72-2.531-4.056-4.749.681-6.715z"/><path fill="#303030" d="M215.588 163.262c1.137 1.174 1.953 2.13 2.87 3.204l-3.773 3.43-3.686-3.856c1.581-1.11 2.924-2.052 4.589-2.778z"/><path fill="#262625" d="M224.044 157.879c-3.962-3.112-.026-4.062 1.095-6.167l4.559 4.15c-2.144.897-3.776 1.58-5.654 2.017z"/><path fill="#C83213" d="M82.015 273.16c7.14-2.48 14.551-.09 19.211 6.195 5.082 6.854 5.134 15.108.138 22.174-4.328 6.122-11.868 8.838-19.084 6.195-7.722-5.472-10.695-12.235-9.438-21.002.874-6.094 5.398-9.531 9.173-13.562z"/><path fill="#F5EEEC" d="M81.638 273.066c-3.398 4.125-7.922 7.562-8.796 13.656-1.257 8.767 1.716 15.53 9.076 20.804-5.802.8-8.978-3.25-11.59-7.394-6.6-10.467-.776-24.578 11.31-27.066z"/><path fill="#244CC1" d="M257.959 224.872c-11.078 1.348-19.533-5.582-20.77-17.023-.957-8.855 6.989-18.443 16.318-19.525 1.222-.142 2.528.435 4.32 1.05 2.813 1.91 5.53 3.065 7.319 5.054 8.803 9.79 5.555 23.154-7.187 30.444z"/><path fill="#EEEFF2" d="M258.36 224.95c12.34-7.368 15.59-20.733 6.786-30.522-1.79-1.99-4.506-3.144-6.94-4.989 7.717-.944 14.705 5.527 16.27 14.9 1.684 10.076-5.611 19.681-16.116 20.61z"/></svg>